<?xml version="1.0" standalone="no"?>
<!DOCTYPE svg PUBLIC "-//W3C//DTD SVG 20010904//EN"
 "http://www.w3.org/TR/2001/REC-SVG-20010904/DTD/svg10.dtd">
<svg version="1.0" xmlns="http://www.w3.org/2000/svg"
 width="300.000000pt" height="393.000000pt" viewBox="0 0 300.000000 393.000000"
 preserveAspectRatio="xMidYMid meet">
<metadata>
Created by potrace 1.10, written by Peter Selinger 2001-2011
</metadata>
<g transform="translate(0.000000,393.000000) scale(0.100000,-0.100000)"
fill="#000000" stroke="none">
<path d="M245 3920 c-3 -5 -1 -10 4 -10 6 0 11 5 11 10 0 6 -2 10 -4 10 -3 0
-8 -4 -11 -10z"/>
<path d="M357 3913 c4 -11 3 -14 -5 -9 -7 4 -12 1 -12 -8 0 -8 4 -17 9 -20 15
-9 1 -45 -15 -39 -8 3 -12 9 -9 13 3 5 -4 8 -15 7 -23 -1 -31 -20 -26 -60 4
-35 16 -48 16 -18 0 12 4 19 10 16 6 -3 10 -15 10 -26 0 -14 -7 -19 -29 -19
-17 0 -33 5 -36 10 -3 6 -1 10 6 10 8 0 8 4 -1 15 -11 13 -15 13 -22 3 -6 -9
-8 -3 -4 17 3 17 3 24 0 17 -3 -6 -11 -9 -17 -5 -7 4 -8 0 -4 -12 5 -11 1 -23
-10 -32 -17 -13 -16 -14 6 -7 16 4 21 3 17 -5 -4 -6 -16 -11 -27 -11 -10 0
-19 -4 -19 -10 0 -5 4 -10 9 -10 5 0 11 -12 14 -26 3 -20 0 -28 -14 -31 -27
-8 -23 -23 6 -23 25 0 29 10 27 67 -1 21 23 39 32 25 3 -5 21 -6 40 -4 33 4
50 22 45 48 -4 22 2 35 13 28 7 -4 8 -3 4 4 -4 7 -2 12 5 12 7 0 10 3 6 6 -9
9 25 44 37 37 6 -3 -2 8 -18 25 -34 37 -38 39 -29 15z m-47 -93 c0 -5 -2 -10
-4 -10 -3 0 -8 5 -11 10 -3 6 -1 10 4 10 6 0 11 -4 11 -10z"/>
<path d="M400 3922 c0 -5 15 -6 32 -4 29 4 31 3 20 -10 -11 -14 -9 -16 13 -14
27 1 33 11 13 19 -8 3 -6 6 5 6 9 1 17 -3 17 -9 0 -5 5 -10 11 -10 8 0 8 4 0
14 -12 14 -111 21 -111 8z"/>
<path d="M542 3925 c4 -4 1 -14 -7 -22 -11 -11 -12 -19 -3 -39 8 -18 14 -21
20 -12 4 7 8 9 8 4 0 -6 7 -1 15 10 11 14 15 16 15 4 0 -11 6 -8 20 9 24 28
25 41 5 41 -8 0 -15 -7 -15 -15 0 -8 -5 -15 -11 -15 -5 0 -7 4 -4 10 3 5 0 7
-9 4 -9 -3 -12 -12 -9 -21 5 -11 3 -14 -6 -9 -7 5 -11 17 -8 27 3 10 0 22 -6
26 -7 3 -9 3 -5 -2z"/>
<path d="M715 3910 c2 -11 0 -20 -4 -20 -5 0 -11 -9 -14 -21 -5 -20 -5 -20 14
-3 15 14 24 16 37 7 9 -5 17 -15 17 -21 0 -6 4 -14 8 -19 5 -4 7 -2 5 6 -1 7
3 16 11 19 8 2 11 1 8 -4 -3 -5 9 -10 26 -11 25 -1 28 0 12 7 -17 6 -14 9 19
15 24 5 41 4 45 -3 21 -35 113 -37 131 -2 6 10 17 16 27 14 29 -7 47 10 34 32
-9 17 -10 17 -11 2 0 -10 -7 -18 -15 -18 -8 0 -15 8 -15 18 0 14 -2 15 -10 2
-8 -13 -10 -13 -10 0 0 11 -3 11 -12 2 -17 -17 -19 -45 -5 -55 7 -4 -4 -5 -23
-1 -19 3 -45 7 -57 8 -17 1 -21 6 -17 19 3 9 0 17 -6 17 -6 0 -8 5 -5 10 3 6
-1 10 -9 10 -9 0 -15 -4 -13 -9 1 -5 -2 -9 -8 -9 -5 0 -9 4 -7 9 1 5 -4 9 -12
9 -9 0 -12 -7 -9 -19 3 -10 0 -22 -6 -25 -7 -4 -11 1 -11 13 0 12 -5 21 -11
21 -7 0 -9 -10 -5 -26 5 -19 3 -25 -6 -21 -7 2 -12 10 -10 17 2 8 -3 10 -13 7
-8 -4 -15 -2 -15 4 0 6 -4 8 -8 5 -5 -3 -15 4 -22 15 -18 25 -30 24 -25 -1z"/>
<path d="M1120 3913 c0 -15 -2 -16 -10 -3 -5 8 -10 10 -10 5 0 -16 32 -40 60
-44 48 -7 55 -6 55 9 0 11 -11 15 -42 14 -31 0 -40 3 -33 11 5 7 7 15 3 18
-12 12 -23 7 -23 -10z"/>
<path d="M1226 3903 c8 -32 24 -55 24 -32 0 26 -12 59 -21 59 -5 0 -6 -12 -3
-27z"/>
<path d="M2187 3910 c-10 -12 -15 -25 -12 -30 11 -17 -11 -11 -35 10 -25 21
-40 18 -41 -8 0 -11 -2 -13 -6 -4 -3 9 -9 10 -18 2 -8 -7 -24 -6 -54 5 -22 8
-41 10 -41 5 0 -6 -5 -10 -11 -10 -6 0 -8 9 -4 20 4 11 2 20 -4 20 -6 0 -11
-7 -11 -16 0 -13 -3 -14 -14 -5 -9 8 -32 10 -65 5 -45 -6 -51 -10 -60 -38 -10
-28 -9 -29 4 -12 11 14 27 19 72 19 72 0 143 -12 162 -27 11 -8 13 -8 8 0 -4
7 3 12 20 12 15 0 29 5 31 11 2 7 9 8 22 1 20 -11 88 -9 107 3 9 5 11 3 7 -6
-2 -7 1 -14 8 -15 7 0 22 -3 33 -5 11 -3 27 -7 35 -9 8 -1 15 4 15 12 0 8 -9
15 -20 15 -15 0 -21 7 -22 30 -2 27 -2 28 7 8 12 -30 18 -29 12 2 -3 17 -11
25 -24 25 -17 0 -19 -5 -13 -30 7 -34 -10 -42 -20 -10 -3 11 -13 20 -21 20
-11 0 -13 -6 -9 -20 4 -11 2 -20 -4 -20 -10 0 -15 20 -12 48 2 17 -2 15 -22
-8z"/>
<path d="M2321 3914 c0 -11 3 -14 6 -6 3 7 2 16 -1 19 -3 4 -6 -2 -5 -13z"/>
<path d="M2395 3911 c7 -22 -10 -30 -18 -8 -3 6 -6 2 -6 -11 -1 -14 -5 -21
-12 -16 -6 4 -9 -1 -8 -12 2 -11 1 -24 -3 -29 -4 -6 -3 -17 3 -25 7 -12 9 -12
9 3 0 11 4 15 12 11 7 -5 8 -3 4 5 -5 7 -1 20 9 30 13 15 20 17 40 7 13 -6 21
-14 19 -18 -8 -13 11 -9 24 4 17 17 15 35 -8 58 -28 28 -36 25 -16 -5 9 -14
13 -25 9 -25 -15 0 -38 19 -38 31 0 7 -6 14 -14 17 -9 3 -11 -1 -6 -17z"/>
<path d="M290 3905 c-7 -9 -10 -18 -6 -22 3 -3 6 -1 6 5 0 7 5 12 11 12 5 0 7
-4 4 -10 -3 -5 -2 -10 4 -10 5 0 13 5 16 10 3 6 1 10 -5 10 -6 0 -8 5 -5 10
10 16 -11 12 -25 -5z"/>
<path d="M1272 3908 c-7 -7 -12 -19 -12 -27 0 -13 2 -13 9 -2 6 9 11 10 15 3
4 -6 13 -9 21 -6 11 5 12 11 4 25 -11 22 -20 24 -37 7z"/>
<path d="M1351 3912 c0 -7 -6 -10 -12 -6 -8 5 -10 -1 -6 -18 4 -16 2 -25 -6
-26 -6 -1 -37 -3 -67 -5 -57 -5 -84 -25 -28 -22 18 1 50 2 70 3 27 2 38 7 43
22 4 11 11 17 17 14 6 -4 18 2 26 12 12 16 14 16 9 2 -3 -10 -2 -20 2 -23 15
-9 20 34 5 46 -11 9 -15 8 -20 -5 -8 -21 -21 -20 -27 2 -3 9 -5 11 -6 4z"/>
<path d="M2501 3898 c-5 -13 -5 -30 0 -40 5 -9 6 -24 3 -32 -5 -12 -2 -15 12
-9 13 5 15 3 9 -7 -5 -9 -4 -11 3 -6 7 4 12 2 12 -3 0 -6 4 -11 9 -11 15 0 61
46 54 53 -7 7 -1 9 45 11 17 0 29 -4 29 -11 0 -7 -4 -13 -8 -13 -14 0 -5 -39
9 -45 12 -4 12 -8 1 -22 -13 -15 -12 -15 8 -5 28 15 36 15 27 0 -4 -6 -7 -32
-6 -57 1 -25 2 -65 3 -88 0 -24 5 -43 10 -43 5 0 7 20 6 45 -1 25 1 46 4 47 4
2 4 22 0 46 -8 40 -7 42 15 42 37 0 28 15 -15 30 -39 13 -59 34 -41 45 4 3 15
-2 23 -10 9 -8 20 -15 25 -15 6 0 13 -6 15 -12 3 -7 6 -3 6 10 1 13 -3 21 -8
17 -5 -3 -12 -1 -16 5 -3 5 1 10 9 10 9 0 16 5 16 11 0 6 -7 9 -15 6 -19 -8
-30 10 -15 28 7 9 8 15 0 20 -5 3 -13 -1 -16 -10 -5 -13 -18 -16 -58 -13 -28
2 -56 9 -62 17 -6 8 -16 11 -23 7 -9 -6 -8 -14 4 -32 8 -13 11 -24 5 -24 -5 0
-10 -7 -10 -15 0 -23 -16 -18 -40 12 -16 21 -18 28 -8 35 10 7 10 11 1 14 -7
3 -9 12 -6 20 3 8 2 14 -1 14 -4 0 -10 -10 -15 -22z"/>
<path d="M1433 3895 c-19 -21 -16 -35 6 -35 11 0 23 -4 26 -10 3 -5 17 -9 30
-8 13 1 21 7 17 13 -3 5 2 4 11 -4 9 -7 24 -11 32 -7 8 3 15 1 15 -5 0 -6 5
-7 10 -4 6 4 18 1 26 -6 8 -6 17 -9 21 -5 3 3 1 6 -5 6 -7 0 -12 10 -12 23 0
18 -2 19 -10 7 -6 -9 -10 -10 -10 -3 0 6 -12 12 -27 12 -16 0 -39 2 -51 5 -18
4 -22 2 -18 -10 4 -12 2 -12 -14 -4 -11 6 -19 14 -19 18 5 32 -8 40 -28 17z"/>
<path d="M1560 3900 c0 -5 5 -10 10 -10 6 0 10 5 10 10 0 6 -4 10 -10 10 -5 0
-10 -4 -10 -10z"/>
<path d="M1689 3900 c-1 -8 -1 -20 0 -27 1 -7 -7 -9 -20 -6 -17 5 -21 3 -16
-9 3 -9 1 -20 -5 -26 -6 -6 -6 -12 1 -17 6 -3 11 -3 10 2 -1 4 1 16 5 25 6 14
12 15 27 7 14 -7 19 -6 19 2 0 7 10 9 30 6 42 -9 60 1 59 32 l-1 26 -7 -25
c-7 -24 -7 -24 -19 -5 -6 11 -12 15 -12 9 0 -7 -12 -14 -26 -17 -19 -3 -28 1
-34 17 -6 14 -9 16 -11 6z"/>
<path d="M633 3887 c-3 -6 -1 -13 5 -15 7 -2 19 -10 27 -19 13 -13 15 -11 13
11 -2 26 -33 42 -45 23z"/>
<path d="M2537 3883 c3 -10 10 -23 14 -29 5 -6 5 -15 1 -19 -4 -5 -2 -5 5 -2
8 5 8 15 0 37 -12 31 -31 43 -20 13z"/>
<path d="M1618 3865 c2 -14 8 -25 13 -25 10 0 11 12 3 34 -10 25 -22 19 -16
-9z"/>
<path d="M433 3865 c-17 -7 -33 -11 -36 -9 -2 3 -7 -1 -10 -9 -4 -10 2 -13 21
-11 15 2 44 4 65 6 20 1 37 7 37 12 0 6 5 4 10 -4 7 -10 10 -11 10 -2 0 18
-28 26 -44 13 -11 -9 -15 -9 -18 3 -3 12 -7 13 -35 1z"/>
<path d="M250 3859 c0 -5 5 -7 10 -4 6 3 10 8 10 11 0 2 -4 4 -10 4 -5 0 -10
-5 -10 -11z"/>
<path d="M716 3853 c-6 -14 -5 -15 5 -6 7 7 10 15 7 18 -3 3 -9 -2 -12 -12z"/>
<path d="M200 3840 c0 -5 5 -10 10 -10 6 0 10 5 10 10 0 6 -4 10 -10 10 -5 0
-10 -4 -10 -10z"/>
<path d="M2464 3838 c-4 -6 -2 -14 4 -16 7 -2 9 -9 6 -14 -4 -7 -2 -8 4 -4 14
9 16 33 3 41 -5 3 -13 0 -17 -7z"/>
<path d="M1489 3783 c7 -14 7 -24 2 -28 -6 -3 -8 -22 -6 -43 2 -20 4 -66 5
-102 1 -105 20 -48 23 71 2 74 7 103 18 110 11 7 11 9 -3 9 -10 0 -18 -7 -18
-17 0 -15 -2 -14 -16 3 -15 18 -15 18 -5 -3z"/>
<path d="M1543 3665 c-1 -120 12 -161 16 -52 1 34 4 73 5 87 2 14 4 31 4 39 3
26 14 3 18 -39 2 -28 0 -39 -7 -34 -8 4 -8 0 0 -14 6 -11 11 -23 11 -27 0 -3
-5 -3 -11 1 -8 4 -8 1 -1 -12 5 -11 8 -30 7 -44 -2 -14 -4 -32 -4 -40 -1 -13
-2 -13 -11 0 -8 13 -10 12 -10 -2 0 -10 -3 -18 -7 -18 -7 0 -8 -65 -3 -190 1
-14 -2 -62 -5 -107 -5 -57 -3 -83 4 -83 7 0 11 23 11 58 0 51 10 112 27 167 5
18 4 18 -11 6 -15 -13 -17 -11 -15 25 1 21 9 48 18 58 11 13 11 17 2 11 -10
-5 -12 -3 -8 11 4 11 9 31 12 45 4 14 13 26 21 26 9 0 12 -7 9 -19 -3 -10 -8
-28 -11 -40 -6 -20 -5 -21 9 -10 8 7 13 21 10 32 -3 11 0 20 6 20 6 0 8 7 4
17 -4 10 -2 14 4 10 6 -4 11 -1 10 6 0 6 1 23 3 37 2 21 4 20 9 -10 4 -19 3
-40 -1 -46 -5 -7 -10 -28 -12 -46 -2 -19 -5 -39 -8 -44 -3 -5 -9 -25 -13 -44
-4 -19 -11 -37 -15 -40 -4 -3 -4 -14 0 -25 6 -17 9 -14 15 18 4 20 11 37 16
37 5 0 9 8 9 18 0 10 7 27 15 38 8 10 15 24 15 31 0 6 5 24 12 40 6 15 12 31
12 34 1 3 9 13 19 23 16 17 17 16 17 -7 0 -13 -3 -27 -7 -31 -5 -4 -8 -11 -9
-14 -1 -8 -11 -33 -35 -89 -11 -23 -19 -49 -19 -57 0 -9 -4 -16 -9 -16 -9 0
-24 -37 -22 -56 1 -6 -10 -17 -24 -24 -14 -7 -26 -20 -26 -29 -5 -52 -3 -109
4 -131 11 -32 19 -87 19 -127 0 -28 3 -31 34 -35 30 -3 34 -1 32 15 -3 18 26
47 35 37 2 -3 7 -51 10 -106 l6 -102 -102 -3 c-56 -2 -148 -2 -205 -1 l-103 4
7 101 c4 56 8 103 9 105 1 1 10 -1 19 -4 13 -5 17 -15 14 -36 -3 -20 -1 -25 6
-18 5 5 22 10 36 10 25 0 27 3 25 46 0 25 2 47 6 50 5 3 6 11 2 19 -3 9 1 22
8 31 12 14 16 120 5 131 -2 3 0 17 5 31 8 22 8 23 -5 12 -13 -10 -18 -9 -31 3
-8 9 -15 23 -15 31 0 9 -5 16 -11 16 -6 0 -9 7 -5 15 3 8 2 15 -3 15 -8 0 -22
32 -25 55 -1 6 -3 12 -6 15 -15 15 -30 52 -25 60 4 6 1 10 -4 10 -6 0 -11 9
-11 20 0 11 -4 20 -9 20 -5 0 -8 11 -8 25 0 14 2 25 4 25 11 0 33 -30 33 -44
0 -9 5 -16 11 -16 6 0 9 -7 5 -15 -3 -8 -1 -15 4 -15 6 0 10 -9 10 -20 0 -11
5 -20 10 -20 6 0 10 -6 9 -12 -2 -14 2 -26 32 -95 11 -23 19 -47 19 -54 0 -7
2 -10 5 -7 7 7 -25 139 -37 155 -5 7 -7 17 -4 22 4 5 2 13 -4 16 -6 4 -8 15
-5 26 4 11 2 19 -5 19 -11 0 -9 44 3 56 6 7 11 -19 8 -39 -1 -5 3 -6 9 -2 7 4
9 -3 6 -19 -3 -15 -1 -24 4 -21 5 3 11 1 15 -5 3 -5 2 -10 -4 -10 -6 0 -8 -7
-5 -15 4 -8 10 -12 15 -9 5 3 7 10 4 15 -4 5 -1 9 5 9 7 0 5 7 -4 16 -9 8 -16
22 -16 29 0 8 -5 26 -12 42 -14 34 -19 103 -7 103 5 0 12 -12 15 -27 4 -16 10
-32 14 -38 3 -5 6 -27 5 -47 0 -20 2 -35 6 -32 9 5 21 -44 14 -56 -4 -6 -1
-10 5 -10 7 0 9 -8 5 -20 -3 -11 -2 -20 3 -20 5 0 10 -21 11 -47 1 -42 0 -45
-12 -29 -10 13 -16 15 -21 8 -4 -7 -2 -12 5 -12 6 0 9 -8 6 -20 -3 -10 0 -21
6 -23 6 -2 11 -43 13 -95 2 -51 -1 -90 -5 -88 -4 3 -7 -5 -6 -17 1 -12 0 -26
-3 -31 -3 -5 -6 -24 -8 -43 -2 -19 -6 -43 -9 -54 -4 -10 -2 -19 3 -19 12 0 22
35 22 83 0 20 4 37 9 37 5 0 7 8 4 19 -3 10 -1 21 4 24 4 3 5 50 2 104 -4 54
-4 102 -2 106 9 14 3 164 -6 189 -6 13 -10 16 -11 8 0 -13 -1 -13 -10 0 -13
20 -12 33 2 24 7 -5 8 -3 3 6 -18 28 -21 165 -5 185 7 8 10 18 6 22 -3 3 -6 1
-6 -5 0 -7 -6 -11 -12 -9 -8 1 -12 -7 -10 -20 2 -18 -1 -21 -22 -19 -15 2 -23
-1 -19 -7 3 -5 -2 -16 -12 -24 -11 -7 -15 -13 -11 -13 5 0 3 -7 -4 -15 -9 -11
-9 -19 -2 -28 8 -9 5 -19 -8 -37 -11 -14 -20 -19 -20 -12 0 7 -4 10 -10 7 -5
-3 -10 -1 -10 4 0 20 -32 11 -37 -10 -5 -16 -8 -18 -15 -7 -7 9 -8 7 -3 -7 4
-11 8 -26 8 -32 0 -7 5 -13 10 -13 6 0 8 -3 4 -6 -3 -3 3 -16 14 -27 14 -16
16 -23 7 -29 -10 -6 -10 -8 0 -8 6 0 12 -7 12 -15 0 -8 8 -23 18 -33 9 -10 18
-27 18 -37 1 -11 5 -29 9 -39 7 -15 5 -18 -6 -12 -8 4 -5 0 6 -9 11 -9 19 -21
17 -27 -2 -6 4 -8 14 -4 12 5 15 2 10 -10 -4 -11 -2 -15 6 -11 9 3 13 -6 14
-27 0 -17 4 -40 9 -50 6 -14 5 -17 -4 -12 -9 6 -12 2 -10 -10 2 -11 0 -25 -5
-33 -7 -10 -5 -12 5 -7 9 5 8 3 -2 -6 -8 -7 -18 -21 -22 -30 -4 -13 -2 -15 11
-10 16 6 16 4 -1 -21 -22 -34 -22 -43 1 -26 15 13 16 12 4 -3 -8 -9 -11 -21
-8 -26 3 -5 -2 -9 -10 -9 -8 0 -13 6 -10 14 3 7 -1 13 -10 13 -11 0 -14 5 -10
16 5 14 4 15 -8 5 -10 -9 -16 -9 -21 -1 -13 20 -32 -22 -38 -83 -3 -32 -14
-71 -23 -85 -16 -24 -16 -26 -1 -13 15 12 17 11 17 -3 0 -9 -4 -16 -10 -16 -5
0 -9 -6 -7 -12 1 -9 -18 -15 -60 -18 -71 -6 -94 -20 -71 -44 9 -8 18 -12 22
-9 3 4 6 -1 6 -10 0 -9 -9 -21 -21 -27 -16 -9 -20 -8 -18 2 4 21 -12 59 -22
53 -5 -4 -9 0 -9 7 0 8 -5 6 -11 -5 -10 -18 -11 -18 -25 0 -13 17 -14 17 -8 0
7 -19 -23 -60 -37 -51 -5 3 -9 -2 -9 -10 0 -14 -12 -20 -32 -17 -5 0 -6 -15
-3 -35 4 -30 2 -34 -9 -24 -11 8 -18 6 -30 -12 -17 -24 -21 -42 -8 -35 4 3 5
-39 2 -94 -3 -54 -1 -99 3 -99 5 0 5 -4 2 -10 -3 -5 0 -10 7 -10 10 0 10 -2
-1 -9 -8 -5 -21 -7 -29 -3 -9 3 -13 1 -9 -5 4 -6 0 -16 -8 -23 -21 -18 -19
-37 7 -51 18 -10 20 -13 8 -17 -19 -6 -65 -42 -65 -50 0 -4 -3 -11 -6 -17 -8
-13 7 -55 20 -55 15 0 10 -99 -6 -112 -7 -6 -11 -19 -8 -29 3 -10 1 -46 -6
-81 -6 -35 -12 -68 -13 -75 -1 -7 -5 -16 -9 -19 -4 -4 -7 -15 -7 -25 0 -10 -5
-29 -12 -43 -9 -22 -13 -24 -22 -10 -6 8 -18 16 -26 17 -8 2 -20 6 -26 10 -7
4 -10 -2 -9 -17 2 -16 -4 -28 -21 -37 -17 -9 -21 -15 -12 -20 8 -5 3 -11 -15
-18 -16 -6 -26 -15 -22 -21 3 -5 -3 -18 -15 -30 -26 -26 -25 -44 3 -62 24 -16
93 -42 117 -44 8 0 34 -11 57 -23 23 -11 53 -19 65 -17 25 3 68 -12 68 -26 0
-4 -3 -7 -7 -7 -22 4 -32 -3 -39 -23 -7 -22 -7 -22 -15 -3 -7 19 -8 19 -8 -2
-1 -26 -18 -39 -46 -34 -11 2 -17 0 -13 -5 11 -10 -30 -37 -44 -28 -7 4 -8 3
-4 -4 4 -7 3 -12 -1 -12 -7 0 -18 -18 -52 -84 -2 -5 2 -6 9 -1 10 6 12 3 8
-11 -4 -16 1 -19 26 -19 39 1 57 11 49 30 -5 14 7 19 36 16 8 -2 10 2 5 10 -4
8 -3 10 5 5 9 -6 9 -11 0 -22 -9 -11 -14 -12 -19 -3 -9 14 -18 0 -15 -22 2 -8
-10 -24 -26 -35 -28 -19 -34 -31 -31 -67 1 -10 -2 -16 -6 -13 -5 3 -9 -13 -10
-35 -2 -26 1 -39 10 -40 7 0 21 -2 31 -4 9 -2 15 1 12 5 -3 5 -1 11 4 15 6 3
7 13 4 23 -4 12 -3 14 6 6 8 -7 8 -24 1 -63 -5 -29 -7 -57 -4 -62 3 -5 1 -9
-5 -9 -6 0 -8 -7 -5 -15 10 -26 21 -8 34 57 8 35 22 72 32 83 31 32 129 196
131 216 1 11 9 19 18 19 9 0 27 20 40 45 13 25 27 45 32 45 4 0 15 -9 24 -20
10 -11 21 -20 25 -20 8 0 29 44 54 110 9 25 18 34 31 32 30 -6 38 -20 21 -39
-23 -26 -58 -99 -58 -121 0 -26 -10 -33 -31 -21 -13 6 -19 6 -19 -1 0 -5 7
-10 15 -10 19 0 19 -4 0 -40 -15 -29 -15 -30 5 -30 24 0 45 43 60 122 6 28 12
53 13 55 6 6 67 -19 67 -27 0 -4 -6 -13 -14 -20 -16 -12 -58 -130 -55 -152 4
-34 -16 -45 -49 -25 -8 6 -10 3 -6 -8 4 -10 13 -13 26 -9 14 4 19 2 16 -8 -15
-60 -205 -617 -210 -618 -13 0 -14 234 -1 245 15 13 143 371 143 401 0 41 -16
27 -45 -38 -16 -35 -52 -112 -80 -173 -29 -60 -58 -127 -66 -147 -20 -56 -29
-46 -23 24 9 106 11 113 101 292 74 150 85 178 76 198 -10 22 -12 21 -34 -27
-13 -27 -26 -52 -29 -55 -9 -8 -175 -281 -194 -317 -9 -18 -24 -37 -33 -42
-15 -9 -16 -10 -2 -11 9 0 24 9 34 20 10 11 22 17 26 14 5 -3 6 1 3 9 -3 8 2
20 10 27 9 7 13 17 9 23 -3 5 -1 7 4 4 10 -6 27 27 24 46 -1 4 3 7 9 7 15 0
12 -17 -6 -45 -18 -27 -26 -163 -12 -202 8 -24 38 -22 38 1 0 7 7 13 15 13 8
0 15 -4 15 -9 0 -4 -3 -8 -7 -8 -5 0 -8 -40 -8 -89 0 -49 3 -93 8 -97 11 -11
9 -26 -3 -19 -5 3 -10 -1 -10 -9 0 -8 5 -18 10 -21 6 -4 8 -11 5 -16 -4 -5 -1
-9 5 -9 6 0 9 -4 6 -8 -3 -5 1 -9 9 -9 8 0 12 4 10 8 -3 3 2 12 10 19 8 7 15
19 15 26 0 8 5 14 11 14 6 0 9 6 7 12 -3 7 1 19 8 26 7 7 11 19 8 26 -3 8 2
26 11 40 9 14 14 30 10 37 -4 6 -2 15 5 19 7 4 13 19 13 34 0 15 4 23 10 19 6
-3 7 -1 3 5 -4 7 -4 17 0 23 5 8 8 8 13 0 4 -6 7 6 7 27 0 42 25 132 36 132
17 0 20 -81 4 -160 -2 -14 -7 -49 -10 -79 -3 -30 -11 -58 -17 -62 -7 -4 -11
-27 -10 -56 3 -74 5 -83 12 -83 9 0 18 -39 24 -104 5 -60 22 -80 59 -70 18 4
24 10 18 16 -7 7 -7 20 0 39 5 16 7 36 4 44 -3 8 -1 15 5 15 6 0 8 9 4 20 -3
11 -3 25 2 32 7 13 10 31 14 90 1 16 6 25 12 21 7 -4 8 1 3 12 -4 11 -1 22 6
27 9 6 9 11 2 14 -6 2 -9 18 -6 34 2 16 8 27 13 24 5 -3 9 -1 9 5 0 5 -4 12
-10 16 -5 3 -7 11 -5 18 4 10 10 48 14 95 0 6 5 12 11 12 5 0 7 -6 4 -14 -3
-8 -1 -16 3 -19 5 -3 10 3 10 14 1 11 -5 23 -13 26 -20 8 -17 23 4 17 10 -4
13 -3 6 3 -14 10 -17 93 -4 93 6 0 13 -6 15 -13 10 -25 11 -157 1 -160 -5 -2
-3 -13 4 -26 7 -15 8 -21 1 -17 -6 4 -11 2 -11 -3 0 -6 5 -11 10 -11 6 0 10
-7 10 -15 0 -8 -4 -15 -9 -15 -5 0 -12 -7 -15 -16 -3 -8 -2 -12 4 -9 14 9 13
-168 -2 -200 -9 -21 -9 -31 0 -46 15 -23 15 -32 1 -23 -8 5 -8 1 0 -14 6 -12
16 -24 21 -27 6 -3 10 -15 10 -26 0 -13 4 -18 13 -13 10 6 10 4 0 -7 -15 -15
-17 -33 -4 -25 5 3 25 -35 45 -85 27 -67 35 -100 31 -121 -5 -20 -10 -26 -18
-20 -7 5 -34 8 -61 6 -28 -2 -55 0 -60 4 -12 9 -19 9 -59 -3 -18 -5 -25 -11
-19 -17 6 -6 23 -6 45 0 42 12 57 3 25 -15 -13 -7 -17 -12 -10 -13 7 0 11 -4
8 -9 -3 -5 3 -11 14 -14 19 -5 38 9 38 28 1 6 10 16 21 24 18 12 21 11 21 -3
0 -9 -5 -16 -12 -16 -6 0 -4 -8 6 -19 11 -12 25 -17 38 -13 14 3 19 1 14 -6
-4 -7 -3 -12 3 -12 25 0 19 21 -8 26 -17 4 -31 11 -31 16 0 6 11 7 25 4 18 -5
25 -2 25 9 0 15 12 18 67 15 19 -1 35 5 40 14 9 16 53 12 53 -5 0 -5 5 -9 11
-9 6 0 8 9 3 22 -6 20 -5 21 9 10 9 -8 25 -11 37 -7 11 3 20 2 20 -2 0 -5 16
-7 35 -5 21 3 35 0 35 -7 0 -6 7 -11 15 -11 19 0 19 -6 -3 -27 -22 -23 -92
-29 -92 -9 0 8 -7 17 -16 20 -21 8 -24 8 -24 -4 0 -5 7 -10 15 -10 8 0 15 -5
15 -11 0 -7 -11 -8 -31 -4 -24 6 -30 4 -27 -6 3 -8 10 -14 16 -14 13 0 14 -8
5 -43 -7 -29 2 -38 22 -22 18 15 20 34 3 25 -7 -4 -5 0 5 8 13 11 15 16 5 19
-7 3 2 7 20 10 17 2 32 1 32 -4 0 -5 9 -4 20 2 11 6 25 8 30 5 6 -4 9 -3 8 2
-5 15 17 15 27 -1 12 -20 4 -26 -37 -32 -26 -4 -30 -2 -18 6 13 10 13 11 0 7
-8 -2 -16 -13 -18 -25 -3 -21 -2 -21 31 -7 31 13 36 13 48 -1 10 -12 14 -12
20 -2 13 20 11 31 -5 25 -10 -4 -13 -1 -9 9 9 24 30 15 39 -18 8 -25 15 -32
37 -33 19 -1 26 2 23 11 -12 32 96 53 116 21 12 -18 10 -27 -7 -27 -8 0 -14 5
-12 11 1 6 -3 13 -10 16 -7 3 -9 -3 -6 -17 4 -17 12 -20 37 -17 22 3 30 8 28
20 -3 18 13 31 29 21 8 -5 8 -9 -1 -14 -7 -4 -9 -13 -6 -19 12 -19 34 -12 40
12 3 14 13 23 26 23 23 0 25 -7 8 -24 -15 -15 -4 -26 18 -18 11 4 14 13 11 27
-4 15 -2 19 9 15 8 -3 14 -1 14 4 0 5 7 7 15 4 8 -4 12 -10 9 -15 -3 -5 1 -6
9 -3 20 7 17 36 -6 61 -16 18 -18 25 -7 38 15 18 34 9 26 -12 -10 -24 4 -35
21 -17 11 10 26 14 45 10 15 -3 28 -1 28 4 0 6 -7 10 -16 10 -8 0 -13 4 -9 9
3 6 -4 8 -15 6 -11 -2 -18 0 -15 6 4 5 15 9 26 9 13 0 19 6 17 16 -2 8 -7 14
-13 12 -5 -2 -9 -6 -8 -10 2 -4 -6 -10 -17 -13 -11 -4 -20 -14 -20 -23 -1 -14
-3 -14 -13 3 -15 24 -37 30 -37 10 0 -8 -3 -14 -7 -14 -24 4 -34 -3 -28 -20 3
-10 1 -29 -4 -42 -5 -13 -10 -20 -10 -16 -1 4 -10 3 -21 -3 -15 -8 -20 -8 -20
2 0 8 -5 5 -11 -5 -7 -12 -15 -15 -22 -9 -20 15 -56 21 -60 8 -3 -8 -8 -7 -19
2 -26 21 -85 24 -103 5 -14 -14 -18 -14 -27 -2 -8 11 -9 10 -4 -3 6 -20 -2
-22 -24 -8 -13 8 -13 10 0 10 10 0 8 5 -7 15 -12 8 -28 12 -36 9 -16 -6 -42
28 -30 40 9 9 -28 46 -46 46 -14 0 -14 2 -1 10 11 8 8 9 -12 4 -20 -4 -28 -2
-28 7 0 9 -3 10 -8 4 -8 -12 -132 -15 -132 -3 0 4 -7 8 -15 8 -8 0 -15 5 -15
11 0 5 5 7 10 4 6 -4 10 5 10 20 0 16 4 24 10 20 7 -4 9 2 4 19 -3 14 -2 26 3
26 5 0 17 20 28 45 13 32 21 42 27 33 6 -9 8 -7 6 7 0 11 0 33 0 49 2 26 4 27
20 15 16 -13 16 -12 3 4 -13 16 -13 20 -1 27 16 10 19 78 3 88 -7 5 -10 63
-10 164 0 86 4 155 9 152 4 -3 8 -1 8 5 0 5 -4 11 -9 13 -5 2 -12 33 -15 70
-5 70 4 127 19 118 11 -6 13 -60 3 -67 -5 -2 -8 -10 -8 -16 0 -7 4 -6 11 3 9
12 10 11 6 -6 -2 -12 0 -28 5 -37 5 -11 5 -24 -2 -37 -9 -16 -8 -20 5 -20 9 0
15 -10 16 -27 1 -16 3 -39 4 -53 14 -131 18 -166 21 -172 2 -3 -2 -9 -8 -11
-9 -4 -7 -6 3 -6 13 -1 18 -17 25 -73 4 -40 9 -80 9 -88 0 -8 4 -21 8 -28 5
-6 9 -31 9 -55 0 -23 3 -36 5 -29 3 6 9 9 14 6 15 -9 39 16 32 33 -4 9 -2 14
3 11 5 -4 10 4 11 15 3 55 17 107 26 107 8 0 7 4 0 11 -14 14 -5 42 10 32 6
-4 8 0 4 9 -3 9 -2 32 3 52 4 20 5 34 1 32 -8 -5 -26 15 -27 32 -1 6 -2 35 -3
63 -1 37 -4 48 -13 43 -10 -6 -10 -4 0 7 15 16 16 33 0 23 -8 -5 -9 0 -6 14 4
14 2 20 -4 16 -7 -5 -9 2 -4 19 3 15 1 29 -5 33 -6 3 -8 15 -6 26 3 11 -1 44
-9 74 -18 71 -18 85 1 78 11 -5 13 -10 5 -19 -7 -8 -7 -21 -1 -36 9 -21 10
-22 11 -4 1 13 8 3 19 -25 14 -32 16 -47 7 -52 -8 -5 -7 -8 3 -8 11 0 11 -3 1
-15 -7 -9 -10 -18 -6 -22 3 -3 6 -1 6 5 0 7 5 12 11 12 6 0 9 -7 5 -15 -3 -8
-1 -15 4 -15 8 0 14 -19 26 -83 3 -21 1 -27 -7 -21 -8 4 -9 3 -5 -5 4 -6 11
-9 15 -6 10 6 33 -44 26 -56 -4 -5 -1 -17 5 -26 11 -17 11 -17 6 0 -3 11 -2
15 4 12 6 -3 10 -19 10 -34 0 -15 7 -36 15 -47 17 -22 20 -38 5 -29 -5 3 -10
1 -10 -5 0 -6 7 -13 15 -16 8 -4 13 -9 11 -13 -8 -12 23 -44 37 -38 8 3 17 20
20 39 3 18 8 44 11 58 5 21 5 22 -3 5 -9 -18 -10 -17 -10 8 -1 15 4 27 10 27
6 0 8 9 4 20 -4 12 -1 28 7 37 9 12 9 15 0 9 -7 -4 -12 -1 -12 8 0 9 6 16 13
16 9 0 8 3 -2 9 -8 5 -10 14 -6 21 5 9 4 11 -3 6 -7 -4 -12 -1 -12 6 0 7 -6
25 -14 39 -8 16 -10 32 -5 40 6 11 9 11 10 2 4 -35 19 -73 29 -73 5 0 11 -8
13 -18 4 -15 5 -15 6 2 0 10 -17 57 -39 103 -22 47 -40 87 -40 88 0 19 -112
235 -119 231 -5 -4 -8 -16 -5 -29 9 -47 135 -392 144 -395 12 -4 14 -242 2
-242 -5 0 -47 116 -95 258 -122 366 -134 401 -147 457 -6 28 -20 68 -31 89
-22 42 -18 51 24 61 25 7 27 5 27 -21 0 -16 9 -56 19 -89 14 -46 24 -61 40
-63 25 -4 26 0 5 39 -14 28 -14 30 2 27 9 -2 18 3 20 10 1 7 0 9 -2 4 -8 -16
-56 -1 -50 15 7 17 -40 114 -60 126 -21 12 -17 22 12 36 30 13 44 7 44 -20 0
-35 48 -119 65 -113 11 5 15 -1 15 -24 0 -28 141 -330 160 -342 7 -5 26 -174
21 -199 -1 -7 2 -10 9 -6 8 5 10 32 7 86 -3 53 -1 81 7 88 16 13 38 -2 31 -21
-4 -9 3 -21 18 -31 26 -17 36 -13 55 20 14 27 17 56 2 33 -8 -12 -10 -12 -16
3 -3 9 -3 24 0 33 3 8 2 12 -4 9 -13 -8 -13 1 1 28 7 12 8 19 5 15 -11 -10
-43 25 -38 41 3 9 1 12 -6 7 -6 -3 -13 -3 -16 2 -2 4 4 9 15 9 10 1 19 -4 19
-12 0 -7 14 -23 30 -35 17 -12 28 -25 25 -30 -3 -4 3 -6 13 -3 21 5 33 -11
-98 143 -40 47 -86 102 -104 124 -17 21 -46 54 -64 74 -31 33 -33 37 -16 49
15 11 20 7 43 -27 18 -29 30 -38 43 -34 13 4 18 0 18 -12 0 -15 119 -158 146
-176 6 -4 19 -32 29 -62 11 -31 22 -56 26 -56 10 0 -1 71 -12 86 -5 6 -6 14
-2 17 3 4 1 7 -6 7 -8 0 -11 7 -7 15 5 13 -5 19 -26 17 -3 -1 -12 6 -20 15 -7
10 -8 14 -1 10 6 -4 13 -4 16 0 2 5 2 1 0 -7 -2 -10 2 -8 12 4 13 17 19 15 17
-5 -1 -4 8 -5 19 -2 21 6 47 43 29 43 -5 0 -10 9 -10 20 0 11 -5 20 -11 20 -6
0 -8 7 -5 16 3 8 2 13 -2 10 -5 -3 -15 4 -22 15 -8 10 -20 19 -28 19 -7 0 -15
7 -19 16 -3 8 -12 13 -20 10 -8 -3 -11 -1 -8 4 3 6 -1 10 -9 10 -10 0 -13 6
-9 17 4 11 3 14 -5 9 -7 -4 -19 0 -28 9 -9 9 -23 14 -31 11 -9 -4 -13 -1 -10
6 2 7 12 12 21 12 9 -1 16 2 16 6 0 4 16 6 35 4 19 -1 35 2 35 7 0 6 5 7 10 4
6 -3 10 -2 10 3 0 5 12 14 26 20 14 7 23 8 19 2 -3 -5 -1 -10 4 -10 6 0 11 4
11 10 0 11 47 26 69 21 7 -1 10 2 7 7 -3 6 2 8 14 5 11 -3 20 0 20 6 0 5 7 8
14 5 12 -4 14 1 10 22 -3 16 -11 32 -17 36 -7 4 -8 8 -4 8 4 0 -1 10 -13 22
-11 12 -20 28 -20 37 0 8 -3 11 -7 8 -9 -10 -34 43 -26 57 4 6 -2 4 -12 -4
-17 -13 -18 -13 -13 1 7 18 -19 22 -39 6 -7 -5 -13 -6 -13 -1 0 5 -4 3 -9 -5
-7 -11 -10 -9 -16 9 -4 14 -3 25 5 30 9 6 8 10 -4 17 -8 4 -17 17 -19 28 -1
11 -6 26 -10 33 -5 6 -6 12 -3 12 3 0 1 12 -4 26 -6 15 -13 50 -15 78 -3 28
-7 62 -10 76 -14 64 -13 70 3 80 9 5 13 10 8 10 -5 0 -3 6 3 14 13 15 8 62 -6
59 -4 -1 -20 7 -33 18 l-25 20 22 16 c22 15 22 16 6 44 -10 16 -26 29 -36 29
-10 0 -15 5 -12 10 3 6 1 10 -5 10 -8 0 -8 6 0 20 13 24 12 228 -1 236 -5 3
-9 -44 -9 -107 0 -109 -1 -114 -27 -141 -19 -20 -37 -28 -60 -28 -30 0 -33 3
-33 29 0 17 5 33 10 36 15 9 2 25 -21 25 -16 0 -19 -7 -19 -50 0 -44 -2 -50
-21 -50 -19 0 -21 5 -17 50 3 56 -6 65 -45 45 -23 -12 -28 -11 -51 10 -32 30
-32 39 0 64 21 16 30 18 50 9 18 -8 31 -8 49 0 15 7 27 8 30 2 12 -20 39 -9
91 36 32 27 54 54 54 65 0 12 -4 17 -11 14 -6 -4 -10 -1 -9 6 3 22 -11 59 -23
59 -6 0 -26 15 -45 32 -30 30 -39 33 -88 32 -30 -1 -58 -5 -62 -8 -3 -4 -1
-21 6 -39 10 -26 9 -34 -3 -46 -13 -14 -15 -13 -15 2 0 25 -12 21 -35 -13 -24
-36 -35 -38 -35 -6 0 28 -15 42 -25 25 -5 -6 -14 1 -25 19 -26 42 -86 78 -105
62 -8 -7 -12 -16 -9 -21 3 -5 -2 -6 -10 -3 -9 3 -16 1 -16 -6 0 -6 5 -8 10 -5
14 9 12 -8 -2 -25 -7 -8 -3 -6 10 4 27 23 30 6 3 -18 -21 -19 -35 -8 -37 29 0
11 -4 30 -8 42 -6 19 -3 23 20 29 14 4 29 3 33 -2 3 -5 20 -10 36 -11 51 -4
75 -13 75 -28 0 -8 8 -15 18 -15 10 0 13 3 6 8 -6 4 -13 15 -17 24 -3 9 -18
18 -34 21 -15 2 28 2 97 0 90 -3 121 -2 110 6 -8 6 -37 11 -65 11 -27 0 -55 4
-62 8 -7 4 -15 41 -18 82 -9 105 -23 154 -39 141 -7 -6 -15 -8 -19 -5 -3 3
-14 1 -24 -6 -17 -11 -17 -11 2 -5 20 6 20 6 0 -13 -20 -19 -20 -19 -28 7 -4
14 -5 34 -3 44 2 9 0 17 -5 17 -4 0 -6 6 -3 14 3 8 0 17 -5 21 -6 3 -8 11 -5
17 4 7 2 8 -4 4 -16 -9 -15 7 0 22 9 9 9 12 -2 12 -13 0 -13 1 -1 9 12 8 13
14 3 36 -9 20 -9 24 0 19 8 -5 9 -2 5 9 -4 11 1 21 16 29 12 7 22 19 23 26 3
42 4 43 27 37 19 -5 20 -5 4 5 -17 11 -17 13 -2 36 8 13 12 24 9 24 -4 0 3 8
14 19 12 10 19 21 16 24 -3 3 -3 21 1 39 7 29 9 30 16 13 7 -18 8 -18 9 5 0
14 2 43 3 65 2 35 -1 40 -20 43 -13 2 -23 -1 -23 -7 0 -5 -9 -9 -21 -8 -15 1
-20 8 -19 27 2 33 -10 70 -22 70 -6 0 -7 -7 -4 -16 8 -20 -13 -100 -29 -114
-9 -8 -14 -5 -18 10 -3 11 -1 22 4 25 4 3 6 12 2 20 -3 8 0 15 6 15 6 0 8 7 5
15 -4 8 -1 22 6 31 11 12 9 20 -8 44 -23 31 -28 45 -13 35 5 -3 12 -1 15 4 4
5 -2 8 -11 7 -10 -2 -27 3 -39 10 -20 14 -20 13 -21 -101z m-106 23 c-3 -8 -6
-5 -6 6 -1 11 2 17 5 13 3 -3 4 -12 1 -19z m-67 -905 c-14 -3 -34 -15 -45 -28
-20 -24 -74 -47 -61 -27 3 6 2 14 -4 17 -6 4 -9 1 -8 -7 2 -8 -4 -12 -17 -10
-15 3 -17 1 -8 -8 16 -17 90 -3 106 19 12 18 84 47 93 39 2 -3 -18 -20 -46
-39 -31 -21 -50 -41 -50 -53 0 -16 -3 -17 -12 -8 -19 19 -28 14 -28 -12 0 -37
-14 -39 -40 -4 -14 20 -25 26 -29 19 -4 -6 -15 -9 -24 -5 -14 5 -15 10 -5 27
21 37 18 57 -8 57 -12 0 -25 4 -29 10 -3 5 28 11 77 13 126 5 166 5 138 0z
m124 1 c12 -4 13 -11 5 -31 -5 -14 -7 -34 -4 -44 7 -21 -5 -25 -23 -7 -15 15
-16 32 -2 23 18 -11 11 1 -12 21 -19 15 -20 16 -9 2 8 -11 9 -18 3 -18 -19 0
-23 18 -10 40 13 21 25 24 52 14z m49 -77 c-2 -4 -8 -5 -12 -3 -4 3 -8 -1 -8
-8 0 -8 6 -12 12 -10 14 6 75 -60 75 -79 0 -7 -16 -28 -34 -46 -19 -19 -36
-46 -38 -60 -4 -33 -22 -34 -26 -1 -2 13 -19 40 -38 59 -31 32 -33 33 -29 11
3 -14 -2 -32 -12 -43 -13 -14 -14 -20 -5 -26 10 -6 10 -10 -1 -19 -10 -9 -28
3 -82 58 l-70 70 67 66 c40 41 70 64 78 59 8 -5 6 -12 -6 -26 -14 -16 -15 -19
-3 -14 30 11 46 -29 25 -65 -5 -8 10 3 33 25 23 22 39 45 36 52 -2 7 1 25 7
39 l12 25 11 -28 c7 -15 10 -31 8 -36z m181 -49 l51 -48 -55 -55 c-30 -30 -63
-60 -73 -66 -21 -12 -46 -1 -26 12 11 6 9 13 -9 32 l-22 24 21 24 c20 22 21
22 15 3 -4 -13 -1 -26 7 -32 10 -9 22 -4 51 23 l37 34 -38 35 c-33 30 -40 33
-53 20 -12 -12 -12 -16 1 -29 14 -14 16 -14 16 -1 0 8 -4 13 -9 10 -4 -3 -8 0
-8 5 0 15 27 14 33 -1 2 -7 0 -21 -5 -31 -5 -10 -7 -21 -4 -25 3 -3 6 0 6 6 0
7 4 12 8 12 15 0 9 -30 -10 -47 -10 -9 -18 -12 -19 -7 -4 44 -7 57 -16 62 -5
4 -15 17 -21 28 -9 18 -8 25 7 38 19 17 18 56 -1 56 -5 0 -6 4 -3 10 6 10 29
-8 119 -92z m189 90 c-4 -7 -8 -19 -9 -26 -3 -18 -14 -29 -14 -13 0 7 -4 9
-10 6 -14 -9 -12 19 2 33 16 16 42 16 31 0z m-790 -5 c4 -3 2 -12 -3 -19 -15
-17 79 -97 97 -82 7 6 13 7 13 2 1 -14 98 -115 175 -180 66 -56 70 -62 71
-102 l1 -43 -51 49 c-78 75 -208 182 -221 182 -16 0 -47 35 -38 44 4 3 -14 26
-40 50 -26 24 -50 39 -53 35 -8 -13 -24 -11 -24 3 0 13 49 68 60 68 4 0 10 -3
13 -7z m855 -26 c27 -25 30 -51 4 -43 -22 7 -118 -69 -101 -80 6 -3 15 -1 19
6 4 7 15 10 24 7 10 -4 31 8 57 33 33 31 45 37 56 29 17 -15 17 -29 0 -29 -8
0 -22 -9 -32 -20 -10 -11 -21 -18 -25 -15 -3 2 -6 -11 -5 -30 1 -37 -18 -53
-41 -34 -7 6 -19 7 -25 3 -9 -5 -10 -2 -6 9 9 23 -11 32 -31 15 -9 -8 -28 -19
-42 -25 -26 -11 -88 -64 -196 -166 l-61 -57 1 42 c1 41 5 46 79 110 43 38 99
92 125 122 27 31 51 51 56 46 13 -13 107 71 96 86 -12 13 -2 26 14 17 6 -3 21
-15 34 -26z m-504 -36 c-6 -6 -34 20 -34 32 0 6 8 2 19 -9 10 -10 17 -21 15
-23z m-411 -36 c23 -23 44 -35 62 -35 25 0 27 -2 21 -30 -5 -26 -2 -32 17 -40
12 -5 15 -9 7 -9 -8 0 -22 3 -30 9 -9 5 -19 5 -26 -1 -21 -17 -40 0 -39 36 1
19 -2 32 -5 30 -4 -3 -15 4 -25 15 -10 11 -24 20 -32 20 -16 0 -17 12 -1 28
15 15 11 17 51 -23z m633 -26 c3 -6 1 -15 -5 -20 -6 -5 -9 -6 -6 -3 3 4 0 13
-6 21 -8 9 -8 13 -1 13 6 0 14 -5 18 -11z m354 3 c0 -9 -38 -52 -45 -52 -2 0
-2 7 1 15 4 8 10 15 15 15 5 0 8 3 8 8 -3 14 1 22 11 22 6 0 10 -4 10 -8z
m-951 -107 c19 9 31 10 49 2 17 -8 29 -8 43 1 15 10 24 9 43 -3 36 -24 38 -40
9 -69 -23 -23 -27 -24 -52 -12 -40 20 -51 10 -51 -45 0 -43 -3 -49 -21 -49
-18 0 -20 5 -18 45 3 50 -2 60 -27 51 -13 -5 -15 -9 -6 -18 7 -7 12 -25 12
-40 0 -25 -3 -28 -32 -28 -20 1 -44 10 -60 25 -27 23 -28 27 -28 132 l0 107
58 -56 c54 -54 58 -56 81 -43z m-39 55 c0 -5 -2 -10 -4 -10 -3 0 -8 5 -11 10
-3 6 -1 10 4 10 6 0 11 -4 11 -10z m422 -58 c3 -10 -1 -23 -8 -30 -14 -12 -22
-6 -18 16 1 6 2 17 3 22 2 17 18 11 23 -8z m116 -3 c3 -11 2 -11 -7 1 -15 21
-14 -5 1 -29 9 -15 9 -23 -2 -36 -10 -11 -15 -13 -20 -4 -4 6 -13 8 -19 5 -14
-9 -14 -93 0 -102 8 -4 8 -9 0 -17 -16 -16 -15 -419 1 -435 13 -13 -5 -42 -27
-42 -22 0 -40 29 -27 42 18 18 17 425 0 431 -10 3 -10 7 -2 18 19 24 16 97 -4
108 -15 9 -15 12 -2 20 9 6 19 6 26 0 8 -7 14 -6 19 1 5 8 13 6 26 -6 10 -9
19 -12 19 -6 0 6 -4 13 -9 16 -12 8 -1 58 12 53 6 -2 12 -10 15 -18z m-288
-54 c7 -8 9 -15 4 -15 -19 -1 -57 -42 -59 -63 -2 -27 -27 -33 -49 -12 -24 25
-19 42 13 48 16 4 38 17 48 31 21 30 26 31 43 11z m530 -48 c25 7 27 -19 4
-41 -20 -21 -58 -22 -50 -1 3 8 -9 29 -28 49 -45 48 -26 67 21 21 23 -22 40
-31 53 -28z m-421 -54 l69 -62 1 -177 c0 -97 3 -185 6 -195 8 -26 -12 -24 -25
2 -7 11 -17 18 -24 16 -7 -3 -17 3 -23 13 -18 27 -51 32 -64 8 -9 -17 -8 -19
8 -14 12 4 27 -1 39 -13 11 -10 30 -22 42 -25 12 -4 20 -12 16 -17 -3 -6 -1
-16 5 -23 9 -10 8 -15 -4 -20 -8 -3 -15 -16 -15 -28 0 -19 -2 -20 -10 -8 -5 8
-10 12 -10 8 0 -4 -13 -2 -30 3 -16 6 -27 15 -24 20 3 5 1 9 -4 9 -5 0 -13
-10 -17 -22 -4 -13 -8 -25 -9 -28 -1 -3 -5 -15 -10 -28 -4 -12 -12 -19 -18
-16 -7 5 -8 2 -3 -6 4 -7 2 -16 -6 -21 -8 -4 -15 -13 -15 -19 -3 -23 -5 -24
-15 -10 -9 13 -10 12 -5 -2 3 -10 2 -18 -2 -18 -5 0 -17 -7 -28 -16 -10 -8
-12 -13 -4 -9 8 4 6 -1 -4 -9 -11 -9 -25 -16 -32 -16 -6 0 -15 -7 -18 -16 -4
-9 -9 -14 -13 -10 -8 7 -13 355 -5 374 3 9 13 11 29 7 14 -3 22 -2 19 3 -5 9
11 17 51 27 7 2 26 10 42 18 34 17 46 9 35 -25 -6 -21 -7 -21 -20 -3 -8 10
-14 15 -14 10 0 -5 7 -17 17 -27 9 -10 11 -18 5 -18 -12 0 -4 -38 11 -47 6 -3
7 -1 3 5 -4 7 9 60 29 119 36 105 54 146 42 92 -5 -18 -2 -31 8 -39 8 -7 15
-24 15 -37 0 -18 4 -24 15 -19 19 7 20 -26 3 -54 -10 -15 -10 -22 -1 -31 9 -9
12 -8 13 7 0 10 1 35 3 54 1 24 -2 34 -10 33 -8 -2 -13 7 -13 22 0 14 -4 25
-10 25 -5 0 -10 15 -10 33 l1 32 20 -24 c11 -13 23 -21 26 -17 4 4 -3 16 -15
28 -18 18 -34 22 -87 23 -46 1 -70 6 -84 19 -13 12 -39 18 -85 20 l-65 2 -1
-374 c0 -270 3 -378 11 -388 9 -11 8 -19 -6 -34 -16 -18 -18 -18 -40 -2 -16
12 -20 21 -13 29 15 19 16 756 0 775 -10 12 -10 18 2 27 21 18 8 41 -23 41
-20 0 -27 5 -27 20 0 19 6 20 73 17 54 -2 73 1 73 10 0 10 6 10 26 1 23 -11
29 -8 72 35 26 26 50 46 54 45 4 -2 38 -31 77 -65z m343 20 c43 -42 50 -46 72
-35 17 7 26 8 28 1 5 -15 160 -12 192 2 22 10 31 8 66 -15 42 -27 52 -40 23
-29 -11 4 -14 3 -9 -5 4 -8 2 -10 -8 -6 -8 3 -24 0 -36 -6 -17 -9 -28 -7 -56
9 -19 12 -32 16 -29 10 5 -7 -17 -10 -68 -8 -41 1 -78 -1 -84 -4 -5 -3 -15 -2
-23 3 -15 9 -42 2 -35 -9 2 -4 27 -6 55 -4 28 1 50 -2 50 -7 0 -6 -3 -9 -8 -7
-4 1 -20 -8 -36 -20 -16 -13 -24 -23 -18 -23 6 0 18 7 26 16 10 10 16 11 16 3
0 -9 4 -8 15 1 8 7 15 19 15 26 0 24 26 15 39 -13 9 -19 9 -29 2 -31 -7 -2
-11 -74 -11 -218 0 -169 -3 -214 -12 -208 -10 6 -10 4 0 -7 8 -9 12 -58 12
-169 0 -106 4 -160 12 -168 9 -9 7 -16 -7 -33 -19 -20 -19 -20 5 -14 22 5 27
0 42 -36 10 -24 26 -43 38 -46 11 -3 20 -11 20 -19 0 -15 64 -123 116 -196 26
-37 64 -138 64 -172 0 -17 -18 -2 -32 28 -9 18 -55 95 -102 170 -47 75 -93
152 -100 171 -8 19 -33 54 -57 79 l-42 46 3 168 c2 92 3 268 3 392 l-1 225
-56 -3 -56 -4 12 26 c8 20 14 23 20 14 7 -10 8 -9 5 2 -2 8 -12 14 -21 12 -9
-2 -19 4 -22 13 -3 8 -12 15 -20 15 -8 0 -11 7 -8 18 5 14 4 15 -5 2 -10 -14
-12 -13 -15 19 0 8 -7 15 -14 17 -7 1 -8 0 -2 -3 5 -2 10 -8 10 -12 0 -11 -44
-8 -53 4 -5 6 -7 3 -3 -7 3 -10 1 -20 -4 -23 -6 -4 -10 0 -10 7 0 17 -20 -12
-20 -29 0 -20 21 -15 47 9 21 20 24 20 41 5 11 -10 18 -29 17 -47 -1 -28 -15
-57 -15 -32 0 7 -5 12 -11 12 -8 0 -7 -5 1 -15 12 -14 15 -14 31 1 14 13 16
21 8 36 -9 18 -8 18 10 8 24 -12 25 -14 10 -42 -16 -30 -73 -50 -123 -43 -39
6 -45 4 -68 -23 l-25 -30 -2 83 -1 83 68 66 c37 36 71 66 77 66 5 0 31 -21 57
-47z m-585 -15 c-3 -8 -6 -5 -6 6 -1 11 2 17 5 13 3 -3 4 -12 1 -19z m-169
-24 c40 -19 40 -29 1 -50 -29 -15 -34 -15 -70 2 -22 9 -39 20 -39 24 0 6 57
38 71 39 3 1 20 -6 37 -15z m657 -44 c3 -5 1 -10 -4 -10 -6 0 -11 5 -11 10 0
6 2 10 4 10 3 0 8 -4 11 -10z m-606 -44 c-13 -6 -27 -27 -33 -50 -6 -21 -21
-45 -32 -53 -19 -12 -23 -11 -38 12 -14 21 -15 29 -6 41 7 7 17 11 24 7 6 -3
7 -2 3 3 -13 13 -30 11 -47 -6 -14 -13 -14 -17 1 -33 13 -14 15 -26 9 -48 -5
-16 -6 -29 -2 -29 4 0 2 -4 -3 -8 -11 -8 -68 -284 -67 -330 0 -37 -7 -45 -26
-30 -15 11 -15 11 -4 -4 8 -10 9 -19 3 -22 -15 -10 -24 34 -13 58 17 34 76
304 70 322 -1 5 2 20 6 32 6 19 2 30 -18 51 l-26 27 48 36 c39 30 57 37 102
40 66 4 79 -1 49 -16z m1068 -13 c18 -14 30 -29 27 -34 -3 -5 1 -6 9 -3 26 10
27 -12 2 -36 -25 -24 -33 -54 -16 -64 5 -3 7 -14 5 -24 -3 -9 7 -73 22 -142
15 -69 28 -139 28 -157 1 -17 4 -29 9 -26 13 8 19 -27 7 -42 -11 -14 -14 -13
-25 2 -7 10 -16 45 -20 78 -7 57 -42 235 -64 320 -8 31 -7 45 3 60 12 19 11
23 -10 42 -26 23 -33 14 -9 -11 14 -14 14 -18 -1 -41 -9 -14 -20 -25 -24 -25
-14 0 -41 39 -51 73 -6 21 -18 38 -29 42 -39 12 -19 20 42 17 47 -3 70 -10 95
-29z m-1037 -64 c0 -16 -4 -29 -8 -29 -5 0 -16 -24 -25 -53 -19 -61 -20 -67
-9 -67 4 0 14 21 22 48 l14 47 4 -40 c2 -22 -2 -101 -8 -175 -9 -99 -10 -135
-1 -138 19 -6 12 -20 -11 -24 -19 -2 -24 -11 -28 -47 -3 -25 -11 -46 -17 -49
-15 -4 -15 -2 -4 55 7 38 6 42 -18 54 -20 10 -22 13 -9 16 10 3 19 19 24 46 4
23 8 44 9 47 9 30 15 63 20 105 6 48 6 49 -10 28 -23 -32 -63 -174 -69 -241
-2 -31 -7 -69 -11 -84 -6 -25 -4 -28 17 -28 37 0 44 -14 38 -80 -3 -33 -2 -56
2 -52 3 4 9 27 11 52 4 38 4 37 4 -12 -1 -80 10 -84 15 -5 1 36 0 63 -4 60 -5
-2 -8 1 -8 6 0 6 4 11 9 11 5 0 8 8 7 17 0 10 7 19 17 21 15 3 17 -7 17 -98 0
-92 -2 -101 -17 -96 -54 16 -153 39 -183 42 -19 3 -44 11 -55 18 -11 7 -57 23
-102 36 -46 12 -83 25 -83 28 0 3 26 39 57 81 32 42 59 78 60 80 2 3 8 0 15
-7 8 -8 8 -15 -1 -26 -15 -17 -8 -22 47 -31 l42 -7 21 46 c11 25 24 46 30 46
6 0 7 4 4 10 -3 5 1 20 9 32 20 31 56 154 55 187 0 23 -1 24 -9 6 -5 -11 -23
-67 -40 -124 -17 -57 -34 -100 -37 -97 -8 8 39 249 50 257 5 4 12 21 16 39 3
19 13 36 20 38 11 4 12 0 6 -14 -12 -27 -12 -58 0 -62 12 -5 57 107 49 120 -9
14 26 47 42 41 8 -3 14 -18 14 -34z m918 21 c7 -12 10 -24 8 -29 -6 -10 20
-100 35 -117 6 -8 16 -11 21 -8 9 6 6 32 -9 69 -4 12 -2 16 7 13 7 -2 15 -17
17 -34 2 -16 9 -33 16 -39 7 -5 13 -23 15 -40 2 -16 10 -57 19 -90 8 -33 16
-85 18 -116 1 -30 10 -70 20 -88 15 -29 20 -32 47 -27 17 3 37 6 44 6 10 0 13
7 8 24 -7 29 14 46 28 22 5 -9 32 -46 59 -82 28 -36 49 -67 47 -69 -1 -1 -37
-13 -78 -25 -41 -12 -86 -28 -100 -35 -14 -7 -43 -15 -65 -19 -22 -3 -71 -14
-110 -26 -38 -11 -74 -20 -80 -20 -6 0 -9 38 -7 100 3 79 6 100 18 100 8 0 14
-9 14 -20 0 -24 3 -24 55 -6 37 13 40 16 36 48 -3 18 -5 45 -5 61 -1 15 -5 27
-9 27 -5 0 -6 8 -3 18 5 16 -26 125 -53 187 -4 11 -14 43 -20 70 -7 28 -19 63
-27 79 -23 48 -17 80 16 85 3 1 11 -8 18 -19z m-824 2 c3 -5 -1 -9 -9 -9 -8 0
-12 4 -9 9 3 4 7 8 9 8 2 0 6 -4 9 -8z m696 -2 c0 -5 -7 -7 -15 -4 -8 4 -15 8
-15 10 0 2 7 4 15 4 8 0 15 -4 15 -10z m-566 -31 c34 -1 51 -4 39 -6 -13 -2
-23 -11 -23 -18 0 -12 6 -12 26 -4 15 5 29 7 31 5 8 -8 -48 -76 -63 -76 -7 0
-47 -13 -88 -29 -42 -16 -76 -26 -76 -22 0 3 7 17 16 29 8 12 12 27 9 32 -4 6
-1 18 6 26 22 26 21 54 0 54 -11 0 -23 5 -27 12 -5 8 6 9 41 5 26 -4 75 -8
109 -8z m554 -2 c-31 -12 -35 -32 -13 -63 8 -12 12 -24 8 -27 -3 -4 1 -17 10
-31 17 -25 12 -42 -7 -27 -6 4 -35 16 -63 25 -29 10 -53 19 -53 21 0 2 20 2
45 1 25 -2 45 1 45 5 0 5 -31 7 -69 4 l-69 -5 -22 35 c-12 20 -20 38 -17 41 7
7 49 -15 62 -33 15 -19 72 -23 92 -6 17 14 17 14 1 9 -10 -3 -18 0 -19 7 0 9
-2 9 -6 0 -2 -7 -17 -13 -32 -13 -20 0 -31 7 -39 25 -7 15 -21 26 -34 27 -22
2 86 11 167 15 39 1 39 1 13 -10z m-259 -58 c-25 -15 -5 -119 23 -119 7 0 7 5
-1 14 -10 11 -8 17 6 26 16 10 16 11 -4 7 -20 -5 -23 -1 -23 28 0 18 6 38 14
44 7 6 12 23 9 39 -3 22 52 -120 75 -193 5 -18 6 -18 12 5 4 16 0 39 -12 63
l-19 38 21 -11 c11 -6 25 -8 30 -5 6 3 10 1 10 -4 0 -6 -5 -11 -12 -11 -6 0
-8 -3 -5 -6 4 -4 13 -2 20 5 11 9 17 8 27 -4 7 -8 18 -15 24 -14 6 1 25 -2 43
-6 34 -8 44 -27 31 -62 -4 -13 -4 -23 0 -23 4 0 7 -16 7 -35 0 -19 -3 -35 -7
-35 -4 0 -3 -12 2 -26 13 -32 13 -43 0 -24 -6 9 -10 10 -10 3 0 -6 4 -14 9
-17 4 -3 5 -25 1 -48 -5 -24 -6 -65 -3 -93 l6 -50 -30 30 c-17 17 -30 34 -29
39 0 6 -8 12 -19 14 -11 2 -24 9 -30 14 -7 8 -6 8 4 3 9 -5 12 -4 7 3 -4 7
-14 12 -22 12 -8 0 -13 3 -10 8 2 4 -2 18 -11 32 -8 14 -12 17 -9 7 3 -11 2
-15 -4 -12 -6 3 -10 12 -10 20 0 8 -7 18 -16 23 -11 6 -13 11 -5 16 8 5 8 12
-1 25 -10 16 -14 17 -40 4 -21 -11 -32 -12 -42 -4 -7 6 -17 7 -21 3 -5 -4 -5
-2 -1 5 3 6 -1 16 -11 21 -14 8 -15 13 -5 24 6 8 9 18 5 21 -3 4 0 7 9 7 8 0
25 11 38 25 22 23 58 36 46 17 -3 -5 1 -9 9 -9 18 0 18 -1 1 31 l-13 26 -30
-28 c-17 -15 -35 -26 -41 -24 -6 2 -17 -6 -24 -17 -7 -12 -16 -21 -20 -21 -4
0 -5 46 -2 103 4 73 10 104 20 110 8 4 14 14 14 22 0 7 6 15 13 18 16 5 22
-44 6 -54z m387 -99 c3 -19 14 -77 25 -129 10 -52 19 -95 19 -97 0 -1 8 -4 18
-7 14 -3 12 -6 -10 -17 -22 -10 -26 -18 -22 -39 9 -46 9 -56 -1 -61 -6 -3 -12
15 -15 40 -4 37 -9 46 -27 48 -24 3 -31 18 -13 24 7 2 7 41 0 123 -7 66 -12
122 -12 125 0 3 0 28 2 55 l1 50 15 -40 c8 -22 17 -56 20 -75z m-478 -188 c3
-16 -2 -22 -16 -22 -10 0 -27 -9 -37 -20 -17 -18 -17 -21 3 -55 16 -26 18 -35
7 -35 -7 0 -15 5 -17 11 -5 15 -64 -22 -149 -93 -58 -48 -125 -88 -149 -88
-18 0 46 86 113 150 88 85 113 118 98 133 -26 26 -8 27 25 2 l35 -27 25 23
c13 12 24 29 24 36 0 23 35 10 38 -15z m62 7 c0 -9 9 -24 20 -34 21 -19 36
-13 67 24 7 8 16 12 19 8 4 -4 1 -13 -6 -22 -16 -19 -12 -25 97 -132 75 -75
121 -138 110 -149 -10 -10 -90 36 -142 82 -32 27 -61 48 -66 47 -5 -2 -9 1 -9
6 0 5 -16 19 -36 30 -28 17 -39 19 -50 10 -23 -19 -16 -27 27 -34 22 -4 43
-14 46 -22 3 -8 17 -19 30 -24 15 -5 21 -14 17 -21 -4 -7 -3 -8 4 -4 16 10 87
-57 78 -73 -5 -7 -14 -10 -22 -7 -8 3 -11 0 -7 -10 3 -7 9 -14 15 -14 5 0 6
-5 2 -12 -5 -8 -2 -9 9 -5 20 8 22 -6 4 -22 -17 -13 -27 -5 -27 22 0 10 -9 21
-20 24 -11 3 -17 10 -13 16 4 6 0 8 -10 4 -10 -4 -25 -10 -34 -14 -12 -5 -15
-2 -10 10 3 9 2 17 -4 17 -6 0 -6 6 0 18 6 11 6 24 0 33 -5 7 -9 10 -9 4 0 -5
-4 -4 -9 4 -10 15 -91 23 -91 9 0 -5 -10 -4 -21 3 -17 9 -20 8 -13 -3 6 -10 5
-11 -7 -2 -20 16 -84 10 -125 -12 -33 -18 -48 -39 -20 -28 10 4 12 -2 9 -20
-3 -16 -1 -26 6 -26 7 0 9 -5 6 -10 -5 -8 -11 -8 -19 -1 -18 15 -70 -2 -81
-27 -11 -26 -21 -28 -29 -6 -3 8 -2 12 4 9 5 -3 14 4 20 15 6 12 7 20 1 20 -5
0 -12 -6 -15 -12 -4 -9 -5 -8 -5 2 2 32 -1 41 -13 34 -7 -4 -10 -4 -6 0 3 4 8
6 10 4 6 -6 68 43 68 55 1 14 65 57 86 57 8 0 13 5 12 12 -2 8 8 11 29 9 28
-2 33 1 39 24 4 15 3 30 -2 34 -5 3 -10 17 -10 29 -1 20 2 23 22 19 13 -2 21
-1 19 4 -3 4 6 2 20 -4 14 -7 25 -20 25 -30 0 -10 -4 -16 -8 -13 -4 2 -9 -9
-10 -25 -3 -38 10 -31 33 17 16 34 16 37 -1 55 -9 10 -25 19 -36 19 -16 0 -26
29 -13 41 11 12 45 3 45 -12z m-591 -140 c-8 -4 -16 -6 -18 -3 -3 3 1 9 8 13
7 5 10 14 7 20 -4 6 -4 17 1 24 5 8 9 2 11 -17 2 -16 -2 -32 -9 -37z m101 13
l0 -26 -16 22 c-8 12 -12 27 -9 32 10 17 25 1 25 -28z m895 7 c-10 -15 -25
-10 -19 6 4 8 10 12 15 9 5 -3 7 -10 4 -15z m82 -26 c-3 -10 -5 -4 -5 12 0 17
2 24 5 18 2 -7 2 -21 0 -30z m-752 -103 c-3 -5 -12 -10 -18 -10 -7 0 -6 4 3
10 19 12 23 12 15 0z m169 -37 c-4 -29 -3 -34 5 -23 6 8 11 24 11 35 0 18 7
20 73 20 l72 0 -3 -30 c-8 -73 -13 -220 -8 -241 4 -16 11 -21 26 -17 30 8 35
-22 10 -57 -22 -30 -22 -32 -15 -338 4 -169 7 -311 5 -316 -1 -5 5 -13 13 -17
11 -7 2 -38 -52 -174 -36 -91 -69 -165 -73 -165 -4 0 -8 232 -8 515 0 466 -5
566 -23 498 -3 -10 -4 -242 -4 -515 1 -302 -2 -497 -7 -495 -17 6 -141 327
-129 335 12 8 22 194 24 462 1 172 -6 223 -32 232 -8 3 -10 11 -6 22 5 13 14
17 32 14 29 -6 27 -11 30 107 1 54 -4 106 -12 129 -7 21 -10 42 -7 47 3 5 23
9 44 9 l39 0 -5 -37z m-115 -64 c36 -13 35 -11 18 -47 -23 -45 -41 -170 -27
-187 8 -9 8 -19 1 -32 -6 -10 -22 -94 -35 -188 -60 -416 -90 -620 -93 -624 -7
-10 -14 14 -41 142 -16 76 -25 138 -19 140 5 1 29 114 52 249 34 192 42 254
34 280 -13 46 -12 51 11 45 22 -6 22 -5 39 96 6 31 8 71 4 88 -5 26 5 46 23
49 1 0 15 -5 33 -11z m366 2 c6 0 11 -38 12 -84 3 -109 13 -143 41 -139 21 3
30 -16 15 -32 -4 -4 -9 -18 -10 -32 -5 -34 75 -507 87 -514 10 -6 -40 -280
-51 -280 -4 0 -10 21 -13 48 -4 26 -13 88 -21 137 -8 50 -30 198 -50 330 -20
132 -41 257 -46 278 -6 21 -6 44 -1 52 9 17 -11 153 -27 184 -6 10 -9 26 -9
37 2 18 26 23 73 15z m-715 -30 c0 -3 -9 -11 -19 -16 -11 -6 -70 -49 -130 -97
-61 -49 -113 -88 -116 -88 -2 0 4 18 14 40 13 29 37 54 85 87 36 25 66 52 66
59 0 8 5 14 10 14 6 0 10 -6 10 -12 0 -7 12 0 27 14 20 21 30 25 40 16 7 -6
13 -13 13 -17z m1103 -5 c11 4 17 1 17 -9 0 -8 30 -35 67 -61 44 -30 74 -59
85 -83 10 -20 16 -38 14 -41 -5 -4 -206 149 -226 172 -7 9 -19 16 -26 16 -17
0 -18 12 -2 28 9 9 17 7 33 -8 13 -12 29 -18 38 -14z m-1077 -42 c-48 -56
-202 -239 -240 -287 -21 -26 -41 -46 -43 -43 -12 12 37 113 72 150 97 103 125
136 125 149 0 8 8 14 17 13 10 0 28 15 42 37 21 32 27 35 38 24 12 -11 10 -18
-11 -43z m359 -23 c0 -16 -3 -27 -7 -24 -13 7 -7 53 6 53 1 0 1 -13 1 -29z
m246 -34 c-10 -9 -11 -8 -5 6 3 10 9 15 12 12 3 -3 0 -11 -7 -18z m-264 -19
c-3 -8 -6 -5 -6 6 -1 11 2 17 5 13 3 -3 4 -12 1 -19z m293 -2 c0 -11 -19 -15
-25 -6 -3 5 1 10 9 10 9 0 16 -2 16 -4z m110 -17 c0 -5 -4 -9 -10 -9 -5 0 -10
7 -10 16 0 8 5 12 10 9 6 -3 10 -10 10 -16z m-890 7 c0 -2 -7 -7 -16 -10 -8
-3 -12 -2 -9 4 6 10 25 14 25 6z m1306 -19 c4 -4 0 -7 -9 -7 -9 0 -18 4 -21 9
-7 10 20 9 30 -2z m-1459 -19 c-3 -8 -6 -5 -6 6 -1 11 2 17 5 13 3 -3 4 -12 1
-19z m1482 -9 c-7 -4 -17 -5 -22 -2 -5 3 -3 9 4 14 7 4 17 5 22 2 5 -3 3 -9
-4 -14z m-1429 -19 c0 -5 -5 -10 -11 -10 -5 0 -7 5 -4 10 3 6 8 10 11 10 2 0
4 -4 4 -10z m135 -31 c-9 -16 -23 -33 -31 -36 -7 -3 -14 -11 -14 -19 0 -8 -7
-14 -16 -14 -9 0 -12 -5 -8 -12 4 -7 3 -8 -5 -4 -8 5 -5 16 11 35 13 16 26 26
31 24 7 -4 11 12 8 30 -1 5 3 6 8 3 5 -3 11 1 15 9 3 8 8 15 11 15 3 0 -2 -14
-10 -31z m1203 -4 c-3 -3 -9 2 -12 12 -6 14 -5 15 5 6 7 -7 10 -15 7 -18z
m-1110 -19 c-13 -19 -25 -33 -27 -31 -2 3 2 11 9 20 7 8 9 15 4 15 -6 0 26 29
34 30 1 0 -8 -15 -20 -34z m352 -11 c7 -9 8 -15 2 -15 -5 0 -12 7 -16 15 -3 8
-4 15 -2 15 2 0 9 -7 16 -15z m310 -15 c0 -5 -4 -10 -10 -10 -5 0 -10 5 -10
10 0 6 5 10 10 10 6 0 10 -4 10 -10z m500 -10 c0 -5 -5 -10 -11 -10 -5 0 -7 5
-4 10 3 6 8 10 11 10 2 0 4 -4 4 -10z m-960 -25 c-9 -10 -9 -15 -1 -15 6 0 11
-8 11 -17 0 -16 -1 -16 -16 -1 -18 17 -13 48 7 48 8 0 8 -4 -1 -15z m460 5 c0
-5 -2 -10 -4 -10 -3 0 -8 5 -11 10 -3 6 -1 10 4 10 6 0 11 -4 11 -10z m-313
-30 c2 -14 -2 -18 -12 -14 -17 7 -17 7 -9 29 8 19 17 12 21 -15z m-516 6 c11
6 11 4 0 -10 -11 -13 -16 -14 -22 -4 -5 7 -9 18 -9 23 0 6 4 4 9 -4 5 -8 14
-10 22 -5z m114 -25 c-6 -21 -25 -20 -25 0 0 6 5 7 10 4 6 -3 10 2 10 11 0 10
3 15 6 11 3 -3 3 -15 -1 -26z m112 -13 c-3 -8 -6 -5 -6 6 -1 11 2 17 5 13 3
-3 4 -12 1 -19z m1023 -16 c0 -6 7 -12 15 -16 9 -3 12 -12 9 -21 -5 -12 -13
-6 -30 25 -28 49 -30 57 -9 36 8 -8 15 -19 15 -24z m-1300 24 c0 -2 -7 -9 -15
-16 -13 -11 -14 -10 -9 4 5 14 24 23 24 12z m414 -46 c-12 -53 -15 -56 -29
-31 -13 25 -10 46 9 67 16 17 27 -4 20 -36z m766 19 c0 -6 -4 -7 -10 -4 -5 3
-10 11 -10 16 0 6 5 7 10 4 6 -3 10 -11 10 -16z m-919 -30 c-5 -13 -10 -19
-10 -12 -1 15 10 45 15 40 3 -2 0 -15 -5 -28z m-24 -41 c-3 -8 -6 -5 -6 6 -1
11 2 17 5 13 3 -3 4 -12 1 -19z m974 -31 c-10 -9 -11 -8 -5 6 3 10 9 15 12 12
3 -3 0 -11 -7 -18z m-985 -4 c-9 -40 -19 -63 -27 -63 -14 0 -10 17 9 36 9 10
16 19 15 21 -5 6 -3 23 2 23 3 0 3 -8 1 -17z m1007 -40 c-5 -11 -8 -12 -13 -2
-5 7 -6 19 -3 26 5 11 8 12 13 2 5 -7 6 -19 3 -26z m-1033 -43 c0 -5 -9 -14
-20 -20 -23 -12 -26 -6 -7 15 14 17 27 19 27 5z m546 -663 c19 7 18 -11 -1
-27 -13 -11 -18 -10 -29 5 -12 16 -13 16 -19 1 -4 -9 -12 -16 -18 -16 -8 0 -8
4 1 15 7 8 9 15 4 16 -5 0 0 4 11 9 11 4 24 4 29 0 5 -5 15 -6 22 -3z m714
-123 c0 -8 -4 -12 -10 -9 -5 3 -10 10 -10 16 0 5 5 9 10 9 6 0 10 -7 10 -16z
m-340 -54 c0 -5 -2 -10 -4 -10 -3 0 -8 5 -11 10 -3 6 -1 10 4 10 6 0 11 -4 11
-10z"/>
<path d="M1465 2771 c-3 -5 -2 -12 3 -15 5 -3 9 1 9 9 0 17 -3 19 -12 6z"/>
<path d="M1366 2644 l-39 -36 36 -36 c33 -32 39 -35 52 -22 13 14 12 19 -5 45
-11 17 -20 25 -20 18 0 -6 5 -15 10 -18 13 -8 13 -35 -1 -35 -5 0 -7 5 -3 12
4 6 3 8 -3 5 -13 -8 -36 17 -25 28 4 5 1 5 -5 1 -27 -15 -11 14 19 35 17 13
28 18 25 12 -4 -7 -3 -14 2 -17 16 -10 21 10 8 28 -11 14 -16 12 -51 -20z"/>
<path d="M1480 2633 l-25 -23 27 -25 c33 -30 38 -31 31 -5 -3 11 -10 20 -15
20 -6 0 -5 6 2 15 6 8 10 20 8 28 -2 10 -9 8 -28 -10z"/>
<path d="M1530 2654 c0 -3 5 -14 10 -25 8 -13 7 -25 0 -40 -17 -32 -3 -35 25
-6 l26 25 -26 26 c-26 26 -35 31 -35 20z"/>
<path d="M1190 2600 c0 -5 7 -10 15 -10 8 0 15 -6 15 -13 0 -13 40 -43 53 -39
4 1 7 -5 7 -14 0 -8 3 -13 8 -10 9 6 34 -14 49 -39 6 -11 16 -19 22 -17 7 1
14 -5 17 -13 4 -8 12 -15 20 -15 8 0 14 -6 14 -13 0 -8 9 -22 20 -32 16 -14
20 -15 20 -4 0 25 -181 184 -195 171 -4 -4 -5 3 -2 16 3 12 1 19 -4 16 -5 -3
-16 2 -25 10 -18 18 -34 21 -34 6z"/>
<path d="M1810 2578 c-5 -13 -9 -19 -9 -14 -1 5 -8 3 -16 -4 -8 -7 -12 -16 -9
-21 7 -11 53 22 54 38 0 6 8 14 18 16 12 4 11 5 -6 6 -15 1 -26 -7 -32 -21z"/>
<path d="M1715 2502 c-22 -20 -40 -41 -40 -47 -1 -5 -6 -9 -13 -7 -7 1 -11 -1
-9 -5 1 -5 -1 -8 -4 -8 -14 0 -48 -38 -43 -47 6 -10 109 81 109 97 1 6 7 9 14
7 7 -1 10 2 7 7 -4 5 2 14 11 20 10 5 16 12 13 14 -3 3 -23 -11 -45 -31z m-75
-86 c0 -2 -8 -10 -17 -17 -16 -13 -17 -12 -4 4 13 16 21 21 21 13z"/>
<path d="M982 2525 c0 -16 2 -22 5 -12 2 9 2 23 0 30 -3 6 -5 -1 -5 -18z"/>
<path d="M1005 2488 c1 -10 8 -25 16 -34 14 -13 17 -13 32 4 16 18 16 20 1 32
-24 21 -51 19 -49 -2z m45 -6 c0 -13 -12 -22 -22 -16 -10 6 -1 24 13 24 5 0 9
-4 9 -8z"/>
<path d="M1106 2495 c-8 -9 -13 -22 -10 -30 9 -23 26 -17 19 6 -5 16 -3 20 6
17 8 -3 13 -12 11 -22 -4 -20 14 -21 22 -1 4 12 -17 45 -29 45 -2 0 -10 -7
-19 -15z"/>
<path d="M1196 2494 c-17 -16 -12 -40 9 -48 19 -7 46 20 39 39 -8 21 -32 26
-48 9z m29 -13 c7 -12 -12 -24 -25 -16 -11 7 -4 25 10 25 5 0 11 -4 15 -9z"/>
<path d="M981 2434 c-1 -20 7 -38 22 -52 23 -22 67 -30 67 -13 0 4 -10 6 -23
4 -28 -6 -54 21 -60 62 l-4 30 -2 -31z"/>
<path d="M1515 1880 c3 -5 8 -10 11 -10 2 0 4 5 4 10 0 6 -5 10 -11 10 -5 0
-7 -4 -4 -10z"/>
<path d="M1293 2355 c-26 -26 -41 -45 -32 -42 30 10 40 -14 14 -34 -30 -24
-43 -24 -21 0 16 17 16 18 -6 16 -13 -2 -31 -6 -40 -10 -13 -5 -18 -2 -19 11
0 11 -3 14 -6 7 -2 -7 -21 -14 -41 -14 -20 -1 -29 -3 -19 -6 9 -2 17 -10 17
-18 0 -7 7 -18 15 -25 12 -10 15 -10 15 1 0 11 2 11 10 -1 5 -8 10 -10 10 -4
0 6 -6 17 -14 23 -11 9 -15 9 -19 -1 -3 -8 -6 -6 -6 6 -1 15 4 17 26 13 15 -3
36 -1 45 4 15 8 17 5 15 -24 -2 -22 1 -34 10 -34 7 0 13 6 13 12 0 15 23 36
42 39 22 3 39 17 33 27 -13 20 15 7 33 -16 18 -23 20 -23 35 -7 14 15 14 18
-1 32 -14 13 -15 12 -10 -2 11 -27 -3 -29 -23 -4 -12 15 -29 23 -46 23 -16 0
-22 -2 -15 -4 6 -3 9 -9 6 -14 -3 -6 -11 -5 -20 2 -13 10 -10 17 18 46 l32 33
58 -57 c31 -31 55 -59 53 -63 -2 -4 2 -7 10 -7 23 0 18 11 -22 46 -21 18 -52
47 -70 63 l-32 30 -48 -47z"/>
<path d="M1325 2350 c-3 -5 -1 -10 4 -10 6 0 11 5 11 10 0 6 -2 10 -4 10 -3 0
-8 -4 -11 -10z"/>
<path d="M1286 2241 c-3 -4 2 -15 12 -23 29 -26 38 -27 38 -7 0 10 -4 19 -8
19 -4 0 -8 -5 -8 -11 0 -5 -4 -8 -10 -4 -5 3 -7 12 -3 20 5 16 -12 21 -21 6z"/>
<path d="M1116 2228 c3 -5 10 -6 15 -3 13 9 11 12 -6 12 -8 0 -12 -4 -9 -9z"/>
<path d="M1350 2205 c0 -9 9 -15 23 -14 21 0 21 1 2 10 -14 6 -4 8 37 6 31 -1
54 1 51 6 -2 4 -29 7 -59 7 -41 0 -54 -4 -54 -15z"/>
<path d="M1422 2000 c-7 -11 -9 -20 -4 -20 4 0 13 9 20 20 7 11 9 20 4 20 -4
0 -13 -9 -20 -20z"/>
<path d="M1181 1914 c0 -11 3 -14 6 -6 3 7 2 16 -1 19 -3 4 -6 -2 -5 -13z"/>
<path d="M1633 2335 c-37 -35 -63 -65 -58 -65 6 0 37 27 69 60 l60 60 42 -41
c23 -23 46 -40 51 -38 6 2 -14 23 -43 46 l-53 43 -68 -65z"/>
<path d="M2053 2327 c-29 -13 -29 -21 0 -34 24 -11 57 -1 57 17 0 18 -34 28
-57 17z m47 -17 c0 -11 -22 -18 -38 -12 -9 3 -10 8 -2 18 12 13 40 9 40 -6z"/>
<path d="M1953 2303 c9 -2 23 -2 30 0 6 3 -1 5 -18 5 -16 0 -22 -2 -12 -5z"/>
<path d="M1915 2230 c4 -6 11 -8 16 -5 14 9 11 15 -7 15 -8 0 -12 -5 -9 -10z"/>
<path d="M1644 2213 c29 -3 36 -7 25 -14 -8 -5 -9 -9 -3 -9 6 0 17 7 24 15 11
13 6 15 -36 13 -47 -1 -47 -2 -10 -5z"/>
<path d="M1910 1451 c0 -5 5 -13 10 -16 6 -3 10 -2 10 4 0 5 -4 13 -10 16 -5
3 -10 2 -10 -4z"/>
<path d="M950 2323 l-23 -16 24 -12 c24 -14 74 -1 63 16 -14 23 -41 28 -64 12z
m50 -13 c0 -11 -22 -18 -38 -12 -9 3 -10 8 -2 18 12 13 40 9 40 -6z"/>
<path d="M1002 2214 c-1 -14 2 -23 7 -20 5 4 8 13 7 21 -4 25 -12 25 -14 -1z"/>
<path d="M2037 2209 c4 -13 8 -18 11 -10 2 7 -1 18 -6 23 -8 8 -9 4 -5 -13z"/>
<path d="M2060 2160 c0 -5 5 -10 11 -10 5 0 7 5 4 10 -3 6 -8 10 -11 10 -2 0
-4 -4 -4 -10z"/>
<path d="M1001 2013 c-1 -17 16 -25 25 -12 4 7 3 9 -4 5 -5 -3 -13 0 -15 6 -4
9 -6 10 -6 1z"/>
<path d="M921 1723 c7 -12 15 -20 18 -17 3 2 -3 12 -13 22 -17 16 -18 16 -5
-5z"/>
<path d="M910 1701 c5 -11 10 -28 9 -38 0 -14 -3 -12 -10 6 -6 15 -13 21 -19
15 -12 -13 -61 -146 -55 -152 2 -3 7 4 11 14 4 10 15 39 25 63 11 24 19 51 20
60 0 10 4 7 10 -8 5 -14 7 -37 4 -53 -4 -15 -7 -31 -7 -35 0 -5 -4 -18 -9 -31
-5 -14 -5 -21 0 -18 5 3 15 30 21 58 7 29 16 58 20 63 8 10 -14 75 -25 75 -3
0 -1 -9 5 -19z"/>
<path d="M760 1671 c0 -5 -10 -11 -22 -15 -19 -5 -21 -8 -8 -16 13 -8 13 -10
-2 -10 -17 0 -44 -37 -35 -47 3 -2 8 5 12 16 3 12 11 21 16 21 6 0 6 -8 -1
-20 -21 -39 5 -19 30 23 33 55 33 57 21 57 -6 0 -11 -4 -11 -9z"/>
<path d="M840 1642 c0 -7 -6 -12 -14 -12 -8 0 -16 -7 -20 -15 -3 -8 -1 -15 4
-15 5 0 7 -8 3 -17 -3 -10 -3 -15 1 -11 4 3 8 13 10 21 1 8 8 22 15 31 8 9 11
19 7 23 -3 3 -6 1 -6 -5z"/>
<path d="M876 1594 c-9 -26 -16 -55 -15 -63 0 -9 9 11 20 44 22 71 18 86 -5
19z"/>
<path d="M766 1595 c4 -8 11 -15 16 -15 6 0 5 6 -2 15 -7 8 -14 15 -16 15 -2
0 -1 -7 2 -15z"/>
<path d="M975 1590 c-3 -5 -1 -10 4 -10 6 0 11 5 11 10 0 6 -2 10 -4 10 -3 0
-8 -4 -11 -10z"/>
<path d="M932 1563 c-8 -19 -9 -30 -1 -37 7 -8 8 -6 4 5 -4 10 0 19 9 22 9 4
16 13 16 22 0 23 -14 18 -28 -12z"/>
<path d="M965 1540 c-3 -5 -2 -10 4 -10 5 0 13 5 16 10 3 6 2 10 -4 10 -5 0
-13 -4 -16 -10z"/>
<path d="M2065 1998 c4 -31 48 -182 56 -188 3 -3 9 -14 12 -24 4 -10 10 -17
13 -14 2 3 -9 46 -25 96 -16 49 -32 104 -36 121 -8 35 -24 42 -20 9z"/>
<path d="M2125 1727 c-5 -7 -11 -19 -13 -27 -2 -11 1 -10 11 2 8 10 17 15 21
11 4 -4 4 0 0 10 -7 20 -6 20 -19 4z"/>
<path d="M2130 1685 c-6 -8 -10 -19 -8 -24 1 -6 8 1 15 14 13 28 11 31 -7 10z"/>
<path d="M2160 1654 c-12 -31 -13 -44 -1 -26 6 10 14 -1 27 -37 10 -28 21 -51
26 -51 4 0 -2 21 -13 47 -11 25 -17 53 -15 60 4 9 1 11 -6 7 -8 -5 -9 -2 -5 9
3 10 4 17 1 17 -2 0 -9 -12 -14 -26z"/>
<path d="M2267 1666 c-4 -9 -3 -15 2 -12 4 3 18 -14 31 -36 13 -23 25 -37 28
-30 3 10 7 10 18 1 22 -18 17 -2 -12 39 -15 20 -23 28 -20 17 5 -14 0 -12 -17
9 -20 25 -25 27 -30 12z"/>
<path d="M2200 1645 c0 -7 7 -18 17 -23 10 -6 14 -16 10 -26 -4 -9 -2 -16 3
-16 6 0 10 11 10 25 0 16 -6 25 -16 25 -10 0 -14 6 -10 15 3 8 1 15 -4 15 -6
0 -10 -7 -10 -15z"/>
<path d="M2240 1651 c0 -10 19 -25 25 -20 1 2 -3 10 -11 17 -8 7 -14 8 -14 3z"/>
<path d="M2131 1624 c0 -11 3 -14 6 -6 3 7 2 16 -1 19 -3 4 -6 -2 -5 -13z"/>
<path d="M2002 1590 c0 -14 2 -19 5 -12 2 6 2 18 0 25 -3 6 -5 1 -5 -13z"/>
<path d="M2027 1560 c3 -30 7 -57 9 -59 8 -9 2 75 -6 94 -6 13 -7 1 -3 -35z"/>
<path d="M2161 1599 c-1 -9 6 -32 14 -50 18 -43 18 -16 0 31 -7 19 -14 28 -14
19z"/>
<path d="M2270 1601 c0 -10 19 -25 25 -20 1 2 -3 10 -11 17 -8 7 -14 8 -14 3z"/>
<path d="M2136 1592 c-4 -7 -3 -18 2 -25 5 -7 12 -21 15 -32 5 -20 5 -20 5 0
0 36 -13 71 -22 57z"/>
<path d="M2086 1582 c-6 -10 31 -48 38 -41 2 2 -4 14 -14 27 -10 12 -21 18
-24 14z"/>
<path d="M2013 1520 c0 -25 2 -35 4 -22 2 12 2 32 0 45 -2 12 -4 2 -4 -23z"/>
<path d="M2062 1536 c7 -8 15 -12 17 -11 5 6 -10 25 -20 25 -5 0 -4 -6 3 -14z"/>
<path d="M1251 2117 c0 -10 -5 -15 -11 -12 -5 3 -10 1 -10 -4 0 -14 50 -14 70
-1 11 8 8 9 -12 4 -20 -4 -27 -2 -31 13 -4 17 -5 17 -6 0z"/>
<path d="M1211 2066 c-11 -13 -6 -14 29 -11 23 2 45 7 49 11 3 4 -5 4 -18 1
-14 -3 -30 -2 -37 4 -7 6 -15 4 -23 -5z"/>
<path d="M1640 2071 c0 -6 4 -13 10 -16 6 -3 7 1 4 9 -7 18 -14 21 -14 7z"/>
<path d="M1571 2023 c-1 -17 4 -35 9 -38 8 -5 7 -12 -2 -23 -11 -13 -11 -14 2
-10 16 5 16 13 1 68 l-9 35 -1 -32z"/>
<path d="M1996 1792 c-2 -4 -1 -14 4 -22 7 -11 9 -9 7 8 -1 24 -3 26 -11 14z"/>
<path d="M1364 1712 c3 -6 -2 -15 -11 -21 -10 -6 -13 -11 -7 -11 20 0 37 27
23 36 -7 4 -9 3 -5 -4z"/>
<path d="M1311 1653 c-47 -36 -85 -73 -80 -77 3 -3 29 17 59 44 55 49 65 66
21 33z"/>
<path d="M1658 1750 c21 -24 13 -34 -10 -14 -17 14 -20 15 -9 2 7 -9 9 -23 5
-29 -4 -8 -3 -9 5 -5 6 4 18 3 26 -4 9 -8 15 -8 20 0 4 6 1 9 -7 8 -7 -2 -12
4 -10 13 1 9 -6 22 -15 30 -15 11 -16 11 -5 -1z"/>
<path d="M1706 1672 c-3 -6 -1 -14 5 -17 14 -9 20 -2 10 14 -6 8 -11 9 -15 3z"/>
<path d="M1740 1641 c0 -5 7 -12 16 -15 14 -5 15 -4 4 9 -14 17 -20 19 -20 6z"/>
<path d="M1780 1612 c0 -5 7 -15 15 -22 8 -7 15 -9 15 -6 0 4 -7 14 -15 22 -8
9 -15 11 -15 6z"/>
<path d="M1350 1591 c0 -6 4 -13 10 -16 6 -3 7 1 4 9 -7 18 -14 21 -14 7z"/>
<path d="M1820 1576 c0 -2 8 -10 18 -17 15 -13 16 -12 3 4 -13 16 -21 21 -21
13z"/>
<path d="M1560 1530 c0 -16 4 -30 8 -30 5 0 7 14 4 30 -2 17 -6 30 -8 30 -2 0
-4 -13 -4 -30z"/>
<path d="M1512 1512 c-13 -41 -16 -181 -6 -220 4 -14 13 -22 23 -20 21 4 28
65 20 176 -6 97 -20 121 -37 64z m21 -102 c-3 -12 -8 -19 -11 -16 -5 6 5 36
12 36 2 0 2 -9 -1 -20z"/>
<path d="M1431 1524 c0 -11 3 -14 6 -6 3 7 2 16 -1 19 -3 4 -6 -2 -5 -13z"/>
<path d="M1446 1407 c3 -10 9 -15 12 -12 3 3 0 11 -7 18 -10 9 -11 8 -5 -6z"/>
<path d="M1458 1273 c7 -3 16 -2 19 1 4 3 -2 6 -13 5 -11 0 -14 -3 -6 -6z"/>
<path d="M1373 1253 c7 -7 128 -5 136 2 2 3 -29 5 -69 5 -40 0 -70 -3 -67 -7z"/>
<path d="M1543 1254 c7 -7 128 -7 135 1 3 3 -28 5 -68 5 -40 0 -71 -3 -67 -6z"/>
<path d="M1480 1221 c0 -12 -4 -19 -10 -16 -6 3 -13 -1 -16 -10 -5 -12 -9 -13
-20 -4 -8 6 -14 16 -14 21 0 7 4 7 13 0 8 -7 16 -6 24 3 9 10 6 13 -13 13 -36
0 -39 -16 -10 -47 24 -25 25 -29 11 -41 -11 -9 -12 -16 -5 -25 6 -7 7 -20 4
-29 -4 -9 0 -24 7 -34 9 -11 14 -42 14 -83 0 -42 4 -65 10 -62 19 7 12 125 -7
147 -10 11 -18 25 -18 30 1 6 9 1 20 -12 l19 -23 -1 31 c-1 16 -5 30 -10 30
-5 0 -6 -5 -2 -12 4 -7 3 -8 -4 -4 -6 4 -9 13 -6 21 4 8 11 12 16 9 6 -4 9 9
7 33 -2 21 1 44 5 52 5 7 3 18 -3 24 -8 8 -11 5 -11 -12z m-14 -93 c-11 -16
-16 -18 -16 -7 0 8 6 21 13 28 10 11 9 14 -2 18 -11 5 -11 7 0 14 21 13 24
-26 5 -53z"/>
<path d="M1613 1225 c0 -8 4 -12 9 -9 12 8 10 -10 -4 -26 -7 -8 -4 -7 6 2 11
9 16 23 13 32 -8 20 -24 21 -24 1z"/>
<path d="M1550 1220 c0 -5 4 -10 10 -10 5 0 7 -16 5 -35 -3 -19 -1 -35 4 -35
6 0 8 12 5 26 -3 17 -1 23 6 19 6 -4 9 -12 7 -18 -2 -7 2 -19 9 -28 12 -14 11
-19 -8 -41 -13 -14 -24 -32 -26 -39 -1 -8 11 2 28 21 17 20 27 41 24 50 -9 22
-12 42 -14 75 -1 26 -3 27 -10 10 -7 -18 -8 -19 -15 -2 -8 18 -25 23 -25 7z"/>
<path d="M1580 1130 c0 -5 5 -10 11 -10 5 0 7 5 4 10 -3 6 -8 10 -11 10 -2 0
-4 -4 -4 -10z"/>
<path d="M1593 1061 c-17 -22 -20 -37 -16 -69 4 -27 1 -47 -7 -57 -9 -11 -10
-15 0 -15 7 0 10 -13 9 -34 -2 -19 0 -38 4 -42 4 -4 6 38 6 94 -2 86 1 105 16
122 10 11 16 22 13 25 -2 3 -14 -8 -25 -24z"/>
<path d="M1476 892 c-8 -14 -4 -302 5 -302 5 0 9 3 10 8 0 4 3 19 5 34 2 14 1
29 -3 31 -5 3 -8 57 -6 121 1 111 0 125 -11 108z"/>
<path d="M1570 825 c7 -8 9 -15 4 -15 -5 0 -10 -68 -11 -152 -3 -162 6 -198
12 -50 2 49 6 119 9 155 5 54 3 66 -11 71 -13 5 -14 4 -3 -9z"/>
<path d="M1471 575 c0 -5 6 -19 14 -29 15 -19 15 -19 15 3 0 12 -4 20 -9 17
-5 -4 -12 0 -14 6 -3 7 -6 9 -6 3z"/>
<path d="M1616 571 c-3 -5 3 -11 15 -14 16 -4 18 -3 8 9 -13 16 -16 17 -23 5z"/>
<path d="M1405 560 c-3 -6 1 -7 9 -4 18 7 21 14 7 14 -6 0 -13 -4 -16 -10z"/>
<path d="M1481 434 c1 -75 3 -82 9 -44 7 45 5 119 -5 128 -3 3 -4 -35 -4 -84z"/>
<path d="M1566 423 c-6 -14 -5 -15 5 -6 7 7 10 15 7 18 -3 3 -9 -2 -12 -12z"/>
<path d="M1572 375 c0 -16 2 -22 5 -12 2 9 2 23 0 30 -3 6 -5 -1 -5 -18z"/>
<path d="M1365 1439 c-4 -6 -5 -12 -2 -15 2 -3 7 2 10 11 7 17 1 20 -8 4z"/>
<path d="M1288 1223 c6 -2 18 -2 25 0 6 3 1 5 -13 5 -14 0 -19 -2 -12 -5z"/>
<path d="M1285 1202 c-3 -3 2 -10 10 -16 13 -10 13 -14 0 -40 -16 -30 -14 -38
10 -42 11 -2 12 2 6 14 -10 21 -3 43 18 59 9 6 13 15 8 19 -4 4 -7 2 -7 -4 0
-7 -5 -12 -11 -12 -6 0 -9 6 -6 13 5 13 -17 19 -28 9z"/>
<path d="M1306 1077 c3 -10 9 -15 12 -12 3 3 0 11 -7 18 -10 9 -11 8 -5 -6z"/>
<path d="M1290 1035 c0 -8 2 -15 4 -15 2 0 6 7 10 15 3 8 1 15 -4 15 -6 0 -10
-7 -10 -15z"/>
<path d="M1280 990 c0 -5 5 -10 10 -10 6 0 10 5 10 10 0 6 -4 10 -10 10 -5 0
-10 -4 -10 -10z"/>
<path d="M1280 960 c0 -5 5 -10 11 -10 5 0 7 5 4 10 -3 6 -8 10 -11 10 -2 0
-4 -4 -4 -10z"/>
<path d="M1277 919 c-4 -16 -3 -18 9 -8 7 6 11 15 8 20 -8 13 -11 11 -17 -12z"/>
<path d="M1270 861 c0 -25 6 -27 13 -6 4 8 2 17 -3 20 -6 4 -10 -3 -10 -14z"/>
<path d="M1262 780 c0 -19 2 -27 5 -17 2 9 2 25 0 35 -3 9 -5 1 -5 -18z"/>
<path d="M1251 730 c-1 -3 -4 -25 -6 -50 -2 -37 -1 -40 6 -20 6 13 8 36 6 50
-2 14 -5 23 -6 20z"/>
<path d="M1231 554 c0 -11 3 -14 6 -6 3 7 2 16 -1 19 -3 4 -6 -2 -5 -13z"/>
<path d="M1752 1203 c-6 -2 -10 -9 -6 -14 3 -5 0 -9 -5 -9 -6 0 -11 5 -11 10
0 6 -5 10 -12 10 -6 0 -4 -8 7 -20 9 -10 15 -26 12 -34 -4 -9 -1 -18 5 -22 7
-4 8 -3 4 4 -4 7 -3 12 3 12 6 0 8 6 5 14 -3 8 -1 24 6 35 6 12 9 21 8 20 -2
0 -9 -3 -16 -6z"/>
<path d="M1756 1113 c-4 -9 -3 -20 2 -25 6 -6 10 1 10 16 0 30 -3 32 -12 9z"/>
<path d="M1750 1031 c0 -11 4 -22 9 -25 4 -3 6 6 3 19 -5 30 -12 33 -12 6z"/>
<path d="M1757 978 c-2 -7 0 -21 5 -31 5 -10 7 -26 3 -36 -3 -10 -1 -29 4 -42
8 -18 9 -6 6 45 -5 71 -9 87 -18 64z"/>
<path d="M1781 798 c-1 -16 4 -28 9 -28 12 0 12 8 0 35 -8 18 -9 17 -9 -7z"/>
<path d="M1792 730 c0 -14 2 -19 5 -12 2 6 2 18 0 25 -3 6 -5 1 -5 -13z"/>
<path d="M1802 675 c0 -16 2 -22 5 -12 2 9 2 23 0 30 -3 6 -5 -1 -5 -18z"/>
<path d="M2796 3763 c-6 -14 -5 -15 5 -6 7 7 10 15 7 18 -3 3 -9 -2 -12 -12z"/>
<path d="M1646 3707 c3 -10 9 -15 12 -12 3 3 0 11 -7 18 -10 9 -11 8 -5 -6z"/>
<path d="M2690 3641 c0 -11 -6 -22 -12 -24 -10 -4 -10 -6 0 -6 10 -1 10 -6 2
-21 -6 -11 -14 -19 -18 -16 -4 2 -8 -4 -8 -14 0 -10 4 -16 8 -14 5 3 11 -2 14
-10 12 -32 19 -14 22 54 1 39 0 70 -3 70 -3 0 -5 -9 -5 -19z"/>
<path d="M154 3629 c-2 -4 5 -9 16 -12 11 -3 20 -1 20 5 0 5 5 6 10 3 6 -4 7
-11 4 -17 -5 -8 -1 -9 12 -5 16 6 17 5 4 -5 -8 -7 -14 -23 -12 -35 2 -13 -2
-23 -8 -23 -7 0 -10 7 -7 14 4 10 1 13 -7 10 -20 -8 -15 -36 7 -42 17 -4 19
-11 14 -63 -3 -32 -1 -61 5 -67 6 -6 6 -12 -1 -16 -6 -4 -11 -12 -11 -17 0 -6
5 -7 10 -4 6 4 17 1 25 -5 8 -6 19 -9 24 -6 5 4 12 2 16 -4 6 -10 -13 -14 -48
-10 -14 1 -16 -4 -11 -25 5 -19 3 -25 -7 -23 -9 2 -13 -5 -11 -18 1 -12 -4
-27 -13 -34 -25 -21 -18 -33 17 -26 25 5 30 4 20 -6 -16 -16 -16 -58 1 -58 9
0 9 -2 -1 -9 -10 -6 -9 -10 8 -14 17 -4 20 -10 14 -31 -3 -15 -2 -32 4 -39 6
-7 9 -25 8 -40 -2 -15 1 -27 7 -27 6 0 7 17 4 40 -3 22 -1 38 3 35 5 -3 11 -1
15 4 3 5 -1 13 -8 18 -16 10 -37 80 -33 108 4 23 -12 47 -25 39 -5 -3 -9 0 -9
5 0 6 7 11 16 11 14 0 14 3 4 15 -10 12 -10 15 0 15 7 0 10 8 7 20 -3 12 -1
17 5 14 13 -8 57 34 54 52 -1 8 -6 13 -12 12 -5 -2 -8 -6 -7 -10 7 -19 -9 -6
-17 15 -8 20 -9 21 -10 2 -1 -20 -1 -20 -9 0 -6 14 -4 22 8 27 14 6 14 7 -1 7
-15 1 -18 11 -20 51 -1 28 -2 58 -2 68 -1 9 5 16 12 14 10 -2 10 2 2 17 -5 11
-7 26 -5 34 3 7 -2 20 -11 28 -18 15 -62 20 -70 8z"/>
<path d="M2760 3606 c0 -9 7 -16 16 -16 9 0 14 5 12 12 -6 18 -28 21 -28 4z"/>
<path d="M160 3600 c0 -5 5 -10 11 -10 5 0 7 5 4 10 -3 6 -8 10 -11 10 -2 0
-4 -4 -4 -10z"/>
<path d="M1771 3574 c0 -11 3 -14 6 -6 3 7 2 16 -1 19 -3 4 -6 -2 -5 -13z"/>
<path d="M2630 3548 c0 -19 25 -58 42 -64 10 -3 16 -9 13 -14 -3 -5 4 -14 15
-20 16 -8 19 -17 14 -37 -5 -19 -4 -24 6 -18 9 6 9 3 0 -16 -10 -18 -10 -24
-1 -27 9 -3 7 -10 -5 -23 -14 -15 -14 -21 -4 -34 7 -8 10 -26 8 -40 -3 -14 -1
-25 3 -25 5 0 9 -4 9 -10 0 -5 -10 -10 -23 -10 -12 0 -28 -10 -36 -21 -9 -16
-15 -19 -21 -10 -5 9 -9 4 -12 -13 -3 -14 -2 -23 3 -21 4 3 10 1 13 -4 4 -5
-3 -12 -14 -16 -11 -3 -20 -11 -20 -17 0 -6 -7 -5 -17 3 -10 7 -13 8 -8 1 14
-15 7 -84 -8 -75 -6 4 -7 1 -2 -7 4 -7 9 -53 10 -102 1 -59 6 -92 15 -101 10
-10 12 -9 7 6 -4 9 -2 17 2 17 5 0 17 3 26 6 10 4 15 2 13 -6 -2 -7 2 -14 8
-17 12 -4 12 -2 18 84 3 34 7 67 11 73 3 5 0 10 -7 11 -7 0 -4 4 7 8 22 9 48
3 40 -9 -3 -5 -1 -10 4 -12 5 -1 11 -36 13 -76 5 -65 3 -76 -15 -93 -12 -10
-16 -19 -9 -19 6 0 14 5 17 11 4 6 14 8 22 5 13 -5 14 7 8 95 -8 119 -11 137
-25 154 -8 9 -8 15 -1 20 17 10 -23 47 -42 39 -10 -3 -17 -10 -17 -15 0 -5 -4
-9 -10 -9 -17 0 -12 67 6 74 26 10 36 7 31 -9 -4 -8 -2 -17 3 -20 6 -4 10 5
10 19 0 14 5 26 11 26 5 0 7 -4 4 -10 -3 -5 -1 -10 4 -10 15 0 14 20 -4 53 -8
15 -10 25 -5 22 5 -3 11 -1 14 4 4 5 1 13 -5 16 -5 4 -8 13 -5 21 3 8 -1 14
-9 14 -8 0 -15 5 -15 11 0 5 5 7 10 4 13 -8 24 20 14 37 -9 14 -8 63 2 96 7
23 -10 32 -19 10 -3 -8 -6 -6 -6 5 -1 9 -6 17 -12 17 -5 0 -8 4 -5 9 3 5 -5
12 -19 15 -17 4 -23 11 -18 23 5 12 3 14 -6 8 -8 -4 -17 -2 -22 6 -5 8 -9 11
-9 7z m32 -453 c10 -14 10 -27 0 -21 -5 3 -9 -1 -9 -9 0 -8 4 -15 9 -15 4 0 8
-4 8 -9 0 -4 -13 -8 -30 -7 -29 1 -43 15 -17 17 10 0 10 2 0 6 -7 2 -13 12
-13 21 0 15 2 15 10 2 8 -12 10 -11 10 8 0 22 18 26 32 7z m88 -63 c0 -8 -6
-12 -12 -9 -7 2 -12 10 -10 16 1 6 -2 11 -6 11 -4 0 -9 12 -10 28 l-2 27 20
-30 c11 -16 20 -36 20 -43z m-48 24 c3 -23 0 -32 -8 -29 -16 6 -25 29 -18 48
10 25 22 17 26 -19z m-43 -44 c8 -15 9 -34 2 -109 -1 -6 -9 -14 -18 -16 -14
-4 -12 -5 5 -6 35 -2 25 -16 -13 -18 -25 -1 -33 2 -28 10 11 17 13 96 3 123
-13 34 31 49 49 16z"/>
<path d="M2627 3002 c2 -10 11 -19 19 -19 11 0 11 4 -3 19 -9 10 -17 18 -19
18 -1 0 0 -8 3 -18z"/>
<path d="M170 3490 c0 -5 7 -10 16 -10 8 0 12 5 9 10 -3 6 -10 10 -16 10 -5 0
-9 -4 -9 -10z"/>
<path d="M181 3454 c0 -11 3 -14 6 -6 3 7 2 16 -1 19 -3 4 -6 -2 -5 -13z"/>
<path d="M1442 3453 c-6 -2 -10 -9 -6 -14 8 -14 21 -11 21 6 0 8 -1 15 -1 14
-1 0 -7 -3 -14 -6z"/>
<path d="M1604 3445 c-10 -8 -14 -15 -8 -15 6 0 17 7 24 15 16 19 9 19 -16 0z"/>
<path d="M1450 3405 c-7 -9 -8 -15 -2 -15 5 0 12 7 16 15 3 8 4 15 2 15 -2 0
-9 -7 -16 -15z"/>
<path d="M1583 3405 c0 -8 4 -15 9 -15 4 0 8 4 8 9 0 6 -4 12 -8 15 -5 3 -9
-1 -9 -9z"/>
<path d="M331 3354 c0 -11 3 -14 6 -6 3 7 2 16 -1 19 -3 4 -6 -2 -5 -13z"/>
<path d="M148 3240 c-5 -33 6 -50 16 -24 9 23 7 54 -3 54 -5 0 -11 -14 -13
-30z"/>
<path d="M175 3170 c-4 -6 -16 -8 -28 -4 -19 6 -20 5 -9 -9 15 -18 49 -18 56
0 6 16 -10 27 -19 13z"/>
<path d="M1554 3095 c1 -8 5 -18 9 -21 4 -4 7 -24 7 -45 0 -40 8 -69 19 -69 4
0 7 9 7 19 0 11 -3 18 -7 15 -4 -2 -7 18 -6 44 0 48 -7 72 -23 72 -4 0 -7 -7
-6 -15z"/>
<path d="M207 3062 c-10 -10 -14 -22 -10 -25 3 -4 13 2 21 14 18 26 10 35 -11
11z"/>
<path d="M292 3060 c-9 -14 -8 -20 1 -23 8 -4 7 -6 -3 -6 -10 -1 -5 -10 15
-26 25 -21 28 -26 15 -35 -8 -6 -27 -8 -42 -6 -20 4 -28 1 -28 -9 0 -12 -5
-12 -26 -4 -34 12 -42 4 -21 -19 19 -21 13 -32 -16 -32 -11 0 -18 -3 -14 -6 3
-4 -1 -13 -9 -21 -19 -19 -10 -30 11 -13 9 7 19 10 22 6 4 -4 2 -11 -5 -15 -9
-6 -8 -13 7 -30 11 -13 25 -20 31 -16 7 4 5 11 -5 21 -19 19 -19 28 0 44 9 7
13 21 9 35 -5 19 -1 23 25 27 35 5 44 -16 10 -25 -26 -7 -22 -41 6 -44 11 -2
14 0 7 3 -6 3 -10 10 -6 15 3 5 0 9 -7 9 -7 0 -9 3 -6 6 4 4 12 2 20 -4 10 -9
13 -4 15 21 3 30 18 50 33 41 11 -7 19 24 11 45 -7 18 -10 21 -29 21 -5 0 -3
4 3 8 7 5 7 13 -1 29 -11 21 -12 21 -23 3z"/>
<path d="M1526 3055 c-3 -9 -5 -71 -4 -138 l2 -122 5 135 c3 74 5 136 5 138
-1 2 -4 -4 -8 -13z"/>
<path d="M1497 2948 c-3 -62 -1 -120 3 -128 5 -8 9 43 9 113 1 70 0 127 -2
127 -2 0 -7 -51 -10 -112z"/>
<path d="M190 2980 c0 -5 4 -10 9 -10 5 0 18 -3 28 -6 16 -6 16 -5 -2 9 -23
19 -35 21 -35 7z"/>
<path d="M290 2980 c0 -5 5 -10 10 -10 6 0 10 5 10 10 0 6 -4 10 -10 10 -5 0
-10 -4 -10 -10z"/>
<path d="M1543 2890 c0 -47 2 -66 4 -42 2 23 2 61 0 85 -2 23 -4 4 -4 -43z"/>
<path d="M1377 2908 c-15 -85 -17 -104 -8 -78 l9 25 1 -24 c2 -43 12 -15 17
48 6 64 -9 86 -19 29z"/>
<path d="M1651 2898 c0 -31 3 -38 8 -23 6 15 9 10 15 -24 4 -24 9 -41 12 -38
8 7 -19 127 -28 127 -4 0 -8 -19 -7 -42z"/>
<path d="M1425 2910 c3 -5 8 -10 11 -10 2 0 4 5 4 10 0 6 -5 10 -11 10 -5 0
-7 -4 -4 -10z"/>
<path d="M1579 2908 c9 -13 10 -22 1 -38 -6 -12 -9 -24 -6 -27 3 -3 11 6 17
21 11 23 10 29 -6 44 -17 15 -18 15 -6 0z"/>
<path d="M1610 2911 c0 -5 7 -12 16 -15 14 -5 15 -4 4 9 -14 17 -20 19 -20 6z"/>
<path d="M1450 2886 c0 -13 7 -26 15 -30 12 -4 13 -2 2 15 -10 16 -9 21 3 29
13 8 12 10 -2 10 -12 0 -18 -8 -18 -24z"/>
<path d="M1411 2884 c0 -11 3 -14 6 -6 3 7 2 16 -1 19 -3 4 -6 -2 -5 -13z"/>
<path d="M1614 2859 c-3 -6 -1 -16 5 -22 8 -8 11 -5 11 11 0 24 -5 28 -16 11z"/>
<path d="M1423 2845 c0 -8 4 -12 9 -9 5 3 6 10 3 15 -9 13 -12 11 -12 -6z"/>
<path d="M2797 2840 c3 -11 7 -20 9 -20 2 0 4 9 4 20 0 11 -4 20 -9 20 -5 0
-7 -9 -4 -20z"/>
<path d="M121 2841 c-8 -6 -9 -11 -3 -15 6 -3 14 -1 17 5 9 14 2 20 -14 10z"/>
<path d="M1650 2837 c0 -9 4 -18 9 -21 5 -4 8 1 7 9 -3 21 -16 31 -16 12z"/>
<path d="M2638 2818 c5 -5 16 -8 23 -6 8 3 3 7 -10 11 -17 4 -21 3 -13 -5z"/>
<path d="M2749 2795 c-4 -2 -5 -85 0 -85 13 0 3 -62 -12 -81 -16 -18 -16 -19
2 -19 10 0 22 -7 25 -16 7 -19 -2 -37 -15 -29 -5 3 -6 -2 -2 -11 4 -12 3 -15
-5 -10 -8 5 -10 1 -5 -10 4 -12 3 -15 -5 -10 -8 5 -12 0 -12 -13 0 -12 4 -21
9 -21 7 0 18 -34 23 -77 1 -8 5 -9 13 -3 7 6 11 3 11 -10 0 -10 -5 -16 -11
-13 -5 3 -5 0 1 -7 7 -7 21 -9 34 -5 20 6 20 8 6 24 -9 10 -16 23 -16 30 0 7
-6 11 -13 8 -10 -4 -14 6 -15 35 -1 22 -4 43 -7 48 -6 10 33 45 42 37 3 -4 1
-18 -5 -32 -15 -32 -15 -55 -2 -55 6 0 10 9 10 19 0 11 5 23 10 26 13 8 13 55
0 55 -6 0 -9 14 -8 30 1 17 7 30 12 30 6 0 5 5 -2 12 -9 9 -16 8 -30 -5 -21
-19 -32 -22 -32 -7 0 6 11 16 25 22 20 9 25 18 25 49 0 21 -5 41 -11 45 -6 3
-9 17 -6 29 3 18 0 23 -15 22 -10 -1 -18 -1 -19 -2z m40 -97 c1 -10 -4 -18
-11 -18 -6 0 -8 3 -5 6 3 4 2 15 -4 26 -5 10 -7 24 -3 30 8 13 22 -14 23 -44z"/>
<path d="M150 2774 c0 -8 5 -12 10 -9 6 4 8 11 5 16 -9 14 -15 11 -15 -7z"/>
<path d="M208 2783 c-10 -2 -18 -9 -18 -14 0 -5 11 -7 25 -3 15 4 25 2 25 -5
0 -6 -5 -11 -12 -11 -7 0 -5 -7 5 -18 10 -11 13 -22 7 -31 -4 -8 -4 -25 1 -38
5 -14 5 -23 -1 -23 -5 0 -7 -6 -4 -14 3 -8 1 -17 -5 -21 -7 -4 -11 10 -11 39
0 34 -4 46 -15 46 -18 0 -20 -17 -3 -22 8 -3 7 -9 -4 -18 -24 -23 -3 -58 36
-62 l31 -3 -3 -59 c-3 -54 -2 -58 13 -46 9 7 14 20 13 29 -2 9 3 22 12 29 8 8
10 11 3 8 -16 -8 -47 88 -45 142 0 26 -4 42 -11 42 -9 0 -9 2 -1 8 7 4 8 15 3
30 -8 22 -11 23 -41 15z"/>
<path d="M196 2728 c8 -28 12 -33 20 -25 9 8 -6 47 -17 47 -6 0 -7 -10 -3 -22z"/>
<path d="M1784 2736 c-3 -8 -12 -12 -19 -10 -7 3 -15 1 -19 -4 -3 -5 12 -9 34
-10 21 -1 42 3 46 9 4 8 -1 9 -16 4 -19 -6 -22 -4 -17 9 4 9 4 16 1 16 -2 0
-7 -6 -10 -14z"/>
<path d="M2060 2525 c0 -25 -4 -45 -10 -45 -5 0 -10 6 -10 14 0 16 -16 16 -45
-1 -20 -12 -20 -12 3 -35 13 -13 22 -17 22 -10 0 8 5 10 12 6 7 -4 8 -3 4 4
-5 8 0 12 13 12 18 0 21 6 21 50 0 28 -2 50 -5 50 -3 0 -5 -20 -5 -45z m-38
-50 c0 -5 -5 -11 -11 -13 -6 -2 -11 4 -11 13 0 9 5 15 11 13 6 -2 11 -8 11
-13z"/>
<path d="M190 2550 c0 -5 5 -10 10 -10 6 0 10 5 10 10 0 6 -4 10 -10 10 -5 0
-10 -4 -10 -10z"/>
<path d="M215 2520 c-3 -5 3 -10 14 -10 12 0 21 5 21 10 0 6 -6 10 -14 10 -8
0 -18 -4 -21 -10z"/>
<path d="M1816 2494 c-8 -8 -13 -21 -10 -29 8 -21 32 -26 48 -9 17 16 12 40
-9 48 -8 3 -21 -2 -29 -10z m34 -13 c0 -12 -20 -25 -27 -18 -7 7 6 27 18 27 5
0 9 -4 9 -9z"/>
<path d="M1906 2495 c-20 -20 -10 -45 19 -45 29 0 39 25 19 45 -9 8 -17 15
-19 15 -2 0 -10 -7 -19 -15z m25 -18 c-1 -12 -15 -9 -19 4 -3 6 1 10 8 8 6 -3
11 -8 11 -12z"/>
<path d="M285 2470 c3 -5 0 -10 -8 -10 -8 0 -18 -7 -21 -16 -9 -23 -7 -34 4
-34 6 0 10 7 10 15 0 9 7 18 15 21 17 7 21 34 4 34 -5 0 -7 -4 -4 -10z"/>
<path d="M2061 2435 c0 -17 -7 -38 -13 -45 -7 -8 -5 -8 5 1 13 11 17 26 14 45
l-4 29 -2 -30z"/>
<path d="M210 2405 c-13 -15 -8 -19 23 -16 9 1 17 -3 17 -8 0 -6 -10 -11 -22
-12 -22 0 -22 -1 -3 -9 28 -11 41 4 27 35 -13 29 -24 31 -42 10z"/>
<path d="M1987 2403 c-4 -3 -7 -15 -7 -25 0 -13 7 -18 28 -17 24 2 25 2 4 6
-18 3 -23 10 -19 24 5 20 4 23 -6 12z"/>
<path d="M2754 2356 c1 -6 5 -16 9 -23 4 -6 6 -17 4 -25 -2 -7 -2 -10 0 -5 3
4 9 5 14 1 5 -3 9 0 9 5 0 6 0 14 0 19 0 4 -4 7 -9 7 -5 0 -13 4 -18 9 -4 5
-3 6 4 2 6 -3 14 -2 17 3 3 5 -3 11 -13 14 -11 2 -18 0 -17 -7z"/>
<path d="M222 2327 c1 -12 -2 -28 -6 -36 -7 -11 -4 -13 12 -9 12 4 25 2 28 -3
3 -5 1 -9 -5 -9 -18 0 -22 -39 -7 -67 l14 -28 0 35 c-1 19 3 44 7 54 6 13 3
23 -7 30 -11 8 -13 17 -7 28 6 12 4 17 -12 21 -16 4 -20 1 -17 -16z"/>
<path d="M2790 2295 c-7 -9 -10 -18 -7 -21 10 -11 37 5 37 21 0 19 -14 19 -30
0z"/>
<path d="M2752 2268 c2 -7 7 -16 12 -19 11 -8 14 -109 3 -109 -5 0 -5 -5 -2
-10 4 -6 1 -17 -5 -25 -14 -16 -10 -87 5 -97 6 -5 6 -8 -2 -8 -7 0 -13 -5 -13
-11 0 -5 4 -8 9 -4 6 3 9 -4 8 -15 -1 -11 -6 -20 -12 -20 -16 0 -16 -40 0 -47
11 -3 12 -10 5 -22 -5 -10 -10 -42 -12 -72 -1 -30 -7 -57 -13 -61 -6 -5 -5 -8
3 -8 7 0 10 -5 7 -10 -4 -6 -2 -9 3 -8 6 2 11 -1 12 -7 1 -5 6 -16 12 -22 7
-9 7 -13 -1 -13 -7 0 -7 -7 1 -25 8 -17 8 -32 1 -47 -5 -13 -10 -49 -9 -81 1
-43 -2 -56 -12 -52 -10 3 -9 -1 2 -16 8 -12 12 -28 9 -37 -4 -10 -2 -13 5 -8
8 5 10 2 6 -8 -3 -9 -12 -16 -20 -16 -8 0 -14 -4 -14 -9 0 -5 -9 -11 -21 -14
-18 -5 -19 -10 -13 -44 3 -21 12 -45 18 -53 7 -8 17 -28 24 -43 6 -15 19 -30
27 -33 8 -4 12 -10 9 -15 -3 -5 -1 -9 5 -9 5 0 12 6 14 13 4 9 6 9 6 -1 1 -8
-8 -16 -19 -19 -11 -3 -20 -14 -20 -24 0 -11 -5 -19 -10 -19 -6 0 -10 -6 -9
-12 3 -25 -1 -39 -10 -33 -15 8 -25 -15 -12 -28 14 -14 14 -30 0 -21 -8 4 -9
-1 -4 -16 5 -17 4 -21 -5 -15 -10 6 -11 4 -4 -6 5 -8 9 -18 9 -24 0 -5 5 -11
10 -11 23 -3 55 -17 55 -24 0 -4 -10 -12 -22 -19 -13 -6 -16 -10 -7 -7 12 3
18 -3 22 -21 6 -31 -2 -63 -15 -63 -7 0 -7 -4 -1 -12 14 -18 23 -59 12 -52
-14 8 -11 -4 7 -31 11 -17 12 -25 4 -25 -7 0 -5 -7 5 -17 16 -16 16 -17 -1
-30 -10 -7 -16 -13 -13 -14 2 0 12 -2 21 -4 16 -3 18 5 16 60 -1 35 -4 62 -8
60 -13 -8 -7 65 6 76 19 16 18 33 -2 25 -15 -6 -16 0 -10 50 4 31 10 62 13 68
10 15 10 96 1 96 -5 0 -8 -8 -8 -17 0 -15 -2 -16 -10 -3 -7 11 -10 0 -10 -37
0 -39 -4 -53 -14 -53 -8 0 -18 6 -22 12 -12 20 -4 82 12 91 8 4 14 23 14 43 0
33 2 35 28 32 24 -3 27 0 23 22 -1 14 -9 36 -16 50 -7 14 -15 72 -17 129 -2
70 -8 106 -16 109 -8 2 -9 9 -3 21 5 9 8 43 7 74 -1 32 1 60 5 62 5 4 5 119 0
144 -1 2 -8 -3 -17 -10 -14 -11 -15 -10 -12 11 2 17 9 24 20 22 16 -2 16 1 5
35 -14 42 -15 53 -5 69 4 6 1 22 -7 37 -13 25 -12 27 6 27 14 0 19 7 19 25 0
14 -4 25 -10 25 -20 0 -10 19 12 22 12 2 23 9 26 17 3 10 0 11 -9 5 -34 -21
-45 -14 -45 26 1 34 16 73 16 40 0 -7 3 -10 6 -7 4 4 1 14 -7 24 -8 9 -9 14
-3 10 7 -4 14 4 17 21 3 15 2 28 -2 30 -4 1 -5 17 -4 35 3 25 -2 36 -22 50
-17 13 -25 14 -23 5z m22 -959 c12 -76 12 -94 1 -94 -5 0 -10 12 -11 26 -1 15
-6 35 -12 45 -11 18 -11 18 -12 0 0 -15 -3 -17 -11 -9 -9 9 -8 20 4 45 8 18
13 36 10 41 -3 5 0 8 8 5 8 -3 18 -28 23 -59z m-44 47 c0 -3 -4 -8 -10 -11 -5
-3 -10 -1 -10 4 0 6 5 11 10 11 6 0 10 -2 10 -4z"/>
<path d="M2150 2260 c-9 -6 -10 -10 -3 -10 6 0 15 5 18 10 8 12 4 12 -15 0z"/>
<path d="M219 2188 c6 -27 5 -43 -6 -57 -9 -14 -10 -21 -3 -21 7 0 9 -8 5 -20
-3 -10 -1 -28 5 -40 9 -16 8 -20 -6 -20 -15 0 -15 -2 0 -25 9 -13 16 -31 16
-40 0 -10 5 -13 12 -9 8 5 9 2 5 -9 -3 -10 -2 -17 3 -17 6 0 10 -7 10 -16 0
-9 -6 -14 -12 -11 -51 21 -49 21 -37 -7 13 -28 25 -33 32 -13 2 6 8 9 12 4 5
-4 -1 -18 -13 -30 -19 -20 -22 -32 -18 -89 2 -36 6 -70 9 -75 8 -12 4 -143 -3
-143 -3 0 -5 -25 -3 -56 2 -58 -10 -99 -28 -88 -5 3 -16 0 -24 -6 -12 -10 -15
-9 -15 4 0 20 -16 21 -24 1 -3 -9 1 -18 9 -21 19 -8 20 -24 1 -24 -9 0 -12 -8
-9 -24 3 -14 10 -23 17 -20 7 3 18 -2 25 -10 10 -12 8 -16 -9 -21 -16 -5 -18
-10 -10 -20 6 -7 19 -15 30 -18 17 -4 18 0 15 46 -3 37 1 57 12 69 9 11 11 18
5 18 -6 0 -16 -9 -22 -20 -6 -11 -17 -20 -25 -20 -12 0 -13 4 -3 19 14 24 55
44 70 35 7 -5 9 4 6 25 -3 21 0 31 8 31 18 0 27 -17 12 -23 -7 -3 -3 -6 9 -6
15 -1 20 4 18 17 -2 9 -4 20 -4 25 -1 4 -4 6 -8 5 -5 0 -16 2 -25 6 -14 7 -16
12 -7 28 9 16 8 19 -2 13 -8 -6 -10 -4 -3 6 5 8 7 22 5 33 -2 12 1 16 10 11 8
-6 10 -4 3 6 -13 22 -13 36 2 36 7 0 11 -4 9 -8 -3 -4 3 -5 14 -2 12 3 17 12
16 26 -1 12 -3 34 -4 50 0 16 -6 26 -13 25 -7 -2 -12 3 -10 10 1 8 -2 11 -8 7
-13 -8 -13 -35 0 -35 6 0 10 -6 9 -12 -3 -26 1 -39 11 -33 6 3 10 1 10 -4 0
-6 -10 -9 -22 -7 -17 2 -23 10 -24 28 -1 14 -4 33 -7 42 -4 9 -2 16 3 16 5 0
8 18 8 40 0 22 -4 40 -9 40 -5 0 -9 -5 -9 -12 0 -6 -2 -9 -5 -7 -2 3 -2 15 2
28 4 17 8 19 14 9 6 -9 9 -2 9 19 0 17 7 39 16 47 8 9 11 16 5 16 -6 0 -8 6
-6 13 3 7 -4 30 -15 52 -14 27 -16 41 -9 46 8 4 7 9 -2 13 -11 5 -11 7 -2 12
10 4 9 10 -3 22 -15 14 -15 17 2 30 12 9 13 13 4 10 -11 -4 -15 3 -15 27 0 18
3 31 6 29 4 -2 10 3 13 12 3 8 2 12 -4 9 -6 -3 -10 0 -10 7 0 8 -6 23 -14 34
-13 17 -14 16 -7 -18z"/>
<path d="M2797 1916 c-4 -10 0 -14 14 -13 10 1 18 6 16 11 -5 16 -24 18 -30 2z"/>
<path d="M2810 1690 c0 -5 5 -10 10 -10 6 0 10 5 10 10 0 6 -4 10 -10 10 -5 0
-10 -4 -10 -10z"/>
<path d="M155 1470 c-3 -5 -1 -10 4 -10 6 0 11 5 11 10 0 6 -2 10 -4 10 -3 0
-8 -4 -11 -10z"/>
<path d="M908 1463 c7 -3 16 -2 19 1 4 3 -2 6 -13 5 -11 0 -14 -3 -6 -6z"/>
<path d="M2721 1414 c0 -11 3 -14 6 -6 3 7 2 16 -1 19 -3 4 -6 -2 -5 -13z"/>
<path d="M856 1403 c-6 -14 -5 -15 5 -6 7 7 10 15 7 18 -3 3 -9 -2 -12 -12z"/>
<path d="M250 1375 c-7 -19 -17 -32 -20 -30 -9 6 -5 -163 4 -172 6 -7 10 27 6
62 -1 11 2 16 6 12 13 -12 13 -107 0 -107 -6 -1 1 -8 17 -16 15 -8 27 -17 27
-20 0 -3 -4 -3 -9 0 -5 3 -9 -9 -9 -28 0 -19 -3 -40 -8 -47 -5 -9 -2 -10 10
-6 10 4 15 3 11 -3 -9 -15 -45 -12 -45 4 0 8 6 17 13 19 7 4 8 6 1 6 -6 1 -18
-6 -25 -16 -11 -13 -12 -17 -1 -21 10 -3 10 -9 -3 -28 -8 -13 -12 -24 -8 -23
20 3 27 -2 13 -11 -13 -9 -13 -11 0 -20 11 -7 16 -4 21 13 5 19 7 17 14 -13 8
-33 9 -34 15 -10 6 24 7 24 11 -7 5 -27 2 -33 -12 -33 -10 0 -19 6 -22 13 -2
6 -2 2 0 -11 2 -14 -2 -25 -12 -28 -9 -4 -15 -19 -15 -39 0 -41 -9 -67 -21
-59 -11 6 -12 -10 -1 -20 4 -4 7 -13 7 -19 0 -7 10 -13 23 -15 25 -4 40 21 25
41 -17 21 -24 49 -11 41 7 -5 9 -2 5 8 -3 9 0 21 6 28 9 10 9 11 0 6 -7 -4
-13 -2 -13 3 0 6 7 11 15 11 9 0 12 6 9 15 -5 11 -2 13 10 9 9 -3 17 -2 17 2
7 52 6 66 -7 79 -9 8 -12 15 -7 16 4 0 -1 4 -12 9 -18 8 -18 9 -2 9 10 1 15 6
12 11 -4 6 -1 17 5 25 10 12 10 19 -1 32 -8 9 -9 14 -4 11 6 -4 10 10 10 33 1
21 -3 39 -7 39 -4 0 -8 9 -8 20 0 11 -6 20 -12 20 -10 0 -9 3 1 9 7 5 11 13 8
18 -3 5 -7 28 -8 52 -2 23 -8 46 -15 52 -13 10 -9 39 9 76 5 13 8 25 5 28 -2
3 -10 -11 -18 -30z m5 -634 c3 -5 0 -13 -6 -17 -7 -4 -9 -3 -5 4 3 5 0 13 -6
15 -9 4 -10 6 -1 6 6 1 14 -3 18 -8z"/>
<path d="M2682 1360 c0 -14 2 -19 5 -12 2 6 2 18 0 25 -3 6 -5 1 -5 -13z"/>
<path d="M2667 1324 c-9 -10 2 -24 18 -24 9 0 12 6 9 15 -6 16 -17 19 -27 9z"/>
<path d="M2683 1273 c3 -13 1 -23 -5 -23 -5 0 -8 -6 -6 -12 6 -17 55 -18 55
-2 0 7 -7 10 -15 6 -9 -3 -13 -1 -10 4 4 5 -1 18 -9 29 -15 20 -15 20 -10 -2z"/>
<path d="M175 1230 c-3 -5 1 -10 10 -10 9 0 13 5 10 10 -3 6 -8 10 -10 10 -2
0 -7 -4 -10 -10z"/>
<path d="M2325 1230 c-3 -5 -1 -10 4 -10 6 0 11 5 11 10 0 6 -2 10 -4 10 -3 0
-8 -4 -11 -10z"/>
<path d="M150 1201 c0 -6 5 -13 10 -16 6 -3 10 1 10 9 0 9 -4 16 -10 16 -5 0
-10 -4 -10 -9z"/>
<path d="M1866 1198 c5 -8 2 -9 -10 -5 -10 4 -15 3 -11 -3 9 -15 32 -12 39 5
3 9 0 15 -10 15 -9 0 -12 -5 -8 -12z"/>
<path d="M188 1188 c-6 -16 1 -38 12 -38 4 0 7 11 6 25 -1 27 -11 33 -18 13z"/>
<path d="M125 1178 c-4 -10 -5 -25 -1 -33 3 -8 1 -15 -4 -15 -6 0 -10 -7 -10
-15 0 -8 5 -15 10 -15 6 0 10 -9 10 -20 0 -28 13 -25 27 6 10 22 10 25 -2 20
-11 -4 -14 1 -11 17 3 12 5 26 5 31 1 4 8 5 17 2 8 -3 12 -2 9 4 -3 6 -12 10
-20 10 -7 0 -15 6 -18 13 -3 8 -7 6 -12 -5z"/>
<path d="M285 1180 c-3 -5 -1 -10 4 -10 6 0 11 5 11 10 0 6 -2 10 -4 10 -3 0
-8 -4 -11 -10z"/>
<path d="M1170 1160 c0 -5 5 -10 10 -10 6 0 10 5 10 10 0 6 -4 10 -10 10 -5 0
-10 -4 -10 -10z"/>
<path d="M1156 1123 c-6 -14 -5 -15 5 -6 7 7 10 15 7 18 -3 3 -9 -2 -12 -12z"/>
<path d="M1884 1104 c4 -16 7 -35 8 -42 1 -8 5 -9 11 -3 7 7 6 15 -2 25 -7 8
-10 20 -7 25 4 5 1 13 -5 17 -9 5 -10 -1 -5 -22z"/>
<path d="M195 1111 c-3 -5 -1 -12 5 -16 5 -3 10 1 10 9 0 18 -6 21 -15 7z"/>
<path d="M1156 1073 c-6 -14 -5 -15 5 -6 7 7 10 15 7 18 -3 3 -9 -2 -12 -12z"/>
<path d="M220 1064 c0 -8 5 -12 10 -9 6 4 8 11 5 16 -9 14 -15 11 -15 -7z"/>
<path d="M1136 1023 c-6 -14 -5 -15 5 -6 7 7 10 15 7 18 -3 3 -9 -2 -12 -12z"/>
<path d="M1914 1015 c4 -16 12 -34 17 -40 5 -5 4 6 -2 25 -15 45 -24 54 -15
15z"/>
<path d="M137 1013 c-11 -10 -8 -43 3 -43 6 0 10 11 10 25 0 26 -2 29 -13 18z"/>
<path d="M2760 991 c0 -25 6 -27 13 -6 4 8 2 17 -3 20 -6 4 -10 -3 -10 -14z"/>
<path d="M2866 1001 c-4 -7 -5 -15 -2 -18 9 -9 19 4 14 18 -4 11 -6 11 -12 0z"/>
<path d="M2145 970 c-3 -5 -1 -10 4 -10 6 0 11 5 11 10 0 6 -2 10 -4 10 -3 0
-8 -4 -11 -10z"/>
<path d="M1113 955 c-3 -9 -3 -18 -1 -21 3 -3 8 4 11 16 6 23 -1 27 -10 5z"/>
<path d="M2810 910 c0 -5 5 -10 11 -10 5 0 7 5 4 10 -3 6 -8 10 -11 10 -2 0
-4 -4 -4 -10z"/>
<path d="M1097 903 c-4 -3 -7 -13 -7 -22 1 -13 3 -13 11 2 11 19 8 33 -4 20z"/>
<path d="M1950 901 c0 -6 4 -13 10 -16 6 -3 7 1 4 9 -7 18 -14 21 -14 7z"/>
<path d="M203 883 c9 -2 23 -2 30 0 6 3 -1 5 -18 5 -16 0 -22 -2 -12 -5z"/>
<path d="M2841 864 c0 -11 3 -14 6 -6 3 7 2 16 -1 19 -3 4 -6 -2 -5 -13z"/>
<path d="M130 850 c0 -5 5 -10 11 -10 5 0 7 5 4 10 -3 6 -8 10 -11 10 -2 0 -4
-4 -4 -10z"/>
<path d="M166 822 c-3 -6 -1 -14 5 -17 15 -10 25 3 12 16 -7 7 -13 7 -17 1z"/>
<path d="M130 810 c0 -5 5 -10 10 -10 6 0 10 5 10 10 0 6 -4 10 -10 10 -5 0
-10 -4 -10 -10z"/>
<path d="M285 695 c12 -49 12 -54 3 -113 -5 -32 -10 -64 -10 -72 0 -8 -4 -19
-8 -25 -4 -5 -10 -18 -13 -28 -6 -15 -3 -16 12 -7 15 7 20 6 25 -7 9 -23 0
-28 -29 -15 -26 12 -33 40 -14 59 14 14 2 76 -13 67 -6 -4 -6 -10 1 -17 19
-19 12 -45 -14 -51 -24 -6 -36 -26 -15 -26 6 0 10 -11 10 -24 0 -20 4 -23 21
-19 18 5 20 3 12 -13 -5 -10 -8 -31 -7 -46 0 -16 -3 -28 -7 -28 -5 0 -9 5 -9
11 0 8 -5 7 -15 -1 -12 -10 -13 -15 -4 -20 8 -6 8 -9 0 -14 -18 -11 -13 -33
14 -60 23 -23 26 -56 4 -56 -5 0 -9 -7 -9 -16 0 -14 3 -14 15 -4 11 9 15 9 15
1 0 -7 10 -10 25 -7 18 3 25 0 25 -11 0 -9 -6 -13 -15 -9 -8 3 -15 0 -15 -7 0
-8 -4 -6 -10 3 -8 12 -10 10 -10 -9 0 -16 4 -22 15 -17 10 4 15 -1 15 -15 0
-11 -4 -17 -10 -14 -5 3 -10 2 -10 -4 0 -10 44 -7 80 6 11 4 10 7 -7 13 -18 7
-21 15 -17 50 3 38 2 40 -16 30 -20 -11 -24 -8 -21 21 1 9 -9 27 -23 40 -13
12 -22 29 -19 36 3 7 0 13 -7 13 -6 0 -8 5 -5 10 4 6 10 8 15 5 9 -5 30 49 33
84 0 11 4 18 8 15 9 -5 39 23 39 36 0 5 -9 14 -20 20 -11 6 -20 15 -20 21 0 6
4 8 9 5 5 -4 8 2 6 11 -1 10 1 23 6 28 4 6 9 33 11 60 1 28 6 55 10 61 4 6 0
19 -10 30 -10 10 -19 23 -19 27 -1 5 -5 12 -9 15 -4 4 -3 -6 1 -23z"/>
<path d="M2836 697 c-5 -10 -6 -20 -3 -24 4 -3 -1 -22 -9 -41 -8 -20 -12 -42
-10 -49 3 -7 1 -13 -3 -13 -5 0 -7 -9 -4 -20 7 -25 23 -26 23 -1 0 11 5 21 11
23 6 2 9 31 7 73 -2 48 -6 64 -12 52z m4 -107 c0 -5 -2 -10 -4 -10 -3 0 -8 5
-11 10 -3 6 -1 10 4 10 6 0 11 -4 11 -10z"/>
<path d="M130 690 c0 -5 5 -10 10 -10 6 0 10 5 10 10 0 6 -4 10 -10 10 -5 0
-10 -4 -10 -10z"/>
<path d="M261 668 c-1 -16 4 -28 9 -28 12 0 12 8 0 35 -8 18 -9 17 -9 -7z"/>
<path d="M170 659 c0 -5 5 -7 10 -4 6 3 10 8 10 11 0 2 -4 4 -10 4 -5 0 -10
-5 -10 -11z"/>
<path d="M187 595 c-3 -7 0 -12 8 -11 22 3 27 13 11 19 -8 3 -17 0 -19 -8z"/>
<path d="M2081 584 c0 -11 3 -14 6 -6 3 7 2 16 -1 19 -3 4 -6 -2 -5 -13z"/>
<path d="M260 570 c0 -11 2 -20 4 -20 2 0 6 9 9 20 3 11 1 20 -4 20 -5 0 -9
-9 -9 -20z"/>
<path d="M206 561 c-4 -7 -5 -15 -2 -18 9 -9 19 4 14 18 -4 11 -6 11 -12 0z"/>
<path d="M2774 519 c-3 -5 0 -17 5 -26 6 -10 11 -12 11 -5 0 22 20 13 20 -10
0 -26 5 -21 13 13 6 23 3 27 -18 32 -14 2 -28 0 -31 -4z"/>
<path d="M200 509 c0 -5 -4 -7 -10 -4 -5 3 -10 1 -10 -4 0 -13 3 -13 24 -5 18
7 22 24 6 24 -5 0 -10 -5 -10 -11z"/>
<path d="M2750 479 c0 -27 -3 -31 -11 -19 -9 12 -9 11 -4 -5 4 -11 7 -27 8
-35 0 -8 4 -21 10 -27 6 -9 6 -13 -1 -13 -6 0 -9 -8 -8 -17 2 -10 11 -18 22
-18 10 0 22 -4 26 -10 4 -6 8 -2 8 8 0 9 -7 17 -15 17 -18 0 -20 16 -4 26 7 4
8 9 1 13 -5 3 -12 28 -15 55 -7 58 -17 73 -17 25z"/>
<path d="M2870 468 c0 -9 5 -20 10 -23 13 -8 13 5 0 25 -8 13 -10 13 -10 -2z"/>
<path d="M2815 440 c-3 -5 -1 -10 4 -10 6 0 11 5 11 10 0 6 -2 10 -4 10 -3 0
-8 -4 -11 -10z"/>
<path d="M1271 424 c0 -11 3 -14 6 -6 3 7 2 16 -1 19 -3 4 -6 -2 -5 -13z"/>
<path d="M1208 363 c7 -3 16 -2 19 1 4 3 -2 6 -13 5 -11 0 -14 -3 -6 -6z"/>
<path d="M2730 330 c6 -12 7 -20 1 -20 -5 0 -8 -8 -7 -17 2 -10 -2 -21 -8 -25
-7 -5 -6 -8 4 -8 12 0 15 -9 12 -37 -2 -29 -1 -34 7 -23 7 9 11 10 11 3 0 -21
-32 -32 -48 -17 -10 10 -19 11 -32 4 -10 -5 -27 -7 -37 -4 -14 5 -15 4 -4 -4
16 -11 25 -46 10 -37 -5 4 -16 2 -26 -3 -14 -9 -14 -10 5 -16 29 -10 62 2 62
20 0 8 -4 12 -10 9 -5 -3 -10 -2 -10 3 0 19 31 22 36 4 3 -9 9 -26 14 -37 9
-20 9 -20 11 0 1 11 1 22 1 25 0 3 15 4 34 2 27 -3 34 -1 34 12 0 10 5 14 10
11 6 -3 10 -15 10 -26 0 -22 4 -23 31 -9 10 6 19 18 19 28 -1 16 -2 16 -13 1
-11 -14 -14 -15 -26 -2 -9 11 -10 17 -3 22 7 4 8 12 2 21 -7 11 -3 18 12 26
14 7 17 14 9 18 -6 4 -11 2 -11 -3 0 -6 -7 -11 -16 -11 -11 0 -13 -6 -9 -19 3
-11 1 -22 -5 -26 -5 -3 -10 -1 -10 5 0 6 -5 8 -11 5 -6 -4 -8 -13 -5 -21 3 -7
1 -16 -5 -19 -6 -4 -10 7 -10 27 0 18 -2 51 -4 73 -2 22 -4 47 -4 56 -1 9 -8
19 -16 23 -13 4 -14 2 -5 -14z"/>
<path d="M2760 320 c0 -5 5 -10 10 -10 6 0 10 5 10 10 0 6 -4 10 -10 10 -5 0
-10 -4 -10 -10z"/>
<path d="M2806 311 c-4 -5 -2 -12 3 -15 5 -4 12 -2 15 3 4 5 2 12 -3 15 -5 4
-12 2 -15 -3z"/>
<path d="M2438 202 c-10 -2 -18 -8 -18 -13 0 -6 -4 -8 -8 -5 -19 11 -34 -12
-27 -43 8 -39 18 -45 33 -20 10 16 9 19 -3 19 -8 0 -15 6 -15 14 0 8 9 12 25
11 16 -2 25 2 25 11 0 8 5 14 10 14 6 0 9 -6 8 -12 -2 -7 5 -12 14 -10 9 1 20
-3 24 -9 5 -8 3 -9 -7 -4 -12 8 -12 6 0 -8 16 -20 22 -22 19 -5 -4 17 46 16
54 -2 5 -12 7 -12 7 2 1 11 6 15 15 12 8 -3 22 -2 31 3 13 8 9 11 -20 20 -19
6 -35 8 -35 5 0 -4 -11 -7 -24 -7 -13 0 -22 4 -18 9 3 5 -5 7 -16 4 -12 -4
-20 -3 -17 2 6 9 -32 17 -57 12z"/>
<path d="M334 175 c-18 -14 -18 -14 11 -15 17 -1 24 -4 18 -7 -22 -8 -14 -28
12 -28 26 0 34 10 13 17 -6 2 -8 10 -4 17 5 7 12 9 19 3 7 -5 29 -8 50 -7 20
1 37 -2 37 -7 0 -4 -5 -8 -11 -8 -5 0 -7 -4 -4 -10 3 -5 17 -10 31 -10 13 0
24 5 24 10 0 6 -5 10 -11 10 -5 0 -7 5 -3 11 3 6 17 9 30 6 13 -2 24 0 24 4 0
9 -6 11 -32 13 -7 1 -16 6 -20 11 -4 6 -8 1 -8 -10 0 -17 -2 -18 -15 -4 -11
11 -29 13 -74 9 -33 -3 -57 -2 -55 2 8 13 -11 9 -32 -7z"/>
<path d="M894 178 c5 -18 3 -20 -31 -21 -10 -1 -21 -6 -25 -12 -5 -6 -8 -3 -8
7 0 21 -20 34 -29 20 -3 -6 -20 -18 -36 -26 -26 -14 -31 -14 -47 1 -19 17 -24
8 -9 -16 6 -10 20 -12 45 -8 20 3 36 4 36 2 0 -2 -11 -15 -25 -29 -30 -30 -31
-34 -7 -32 9 0 24 10 32 21 16 21 36 25 58 12 8 -5 12 -2 12 8 0 10 -5 13 -12
9 -10 -6 -10 -4 0 8 7 9 21 14 32 11 12 -3 20 0 20 7 0 10 3 10 15 0 13 -10
15 -9 15 9 0 12 -4 20 -9 16 -6 -3 -15 3 -21 12 -11 17 -11 17 -6 1z m-67 -64
c-10 -10 -29 17 -22 32 6 17 8 17 16 -5 5 -13 8 -25 6 -27z"/>
<path d="M1020 184 c0 -6 -17 -9 -40 -8 -34 2 -40 -1 -40 -18 0 -10 4 -17 8
-14 5 3 19 -6 30 -19 12 -14 27 -25 33 -25 8 0 7 -6 -2 -17 -12 -15 -12 -16 4
-10 10 4 17 2 17 -6 1 -7 8 -3 18 9 10 11 23 19 30 16 8 -2 12 7 12 26 0 24
-4 29 -22 28 -14 -1 -27 8 -35 24 -7 14 -13 20 -13 14z m-25 -24 c-3 -5 -3
-10 2 -11 41 -4 61 -14 49 -26 -4 -4 -16 -2 -26 5 -16 9 -20 9 -20 0 0 -9 -3
-9 -11 -1 -11 11 -6 43 6 43 4 0 3 -4 0 -10z m72 -42 c-3 -8 -6 -5 -6 6 -1 11
2 17 5 13 3 -3 4 -12 1 -19z"/>
<path d="M1800 181 c0 -5 5 -13 10 -16 6 -3 10 -2 10 4 0 5 -4 13 -10 16 -5 3
-10 2 -10 -4z"/>
<path d="M657 164 c-3 -4 -23 -7 -43 -8 -57 -2 -56 -26 0 -26 26 0 46 5 46 11
0 20 20 -3 21 -24 0 -12 3 -16 6 -9 3 7 2 24 -1 37 -6 25 -17 31 -29 19z"/>
<path d="M1146 147 c3 -10 9 -15 12 -12 3 3 0 11 -7 18 -10 9 -11 8 -5 -6z"/>
<path d="M1100 145 c0 -1 7 -16 16 -33 17 -35 29 -40 38 -17 10 26 27 17 20
-11 -6 -23 -4 -25 17 -22 13 2 23 9 21 16 -3 15 22 16 48 2 18 -9 18 -8 9 20
-11 29 -29 41 -29 18 0 -6 -3 -8 -7 -5 -3 4 -12 2 -19 -4 -9 -7 -18 -6 -32 2
-17 10 -24 10 -37 -1 -9 -7 -15 -9 -14 -4 4 24 -2 41 -16 41 -8 0 -15 -1 -15
-2z"/>
<path d="M2778 133 c7 -3 16 -2 19 1 4 3 -2 6 -13 5 -11 0 -14 -3 -6 -6z"/>
<path d="M363 104 c-7 -19 2 -28 22 -21 19 8 19 23 0 31 -9 3 -18 -1 -22 -10z"/>
<path d="M875 110 c-3 -5 -1 -10 4 -10 6 0 11 5 11 10 0 6 -2 10 -4 10 -3 0
-8 -4 -11 -10z"/>
<path d="M940 110 c0 -5 5 -10 10 -10 6 0 10 5 10 10 0 6 -4 10 -10 10 -5 0
-10 -4 -10 -10z"/>
<path d="M2768 113 c-33 -8 -18 -23 23 -23 36 0 40 2 29 15 -13 15 -21 16 -52
8z"/>
<path d="M480 100 c0 -5 5 -10 10 -10 6 0 10 5 10 10 0 6 -4 10 -10 10 -5 0
-10 -4 -10 -10z"/>
<path d="M570 100 c0 -5 11 -10 25 -10 14 0 28 0 32 -1 4 0 9 4 11 10 2 7 -11
11 -32 11 -20 0 -36 -4 -36 -10z"/>
<path d="M1510 90 c-8 -5 -13 -10 -10 -11 3 0 15 -2 28 -5 15 -3 22 1 22 11 0
17 -18 19 -40 5z"/>
<path d="M1560 90 c0 -5 4 -10 8 -10 5 0 15 -11 22 -25 10 -18 16 -22 22 -13
5 10 8 8 8 -4 0 -10 4 -18 10 -18 6 0 5 9 -1 24 -7 14 -17 22 -24 19 -7 -2
-16 5 -20 16 -6 21 -25 29 -25 11z"/>
<path d="M2370 80 c0 -5 5 -10 10 -10 6 0 10 5 10 10 0 6 -4 10 -10 10 -5 0
-10 -4 -10 -10z"/>
<path d="M2396 74 c-4 -9 -4 -19 -1 -22 2 -3 7 3 11 12 4 9 4 19 1 22 -2 3 -7
-3 -11 -12z"/>
<path d="M1380 76 c0 -2 8 -10 18 -17 15 -13 16 -12 3 4 -13 16 -21 21 -21 13z"/>
<path d="M2839 71 c7 -5 11 -14 7 -20 -5 -7 -1 -9 8 -5 20 8 20 20 0 28 -23 9
-31 7 -15 -3z"/>
<path d="M2521 56 c-7 -9 -18 -12 -25 -8 -19 12 -56 9 -56 -5 0 -7 5 -13 10
-13 6 0 10 -7 10 -15 0 -8 7 -15 16 -15 8 0 13 3 11 8 -8 12 47 11 62 -1 11
-10 13 -8 6 13 -14 47 -20 53 -34 36z"/>
<path d="M1510 50 c0 -13 11 -13 30 0 12 8 11 10 -7 10 -13 0 -23 -4 -23 -10z"/>
<path d="M1725 50 c-3 -6 -4 -14 -1 -19 4 -5 0 -12 -6 -14 -7 -3 -3 -6 8 -6
17 -1 20 4 16 24 -5 27 -8 30 -17 15z"/>
<path d="M2680 46 c0 -7 7 -13 15 -13 8 0 15 4 15 8 0 4 -7 9 -15 13 -9 3 -15
0 -15 -8z"/>
<path d="M2405 40 c-3 -5 -1 -10 4 -10 6 0 11 5 11 10 0 6 -2 10 -4 10 -3 0
-8 -4 -11 -10z"/>
<path d="M2600 40 c0 -5 5 -10 10 -10 6 0 10 5 10 10 0 6 -4 10 -10 10 -5 0
-10 -4 -10 -10z"/>
<path d="M1180 31 c0 -5 7 -11 15 -15 9 -3 15 0 15 9 0 8 -7 15 -15 15 -8 0
-15 -4 -15 -9z"/>
<path d="M1970 30 c0 -5 5 -10 10 -10 6 0 10 5 10 10 0 6 -4 10 -10 10 -5 0
-10 -4 -10 -10z"/>
<path d="M2860 30 c0 -5 5 -10 10 -10 6 0 10 5 10 10 0 6 -4 10 -10 10 -5 0
-10 -4 -10 -10z"/>
<path d="M1530 20 c0 -5 7 -10 16 -10 8 0 12 5 9 10 -3 6 -10 10 -16 10 -5 0
-9 -4 -9 -10z"/>
<path d="M2796 22 c-13 -12 -4 -19 24 -18 16 1 30 4 30 9 0 4 -3 7 -7 8 -5 0
-16 2 -25 4 -9 2 -19 0 -22 -3z"/>
<path d="M1805 10 l-30 -8 33 -1 c17 0 32 4 32 9 0 6 -1 9 -2 9 -2 -1 -16 -5
-33 -9z"/>
<path d="M2686 11 c-3 -5 6 -8 19 -8 14 0 28 3 31 8 3 5 -6 9 -20 9 -14 0 -27
-4 -30 -9z"/>
<path d="M2758 3 c7 -3 16 -2 19 1 4 3 -2 6 -13 5 -11 0 -14 -3 -6 -6z"/>
</g>
</svg>
