<?xml version="1.0" standalone="no"?>
<!DOCTYPE svg PUBLIC "-//W3C//DTD SVG 20010904//EN"
 "http://www.w3.org/TR/2001/REC-SVG-20010904/DTD/svg10.dtd">
<svg version="1.0" xmlns="http://www.w3.org/2000/svg"
 width="300.000000pt" height="424.000000pt" viewBox="0 0 300.000000 424.000000"
 preserveAspectRatio="xMidYMid meet">
<metadata>
Created by potrace 1.10, written by Peter Selinger 2001-2011
</metadata>
<g transform="translate(0.000000,424.000000) scale(0.100000,-0.100000)"
fill="#000000" stroke="none">
<path d="M1693 4021 c-23 -11 -43 -16 -45 -11 -2 4 -10 10 -18 11 -23 5 -173
-23 -188 -34 -7 -5 -29 -12 -49 -14 -21 -2 -40 -7 -43 -12 -9 -13 -39 -20 -45
-11 -4 6 -12 10 -18 10 -7 0 -6 -4 3 -11 11 -8 8 -9 -13 -4 -21 4 -27 3 -21
-6 4 -8 3 -9 -4 -5 -11 6 -72 -19 -72 -29 0 -3 11 -3 25 -1 16 3 23 1 19 -6
-4 -5 -21 -7 -39 -4 -26 5 -47 -1 -100 -29 -76 -39 -75 -39 -75 -25 0 6 5 10
11 10 7 0 18 8 25 18 15 19 19 62 6 62 -13 0 -122 -117 -122 -130 0 -6 -5 -8
-11 -5 -7 5 -5 13 5 24 9 10 16 21 16 26 0 14 -31 -18 -47 -48 -12 -23 -12
-32 -2 -41 9 -8 10 -8 5 1 -4 7 -2 21 4 30 9 16 10 15 5 -4 -7 -26 0 -29 21
-9 7 8 22 12 33 9 10 -3 22 1 26 8 6 9 2 11 -13 7 -24 -7 -30 6 -9 19 22 13
39 12 33 -3 -7 -18 -1 -18 32 1 64 34 94 46 86 34 -5 -9 -2 -10 10 -6 10 4 22
7 27 7 6 0 7 5 3 12 -4 7 -3 8 4 4 14 -8 82 19 82 33 0 6 7 8 15 5 8 -4 15 -1
15 5 0 6 12 11 26 11 14 0 22 -4 19 -10 -3 -6 1 -7 10 -4 9 4 14 13 10 22 -4
12 2 14 42 9 27 -3 42 -3 36 0 -7 2 -13 9 -13 14 0 12 41 11 60 -1 12 -8 11
-10 -7 -10 -13 0 -23 -4 -23 -9 0 -5 9 -7 20 -4 11 3 20 0 20 -6 0 -6 10 -11
23 -11 17 0 19 2 8 9 -17 11 -24 41 -9 41 6 0 8 -7 4 -15 -5 -13 -2 -14 16 -4
11 6 44 19 72 29 l51 18 -40 -2 c-22 -2 -48 -6 -58 -11 -10 -4 -32 -3 -50 2
l-32 10 35 1 c19 1 60 5 90 10 46 8 59 7 80 -8 14 -9 31 -15 39 -12 8 3 11 0
7 -7 -4 -6 -18 -8 -32 -5 -13 3 -41 3 -61 -1 -28 -5 -33 -9 -22 -17 11 -7 9
-9 -8 -5 -13 3 -28 -2 -39 -14 -16 -18 -15 -18 12 -9 16 5 47 15 69 24 38 13
40 13 47 -5 6 -15 14 -18 35 -14 27 6 27 6 9 -9 -11 -9 -27 -16 -35 -16 -9 0
-23 -5 -31 -11 -12 -8 -9 -9 13 -5 32 8 37 -9 5 -18 -33 -8 -38 -8 -38 7 0 13
-49 15 -69 3 -16 -10 8 -43 41 -57 16 -6 28 -17 28 -24 0 -8 6 -15 13 -18 19
-7 5 -15 -33 -18 -19 -2 -39 -6 -45 -10 -5 -3 -30 -9 -55 -13 -24 -4 -50 -12
-57 -18 -7 -6 -13 -7 -13 -3 0 4 -7 2 -15 -5 -8 -7 -15 -9 -15 -5 0 4 -6 3
-12 -2 -7 -6 -25 -13 -40 -17 -16 -3 -28 -11 -28 -16 0 -5 -18 -3 -40 6 -21 9
-45 14 -52 11 -8 -3 -5 -6 6 -6 11 -1 41 -15 67 -32 27 -17 52 -28 58 -25 5 3
14 -1 20 -8 25 -30 -8 -23 -69 14 -48 30 -70 38 -92 33 -21 -4 -28 -2 -28 11
0 16 -46 34 -57 22 -4 -3 3 -6 15 -6 11 0 23 -4 26 -9 6 -10 -21 -8 -46 3 -10
5 -25 5 -34 2 -8 -3 -12 -2 -9 4 3 6 15 10 26 10 11 0 18 3 15 8 -2 4 13 7 34
7 21 0 35 -2 31 -5 -5 -3 -3 -11 5 -18 12 -11 13 -9 11 7 -2 11 -6 23 -10 27
-9 10 -119 11 -146 2 -43 -15 -34 0 16 25 65 33 163 54 173 36 5 -7 7 -2 7 14
-1 14 -6 22 -12 19 -5 -4 -15 -7 -21 -8 -6 -1 -22 -5 -34 -9 -17 -6 -21 -4
-14 6 7 12 5 12 -9 1 -9 -8 -20 -11 -25 -8 -5 3 -25 -6 -45 -19 -20 -14 -41
-25 -46 -25 -6 0 -15 -9 -21 -20 -8 -15 -7 -21 8 -29 11 -6 24 -6 33 0 7 5 23
9 34 9 16 0 14 -4 -12 -21 -32 -20 -43 -39 -23 -39 6 0 10 4 10 9 0 10 26 9
36 -2 4 -4 18 -7 30 -7 13 0 26 -5 30 -11 4 -7 22 -9 45 -6 22 3 37 1 33 -4
-3 -5 2 -9 11 -9 28 0 100 -45 101 -63 1 -9 -2 -17 -7 -17 -5 0 -9 4 -9 10 0
20 -120 67 -220 86 -25 5 -25 5 3 -11 15 -9 26 -19 23 -23 -2 -4 9 -8 25 -9
43 -3 73 -22 60 -37 -6 -7 -8 -16 -4 -19 3 -4 2 -7 -4 -7 -14 0 -35 25 -27 32
3 3 -3 5 -13 5 -10 -1 -17 4 -15 11 1 8 -2 11 -8 7 -6 -4 -9 -14 -6 -22 4 -9
1 -13 -6 -11 -7 3 -13 10 -13 16 0 7 -3 12 -7 12 -5 0 -13 0 -20 0 -6 0 -9 -3
-5 -6 3 -4 -1 -13 -9 -22 -14 -14 -12 -17 18 -30 18 -9 43 -16 56 -16 16 0 21
-4 17 -15 -3 -9 -3 -12 1 -9 3 4 25 -4 48 -18 39 -23 38 -22 -18 31 -33 30
-55 55 -49 55 14 0 89 -66 113 -100 22 -32 17 -65 -9 -55 -13 5 -14 4 -3 -6 6
-7 12 -17 12 -23 0 -5 -21 13 -47 40 -26 27 -47 53 -45 57 1 5 -2 6 -8 2 -10
-6 -39 6 -62 27 -26 24 -57 38 -63 28 -3 -5 13 -19 36 -30 22 -12 39 -24 36
-26 -3 -3 -19 2 -36 10 -38 20 -56 21 -39 2 7 -8 15 -14 18 -14 28 1 42 -9 68
-48 27 -42 34 -93 11 -78 -5 3 -6 -3 -3 -13 4 -12 0 -10 -14 7 -11 13 -18 28
-16 32 2 3 -1 10 -7 14 -8 4 -9 3 -5 -4 10 -16 1 -15 -32 3 -41 22 -85 72 -77
87 3 7 -1 4 -9 -7 -15 -18 -14 -21 21 -57 20 -20 41 -34 47 -31 6 3 8 2 3 -2
-4 -5 7 -24 25 -42 33 -34 61 -46 37 -15 -8 9 6 -2 30 -26 24 -23 71 -64 105
-91 52 -40 66 -47 85 -39 22 8 23 10 7 26 -9 10 -16 26 -16 36 0 9 -8 19 -17
23 -10 3 -27 13 -38 22 -20 16 -20 16 -1 -6 25 -30 15 -29 -37 2 l-42 26 40
-35 c21 -19 42 -33 45 -31 3 2 13 -3 23 -10 11 -8 14 -16 8 -20 -13 -7 -120
75 -120 93 -1 6 -8 12 -16 12 -8 0 -15 5 -15 10 0 14 5 13 53 -11 29 -15 38
-17 29 -7 -7 9 -26 21 -42 28 -17 7 -30 17 -30 22 0 9 23 -1 83 -39 43 -27 63
-26 21 1 -14 10 -24 20 -21 23 3 2 21 -6 41 -19 25 -16 34 -28 30 -40 -4 -13
0 -18 15 -19 34 -2 39 -4 48 -13 4 -5 3 -6 -3 -3 -6 4 -20 0 -30 -8 -18 -14
-18 -14 5 -10 42 8 46 20 28 78 -21 65 -21 86 -4 112 20 29 16 117 -6 139 -26
27 -20 43 16 37 4 0 6 2 6 6 -4 23 3 31 21 26 11 -3 28 -2 37 1 15 6 15 9 3
17 -12 8 -10 10 8 6 12 -3 22 -1 22 5 0 6 7 8 15 4 8 -3 15 -2 15 3 0 4 -18
14 -40 21 -22 7 -44 18 -49 24 -11 13 20 16 147 18 45 1 81 3 79 5 -3 2 -24 7
-48 12 -39 8 -34 9 46 10 73 1 87 4 75 14 -8 7 -21 23 -28 36 -13 22 -12 23 5
17 10 -4 43 -17 73 -28 30 -12 64 -27 76 -35 12 -7 29 -11 38 -7 11 4 16 1 16
-11 0 -12 -6 -15 -22 -10 -18 5 -20 4 -8 -4 24 -17 40 -13 40 9 0 30 -29 82
-41 74 -6 -4 -4 -13 6 -24 21 -23 4 -34 -21 -15 -18 15 -18 15 1 9 18 -5 18
-5 2 6 -9 6 -15 15 -12 21 3 5 0 6 -8 3 -8 -3 -18 -1 -22 5 -3 6 -12 11 -18
11 -7 0 2 -9 18 -20 38 -25 26 -26 -21 -1 -20 11 -42 17 -49 15 -7 -3 -15 -1
-18 3 -3 5 15 9 41 8 26 0 58 6 72 12 14 7 32 13 40 12 8 0 2 -7 -15 -15 l-30
-15 29 4 c38 6 147 -67 197 -132 37 -48 159 -252 159 -266 0 -4 15 -31 34 -59
18 -28 34 -64 34 -80 0 -17 -3 -23 -8 -15 -5 6 -6 19 -3 28 4 9 -8 3 -25 -13
-18 -17 -32 -26 -32 -20 0 5 -5 2 -11 -6 -8 -13 -10 -12 -7 4 2 11 11 20 21
22 27 4 34 14 10 14 -12 0 -25 11 -33 28 -7 16 -14 22 -17 14 -3 -7 1 -19 7
-27 10 -12 9 -20 -5 -41 -12 -18 -13 -24 -4 -19 8 3 6 0 -3 -8 -23 -19 -23
-24 8 -64 19 -25 31 -32 48 -29 19 3 23 1 19 -15 -5 -16 -8 -17 -20 -7 -9 7
-2 -8 15 -32 16 -25 35 -63 42 -85 7 -22 25 -61 41 -86 16 -25 29 -53 29 -62
0 -25 -45 -72 -89 -91 -28 -13 -38 -23 -34 -34 4 -9 2 -13 -4 -9 -6 4 -13 3
-15 -3 -2 -6 -9 0 -17 12 -13 21 -13 22 2 9 10 -7 17 -9 17 -3 0 14 -21 28
-52 36 -23 5 -27 2 -37 -24 -5 -17 -6 -28 -2 -25 12 7 32 -20 24 -31 -4 -5 -2
-4 6 3 28 24 83 -14 86 -59 0 -5 4 -9 9 -10 13 -4 17 57 6 86 -8 23 -5 27 37
51 25 14 48 23 50 21 5 -5 -52 -46 -65 -46 -11 0 3 -100 16 -109 13 -9 54 -71
47 -71 -3 0 -15 9 -27 19 -16 16 -24 17 -39 8 -14 -9 -21 -9 -31 1 -17 17
-106 15 -157 -3 -22 -8 -41 -12 -41 -9 0 2 -9 0 -19 -6 -14 -7 -22 -7 -27 1
-5 9 -11 6 -21 -6 -7 -11 -13 -13 -13 -6 0 7 -5 9 -10 6 -6 -4 -7 -11 -4 -17
4 -7 2 -8 -4 -4 -7 4 -12 19 -11 34 0 15 3 21 6 14 4 -10 8 -9 19 5 12 17 13
16 8 -7 l-5 -25 13 23 c9 19 9 25 -2 32 -12 7 -11 12 4 29 10 11 21 20 25 19
3 0 13 0 21 1 12 1 12 3 2 10 -9 5 2 8 29 7 27 -1 44 -6 47 -15 3 -10 -1 -12
-17 -8 -15 3 -21 1 -18 -6 3 -7 -10 -28 -27 -47 -17 -19 -22 -27 -11 -18 11 9
46 19 79 23 36 5 66 15 77 26 11 11 19 15 19 9 0 -5 5 -10 10 -10 20 0 9 25
-15 36 -19 9 -27 9 -36 -2 -14 -17 -32 -18 -24 -1 4 6 -1 3 -11 -8 -17 -20
-17 -20 -9 0 4 11 9 26 12 33 3 7 -2 12 -12 12 -10 0 -14 -5 -9 -12 5 -10 4
-10 -7 0 -11 10 -11 17 -2 31 10 16 9 20 -10 25 -12 3 -24 1 -25 -4 -2 -6 -7
-8 -12 -5 -4 2 -15 -4 -25 -15 -21 -24 -13 -27 9 -4 10 10 16 11 16 3 0 -8 5
-8 17 2 14 12 16 12 11 -1 -3 -8 -13 -14 -22 -14 -9 1 -16 -2 -16 -7 0 -5 -11
-9 -23 -9 -13 0 -32 -9 -42 -20 -9 -10 -22 -18 -27 -17 -6 1 -13 -4 -16 -12
-3 -10 0 -11 9 -5 8 4 2 -8 -13 -28 -16 -20 -28 -44 -28 -53 0 -9 -13 -23 -29
-33 -26 -14 -71 -72 -57 -72 3 0 26 21 52 46 35 33 49 42 55 32 5 -7 6 -22 2
-33 -4 -16 1 -13 26 11 38 38 94 50 125 29 11 -8 29 -15 38 -15 15 0 17 -5 12
-25 -5 -20 -2 -25 12 -25 15 0 16 2 5 9 -10 7 -4 17 28 46 22 20 39 41 36 45
-3 5 8 2 25 -7 25 -12 34 -12 46 -2 12 10 18 9 30 -2 25 -26 31 -71 18 -134
-7 -33 -11 -43 -9 -21 2 22 -2 50 -10 66 -12 23 -22 29 -60 32 -49 3 -55 -5
-26 -39 21 -25 71 -42 71 -23 0 6 5 8 11 4 8 -5 7 -9 -1 -14 -18 -11 -6 -62
21 -100 14 -18 23 -47 25 -72 1 -24 7 -55 12 -70 12 -28 -3 -72 -28 -88 -6 -4
-12 -17 -13 -28 -1 -12 -8 -23 -17 -23 -62 -5 -92 0 -110 16 -12 11 -20 13
-20 6 0 -6 7 -14 15 -17 8 -4 13 -10 10 -14 -7 -11 -49 -3 -53 9 -4 11 -40 3
-66 -15 -10 -7 -26 -10 -35 -7 -13 4 -14 3 -1 -5 8 -6 17 -9 21 -6 4 2 10 0
14 -5 3 -6 14 -2 26 10 18 18 21 18 44 3 25 -16 50 -16 125 2 20 4 22 3 10 -5
-24 -17 25 -14 59 4 35 18 43 35 47 105 4 72 -12 153 -38 185 -18 23 -19 31
-9 73 24 107 31 259 13 271 -5 3 -12 15 -15 25 -4 10 -10 16 -14 13 -3 -4 -12
1 -18 10 -11 14 -10 20 4 30 24 18 29 16 34 -14 3 -16 5 -5 5 22 -1 28 5 62
11 76 11 22 10 30 -8 60 -12 19 -30 54 -41 79 -11 25 -29 63 -40 85 -21 42
-27 74 -8 41 9 -17 12 -14 26 25 22 65 10 176 -24 231 -15 24 -30 45 -34 48
-4 3 -10 15 -14 28 -4 12 -26 52 -48 88 -31 52 -37 69 -27 78 9 8 10 8 5 -1
-4 -7 -5 -13 -1 -13 10 0 25 51 18 63 -4 7 -9 3 -14 -9 -7 -17 -8 -17 -8 5 -1
18 3 22 17 16 9 -4 22 -8 29 -8 7 0 10 -4 8 -8 -3 -3 2 -12 10 -19 13 -11 14
-8 9 21 -4 19 -13 45 -21 59 -8 14 -12 17 -9 7 3 -10 2 -16 -3 -13 -5 3 -11
15 -14 27 -5 17 -2 20 14 16 11 -3 33 2 50 11 33 19 41 39 8 21 -16 -8 -24 -8
-33 2 -7 8 -7 10 0 6 6 -4 20 0 30 8 16 13 16 14 2 9 -23 -8 -95 36 -77 46 22
14 1 39 -43 49 -24 6 -56 16 -73 22 -16 7 -40 12 -52 11 -13 0 -23 6 -23 14 0
18 -8 18 -26 -1 -9 -8 -25 -15 -36 -15 -17 0 -19 2 -7 16 7 8 25 22 41 30 30
16 37 34 13 34 -8 0 -15 5 -15 10 0 6 -17 8 -42 5 -95 -12 -164 -23 -178 -29
-8 -3 -31 -1 -50 3 -25 7 -29 9 -12 10 28 1 62 18 62 31 0 14 -9 12 -57 -9z
m213 -46 c-11 -8 -25 -15 -30 -15 -6 0 -2 7 8 15 11 8 25 15 30 15 6 0 2 -7
-8 -15z m24 -17 c-14 -11 -24 -24 -23 -29 2 -5 -3 -6 -10 -3 -7 2 -21 -2 -32
-11 -19 -14 -19 -15 6 -6 15 6 32 5 42 -1 10 -5 30 -7 45 -3 23 5 32 0 50 -24
14 -19 28 -28 37 -25 9 4 19 -3 26 -19 8 -17 17 -23 27 -20 10 4 13 2 8 -5 -5
-8 2 -12 21 -11 l28 0 -35 17 c-34 16 -62 43 -54 51 4 5 51 -26 78 -51 19 -17
36 -24 36 -13 0 2 -17 16 -37 30 -21 14 -33 25 -27 25 10 0 104 -69 104 -76 0
-2 -6 -1 -14 2 -9 3 -17 -3 -21 -16 -5 -17 -12 -20 -31 -16 -15 4 -24 2 -24
-6 0 -9 -3 -9 -12 0 -8 8 -17 8 -30 1 -15 -8 -26 -6 -45 6 -16 11 -21 20 -15
24 7 4 3 12 -11 20 -20 13 -21 13 -8 -2 7 -10 9 -17 3 -17 -5 0 -15 7 -22 15
-7 8 -17 15 -22 15 -5 0 -21 11 -36 25 -27 25 -82 35 -82 14 0 -5 -4 -7 -10
-4 -5 3 -10 2 -10 -3 0 -6 -14 -7 -35 -2 -19 4 -35 4 -37 -1 -5 -13 -88 -23
-88 -10 0 6 6 11 14 11 8 0 14 6 13 13 -1 33 4 47 18 47 9 0 20 11 24 24 10
24 30 36 69 42 14 2 20 -1 16 -8 -5 -7 -2 -9 8 -5 12 4 14 1 11 -14 -5 -18 0
-17 43 10 57 34 80 39 44 9z m127 -54 c-3 -3 -12 -4 -19 -1 -8 3 -5 6 6 6 11
1 17 -2 13 -5z m-1024 -19 c-3 -9 -8 -14 -10 -11 -3 3 -2 9 2 15 9 16 15 13 8
-4z m1011 -16 c-3 -6 -7 -9 -8 -7 -1 2 -8 12 -16 22 -14 18 -14 19 8 7 12 -7
20 -17 16 -22z m136 -1 c10 -6 3 -7 -20 -2 -19 3 -39 10 -45 16 -12 11 42 0
65 -14z m-553 -16 c32 -18 68 -81 54 -95 -8 -8 -11 -7 -11 6 0 20 -65 87 -85
87 -7 0 -17 5 -20 10 -9 14 32 8 62 -8z m510 -135 c-2 13 4 17 18 15 24 -5 30
-10 22 -18 -4 -4 -15 -1 -24 7 -16 12 -17 12 -6 -1 6 -9 8 -21 4 -28 -6 -9
-15 -7 -36 10 -16 12 -26 17 -21 10 4 -6 2 -12 -3 -12 -13 0 -13 3 -5 25 6 14
9 14 29 -5 21 -20 23 -20 22 -3z m3 -50 c0 -4 6 -5 13 -1 9 5 9 4 0 -6 -10
-11 -16 -10 -33 5 -26 23 -26 39 0 23 11 -7 20 -16 20 -21z m70 1 c0 -5 -9 -3
-20 4 -11 7 -20 16 -20 20 0 5 9 3 20 -4 11 -7 20 -16 20 -20z m-725 -16 c-2
-3 -18 1 -34 8 -41 16 -63 2 -25 -17 26 -12 26 -13 4 -8 -14 3 -40 8 -57 12
-18 3 -33 10 -33 14 0 5 12 7 28 3 22 -4 24 -3 12 6 -12 10 -11 11 8 7 12 -3
22 -1 22 3 0 5 18 1 40 -7 22 -9 38 -18 35 -21z m-174 -83 l24 -21 -28 17
c-38 22 -48 10 -15 -18 14 -12 31 -32 37 -44 7 -13 17 -23 23 -23 6 0 5 6 -3
17 -11 13 -11 15 -1 9 15 -9 32 -47 25 -59 -2 -4 -13 -2 -24 4 -18 9 -19 8 -7
-10 7 -11 19 -22 28 -25 12 -3 12 -4 -2 -5 -9 0 -36 23 -61 52 -63 74 -69 88
-50 109 20 23 26 23 54 -3z m-149 -20 c16 -12 27 -23 25 -25 -6 -6 -67 29 -67
39 0 12 10 8 42 -14z m228 -55 c7 -19 10 -38 7 -40 -3 -3 -8 8 -12 25 -4 17
-11 33 -16 36 -5 4 -9 11 -9 16 0 21 19 -2 30 -37z m-174 -75 c57 -45 62 -52
51 -70 -14 -23 -13 -23 -57 1 -19 11 -28 19 -20 20 13 0 13 1 0 10 -12 8 -11
10 5 8 11 -2 21 2 23 7 1 6 -7 11 -18 11 -11 1 -24 5 -28 9 -4 5 2 5 13 1 12
-4 7 5 -15 23 -58 50 -22 35 46 -20z m122 -24 c-3 -3 -9 2 -12 12 -6 14 -5 15
5 6 7 -7 10 -15 7 -18z m-12 -17 c4 -13 7 -28 6 -34 -1 -6 5 -18 15 -25 15
-12 16 -12 10 4 -3 9 -2 17 3 17 5 0 8 -15 7 -33 l-2 -33 -31 33 c-17 18 -39
33 -49 33 -14 0 -15 3 -5 15 13 15 35 11 25 -6 -4 -5 -1 -9 4 -9 14 0 14 27 1
35 -13 8 -13 25 -1 25 5 0 13 -10 17 -22z m30 -15 c-10 -10 -19 5 -10 18 6 11
8 11 12 0 2 -7 1 -15 -2 -18z m-31 -141 c-3 -3 -11 0 -18 7 -9 10 -8 11 6 5
10 -3 15 -9 12 -12z m990 8 c3 -6 -1 -7 -9 -4 -18 7 -21 14 -7 14 6 0 13 -4
16 -10z m-27 -16 c16 -11 22 -25 22 -51 l0 -35 -18 22 c-11 13 -29 23 -45 23
-15 0 -32 6 -39 14 -10 12 -9 18 7 29 24 18 45 18 73 -2z m52 -538 c0 -8 3
-23 6 -33 3 -10 -2 -7 -10 7 -18 30 -20 40 -6 40 6 0 10 -6 10 -14z m-145 -37
c-4 -5 -15 -9 -26 -9 -26 0 -17 15 10 17 12 1 19 -2 16 -8z m25 -68 c0 -3 -11
-14 -24 -23 -19 -14 -30 -15 -60 -7 -46 13 -46 26 2 34 20 4 42 8 47 9 13 4
35 -4 35 -13z m85 -102 c11 -17 0 -20 -21 -4 -17 13 -17 14 -2 15 9 0 20 -5
23 -11z m102 -281 c-3 -8 -6 -5 -6 6 -1 11 2 17 5 13 3 -3 4 -12 1 -19z m3
-89 c0 -15 -56 -69 -72 -69 -7 0 2 10 20 21 17 12 32 25 32 30 0 13 -14 11
-28 -3 -7 -7 -12 -9 -12 -5 0 3 10 15 22 26 21 20 38 20 38 0z"/>
<path d="M2141 3791 c-7 -5 -26 -7 -41 -4 -32 4 -49 -13 -30 -30 10 -9 11 -9
5 2 -6 11 -4 13 7 8 9 -3 19 -3 23 1 3 3 22 5 43 3 32 -3 35 -1 23 13 -7 9
-14 16 -15 16 0 0 -7 -4 -15 -9z"/>
<path d="M1257 3545 c6 -11 26 -33 44 -50 37 -34 20 -6 -25 40 -18 18 -25 22
-19 10z"/>
<path d="M1220 3375 c-7 -8 -11 -15 -9 -16 37 -7 40 -7 30 5 -6 7 -8 16 -4 19
3 4 4 7 1 7 -3 0 -11 -7 -18 -15z"/>
<path d="M2948 3953 c6 -2 18 -2 25 0 6 3 1 5 -13 5 -14 0 -19 -2 -12 -5z"/>
<path d="M1378 3913 c7 -3 16 -2 19 1 4 3 -2 6 -13 5 -11 0 -14 -3 -6 -6z"/>
<path d="M1373 3903 c-24 -3 -44 -10 -47 -19 -4 -11 -2 -12 12 -5 10 5 52 8
95 7 42 -1 77 1 77 5 0 7 -67 20 -85 17 -5 -1 -29 -3 -52 -5z m70 -10 c-7 -2
-19 -2 -25 0 -7 3 -2 5 12 5 14 0 19 -2 13 -5z"/>
<path d="M1435 3865 c-16 -7 -38 -11 -48 -9 -9 1 -15 0 -13 -5 3 -4 -12 -13
-32 -21 -20 -7 -46 -19 -57 -28 -16 -12 -17 -13 -2 -8 10 3 50 15 90 27 40 12
79 28 88 35 9 8 19 11 22 7 4 -3 7 -1 7 5 0 15 -17 14 -55 -3z"/>
<path d="M1204 3846 c-10 -8 -16 -18 -11 -22 4 -4 7 -2 7 5 0 7 4 10 9 7 5 -3
11 1 15 9 7 19 5 19 -20 1z"/>
<path d="M822 3823 c-18 -21 -23 -35 -19 -60 4 -23 0 -39 -16 -60 -12 -15 -15
-23 -7 -18 17 10 15 6 -50 -75 -34 -43 -50 -90 -29 -90 5 0 9 6 9 13 1 16 50
76 50 60 0 -6 -5 -15 -10 -18 -14 -9 27 -50 58 -59 25 -8 28 -25 10 -45 -11
-11 -10 -12 1 -6 11 6 13 4 8 -9 -4 -10 -3 -15 3 -11 6 3 10 2 10 -4 0 -6 14
-26 30 -44 34 -40 37 -47 13 -47 -25 0 -63 39 -56 59 4 9 2 13 -2 8 -5 -4 -16
0 -26 9 -10 9 -23 13 -28 9 -14 -8 -14 -65 -1 -65 6 0 10 -7 10 -15 0 -16 -15
-21 -23 -7 -2 4 -2 1 0 -7 2 -9 -4 -12 -22 -9 -13 3 -26 0 -29 -6 -3 -7 -8 -6
-15 4 -12 16 -7 47 14 95 21 47 36 98 30 103 -3 3 -18 -24 -34 -59 -17 -35
-30 -58 -31 -51 0 7 9 31 21 53 11 23 16 39 11 36 -8 -6 -22 -36 -57 -122 -38
-95 -39 -97 -25 -105 8 -5 10 -18 6 -36 -5 -21 -4 -25 4 -14 6 9 10 10 10 3 0
-20 20 -66 26 -60 3 3 -2 29 -11 58 -12 36 -16 67 -12 102 8 62 22 80 23 28 2
-45 33 -118 44 -101 6 9 9 9 15 0 8 -13 1 -23 -20 -26 -8 -1 -17 7 -20 17 -7
22 -25 16 -25 -9 0 -15 2 -15 11 -2 8 12 9 10 4 -7 -8 -27 16 -66 51 -82 21
-9 24 -14 14 -26 -10 -12 -10 -15 0 -15 9 0 9 -4 2 -13 -6 -7 -7 -18 -2 -26 4
-8 6 -19 4 -26 -3 -6 11 -28 31 -48 32 -32 50 -77 25 -62 -5 3 -10 1 -10 -5 0
-6 -4 -8 -10 -5 -16 10 -12 38 5 31 8 -3 15 -1 15 4 0 12 -20 13 -39 1 -12 -8
-13 -12 -1 -25 7 -9 10 -19 7 -22 -3 -3 -11 4 -17 16 -8 16 -8 25 0 35 8 10 8
14 -1 17 -6 2 -13 19 -14 37 -2 18 -12 41 -24 52 -12 11 -21 26 -21 34 0 8 -4
15 -10 15 -5 0 -10 5 -10 10 0 14 27 12 33 -2 4 -10 7 -10 18 -1 10 10 7 14
-19 19 -18 4 -42 18 -54 33 l-21 26 6 -45 c8 -55 30 -136 40 -147 5 -4 5 1 2
12 -5 17 -4 17 11 -2 9 -13 21 -23 26 -23 5 0 -4 17 -21 38 -16 20 -32 51 -35
67 l-6 30 15 -32 c8 -17 26 -44 40 -59 29 -31 31 -42 11 -50 -8 -3 -13 -11
-10 -18 3 -7 -2 -13 -11 -13 -12 0 -15 6 -11 21 5 21 5 21 -9 2 -14 -19 -15
-19 -15 -1 0 10 -2 16 -5 13 -4 -3 -3 -18 1 -33 5 -20 9 -24 16 -13 7 9 8 3 4
-17 -5 -23 -4 -27 5 -15 8 12 9 9 5 -15 -3 -16 -3 -24 1 -17 3 9 11 4 24 -17
22 -36 24 -45 8 -35 -8 4 -8 0 0 -15 14 -25 23 -28 15 -3 -5 14 -4 14 4 2 6
-8 8 -18 5 -23 -3 -5 -1 -12 4 -16 10 -6 88 -116 108 -151 8 -13 15 -16 28 -8
13 7 19 5 23 -6 5 -12 10 -13 27 -5 17 10 19 9 13 -7 -4 -10 -4 -15 0 -11 4 4
13 2 21 -4 9 -9 13 -8 13 0 0 6 -4 11 -9 11 -5 0 -11 6 -14 13 -3 6 -13 29
-22 50 -9 22 -12 36 -6 33 5 -3 12 0 15 6 3 7 3 3 0 -9 -4 -16 -1 -23 9 -23 8
0 22 -18 32 -40 10 -23 23 -43 28 -47 5 -3 2 9 -7 25 -23 44 -20 47 15 18 17
-14 37 -26 45 -26 15 0 19 -29 7 -46 -5 -5 3 2 16 16 13 14 20 19 16 11 -4 -7
-2 -17 6 -22 11 -7 10 -9 -3 -9 -11 0 -15 -5 -12 -14 3 -8 7 -51 8 -95 1 -44
5 -83 9 -87 4 -4 7 -12 7 -17 0 -5 -8 1 -18 13 -14 18 -19 19 -19 7 0 -9 4
-14 8 -11 13 8 31 -57 18 -66 -4 -3 -1 -14 7 -24 13 -18 14 -14 16 40 l1 59 7
-45 c4 -28 2 -53 -5 -65 -7 -11 -11 -28 -9 -37 1 -10 -2 -18 -7 -18 -5 0 -9
11 -9 24 0 13 -9 43 -19 67 -10 24 -22 59 -26 78 -6 29 -5 33 9 28 11 -4 15
-3 10 4 -3 6 -15 9 -25 6 -15 -4 -21 5 -35 54 -9 32 -20 56 -24 54 -4 -3 -15
7 -25 21 -32 50 -48 64 -61 53 -8 -7 -13 -3 -17 11 -5 20 -27 28 -27 10 0 -13
37 -45 52 -45 6 0 13 -6 16 -13 2 -6 -2 -10 -10 -9 -7 2 -9 2 -5 -1 5 -2 22
-32 38 -66 16 -33 29 -54 29 -46 0 9 -9 33 -20 55 -12 24 -16 43 -11 48 6 6
12 0 17 -16 3 -15 10 -24 15 -21 5 3 6 -3 2 -13 -3 -10 -3 -15 2 -11 9 9 49
-84 59 -138 4 -19 16 -50 27 -67 10 -18 19 -45 19 -61 0 -19 4 -27 13 -23 7 3
13 -3 13 -13 0 -10 -4 -16 -8 -14 -4 3 -8 -2 -8 -11 0 -10 5 -13 12 -9 8 5 9
0 6 -14 -4 -12 -2 -22 4 -22 5 0 7 -14 3 -32 -6 -31 -5 -32 10 -14 8 11 13 28
10 38 -15 53 -16 63 -7 49 13 -18 32 -5 31 22 -1 20 -2 20 -8 -3 -4 -15 -8 16
-8 75 l-1 100 19 -37 c22 -42 28 -47 26 -19 0 11 -5 17 -9 15 -5 -3 -11 8 -14
25 -4 17 -13 31 -20 31 -8 0 -14 7 -14 15 0 8 -6 12 -14 9 -10 -4 -14 9 -15
60 -1 36 1 66 3 66 8 0 46 -72 46 -88 0 -16 29 -104 30 -91 1 14 110 -103 110
-119 0 -14 2 -14 9 -3 7 11 10 10 14 -5 4 -16 5 -16 6 3 0 12 -3 25 -9 28 -14
9 -12 42 3 51 6 4 9 4 5 -1 -4 -4 -3 -14 4 -22 6 -8 11 -34 11 -58 -1 -41 1
-44 18 -34 14 7 19 6 19 -3 0 -10 3 -10 9 1 6 10 9 3 9 -21 0 -20 7 -48 16
-64 17 -29 17 -29 10 24 -6 50 -34 126 -34 93 0 -11 -4 -10 -16 5 -14 17 -15
17 -10 1 4 -11 2 -16 -5 -12 -5 4 -7 16 -4 26 4 11 1 26 -5 34 -6 8 -9 19 -6
24 4 5 2 12 -4 16 -6 3 -8 18 -6 32 5 27 19 48 16 23 -4 -26 0 -40 10 -40 5 0
7 7 5 15 -16 49 -15 48 -31 34 -13 -11 -14 -9 -10 14 3 16 -1 30 -8 34 -19 12
-38 52 -30 65 4 6 3 8 -4 5 -9 -7 -9 50 2 157 2 16 -1 46 -5 65 -5 21 -4 40 1
45 7 7 10 2 10 -12 0 -12 5 -22 10 -22 6 0 10 -5 10 -11 0 -5 -4 -7 -10 -4 -5
3 -10 2 -10 -4 0 -5 5 -13 11 -16 6 -5 9 -50 8 -126 -1 -66 1 -122 6 -127 4
-4 5 3 2 15 -3 13 -1 26 4 29 5 3 9 -5 9 -17 0 -12 2 -20 6 -17 12 13 4 188
-10 222 -8 20 -11 36 -7 36 13 0 51 -149 51 -198 0 -21 -2 -24 -10 -12 -6 9
-10 10 -10 3 0 -6 4 -14 9 -17 5 -3 11 -17 13 -31 5 -22 3 -23 -10 -13 -14 12
-14 10 -2 -12 8 -14 15 -32 16 -40 2 -8 8 -16 13 -18 6 -2 11 -8 11 -13 0 -4
-6 -6 -14 -3 -11 4 -9 -9 7 -60 12 -35 25 -62 29 -60 4 3 8 -6 8 -20 0 -22 16
-44 25 -34 6 6 -17 66 -42 116 -23 42 -19 60 4 23 13 -21 53 -25 53 -5 0 7 -7
20 -16 28 -8 9 -13 16 -10 16 2 0 0 15 -5 33 -5 17 -11 68 -14 113 -3 66 -2
81 11 81 14 0 13 -10 -4 -56 -3 -8 -1 -12 4 -8 5 3 8 -12 7 -36 l-2 -42 9 35
c5 19 7 44 4 55 -3 12 4 43 16 70 15 38 16 45 4 30 -16 -19 -16 -19 -10 10 5
25 4 27 -5 12 -6 -10 -8 -30 -5 -45 5 -27 5 -27 -6 -4 -9 18 -9 31 0 54 12 33
7 58 -13 58 -16 0 -28 -31 -20 -53 4 -8 1 -18 -6 -23 -9 -5 -10 -2 -6 10 4 11
3 15 -4 10 -8 -4 -9 1 -4 17 5 20 4 21 -5 9 -10 -12 -11 -11 -7 8 6 28 -9 29
-18 1 -4 -13 -2 -25 5 -29 7 -4 9 -13 5 -20 -5 -8 -4 -11 2 -7 14 9 22 -36 18
-98 -4 -44 -3 -45 4 -15 9 37 8 41 16 -110 1 -36 16 -80 26 -80 5 0 9 -7 9
-16 0 -13 -3 -14 -14 -5 -19 16 -47 99 -35 103 4 2 1 23 -7 48 -10 29 -14 61
-10 90 4 32 3 41 -4 30 -8 -11 -9 -7 -4 15 4 21 3 26 -4 16 -7 -10 -11 -5 -14
20 -3 19 -9 43 -13 53 -6 14 -5 17 3 12 7 -4 12 -2 12 4 0 18 -21 103 -31 125
-4 11 -10 38 -13 60 -2 22 -9 53 -15 68 -15 38 -14 50 3 35 7 -7 11 -20 8 -28
-4 -11 -2 -12 7 -4 10 9 9 24 -5 69 -10 37 -14 75 -11 105 5 45 5 46 -37 73
-24 15 -47 27 -52 27 -5 0 -20 11 -34 24 -14 13 -70 66 -125 118 -55 52 -108
98 -117 101 -32 11 -28 -11 6 -39 18 -16 49 -42 69 -59 19 -16 33 -33 31 -37
-3 -5 -1 -8 5 -8 5 0 21 -10 35 -22 60 -54 111 -94 145 -113 40 -23 53 -62 39
-125 -4 -19 -3 -37 2 -40 5 -3 9 -28 8 -55 -1 -28 -3 -42 -6 -32 -4 19 -27 23
-38 5 -4 -7 -3 -8 4 -4 8 5 12 0 12 -12 0 -11 7 -22 15 -26 8 -3 15 -15 15
-26 0 -28 -20 -26 -21 3 -1 18 -2 17 -10 -8 -5 -19 -5 -52 2 -90 15 -80 14
-106 -2 -116 -10 -6 -11 -9 -1 -9 7 0 12 -15 12 -41 0 -22 -4 -38 -9 -35 -5 3
-7 15 -4 26 3 12 0 20 -6 20 -7 0 -9 -4 -6 -10 3 -5 1 -10 -4 -10 -14 0 -14
17 -1 25 11 7 2 35 -11 35 -4 0 -6 -6 -3 -13 3 -8 -2 -20 -11 -27 -16 -14 -21
-35 -5 -25 6 3 10 1 10 -5 0 -24 -79 8 -130 54 -19 17 -26 21 -16 9 11 -13 14
-23 9 -23 -6 0 -16 7 -23 15 -7 8 -17 12 -24 8 -6 -3 -8 -2 -3 2 4 5 1 15 -7
24 -8 9 -15 20 -15 26 0 5 -5 11 -11 13 -8 3 -10 -3 -5 -18 5 -15 4 -20 -4
-16 -6 4 -11 13 -11 21 0 8 -16 29 -35 48 -40 39 -115 176 -115 211 0 12 -16
45 -35 72 -41 58 -45 79 -12 69 12 -3 27 -6 32 -6 6 0 44 3 85 6 71 6 78 4
137 -27 164 -88 161 -85 168 -142 4 -29 2 -63 -4 -79 -13 -35 -14 -37 -1 -37
6 0 10 10 10 22 0 16 3 19 11 11 8 -8 8 -17 0 -31 -14 -27 -14 -94 1 -127 17
-39 28 -30 27 23 -1 43 -2 44 -9 17 -5 -18 -6 9 -3 65 3 60 1 106 -7 125 -8
20 -8 31 -1 33 7 2 6 11 -4 24 -10 15 -11 26 -4 40 7 14 6 18 -6 18 -8 0 -15
7 -15 16 0 10 -6 14 -14 11 -8 -3 -22 1 -33 8 -10 8 -13 15 -8 15 6 0 17 -6
25 -12 12 -11 12 -10 1 5 -22 28 5 20 28 -9 11 -14 25 -23 31 -19 5 3 10 0 10
-7 0 -7 6 -4 13 7 14 24 16 97 2 107 -16 12 -30 9 -17 -4 18 -18 15 -49 -3
-42 -8 4 -15 1 -15 -6 0 -6 -4 -8 -10 -5 -5 3 -10 1 -10 -6 0 -8 -4 -9 -13 0
-8 6 -24 8 -37 6 -13 -2 -29 0 -36 6 -7 6 -22 8 -33 4 -19 -6 -46 5 -86 35
-18 14 -19 14 -7 -2 12 -15 9 -16 -35 -11 -26 2 -52 10 -56 16 -6 8 -7 6 -4
-4 4 -13 0 -16 -19 -15 -15 0 -22 6 -19 14 8 22 -5 13 -16 -10 -9 -22 -9 -21
-6 5 3 15 0 27 -6 27 -5 0 -7 9 -4 20 3 11 -2 25 -11 32 -10 8 -13 9 -9 1 4
-6 1 -14 -5 -16 -10 -4 -9 -8 2 -16 8 -5 11 -13 7 -17 -9 -10 -20 2 -22 24 0
10 -8 29 -18 42 -9 13 -13 28 -10 33 3 6 1 7 -5 3 -6 -3 -13 -2 -16 3 -13 21
23 3 66 -32 46 -37 58 -44 58 -29 0 9 -86 73 -112 84 -11 5 -18 3 -18 -4 0 -6
-2 -9 -5 -6 -3 3 -2 15 3 27 7 20 9 21 21 7 8 -10 22 -14 36 -10 27 7 87 -22
163 -78 47 -35 51 -36 37 -14 -10 14 -22 26 -28 26 -8 0 -7 4 1 12 13 13 42
-6 42 -29 0 -11 4 -11 20 -3 14 8 20 8 20 0 0 -6 10 -10 23 -8 14 2 21 9 19
19 -3 21 -56 78 -99 108 l-32 22 -30 -22 c-17 -12 -34 -18 -42 -14 -8 5 -10 4
-5 -3 16 -25 -12 -10 -46 26 -48 50 -70 92 -48 92 6 0 10 -5 10 -12 0 -6 12
-26 26 -45 31 -40 73 -61 86 -41 4 7 8 9 8 5 0 -5 7 -1 16 8 15 15 15 18 -6
40 -13 14 -21 27 -18 30 3 4 20 -11 37 -32 17 -21 31 -33 31 -27 0 6 -14 23
-30 39 -17 16 -29 34 -26 40 2 6 -9 11 -25 11 -28 2 -28 1 -11 -25 l16 -26
-22 19 c-21 19 -30 45 -14 47 4 0 16 2 26 4 11 2 24 1 30 -2 18 -11 66 -13 66
-3 0 6 -3 10 -7 11 -33 3 -50 11 -65 30 -18 22 -21 19 -19 -16 1 -18 1 -19 -9
-3 -8 13 -8 24 0 38 8 16 8 18 -4 14 -22 -8 -67 63 -60 95 5 25 5 25 -11 6 -8
-11 -13 -26 -9 -35 3 -8 7 -22 9 -30 1 -8 8 -14 14 -12 6 1 11 -5 11 -13 0
-28 -37 -16 -50 16 -11 26 -10 36 3 65 9 19 21 34 26 34 5 0 7 8 4 19 -3 10 1
22 8 26 8 6 10 4 5 -6 -4 -8 2 -3 13 11 17 20 21 37 19 83 -1 31 -4 57 -7 57
-3 0 -17 -12 -29 -27z m28 -50 c0 -14 -2 -15 -9 -5 -6 11 -10 10 -15 -4 -3 -9
-9 -14 -13 -11 -7 8 15 37 28 37 5 0 9 -8 9 -17z m13 -270 c7 -39 1 -40 -11
-4 -6 17 -7 31 -3 31 5 0 11 -12 14 -27z m-13 -33 c0 -5 -2 -10 -4 -10 -3 0
-8 5 -11 10 -3 6 -1 10 4 10 6 0 11 -4 11 -10z m55 -80 c3 -5 1 -10 -4 -10 -6
0 -11 5 -11 10 0 6 2 10 4 10 3 0 8 -4 11 -10z m-55 -88 c13 -13 13 -14 -5 -6
-11 4 -34 8 -51 8 -25 0 -29 2 -20 12 13 15 55 8 76 -14z m138 3 c20 -14 37
-29 37 -33 0 -5 14 -21 30 -35 17 -15 25 -27 19 -27 -6 0 -17 7 -24 16 -8 8
-23 20 -34 26 -19 10 -20 10 -7 -5 7 -10 9 -17 3 -17 -5 0 -15 7 -22 15 -7 8
-9 15 -5 15 4 0 2 6 -4 14 -9 11 -9 15 1 20 7 3 2 3 -12 0 -17 -4 -21 -2 -12
4 11 7 11 10 -3 15 -11 5 -14 3 -9 -5 5 -8 2 -9 -10 -5 -11 5 -15 3 -10 -5 5
-8 2 -9 -10 -5 -9 4 -14 3 -11 -2 3 -5 1 -12 -5 -16 -5 -3 -10 -1 -10 5 0 6
-4 8 -10 5 -5 -3 -10 -4 -10 -1 0 5 68 44 78 46 2 0 20 -11 40 -25z m-278 -26
c0 -6 -4 -7 -10 -4 -5 3 -10 11 -10 16 0 6 5 7 10 4 6 -3 10 -11 10 -16z m251
0 c20 -10 20 -11 2 -24 -15 -11 -21 -11 -36 3 -13 12 -15 17 -5 24 16 10 16
10 39 -3z m-186 -87 c-8 -9 -56 29 -49 39 4 6 15 2 30 -12 13 -12 22 -25 19
-27z m-56 22 c6 -5 3 -15 -7 -24 -14 -13 -15 -12 -9 3 4 11 1 17 -8 17 -8 0
-15 4 -15 9 0 11 27 8 39 -5z m50 -48 c0 -5 5 -12 12 -17 11 -6 10 -9 -4 -15
-9 -3 -14 -11 -10 -17 3 -6 1 -7 -6 -3 -6 4 -9 11 -7 15 3 4 -4 17 -14 29 -26
28 -25 32 5 24 13 -4 24 -11 24 -16z m42 -34 c-11 -4 -11 -6 0 -13 7 -4 10
-11 6 -15 -4 -4 -12 -3 -19 4 -8 8 -8 15 2 27 7 8 16 13 19 9 3 -4 0 -9 -8
-12z m234 -52 c13 -6 15 -9 5 -9 -8 0 -22 4 -30 9 -18 12 -2 12 25 0z m131
-61 c12 -21 -7 -22 -29 -2 -12 11 -32 26 -44 32 -13 6 -23 16 -23 21 0 10 87
-36 96 -51z m74 46 c0 -8 -4 -15 -10 -15 -5 0 -10 7 -10 15 0 8 5 15 10 15 6
0 10 -7 10 -15z m-40 -65 c0 -5 -4 -10 -10 -10 -5 0 -10 5 -10 10 0 6 5 10 10
10 6 0 10 -4 10 -10z m-476 -41 c-3 -5 9 -34 26 -65 34 -58 35 -89 2 -35 -10
17 -21 28 -25 25 -3 -3 3 -15 14 -27 10 -11 19 -30 19 -41 0 -17 2 -18 10 -6
8 13 10 13 10 -1 0 -29 -14 -30 -30 -1 -8 16 -27 52 -42 80 -29 53 -35 78 -18
67 6 -3 13 1 16 9 3 9 10 13 15 10 5 -3 7 -10 3 -15z m68 -58 c2 6 12 -7 22
-30 11 -22 23 -41 27 -41 5 0 6 -7 2 -15 -3 -10 0 -15 8 -13 9 2 13 -5 12 -20
-2 -13 1 -21 7 -17 6 4 7 -1 3 -12 -3 -10 -3 -15 2 -11 9 9 45 -9 45 -22 0 -6
-3 -9 -7 -9 -20 3 -22 -3 -10 -28 8 -16 12 -34 9 -42 -3 -8 0 -11 7 -7 6 4 11
2 11 -3 0 -17 -27 -13 -34 4 -3 8 -3 21 0 29 3 8 1 17 -5 21 -7 4 -8 0 -4 -11
4 -12 3 -15 -5 -10 -8 5 -10 1 -5 -10 9 -25 -19 -12 -33 14 -6 12 -18 30 -28
41 -23 26 -35 72 -24 100 6 18 3 33 -12 58 -24 40 -25 50 -6 34 11 -9 15 -9
18 0z m498 -141 c-10 -23 -10 -22 -5 9 4 27 2 32 -11 27 -10 -4 -14 -2 -11 6
2 7 10 12 16 11 6 -2 12 11 13 30 1 23 3 19 5 -13 2 -25 -1 -57 -7 -70z m28
-5 c-1 -19 -6 -35 -11 -35 -5 0 -7 10 -3 23 3 12 6 28 6 35 0 6 2 12 5 12 3 0
5 -16 3 -35z m18 -73 c-4 -3 -11 -1 -17 5 -8 8 -8 15 2 26 12 13 14 13 17 -5
2 -11 1 -22 -2 -26z m108 -46 c-6 -16 -8 -17 -16 -2 -11 19 0 42 13 29 6 -6 7
-18 3 -27z m-8 -83 c-1 -1 -11 3 -21 11 -17 12 -18 16 -5 31 13 16 15 15 22
-11 4 -15 6 -29 4 -31z m-301 17 c3 -5 2 -10 -4 -10 -5 0 -13 5 -16 10 -3 6
-2 10 4 10 5 0 13 -4 16 -10z m115 -43 c0 -4 -4 -6 -8 -3 -12 7 -2 -67 11 -83
14 -16 67 -141 67 -156 0 -5 -12 13 -25 40 -14 28 -23 42 -20 31 17 -60 27
-107 23 -111 -3 -3 -27 16 -55 43 -42 38 -54 58 -66 104 -8 32 -21 64 -28 72
-38 42 -55 76 -39 76 6 0 10 -7 10 -15 0 -8 3 -15 8 -15 4 0 12 -10 17 -22 6
-15 18 -23 33 -22 12 0 22 -3 22 -8 0 -4 4 -8 9 -8 17 0 -22 86 -40 87 -12 1
-15 -4 -12 -20 5 -22 5 -22 -10 -2 -24 30 -21 34 28 31 35 -2 45 1 45 13 1 13
3 12 15 -3 8 -11 15 -24 15 -29z m77 -49 c-2 -13 -4 -5 -4 17 -1 22 1 32 4 23
2 -10 2 -28 0 -40z m-146 5 c-12 -20 -14 -14 -5 12 4 9 9 14 11 11 3 -2 0 -13
-6 -23z"/>
<path d="M997 3279 c7 -7 15 -10 18 -7 3 3 -2 9 -12 12 -14 6 -15 5 -6 -5z"/>
<path d="M930 3276 c0 -2 7 -7 16 -10 8 -3 12 -2 9 4 -6 10 -25 14 -25 6z"/>
<path d="M717 2917 c3 -15 9 -27 14 -27 13 0 11 13 -5 35 -13 18 -14 18 -9 -8z"/>
<path d="M818 2829 c-5 -15 51 -129 64 -129 5 0 1 14 -7 30 -9 17 -14 41 -11
53 3 12 3 16 0 8 -5 -10 -12 -5 -24 19 -11 22 -19 28 -22 19z"/>
<path d="M1191 2434 c0 -11 3 -14 6 -6 3 7 2 16 -1 19 -3 4 -6 -2 -5 -13z"/>
<path d="M1230 2355 c-11 -13 -10 -14 4 -9 9 3 16 10 16 15 0 13 -6 11 -20 -6z"/>
<path d="M1082 3833 c-6 -2 -10 -9 -6 -14 3 -5 -4 -9 -16 -9 -11 0 -37 -11
-58 -24 -20 -13 -52 -27 -70 -31 -31 -6 -98 -62 -87 -73 3 -3 18 7 34 22 21
20 31 24 36 15 5 -8 4 -10 -3 -5 -7 4 -12 1 -12 -9 0 -9 5 -13 11 -9 6 3 15 1
19 -5 5 -9 15 -5 36 14 l29 26 -28 -17 c-15 -9 -30 -14 -34 -11 -3 4 2 9 11
13 9 3 13 11 9 18 -3 6 -3 8 1 5 4 -4 19 4 33 17 14 13 30 24 35 24 20 0 77
32 82 46 6 14 0 16 -22 7z"/>
<path d="M1395 3815 c-68 -18 -109 -35 -103 -41 3 -2 17 0 32 6 15 5 37 10 49
10 12 1 40 9 62 20 46 22 31 24 -40 5z"/>
<path d="M1140 3764 l-35 -14 38 5 c21 3 37 2 37 -4 0 -5 14 -3 30 5 17 9 30
17 30 20 0 9 -67 1 -100 -12z"/>
<path d="M1521 3761 c-10 -7 -7 -9 12 -8 14 1 23 5 20 10 -6 9 -15 9 -32 -2z"/>
<path d="M1788 3748 c5 -5 16 -8 23 -6 8 3 3 7 -10 11 -17 4 -21 3 -13 -5z"/>
<path d="M1950 3746 c0 -2 7 -7 16 -10 8 -3 12 -2 9 4 -6 10 -25 14 -25 6z"/>
<path d="M1754 3716 c-5 -13 -14 -16 -38 -13 -17 3 -40 2 -51 -3 -15 -6 -7 -9
30 -9 64 0 87 9 75 29 -8 12 -10 12 -16 -4z"/>
<path d="M1615 3680 c-3 -6 1 -7 9 -4 18 7 21 14 7 14 -6 0 -13 -4 -16 -10z"/>
<path d="M729 3652 c-84 -98 -129 -198 -97 -218 8 -5 9 -2 4 11 -9 25 2 55 19
49 7 -3 17 0 21 8 11 17 13 48 2 42 -18 -11 -6 11 38 68 47 62 56 90 13 40z
m-55 -144 c-9 -14 -23 2 -17 18 4 12 8 13 14 3 4 -7 5 -17 3 -21z"/>
<path d="M1080 3655 c-24 -13 -24 -14 -3 -12 12 1 25 7 27 14 6 16 7 16 -24
-2z"/>
<path d="M1026 3645 c-11 -8 -15 -15 -9 -15 6 0 16 7 23 15 16 19 11 19 -14 0z"/>
<path d="M1581 3610 c11 -23 17 -46 13 -53 -4 -7 -3 -8 2 -4 5 5 16 -13 25
-40 10 -26 18 -40 18 -31 1 9 -4 30 -10 45 -30 76 -53 123 -60 123 -4 0 2 -18
12 -40z"/>
<path d="M980 3620 c-8 -5 -12 -11 -9 -14 2 -3 11 -1 19 4 8 5 12 11 9 14 -2
3 -11 1 -19 -4z"/>
<path d="M1597 3488 c8 -24 22 -65 29 -93 l14 -50 -6 48 c-5 42 -39 137 -49
137 -2 0 3 -19 12 -42z"/>
<path d="M1060 3406 c7 -7 13 -7 20 0 6 6 3 10 -10 10 -13 0 -16 -4 -10 -10z"/>
<path d="M2085 3360 c0 -39 3 -56 10 -49 12 12 11 87 -1 99 -5 5 -9 -16 -9
-50z"/>
<path d="M1763 3381 c-56 -22 -105 -59 -97 -73 4 -6 3 -8 -3 -5 -6 4 -16 0
-23 -8 -7 -8 -21 -15 -31 -15 -10 0 -21 -4 -24 -10 -4 -6 1 -7 11 -3 11 4 15
2 11 -4 -4 -6 -20 -13 -37 -16 -16 -4 -30 -11 -30 -17 0 -8 6 -8 20 0 15 8 20
8 20 -2 0 -9 3 -9 8 -2 14 20 57 44 79 44 14 0 23 6 23 15 0 9 10 15 26 15 14
0 23 4 19 10 -6 10 20 15 63 11 12 -1 22 3 22 8 0 7 8 7 24 2 13 -5 50 -14 82
-20 32 -6 62 -18 66 -26 7 -12 14 -11 43 6 19 12 35 25 35 31 0 5 -4 7 -9 4
-5 -4 -7 3 -4 14 8 30 -14 24 -25 -7 l-10 -28 -1 31 c-1 37 -25 64 -35 39 -5
-14 -8 -14 -29 0 -28 18 -123 33 -114 18 3 -5 0 -10 -8 -10 -8 0 -12 4 -9 9 8
12 -15 8 -63 -11z m171 -14 c4 4 4 0 1 -9 -8 -20 -35 -12 -35 9 0 12 3 13 13
4 8 -6 17 -8 21 -4z m-56 -4 c-10 -2 -26 -2 -35 0 -10 3 -2 5 17 5 19 0 27 -2
18 -5z m132 -9 c0 -8 -4 -12 -10 -9 -5 3 -10 10 -10 16 0 5 5 9 10 9 6 0 10
-7 10 -16z m-290 -24 c-37 -28 -50 -24 -15 4 17 13 32 22 35 19 3 -2 -6 -13
-20 -23z m256 5 c-5 15 -4 17 5 8 6 -6 8 -16 5 -21 -9 -15 -46 -2 -46 16 0 12
4 12 22 -4 21 -19 21 -19 14 1z"/>
<path d="M980 3357 c0 -9 9 -21 20 -27 11 -6 20 -9 20 -7 0 2 -9 14 -20 27
-16 18 -20 19 -20 7z"/>
<path d="M1612 3350 c0 -14 2 -19 5 -12 2 6 2 18 0 25 -3 6 -5 1 -5 -13z"/>
<path d="M2150 3346 c0 -2 7 -7 16 -10 8 -3 12 -2 9 4 -6 10 -25 14 -25 6z"/>
<path d="M553 3329 c-11 -11 -5 -59 8 -59 9 0 29 33 29 48 0 15 -26 22 -37 11z"/>
<path d="M651 3324 c0 -11 3 -14 6 -6 3 7 2 16 -1 19 -3 4 -6 -2 -5 -13z"/>
<path d="M650 3284 c0 -8 5 -12 10 -9 6 3 10 10 10 16 0 5 -4 9 -10 9 -5 0
-10 -7 -10 -16z"/>
<path d="M795 3280 c3 -5 14 -10 23 -10 15 0 15 2 2 10 -20 13 -33 13 -25 0z"/>
<path d="M1833 3272 c-64 -26 -63 -34 2 -11 66 23 93 20 126 -16 31 -32 44
-32 24 -1 -16 24 -63 47 -94 45 -9 0 -35 -8 -58 -17z"/>
<path d="M825 3260 c-18 -7 -17 -9 10 -21 17 -8 33 -18 37 -24 5 -6 8 -6 8 2
0 7 7 10 15 7 8 -4 12 -11 8 -17 -3 -6 -1 -7 5 -3 7 4 12 3 12 -2 0 -10 50
-35 57 -29 4 5 -80 68 -112 84 -11 6 -29 7 -40 3z"/>
<path d="M546 3251 c-3 -5 3 -11 15 -14 16 -4 18 -3 8 9 -13 16 -16 17 -23 5z"/>
<path d="M1827 3240 c-14 -11 -29 -20 -33 -20 -4 0 -15 -7 -25 -16 -9 -8 -39
-19 -66 -24 -28 -4 -37 -8 -21 -9 15 0 30 -6 34 -12 3 -6 15 -9 25 -6 11 3 19
1 19 -3 0 -4 15 -8 33 -8 17 0 37 -1 42 -2 6 -1 31 -2 57 -1 33 1 46 5 44 14
-3 6 -7 28 -10 47 -5 35 -5 35 9 10 8 -14 14 -33 15 -42 0 -10 4 -18 9 -18 5
0 18 -3 28 -7 15 -5 14 -2 -5 19 -20 22 -21 26 -7 32 9 3 21 4 26 0 5 -3 9 0
9 7 0 6 -8 9 -20 6 -15 -4 -25 3 -37 24 -15 25 -24 29 -59 29 -26 0 -51 -7
-67 -20z m63 -21 c0 7 5 9 10 6 15 -9 2 -25 -21 -25 -23 0 -17 -15 13 -31 11
-6 18 -7 15 -2 -3 5 -1 15 4 23 8 12 9 9 7 -10 -4 -35 -40 -39 -57 -6 -18 32
-7 64 14 46 11 -9 15 -9 15 -1z m-56 -13 c-3 -8 0 -24 6 -37 12 -21 11 -21
-26 -15 -55 11 -60 20 -22 44 40 25 49 26 42 8z"/>
<path d="M1723 3218 c-13 -6 -23 -15 -23 -20 0 -5 10 -3 23 4 12 7 26 11 30
10 5 -1 6 2 2 8 -3 5 -7 10 -8 9 -1 0 -12 -5 -24 -11z"/>
<path d="M1614 3201 c11 -11 23 -21 28 -21 14 0 -1 19 -25 31 -22 12 -22 12
-3 -10z"/>
<path d="M2135 3210 c3 -5 1 -11 -4 -14 -18 -12 2 -52 47 -93 25 -24 43 -46
39 -50 -4 -3 0 -17 9 -30 10 -16 13 -34 9 -54 -6 -28 7 -41 20 -19 4 6 10 8
14 6 4 -3 1 17 -8 45 -20 60 -100 166 -113 147 -5 -9 -8 -4 -8 14 0 15 7 31
16 36 14 8 13 10 -5 15 -12 3 -19 1 -16 -3z"/>
<path d="M2032 3159 c-7 -29 -7 -39 1 -36 10 3 24 77 14 77 -3 0 -9 -18 -15
-41z"/>
<path d="M1335 3141 c4 -7 2 -16 -5 -21 -8 -5 4 -20 36 -46 26 -21 66 -58 90
-81 63 -63 66 -52 3 15 -30 31 -72 77 -93 102 -21 25 -35 39 -31 31z m36 -48
l24 -26 -27 19 c-15 10 -28 22 -28 27 0 12 5 8 31 -20z"/>
<path d="M1658 3129 c-10 -5 -18 -18 -19 -27 0 -14 -2 -14 -10 3 -9 20 -9 20
-7 0 2 -11 -1 -27 -6 -35 -4 -8 3 -4 16 10 13 14 34 33 48 43 26 18 8 24 -22
6z"/>
<path d="M1718 3128 c6 -7 31 -24 56 -37 37 -21 49 -23 68 -14 22 11 22 12 -9
12 -46 1 -68 11 -51 23 9 7 7 8 -8 3 -13 -3 -26 1 -34 10 -7 8 -17 15 -22 15
-7 0 -7 -5 0 -12z"/>
<path d="M1900 3110 c-33 -7 -32 -7 15 -8 28 0 61 4 75 8 21 7 19 8 -15 8 -22
0 -56 -4 -75 -8z"/>
<path d="M1990 3070 c-20 -29 -21 -32 -6 -55 26 -40 19 -59 -46 -122 -79 -75
-94 -93 -79 -93 6 0 19 9 28 20 10 11 23 20 30 20 7 0 13 6 13 13 0 6 21 30
45 51 36 32 45 46 45 72 0 18 -4 36 -10 39 -5 3 -10 15 -10 26 0 10 5 19 10
19 6 0 10 6 10 14 0 8 6 17 13 19 7 3 6 6 -5 6 -9 1 -26 -13 -38 -29z"/>
<path d="M2928 3053 c6 -2 18 -2 25 0 6 3 1 5 -13 5 -14 0 -19 -2 -12 -5z"/>
<path d="M810 3030 c14 -11 29 -20 33 -20 5 0 6 -4 3 -9 -3 -5 2 -15 12 -22
15 -13 16 -12 3 4 -8 10 -9 17 -3 17 17 0 24 -18 26 -75 2 -39 10 -65 29 -93
27 -41 87 -91 87 -73 0 13 -41 56 -54 56 -5 0 -17 11 -28 25 -19 27 -33 160
-16 160 5 0 6 -4 3 -10 -8 -12 -3 -13 29 0 29 11 34 -1 10 -21 -18 -14 -15
-42 10 -104 17 -40 16 -23 -2 48 -9 33 -7 41 12 61 21 24 21 24 46 4 23 -19
23 -20 7 -48 -21 -35 -21 -46 -1 -54 8 -3 12 -2 9 3 -7 13 16 61 29 61 16 0
63 -63 59 -77 -8 -22 -21 -14 -17 10 4 21 4 21 -6 -2 -8 -18 -7 -28 5 -41 8
-9 15 -21 15 -26 0 -5 -4 -2 -10 6 -5 8 -13 11 -17 6 -4 -4 5 -19 20 -32 26
-22 27 -24 7 -24 -12 0 -37 12 -56 27 -29 22 -34 31 -29 52 4 20 3 22 -5 11
-8 -13 -10 -12 -10 3 0 10 -4 15 -10 12 -29 -18 68 -125 113 -125 14 0 16 -6
11 -27 -10 -41 9 -18 22 26 10 34 9 39 -9 50 -14 9 -17 19 -13 39 17 69 17 95
0 114 -10 10 -25 16 -33 13 -8 -3 -12 -3 -9 1 10 9 -30 38 -71 52 -19 7 -58
12 -88 12 -29 0 -70 7 -90 15 -47 20 -53 19 -23 -5z"/>
<path d="M981 2966 c-16 -19 -17 -74 -3 -88 9 -9 12 -2 13 28 0 21 2 47 4 57
4 21 1 21 -14 3z"/>
<path d="M2185 2927 c-89 -30 -112 -47 -120 -86 -4 -23 45 -71 73 -71 11 0 4
8 -16 20 -28 17 -33 25 -30 53 2 21 8 31 17 29 7 -1 23 3 35 11 11 8 33 17 49
21 15 3 27 13 27 21 0 8 -1 15 -2 14 -2 -1 -16 -6 -33 -12z"/>
<path d="M1053 2898 c-4 -7 -8 -20 -10 -28 -1 -10 3 -9 13 4 14 19 18 36 10
36 -3 0 -8 -6 -13 -12z"/>
<path d="M2262 2874 c-9 -10 -8 -14 8 -19 11 -4 20 -14 21 -23 0 -11 2 -13 6
-4 4 10 8 10 19 1 24 -19 16 -3 -14 29 -22 24 -30 27 -40 16z"/>
<path d="M680 2865 c0 -5 5 -17 10 -25 5 -8 10 -10 10 -5 0 6 -5 17 -10 25 -5
8 -10 11 -10 5z"/>
<path d="M2168 2842 c-16 -9 -28 -19 -28 -23 0 -3 12 -11 28 -18 15 -7 24 -9
20 -5 -4 4 -3 13 2 20 8 9 18 9 43 1 43 -16 43 -15 21 -32 -16 -12 -16 -14 -3
-15 9 0 22 7 29 15 11 13 8 21 -15 45 -33 34 -58 37 -97 12z"/>
<path d="M700 2819 c0 -4 7 -22 15 -42 14 -35 130 -187 141 -187 7 0 -9 23
-45 62 -13 15 -22 31 -18 34 10 10 -13 35 -25 28 -5 -3 -8 0 -6 8 2 7 -1 15
-7 16 -5 2 -20 22 -32 45 -12 23 -22 39 -23 36z"/>
<path d="M1544 2667 c3 -10 6 -22 6 -26 0 -4 7 -8 15 -8 17 0 18 6 5 27 -5 8
-10 11 -10 5 0 -5 -5 -3 -11 5 -9 12 -10 12 -5 -3z"/>
<path d="M2069 2665 c-3 -2 -16 -6 -29 -8 -24 -4 -42 -26 -18 -23 7 0 13 -3
13 -9 0 -5 -3 -9 -6 -8 -3 1 -6 -5 -6 -13 0 -10 8 -7 27 11 15 14 27 32 27 40
0 16 -1 17 -8 10z"/>
<path d="M1935 2630 c-3 -5 -2 -10 4 -10 5 0 13 5 16 10 3 6 2 10 -4 10 -5 0
-13 -4 -16 -10z"/>
<path d="M1538 2587 c-7 -14 -7 -17 1 -13 6 4 11 3 11 -2 0 -21 -29 -20 -36 0
-5 17 -8 19 -15 6 -7 -12 -7 -29 0 -83 1 -5 6 -3 12 5 7 11 8 4 4 -25 l-5 -40
13 41 c17 51 41 86 52 76 5 -4 5 -1 1 5 -4 7 -3 21 3 31 8 14 6 18 -11 18 -11
0 -24 -9 -30 -19z m-8 -48 c0 8 3 12 6 8 3 -3 1 -14 -5 -24 -8 -14 -10 -14
-11 -3 0 12 -2 12 -8 2 -6 -8 -9 -2 -9 19 0 31 0 31 13 7 7 -12 13 -17 14 -9z"/>
<path d="M1648 2578 c9 -9 15 -9 24 0 9 9 7 12 -12 12 -19 0 -21 -3 -12 -12z"/>
<path d="M1654 2555 c-12 -9 -14 -14 -6 -15 7 0 10 -5 6 -12 -4 -7 -3 -8 5 -4
6 4 8 13 5 19 -5 8 -3 8 6 0 11 -11 10 -17 -8 -36 -24 -25 -29 -43 -10 -31 7
5 9 2 6 -7 -3 -8 -8 -25 -12 -39 l-7 -25 16 25 c12 20 15 21 10 5 -3 -13 2
-24 15 -33 25 -15 27 3 5 32 -18 24 -19 37 -2 59 11 16 12 15 14 -9 1 -19 -1
-23 -8 -13 -5 8 -9 10 -9 4 0 -5 4 -16 9 -23 6 -10 11 -6 19 17 7 20 7 33 1
37 -6 4 -5 11 2 20 7 9 8 14 3 13 -20 -3 -35 2 -29 10 10 17 -11 21 -31 6z
m29 -49 c-10 -13 -20 -22 -22 -20 -4 4 29 44 36 44 2 0 -4 -11 -14 -24z"/>
<path d="M1571 2520 c0 -8 4 -24 9 -35 9 -20 9 -20 9 0 1 15 3 17 10 6 5 -7 7
-21 6 -30 -1 -9 0 -10 2 -3 3 6 9 12 14 12 12 0 12 0 -6 -49 -9 -26 -11 -50
-6 -64 9 -25 4 -50 -10 -41 -5 3 -9 -2 -9 -11 0 -10 5 -13 12 -9 7 4 8 3 4 -4
-4 -6 -2 -21 4 -32 6 -11 7 -20 1 -20 -14 0 -31 58 -32 114 -2 51 -2 51 -8 11
-6 -40 6 -136 19 -145 16 -11 30 -51 31 -87 1 -21 3 -29 6 -18 7 29 23 44 18
16 -2 -12 0 -19 6 -16 5 4 9 14 9 23 0 14 2 15 9 3 6 -10 5 -25 -5 -42 -7 -15
-11 -34 -8 -43 3 -8 -2 -19 -13 -25 -15 -8 -22 -6 -33 9 -8 10 -17 17 -22 14
-4 -3 -5 2 -2 10 3 9 2 16 -3 16 -11 0 -10 30 1 49 5 8 3 17 -5 23 -11 8 -10
9 3 4 16 -5 35 10 25 20 -8 8 -47 13 -45 6 1 -4 -2 -15 -6 -24 -4 -9 -3 -26 4
-37 7 -14 7 -21 0 -21 -5 0 -10 7 -10 15 0 8 -7 15 -15 15 -10 0 -15 10 -14
33 0 17 3 26 6 20 5 -14 23 -18 23 -5 0 5 -7 17 -16 28 -8 10 -12 13 -8 5 5
-10 3 -13 -8 -9 -12 5 -15 -1 -12 -35 4 -38 3 -40 -7 -17 -7 14 -11 39 -9 55
1 17 -1 27 -6 23 -4 -4 -14 -2 -23 4 -11 9 -10 6 2 -9 14 -16 15 -22 5 -25
-11 -4 -10 -8 1 -21 7 -9 11 -26 8 -37 -3 -11 0 -20 5 -20 6 0 8 -12 5 -30 -5
-22 -3 -30 8 -30 10 0 15 10 15 30 0 17 5 30 11 30 18 0 38 -32 39 -62 0 -19
6 -28 23 -33 31 -9 87 -38 87 -46 0 -3 -18 -12 -39 -19 -39 -12 -67 -7 -55 11
3 5 10 6 16 3 7 -4 8 -2 4 4 -4 7 -3 12 3 12 5 0 12 -6 14 -12 3 -8 6 -6 6 5
1 11 -6 17 -19 17 -11 0 -20 4 -20 10 0 5 -9 2 -20 -7 -13 -11 -16 -21 -10
-29 19 -22 48 -122 39 -131 -6 -6 -4 -24 6 -46 12 -29 13 -42 4 -58 -6 -12 -7
-19 -1 -15 5 3 12 -1 16 -9 3 -8 12 -15 21 -15 12 0 13 4 7 18 -5 9 -7 23 -4
31 3 8 0 11 -7 7 -6 -4 -11 -3 -11 3 0 5 5 13 10 16 6 3 10 12 10 18 0 9 -2 9
-8 1 -5 -9 -11 -8 -20 2 -11 12 -9 17 8 16 5 0 6 85 1 97 0 2 -8 -2 -16 -9 -9
-8 -15 -8 -15 -2 0 6 -3 18 -7 27 -5 15 -3 16 15 6 31 -16 99 -14 106 4 4 10
-1 15 -15 15 -17 0 -18 3 -9 20 6 11 7 20 2 20 -18 0 -21 40 -4 49 16 9 16 10
0 16 -17 7 -14 35 4 35 6 0 8 -7 5 -15 -10 -24 11 -27 23 -4 8 15 9 19 1 15
-6 -4 -11 0 -11 9 0 9 -4 13 -10 10 -5 -3 -10 -2 -10 3 0 14 27 34 32 25 3 -4
4 -3 2 4 -5 19 6 22 34 7 32 -16 49 -18 54 -4 2 6 14 7 34 1 22 -6 36 -5 44 2
10 9 11 9 6 0 -4 -7 2 -17 13 -22 24 -13 34 -14 27 -3 -3 5 13 9 35 10 23 1
46 5 52 8 7 3 3 -2 -7 -10 -11 -9 -29 -16 -40 -16 -28 0 -86 -36 -85 -52 0
-10 2 -10 6 0 2 6 9 12 14 12 6 0 7 -4 4 -10 -3 -5 -1 -10 4 -10 6 0 11 4 11
9 0 6 29 24 65 41 41 19 62 35 59 44 -3 7 7 18 22 25 15 6 24 15 20 18 -3 4
-12 1 -18 -5 -7 -7 -20 -12 -31 -12 -10 0 -16 -3 -13 -8 2 -4 -10 -8 -27 -9
-18 -1 -43 -5 -57 -9 -22 -7 -24 -6 -11 9 7 9 18 14 24 10 6 -3 7 -1 3 5 -4 7
-2 13 3 13 6 1 15 2 21 3 5 0 15 8 22 16 11 12 11 12 -2 4 -12 -8 -56 -11 -79
-5 -3 1 8 14 23 30 19 20 24 31 16 36 -9 6 -9 9 1 15 17 11 41 1 32 -14 -3 -6
3 -2 15 8 12 11 22 20 22 20 0 2 -65 -2 -72 -4 -5 -1 -11 -3 -15 -4 -5 -1 -14
-5 -20 -9 -7 -5 -13 -5 -13 0 0 4 -5 0 -11 -10 -5 -9 -8 -21 -5 -26 6 -9 -27
-43 -40 -40 -21 3 -87 -4 -71 -8 9 -2 15 -9 12 -14 -8 -13 -65 -11 -65 2 0 5
4 8 9 4 5 -3 13 0 17 6 4 8 3 9 -4 5 -7 -4 -12 -1 -12 6 -1 7 -7 2 -14 -11
-11 -19 -14 -21 -19 -7 -4 9 -4 23 -1 31 4 8 1 15 -4 15 -6 0 -13 -10 -15 -22
-3 -14 -5 -8 -6 17 l-3 40 -12 -29 c-17 -37 -10 -66 14 -61 22 4 35 -21 15
-29 -7 -2 -19 2 -25 10 -7 8 -18 14 -25 14 -7 0 -15 7 -18 14 -4 10 -1 13 7
10 7 -3 13 2 13 10 0 8 -6 12 -14 9 -18 -7 -14 46 5 65 14 16 16 36 2 27 -5
-3 -3 9 4 27 15 34 51 47 51 18 0 -8 -9 -15 -19 -15 -11 0 -22 -7 -24 -15 -5
-13 -3 -13 13 0 11 9 16 10 11 3 -4 -7 -3 -13 3 -13 5 0 13 5 16 10 4 6 11 8
16 5 5 -4 9 1 9 9 0 9 6 13 13 10 7 -2 24 8 37 23 18 20 19 23 5 13 -11 -9
-32 -17 -47 -19 -22 -2 -27 1 -22 14 4 10 13 13 25 10 11 -4 19 -2 19 3 0 5
21 31 46 56 25 26 43 50 39 54 -3 4 -22 -11 -40 -33 -19 -22 -34 -35 -35 -29
0 6 9 19 20 29 20 18 27 45 12 45 -14 0 -43 -36 -36 -43 4 -4 1 -13 -6 -22 -7
-8 -9 -23 -6 -32 7 -17 6 -17 -10 -1 -15 14 -15 19 -4 33 15 18 21 55 10 55
-4 0 -14 -18 -23 -40 -8 -22 -11 -40 -6 -40 5 0 3 -11 -3 -25 -10 -23 -12 -23
-24 -7 -7 9 -14 13 -14 7 0 -5 -5 -3 -11 5 -9 12 -10 11 -4 -5 3 -11 3 -16 -1
-13 -4 4 -15 3 -24 -2 -15 -8 -17 -6 -13 11 3 11 9 16 12 10 4 -5 6 21 6 58 0
68 0 69 -24 59 -17 -6 -27 -5 -33 4 -6 10 -8 10 -7 -2z m364 -290 c-21 -22
-23 -29 -12 -38 8 -7 16 -11 18 -9 2 1 -2 -4 -10 -10 -18 -16 -31 -17 -31 -3
0 6 5 10 12 10 6 0 9 3 6 6 -4 3 -18 -2 -32 -11 -15 -10 -37 -15 -51 -13 -14
3 -28 1 -31 -3 -3 -5 -13 -9 -22 -9 -11 0 -7 6 13 19 20 12 34 15 42 9 8 -6
21 1 40 22 15 18 26 33 23 35 -3 2 4 12 14 24 15 16 22 18 33 9 11 -9 9 -16
-12 -38z m-255 -290 c11 -7 3 -10 -30 -10 -33 0 -41 3 -30 10 8 5 22 10 30 10
8 0 22 -5 30 -10z m-66 -77 c-2 -41 -3 -43 -15 -43 -8 0 -8 4 -1 13 6 7 9 23
5 35 -3 12 -1 22 4 22 5 0 8 -12 7 -27z m16 -148 c0 -5 -5 -3 -10 5 -5 8 -10
20 -10 25 0 6 5 3 10 -5 5 -8 10 -19 10 -25z"/>
<path d="M1904 2218 l-19 -23 23 19 c21 18 27 26 19 26 -2 0 -12 -10 -23 -22z"/>
<path d="M1539 2481 c-9 -30 -9 -45 -1 -53 8 -8 10 -6 6 8 -3 11 0 30 5 44
l11 25 -1 -25 c-3 -57 1 -72 15 -67 8 3 17 1 20 -6 3 -7 2 2 -1 18 -3 17 -10
32 -15 33 -4 2 -8 11 -8 20 0 10 -4 23 -9 31 -7 11 -12 3 -22 -28z m39 -46
c-3 -3 -9 2 -12 12 -6 14 -5 15 5 6 7 -7 10 -15 7 -18z"/>
<path d="M1485 2473 c4 -21 3 -33 -4 -33 -6 0 -11 -16 -11 -36 0 -25 -4 -33
-12 -28 -10 6 -10 4 0 -7 6 -7 13 -22 14 -33 1 -12 5 4 9 34 l7 55 -2 -67 c0
-36 3 -70 7 -74 11 -12 8 189 -4 206 -8 11 -9 7 -4 -17z"/>
<path d="M2202 2478 c-15 -15 -15 -29 -1 -25 6 1 14 -4 16 -10 3 -9 -5 -13
-24 -14 -15 0 -37 -5 -48 -10 -15 -7 -9 -8 22 -4 28 3 44 1 50 -7 14 -24 14
-59 -2 -74 -8 -9 -15 -12 -15 -8 0 3 -7 1 -15 -6 -8 -7 -15 -18 -15 -24 0 -6
5 -4 10 4 5 8 10 10 10 4 0 -6 -7 -17 -15 -24 -8 -7 -15 -20 -14 -29 0 -12 2
-12 8 3 7 17 8 18 14 3 3 -9 2 -19 -4 -22 -5 -4 -7 -11 -4 -16 9 -13 -5 -50
-15 -44 -5 3 -11 -1 -13 -7 -4 -9 -6 -9 -6 -1 -1 6 6 18 14 27 19 19 19 27 0
20 -12 -5 -14 0 -8 27 6 31 5 33 -11 20 -11 -9 -14 -21 -10 -35 6 -19 5 -20
-12 -6 -10 8 -16 11 -12 6 10 -12 -12 -66 -27 -66 -8 0 -17 -5 -21 -12 -5 -8
-2 -9 9 -5 31 12 17 -2 -28 -29 -25 -14 -45 -30 -45 -36 0 -5 -6 -8 -12 -6 -7
3 -25 -15 -41 -40 -15 -24 -31 -41 -34 -38 -4 3 -1 12 5 18 7 7 12 17 12 22 0
6 -10 -2 -21 -19 -19 -27 -20 -22 -4 18 4 8 -1 14 -9 14 -8 0 -18 -7 -20 -14
-4 -8 -1 -11 5 -7 7 4 7 0 -1 -15 -6 -12 -15 -19 -21 -16 -5 4 -9 2 -9 -3 0
-6 -9 -8 -20 -5 -11 3 -17 10 -14 15 3 5 13 7 21 4 11 -5 13 -2 9 9 -3 9 -2
13 3 10 10 -5 25 28 26 55 0 8 7 15 15 16 31 2 35 5 20 14 -8 5 -18 10 -22 10
-4 0 -40 -34 -79 -75 -71 -73 -94 -90 -83 -60 4 8 12 15 20 15 8 0 14 4 14 10
0 5 17 26 38 46 20 20 31 33 25 29 -7 -3 -13 -1 -13 4 0 6 4 11 8 11 5 0 9 7
9 15 0 10 -4 12 -12 5 -6 -5 -16 -5 -25 0 -16 10 -57 14 -48 4 5 -5 28 -11 51
-13 13 -2 7 -29 -8 -35 -8 -3 -15 -13 -15 -23 0 -13 -3 -14 -12 -5 -8 8 -8 15
1 25 9 12 8 16 -4 21 -11 4 -15 -1 -15 -19 0 -13 4 -26 10 -30 5 -3 6 -13 3
-21 -5 -14 -8 -12 -19 7 -13 23 -15 23 -18 -1 0 -6 -8 -15 -16 -21 -11 -8 -9
-9 10 -3 24 7 24 6 7 -20 -17 -26 -17 -26 9 -26 26 0 27 0 9 -20 -10 -11 -14
-20 -9 -21 5 -1 -2 -5 -16 -9 -17 -6 -8 -7 25 -3 27 3 65 12 83 20 24 10 37
11 47 3 7 -6 20 -7 29 -4 14 5 13 8 -8 19 -29 15 -36 14 -89 -9 -22 -9 -44
-15 -50 -12 -8 3 -8 5 1 5 7 1 10 6 6 12 -4 8 1 9 17 5 24 -7 24 -7 -1 8 -14
9 -20 15 -14 16 6 0 15 10 21 22 6 15 12 18 17 10 4 -7 2 -12 -3 -12 -13 0
-15 -27 -3 -34 5 -3 26 1 48 9 26 9 43 10 51 3 7 -5 17 -7 23 -3 7 4 9 -2 6
-19 -5 -28 3 -33 22 -14 12 12 12 7 3 -41 -1 -2 -7 1 -14 7 -7 6 -18 7 -26 3
-11 -7 -9 -11 5 -20 11 -6 14 -11 7 -11 -6 0 -15 5 -18 10 -3 6 -11 10 -16 10
-6 0 -7 -4 -4 -10 4 -7 -3 -7 -20 0 -17 7 -24 7 -20 0 3 -6 -2 -10 -12 -10
-14 0 -15 -2 -4 -9 11 -7 10 -10 -5 -14 -18 -4 -18 -5 1 -5 11 -1 31 5 45 13
31 17 44 19 34 3 -5 -7 -3 -8 7 -3 50 29 69 49 69 70 0 28 15 41 24 20 3 -8 1
-17 -5 -20 -5 -4 -6 -11 -3 -17 15 -23 21 -267 9 -341 -3 -25 -2 -36 5 -32 5
3 10 1 10 -4 0 -6 -4 -11 -9 -11 -6 0 -9 -18 -8 -40 1 -24 4 -34 9 -27 5 7 6
-6 3 -28 -4 -29 1 -58 19 -105 14 -36 25 -58 25 -49 1 9 -6 34 -15 55 -9 22
-18 53 -21 69 -3 23 2 18 23 -25 22 -46 26 -68 25 -129 -1 -80 -9 -117 -43
-193 l-21 -48 -19 30 c-27 46 -78 35 -102 -21 l-12 -30 -50 40 c-37 29 -54 51
-63 83 -8 24 -22 66 -32 93 -10 28 -20 62 -24 77 -3 15 -20 43 -39 63 -24 25
-32 42 -28 57 4 18 2 20 -21 16 -18 -4 -32 1 -44 14 -16 18 -16 19 2 12 13 -5
16 -4 11 5 -5 7 -16 9 -28 5 -13 -4 -18 -2 -14 5 8 13 -83 73 -101 66 -7 -2
-12 0 -10 4 1 5 -28 40 -65 79 -38 38 -68 68 -68 65 0 -2 -12 5 -26 16 -15 11
-30 19 -34 16 -4 -3 -13 2 -20 10 -7 8 -18 15 -24 15 -6 0 -36 24 -65 54 l-54
55 1 77 c1 43 6 82 11 87 6 6 8 24 5 41 -4 30 -4 30 6 6 8 -17 8 -31 0 -48 -8
-18 -7 -21 2 -16 8 5 9 2 4 -12 -13 -31 -15 -64 -4 -64 7 0 7 -4 1 -12 -23
-31 -13 -64 36 -112 26 -26 52 -46 57 -45 5 1 17 -1 27 -6 10 -4 21 -5 24 -1
4 3 0 7 -8 7 -21 2 -142 136 -134 149 4 7 14 2 26 -12 l20 -23 -16 27 c-9 15
-16 29 -16 32 3 19 0 26 -9 21 -13 -8 -13 5 0 25 7 11 10 11 10 2 0 -8 5 -10
12 -6 8 5 9 2 5 -10 -5 -11 -3 -15 5 -10 8 5 9 1 4 -12 -4 -10 -4 -15 0 -11 8
7 84 -97 84 -115 0 -7 -7 -3 -16 8 -15 19 -15 19 -5 -1 15 -30 40 -61 41 -49
0 5 -5 15 -12 22 -9 9 -9 12 0 12 9 0 10 5 2 19 -13 26 -13 34 3 25 9 -6 9 -4
0 7 -16 16 -17 33 -2 24 5 -4 1 10 -10 31 -15 27 -17 42 -10 55 10 20 -18 92
-33 83 -10 -6 -10 -1 -1 21 5 15 8 14 19 -6 10 -18 13 -20 14 -7 0 9 -4 20
-10 23 -5 3 -10 17 -10 31 0 13 -4 24 -9 24 -8 0 -11 -24 -11 -110 l-1 -45
-23 45 c-17 32 -21 50 -15 63 5 9 6 17 1 17 -7 0 -35 63 -37 82 0 3 -4 10 -9
15 -5 5 -6 3 -2 -4 4 -7 2 -13 -3 -13 -6 0 -11 -15 -10 -32 1 -31 1 -32 9 -8
8 25 8 24 9 -5 1 -23 3 -27 11 -15 11 16 11 16 15 -40 1 -14 8 -36 14 -49 11
-19 10 -26 -1 -37 -12 -12 -14 -9 -15 20 -1 19 -7 47 -15 63 -12 26 -17 28
-60 25 -76 -4 -122 -25 -126 -55 -2 -14 -11 -28 -20 -30 -13 -4 -12 -5 3 -6
12 0 26 -6 33 -13 10 -10 11 -6 6 19 -7 36 -1 41 52 45 21 1 42 6 46 12 3 5
13 11 21 12 11 1 8 -10 -11 -43 -20 -37 -29 -44 -48 -40 -13 2 -32 -2 -41 -9
-17 -12 -17 -14 6 -38 l24 -25 27 19 c33 24 47 26 30 5 -8 -9 -8 -15 -2 -15
15 0 11 -38 -5 -44 -7 -3 -15 0 -19 6 -4 6 -3 8 3 5 6 -4 13 -1 16 7 6 16 -30
29 -39 15 -10 -17 105 -138 237 -248 219 -184 282 -235 274 -220 -4 8 7 -3 25
-24 18 -21 35 -36 37 -33 7 7 60 -59 81 -99 27 -53 62 -178 62 -225 0 -161
-93 -410 -154 -410 -7 0 -53 71 -102 157 -73 129 -105 174 -179 252 -106 112
-148 153 -232 224 -34 28 -60 57 -58 64 2 7 -2 10 -11 6 -15 -6 -244 215 -244
236 0 6 -5 11 -11 11 -20 0 21 -53 110 -140 47 -47 98 -94 113 -106 115 -87
429 -398 428 -423 0 -3 -11 -14 -24 -23 -23 -17 -24 -16 -69 45 -57 78 -336
355 -439 436 -43 34 -78 65 -78 69 0 4 5 13 12 20 8 8 9 12 1 12 -6 0 -13 -5
-15 -12 -4 -11 -78 76 -78 91 0 4 12 20 27 37 16 16 36 41 45 54 13 19 17 21
17 9 1 -9 8 -22 16 -29 18 -15 19 -7 3 21 -11 17 -10 22 6 35 11 8 16 14 12
14 -5 0 -3 7 4 15 7 8 27 15 44 14 l31 -1 -33 -8 c-47 -11 -54 -23 -9 -15 29
6 42 3 57 -10 25 -23 26 -8 1 24 -13 17 -28 24 -49 23 l-31 -1 15 41 c8 22 14
52 14 67 0 36 11 71 21 71 5 0 9 -7 9 -16 0 -19 40 -77 48 -70 7 7 32 -13 32
-26 0 -6 -8 -4 -17 3 -15 12 -15 10 1 -8 10 -12 23 -21 29 -20 6 1 11 -5 12
-13 0 -8 7 -15 15 -15 8 0 15 -7 15 -15 0 -8 7 -15 15 -15 8 -1 14 -6 13 -11
-1 -6 22 -32 52 -58 55 -47 78 -60 54 -28 -13 15 -12 16 3 3 10 -7 15 -17 13
-22 -6 -9 85 -75 98 -71 5 1 6 -2 3 -7 -4 -5 -2 -12 4 -16 5 -3 10 -1 10 5 0
6 5 8 10 5 6 -4 7 -11 4 -17 -4 -6 -2 -8 3 -5 6 4 14 0 17 -9 3 -8 11 -12 17
-8 7 4 9 3 5 -4 -7 -12 181 -165 194 -157 4 2 15 -4 25 -15 10 -11 15 -20 11
-20 -4 0 9 -16 29 -35 19 -20 35 -44 35 -55 0 -10 5 -22 10 -25 6 -4 8 -11 5
-16 -4 -5 -2 -9 4 -9 5 0 19 -37 30 -83 16 -63 20 -70 15 -32 -16 139 -76 239
-206 346 -93 76 -117 92 -102 67 4 -7 3 -8 -5 -4 -6 4 -9 11 -6 16 3 5 -27 34
-67 65 -40 30 -99 76 -131 101 -31 25 -61 43 -66 40 -12 -8 -8 47 4 57 6 5 4
7 -5 4 -8 -2 -14 -11 -12 -19 1 -9 -5 -18 -13 -22 -10 -3 -13 -2 -10 4 4 6
-14 32 -39 58 -26 26 -63 70 -84 99 -24 33 -42 50 -52 47 -8 -3 -11 -2 -7 2 4
4 1 17 -6 28 -8 12 -17 44 -20 73 l-6 52 42 16 c23 8 69 19 102 24 l60 9 -54
1 c-60 1 -62 14 -3 17 54 3 54 3 50 16 -5 13 -46 19 -54 6 -3 -4 -14 -3 -25 2
-15 9 -19 7 -19 -6 0 -11 -5 -14 -16 -10 -14 5 -15 4 -4 -9 11 -14 10 -14 -13
-6 -26 10 -50 -2 -25 -12 8 -3 6 -6 -5 -6 -12 -1 -16 -5 -11 -13 5 -9 2 -8 -9
1 -10 8 -21 11 -24 7 -4 -4 -1 -12 7 -17 12 -9 10 -10 -7 -6 -25 6 -39 -18
-22 -39 6 -7 7 -19 3 -26 -5 -7 -9 -31 -10 -53 -1 -22 -5 -48 -9 -57 -5 -13
-3 -18 9 -18 9 0 16 -5 16 -11 0 -6 -8 -8 -19 -4 -23 7 -37 -11 -22 -29 6 -7
8 -16 4 -19 -3 -4 -1 -7 5 -7 6 0 13 8 15 18 4 14 5 14 6 -3 0 -11 -16 -36
-38 -57 -21 -20 -38 -45 -38 -55 1 -10 -4 -17 -10 -16 -7 2 -12 0 -11 -5 3
-16 -15 -42 -25 -35 -6 4 -8 0 -4 -10 3 -9 3 -16 -1 -16 -25 4 -34 -3 -29 -21
3 -11 1 -18 -3 -15 -5 3 -11 -4 -15 -15 -3 -11 -12 -19 -18 -17 -7 1 -11 -6
-11 -15 1 -12 -27 -38 -79 -75 -106 -75 -108 -77 -101 -61 6 15 150 118 165
118 6 0 8 4 4 10 -13 22 -97 -33 -190 -124 -33 -32 -72 -63 -87 -68 -16 -6
-26 -14 -23 -18 3 -5 -6 -7 -20 -4 -18 3 -23 1 -19 -10 3 -8 0 -17 -7 -22 -8
-5 -10 -3 -5 7 4 8 2 7 -6 -2 -12 -15 -49 -32 -73 -35 -22 -2 -73 -40 -94 -69
-24 -35 -26 -46 -9 -43 6 2 14 -8 18 -22 6 -23 7 -22 13 12 5 23 17 42 33 53
14 9 23 19 20 22 -3 3 -13 0 -23 -8 -11 -9 -14 -10 -9 -2 4 7 16 18 28 24 13
7 18 7 14 1 -3 -6 3 -13 14 -17 21 -7 42 6 136 80 63 49 242 180 307 224 27
18 47 27 47 19 0 -6 14 -27 32 -45 32 -33 34 -49 4 -37 -9 3 -13 10 -10 15 3
5 2 8 -3 7 -4 -2 -10 2 -11 7 -12 34 -24 47 -35 36 -8 -8 -5 -17 10 -33 l22
-23 -40 -29 c-22 -15 -43 -26 -45 -23 -3 3 6 13 19 22 14 9 28 24 32 33 4 12
-1 10 -15 -6 -16 -17 -25 -20 -34 -13 -16 14 -27 4 -19 -17 4 -9 2 -13 -3 -9
-11 7 -89 -52 -174 -130 -37 -35 -52 -55 -45 -62 7 -7 26 4 59 34 27 24 53 42
57 40 4 -3 12 2 19 10 13 16 137 105 146 105 3 0 2 -6 -2 -12 -5 -7 9 0 31 16
28 21 37 25 32 12 -4 -10 -3 -15 3 -11 6 4 38 -17 72 -47 34 -29 58 -47 54
-40 -6 10 -3 13 9 10 10 -1 20 -9 23 -17 3 -8 0 -11 -7 -7 -17 11 -13 0 6 -15
14 -12 16 -12 9 0 -6 9 -4 12 5 9 8 -3 14 -10 14 -16 0 -6 6 -17 14 -24 10
-10 12 -10 7 0 -16 27 10 9 63 -45 31 -32 76 -73 99 -91 61 -48 181 -189 239
-278 26 -42 58 -88 71 -101 23 -25 29 -39 12 -28 -19 12 -40 -17 -40 -54 0
-32 -5 -38 -40 -54 -39 -18 -45 -37 -12 -37 12 0 14 3 4 8 -8 6 -1 13 22 25
33 15 35 15 41 -3 11 -34 35 -52 51 -39 12 10 13 9 8 -5 -3 -9 -1 -16 6 -16 6
0 8 5 4 12 -5 7 -3 8 5 3 32 -19 -64 -50 -166 -54 -57 -2 -71 2 -165 49 -57
29 -118 61 -135 72 -18 11 -36 17 -41 14 -11 -7 -62 25 -199 124 -65 47 -144
103 -175 124 -32 22 -55 43 -51 49 3 6 1 7 -5 3 -6 -3 -38 10 -72 30 -35 22
-57 40 -50 44 6 4 -15 21 -50 39 -33 18 -60 30 -60 27 0 -3 17 -14 38 -25 20
-11 31 -20 24 -21 -7 0 -32 10 -55 22 -23 12 -45 21 -49 20 -5 -1 -8 2 -8 8 0
5 -14 10 -31 10 -18 0 -28 -4 -24 -10 10 -16 -24 -24 -41 -10 -12 11 -21 7
-54 -25 -22 -22 -40 -46 -40 -55 1 -9 13 -1 33 23 18 20 36 37 40 37 5 0 6 -4
3 -8 -2 -4 11 -6 31 -4 25 3 43 -2 64 -17 15 -11 35 -21 43 -21 8 0 18 -5 22
-11 4 -8 8 -8 13 0 9 14 51 2 51 -15 0 -8 24 -26 53 -40 46 -24 152 -92 243
-157 17 -12 51 -34 75 -50 61 -38 113 -77 104 -77 -4 0 15 -15 41 -33 49 -34
111 -69 116 -66 8 5 48 -13 44 -20 -3 -4 4 -8 15 -9 61 -7 81 -10 95 -11 8 0
13 -5 10 -10 -3 -4 5 -6 18 -4 13 3 26 0 30 -5 4 -6 -3 -8 -16 -5 -19 4 -20 3
-8 -6 13 -9 13 -11 -2 -11 -10 0 -18 -6 -18 -12 0 -9 16 -13 44 -14 25 0 43 3
41 6 -2 3 17 7 41 8 l45 2 -18 -24 c-10 -13 -22 -21 -28 -18 -5 3 -4 -2 4 -11
10 -13 17 -14 27 -6 7 6 18 8 23 5 5 -4 12 -2 16 4 4 6 10 8 14 5 5 -2 17 5
27 18 l19 22 -22 -18 c-13 -12 -23 -15 -28 -8 -4 7 -14 5 -31 -5 -28 -19 -31
-8 -5 23 20 24 38 32 25 12 -5 -9 1 -10 22 -4 16 4 34 8 39 10 6 1 17 5 25 8
39 14 84 27 86 24 3 -3 -15 -56 -44 -128 -6 -14 -23 -36 -39 -48 -37 -29 -173
-116 -215 -137 -18 -9 -37 -23 -41 -30 -5 -9 -22 -12 -47 -10 -36 3 -39 1 -38
-19 1 -12 8 -22 15 -22 9 0 10 4 2 13 -9 11 -4 13 22 12 19 0 65 13 103 31 77
35 80 36 70 20 -8 -14 52 17 94 48 18 14 44 26 57 27 13 2 41 17 63 35 40 31
58 40 47 21 -3 -6 1 -10 11 -10 14 0 14 3 3 16 -8 10 -21 13 -38 9 -19 -5 -23
-3 -15 7 5 8 -3 0 -18 -17 -15 -16 -28 -24 -28 -17 0 7 -5 10 -10 7 -6 -4 -8
-10 -6 -14 3 -4 -4 -8 -15 -8 -11 -1 -19 3 -17 8 2 6 7 10 11 10 17 -3 47 37
41 53 -5 12 -2 15 12 10 13 -4 15 -3 6 3 -14 10 -6 43 10 43 5 0 6 -4 3 -10
-3 -5 -1 -10 6 -10 8 0 10 11 6 34 -3 18 -1 38 5 44 6 6 15 20 22 33 13 26 42
46 52 36 4 -4 0 -15 -8 -24 -9 -10 -19 -28 -22 -39 -5 -16 -12 -20 -26 -17
-11 3 -20 0 -20 -6 0 -5 7 -8 16 -4 14 5 15 3 6 -14 -8 -15 -7 -27 4 -48 12
-23 12 -30 2 -37 -11 -6 -11 -8 0 -8 7 0 15 7 19 16 5 13 9 10 19 -12 l13 -29
-2 30 c-2 24 2 30 18 30 11 0 28 9 37 20 17 19 17 19 12 -15 -3 -19 -7 -41
-10 -47 -2 -7 1 -13 6 -13 6 0 10 -4 10 -10 0 -20 -26 2 -37 30 -6 17 -17 30
-25 30 -11 0 -11 -2 0 -9 7 -4 11 -19 9 -32 -2 -13 -2 -18 0 -10 9 27 21 -11
16 -48 -8 -50 -23 -63 -24 -20 0 28 -2 30 -9 14 -12 -28 -12 -83 0 -90 6 -3
10 1 10 9 0 8 5 18 10 21 10 6 8 -18 -4 -46 -4 -8 -2 -26 4 -40 9 -19 10 -20
7 -3 -9 46 32 73 53 34 9 -16 13 -18 24 -8 14 14 15 32 2 45 -4 4 -6 3 -4 -2
2 -6 0 -11 -4 -12 -20 -7 -28 -1 -28 17 0 11 -4 20 -10 20 -5 0 -10 -5 -10
-12 0 -6 -3 -9 -6 -6 -3 3 -1 14 4 25 6 10 14 29 19 42 9 23 10 23 27 6 9 -10
15 -23 13 -30 -3 -6 -1 -18 4 -26 6 -10 9 -7 9 12 0 27 30 61 56 65 22 3 27
10 27 39 l0 26 19 -21 c10 -11 23 -18 29 -15 5 4 9 -1 9 -10 0 -9 -5 -13 -11
-9 -8 5 -8 1 0 -14 6 -11 11 -31 11 -44 -1 -21 -2 -22 -14 -6 -7 10 -16 15
-20 11 -3 -4 -5 4 -4 18 2 16 -2 24 -12 24 -26 0 -15 -79 17 -130 29 -45 61
-71 49 -38 -4 9 -1 20 5 24 6 4 8 12 4 19 -6 9 -9 9 -16 -1 -6 -10 -11 -6 -18
14 -6 16 -15 25 -21 22 -6 -3 -7 1 -4 10 6 14 8 14 25 -1 15 -14 21 -15 34 -4
19 15 34 5 17 -12 -15 -15 -16 -31 0 -22 8 5 9 2 4 -12 -14 -37 -18 -72 -8
-78 11 -6 26 89 17 104 -3 6 -1 10 4 10 6 0 11 7 11 15 0 8 -4 15 -10 15 -5 0
-10 5 -10 12 0 6 3 8 7 5 4 -4 12 6 19 23 7 16 18 30 24 30 15 0 12 -16 -5
-30 -17 -14 -20 -40 -5 -40 5 0 6 7 3 17 -5 12 -3 14 7 8 8 -5 11 -4 6 3 -3 6
-2 13 3 16 5 4 13 1 16 -4 5 -7 12 -5 22 7 8 10 12 13 9 7 -3 -6 6 -22 20 -35
23 -22 24 -24 8 -36 -16 -12 -16 -13 -2 -13 9 0 19 -8 23 -19 3 -10 13 -18 23
-17 9 0 16 -5 14 -12 -1 -8 2 -11 8 -7 7 4 14 -2 17 -14 9 -36 21 -23 14 17
-9 54 3 142 19 142 14 0 30 -26 36 -58 4 -18 10 -32 15 -32 5 0 4 12 -2 26 -5
15 -7 29 -4 33 8 7 25 -20 25 -41 0 -32 11 -49 25 -38 10 8 11 20 4 43 -5 18
-9 45 -8 62 1 27 2 27 11 -10 5 -22 11 -50 14 -62 2 -13 9 -23 15 -23 6 0 7 9
3 23 -4 12 -8 29 -9 37 -5 36 -18 70 -28 70 -6 0 -8 3 -5 6 4 3 0 21 -8 39
-19 47 -18 52 7 21 11 -14 24 -24 29 -21 5 3 22 -22 38 -56 16 -34 32 -57 34
-53 3 5 3 3 2 -3 -2 -7 0 -13 4 -13 4 0 19 -11 33 -24 27 -25 127 -66 162 -66
19 0 17 3 -13 22 -19 12 -60 34 -90 48 -51 25 -120 88 -120 110 0 21 -2 26
-16 42 -9 9 -17 22 -18 30 -8 38 -18 48 -38 37 -12 -6 -24 -7 -29 -2 -8 8 6
12 54 14 19 0 22 21 7 50 -9 16 -7 19 10 20 11 1 23 2 28 3 4 1 27 6 52 10 25
4 53 10 64 13 11 3 16 1 12 -5 -3 -5 1 -13 10 -16 10 -4 13 -2 8 6 -5 7 -2 9
9 5 11 -4 25 5 44 27 15 18 38 38 49 44 12 6 27 26 35 44 7 18 19 39 26 46 7
7 16 25 20 40 3 15 19 50 34 77 15 28 33 72 40 98 11 45 10 50 -11 72 -18 19
-20 25 -8 25 9 0 22 -7 29 -16 7 -9 53 -43 101 -75 48 -32 90 -65 95 -72 4 -8
18 -20 31 -26 13 -7 27 -22 32 -34 7 -17 9 -13 7 20 -1 24 -6 43 -11 43 -4 0
-5 8 -2 18 6 16 5 16 -8 -1 -11 -15 -16 -16 -27 -5 -8 8 -39 29 -69 49 -30 19
-77 50 -105 67 -27 18 -59 44 -70 59 -11 15 -36 42 -55 62 -19 19 -34 38 -33
43 2 4 -3 7 -10 5 -7 -1 -12 7 -11 20 0 12 -3 20 -7 17 -4 -2 -10 2 -13 8 -5
10 -7 10 -12 1 -4 -9 -11 -10 -23 -3 -10 5 -21 7 -24 4 -3 -3 -16 4 -29 16
-13 12 -35 27 -50 32 -15 5 -26 13 -25 18 1 4 -1 8 -6 9 -14 1 -67 35 -67 43
0 4 -9 8 -20 8 -11 0 -23 6 -26 13 -7 19 -64 60 -64 47 0 -5 14 -22 30 -37 32
-28 33 -46 2 -22 -10 8 -7 4 7 -9 28 -25 160 -113 233 -156 46 -27 58 -26 58
6 0 10 5 18 10 18 6 0 10 -9 10 -19 0 -28 11 -52 21 -45 5 3 9 1 9 -4 0 -5 9
-12 19 -15 30 -7 54 -53 55 -107 1 -27 -2 -46 -6 -44 -4 3 -8 -3 -8 -14 0 -51
-51 -169 -104 -237 -82 -107 -105 -120 -209 -130 l-78 -7 21 34 c22 37 27 116
9 150 -6 12 -13 60 -14 109 -2 48 -11 129 -21 181 -9 51 -18 131 -20 177 -2
46 -7 88 -12 93 -15 15 -49 0 -73 -33 -27 -39 -47 -159 -32 -198 8 -21 7 -30
-3 -37 -10 -6 -11 -14 -4 -24 8 -13 10 -13 10 2 0 11 10 18 27 20 14 2 28 10
31 18 4 12 2 13 -9 3 -7 -7 -16 -13 -20 -13 -10 0 -33 60 -25 67 3 3 6 -1 6
-9 0 -21 26 -42 35 -28 3 6 11 7 17 4 6 -4 8 -3 5 2 -3 6 -1 16 4 24 7 11 9
-10 6 -65 -3 -51 -1 -73 5 -60 5 13 7 1 4 -35 -3 -33 -2 -45 3 -30 5 18 9 5
14 -52 8 -89 -1 -170 -17 -165 -28 9 -66 87 -87 177 -12 52 -30 118 -40 145
-17 47 -25 181 -9 154 5 -7 9 -5 14 6 9 25 6 43 -4 20 -8 -18 -9 -18 -9 -2 -1
10 6 34 15 55 17 40 21 190 6 220 -5 9 -17 51 -27 92 -9 41 -33 109 -51 151
-29 66 -33 86 -31 144 3 66 4 69 45 105 35 32 39 39 25 44 -10 4 -14 4 -10 0
8 -8 -11 -34 -25 -34 -6 0 -4 8 3 17 8 10 -3 5 -23 -10 -21 -15 -38 -23 -38
-16 0 8 -6 7 -18 -4 -16 -15 -19 -15 -30 4 -10 16 -9 24 4 44 9 14 20 25 24
25 4 0 18 11 31 25 13 14 40 35 59 45 19 11 46 28 60 38 13 9 21 11 16 5 -4
-8 -2 -13 8 -13 8 0 18 5 21 10 4 6 10 8 15 5 4 -3 13 9 19 25 12 35 22 40 14
8 -3 -13 -3 -20 1 -17 3 3 12 29 20 57 12 48 12 52 -6 57 -19 7 -24 20 -9 30
5 3 16 -4 25 -16 21 -31 12 -92 -23 -148 -23 -38 -25 -47 -12 -46 9 0 23 5 30
10 11 6 13 4 8 -8 -3 -8 0 -20 7 -26 9 -8 18 -5 33 12 26 28 43 58 22 40 -19
-18 -29 -16 -23 5 5 13 4 14 -4 3 -6 -8 -9 -24 -6 -35 3 -20 3 -20 -11 -2 -9
12 -11 23 -5 31 5 6 5 17 0 25 -5 8 -5 21 1 32 5 10 7 18 3 18 -3 0 -1 7 6 15
7 8 10 25 7 37 -4 13 -2 30 4 38 7 11 9 -1 7 -40 -1 -31 -9 -63 -18 -74 -14
-17 -13 -18 4 -15 25 5 36 48 29 110 -6 55 -18 70 -28 39 -4 -12 -11 -20 -17
-18 -5 2 -8 8 -6 13 2 6 6 9 11 8 4 -2 7 2 7 7 0 6 -4 10 -10 10 -5 0 -10 12
-10 28 0 20 3 23 9 12 6 -8 8 -17 5 -21 -2 -4 0 -10 6 -14 6 -4 10 8 10 29 0
19 -5 38 -12 42 -7 4 -8 3 -4 -4 4 -7 1 -12 -8 -12 -12 0 -13 6 -5 32 5 18 9
34 9 35 0 1 -8 7 -18 12 -13 7 -23 6 -30 -1z m11 -204 c-7 -3 -9 -13 -6 -22 5
-13 3 -14 -7 -5 -14 13 -5 33 13 32 9 0 9 -2 0 -5z m-83 -89 c-7 -8 -17 -15
-22 -15 -11 0 14 29 26 30 5 0 3 -7 -4 -15z m105 -55 c-10 -11 -21 -18 -23
-15 -3 3 3 12 14 20 27 20 30 18 9 -5z m-405 -84 c-12 -20 -29 -36 -37 -36
-11 0 -5 12 18 38 41 47 49 46 19 -2z m-980 -76 c0 -16 -2 -30 -4 -30 -2 0 -6
14 -8 30 -3 17 -1 30 4 30 4 0 8 -13 8 -30z m187 11 c0 -11 -5 -17 -9 -15 -4
3 -8 0 -8 -5 0 -16 -36 -13 -49 3 -9 11 -6 12 15 8 18 -3 30 0 36 12 12 21 17
20 15 -3z m108 -44 c-4 -6 0 -3 9 7 8 10 17 24 19 30 3 8 8 8 17 -1 9 -8 9
-15 1 -30 -11 -16 -11 -16 -6 5 8 27 -1 29 -15 3 -11 -22 6 -75 21 -65 5 3 9
2 10 -3 0 -4 2 -19 3 -32 l3 -24 -19 23 c-36 45 -70 109 -62 121 9 15 27 -16
19 -34z m875 18 c-7 -8 -17 -15 -23 -15 -5 0 -2 9 8 20 21 23 35 19 15 -5z
m-885 -165 l49 -55 -52 50 c-29 27 -52 54 -52 59 0 5 1 7 3 5 2 -2 25 -29 52
-59z m-370 -60 c-3 -5 -1 -10 6 -10 7 0 10 -3 6 -6 -9 -9 -28 6 -22 17 4 5 8
9 11 9 3 0 2 -4 -1 -10z m1274 -95 c3 15 31 -53 46 -111 27 -100 29 -193 7
-274 -36 -132 -36 -142 -2 -242 23 -71 27 -94 18 -100 -10 -6 -10 -8 1 -8 8 0
11 -7 8 -20 -3 -11 -1 -18 3 -15 5 3 12 -10 15 -28 14 -74 92 -177 111 -146
16 26 15 145 -1 260 -9 68 -15 147 -13 174 l3 50 13 -55 c20 -91 33 -209 34
-325 0 -67 3 -98 8 -80 l7 30 8 -29 c5 -19 4 -41 -4 -60 -7 -17 -14 -38 -15
-46 -4 -19 -43 -25 -62 -10 -16 14 -20 55 -4 45 6 -4 8 -10 5 -15 -6 -10 12
-23 38 -27 20 -3 22 -5 -43 52 -19 17 -28 22 -21 13 8 -11 9 -18 3 -18 -22 0
-83 125 -118 238 -42 136 -46 199 -20 302 10 41 20 118 21 170 2 52 1 80 -2
62 -3 -24 -9 -32 -19 -28 -19 7 -18 -18 1 -34 8 -7 14 -27 14 -44 -2 -27 -2
-28 -6 -6 -3 14 -8 27 -12 30 -12 10 -41 68 -45 91 -2 13 0 29 5 35 5 6 3 24
-4 43 -10 27 -9 33 3 41 8 6 20 8 26 6 9 -3 9 3 1 25 -6 16 -15 29 -19 29 -4
0 -7 19 -7 43 l2 42 7 -35 c4 -19 8 -30 9 -25z m-739 -22 c0 -7 -39 17 -46 28
-3 6 5 3 20 -6 14 -10 26 -19 26 -22z m697 -125 c-3 -8 -6 -5 -6 6 -1 11 2 17
5 13 3 -3 4 -12 1 -19z m-1312 -38 c-3 -5 -16 -15 -28 -21 -19 -9 -19 -8 3 10
28 23 34 26 25 11z m120 -68 c-3 -3 1 -12 7 -21 8 -10 4 -9 -9 3 -13 10 -21
22 -18 25 2 4 -12 15 -30 25 -19 11 -32 23 -29 27 3 5 23 -5 45 -23 21 -17 37
-34 34 -36z m660 3 l30 -27 -30 21 c-16 11 -43 32 -60 46 l-30 27 30 -21 c17
-11 44 -32 60 -46z m80 25 c10 -11 16 -20 13 -20 -3 0 -13 9 -23 20 -10 11
-16 20 -13 20 3 0 13 -9 23 -20z m-957 -5 c-59 -49 -118 -93 -104 -77 40 46
-1 19 -64 -40 -43 -42 -50 -47 -20 -15 50 54 149 140 136 118 -6 -9 -5 -12 5
-9 8 3 15 10 15 16 2 21 4 22 19 15 9 -3 15 -7 13 -8z m1058 -97 c3 -10 10
-16 15 -13 5 4 9 2 9 -4 0 -20 -19 -21 -25 0 -4 11 -21 37 -38 57 l-31 37 32
-29 c17 -16 34 -38 38 -48z m664 2 c0 -5 -2 -10 -4 -10 -3 0 -8 5 -11 10 -3 6
-1 10 4 10 6 0 11 -4 11 -10z m-70 -10 c0 -5 -13 -16 -30 -25 -16 -8 -34 -24
-40 -34 -16 -31 -12 -35 9 -10 l20 24 10 -25 c5 -14 10 -18 10 -9 1 8 -4 20
-10 26 -8 8 -5 14 10 22 20 11 21 9 21 -26 0 -31 -19 -88 -20 -59 0 6 -7 1
-15 -10 -15 -18 -16 -17 -10 16 5 32 4 33 -7 12 -9 -19 -9 -28 1 -44 7 -11 8
-17 2 -14 -10 7 -27 -32 -17 -41 3 -4 6 1 6 11 0 9 5 14 10 11 8 -5 7 -12 -1
-22 -34 -40 -52 88 -22 149 19 39 73 74 73 48z m-2018 -66 c-12 -8 -28 -12
-34 -8 -9 6 -5 10 12 15 41 11 46 10 22 -7z m2263 -34 c3 -6 -1 -7 -9 -4 -18
7 -21 14 -7 14 6 0 13 -4 16 -10z m-2381 -24 c-8 -20 -21 -21 -21 -1 0 8 4 12
9 9 4 -3 8 0 8 7 0 7 2 10 5 7 3 -3 3 -13 -1 -22z m2446 -8 c0 -4 -4 -8 -9 -8
-6 0 -12 4 -15 8 -3 5 1 9 9 9 8 0 15 -4 15 -9z m-2316 -89 c-2 -3 14 -14 34
-24 20 -10 32 -20 25 -22 -7 -2 -20 0 -30 5 -10 5 -26 8 -36 7 -9 -2 -15 1
-11 6 3 5 -2 9 -10 9 -9 0 -16 6 -16 14 0 8 9 13 24 12 13 0 22 -4 20 -7z
m1506 -39 c8 -20 10 -42 4 -67 -4 -21 -7 -45 -6 -53 1 -8 -3 -37 -10 -65 -6
-27 -11 -56 -11 -62 0 -7 -4 -13 -9 -13 -4 0 -8 5 -8 12 0 6 -3 8 -6 5 -4 -4
-2 -12 3 -19 5 -7 13 -20 16 -30 4 -12 0 -15 -18 -14 -17 2 -30 -6 -45 -28
l-21 -31 24 27 c14 15 28 24 31 21 3 -4 -1 -15 -10 -25 -13 -13 -14 -21 -5
-31 9 -11 7 -17 -6 -28 -16 -12 -17 -12 -6 2 23 29 0 30 -23 2 l-23 -28 5 25
c4 22 3 22 -5 5 -6 -14 -5 -23 5 -31 11 -9 10 -14 -8 -30 -16 -14 -19 -14 -10
-2 25 31 -3 26 -37 -8 -38 -37 -108 -65 -142 -57 -13 4 -20 2 -16 -3 3 -6 -15
-11 -40 -12 -26 -1 -55 -4 -65 -8 -10 -3 -18 -1 -18 4 0 8 32 14 140 26 14 1
45 8 70 15 43 13 44 14 20 23 -14 5 -42 18 -63 28 -21 10 -35 13 -31 7 3 -7
-8 3 -25 21 -17 18 -31 40 -31 50 1 12 5 9 16 -10 8 -16 17 -28 19 -28 7 0
-18 54 -28 61 -4 3 3 11 17 17 23 10 26 8 43 -33 18 -45 37 -62 48 -45 4 6 2
10 -4 10 -5 0 -32 42 -60 93 -28 50 -60 106 -71 124 l-21 31 23 16 c20 15 23
14 33 -1 5 -10 42 -74 81 -143 78 -139 87 -144 137 -87 57 64 98 166 116 287
5 36 7 78 4 94 -7 37 10 28 27 -14z m289 -26 c-5 -6 -7 -20 -3 -30 4 -14 3
-15 -4 -6 -7 10 -18 0 -46 -42 -21 -32 -44 -56 -54 -56 -22 0 -62 28 -62 43 0
7 -20 25 -45 42 -24 16 -48 40 -54 52 -15 32 -6 29 46 -17 42 -37 72 -53 59
-31 -8 13 37 75 58 79 10 2 23 -1 29 -7 8 -8 4 -11 -16 -11 -36 0 -59 -37 -55
-87 2 -30 7 -39 25 -41 12 -2 31 6 44 19 17 17 20 29 16 61 -4 33 -3 37 7 22
12 -16 14 -15 29 7 10 13 17 30 18 39 0 10 3 9 8 -5 5 -11 5 -25 0 -31z
m-1664 26 c3 -5 -3 -10 -15 -10 -12 0 -18 5 -15 10 3 6 10 10 15 10 5 0 12 -4
15 -10z m15 -51 c0 -14 -17 -10 -23 5 -4 10 -1 13 9 9 7 -3 14 -9 14 -14z
m1560 7 c0 -8 -6 -17 -12 -20 -10 -5 -10 -7 0 -12 17 -8 15 -34 -2 -34 -20 0
-32 60 -15 71 20 13 29 11 29 -5z m-183 -58 c-3 -8 -6 -5 -6 6 -1 11 2 17 5
13 3 -3 4 -12 1 -19z m283 9 c0 -8 8 -39 19 -70 15 -48 16 -59 5 -68 -8 -6
-14 -8 -14 -3 0 5 -5 2 -10 -6 -9 -13 -10 -13 -10 1 0 8 5 20 12 27 9 9 8 12
-4 12 -21 0 -25 -15 -22 -70 1 -24 -2 -52 -7 -62 -10 -19 5 -26 16 -8 4 6 11
8 16 5 5 -4 9 -1 9 5 0 7 -6 10 -14 7 -11 -4 -12 2 -4 34 6 21 14 37 18 34 4
-3 11 3 14 12 6 15 8 15 16 3 5 -8 7 -23 4 -34 -5 -14 -3 -16 7 -11 8 4 4 -1
-7 -13 -12 -11 -24 -36 -28 -54 -10 -54 -54 -98 -102 -105 -55 -7 -87 13 -142
88 -24 32 -48 59 -53 59 -6 0 -8 4 -4 9 3 5 -4 12 -15 16 -11 3 -20 11 -20 17
0 5 7 8 15 4 8 -3 15 -1 15 3 0 5 -5 11 -11 13 -5 2 -7 10 -4 19 5 13 13 9 42
-20 25 -25 38 -32 41 -22 2 7 -6 23 -19 35 -13 12 -17 14 -10 4 8 -11 9 -18 3
-18 -17 0 -25 20 -26 71 -2 42 0 46 15 38 27 -14 32 -29 12 -30 -12 0 -14 -2
-4 -6 11 -5 11 -7 0 -14 -11 -7 -10 -9 4 -9 9 0 17 7 17 17 0 13 7 10 30 -12
32 -30 43 -60 12 -32 -10 10 -23 13 -31 8 -10 -7 -9 -9 3 -14 12 -5 16 -20 16
-55 0 -49 12 -72 38 -72 10 0 12 6 7 23 -4 12 -9 40 -12 62 l-5 40 35 -34 c32
-30 37 -32 51 -18 9 8 32 51 51 94 20 45 27 68 16 54 -10 -13 -20 -20 -23 -15
-3 5 -3 4 -2 -3 5 -19 -36 -111 -52 -117 -17 -7 -97 83 -89 101 2 8 0 11 -5 8
-12 -8 -80 45 -80 63 0 26 44 11 79 -28 20 -22 42 -40 48 -40 6 0 19 -7 27
-16 13 -13 16 -13 16 -1 0 8 9 22 20 32 11 10 20 24 20 31 0 13 37 44 52 44 5
0 8 -6 8 -13z m-1555 -25 c-3 -3 -11 0 -18 7 -9 10 -8 11 6 5 10 -3 15 -9 12
-12z m66 -43 c19 -16 20 -18 4 -10 -34 17 -51 31 -39 31 7 0 22 -9 35 -21z
m1206 -31 c-3 -8 -6 -5 -6 6 -1 11 2 17 5 13 3 -3 4 -12 1 -19z m-1131 -21 c1
-9 -2 -15 -7 -11 -5 3 -7 9 -4 14 3 4 0 11 -5 13 -6 3 -5 4 1 3 7 -1 13 -10
15 -19z m1234 -68 c0 -21 5 -41 10 -44 6 -3 10 -11 10 -17 0 -7 -6 -6 -15 2
-9 7 -15 29 -15 54 0 23 -6 48 -12 56 -11 12 -10 12 5 1 11 -9 17 -27 17 -52z
m167 9 c-3 -8 -6 -5 -6 6 -1 11 2 17 5 13 3 -3 4 -12 1 -19z m-1196 -85 c13
-17 13 -17 -7 0 -11 9 -25 17 -31 17 -6 0 -17 7 -24 17 -13 15 -12 15 17 0 17
-9 37 -24 45 -34z m929 28 c0 -4 -6 -13 -12 -20 -11 -11 -9 -12 10 -6 13 4 22
2 22 -4 0 -6 14 -27 32 -47 l32 -36 -24 -44 c-13 -24 -27 -40 -30 -36 -3 4
-25 -3 -50 -15 -24 -13 -41 -23 -37 -23 5 0 5 -5 1 -11 -4 -8 -9 -7 -14 2 -6
9 -12 8 -25 -5 -17 -17 -116 -68 -121 -63 -5 4 9 20 55 62 24 22 41 35 38 29
-4 -7 0 -14 8 -18 8 -3 14 -2 13 2 -3 17 15 40 28 35 15 -5 124 45 124 57 0 4
-27 -7 -59 -24 -33 -17 -62 -28 -66 -25 -3 4 19 33 49 65 37 40 50 60 40 62
-8 2 -11 9 -7 15 5 9 2 8 -8 0 -12 -9 -18 -10 -27 -1 -8 8 -15 8 -27 -2 -20
-17 -19 -8 6 34 13 22 26 33 35 29 8 -3 14 -8 14 -12z m370 -53 c0 -11 6 -16
20 -13 11 2 18 0 15 -5 -9 -15 12 -47 43 -66 16 -9 37 -32 47 -51 16 -30 17
-36 4 -44 -7 -5 -28 -8 -45 -5 -31 4 -31 4 -19 -22 8 -15 18 -50 23 -78 7 -40
6 -51 -5 -51 -7 0 -13 10 -13 21 -1 12 -10 37 -20 56 -11 19 -28 53 -39 74
l-19 40 5 -65 c6 -59 5 -63 -11 -50 -12 10 -15 23 -11 45 4 17 -1 50 -9 75 -9
24 -16 45 -16 46 0 7 51 -9 56 -17 4 -6 -2 -8 -15 -3 -16 5 -20 3 -15 -9 3 -8
9 -15 12 -14 4 1 22 -6 40 -16 19 -9 41 -15 49 -12 9 4 21 2 28 -4 9 -8 14 -6
18 5 4 8 1 14 -6 12 -7 -1 -11 4 -10 11 2 6 -3 13 -10 13 -6 1 -19 2 -27 3 -8
0 -19 11 -26 23 -6 13 -13 20 -17 17 -3 -3 -3 5 0 18 3 15 2 19 -4 10 -8 -10
-15 -8 -35 8 -29 22 -48 26 -48 9 0 -5 5 -7 12 -3 7 5 9 2 6 -8 -5 -11 0 -15
14 -14 12 0 22 -5 24 -12 1 -7 0 -9 -2 -4 -7 13 -54 2 -54 -13 0 -7 7 -29 16
-50 8 -20 14 -47 12 -59 -2 -16 -9 -9 -28 31 -31 66 -60 78 -57 23 1 -21 5
-36 9 -34 16 10 7 -77 -13 -132 l-22 -58 -23 28 c-13 15 -24 34 -24 42 0 8 -3
14 -7 14 -5 0 -7 39 -6 87 2 80 1 86 -12 69 -9 -12 -11 -22 -6 -26 14 -8 2
-70 -16 -88 -8 -8 -21 -25 -30 -38 -8 -13 -19 -24 -23 -24 -15 0 3 42 31 73
40 44 36 52 -5 11 -19 -19 -42 -34 -52 -33 -11 0 -14 3 -6 6 20 8 15 33 -5 26
-17 -6 -16 -5 0 12 11 10 16 26 13 37 -2 11 -2 26 1 34 11 29 18 12 17 -41 -1
-30 2 -55 5 -55 4 0 8 24 9 53 1 28 5 65 8 81 5 25 8 27 16 13 5 -10 21 -17
38 -17 26 0 30 -4 31 -27 1 -49 9 -107 23 -163 12 -49 14 -51 14 -20 0 19 -5
74 -12 121 l-12 86 42 12 c36 11 45 20 73 73 22 44 28 64 21 73 -8 9 -7 14 2
18 14 5 37 -36 38 -65z m-395 -8 c4 -6 12 -7 18 -4 7 4 1 -5 -12 -19 -14 -15
-21 -27 -16 -27 4 0 0 -9 -10 -20 -12 -13 -21 -17 -25 -10 -4 6 -13 -9 -20
-32 -8 -26 -15 -36 -17 -26 -2 9 3 31 12 48 19 36 15 48 -8 25 -9 -8 -22 -15
-29 -15 -7 0 9 20 36 45 50 47 61 52 71 35z m-803 -14 c7 5 8 3 3 -6 -6 -10
-4 -12 9 -7 10 4 15 3 11 -3 -6 -10 9 -15 30 -10 6 1 6 -2 2 -6 -4 -5 15 -19
44 -31 29 -13 50 -26 47 -29 -3 -3 -42 13 -86 35 -44 22 -82 38 -86 36 -3 -3
-4 -2 -1 2 3 3 -3 12 -13 20 -15 13 -15 13 6 3 12 -6 28 -8 34 -4z m708 -93
c0 -7 -20 -34 -45 -61 -25 -26 -45 -44 -45 -41 0 15 25 76 38 94 17 23 52 28
52 8z m650 7 c0 -5 -2 -10 -4 -10 -3 0 -8 5 -11 10 -3 6 -1 10 4 10 6 0 11 -4
11 -10z m-77 -42 c-2 -5 -10 -8 -18 -8 -8 0 -16 3 -18 8 -3 4 5 7 18 7 13 0
21 -3 18 -7z m-993 -8 c0 -5 -5 -10 -11 -10 -5 0 -7 5 -4 10 3 6 8 10 11 10 2
0 4 -4 4 -10z m47 4 c-3 -3 -12 -4 -19 -1 -8 3 -5 6 6 6 11 1 17 -2 13 -5z
m507 -145 c-17 -19 -17 -20 1 -13 13 5 16 4 11 -4 -4 -7 -14 -12 -23 -12 -9 0
-25 -7 -35 -16 -14 -14 -20 -14 -33 -4 -8 7 -15 22 -14 34 0 20 1 21 9 1 5
-11 9 -14 9 -7 1 7 8 20 16 28 8 9 15 23 14 32 0 12 -3 9 -10 -7 -14 -34 -20
-21 -9 18 8 28 7 31 -5 21 -8 -7 -15 -22 -16 -34 0 -11 -3 -15 -6 -8 -15 39
25 82 44 48 6 -12 11 -9 20 10 10 22 10 24 -3 14 -22 -19 -16 1 9 28 l22 24 8
-67 c7 -57 6 -70 -9 -86z m276 130 c0 -6 -4 -7 -10 -4 -5 3 -10 11 -10 16 0 6
5 7 10 4 6 -3 10 -11 10 -16z m15 -39 c-3 -5 -1 -10 5 -10 6 0 8 -5 4 -11 -4
-8 -9 -7 -15 2 -7 12 -3 29 7 29 3 0 2 -4 -1 -10z m193 -24 c-7 -8 -15 -12
-17 -11 -5 6 10 25 20 25 5 0 4 -6 -3 -14z m-68 -83 c0 -7 -4 -13 -10 -13 -5
0 -6 7 -3 17 4 9 2 14 -3 11 -5 -4 -18 0 -29 8 -10 8 -14 14 -9 14 6 0 15 -5
22 -12 9 -9 12 -9 12 -1 0 7 -4 15 -10 18 -5 3 -10 14 -10 23 1 19 39 -45 40
-65z m-276 52 c-4 -8 1 -26 10 -40 18 -27 21 -39 7 -30 -5 3 -13 -5 -16 -17
-12 -38 -46 -88 -56 -82 -6 4 -6 11 1 19 6 8 10 26 9 42 -4 50 1 70 22 97 23
29 31 33 23 11z m201 -36 c-4 -10 -2 -19 4 -19 14 0 8 -45 -11 -88 -18 -41
-36 -25 -34 31 0 20 -1 37 -4 37 -3 0 -6 20 -8 45 l-3 46 31 -16 c24 -12 30
-21 25 -36z m-64 -26 c0 -10 2 -34 4 -53 l4 -35 -14 27 c-8 15 -14 38 -13 52
3 29 18 36 19 9z m143 -34 c-2 -5 -14 -1 -24 9 -26 22 -25 24 5 10 13 -6 22
-15 19 -19z m-804 -3 c-17 -15 -119 -74 -109 -62 8 9 112 75 119 76 2 0 -2 -6
-10 -14z m260 -1 c0 -8 -4 -15 -10 -15 -5 0 -10 7 -10 15 0 8 5 15 10 15 6 0
10 -7 10 -15z m-280 -41 c-8 -8 -23 -20 -34 -25 -13 -7 -9 -1 9 15 34 29 43
33 25 10z m873 -34 c3 -11 1 -18 -4 -14 -5 3 -9 12 -9 20 0 20 7 17 13 -6z
m-148 -21 c11 -17 0 -20 -21 -4 -17 13 -17 14 -2 15 9 0 20 -5 23 -11z m385
-5 l25 -15 -25 7 c-14 3 -29 10 -34 15 -16 14 6 10 34 -7z"/>
<path d="M2032 1515 c0 -16 2 -22 5 -12 2 9 2 23 0 30 -3 6 -5 -1 -5 -18z"/>
<path d="M2055 1523 c4 -10 10 -29 13 -43 5 -22 3 -24 -11 -11 -21 17 -24 -4
-3 -24 12 -12 15 -11 21 12 7 31 -3 83 -17 83 -6 0 -7 -7 -3 -17z"/>
<path d="M509 1363 c-13 -16 -12 -17 4 -4 9 7 17 15 17 17 0 8 -8 3 -21 -13z"/>
<path d="M1365 861 c-3 -5 -2 -12 3 -15 5 -3 9 1 9 9 0 17 -3 19 -12 6z"/>
<path d="M1701 824 c0 -11 3 -14 6 -6 3 7 2 16 -1 19 -3 4 -6 -2 -5 -13z"/>
<path d="M1680 761 c0 -6 4 -13 10 -16 6 -3 7 1 4 9 -7 18 -14 21 -14 7z"/>
<path d="M1560 607 c-14 -13 -32 -22 -40 -20 -10 3 -9 0 3 -7 18 -12 24 -8 56
33 19 24 10 21 -19 -6z"/>
<path d="M1942 805 c0 -16 2 -22 5 -12 2 9 2 23 0 30 -3 6 -5 -1 -5 -18z"/>
<path d="M1792 728 c74 -134 196 -169 235 -68 12 32 12 33 -2 16 -8 -11 -15
-26 -15 -33 0 -15 -32 -33 -60 -33 -43 0 -101 43 -137 102 -42 67 -55 77 -21
16z"/>
<path d="M2052 754 c-7 -8 -10 -19 -6 -26 5 -7 10 -3 16 12 10 28 7 33 -10 14z"/>
<path d="M1890 739 c0 -3 11 -29 25 -58 28 -57 42 -60 64 -15 8 16 18 37 22
46 12 25 -11 35 -28 13 -18 -26 -17 -44 2 -19 16 20 15 14 -5 -41 -11 -29 -12
-29 -26 -11 -8 11 -11 29 -7 44 4 18 2 23 -8 20 -8 -3 -19 2 -26 11 -7 9 -13
13 -13 10z"/>
<path d="M1815 600 c-3 -5 -1 -10 4 -10 6 0 11 5 11 10 0 6 -2 10 -4 10 -3 0
-8 -4 -11 -10z"/>
<path d="M2002 433 c-1 -17 -5 -40 -8 -50 -5 -17 -5 -17 6 0 6 9 9 32 7 50
l-4 32 -1 -32z"/>
<path d="M1705 621 c-14 -27 -5 -55 10 -31 3 5 3 10 -1 10 -4 0 1 9 10 19 11
12 13 21 7 25 -6 4 -17 -7 -26 -23z"/>
<path d="M2838 2473 c7 -3 16 -2 19 1 4 3 -2 6 -13 5 -11 0 -14 -3 -6 -6z"/>
<path d="M1000 2419 c0 -22 30 -122 40 -133 11 -11 -17 110 -30 133 -8 14 -9
14 -10 0z"/>
<path d="M1799 2413 c-13 -16 -12 -17 4 -4 9 7 17 15 17 17 0 8 -8 3 -21 -13z"/>
<path d="M2291 2413 c-1 -13 8 -37 19 -55 22 -36 28 -84 8 -72 -8 5 -9 2 -4
-12 7 -16 14 -78 16 -133 0 -25 14 -2 15 27 4 99 5 107 15 92 7 -10 10 -11 10
-2 0 7 -7 15 -15 18 -11 4 -12 11 -6 23 7 11 3 25 -16 49 -14 18 -29 45 -33
60 -7 24 -8 25 -9 5z"/>
<path d="M2400 2423 c0 -5 5 -15 10 -23 7 -12 9 -10 7 8 -1 19 -17 33 -17 15z"/>
<path d="M2817 2419 c7 -7 15 -10 18 -7 3 3 -2 9 -12 12 -14 6 -15 5 -6 -5z"/>
<path d="M1508 2343 c-3 -75 -2 -91 6 -82 8 9 14 159 6 159 -5 0 -10 -35 -12
-77z"/>
<path d="M1539 2388 c0 -13 -4 -50 -8 -82 -6 -50 -5 -62 10 -77 17 -17 18 -17
24 0 3 10 2 36 -3 57 -5 22 -7 55 -4 75 2 21 -1 40 -7 43 -7 5 -11 -2 -12 -16z
m8 -115 c-3 -10 -5 -2 -5 17 0 19 2 27 5 18 2 -10 2 -26 0 -35z"/>
<path d="M1351 2374 c0 -11 3 -14 6 -6 3 7 2 16 -1 19 -3 4 -6 -2 -5 -13z"/>
<path d="M2280 2361 c0 -6 5 -13 10 -16 6 -3 10 1 10 9 0 9 -4 16 -10 16 -5 0
-10 -4 -10 -9z"/>
<path d="M1825 2300 c-18 -19 -31 -26 -36 -19 -3 6 -10 11 -15 12 -5 1 -8 6
-6 12 2 5 -6 1 -17 -9 -16 -15 -24 -16 -34 -7 -11 9 -17 7 -28 -6 -12 -16 -12
-17 1 -6 24 18 55 -9 41 -35 -9 -16 -8 -20 5 -18 9 1 20 9 25 17 7 11 9 11 9
1 0 -8 12 0 26 17 14 17 29 29 34 26 4 -2 15 4 24 14 29 32 1 32 -29 1z m35
16 c0 -2 -8 -10 -17 -17 -16 -13 -17 -12 -4 4 13 16 21 21 21 13z m-76 -58
c-3 -5 -9 -6 -14 -3 -5 3 -13 -3 -19 -12 -8 -15 -9 -12 -6 12 2 17 4 31 4 33
1 1 10 -3 20 -10 11 -7 17 -16 15 -20z"/>
<path d="M2306 2317 c3 -10 9 -15 12 -12 3 3 0 11 -7 18 -10 9 -11 8 -5 -6z"/>
<path d="M1651 2278 c-13 -38 -13 -38 -2 -38 13 0 32 58 21 65 -4 3 -13 -9
-19 -27z"/>
<path d="M2113 2288 c-4 -7 -8 -19 -9 -26 -2 -10 1 -10 12 -1 7 6 12 15 9 19
-3 5 3 11 12 13 16 4 16 5 1 6 -9 0 -20 -5 -25 -11z"/>
<path d="M2027 2265 c-16 -14 -32 -23 -36 -20 -5 2 -16 -4 -26 -14 -24 -27 -1
-22 58 13 26 15 44 32 41 37 -7 11 -4 13 -37 -16z"/>
<path d="M1863 2270 c-13 -5 -23 -11 -23 -14 0 -7 40 6 46 15 6 10 6 10 -23
-1z"/>
<path d="M1050 2258 c0 -16 23 -68 31 -68 5 0 3 12 -3 28 -12 27 -28 51 -28
40z"/>
<path d="M1378 2250 c-7 -23 3 -50 19 -50 10 0 11 5 5 18 -5 9 -11 24 -14 32
-4 13 -5 13 -10 0z"/>
<path d="M1807 2242 c-24 -27 -21 -36 4 -11 11 11 19 23 16 25 -2 2 -11 -4
-20 -14z"/>
<path d="M2050 2236 c0 -2 8 -10 18 -17 15 -13 16 -12 3 4 -13 16 -21 21 -21
13z"/>
<path d="M2023 2213 c4 -3 1 -13 -6 -22 -11 -14 -10 -14 5 -2 16 12 16 31 1
31 -4 0 -3 -3 0 -7z"/>
<path d="M2160 2134 c0 -9 -5 -12 -12 -8 -7 4 -8 3 -4 -5 6 -9 12 -9 24 1 10
7 18 13 20 14 2 1 -4 4 -13 7 -9 4 -15 1 -15 -9z"/>
<path d="M1441 2125 c1 -19 18 -51 18 -35 0 8 -4 22 -9 30 -5 8 -9 11 -9 5z"/>
<path d="M174 2085 c-9 -23 3 -45 25 -45 27 0 36 31 15 47 -23 17 -33 16 -40
-2z m40 -26 c-8 -14 -34 -11 -34 4 0 8 3 17 7 20 9 9 34 -13 27 -24z"/>
<path d="M1518 2060 c-4 -25 -11 -55 -14 -67 -5 -17 -2 -23 10 -23 14 0 16 7
11 38 -3 20 -2 31 1 24 6 -13 24 -7 24 9 0 6 -4 8 -9 4 -5 -3 -11 9 -13 27 -3
31 -4 30 -10 -12z"/>
<path d="M2036 2084 c-23 -23 -20 -30 4 -9 11 10 20 20 20 22 0 7 -9 2 -24
-13z"/>
<path d="M2096 2063 c-6 -14 -5 -15 5 -6 7 7 10 15 7 18 -3 3 -9 -2 -12 -12z"/>
<path d="M1456 2063 c-9 -9 -7 -33 3 -33 12 0 22 28 12 34 -5 3 -11 3 -15 -1z"/>
<path d="M1480 2018 c0 -36 4 -35 14 5 4 16 2 27 -4 27 -5 0 -10 -14 -10 -32z"/>
<path d="M1991 2041 c-11 -7 -11 -9 0 -13 12 -4 11 -8 -1 -24 -14 -17 -14 -18
2 -6 9 7 16 22 15 33 -1 10 -1 19 -2 19 0 0 -6 -4 -14 -9z"/>
<path d="M939 2028 c0 -2 -2 -11 -4 -21 -3 -15 -1 -16 12 -5 9 7 18 12 20 11
10 -8 53 -1 48 7 -5 8 -73 15 -76 8z"/>
<path d="M885 1960 c-3 -6 1 -7 9 -4 18 7 21 14 7 14 -6 0 -13 -4 -16 -10z"/>
<path d="M900 1941 c0 -6 4 -12 8 -15 5 -3 9 1 9 9 0 8 -4 15 -9 15 -4 0 -8
-4 -8 -9z"/>
<path d="M1834 1915 c4 -25 13 -27 43 -10 15 9 20 14 10 11 -10 -3 -27 -2 -37
4 -14 7 -18 6 -16 -5z"/>
<path d="M1795 1910 c-3 -5 -2 -10 4 -10 5 0 13 5 16 10 3 6 2 10 -4 10 -5 0
-13 -4 -16 -10z"/>
<path d="M2020 1864 c0 -2 14 -30 31 -62 17 -32 28 -67 26 -79 -2 -12 -1 -21
2 -18 8 4 47 -51 56 -80 4 -11 -3 -5 -15 13 -26 38 -26 38 -26 13 0 -11 3 -18
7 -16 3 3 12 -7 19 -20 7 -13 18 -22 23 -18 6 3 7 1 3 -6 -4 -6 2 -36 13 -67
12 -30 21 -74 22 -97 0 -30 3 -36 8 -23 7 18 8 18 14 -5 10 -35 8 -59 -3 -34
-8 19 -9 19 -9 -1 -1 -14 7 -24 19 -27 11 -3 20 -2 20 2 0 4 -14 52 -31 107
-17 54 -30 113 -30 131 1 17 -6 38 -14 47 -9 9 -13 20 -10 26 3 6 -3 24 -15
40 -12 17 -18 30 -13 30 4 0 0 5 -10 11 -9 6 -15 14 -12 20 4 5 1 9 -4 9 -6 0
-10 3 -10 8 3 17 -2 30 -21 52 -11 12 -17 26 -15 30 3 4 -2 10 -10 14 -8 3
-15 3 -15 0z"/>
<path d="M1925 1828 c-10 -20 -22 -35 -26 -33 -3 3 -6 -1 -6 -8 1 -15 -12 -86
-20 -107 -3 -8 -5 -22 -4 -31 1 -9 -5 -22 -13 -28 -9 -7 -18 -29 -22 -50 -4
-20 -11 -38 -15 -41 -5 -3 1 -11 12 -18 16 -10 20 -10 18 0 -5 25 13 78 23 72
6 -4 8 -3 5 3 -3 5 -1 27 4 49 29 106 52 180 61 191 6 7 8 18 5 25 -2 7 -12
-4 -22 -24z"/>
<path d="M2010 1823 c0 -11 60 -110 60 -100 0 11 -49 107 -55 107 -3 0 -5 -3
-5 -7z"/>
<path d="M770 1801 c0 -6 4 -13 10 -16 6 -3 7 1 4 9 -7 18 -14 21 -14 7z"/>
<path d="M840 1795 c0 -8 4 -15 10 -15 5 0 7 7 4 15 -4 8 -8 15 -10 15 -2 0
-4 -7 -4 -15z"/>
<path d="M2610 1779 c0 -5 -4 -7 -10 -4 -11 7 -2 -23 13 -42 14 -18 25 -16 37
8 9 15 8 24 -1 35 -13 16 -39 19 -39 3z m38 -21 c-3 -7 -11 -13 -18 -13 -7 0
-15 6 -17 13 -3 7 4 12 17 12 13 0 20 -5 18 -12z"/>
<path d="M810 1681 c0 -11 5 -23 10 -26 6 -3 10 -24 10 -46 0 -54 40 -130 91
-170 34 -26 53 -34 98 -37 50 -3 59 -1 80 22 31 33 44 102 25 131 -20 31 -64
50 -78 34 -8 -9 -8 -10 1 -5 13 7 60 -38 69 -68 13 -39 -36 -86 -89 -86 -41 1
-103 37 -137 81 -19 24 -37 46 -41 49 -6 4 -6 24 -1 83 1 9 10 17 20 17 14 0
15 -2 2 -10 -12 -8 -11 -10 8 -10 12 0 22 4 22 9 0 5 -10 13 -22 17 -13 4 -27
12 -31 18 -6 7 -7 4 -3 -6 3 -10 1 -20 -4 -23 -6 -4 -10 3 -10 14 0 11 -4 23
-10 26 -5 3 -10 -3 -10 -14z m301 -128 c13 -16 12 -17 -3 -4 -10 7 -18 15 -18
17 0 8 8 3 21 -13z m-110 -128 c34 -5 56 -2 80 10 l34 16 -25 -22 c-21 -18
-33 -20 -79 -16 -45 5 -60 12 -93 44 -22 21 -44 46 -50 56 -5 10 12 -4 39 -31
39 -41 56 -51 94 -57z"/>
<path d="M963 1658 c-31 -35 -34 -43 -22 -77 11 -32 47 -50 70 -35 9 5 6 10
-9 15 -31 12 -29 54 3 75 13 8 29 13 35 9 14 -9 13 8 -2 23 -19 19 -53 14 -75
-10z m44 -4 c-33 -18 -49 -52 -35 -76 5 -11 5 -18 -1 -18 -11 0 -21 24 -21 51
0 26 35 59 63 59 21 -1 20 -2 -6 -16z"/>
<path d="M1626 1650 c3 -14 10 -32 15 -40 7 -13 8 -13 8 0 0 8 -6 26 -15 40
l-15 25 7 -25z"/>
<path d="M874 1622 c3 -5 2 -12 -4 -14 -5 -2 -4 -13 5 -28 7 -14 21 -40 30
-57 10 -18 19 -33 21 -33 9 0 -9 56 -22 71 -8 8 -14 25 -14 37 0 11 -5 24 -12
28 -6 4 -8 3 -4 -4z"/>
<path d="M772 1602 l-23 -18 22 -1 c12 -1 19 1 15 4 -3 3 2 12 12 19 9 7 13
13 7 13 -5 1 -20 -7 -33 -17z"/>
<path d="M1487 1599 c7 -7 15 -10 18 -7 3 3 -2 9 -12 12 -14 6 -15 5 -6 -5z"/>
<path d="M2111 1568 c-1 -10 9 -61 20 -114 17 -78 19 -104 11 -132 -6 -20 -10
-38 -7 -40 2 -2 9 14 15 36 11 34 9 55 -13 153 -14 63 -25 106 -26 97z"/>
<path d="M1925 1473 c-4 -49 -13 -98 -21 -110 -12 -20 -12 -22 1 -17 16 6 19
16 31 94 12 83 14 120 5 120 -5 0 -12 -39 -16 -87z"/>
<path d="M2182 1540 c7 -14 13 -27 14 -30 0 -3 3 -12 7 -20 3 -8 8 -22 10 -30
3 -8 6 -3 6 13 1 15 -4 27 -10 27 -5 0 -8 4 -5 9 3 5 -3 20 -15 32 l-20 24 13
-25z"/>
<path d="M306 1512 c-2 -4 7 -12 20 -19 26 -12 32 -5 12 15 -14 14 -25 15 -32
4z"/>
<path d="M113 1493 c-7 -3 -13 -8 -13 -12 0 -8 79 -1 84 8 5 7 -53 11 -71 4z"/>
<path d="M280 1483 c0 -14 14 -30 37 -42 18 -9 21 -9 17 1 -6 16 -54 52 -54
41z"/>
<path d="M609 1473 c-13 -16 -12 -17 4 -4 9 7 17 15 17 17 0 8 -8 3 -21 -13z"/>
<path d="M1841 1474 c0 -11 3 -14 6 -6 3 7 2 16 -1 19 -3 4 -6 -2 -5 -13z"/>
<path d="M153 1453 c-24 -2 -43 -9 -43 -14 0 -14 69 -7 82 8 6 7 9 12 7 11 -2
-1 -23 -3 -46 -5z"/>
<path d="M1143 1426 c-29 -27 -37 -41 -37 -69 0 -38 26 -77 52 -77 13 0 13 3
-1 18 -10 10 -17 32 -17 49 0 64 91 84 136 30 23 -27 24 -36 22 -132 -3 -91
-1 -107 18 -131 50 -68 100 -79 144 -32 20 22 27 72 12 82 -5 3 -7 -7 -4 -22
4 -31 -18 -57 -59 -67 -20 -5 -33 0 -55 19 l-29 25 39 -13 c44 -15 70 -11 88
13 10 13 10 14 -2 4 -18 -16 -80 -16 -101 0 -26 21 -28 42 -8 102 10 32 19 68
18 79 0 12 -9 -10 -20 -49 -27 -94 -43 -108 -34 -30 4 33 9 61 10 63 1 2 -2
22 -7 45 -12 55 -52 97 -92 97 -45 -1 -89 -41 -89 -80 0 -23 -3 -27 -9 -16
-12 22 14 78 45 99 54 35 127 7 164 -63 13 -24 23 -37 23 -29 0 25 -39 79 -72
99 -50 30 -92 26 -135 -14z m174 -288 c-3 -8 -6 -5 -6 6 -1 11 2 17 5 13 3 -3
4 -12 1 -19z"/>
<path d="M2225 1431 c-3 -5 -1 -12 5 -16 5 -3 10 1 10 9 0 18 -6 21 -15 7z"/>
<path d="M1969 1393 c-3 -43 -10 -92 -20 -141 -13 -65 -6 -80 9 -20 14 56 27
178 18 178 -3 0 -7 -8 -7 -17z"/>
<path d="M710 1356 c0 -2 9 -6 20 -9 11 -3 18 -1 14 4 -5 9 -34 13 -34 5z"/>
<path d="M681 1339 c-1 -26 52 -58 64 -38 4 5 3 9 -2 8 -26 -5 -45 4 -53 24
-6 15 -9 17 -9 6z"/>
<path d="M766 1290 c-22 -17 -35 -30 -28 -30 6 0 14 5 17 11 4 6 13 8 20 5 15
-5 38 17 28 27 -12 13 13 7 27 -5 12 -11 12 -10 1 5 -17 22 -19 22 -65 -13z"/>
<path d="M1416 1271 c-10 -11 -16 -29 -13 -43 4 -21 4 -21 6 4 1 31 30 51 58
42 15 -5 15 -4 3 5 -22 15 -35 14 -54 -8z"/>
<path d="M1433 1247 c-30 -38 -18 -68 25 -66 12 0 10 3 -6 10 -15 5 -22 16
-20 26 5 27 37 28 63 3 26 -24 55 -21 55 6 0 8 -6 14 -12 11 -7 -2 -12 -10
-10 -16 4 -20 -14 -12 -27 12 -13 25 -53 34 -68 14z"/>
<path d="M295 1217 c-8 -20 -15 -43 -15 -51 0 -7 -7 -16 -15 -20 -8 -3 -15
-15 -15 -26 0 -21 1 -21 30 -3 17 9 30 21 30 26 0 4 3 6 8 3 4 -2 16 2 26 9
16 13 17 18 6 44 -7 17 -18 36 -26 42 -11 9 -17 4 -29 -24z m43 -16 c8 -24 7
-31 -5 -35 -28 -11 -40 6 -31 42 10 37 21 35 36 -7z"/>
<path d="M312 1200 c0 -14 2 -19 5 -12 2 6 2 18 0 25 -3 6 -5 1 -5 -13z"/>
<path d="M490 1226 c0 -2 8 -10 18 -17 15 -13 16 -12 3 4 -13 16 -21 21 -21
13z"/>
<path d="M235 1200 c4 -6 11 -8 16 -5 14 9 11 15 -7 15 -8 0 -12 -5 -9 -10z"/>
<path d="M1910 1158 c-7 -29 -16 -58 -21 -64 -5 -6 -5 -14 -1 -19 4 -4 -4 -4
-18 0 -19 6 -22 5 -14 -5 15 -15 51 -4 58 18 7 21 16 122 11 122 -2 0 -9 -24
-15 -52z"/>
<path d="M210 1165 c-11 -13 -10 -14 5 -9 14 6 16 4 10 -6 -5 -9 -4 -11 4 -6
6 4 9 11 6 16 -3 4 1 11 7 13 9 4 7 6 -3 6 -9 1 -22 -6 -29 -14z"/>
<path d="M481 1133 c-31 -38 -38 -53 -23 -53 5 0 16 15 25 33 l17 32 -7 -30
c-3 -16 -10 -32 -15 -33 -5 -2 -4 -10 3 -18 16 -20 -1 -18 -23 3 -18 16 -20
15 -41 -6 -22 -22 -22 -22 -3 -37 30 -21 49 -17 90 21 35 32 37 37 31 75 -4
22 -10 42 -15 45 -5 3 -22 -12 -39 -32z m42 -28 c1 -15 -3 -30 -10 -32 -7 -3
-11 10 -10 36 2 44 17 41 20 -4z"/>
<path d="M655 1140 c-21 -23 -9 -26 18 -6 10 8 14 17 9 20 -5 3 -17 -3 -27
-14z"/>
<path d="M135 1140 c-16 -7 -17 -9 -3 -9 9 -1 20 4 23 9 7 11 7 11 -20 0z"/>
<path d="M170 1136 c0 -8 14 -16 33 -19 43 -6 43 -4 2 16 -28 13 -35 14 -35 3z"/>
<path d="M2550 1124 c0 -10 36 -44 47 -44 25 0 13 26 -17 37 -16 6 -30 9 -30
7z"/>
<path d="M125 1111 c-6 -11 9 -23 19 -14 9 9 7 23 -3 23 -6 0 -12 -4 -16 -9z"/>
<path d="M2707 1105 c-6 -15 10 -32 20 -21 4 3 1 6 -5 6 -6 0 -9 7 -6 15 4 8
4 15 1 15 -3 0 -7 -7 -10 -15z"/>
<path d="M20 1065 c-22 -35 -26 -65 -10 -65 6 0 10 7 10 16 0 8 11 30 25 48
19 25 21 33 10 33 -9 0 -24 -15 -35 -32z"/>
<path d="M2541 1059 c-17 -49 -13 -73 14 -99 14 -13 25 -20 25 -16 0 5 7 3 16
-5 13 -10 17 -10 25 2 6 10 9 10 9 2 0 -7 4 -13 9 -13 5 0 7 9 4 20 -3 11 -9
17 -14 14 -5 -3 -14 6 -21 21 -11 24 -12 24 -30 8 -10 -9 -21 -13 -25 -10 -3
4 -1 7 5 7 7 0 12 12 12 28 0 22 2 24 11 12 8 -11 9 -9 4 10 -4 14 -13 31 -20
38 -10 11 -14 8 -24 -19z m20 -29 c-6 -26 -10 -31 -15 -18 -4 9 -2 26 4 38 16
30 20 22 11 -20z"/>
<path d="M2720 1055 c0 -9 9 -15 23 -15 16 0 18 3 8 9 -11 7 -11 9 0 14 8 3 4
6 -8 6 -14 1 -23 -5 -23 -14z"/>
<path d="M693 1028 c-4 -7 -8 -15 -9 -18 -8 -41 -18 -60 -27 -51 -7 7 -5 17 8
31 10 11 14 20 9 19 -5 0 -24 -18 -42 -39 -28 -33 -31 -41 -22 -64 5 -14 14
-26 20 -26 15 0 12 16 -5 30 -9 7 -13 15 -10 18 3 3 14 -3 25 -13 11 -10 23
-15 27 -12 4 4 -1 13 -10 20 -15 10 -11 12 25 12 41 0 43 1 44 30 1 28 1 28
-3 3 -3 -20 -10 -28 -24 -28 -23 0 -23 3 -5 54 8 23 16 33 19 25 3 -9 6 -9 6
-2 1 18 -16 25 -26 11z"/>
<path d="M142 1007 c-7 -8 -7 -18 -2 -27 6 -8 10 -10 11 -5 0 6 2 18 4 28 4
20 1 21 -13 4z"/>
<path d="M2160 1005 c0 -9 7 -27 16 -41 13 -19 14 -28 5 -37 -13 -13 -14 -102
-1 -132 5 -13 6 -1 3 31 -3 28 0 67 6 87 10 29 9 42 -3 71 -16 38 -26 46 -26
21z"/>
<path d="M2138 965 c19 -41 24 -40 16 3 -4 18 -12 32 -19 32 -9 0 -9 -9 3 -35z"/>
<path d="M152 940 c0 -14 2 -19 5 -12 2 6 2 18 0 25 -3 6 -5 1 -5 -13z"/>
<path d="M842 948 c-7 -7 -11 -23 -11 -37 2 -24 2 -24 6 -3 3 14 12 22 26 23
17 1 18 2 4 6 -9 2 -15 9 -12 14 8 13 1 11 -13 -3z"/>
<path d="M2497 901 c-9 -16 -17 -36 -17 -44 0 -18 79 -99 82 -83 4 33 4 42 -3
51 -3 6 -6 17 -6 26 0 21 -23 79 -32 79 -4 0 -14 -13 -24 -29z m22 -53 c1 -5
-6 -8 -14 -8 -16 0 -19 9 -8 36 6 16 7 16 14 -2 4 -10 8 -22 8 -26z m18 10
c-3 -7 -5 -2 -5 12 0 14 2 19 5 13 2 -7 2 -19 0 -25z"/>
<path d="M185 900 c-3 -6 1 -7 9 -4 18 7 21 14 7 14 -6 0 -13 -4 -16 -10z"/>
<path d="M92 857 c-23 -23 -42 -48 -42 -55 0 -7 -7 -12 -15 -12 -8 0 -15 -4
-15 -9 0 -11 31 -24 38 -16 3 3 -1 5 -9 5 -8 0 -4 6 9 16 12 8 22 24 22 34 0
10 6 23 13 27 14 9 52 53 46 53 -3 0 -24 -19 -47 -43z"/>
<path d="M226 873 c-6 -14 -5 -15 5 -6 7 7 10 15 7 18 -3 3 -9 -2 -12 -12z"/>
<path d="M886 865 c-14 -13 -26 -28 -26 -34 0 -5 -3 -16 -6 -24 -8 -22 28 -38
65 -31 27 6 31 11 31 38 0 17 -5 38 -11 46 -8 11 -9 5 -4 -22 4 -24 2 -38 -5
-38 -5 0 -13 0 -17 0 -11 1 -3 62 9 78 19 22 -8 13 -36 -13z m7 -25 c-6 -24
-23 -37 -23 -18 0 12 18 38 26 38 1 0 0 -9 -3 -20z"/>
<path d="M1295 830 c-3 -5 -4 -14 -1 -19 4 -5 0 -12 -6 -14 -10 -4 -10 -6 1
-6 8 -1 4 -8 -10 -21 -13 -10 -19 -19 -14 -19 6 0 24 11 40 25 20 17 24 22 10
17 -18 -6 -19 -5 -5 12 12 15 12 17 1 10 -11 -6 -13 -4 -8 8 7 19 2 23 -8 7z"/>
<path d="M2712 720 c-1 -83 2 -120 8 -110 11 17 11 160 0 205 -4 18 -7 -20 -8
-95z"/>
<path d="M1505 820 c3 -5 8 -10 11 -10 2 0 4 5 4 10 0 6 -5 10 -11 10 -5 0 -7
-4 -4 -10z"/>
<path d="M710 817 c0 -2 21 -18 48 -36 35 -25 40 -26 17 -6 -30 26 -65 49 -65
42z"/>
<path d="M2449 810 c-9 -5 -22 -23 -29 -40 -11 -26 -9 -34 15 -75 17 -31 32
-45 43 -43 16 3 24 33 14 52 -3 5 -7 27 -9 49 -4 52 -14 68 -34 57z m-2 -50
c0 -40 -10 -53 -21 -25 -4 12 11 65 19 65 1 0 2 -18 2 -40z m26 3 c4 -19 2
-33 -3 -33 -6 0 -10 17 -10 37 0 43 5 41 13 -4z"/>
<path d="M829 774 c-18 -22 0 -48 37 -52 16 -2 26 0 22 4 -4 4 0 13 10 20 16
12 15 13 -8 15 -14 1 -29 1 -33 0 -5 -1 -6 3 -3 8 11 17 -11 21 -25 5z m41
-35 c0 -14 -16 -11 -29 5 -10 12 -8 13 8 9 12 -3 21 -9 21 -14z"/>
<path d="M1107 720 c-14 -11 -26 -28 -26 -38 0 -9 -2 -30 -5 -47 -5 -29 6 -45
32 -45 6 0 12 10 12 21 0 17 5 20 25 17 13 -3 22 -1 19 4 -3 4 1 11 9 14 12 4
12 11 3 37 -22 64 -30 68 -69 37z m46 3 c3 -5 8 -23 12 -40 6 -28 4 -33 -12
-33 -11 0 -28 6 -38 14 -18 13 -18 15 -2 40 17 26 32 33 40 19z m-43 -104 c0
-6 -4 -7 -10 -4 -5 3 -10 11 -10 16 0 6 5 7 10 4 6 -3 10 -11 10 -16z"/>
<path d="M1137 713 c-4 -3 -7 -18 -6 -32 1 -26 1 -25 10 3 9 31 7 41 -4 29z"/>
<path d="M2519 723 c-13 -16 -12 -17 4 -4 16 13 21 21 13 21 -2 0 -10 -8 -17
-17z"/>
<path d="M880 690 c35 -24 54 -31 30 -11 -14 11 -29 21 -35 21 -5 0 -3 -5 5
-10z"/>
<path d="M1330 610 c-9 -6 -10 -10 -3 -10 6 0 15 5 18 10 8 12 4 12 -15 0z"/>
<path d="M1145 600 c-3 -6 1 -7 9 -4 18 7 21 14 7 14 -6 0 -13 -4 -16 -10z"/>
<path d="M2716 529 c-3 -17 -6 -45 -6 -61 0 -19 -4 -27 -12 -22 -7 4 -8 3 -4
-5 13 -21 25 -1 32 55 7 60 0 84 -10 33z"/>
<path d="M2360 530 c-19 -4 -28 -8 -20 -10 17 -3 16 -3 58 5 18 3 34 0 38 -7
5 -7 2 -9 -8 -6 -26 10 -39 -6 -17 -21 16 -9 19 -10 13 0 -5 9 -2 10 10 6 10
-4 15 -3 11 3 -3 6 -1 10 6 10 7 0 4 7 -7 15 -21 16 -31 16 -84 5z"/>
<path d="M2310 523 c0 -15 51 -75 58 -68 3 3 17 -5 31 -17 14 -13 19 -15 12
-6 -7 10 -11 24 -8 32 4 10 0 14 -14 11 -14 -3 -19 1 -17 13 2 11 -4 17 -20
17 -12 0 -27 7 -32 15 -6 9 -10 10 -10 3z m56 -44 c0 -13 -3 -15 -13 -7 -7 6
-13 14 -13 18 0 3 6 7 13 7 7 0 13 -8 13 -18z"/>
<path d="M1389 453 c-13 -16 -12 -17 4 -4 16 13 21 21 13 21 -2 0 -10 -8 -17
-17z"/>
<path d="M1211 421 c-10 -7 -7 -9 12 -8 14 1 23 5 20 10 -6 9 -15 9 -32 -2z"/>
<path d="M198 413 c6 -2 18 -2 25 0 6 3 1 5 -13 5 -14 0 -19 -2 -12 -5z"/>
<path d="M2735 380 c4 -6 11 -8 16 -5 14 9 11 15 -7 15 -8 0 -12 -5 -9 -10z"/>
<path d="M2770 365 c0 -4 17 -14 38 -23 47 -21 92 -54 149 -112 37 -37 41 -39
24 -13 -12 17 -40 46 -64 65 -23 18 -44 35 -47 39 -6 7 -86 49 -95 49 -3 0 -5
-2 -5 -5z"/>
<path d="M228 343 c7 -3 16 -2 19 1 4 3 -2 6 -13 5 -11 0 -14 -3 -6 -6z"/>
<path d="M2268 344 c-3 -3 3 -27 13 -55 11 -27 19 -58 19 -69 0 -10 5 -22 11
-26 7 -4 9 0 6 12 -17 54 -15 73 2 29 11 -27 20 -42 20 -32 1 26 -26 87 -39
87 -6 0 -9 4 -5 9 3 5 -1 16 -9 24 -8 8 -12 17 -9 21 4 3 4 6 1 6 -2 0 -7 -2
-10 -6z"/>
<path d="M1263 332 c-13 -2 -23 -7 -23 -12 0 -4 19 -4 42 2 71 15 59 22 -19
10z"/>
<path d="M1115 321 l-30 -7 35 -6 c42 -6 110 1 110 13 0 5 -6 7 -12 5 -37 -12
-78 -15 -73 -6 3 6 5 9 3 9 -2 -1 -16 -4 -33 -8z"/>
<path d="M1021 293 c-12 -10 -41 -33 -63 -50 -22 -18 -43 -33 -48 -33 -14 0
-40 -49 -34 -64 3 -9 16 -16 28 -15 21 0 21 0 -1 9 -13 5 -23 14 -23 19 0 11
66 64 146 119 27 17 41 32 33 32 -8 0 -25 -8 -38 -17z"/>
<path d="M2155 261 c1 -17 5 -34 9 -38 9 -10 7 40 -3 56 -6 9 -8 4 -6 -18z"/>
<path d="M1970 251 c0 -6 5 -13 10 -16 6 -3 10 1 10 9 0 9 -4 16 -10 16 -5 0
-10 -4 -10 -9z"/>
<path d="M1416 218 c-26 -18 -57 -39 -69 -45 -16 -9 -18 -13 -6 -13 9 0 37 16
63 36 26 20 60 40 74 44 22 7 23 8 6 9 -11 1 -42 -14 -68 -31z"/>
<path d="M2807 243 c-4 -3 -7 -28 -7 -55 l0 -48 60 0 60 0 0 55 0 55 -53 0
c-30 0 -57 -3 -60 -7z m103 -48 l0 -45 -45 0 -45 0 0 45 0 45 45 0 45 0 0 -45z"/>
<path d="M2831 198 c0 -18 3 -26 6 -18 3 8 11 18 17 22 7 5 6 8 -4 8 -13 0
-13 1 0 10 13 8 12 10 -2 10 -14 0 -18 -8 -17 -32z"/>
<path d="M2871 192 c0 -20 3 -31 6 -24 2 6 9 9 15 6 6 -4 6 1 -1 14 -8 15 -8
21 1 24 7 3 6 7 -5 11 -14 5 -17 0 -16 -31z"/>
<path d="M1740 220 c0 -5 7 -7 15 -4 8 4 15 8 15 10 0 2 -7 4 -15 4 -8 0 -15
-4 -15 -10z"/>
<path d="M2355 210 c2 -27 15 -38 15 -12 0 11 -4 23 -8 26 -5 3 -8 -4 -7 -14z"/>
<path d="M1986 204 c-9 -24 -7 -36 5 -28 8 5 10 0 6 -17 -3 -13 -8 -55 -11
-94 l-5 -70 14 70 14 70 -4 -70 c-3 -42 -1 -62 4 -50 8 20 8 20 14 0 4 -11 4
7 2 40 -2 33 -7 71 -11 85 -7 24 -6 24 25 -7 35 -36 39 -37 61 -23 12 7 12 12
2 22 -9 9 -12 8 -13 -7 0 -11 -3 -14 -6 -7 -2 6 -11 12 -19 12 -8 0 -17 13
-20 30 -4 17 -10 30 -15 30 -4 0 -14 7 -22 15 -13 13 -16 13 -21 -1z"/>
<path d="M1942 180 c0 -14 2 -19 5 -12 2 6 2 18 0 25 -3 6 -5 1 -5 -13z"/>
<path d="M1957 171 c-4 -18 -7 -43 -6 -55 0 -20 1 -21 9 -1 5 13 7 -6 5 -50
l-4 -70 10 64 c6 37 6 81 1 105 l-8 41 -7 -34z"/>
<path d="M1920 157 c0 -14 -2 -32 -5 -40 -4 -8 0 -14 9 -14 11 0 13 9 9 36 -7
44 -13 53 -13 18z"/>
<path d="M802 158 c-7 -7 -12 -16 -12 -21 0 -5 7 -1 16 7 19 20 38 10 31 -16
-4 -12 -1 -18 6 -15 7 2 13 13 13 25 1 12 -2 19 -7 17 -4 -3 -10 -1 -14 5 -8
13 -18 13 -33 -2z"/>
<path d="M990 163 c-41 -5 -58 -18 -36 -26 9 -4 16 -2 16 3 0 6 15 10 34 10
19 0 38 5 41 10 3 6 0 9 -7 8 -7 0 -29 -3 -48 -5z"/>
<path d="M1259 131 c-35 -28 -20 -32 20 -4 19 13 27 23 19 23 -9 0 -26 -9 -39
-19z"/>
<path d="M2767 115 c-3 -7 3 -15 14 -18 11 -3 19 0 19 8 0 18 -27 27 -33 10z"/>
<path d="M2843 123 c-31 -11 -8 -22 42 -20 30 1 55 -1 55 -5 0 -5 4 -8 9 -8 5
0 7 8 5 18 -4 12 -16 17 -39 18 -19 0 -32 -3 -29 -8 7 -11 -9 -10 -21 1 -6 5
-16 6 -22 4z"/>
<path d="M1943 45 c0 -27 2 -38 4 -22 2 15 2 37 0 50 -2 12 -4 0 -4 -28z"/>
</g>
</svg>
