<?xml version="1.0" standalone="no"?>
<!DOCTYPE svg PUBLIC "-//W3C//DTD SVG 20010904//EN"
 "http://www.w3.org/TR/2001/REC-SVG-20010904/DTD/svg10.dtd">
<svg version="1.0" xmlns="http://www.w3.org/2000/svg"
 width="300.000000pt" height="329.000000pt" viewBox="0 0 300.000000 329.000000"
 preserveAspectRatio="xMidYMid meet">
<metadata>
Created by potrace 1.10, written by Peter Selinger 2001-2011
</metadata>
<g transform="translate(0.000000,329.000000) scale(0.100000,-0.100000)"
fill="#000000" stroke="none">
<path d="M62 2688 l3 -553 2 547 3 548 1430 0 1430 0 -1 -1562 c0 -954 -5
-1570 -10 -1580 -8 -14 -23 -18 -69 -18 -33 0 -60 -4 -60 -10 0 -6 32 -10 75
-10 l75 0 0 1595 0 1595 -1440 0 -1440 0 2 -552z"/>
<path d="M1538 3183 c6 -2 18 -2 25 0 6 3 1 5 -13 5 -14 0 -19 -2 -12 -5z"/>
<path d="M1305 3130 c-3 -6 1 -7 9 -4 18 7 21 14 7 14 -6 0 -13 -4 -16 -10z"/>
<path d="M1199 3093 c-13 -16 -12 -17 4 -4 9 7 17 15 17 17 0 8 -8 3 -21 -13z"/>
<path d="M1455 3026 c-80 -21 -101 -33 -125 -65 -12 -17 -25 -29 -30 -26 -5 3
-12 0 -16 -6 -4 -8 -3 -9 4 -5 7 4 12 1 12 -8 0 -9 -4 -16 -10 -16 -5 0 -10
-5 -10 -12 0 -6 -7 -19 -15 -28 -8 -9 -17 -34 -20 -56 -3 -21 -7 -53 -11 -70
-4 -21 -1 -34 10 -43 9 -8 16 -29 16 -50 0 -25 6 -41 19 -51 11 -7 18 -17 16
-20 -2 -4 2 -7 10 -7 8 0 11 5 8 10 -3 5 0 8 7 5 7 -2 18 -21 25 -41 7 -21 25
-56 40 -78 14 -23 25 -42 23 -44 -2 -2 -48 -10 -103 -19 -132 -21 -395 -73
-402 -80 -11 -10 83 -4 122 9 22 7 85 20 140 30 106 17 112 18 189 33 27 6 59
7 70 2 17 -6 12 -9 -24 -15 -25 -4 -49 -11 -55 -15 -5 -5 -21 -8 -35 -7 -14 0
-96 -14 -183 -33 -142 -30 -163 -32 -209 -21 -31 7 -55 8 -62 2 -14 -12 -110
-38 -159 -44 -33 -4 -38 -2 -44 22 -13 52 -7 88 20 120 41 49 34 71 -9 26 -19
-21 -33 -43 -31 -50 3 -6 -1 -12 -9 -12 -9 0 -12 7 -9 18 7 22 -39 59 -74 59
-26 0 -26 0 7 -20 21 -13 35 -31 38 -50 4 -16 10 -27 15 -24 5 3 4 -7 -1 -21
-6 -15 -10 -39 -10 -54 0 -23 -5 -30 -25 -33 -21 -4 -25 -1 -25 17 0 12 -7 29
-16 36 -14 11 -18 11 -28 -1 -6 -8 -20 -15 -31 -15 -11 0 -21 -9 -25 -20 -3
-12 -13 -20 -25 -20 -13 0 -19 -6 -19 -18 2 -14 -1 -15 -12 -6 -17 14 -44 5
-44 -15 0 -17 -8 -20 -122 -44 -56 -12 -91 -15 -97 -9 -10 10 -55 -17 -80 -47
-11 -13 -9 -17 15 -27 56 -21 84 -23 84 -5 0 10 8 16 23 16 12 0 54 7 92 15
103 22 101 22 119 -37 9 -29 30 -78 48 -108 18 -30 31 -62 30 -71 -2 -8 7 -24
18 -34 11 -10 20 -24 20 -31 0 -8 18 -25 40 -39 23 -14 45 -36 49 -48 5 -13
17 -29 27 -37 9 -8 41 -45 71 -82 36 -46 63 -70 81 -73 15 -3 64 -17 109 -32
l82 -27 100 102 c54 56 101 102 104 102 5 0 2 -42 -9 -122 -4 -30 -2 -53 4
-61 9 -10 7 -19 -5 -37 -9 -13 -11 -20 -5 -16 7 4 12 2 12 -3 0 -6 -5 -11 -12
-11 -7 0 5 -9 27 -20 21 -11 41 -18 43 -15 3 3 0 5 -7 5 -7 0 -10 4 -7 9 3 5
0 14 -8 20 -11 9 -15 9 -19 -1 -7 -21 -11 120 -4 176 4 31 27 50 27 22 0 -8 7
-19 16 -24 9 -5 17 -13 17 -18 1 -5 6 -8 11 -6 11 4 -10 -25 -41 -55 -13 -12
-19 -24 -14 -27 5 -3 14 1 21 9 7 8 16 15 21 15 13 0 11 -28 -3 -32 -7 -3 -6
-7 5 -11 15 -5 17 1 17 41 0 45 0 46 16 24 9 -13 13 -30 10 -38 -3 -8 -2 -12
4 -9 5 3 16 -7 24 -22 18 -35 56 -68 57 -50 0 6 4 3 9 -8 5 -11 9 -14 9 -7 1
6 12 12 25 12 14 0 28 4 31 10 4 6 -5 8 -22 4 -50 -10 -82 11 -108 69 -28 64
-72 120 -88 110 -7 -3 -9 -2 -4 2 4 5 -2 19 -14 31 -20 21 -21 31 -17 163 2
93 8 145 16 153 9 9 12 8 12 -5 0 -23 10 -21 43 8 28 25 35 45 16 45 -5 0 -7
5 -3 12 4 7 3 8 -4 4 -8 -4 -12 0 -12 11 0 15 -2 16 -10 3 -6 -10 -6 -16 0
-18 15 -6 12 -32 -5 -38 -8 -4 -12 -11 -8 -17 3 -6 1 -7 -5 -3 -7 4 -12 15
-12 25 0 22 -19 41 -41 41 -22 0 -62 -64 -56 -87 4 -15 5 -14 6 3 1 27 46 68
65 61 20 -8 21 -37 1 -37 -8 0 -14 -3 -14 -7 1 -5 1 -15 -1 -23 -1 -11 -4 -9
-9 5 -5 12 -7 -9 -6 -53 3 -58 0 -74 -13 -83 -16 -10 -16 -10 0 -5 14 4 17 -3
17 -52 0 -48 -4 -61 -27 -84 -14 -16 -29 -28 -34 -28 -18 0 -88 -54 -88 -68 0
-8 -11 -25 -26 -38 -23 -22 -29 -23 -70 -13 -24 6 -44 16 -44 21 0 6 -7 7 -16
4 -10 -4 -25 1 -35 10 -11 10 -19 14 -19 10 0 -4 -10 -1 -22 5 l-23 12 20 -23
20 -24 -32 23 c-34 23 -42 34 -20 25 7 -2 26 9 41 25 16 17 34 28 39 24 6 -3
7 -1 3 5 -11 19 14 24 38 9 25 -17 46 -7 46 23 0 13 2 13 11 0 8 -12 9 -9 5
12 -3 14 -9 33 -12 42 -11 29 14 16 45 -23 17 -21 31 -47 32 -57 0 -18 1 -17
9 1 11 26 12 37 3 32 -5 -3 -16 6 -26 19 -19 25 -11 33 13 12 8 -7 6 -3 -5 10
-10 12 -21 18 -25 13 -3 -6 -11 -1 -18 9 -11 18 -9 20 15 20 21 0 24 3 14 9
-12 8 -12 12 -2 25 15 18 36 22 25 4 -4 -6 -3 -8 4 -5 7 5 7 15 -1 32 -16 33
-20 32 -42 -9 -11 -19 -29 -40 -41 -46 -18 -10 -21 -18 -17 -50 3 -21 1 -45
-4 -54 -8 -15 -11 -15 -35 3 -14 11 -28 18 -30 15 -3 -3 -8 2 -11 11 -9 21 5
19 36 -5 32 -26 45 -26 22 0 -10 11 -24 20 -32 20 -8 0 -11 5 -7 12 4 6 3 8
-3 5 -6 -4 -14 0 -17 9 -9 25 -7 34 9 34 9 0 12 -6 9 -15 -4 -8 -1 -15 5 -15
6 0 11 5 11 11 0 8 4 8 14 0 10 -9 15 -8 19 3 7 18 -7 29 -58 44 -22 6 -55 22
-74 34 -19 13 -42 28 -51 33 -9 6 -31 25 -49 43 -33 32 -51 40 -51 22 0 -5 5
-10 10 -10 6 0 10 -8 10 -17 0 -9 8 -25 17 -36 17 -18 17 -20 -21 -52 -24 -20
-34 -35 -27 -39 6 -4 11 -3 11 3 0 6 10 15 21 22 17 9 24 8 35 -5 8 -9 11 -14
8 -11 -4 3 -22 -4 -40 -16 l-33 -20 -16 30 c-11 22 -20 29 -33 24 -22 -8 -13
1 17 17 21 11 23 10 18 -4 -6 -14 -3 -15 16 -5 29 15 37 24 15 16 -12 -4 -21
1 -28 14 -6 10 -7 19 -3 18 20 -3 24 2 13 16 -17 20 -30 10 -24 -20 5 -29 -7
-32 -30 -9 -9 9 -16 11 -16 4 0 -6 -5 -8 -10 -5 -11 7 30 45 49 45 6 0 11 8
11 18 0 12 6 9 20 -13 14 -22 16 -32 8 -42 -6 -8 -9 -16 -6 -18 3 -3 11 1 17
9 10 12 7 24 -15 62 -16 26 -23 45 -17 41 7 -4 14 -3 18 3 3 5 2 10 -4 10 -5
0 -2 18 6 40 13 33 14 47 5 79 -16 53 -15 71 6 71 11 0 25 -18 40 -53 27 -64
28 -87 1 -121 -16 -21 -17 -26 -5 -26 17 0 56 46 56 66 0 18 9 18 53 -1 42
-17 71 -20 43 -4 -10 6 -27 20 -37 30 -20 20 -45 26 -33 8 4 -8 0 -7 -15 1
-29 15 -61 69 -60 100 l2 25 4 -25 c5 -26 52 -95 59 -87 2 2 -2 17 -11 33 -8
16 -15 41 -15 56 0 34 37 48 150 54 127 8 369 61 400 89 14 12 38 31 53 40
l29 19 -21 -35 c-21 -34 -26 -66 -15 -105 4 -16 11 -20 32 -16 24 5 25 3 14
-11 -8 -9 -11 -25 -7 -37 4 -12 2 -20 -5 -20 -6 0 -8 5 -4 12 4 6 3 8 -4 5 -6
-5 -8 0 -5 13 3 11 0 20 -6 20 -7 0 -9 -11 -7 -26 7 -36 13 -40 36 -26 16 10
20 10 20 -2 0 -7 9 -25 20 -39 14 -17 20 -40 20 -74 0 -55 9 -93 20 -93 5 0 4
15 -1 32 -5 18 -9 47 -9 65 l0 33 33 -20 c17 -11 46 -20 62 -20 30 -1 29 -2
-35 -60 -35 -32 -67 -57 -71 -55 -3 2 -6 -14 -7 -35 -1 -22 3 -40 8 -40 6 0
10 11 10 24 0 13 6 27 13 29 9 4 9 6 -1 6 -7 1 -10 6 -7 11 9 15 25 2 25 -21
0 -11 -4 -18 -9 -14 -6 3 -9 -4 -8 -15 1 -11 6 -21 12 -21 5 -1 -5 -4 -23 -8
-31 -6 -32 -7 -19 -26 13 -17 18 -18 42 -7 25 12 27 15 24 75 l-3 62 54 51
c35 33 78 61 118 78 35 14 86 39 114 56 28 17 59 32 69 33 10 1 22 11 28 24
l11 23 -40 -25 c-43 -27 -55 -31 -45 -14 4 6 -3 21 -15 34 l-22 23 42 39 c60
54 83 65 103 50 17 -12 13 -62 -4 -51 -5 3 -6 -2 -2 -11 3 -10 0 -21 -8 -26
-11 -6 -8 -9 9 -9 16 0 22 6 22 23 1 12 7 33 15 47 19 34 18 40 -6 40 -34 0
-54 17 -74 59 -10 23 -25 41 -33 41 -37 0 7 12 194 54 346 78 617 144 674 165
l55 20 -44 0 c-47 1 -354 -52 -713 -123 -180 -36 -218 -41 -223 -29 -8 21 -7
23 14 23 27 0 68 36 88 77 15 33 15 38 1 63 -15 26 -14 29 3 43 14 12 18 28
16 66 -2 27 -8 55 -14 63 -5 7 -13 24 -16 38 -10 42 -118 147 -163 159 -68 18
-137 20 -189 7z m133 -27 c2 -5 14 -9 27 -9 13 0 27 -4 30 -10 3 -5 14 -10 24
-10 10 0 38 -22 62 -50 40 -46 46 -59 51 -101 1 -10 8 -15 15 -12 8 3 13 0 11
-8 -2 -8 -14 -17 -28 -20 -22 -6 -21 -7 9 -8 34 -1 34 -1 15 -20 -10 -10 -25
-16 -31 -13 -7 2 -13 -1 -13 -8 0 -8 9 -10 25 -6 29 7 32 -4 7 -27 -17 -15
-20 -15 -41 -1 -21 15 -21 17 -5 42 l17 27 -21 -19 c-12 -11 -22 -16 -22 -13
0 3 -14 2 -30 -3 -27 -8 -34 -5 -64 26 -23 24 -36 31 -39 22 -3 -7 -4 1 -2 18
3 25 -2 34 -26 48 -16 9 -33 14 -39 11 -8 -5 -58 -15 -85 -17 -5 0 -26 3 -46
7 -28 5 -40 3 -54 -12 -10 -10 -22 -18 -26 -18 -5 0 -15 -9 -23 -20 -9 -11
-16 -16 -16 -11 0 18 52 76 62 70 6 -4 8 -2 4 4 -3 5 0 13 6 15 7 3 3 6 -9 6
-34 1 -28 27 15 70 50 50 100 68 57 21 -14 -16 -38 -80 -30 -80 2 0 17 24 34
53 17 30 41 58 53 64 25 11 121 5 126 -8z m-286 -144 c0 -5 -5 -11 -11 -13 -6
-2 -11 4 -11 13 0 9 5 15 11 13 6 -2 11 -8 11 -13z m262 -51 c-4 -17 1 -34 20
-59 l27 -35 -32 0 c-31 0 -99 -36 -99 -52 0 -13 23 -9 41 8 10 9 35 22 56 29
38 13 41 21 28 60 -3 11 2 7 12 -10 20 -33 52 -42 85 -24 15 8 19 8 13 0 -3
-6 3 -19 15 -29 18 -15 19 -21 9 -49 -6 -18 -18 -33 -26 -33 -13 0 -15 -9 -10
-46 3 -29 1 -41 -4 -33 -7 11 -9 9 -9 -7 0 -25 -77 -134 -111 -158 -13 -9 -39
-16 -57 -16 -31 0 -32 -1 -17 -16 12 -12 19 -14 27 -6 8 8 15 8 24 1 18 -15
27 -8 93 77 l59 74 18 -50 c14 -40 22 -49 36 -44 10 3 18 3 18 1 0 -8 -129
-68 -180 -84 -54 -17 -139 -32 -138 -24 1 3 -5 18 -12 34 -10 20 -11 30 -2 39
8 8 10 6 6 -9 -3 -11 1 -25 10 -32 14 -12 16 -10 16 14 0 17 -13 42 -35 66
-19 21 -37 50 -41 64 -3 14 -10 25 -16 25 -5 0 -6 5 -3 10 3 6 3 10 -2 10 -11
0 -47 82 -63 142 -9 35 -10 55 -1 79 15 43 13 51 -4 14 -11 -23 -14 -25 -15
-10 0 11 9 35 20 53 19 31 36 38 89 33 13 -1 46 3 73 9 39 8 54 7 66 -2 13
-11 15 -10 9 5 -4 11 -3 16 3 12 6 -3 7 -17 4 -31z m-269 -55 c-10 -30 -18
-58 -20 -64 -1 -5 -6 -3 -10 7 -6 15 33 123 42 114 2 -2 -3 -28 -12 -57z m501
-105 c2 -11 -3 -14 -14 -9 -14 5 -15 4 -4 -6 18 -19 15 -34 -5 -18 -15 13 -15
12 -5 -8 18 -33 14 -51 -4 -24 -15 21 -15 26 0 58 17 35 28 37 32 7z m-491
-32 c-8 -9 -25 20 -18 31 3 5 10 2 15 -7 6 -10 7 -20 3 -24z m1252 2 c-3 -3
-12 -4 -19 -1 -8 3 -5 6 6 6 11 1 17 -2 13 -5z m-57 -14 c-14 -4 -36 -8 -50
-8 -22 0 -22 1 5 8 17 4 39 8 50 8 16 0 15 -2 -5 -8z m-747 -24 c3 -8 -1 -20
-9 -26 -12 -10 -14 -8 -14 14 0 28 14 35 23 12z m647 4 c-14 -4 -38 -8 -55 -8
-29 1 -29 1 5 8 50 11 83 11 50 0z m-245 -45 c-325 -71 -405 -87 -417 -82 -10
3 -9 6 2 10 15 5 302 64 445 91 138 27 117 13 -30 -19z m-148 -51 c-3 -3 -12
-4 -19 -1 -8 3 -5 6 6 6 11 1 17 -2 13 -5z m-184 -41 c-7 -2 -19 -2 -25 0 -7
3 -2 5 12 5 14 0 19 -2 13 -5z m-46 -9 c-3 -3 -12 -4 -19 -1 -8 3 -5 6 6 6 11
1 17 -2 13 -5z m-352 -74 c-11 -5 -31 -9 -44 -9 -23 -1 -24 -2 -6 -21 10 -11
29 -20 42 -20 26 0 31 -18 7 -27 -10 -4 -29 7 -52 30 l-35 36 34 9 c19 6 43
10 54 10 20 1 20 1 0 -8z m373 -67 c-13 -8 -80 -73 -149 -144 -97 -100 -131
-129 -151 -129 -33 0 -59 10 -53 20 3 4 -2 7 -11 6 -31 -2 -39 28 -26 103 6
39 19 86 27 103 11 26 13 28 9 7 -6 -31 37 -79 71 -79 31 0 122 33 106 38 -7
2 -23 0 -34 -6 -12 -6 -37 -13 -55 -16 -28 -5 -34 -2 -42 20 -14 35 -13 61 1
47 7 -7 30 -4 77 14 37 13 77 26 90 28 13 2 34 11 48 20 14 9 32 14 40 11 8
-3 18 2 21 11 5 14 10 12 30 -12 l24 -27 -23 -15z m-1137 -48 c15 -14 77 -3
182 30 30 10 53 13 63 7 12 -7 -1 -12 -47 -21 -138 -27 -161 -33 -149 -41 8
-5 5 -9 -9 -13 -12 -3 -19 -1 -15 5 11 18 -70 -4 -95 -26 -13 -11 -21 -15 -17
-8 4 7 4 12 -1 11 -20 -4 -33 2 -33 15 0 9 10 13 30 11 17 -1 30 1 30 4 0 4
15 5 32 3 l33 -5 -30 26 c-17 15 -24 27 -17 27 9 0 11 12 7 43 l-5 42 13 -48
c8 -27 21 -54 28 -62z m549 68 c-19 -9 -46 -17 -60 -18 -75 -6 -170 -29 -210
-51 -25 -14 -46 -21 -48 -15 -2 6 -27 9 -60 7 -70 -5 -65 -4 188 49 229 48
240 50 190 28z m137 -13 c-4 -16 0 -20 18 -20 13 0 27 -5 30 -10 4 -6 11 -8
16 -5 12 8 11 -1 -2 -50 -7 -22 -15 -62 -18 -90 l-7 -50 -21 34 c-12 18 -19
41 -15 49 4 11 2 13 -8 7 -13 -8 -12 -1 6 70 4 16 3 17 -5 5 -10 -13 -11 -13
-11 0 -1 8 -6 4 -12 -10 l-10 -25 -9 23 c-5 13 -6 29 -2 35 4 7 8 17 9 22 0 6
2 16 2 23 1 6 12 12 23 12 16 0 20 -5 16 -20z m-823 -56 c8 -29 3 -39 -13 -29
-13 8 -15 55 -2 55 5 0 12 -12 15 -26z m-38 -12 c4 -18 18 -34 42 -47 19 -11
38 -26 40 -34 10 -31 -89 27 -111 66 -10 17 -2 43 13 43 6 0 13 -13 16 -28z
m981 6 c-3 -8 -6 -5 -6 6 -1 11 2 17 5 13 3 -3 4 -12 1 -19z m-993 -58 c14 0
45 -44 46 -65 0 -10 -7 -39 -16 -62 -14 -37 -19 -41 -32 -31 -13 12 -14 10 -1
-9 8 -13 18 -23 23 -23 5 0 7 3 3 6 -3 4 5 28 18 55 14 26 22 55 19 63 -4 11
0 16 10 16 9 0 17 -9 18 -22 2 -42 3 -47 10 -54 4 -3 3 -14 -2 -24 -5 -9 -11
-29 -13 -44 -2 -15 -10 -32 -18 -37 -12 -7 -12 -9 1 -9 18 -1 -29 -29 -49 -30
-8 0 -20 8 -27 18 -20 25 -64 112 -64 125 0 7 23 23 50 36 27 14 48 26 46 28
-2 2 -24 -6 -50 -18 -49 -24 -56 -23 -59 9 0 12 -3 19 -5 17 -3 -2 -11 2 -19
10 -8 8 -22 15 -31 15 -15 0 -15 -2 -2 -11 12 -8 12 -9 -5 -7 -11 1 -25 -1
-32 -5 -6 -4 -14 -3 -18 3 -7 11 25 26 73 33 17 3 35 8 40 11 14 8 43 -4 36
-15 -3 -5 2 -6 10 -3 12 5 11 9 -5 25 -20 20 -23 31 -12 43 4 4 17 -4 28 -18
12 -14 24 -26 29 -26z m293 44 c-3 -3 -12 -4 -19 -1 -8 3 -5 6 6 6 11 1 17 -2
13 -5z m-112 -35 c-4 -6 -14 -8 -22 -5 -11 5 -13 2 -9 -10 5 -14 4 -15 -9 -4
-13 11 -13 15 -3 21 19 12 50 11 43 -2z m1060 -20 c-4 -5 1 -9 9 -9 9 0 16 -4
16 -10 0 -9 -14 -14 -32 -11 -5 0 -8 -4 -8 -10 0 -6 -7 -8 -16 -5 -8 3 -12 2
-9 -4 3 -6 0 -10 -7 -10 -7 0 -24 -10 -38 -21 -18 -14 -6 -11 37 10 34 17 66
31 70 31 12 -1 -108 -68 -141 -80 -28 -10 -29 -9 -14 7 9 10 40 44 69 75 28
32 56 55 60 52 5 -3 7 -10 4 -15z m-1459 -41 c4 -6 3 -8 -4 -4 -6 3 -13 2 -17
-3 -3 -6 -13 -7 -22 -4 -15 6 -14 7 3 14 27 11 32 10 40 -3z m-101 -8 c22 8
30 8 36 -2 4 -7 6 -15 3 -17 -3 -3 -8 0 -12 6 -6 9 -15 7 -35 -6 -15 -9 -24
-20 -21 -24 3 -3 -10 -1 -30 5 l-36 11 28 17 c15 9 30 13 33 8 3 -5 18 -4 34
2z m376 -220 c-13 -11 -31 -20 -40 -20 -10 0 -5 7 14 19 39 26 56 26 26 1z
m149 -45 c7 -8 10 -21 7 -29 -3 -8 -1 -17 6 -20 9 -5 9 -7 0 -12 -7 -3 -13
-10 -13 -16 0 -6 6 -6 15 2 12 10 18 10 30 0 13 -11 12 -15 -9 -31 -29 -23
-35 -23 -55 -5 -14 13 -19 12 -36 0 -19 -15 -19 -15 7 -10 15 2 30 0 33 -5 4
-5 1 -9 -6 -9 -7 0 -10 -2 -7 -5 3 -3 17 -1 31 4 30 12 39 -2 24 -36 -13 -29
-31 -30 -24 -2 4 16 3 18 -8 9 -18 -15 -35 -4 -35 22 0 16 -3 18 -13 10 -10
-8 -16 -5 -26 11 -8 12 -10 19 -6 15 5 -4 13 -1 19 8 6 8 18 16 26 17 20 3 40
16 40 26 0 4 -10 13 -22 20 -18 9 -19 10 -3 6 16 -5 18 -4 8 6 -15 15 -17 39
-4 39 5 0 14 -7 21 -15z m-155 -25 c3 -5 -1 -10 -10 -10 -9 0 -13 5 -10 10 3
6 8 10 10 10 2 0 7 -4 10 -10z m266 -65 c1 -14 2 -31 3 -37 0 -7 -7 -21 -17
-31 -10 -10 -15 -22 -12 -27 4 -6 1 -10 -4 -10 -15 0 -14 17 5 45 14 22 14 24
-6 35 -11 6 -18 15 -15 20 3 5 1 11 -5 15 -5 3 -10 15 -10 26 0 18 2 19 30 4
20 -10 30 -24 31 -40z m-48 -80 c-8 -46 -27 -61 -58 -47 -14 6 -25 17 -25 23
0 8 7 6 18 -4 10 -10 21 -17 24 -17 7 0 21 51 27 95 1 6 5 3 10 -5 6 -8 7 -28
4 -45z m41 -50 c-30 -40 -57 -47 -52 -12 2 17 9 21 27 19 14 -1 22 1 18 4 -4
4 1 13 11 21 9 8 11 12 5 8 -14 -7 -18 7 -6 19 4 3 11 0 15 -9 6 -10 1 -26
-18 -50z"/>
<path d="M1461 2994 c-15 -11 -19 -20 -12 -27 7 -7 2 -21 -15 -46 -34 -51 -30
-58 13 -16 20 19 43 35 52 36 12 0 11 2 -4 8 -17 7 -16 9 10 15 21 5 35 2 56
-13 21 -15 27 -17 23 -6 -7 18 31 21 42 3 5 -7 2 -9 -8 -5 -30 11 -13 -18 37
-63 29 -26 39 -32 24 -15 -52 61 -54 66 -39 75 9 5 20 4 30 -3 10 -7 10 -5 -2
8 -17 18 -64 27 -150 28 -35 1 -45 13 -23 29 21 16 -11 8 -34 -8z m16 -19 c0
-8 -4 -15 -8 -15 -11 0 -20 16 -12 24 11 11 20 7 20 -9z m-2 -35 c-3 -5 -11
-10 -16 -10 -6 0 -7 5 -4 10 3 6 11 10 16 10 6 0 7 -4 4 -10z"/>
<path d="M1362 2930 c0 -14 2 -19 5 -12 2 6 2 18 0 25 -3 6 -5 1 -5 -13z"/>
<path d="M1481 2904 l-34 -11 57 -6 c46 -5 61 -11 78 -32 14 -18 24 -23 31
-16 7 7 15 7 25 -2 13 -11 14 -9 1 13 -7 14 -13 28 -14 32 0 3 -4 10 -9 15 -5
5 -6 3 -2 -4 10 -18 -9 -16 -24 2 -7 8 -18 15 -24 15 -6 0 -4 -5 4 -11 11 -8
8 -9 -15 -4 -16 4 -32 10 -35 14 -3 4 -20 2 -39 -5z m133 -56 c-8 -12 -27 6
-30 28 -2 14 0 14 17 -1 10 -10 16 -22 13 -27z"/>
<path d="M1690 2892 c9 -19 30 -23 30 -5 0 4 -3 3 -7 0 -3 -4 -12 1 -20 11
-13 15 -13 15 -3 -6z"/>
<path d="M1361 2876 c2 -2 15 -9 29 -16 23 -12 24 -12 11 3 -7 10 -20 17 -29
17 -8 0 -13 -2 -11 -4z"/>
<path d="M1480 2869 c0 -5 9 -9 20 -9 11 0 20 2 20 4 0 2 -9 6 -20 9 -11 3
-20 1 -20 -4z"/>
<path d="M1727 2794 c5 -14 -7 -18 -37 -14 -12 1 -12 -1 -3 -11 9 -9 19 -7 43
8 29 18 30 21 12 25 -15 4 -19 2 -15 -8z"/>
<path d="M1372 2700 c0 -19 2 -27 5 -17 2 9 2 25 0 35 -3 9 -5 1 -5 -18z"/>
<path d="M1623 2695 c2 -5 18 -10 35 -10 18 0 31 -2 29 -5 -39 -72 -45 -110
-17 -110 6 0 6 7 -2 20 -10 16 -9 23 10 43 12 13 22 33 22 44 0 17 -7 22 -40
25 -25 2 -39 0 -37 -7z"/>
<path d="M1711 2664 c0 -11 3 -14 6 -6 3 7 2 16 -1 19 -3 4 -6 -2 -5 -13z"/>
<path d="M1528 2654 c-33 -18 -35 -29 -7 -44 16 -9 27 -7 52 7 43 25 48 53 10
53 -15 -1 -40 -8 -55 -16z m51 -20 c-15 -18 -60 -19 -54 -1 3 6 19 12 35 13
24 1 28 -1 19 -12z"/>
<path d="M1338 2653 c6 -2 18 -2 25 0 6 3 1 5 -13 5 -14 0 -19 -2 -12 -5z"/>
<path d="M1380 2651 c0 -5 6 -11 13 -14 6 -2 4 -3 -5 -2 -9 2 -25 -3 -35 -11
-17 -13 -17 -15 1 -29 11 -8 27 -15 35 -14 11 0 8 4 -6 11 -13 6 -23 15 -23
20 0 11 63 6 72 -7 4 -5 9 -7 13 -4 8 9 -35 59 -51 59 -8 0 -14 -4 -14 -9z"/>
<path d="M1695 2630 c-3 -5 -2 -10 4 -10 5 0 13 5 16 10 3 6 2 10 -4 10 -5 0
-13 -4 -16 -10z"/>
<path d="M1442 2547 c-2 -42 1 -49 24 -59 23 -11 29 -10 45 11 10 13 16 27 13
32 -3 5 -13 0 -23 -12 -26 -33 -49 -19 -54 33 l-4 43 -1 -48z"/>
<path d="M1569 2476 c-3 -3 -77 -12 -132 -15 -4 -1 8 -15 28 -32 l36 -32 37
34 c20 19 39 35 41 37 2 1 2 4 -1 7 -2 3 -7 3 -9 1z m-44 -36 c-3 -5 -16 -10
-28 -10 -18 0 -19 2 -7 10 20 13 43 13 35 0z"/>
<path d="M1705 2370 c-8 -13 5 -13 25 0 13 8 13 10 -2 10 -9 0 -20 -4 -23 -10z"/>
<path d="M1640 2340 c-19 -11 -30 -19 -25 -19 6 0 26 8 45 19 19 11 31 19 25
19 -5 0 -26 -8 -45 -19z"/>
<path d="M1528 2303 c7 -3 16 -2 19 1 4 3 -2 6 -13 5 -11 0 -14 -3 -6 -6z"/>
<path d="M1768 2322 c-4 -12 1 -18 13 -18 22 0 24 9 5 25 -11 9 -15 7 -18 -7z"/>
<path d="M1646 2291 c-4 -7 -5 -15 -2 -18 9 -9 19 4 14 18 -4 11 -6 11 -12 0z"/>
<path d="M1675 2251 c3 -5 -4 -13 -16 -16 -11 -4 -19 -9 -16 -11 2 -2 18 1 36
7 24 9 29 14 19 20 -17 12 -31 11 -23 0z"/>
<path d="M1475 2040 c-18 -8 -17 -9 8 -9 16 -1 26 3 22 9 -3 6 -7 10 -8 9 -1
0 -11 -4 -22 -9z"/>
<path d="M1370 2230 c-9 -6 -10 -10 -3 -10 6 0 15 5 18 10 8 12 4 12 -15 0z"/>
<path d="M478 2133 c7 -3 16 -2 19 1 4 3 -2 6 -13 5 -11 0 -14 -3 -6 -6z"/>
<path d="M408 2123 c6 -2 18 -2 25 0 6 3 1 5 -13 5 -14 0 -19 -2 -12 -5z"/>
<path d="M95 2100 c-3 -5 1 -10 10 -10 9 0 13 5 10 10 -3 6 -8 10 -10 10 -2 0
-7 -4 -10 -10z"/>
<path d="M695 1760 c-4 -6 -11 -7 -17 -4 -7 4 -8 2 -4 -5 6 -9 11 -9 22 0 14
11 18 19 10 19 -3 0 -8 -5 -11 -10z"/>
<path d="M750 1780 c8 -5 20 -10 25 -10 6 0 3 5 -5 10 -8 5 -19 10 -25 10 -5
0 -3 -5 5 -10z"/>
<path d="M760 1756 c0 -2 8 -10 18 -17 15 -13 16 -12 3 4 -13 16 -21 21 -21
13z"/>
<path d="M2021 2834 c0 -11 3 -14 6 -6 3 7 2 16 -1 19 -3 4 -6 -2 -5 -13z"/>
<path d="M1031 2704 c0 -11 3 -14 6 -6 3 7 2 16 -1 19 -3 4 -6 -2 -5 -13z"/>
<path d="M1831 2660 c14 -31 19 -36 19 -24 0 6 -7 19 -16 30 -14 18 -14 18 -3
-6z"/>
<path d="M1943 2340 c-18 -11 -33 -22 -33 -25 0 -3 12 2 28 12 l27 17 -26 -30
c-33 -36 -59 -87 -58 -111 0 -11 4 -8 9 9 15 50 50 96 85 112 33 16 36 16 84
-9 66 -33 121 -82 122 -109 0 -13 3 -16 6 -7 4 9 20 -9 45 -48 21 -34 36 -66
33 -71 -3 -5 -1 -11 4 -15 6 -3 8 -12 5 -19 -3 -7 2 -16 10 -19 15 -6 16 -51
1 -65 -4 -4 -5 -2 -2 5 8 13 -30 6 -38 -7 -3 -5 4 -6 15 -3 11 3 20 3 20 1 0
-5 -98 -68 -105 -68 -2 0 -6 12 -8 28 -4 25 -4 25 -6 -5 -1 -24 3 -33 15 -33
8 0 12 -4 9 -10 -3 -5 -13 -10 -21 -10 -10 0 -14 12 -14 39 0 22 -4 43 -10 46
-5 3 -10 11 -10 17 0 7 6 6 15 -2 8 -7 15 -10 15 -7 0 9 -54 57 -64 57 -4 0 2
-9 15 -20 28 -22 14 -27 -15 -5 -25 19 -99 19 -134 1 -33 -17 -78 -64 -69 -72
3 -4 25 9 47 29 51 43 78 49 127 27 54 -24 80 -56 66 -79 -9 -14 -8 -22 5 -35
14 -13 14 -16 2 -17 -8 -1 -24 -3 -35 -5 -26 -4 -206 -23 -222 -24 -14 0 -18
42 -6 54 14 13 12 44 -2 50 -8 3 -15 10 -15 16 0 6 5 8 10 5 6 -4 31 12 55 34
54 50 45 55 -12 6 -36 -30 -42 -33 -53 -20 -11 13 -9 20 9 39 17 18 21 33 18
57 l-4 34 -1 -36 c-1 -22 -10 -43 -22 -54 -12 -10 -18 -25 -16 -32 3 -7 1 -13
-3 -13 -21 0 -17 30 6 51 23 22 25 28 18 84 -4 33 -7 68 -7 78 1 26 -13 21
-27 -10 -11 -24 -10 -29 11 -45 27 -21 12 -24 -18 -4 -19 14 -22 12 -42 -29
-17 -35 -19 -50 -12 -70 8 -22 13 -24 29 -15 27 14 36 13 22 -4 -10 -12 -10
-20 0 -38 7 -13 12 -49 11 -82 -2 -46 -7 -62 -24 -76 -17 -13 -22 -29 -22 -64
-1 -39 -6 -53 -30 -76 -15 -16 -38 -30 -50 -32 -13 -2 -17 -6 -10 -10 6 -4 30
6 52 22 30 22 42 26 46 15 6 -17 -19 -39 -35 -29 -7 4 -9 3 -6 -3 6 -10 -78
-53 -104 -53 -7 0 -10 -3 -6 -6 6 -7 59 9 129 38 l47 20 -2 73 c-1 40 -5 71
-9 68 -5 -2 -8 1 -8 7 0 6 10 14 23 19 25 9 169 27 299 37 86 6 88 7 82 30 -4
15 -2 24 5 24 6 0 11 -9 11 -19 0 -19 9 -20 229 -20 126 -1 236 -4 244 -7 16
-6 23 -40 53 -244 21 -149 15 -371 -15 -479 -32 -121 -151 -332 -221 -394
l-30 -28 -45 27 c-25 14 -45 21 -45 15 0 -12 71 -51 93 -51 33 0 137 141 206
279 86 171 104 408 55 741 -26 179 -5 162 -199 158 l-165 -3 -24 50 c-13 28
-27 66 -31 85 -20 92 -117 248 -187 302 -39 30 -132 78 -150 78 -7 0 -28 -9
-45 -20z m-93 -205 c0 -8 -4 -15 -10 -15 -5 0 -7 7 -4 15 4 8 8 15 10 15 2 0
4 -7 4 -15z m-13 -53 c9 -6 8 -16 -7 -40 -19 -30 -50 -44 -50 -22 0 6 5 10 11
10 7 0 9 10 7 25 -5 22 -3 23 10 13 13 -11 15 -10 9 5 -7 18 0 22 20 9z m13
-63 c-7 -11 -14 -18 -17 -15 -3 3 0 12 7 21 18 21 23 19 10 -6z m455 -69 c-10
-16 -92 -70 -107 -70 -7 0 14 18 47 40 64 43 70 45 60 30z m39 -56 c9 -20 15
-39 12 -41 -4 -4 -67 -5 -111 -1 -25 2 -17 25 15 38 16 7 35 18 41 26 17 21
24 18 43 -22z m-487 -40 c-1 -43 -3 -52 -10 -36 -8 18 -2 92 8 92 2 0 3 -25 2
-56z"/>
<path d="M2010 2280 c0 -5 5 -10 11 -10 5 0 7 5 4 10 -3 6 -8 10 -11 10 -2 0
-4 -4 -4 -10z"/>
<path d="M1156 2231 c-18 -19 -25 -34 -20 -43 4 -7 4 -10 -1 -6 -15 14 -114
-147 -119 -193 -1 -16 -6 -32 -11 -37 -5 -4 -5 -1 0 7 6 10 4 12 -4 7 -7 -5
-10 -15 -7 -23 3 -8 2 -11 -4 -8 -5 3 -14 -3 -19 -14 -13 -24 -14 -61 -2 -61
5 0 18 -14 29 -31 l19 -31 13 47 c7 25 17 48 21 51 11 7 12 8 -6 -50 -17 -56
-19 -69 -6 -62 4 3 11 23 15 45 5 32 10 39 24 36 11 -2 19 3 19 10 0 8 -5 13
-10 12 -5 -1 -12 4 -14 11 -3 8 2 10 14 6 11 -4 14 -3 7 3 -19 14 -35 53 -28
65 4 6 3 8 -3 5 -6 -4 -13 4 -16 18 -4 26 14 58 59 101 13 12 20 24 17 27 -8
9 23 37 32 29 5 -4 5 -1 1 6 -9 16 23 44 42 37 18 -6 15 25 -4 32 -8 3 -13 12
-10 19 8 20 3 18 -28 -15z m-87 -316 c0 -5 -8 6 -19 25 -11 19 -19 40 -19 45
0 6 8 -6 19 -25 11 -19 19 -39 19 -45z m-33 -18 c-3 -12 -11 -29 -18 -37 -7
-8 -12 -13 -11 -11 2 2 -4 9 -13 16 -15 10 -15 13 -1 27 9 9 13 18 10 22 -4 3
-1 6 5 6 7 0 12 8 12 18 1 16 1 16 11 -1 6 -10 8 -28 5 -40z"/>
<path d="M1242 2240 c-15 -25 -15 -27 3 -27 9 0 15 10 15 24 0 28 -2 28 -18 3z"/>
<path d="M1988 2243 c7 -3 16 -2 19 1 4 3 -2 6 -13 5 -11 0 -14 -3 -6 -6z"/>
<path d="M2052 2236 c21 -9 25 -15 17 -23 -9 -9 -7 -12 8 -10 15 1 19 7 16 22
-4 16 -3 17 6 5 9 -13 11 -13 11 0 0 11 -11 16 -42 16 -42 1 -42 1 -16 -10z"/>
<path d="M2155 2200 c3 -5 8 -10 11 -10 2 0 4 5 4 10 0 6 -5 10 -11 10 -5 0
-7 -4 -4 -10z"/>
<path d="M1260 2168 c-1 -18 -7 -44 -15 -58 -8 -14 -14 -29 -14 -35 0 -5 6 1
14 15 14 24 14 24 10 -15 -5 -40 -5 -40 5 -7 8 25 16 32 35 32 19 0 25 -5 25
-22 -1 -22 -1 -22 -15 -4 -13 17 -15 18 -21 2 -3 -9 -1 -23 6 -31 11 -14 15
-14 31 1 11 10 19 28 19 41 0 19 -5 23 -32 24 -18 1 -36 1 -39 1 -4 -1 -4 19
-1 43 2 25 2 45 -2 45 -3 0 -6 -15 -6 -32z"/>
<path d="M1740 2185 c7 -9 15 -13 17 -11 7 7 -7 26 -19 26 -6 0 -6 -6 2 -15z"/>
<path d="M1872 2140 c0 -19 2 -27 5 -17 2 9 2 25 0 35 -3 9 -5 1 -5 -18z"/>
<path d="M1144 2053 c-18 -3 -34 -24 -53 -68 -2 -5 6 2 18 18 29 36 59 51 74
39 8 -7 16 -5 25 4 11 12 8 14 -15 13 -15 -1 -38 -4 -49 -6z"/>
<path d="M60 1062 c0 -539 -3 -987 -6 -996 -6 -14 37 -16 432 -16 289 0 435 3
428 10 -6 6 -168 11 -424 12 l-415 3 0 83 c0 46 3 86 6 88 4 2 3 21 -1 41 -4
21 -8 422 -9 892 0 470 -3 856 -6 859 -3 3 -5 -436 -5 -976z"/>
<path d="M2178 2007 c-2 -13 2 -29 10 -36 11 -11 13 -8 9 19 -7 41 -13 47 -19
17z"/>
<path d="M1988 2013 c6 -2 18 -2 25 0 6 3 1 5 -13 5 -14 0 -19 -2 -12 -5z"/>
<path d="M2048 2013 c6 -2 18 -2 25 0 6 3 1 5 -13 5 -14 0 -19 -2 -12 -5z"/>
<path d="M1081 1954 c0 -11 3 -14 6 -6 3 7 2 16 -1 19 -3 4 -6 -2 -5 -13z"/>
<path d="M2015 1950 c-3 -6 1 -7 9 -4 18 7 21 14 7 14 -6 0 -13 -4 -16 -10z"/>
<path d="M1940 1915 c-25 -13 -38 -24 -30 -24 8 0 33 11 55 24 51 32 34 32
-25 0z"/>
<path d="M1191 1914 c0 -11 3 -14 6 -6 3 7 2 16 -1 19 -3 4 -6 -2 -5 -13z"/>
<path d="M1689 1893 c-13 -16 -12 -17 4 -4 9 7 17 15 17 17 0 8 -8 3 -21 -13z"/>
<path d="M1183 1805 c0 -38 2 -53 4 -32 2 20 2 52 0 70 -2 17 -4 1 -4 -38z"/>
<path d="M2045 1860 c-13 -5 -14 -9 -5 -9 8 0 24 4 35 9 13 5 14 9 5 9 -8 0
-24 -4 -35 -9z"/>
<path d="M616 1843 c-6 -14 -5 -15 5 -6 7 7 10 15 7 18 -3 3 -9 -2 -12 -12z"/>
<path d="M1960 1850 l-25 -8 28 -1 c15 -1 27 4 27 9 0 6 -1 10 -2 9 -2 -1 -14
-5 -28 -9z"/>
<path d="M2415 1809 c-93 -4 -233 -15 -310 -24 -77 -9 -169 -20 -205 -23 l-65
-7 3 -50 c7 -127 90 -399 173 -570 97 -199 212 -316 392 -397 l82 -37 31 30
c29 28 81 111 152 240 82 149 103 393 58 662 -15 87 -30 165 -33 173 -6 15 -3
15 -278 3z m220 -10 c-8 -11 25 -40 37 -33 11 7 25 -34 31 -91 3 -28 9 -72 14
-100 4 -27 8 -83 8 -122 0 -40 4 -73 8 -73 5 0 6 -4 3 -9 -4 -5 -7 -29 -7 -53
-1 -23 -9 -52 -18 -63 -15 -18 -15 -19 0 -7 14 11 16 7 11 -40 -2 -29 -11 -65
-18 -79 -7 -15 -10 -29 -7 -33 4 -3 1 -16 -5 -29 -10 -19 -42 -93 -47 -107
-10 -27 -19 -39 -26 -34 -5 3 -9 2 -8 -3 5 -28 -2 -45 -17 -39 -12 4 -14 1 -9
-14 4 -11 2 -20 -4 -20 -6 0 -10 -4 -8 -9 4 -14 -65 -100 -85 -107 -11 -3 -34
4 -54 15 -19 12 -32 16 -28 10 7 -12 -75 32 -120 64 -47 35 -182 172 -199 204
-9 15 -24 44 -34 63 -9 19 -26 47 -36 62 -10 16 -16 28 -12 28 3 0 -1 13 -9
29 -9 16 -12 31 -9 35 4 3 2 6 -4 6 -6 0 -13 8 -16 18 -10 32 -68 237 -72 254
-2 9 -8 25 -13 35 -5 10 -13 40 -17 67 -3 27 -9 55 -12 64 -4 10 -1 13 8 10
23 -9 48 10 44 32 -3 18 1 21 33 21 131 2 152 4 152 12 0 4 4 6 8 3 5 -3 55 2
113 10 57 8 174 17 259 19 85 3 156 8 159 10 8 9 12 5 6 -6z m45 -9 c0 -5 -4
-10 -10 -10 -5 0 -10 5 -10 10 0 6 5 10 10 10 6 0 10 -4 10 -10z m-790 -70 c0
-5 -4 -10 -10 -10 -5 0 -10 5 -10 10 0 6 5 10 10 10 6 0 10 -4 10 -10z"/>
<path d="M1956 1680 c8 -43 14 -51 14 -19 0 13 -5 31 -10 39 -7 11 -8 5 -4
-20z"/>
<path d="M1991 1694 c0 -11 3 -14 6 -6 3 7 2 16 -1 19 -3 4 -6 -2 -5 -13z"/>
<path d="M2339 1676 c-4 -5 -64 -17 -91 -19 -10 -1 -18 -5 -18 -8 0 -4 -9 -10
-19 -14 -11 -3 -31 -25 -44 -49 -22 -40 -23 -45 -9 -71 8 -16 16 -43 18 -61 3
-31 41 -133 54 -144 12 -10 28 -147 24 -202 -5 -51 -3 -58 18 -72 13 -8 40
-18 61 -21 20 -4 40 -11 43 -16 3 -5 16 -9 29 -9 13 0 27 -4 30 -10 14 -22 37
-8 67 40 17 27 35 50 39 50 5 0 17 10 29 22 21 23 27 63 9 73 -9 6 -32 55 -29
63 0 1 -6 10 -15 18 -13 14 -20 37 -12 48 1 2 -6 13 -15 23 -18 19 -32 83 -19
83 4 0 8 21 9 48 2 26 5 55 8 64 3 11 -4 23 -19 33 -22 14 -28 23 -36 60 -1 6
-9 17 -17 26 -8 9 -12 19 -9 22 3 4 2 5 -2 2 -3 -3 -13 1 -21 7 -15 13 -55 21
-63 14z m60 -33 c12 -10 31 -38 44 -63 12 -25 28 -46 35 -46 24 -3 26 -4 14
-16 -7 -7 -12 -30 -12 -53 0 -22 -4 -54 -9 -71 -9 -33 13 -99 30 -88 5 3 6 -1
3 -9 -5 -14 38 -110 63 -139 20 -23 10 -49 -31 -76 -18 -12 -42 -39 -52 -60
-10 -20 -20 -39 -21 -41 -2 -2 -8 1 -15 7 -8 6 -47 20 -88 31 -40 12 -77 24
-81 28 -4 5 -10 53 -12 108 -5 96 -9 126 -22 170 -6 19 -2 20 32 17 23 -2 46
3 58 12 26 19 13 31 -16 15 -12 -6 -39 -12 -58 -12 -31 -1 -38 3 -53 33 -9 19
-17 50 -18 68 0 18 -7 43 -15 56 -13 20 -13 26 4 62 21 42 49 59 122 73 66 13
75 13 98 -6z"/>
<path d="M2343 1643 c-7 -2 -13 -10 -13 -15 0 -6 3 -8 6 -5 4 4 19 -2 34 -13
49 -35 69 -21 27 18 -24 22 -32 25 -54 15z"/>
<path d="M2280 1631 c0 -11 26 -22 34 -14 12 12 5 23 -14 23 -11 0 -20 -4 -20
-9z"/>
<path d="M2245 1621 c-6 -11 9 -23 19 -14 9 9 7 23 -3 23 -6 0 -12 -4 -16 -9z"/>
<path d="M2207 1603 c-8 -12 30 -29 40 -19 4 3 -1 6 -9 6 -9 0 -18 5 -20 12
-3 9 -6 9 -11 1z"/>
<path d="M2266 1583 c-5 -17 -2 -31 8 -41 21 -21 29 -11 17 22 -7 17 -7 26 -1
26 6 0 10 5 10 10 0 22 -28 8 -34 -17z"/>
<path d="M2340 1591 c0 -11 5 -23 11 -27 16 -9 30 18 17 33 -15 19 -28 16 -28
-6z"/>
<path d="M2305 1580 c-9 -15 16 -43 27 -32 10 10 0 42 -12 42 -5 0 -12 -5 -15
-10z"/>
<path d="M2380 1565 c-16 -19 -3 -40 16 -24 15 13 19 39 5 39 -5 0 -14 -7 -21
-15z"/>
<path d="M2217 1564 c-3 -4 -2 -15 4 -25 12 -23 44 -26 35 -3 -3 9 -6 20 -6
25 0 10 -23 12 -33 3z"/>
<path d="M2412 1540 c-15 -33 -9 -50 17 -50 34 0 41 23 17 52 l-21 27 -13 -29z
m31 -25 c-3 -8 -9 -15 -14 -15 -10 0 -12 24 -3 33 11 11 24 -3 17 -18z"/>
<path d="M2180 1542 c0 -21 43 -66 53 -55 13 12 7 25 -8 19 -8 -3 -14 -2 -13
2 4 13 -13 52 -23 52 -5 0 -9 -8 -9 -18z"/>
<path d="M2344 1539 c-3 -6 -1 -16 5 -22 8 -8 11 -5 11 11 0 24 -5 28 -16 11z"/>
<path d="M2302 1519 c2 -7 10 -15 17 -17 8 -3 12 1 9 9 -2 7 -10 15 -17 17 -8
3 -12 -1 -9 -9z"/>
<path d="M2255 1511 c-7 -12 12 -24 25 -16 11 7 4 25 -10 25 -5 0 -11 -4 -15
-9z"/>
<path d="M2365 1511 c-9 -15 4 -33 17 -25 6 4 9 1 7 -5 -3 -7 -9 -12 -14 -11
-11 1 -22 -31 -24 -67 -2 -47 60 -71 92 -35 23 26 22 27 -23 27 -32 0 -37 -2
-25 -11 19 -14 19 -24 1 -24 -8 0 -19 14 -25 31 -14 41 -14 46 1 31 16 -16 28
-15 28 3 0 8 -4 15 -10 15 -5 0 -10 5 -10 11 0 6 7 8 16 5 8 -3 12 -2 9 4 -3
6 -2 10 4 10 5 0 11 -6 14 -12 3 -10 9 -10 23 -2 31 18 26 30 -10 26 -26 -3
-37 1 -49 18 -9 13 -17 17 -22 11z"/>
<path d="M2327 1494 c-8 -8 1 -24 14 -24 5 0 9 7 9 15 0 15 -12 20 -23 9z"/>
<path d="M2285 1481 c-3 -5 -1 -12 4 -15 5 -3 11 1 15 9 6 16 -9 21 -19 6z"/>
<path d="M2200 1466 c0 -31 29 -86 45 -86 13 0 11 6 -10 31 -29 35 -28 47 4
27 29 -18 51 3 27 28 -9 9 -20 13 -24 10 -3 -4 0 -11 8 -16 8 -5 11 -12 7 -16
-4 -4 -18 3 -32 16 -21 20 -25 21 -25 6z"/>
<path d="M2301 1448 c-10 -18 -11 -20 0 -10 7 6 17 12 21 12 17 0 6 -23 -24
-52 l-32 -30 35 14 c29 12 34 19 34 48 0 40 -15 48 -34 18z"/>
<path d="M2432 1430 c-38 -24 -40 -30 -7 -30 14 0 29 8 35 21 16 29 9 31 -28
9z"/>
<path d="M2333 1333 c-9 -7 -30 -13 -47 -13 -21 0 -27 -3 -20 -10 7 -7 19 -8
37 -1 15 6 56 13 92 17 36 4 65 10 65 13 0 11 -110 6 -127 -6z"/>
<path d="M2308 1298 c-29 -8 -38 -15 -38 -31 l0 -21 20 22 c11 12 28 19 40 17
11 -2 18 0 15 5 -8 12 113 6 125 -6 8 -8 -10 -13 -62 -18 -96 -10 -101 -11
-116 -20 -27 -17 -10 -24 24 -10 20 9 68 18 105 21 70 6 74 9 63 37 -5 13 -21
16 -73 15 -36 -1 -83 -6 -103 -11z"/>
<path d="M2463 1238 c-3 -6 -1 -8 5 -4 5 3 12 2 14 -4 2 -5 9 -6 16 -1 10 6 9
10 -7 14 -12 3 -24 0 -28 -5z"/>
<path d="M2337 1230 c-47 -14 -57 -29 -57 -82 l0 -50 35 22 c19 12 39 19 45
15 6 -4 9 -1 8 7 -2 7 2 12 8 11 7 -1 10 6 7 16 -4 16 -8 15 -34 -11 -33 -33
-52 -33 -57 1 -6 36 32 63 90 67 27 1 52 5 55 8 9 9 -68 6 -100 -4z"/>
<path d="M2380 1209 c-12 -8 -10 -9 8 -4 24 7 29 -4 10 -23 -8 -8 -5 -10 16
-6 15 2 25 1 23 -3 -3 -5 13 -6 36 -4 l42 5 -37 6 c-21 4 -46 14 -56 23 -22
20 -22 20 -42 6z"/>
<path d="M2520 1180 c0 -5 5 -10 11 -10 5 0 7 5 4 10 -3 6 -8 10 -11 10 -2 0
-4 -4 -4 -10z"/>
<path d="M2404 1146 c-4 -9 -27 -27 -52 -40 l-45 -23 54 -11 c30 -6 63 -14 73
-18 16 -6 18 -4 12 11 -4 11 -4 16 0 12 4 -4 23 7 41 25 49 47 48 30 -2 -24
-43 -48 -43 -48 -77 -34 -38 15 -126 30 -115 20 4 -4 35 -15 70 -24 34 -9 70
-20 80 -24 11 -6 17 -4 17 6 0 8 20 34 45 58 51 50 47 60 -25 60 -26 0 -51 5
-58 12 -9 9 -13 7 -18 -6z m63 -33 c6 -17 -50 -44 -67 -33 -8 5 -18 6 -22 4
-15 -10 -8 5 12 24 22 20 71 24 77 5z"/>
<path d="M2528 1153 c7 -3 16 -2 19 1 4 3 -2 6 -13 5 -11 0 -14 -3 -6 -6z"/>
<path d="M2002 1510 c0 -14 2 -19 5 -12 2 6 2 18 0 25 -3 6 -5 1 -5 -13z"/>
<path d="M2586 1481 c-3 -5 1 -14 8 -20 12 -10 13 -8 9 8 -6 23 -9 25 -17 12z"/>
<path d="M2631 1474 c0 -11 3 -14 6 -6 3 7 2 16 -1 19 -3 4 -6 -2 -5 -13z"/>
<path d="M2640 1440 c0 -5 5 -10 11 -10 5 0 7 5 4 10 -3 6 -8 10 -11 10 -2 0
-4 -4 -4 -10z"/>
<path d="M2611 1400 c14 -31 19 -36 19 -24 0 6 -7 19 -16 30 -14 18 -14 18 -3
-6z"/>
<path d="M2655 1410 c-3 -5 1 -22 9 -37 10 -19 15 -22 16 -11 0 9 -4 19 -10
23 -5 3 -7 12 -3 20 6 17 -3 20 -12 5z"/>
<path d="M2680 1340 c-8 -26 -7 -41 2 -32 6 6 8 16 5 24 -3 7 -6 11 -7 8z"/>
<path d="M2636 1314 c-3 -8 -2 -12 4 -9 6 3 10 -1 10 -9 0 -8 4 -17 10 -21 5
-3 5 7 -1 25 -12 34 -15 36 -23 14z"/>
<path d="M2684 1289 c-3 -6 -1 -16 5 -22 9 -9 10 -7 5 7 -5 13 -4 17 4 12 7
-4 12 -2 12 3 0 14 -17 14 -26 0z"/>
<path d="M2498 923 c7 -3 16 -2 19 1 4 3 -2 6 -13 5 -11 0 -14 -3 -6 -6z"/>
<path d="M1736 1797 c3 -10 9 -15 12 -12 3 3 0 11 -7 18 -10 9 -11 8 -5 -6z"/>
<path d="M1520 1780 c-8 -5 -10 -10 -5 -10 6 0 17 5 25 10 8 5 11 10 5 10 -5
0 -17 -5 -25 -10z"/>
<path d="M1055 1720 c11 -5 27 -9 35 -9 9 0 8 4 -5 9 -11 5 -27 9 -35 9 -9 0
-8 -4 5 -9z"/>
<path d="M1593 1705 c0 -9 4 -14 9 -13 5 2 10 8 10 13 0 5 -5 11 -10 13 -5 1
-9 -4 -9 -13z"/>
<path d="M1190 1672 c0 -2 22 -28 49 -58 30 -32 56 -73 66 -103 18 -55 27 -61
95 -61 43 0 48 -3 54 -25 4 -14 4 -30 1 -35 -9 -15 -27 -12 -19 3 4 6 -2 4
-14 -7 -14 -12 -30 -17 -47 -13 -30 5 -21 -9 10 -16 11 -3 0 -3 -24 -1 -45 4
-71 18 -71 38 0 6 7 3 14 -6 7 -10 18 -18 25 -18 6 0 11 8 11 18 0 13 -2 14
-9 4 -9 -15 -12 -12 -55 52 -14 21 -26 32 -26 24 0 -8 9 -23 20 -33 11 -10 20
-23 20 -29 0 -6 -13 4 -29 23 -18 23 -34 32 -44 28 -9 -3 -18 -1 -21 6 -2 7
-5 5 -5 -4 -1 -9 12 -22 29 -29 35 -15 92 -79 83 -93 -3 -5 -12 2 -20 17 -8
15 -17 25 -21 22 -3 -4 0 -12 6 -18 7 -7 12 -17 12 -23 -1 -15 -40 35 -40 51
0 7 -4 15 -8 18 -19 11 -7 -30 14 -53 13 -14 28 -37 35 -52 6 -15 16 -26 23
-23 7 3 23 0 37 -6 24 -10 24 -10 -3 -7 -28 4 -37 -6 -18 -18 6 -3 10 -13 10
-21 0 -8 -4 -12 -10 -9 -6 4 -7 -6 -3 -26 4 -23 3 -30 -5 -25 -7 4 -12 3 -12
-3 0 -5 5 -13 10 -16 6 -4 8 -11 4 -16 -10 -17 269 -130 284 -115 3 3 -1 7 -9
7 -8 1 6 5 31 9 38 6 49 4 68 -13 17 -16 19 -23 10 -29 -10 -6 -9 -8 3 -8 9 0
21 -12 28 -27 7 -16 20 -39 29 -53 9 -14 17 -29 17 -33 0 -4 7 -12 15 -17 24
-15 -14 -12 -102 9 -43 10 -78 15 -78 11 0 -4 46 -17 103 -29 56 -13 107 -27
113 -32 6 -5 15 -5 19 -1 5 4 5 1 1 -6 -4 -6 1 -24 12 -40 47 -68 84 -146 107
-228 15 -48 31 -94 36 -101 7 -8 3 -16 -15 -27 -14 -9 -38 -23 -52 -32 -14 -8
-82 -27 -152 -40 -120 -24 -147 -24 -234 -8 -28 6 -28 5 -28 -45 0 -46 -5 -56
-63 -132 -34 -45 -71 -87 -81 -93 -15 -9 -30 2 -102 78 -84 88 -84 89 -84 142
0 30 -3 53 -7 52 -5 -1 -28 3 -53 9 -25 6 -82 16 -127 21 -93 11 -162 44 -142
68 6 8 9 27 7 44 -3 16 -1 30 3 30 4 0 8 8 8 18 3 87 92 442 117 463 10 8 24
9 47 3 40 -12 43 -29 27 -154 -6 -52 -12 -129 -13 -171 -2 -64 1 -81 18 -99
l20 -22 17 22 c13 16 18 41 19 94 1 39 4 96 8 126 11 85 22 39 24 -99 1 -67 4
-121 7 -121 3 0 6 -45 8 -100 3 -100 3 -100 -20 -96 -13 2 -22 9 -21 15 2 5
-4 8 -12 5 -8 -4 -15 -11 -15 -17 0 -6 3 -7 7 -4 3 4 12 2 20 -4 7 -6 13 -8
13 -5 0 4 10 1 22 -5 l21 -11 -6 171 c-8 196 -26 401 -37 401 -9 0 -30 -182
-30 -264 0 -70 -17 -99 -40 -71 -10 12 -11 44 -6 133 13 214 18 244 44 253 19
7 22 5 23 -19 l1 -27 7 30 c18 77 50 -250 52 -527 0 -102 3 -189 6 -192 4 -3
13 0 22 7 14 10 14 10 3 -5 -12 -15 -4 -26 60 -93 l73 -77 38 43 c21 24 54 67
71 94 30 46 34 59 40 155 13 185 52 487 62 477 2 -2 -5 -70 -16 -152 -22 -159
-25 -229 -11 -221 4 3 9 29 9 58 0 29 7 109 16 178 8 69 12 138 9 154 -4 20
-2 27 6 22 6 -4 11 -2 11 3 0 6 -6 11 -14 11 -29 0 -74 -262 -83 -478 -4 -104
-10 -145 -19 -149 -7 -2 -11 -10 -8 -17 3 -7 -2 -19 -11 -26 -12 -10 -15 -10
-15 4 0 10 5 14 10 11 6 -4 9 3 7 16 -2 13 -10 25 -16 27 -9 3 -11 -3 -7 -19
7 -23 7 -23 -8 -5 -9 11 -16 38 -17 60 0 32 -2 36 -9 21 -9 -23 -15 -12 -23
45 -3 19 -12 51 -20 70 l-14 35 -13 -45 c-7 -25 -14 -55 -15 -67 -5 -38 -16
-63 -26 -58 -5 4 -9 -4 -9 -17 0 -13 -7 -33 -15 -46 -12 -16 -13 -27 -6 -41
15 -28 61 -62 74 -54 5 3 7 2 4 -4 -4 -6 0 -19 8 -29 8 -10 15 -14 15 -7 0 6
-4 14 -9 18 -8 4 36 115 52 131 2 2 9 -7 16 -19 11 -22 9 -27 -23 -62 -20 -21
-36 -42 -36 -48 0 -5 18 10 40 34 21 24 39 40 39 34 0 -5 -19 -31 -42 -57
l-43 -48 -64 65 c-59 59 -63 66 -48 82 30 35 32 47 4 25 -16 -12 -32 -19 -37
-16 -5 3 -9 101 -9 217 0 191 -19 446 -36 490 -3 10 -1 17 5 17 6 0 11 -3 11
-7 0 -5 7 -62 15 -128 7 -66 15 -223 16 -348 2 -135 6 -226 12 -224 22 7 0
524 -29 683 -5 28 -3 32 21 36 17 4 49 -5 93 -27 37 -18 101 -43 142 -56 41
-13 77 -24 78 -25 2 -2 -2 -20 -9 -41 -7 -21 -13 -49 -14 -63 -1 -14 -9 -72
-18 -130 -8 -58 -19 -161 -23 -230 -6 -122 -7 -124 -25 -102 l-18 23 1 -31 c1
-17 4 -26 8 -20 5 9 9 9 14 1 17 -27 24 -3 30 107 8 125 36 327 59 429 l15 62
-66 22 c-37 12 -108 41 -159 64 -84 39 -94 42 -118 29 -32 -16 -54 -9 -66 23
-14 37 -2 45 28 17 14 -13 33 -24 42 -24 22 0 -35 46 -76 62 -18 7 -33 15 -33
19 0 4 -7 9 -15 13 -12 4 -13 2 -2 -14 6 -11 17 -20 24 -20 6 0 15 -5 19 -12
4 -7 3 -8 -5 -4 -6 4 -23 1 -36 -8 -31 -20 -32 -20 -38 3 -3 13 0 18 8 15 7
-3 16 -1 20 5 4 7 -4 11 -19 11 -29 0 -47 26 -37 54 7 18 8 18 24 -5 22 -30
22 -21 1 21 -11 21 -14 38 -8 45 36 48 45 66 42 77 -3 8 -11 1 -20 -16 -9 -18
-18 -25 -22 -17 -4 6 -2 11 3 11 6 0 11 5 11 11 0 5 -4 7 -10 4 -6 -4 -8 5 -5
22 15 94 35 225 39 268 l6 50 -14 -40 c-7 -23 -21 -99 -30 -170 -10 -72 -21
-146 -26 -165 -5 -19 -7 -45 -4 -58 4 -12 1 -28 -5 -36 -6 -7 -9 -20 -6 -29 4
-8 -2 -21 -12 -28 -11 -8 -20 -29 -21 -48 -1 -19 -13 -73 -27 -120 -13 -47
-44 -178 -70 -291 l-45 -205 22 -17 c13 -10 31 -20 41 -24 9 -3 17 -11 17 -19
0 -26 29 -291 36 -322 4 -20 13 -33 21 -33 11 0 13 6 8 23 -8 27 -13 59 -19
123 -2 27 -8 79 -12 115 l-7 67 37 4 c20 2 36 1 36 -2 0 -4 24 -6 53 -5 72 2
107 -11 108 -41 1 -13 3 -28 4 -34 1 -5 3 -16 4 -23 0 -7 13 -26 29 -42 15
-16 26 -33 25 -37 -2 -5 4 -8 13 -8 11 0 15 -6 11 -19 -3 -14 -1 -18 9 -14 12
5 19 -8 15 -29 0 -5 4 -7 11 -5 6 1 15 -9 19 -23 5 -18 7 -20 8 -6 1 16 3 17
17 5 20 -16 42 -20 50 -8 3 5 10 6 16 3 6 -4 8 -3 5 3 -4 5 3 19 13 31 11 12
20 26 20 31 0 5 11 18 23 28 13 10 30 29 37 42 l13 24 14 -24 c10 -16 12 -17
7 -4 -8 23 -8 36 1 91 l7 41 47 -9 c50 -10 136 -5 191 11 31 9 93 20 128 23 6
1 12 5 12 10 0 5 4 6 10 3 5 -3 15 3 22 15 7 11 18 20 24 20 6 0 19 9 29 20
14 16 16 25 7 47 -6 16 -15 44 -21 63 l-11 35 20 -25 c18 -23 21 -30 19 -46 0
-3 10 -15 23 -26 13 -11 23 -23 23 -26 1 -10 40 -72 66 -105 17 -22 24 -25 31
-15 6 9 7 6 3 -8 -3 -13 1 -26 10 -34 8 -7 12 -17 8 -24 -3 -6 -3 -8 2 -4 7 7
41 -43 102 -149 30 -52 45 -63 34 -26 -17 58 -119 215 -134 206 -6 -3 -7 -1
-3 6 7 10 -49 121 -60 121 -3 0 0 -9 6 -21 7 -11 10 -23 7 -25 -3 -4 -71 101
-176 271 -18 31 -31 58 -29 61 3 3 32 -37 63 -88 59 -94 88 -134 65 -88 -40
77 -163 259 -173 253 -6 -3 -7 -1 -3 5 4 6 -32 78 -79 159 -47 81 -80 150 -74
152 5 1 11 1 12 0 2 -2 23 -36 48 -74 26 -39 54 -86 64 -105 10 -19 66 -114
124 -210 59 -96 174 -286 255 -422 82 -137 151 -248 153 -248 7 0 -110 215
-121 222 -7 5 -7 8 2 8 9 0 8 7 -4 25 -9 14 -20 23 -24 20 -7 -4 -39 48 -100
163 -14 26 -27 49 -30 52 -3 3 -6 12 -8 20 -2 8 -9 22 -16 30 -12 14 -28 41
-77 127 -10 17 -16 34 -13 37 2 3 1 4 -3 1 -7 -6 -46 53 -64 97 -6 16 -15 26
-19 23 -13 -8 -33 62 -28 96 3 19 0 29 -8 29 -8 0 -11 -6 -7 -16 3 -9 -8 -3
-24 12 -23 22 -29 36 -27 57 3 24 1 27 -11 17 -15 -12 -21 -3 -16 23 1 5 -3 6
-8 3 -21 -14 -19 13 2 27 22 14 24 14 41 -18 10 -18 16 -38 12 -43 -3 -5 2
-12 12 -14 15 -4 18 -1 14 20 -3 14 -13 33 -23 43 -12 12 -19 33 -19 58 0 22
-4 43 -10 46 -15 9 -12 71 5 112 13 31 13 34 0 23 -13 -11 -15 -8 -15 16 0 22
-3 25 -9 14 -6 -8 -8 -17 -5 -21 2 -4 -3 -10 -12 -13 -18 -7 -64 -8 -64 -1 0
12 53 55 68 55 15 1 15 2 -2 11 -15 9 -22 7 -40 -13 -11 -14 -31 -28 -44 -32
l-23 -8 25 -23 c29 -26 35 -75 13 -97 -7 -7 -16 -21 -20 -30 -3 -10 -13 -18
-22 -18 -8 0 -15 -4 -15 -10 0 -5 -9 -10 -20 -10 -13 0 -20 7 -20 18 0 10 -7
27 -15 38 -23 30 -17 40 8 13 13 -13 21 -30 19 -36 -7 -22 16 -14 47 15 44 39
48 72 16 110 l-25 30 44 32 44 32 -33 29 c-22 19 -32 37 -31 53 0 13 4 22 9
19 4 -2 7 -2 7 1 0 3 -12 12 -27 21 -27 15 -27 15 -3 9 22 -6 23 -5 11 10 -10
12 -22 15 -44 10 -20 -4 -27 -3 -23 5 4 7 -1 11 -13 11 -12 0 -21 4 -21 10 0
5 -7 6 -17 3 -10 -4 -14 -2 -10 4 5 8 -6 11 -31 10 -20 -1 -43 2 -50 6 -8 6
-10 3 -6 -7 6 -17 -4 -20 -30 -10 -9 3 -13 11 -10 16 4 6 -5 2 -20 -7 -14 -10
-27 -21 -27 -26 -1 -5 -2 -15 -3 -21 -1 -7 4 -25 11 -40 13 -27 13 -28 -14
-28 -23 0 -25 2 -13 11 12 8 10 9 -8 4 -12 -4 -21 -3 -20 2 1 4 -6 23 -15 40
-10 18 -17 36 -16 39 1 4 -18 29 -42 58 -24 28 -43 53 -42 57 1 3 -5 6 -13 6
-7 0 -14 -2 -14 -5z m265 -138 c33 -36 30 -71 -6 -70 -14 1 -34 7 -43 15 -18
15 -23 56 -5 46 6 -4 8 -14 5 -22 -3 -8 -2 -12 3 -8 5 3 16 -2 25 -10 10 -11
17 -12 22 -4 4 7 -7 22 -25 36 -17 13 -31 29 -31 34 0 18 31 8 55 -17z m151
-5 c47 -28 63 -56 71 -117 7 -59 -15 -105 -59 -123 -32 -13 -31 -10 -18 -43 8
-21 6 -24 -10 -23 -23 1 -26 13 -7 20 6 3 2 6 -9 6 -26 1 -44 -19 -54 -62 l-8
-32 -1 30 -2 30 -19 -24 c-11 -13 -20 -18 -20 -11 0 17 81 89 128 116 79 44
87 141 16 204 l-34 29 -45 -19 c-25 -11 -45 -15 -45 -10 0 4 19 15 43 23 41
13 41 14 14 19 -17 3 -34 0 -42 -8 -17 -18 -25 -18 -25 0 0 33 70 30 126 -5z
m-38 -48 c-8 -12 -18 -18 -22 -14 -4 4 -4 0 -1 -8 3 -9 0 -21 -8 -28 -12 -9
-18 -6 -32 15 -9 14 -15 27 -13 28 9 7 83 32 87 30 1 -1 -3 -12 -11 -23z m82
-58 c0 -6 -10 -9 -22 -7 l-23 5 23 -12 c33 -18 29 -47 -5 -42 -26 3 -27 3 -5
-7 20 -8 21 -12 10 -30 -20 -32 -41 -23 -66 29 l-23 49 28 45 28 45 27 -31
c16 -18 28 -37 28 -44z m-415 17 c3 -6 -1 -7 -9 -4 -18 7 -21 14 -7 14 6 0 13
-4 16 -10z m251 -27 c-8 -24 -10 -46 -5 -61 8 -20 6 -21 -11 -12 -14 8 -25 5
-47 -14 -16 -13 -40 -26 -53 -29 l-25 -4 26 -2 c15 0 34 8 44 19 10 11 23 20
28 20 6 0 0 -11 -13 -25 -13 -14 -29 -25 -36 -25 -8 0 -11 -6 -8 -13 3 -10 16
-3 41 21 27 25 43 33 64 30 26 -4 26 -3 12 18 -17 26 -14 75 5 82 16 5 16 -30
0 -46 -9 -9 -9 -15 1 -24 8 -7 11 -8 8 -2 -4 6 0 19 7 29 13 18 14 18 20 -3 4
-12 1 -34 -9 -52 -15 -28 -13 -35 10 -30 6 1 1 -7 -10 -18 -11 -11 -22 -18
-24 -16 -2 2 -9 -6 -16 -19 -6 -12 -16 -21 -22 -20 -14 3 -25 -69 -13 -81 17
-17 11 -34 -12 -40 -13 -3 2 -3 32 -1 85 5 191 26 184 36 -3 5 -3 9 0 9 2 0
13 3 23 6 15 5 16 4 3 -6 -12 -9 -10 -10 10 -4 41 11 70 23 70 29 0 2 -12 0
-26 -5 -50 -19 -58 -6 -24 38 15 18 19 34 15 53 -7 30 -2 36 39 43 26 5 27 3
20 -22 -4 -15 -8 -46 -9 -69 -1 -31 2 -40 12 -36 11 4 14 -2 11 -28 -3 -33 -6
-35 -84 -61 -131 -44 -174 -45 -275 -8 -48 17 -95 37 -105 45 -19 13 -18 14 1
29 18 14 18 15 3 16 -24 0 -23 9 7 36 l25 23 0 -25 c0 -17 -4 -23 -12 -18 -7
4 -8 3 -4 -4 14 -23 26 -12 26 23 0 39 -5 42 -32 18 -17 -15 -18 -15 -18 10 0
17 5 27 15 27 28 0 15 28 -17 34 -34 7 -58 23 -58 39 0 6 3 7 7 4 3 -4 15 1
26 10 19 17 19 17 15 -2 -2 -11 -10 -19 -16 -17 -7 1 -12 -3 -12 -8 0 -5 9
-10 20 -10 14 0 20 7 20 23 0 20 4 23 30 19 36 -5 100 32 100 58 0 25 10 50
21 50 4 0 2 -17 -5 -37z m224 -24 c0 -5 -4 -9 -10 -9 -5 0 -10 7 -10 16 0 8 5
12 10 9 6 -3 10 -10 10 -16z m-140 -69 c0 -11 -4 -20 -10 -20 -5 0 -10 9 -10
20 0 11 5 20 10 20 6 0 10 -9 10 -20z m120 -56 c0 -8 -4 -12 -10 -9 -5 3 -10
1 -10 -4 0 -6 5 -11 10 -11 6 0 10 -7 10 -17 0 -12 -7 -8 -25 13 -31 36 -31
44 0 44 16 0 25 -6 25 -16z m-45 -35 c9 -17 13 -38 10 -47 -6 -13 -11 -8 -25
23 -16 34 -18 55 -5 55 3 0 12 -14 20 -31z m-52 -59 c4 -16 0 -20 -21 -21 -27
-1 -27 -1 3 -9 l30 -8 -34 1 c-27 2 -35 7 -37 24 -5 29 23 58 41 43 7 -6 15
-20 18 -30z m-93 0 c0 -5 -9 -14 -20 -20 -16 -8 -20 -8 -20 4 0 10 6 13 15 10
8 -4 15 -1 15 5 0 6 2 11 5 11 3 0 5 -4 5 -10z m24 -22 c-4 -6 1 -17 11 -25
16 -11 16 -13 3 -13 -9 0 -23 -3 -31 -6 -24 -9 -26 29 -2 43 25 16 28 16 19 1z
m-487 -74 c-3 -3 -12 -4 -19 -1 -8 3 -5 6 6 6 11 1 17 -2 13 -5z m8 -34 c3
-11 3 -24 0 -30 -11 -17 5 -11 39 15 40 30 46 31 46 6 0 -11 5 -23 10 -26 18
-11 10 -22 -21 -29 -43 -8 -58 4 -25 21 15 8 26 17 23 20 -3 2 -18 -2 -34 -10
-42 -22 -80 -12 -85 24 -4 25 -1 29 18 29 14 0 25 -8 29 -20z m665 11 c0 -4
29 -57 65 -116 36 -60 63 -110 61 -113 -5 -4 -22 22 -103 153 -45 72 -50 85
-33 85 6 0 10 -4 10 -9z m220 -363 c0 -17 -10 -6 -25 25 l-16 32 20 -25 c11
-14 21 -28 21 -32z m-549 -355 c6 -24 16 -40 20 -37 8 5 -36 -124 -45 -133 -2
-2 -12 22 -23 52 -21 55 -21 56 -2 116 10 33 19 75 20 92 1 31 1 30 10 -8 5
-22 14 -59 20 -82z m779 -14 c0 -6 -4 -7 -10 -4 -5 3 -10 11 -10 16 0 6 5 7
10 4 6 -3 10 -11 10 -16z m94 -55 c3 -8 2 -12 -4 -9 -6 3 -10 10 -10 16 0 14
7 11 14 -7z m-932 -54 c17 -52 13 -55 -29 -17 -18 16 -20 23 -11 43 6 13 14
24 18 24 3 0 13 -23 22 -50z"/>
<path d="M1756 1235 c-9 -26 -7 -32 5 -12 6 10 9 21 6 23 -2 3 -7 -2 -11 -11z"/>
<path d="M1776 1136 c3 -9 11 -16 16 -16 13 0 5 23 -10 28 -7 2 -10 -2 -6 -12z"/>
<path d="M1696 1113 c-3 -4 -6 -10 -6 -15 0 -13 43 -6 47 7 3 11 -31 18 -41 8z"/>
<path d="M1651 1084 c0 -11 3 -14 6 -6 3 7 2 16 -1 19 -3 4 -6 -2 -5 -13z"/>
<path d="M1596 1081 c-4 -5 3 -7 14 -4 23 6 26 13 6 13 -8 0 -17 -4 -20 -9z"/>
<path d="M1357 338 c4 -13 7 -48 6 -78 l-2 -55 13 35 c11 29 11 42 -1 78 -8
23 -17 42 -20 42 -2 0 -1 -10 4 -22z"/>
<path d="M1335 298 c-4 -18 -2 -44 4 -58 8 -21 10 -16 10 33 1 64 -5 74 -14
25z"/>
<path d="M920 1621 c0 -17 4 -32 8 -35 4 -2 6 11 4 30 -5 42 -12 45 -12 5z"/>
<path d="M1328 1633 c7 -3 16 -2 19 1 4 3 -2 6 -13 5 -11 0 -14 -3 -6 -6z"/>
<path d="M891 1614 c0 -11 3 -14 6 -6 3 7 2 16 -1 19 -3 4 -6 -2 -5 -13z"/>
<path d="M1101 1590 c-2 -53 -30 -286 -36 -305 -6 -18 -5 -19 7 -3 13 15 15
15 28 -5 19 -30 19 -48 -3 -73 -15 -18 -16 -23 -3 -33 17 -14 31 1 22 24 -7
20 10 28 33 15 14 -7 22 -7 26 0 4 6 3 9 -2 8 -14 -4 -53 13 -53 23 0 5 3 8 8
6 4 -1 7 3 7 8 0 6 -4 9 -8 7 -15 -5 -18 27 -4 55 21 42 29 93 14 93 -7 0 -13
-16 -14 -41 -2 -41 -16 -69 -29 -56 -4 3 -1 66 6 140 7 74 10 140 7 148 -3 8
-6 3 -6 -11z m9 -406 c0 -8 -5 -12 -10 -9 -6 4 -8 11 -5 16 9 14 15 11 15 -7z"/>
<path d="M1807 1594 c-3 -3 -33 -16 -67 -28 l-61 -22 49 -46 c63 -59 88 -73
96 -53 3 8 10 15 16 15 7 0 8 -6 1 -19 -6 -10 -8 -21 -5 -24 3 -2 -2 -21 -10
-41 -14 -34 -8 -54 13 -42 5 3 7 -18 4 -48 -3 -44 -1 -55 13 -60 13 -5 14 -3
6 6 -15 19 -12 84 5 105 13 16 13 12 8 -39 -5 -49 -4 -58 14 -70 12 -8 18 -19
13 -24 -4 -4 0 -3 9 4 14 10 17 9 22 -8 5 -21 -8 -37 -16 -20 -3 6 -4 5 -3 -2
2 -7 7 -13 12 -13 19 0 34 -17 34 -40 0 -12 6 -25 14 -28 8 -3 17 -19 21 -36
4 -17 16 -38 28 -46 12 -8 18 -15 14 -15 -4 0 9 -21 29 -47 39 -53 124 -145
124 -134 0 3 4 1 8 -4 12 -18 92 -77 92 -69 0 4 4 4 9 -1 6 -6 17 -44 26 -87
8 -42 29 -106 46 -143 17 -37 28 -74 25 -82 -3 -8 -2 -12 3 -9 12 8 43 -108
35 -130 -4 -11 -3 -16 1 -11 5 4 24 -52 42 -125 38 -151 42 -163 48 -157 9 10
-105 430 -138 509 -20 47 -40 103 -45 125 -23 95 -23 95 -7 89 8 -4 15 -14 15
-24 0 -11 4 -21 9 -24 5 -3 16 -29 26 -58 26 -81 96 -203 106 -187 6 10 9 11
9 2 0 -12 9 -25 58 -81 78 -89 165 -232 191 -314 7 -21 19 -38 27 -38 11 0 10
10 -7 52 -34 89 -85 172 -177 288 -172 219 -171 218 -197 304 -24 79 -26 83
-71 104 -137 67 -255 202 -350 399 -49 102 -116 295 -135 391 -12 59 -18 69
-32 56z m7 -32 c2 -4 7 -29 10 -54 8 -72 -7 -72 -89 -4 -25 21 -27 27 -16 38
11 11 13 10 6 -2 -6 -12 -5 -13 6 -2 7 6 21 12 32 12 10 0 16 4 13 8 -2 4 4 8
14 9 11 1 22 -2 24 -5z m44 -195 c1 -15 -4 -24 -13 -24 -18 0 -18 2 -5 28 14
24 15 24 18 -4z m37 -86 c-3 -11 -1 -22 5 -26 16 -10 12 -25 -5 -19 -15 6 -21
45 -8 57 11 12 15 8 8 -12z"/>
<path d="M849 1573 c-13 -15 -12 -15 11 -3 34 17 36 20 18 20 -9 0 -22 -7 -29
-17z"/>
<path d="M1190 1575 c0 -8 7 -15 16 -15 14 0 14 3 4 15 -7 8 -14 15 -16 15 -2
0 -4 -7 -4 -15z"/>
<path d="M1171 1544 c0 -11 3 -14 6 -6 3 7 2 16 -1 19 -3 4 -6 -2 -5 -13z"/>
<path d="M1713 1473 c-15 -6 -17 -29 -4 -38 5 -3 13 0 17 6 4 8 3 9 -4 5 -16
-9 -15 7 0 22 13 13 11 14 -9 5z"/>
<path d="M1795 1400 c3 -5 1 -10 -5 -10 -7 0 -6 -5 2 -14 11 -12 14 -11 20 3
10 25 9 31 -8 31 -8 0 -12 -4 -9 -10z"/>
<path d="M1139 1313 c-13 -16 -12 -17 4 -4 9 7 17 15 17 17 0 8 -8 3 -21 -13z"/>
<path d="M1222 1268 c-6 -23 -9 -44 -7 -46 2 -2 9 15 15 38 6 23 9 44 7 46 -2
3 -9 -14 -15 -38z"/>
<path d="M1193 1195 c0 -8 4 -12 9 -9 5 3 6 10 3 15 -9 13 -12 11 -12 -6z"/>
<path d="M1224 1165 c10 -8 24 -12 29 -8 6 4 8 0 4 -9 -3 -10 -1 -15 8 -14 25
4 27 14 6 26 -12 6 -21 7 -21 3 0 -4 -5 -2 -12 5 -7 7 -17 12 -22 12 -6 0 -2
-7 8 -15z"/>
<path d="M1175 1150 c-3 -6 1 -13 9 -16 9 -3 16 -11 16 -16 0 -6 -7 -8 -15 -4
-8 3 -15 1 -15 -5 0 -6 8 -9 17 -7 23 4 30 38 8 38 -9 0 -13 5 -10 10 3 6 4
10 1 10 -3 0 -8 -5 -11 -10z"/>
<path d="M1274 1076 c-6 -6 -9 -17 -6 -24 6 -20 39 -14 45 9 3 12 3 18 0 15
-4 -3 -11 -2 -17 3 -7 5 -15 4 -22 -3z m26 -16 c0 -5 -4 -10 -10 -10 -5 0 -10
5 -10 10 0 6 5 10 10 10 6 0 10 -4 10 -10z"/>
<path d="M1386 1025 c-6 -16 9 -65 20 -65 4 0 4 3 1 6 -3 4 -2 15 3 25 10 18
4 49 -10 49 -4 0 -10 -7 -14 -15z m24 -15 c0 -5 -4 -10 -10 -10 -5 0 -10 5
-10 10 0 6 5 10 10 10 6 0 10 -4 10 -10z"/>
<path d="M2861 1014 c0 -11 3 -14 6 -6 3 7 2 16 -1 19 -3 4 -6 -2 -5 -13z"/>
<path d="M1623 1003 c9 -2 15 -8 12 -13 -3 -4 5 -6 17 -2 21 5 21 6 2 13 -10
4 -26 7 -34 7 -10 0 -9 -2 3 -5z"/>
<path d="M1830 990 c13 -24 17 -25 17 -5 0 8 -6 16 -14 19 -11 4 -11 1 -3 -14z"/>
<path d="M1891 983 c7 -12 15 -20 18 -17 3 2 -3 12 -13 22 -17 16 -18 16 -5
-5z"/>
<path d="M1515 970 c-4 -6 -1 -18 6 -26 11 -14 13 -14 21 1 5 8 15 12 21 8 7
-4 6 0 -2 10 -15 19 -37 22 -46 7z m35 -4 c0 -3 -4 -8 -10 -11 -5 -3 -10 -1
-10 4 0 6 5 11 10 11 6 0 10 -2 10 -4z"/>
<path d="M1658 973 c7 -3 16 -2 19 1 4 3 -2 6 -13 5 -11 0 -14 -3 -6 -6z"/>
<path d="M2021 954 c0 -11 3 -14 6 -6 3 7 2 16 -1 19 -3 4 -6 -2 -5 -13z"/>
<path d="M1022 921 c-31 -54 -27 -65 4 -13 14 24 24 45 22 48 -3 2 -14 -14
-26 -35z"/>
<path d="M1650 939 c0 -5 -6 -7 -12 -3 -7 4 -5 -1 4 -11 19 -21 51 -13 42 10
-7 17 -34 21 -34 4z m25 -9 c3 -5 1 -10 -4 -10 -6 0 -11 5 -11 10 0 6 2 10 4
10 3 0 8 -4 11 -10z"/>
<path d="M1901 894 c-1 -30 3 -41 14 -41 9 0 11 4 6 11 -5 6 -11 25 -14 41 -3
25 -4 23 -6 -11z"/>
<path d="M1043 893 c-7 -15 -13 -35 -13 -45 0 -10 -5 -18 -11 -18 -6 0 -9 -7
-5 -15 3 -8 2 -15 -2 -15 -8 0 -15 -16 -58 -130 -16 -41 -30 -78 -32 -82 -2
-5 0 -8 5 -8 9 0 16 16 58 125 13 33 35 88 50 123 26 62 33 119 8 65z"/>
<path d="M1105 840 c-3 -5 -1 -10 4 -10 6 0 11 5 11 10 0 6 -2 10 -4 10 -3 0
-8 -4 -11 -10z"/>
<path d="M1668 783 c17 -21 45 -51 63 -68 18 -16 7 0 -25 38 -63 72 -87 92
-38 30z"/>
<path d="M1690 806 c18 -23 89 -76 102 -76 20 0 5 21 -29 40 -21 11 -49 28
-63 37 -24 17 -25 17 -10 -1z"/>
<path d="M1631 780 c14 -31 19 -36 19 -24 0 6 -7 19 -16 30 -14 18 -14 18 -3
-6z"/>
<path d="M1614 763 c2 -10 7 -29 11 -43 10 -40 98 -251 102 -246 2 2 -5 27
-16 56 -11 29 -18 57 -15 62 6 9 -20 50 -28 43 -3 -3 -15 29 -27 70 -12 41
-24 75 -27 75 -3 0 -3 -8 0 -17z"/>
<path d="M1822 725 c9 -10 21 -16 28 -13 7 2 -1 10 -16 17 -27 12 -28 11 -12
-4z"/>
<path d="M1006 545 c-23 -54 -19 -68 4 -16 11 24 18 46 16 49 -3 2 -12 -13
-20 -33z"/>
<path d="M1376 565 c-9 -26 -7 -32 5 -12 6 10 9 21 6 23 -2 3 -7 -2 -11 -11z"/>
<path d="M1161 464 c0 -11 3 -14 6 -6 3 7 2 16 -1 19 -3 4 -6 -2 -5 -13z"/>
<path d="M2079 455 c5 -11 17 -29 26 -40 16 -20 16 -20 6 0 -5 11 -17 29 -26
40 -16 20 -16 20 -6 0z"/>
<path d="M1532 405 c-2 -39 11 -65 32 -65 5 0 2 6 -7 13 -9 6 -18 30 -20 52
l-4 40 -1 -40z"/>
<path d="M1935 429 c-8 -13 -85 -51 -85 -42 0 4 -5 2 -11 -4 -6 -6 -17 -9 -24
-7 -7 3 -16 1 -20 -5 -4 -8 6 -9 32 -6 65 9 77 13 111 38 25 19 29 26 18 30
-9 4 -18 2 -21 -4z"/>
<path d="M870 421 c0 -14 56 -33 105 -35 25 0 45 -3 45 -6 0 -3 18 -5 40 -6
33 0 38 2 28 13 -7 8 -27 13 -47 12 -47 -3 -130 11 -137 22 -7 12 -34 12 -34
0z"/>
<path d="M1747 363 c-4 -3 -42 -8 -85 -9 -91 -3 -93 -3 -67 -13 24 -10 132 -3
165 9 3 1 8 2 13 1 4 0 7 4 7 9 0 11 -23 14 -33 3z"/>
<path d="M1267 313 c-25 -33 -16 -39 11 -8 12 13 18 26 14 29 -4 2 -15 -7 -25
-21z"/>
<path d="M830 261 c0 -50 3 -59 20 -64 27 -7 25 -25 -2 -37 -23 -10 -23 -10 2
-7 30 2 41 43 15 53 -10 4 -13 13 -10 25 4 11 2 19 -4 19 -6 0 -11 4 -11 10 0
5 6 7 13 4 17 -6 20 38 4 48 -23 15 -27 8 -27 -51z m30 35 c0 -3 -4 -8 -10
-11 -5 -3 -10 -1 -10 4 0 6 5 11 10 11 6 0 10 -2 10 -4z"/>
<path d="M1952 295 c0 -11 4 -31 8 -45 6 -20 8 -21 8 -5 0 11 -4 31 -8 45 -6
20 -8 21 -8 5z"/>
<path d="M2555 233 c14 -61 27 -93 36 -88 5 4 10 -4 10 -17 1 -16 3 -18 6 -6
2 9 -5 37 -16 62 -12 25 -21 49 -21 55 0 5 -5 13 -10 16 -7 4 -9 -3 -5 -22z"/>
<path d="M1992 205 c0 -16 2 -22 5 -12 2 9 2 23 0 30 -3 6 -5 -1 -5 -18z"/>
<path d="M1972 200 c0 -14 2 -19 5 -12 2 6 2 18 0 25 -3 6 -5 1 -5 -13z"/>
<path d="M840 180 c0 -5 5 -10 11 -10 5 0 7 5 4 10 -3 6 -8 10 -11 10 -2 0 -4
-4 -4 -10z"/>
<path d="M2007 90 c3 -47 7 -87 9 -89 7 -8 3 94 -6 134 -6 28 -6 14 -3 -45z"/>
<path d="M1541 145 c0 -5 6 -21 14 -35 8 -14 14 -20 14 -15 0 6 -6 21 -14 35
-8 14 -14 21 -14 15z"/>
<path d="M1491 85 c1 -19 18 -51 18 -35 0 8 -4 22 -9 30 -5 8 -9 11 -9 5z"/>
</g>
</svg>
