<?xml version="1.0" standalone="no"?>
<!DOCTYPE svg PUBLIC "-//W3C//DTD SVG 20010904//EN"
 "http://www.w3.org/TR/2001/REC-SVG-20010904/DTD/svg10.dtd">
<svg version="1.0" xmlns="http://www.w3.org/2000/svg"
 width="300.000000pt" height="360.000000pt" viewBox="0 0 300.000000 360.000000"
 preserveAspectRatio="xMidYMid meet">
<metadata>
Created by potrace 1.10, written by Peter Selinger 2001-2011
</metadata>
<g transform="translate(0.000000,360.000000) scale(0.100000,-0.100000)"
fill="#000000" stroke="none">
<path d="M878 3533 c7 -3 16 -2 19 1 4 3 -2 6 -13 5 -11 0 -14 -3 -6 -6z"/>
<path d="M1505 3513 c-11 -3 -32 -14 -47 -24 -14 -11 -37 -19 -50 -20 l-23 0
24 -10 c18 -7 28 -6 40 5 32 29 93 48 130 41 92 -17 208 -106 237 -181 9 -24
21 -44 26 -44 5 0 7 -4 4 -9 -8 -12 19 -74 38 -91 9 -7 16 -22 16 -34 -1 -20
-2 -19 -15 4 -7 14 -18 25 -24 25 -5 0 -31 17 -56 38 -30 26 -45 46 -45 62 0
40 -17 71 -52 94 -18 11 -48 32 -67 46 -40 29 -49 31 -58 9 -8 -20 20 -46 82
-78 35 -17 52 -21 57 -13 10 16 15 8 23 -38 l8 -40 -24 21 c-30 26 -60 44 -42
24 8 -9 9 -18 3 -25 -7 -8 -5 -12 5 -12 8 0 12 4 9 9 -3 4 -1 8 4 8 14 0 45
-38 39 -47 -7 -11 57 -83 72 -83 6 0 24 -19 41 -42 18 -25 30 -35 30 -24 0 9
-18 36 -41 59 -22 23 -37 36 -33 28 5 -10 3 -12 -5 -6 -9 5 -10 10 -2 18 8 8
22 0 51 -28 22 -21 40 -45 40 -53 0 -7 4 -11 9 -8 5 3 22 -9 38 -27 15 -18 25
-28 21 -22 -4 7 -5 14 -3 17 3 3 -11 18 -30 33 -20 15 -34 29 -31 32 3 3 22
-7 42 -22 32 -25 35 -25 24 -6 -6 12 -23 27 -36 33 -17 8 -24 18 -21 30 3 10
1 16 -4 12 -8 -5 -13 10 -10 29 1 5 -2 6 -7 3 -10 -6 -36 43 -27 52 3 3 -1 12
-9 21 -7 9 -18 31 -24 48 -19 57 -62 101 -136 142 -70 39 -146 57 -191 44z
m129 -114 c-3 -5 0 -9 6 -9 7 0 23 -9 37 -20 22 -17 23 -20 7 -17 -23 3 -84
45 -84 57 0 4 9 6 20 3 11 -3 17 -9 14 -14z m171 -207 c-8 -9 -56 29 -49 39 4
6 15 2 30 -12 13 -12 22 -25 19 -27z"/>
<path d="M985 3499 c-7 -11 18 -16 45 -9 24 6 23 7 -8 12 -18 2 -35 1 -37 -3z"/>
<path d="M912 3478 c3 -7 22 -13 44 -14 l39 -1 -30 13 c-39 17 -58 17 -53 2z"/>
<path d="M1200 3482 c8 -6 24 -12 35 -14 10 -1 27 -11 37 -20 10 -10 28 -18
41 -18 18 1 16 3 -11 15 -18 8 -31 19 -27 25 3 6 -4 10 -17 10 -13 0 -34 3
-48 6 -19 4 -21 3 -10 -4z"/>
<path d="M758 3473 c7 -3 16 -2 19 1 4 3 -2 6 -13 5 -11 0 -14 -3 -6 -6z"/>
<path d="M1040 3470 c-12 -9 -7 -11 23 -6 20 2 37 1 37 -4 0 -18 -42 -32 -79
-27 -20 3 -27 3 -17 0 15 -4 16 -7 5 -15 -11 -8 -10 -9 4 -4 10 3 29 6 42 6
14 0 33 10 44 22 19 19 23 20 48 8 l28 -14 -33 -4 c-18 -2 -30 -7 -28 -11 7
-10 66 -1 66 10 0 29 -111 60 -140 39z"/>
<path d="M875 3449 c3 -4 -7 -15 -23 -23 -31 -16 -142 -118 -142 -131 0 -7 38
24 122 101 21 19 47 34 58 34 26 0 26 16 0 23 -11 3 -18 1 -15 -4z"/>
<path d="M1190 3455 c0 -18 19 -40 26 -32 4 4 0 15 -9 24 -9 10 -17 13 -17 8z"/>
<path d="M1230 3443 c0 -6 7 -16 15 -23 13 -11 13 -15 3 -21 -9 -6 -6 -9 10
-9 12 0 22 -4 22 -10 0 -9 -39 -14 -85 -11 -38 3 -199 -64 -235 -98 -17 -17
-12 -15 55 20 28 15 67 29 88 33 21 4 35 10 33 15 -3 4 30 8 72 9 42 1 78 6
80 11 2 6 10 7 18 4 22 -8 17 0 -31 47 -25 24 -45 39 -45 33z"/>
<path d="M1393 3430 c22 -14 64 -23 51 -11 -5 5 -22 11 -39 15 -24 5 -27 4
-12 -4z"/>
<path d="M560 3420 c-9 -6 -10 -10 -3 -10 6 0 15 5 18 10 8 12 4 12 -15 0z"/>
<path d="M661 3395 c-17 -19 -36 -32 -44 -30 -15 6 -43 -21 -48 -45 -2 -8 1
-25 5 -38 8 -23 -9 -82 -23 -82 -4 0 -15 -6 -25 -13 -16 -12 -14 -13 16 -9 29
3 36 10 52 49 11 25 29 49 42 55 13 6 26 18 29 27 3 9 20 26 37 39 18 12 27
22 21 22 -7 0 -35 -20 -63 -45 -67 -59 -83 -59 -60 -1 5 14 15 26 22 26 9 0 9
-3 -2 -10 -8 -5 -12 -11 -10 -13 3 -2 23 9 45 26 22 16 31 27 20 23 -20 -6
-20 -6 0 9 11 9 25 13 31 11 12 -5 79 15 90 27 7 7 -50 -8 -65 -17 -13 -8 -42
4 -35 15 12 21 -6 7 -35 -26z"/>
<path d="M948 3423 c7 -3 16 -2 19 1 4 3 -2 6 -13 5 -11 0 -14 -3 -6 -6z"/>
<path d="M910 3410 c-13 -8 -12 -10 3 -10 9 0 17 5 17 10 0 12 -1 12 -20 0z"/>
<path d="M1319 3391 c25 -22 46 -27 55 -12 3 5 -5 12 -18 15 -13 3 -32 9 -43
12 -14 4 -13 1 6 -15z"/>
<path d="M1461 3391 c-6 -4 11 -13 39 -20 28 -7 60 -21 73 -32 27 -22 9 -24
-40 -4 -44 18 -48 19 -31 1 16 -15 78 -49 83 -44 14 16 13 47 -2 60 -24 21
-108 47 -122 39z"/>
<path d="M2698 3323 c-59 -102 -117 -175 -172 -215 -43 -32 -66 -68 -44 -68 6
0 4 -8 -5 -18 -9 -10 -13 -23 -8 -30 4 -7 6 -24 3 -38 -2 -14 0 -24 7 -24 8 0
10 12 7 35 -4 24 -1 44 10 60 11 17 12 25 5 25 -7 0 -9 5 -6 11 4 5 12 8 18 6
11 -3 71 57 140 138 l25 30 -5 -30 c-8 -50 -33 -128 -53 -166 -11 -20 -17 -39
-14 -42 3 -3 -3 -8 -14 -11 -13 -5 -18 -13 -15 -25 8 -32 -160 -150 -214 -151
-13 0 -23 -6 -23 -13 0 -9 -12 -14 -31 -15 -17 0 -37 -6 -45 -13 -10 -8 -18
-8 -27 -1 -7 6 -57 11 -111 11 -54 0 -104 5 -111 11 -9 8 -14 6 -19 -5 -3 -8
-15 -15 -27 -15 -12 0 -20 -3 -16 -6 7 -7 -17 -59 -31 -68 -4 -2 -9 5 -9 17
-2 17 0 19 7 7 8 -13 10 -12 10 4 0 15 -5 17 -27 11 -16 -3 -37 -15 -48 -25
-11 -10 -30 -21 -43 -25 -12 -3 -20 -10 -17 -15 3 -4 -5 -6 -17 -3 -13 3 -20
2 -16 -2 4 -5 3 -14 -3 -22 -13 -15 -111 -18 -139 -3 -13 7 -19 6 -23 -4 -7
-19 42 -36 101 -36 40 0 132 39 132 56 0 3 -5 2 -12 -2 -7 -4 -8 -3 -4 5 4 6
12 9 17 6 5 -4 14 5 21 19 11 25 18 29 35 24 14 -5 3 -25 -32 -62 -19 -21 -35
-44 -35 -52 0 -22 10 -17 21 12 5 15 12 24 15 21 7 -7 -45 -98 -83 -145 -16
-20 -20 -30 -10 -27 8 4 28 25 43 48 18 28 29 37 32 27 3 -7 18 -25 34 -38 22
-19 26 -27 17 -38 -8 -10 -8 -18 -1 -27 8 -10 6 -13 -8 -14 -11 -1 -23 3 -26
9 -5 8 -1 9 10 5 9 -4 15 -3 11 2 -3 6 -14 9 -25 8 -19 -1 -19 -2 2 -24 14
-15 24 -19 28 -12 4 6 11 9 16 7 5 -1 10 12 12 31 3 28 -3 40 -34 72 l-37 38
26 58 c15 32 27 49 27 38 1 -20 1 -20 15 -1 8 10 12 23 8 29 -3 6 -1 7 4 4 6
-4 21 13 34 38 27 50 37 55 94 42 22 -5 61 -6 87 -3 26 4 68 1 94 -5 52 -13
98 -3 143 32 13 11 31 19 41 19 9 0 50 25 91 55 41 30 79 55 84 55 11 0 25
-20 61 -89 24 -44 31 -86 16 -93 -14 -5 -1 -96 14 -102 11 -4 12 -2 4 14 -11
20 3 39 15 20 4 -6 12 -7 18 -3 7 4 6 -1 -2 -10 -12 -16 -12 -17 5 -11 10 4
28 16 39 29 11 12 37 32 57 44 l36 22 16 -23 16 -22 0 22 c0 14 -11 29 -32 42
l-32 19 -41 -45 c-25 -26 -50 -44 -63 -44 -27 0 -27 6 -2 48 11 17 15 32 10
32 -6 0 -10 12 -10 28 0 36 -34 90 -65 104 -14 6 -25 17 -25 24 0 8 -6 11 -17
7 -18 -7 -15 0 21 52 12 16 34 75 49 130 50 180 77 288 74 292 -2 2 -24 -32
-49 -74z m-64 -308 c-4 -8 -10 -15 -15 -15 -4 0 -6 7 -3 15 4 8 10 15 15 15 4
0 6 -7 3 -15z m53 -204 c17 -40 -1 -32 -23 11 -12 22 -12 29 -3 26 7 -2 19
-19 26 -37z m10 -63 c-3 -8 -6 -5 -6 6 -1 11 2 17 5 13 3 -3 4 -12 1 -19z"/>
<path d="M845 3359 c-28 -18 -68 -46 -90 -64 -32 -26 -47 -32 -75 -29 -19 2
-28 1 -20 -2 8 -3 34 -12 57 -20 52 -19 92 -83 100 -161 5 -45 2 -59 -26 -107
-32 -57 -41 -119 -20 -132 7 -4 37 -7 68 -8 l56 -1 -2 -63 -3 -62 54 -24 c47
-21 56 -29 65 -63 17 -60 13 -87 -15 -114 -18 -17 -24 -31 -22 -51 4 -27 4
-27 -14 -11 -22 19 -24 8 -3 -13 19 -20 37 -8 33 21 -2 15 7 32 24 48 20 18
25 31 21 48 -6 21 -5 23 10 10 23 -19 21 1 -3 32 -25 31 -25 47 -2 47 11 0 5
8 -18 22 -19 12 -39 21 -45 19 -6 -1 -6 2 1 8 14 15 70 -4 79 -27 5 -13 8 -14
14 -3 5 7 14 10 20 7 6 -4 8 -13 4 -19 -4 -7 0 -6 10 2 9 7 17 10 17 6 0 -5 9
0 20 10 11 10 17 22 14 26 -7 12 -44 12 -44 0 0 -5 10 -7 23 -3 19 5 20 3 9
-10 -22 -27 -72 -8 -66 25 4 20 3 19 -6 -2 l-10 -24 -25 23 c-14 13 -28 20
-32 17 -3 -4 -13 -1 -21 6 -13 10 -15 9 -9 -7 6 -14 4 -17 -9 -12 -8 3 -22 6
-29 6 -18 0 -22 25 -14 77 5 38 3 45 -19 59 -18 12 -39 15 -78 11 -54 -5 -54
-5 -54 23 0 17 7 33 18 39 9 5 16 13 15 18 -4 14 20 72 28 67 4 -2 5 4 2 15
-2 10 0 35 5 54 7 25 7 37 0 39 -20 7 3 43 48 76 24 17 51 32 58 32 8 0 27 7
42 15 16 8 47 15 69 15 l40 1 -33 14 c-23 10 -38 11 -50 5 -9 -6 -38 -19 -64
-29 -25 -11 -65 -36 -88 -57 -34 -31 -43 -35 -51 -23 -12 20 -12 23 12 53 11
14 17 30 14 36 -3 6 2 14 12 18 10 4 19 14 21 22 2 10 -7 6 -25 -11 -47 -43
-60 -50 -77 -43 -9 3 -13 10 -10 15 3 5 -3 6 -12 2 -12 -4 -15 -2 -12 8 3 8
15 15 28 15 13 1 38 17 55 35 17 19 43 40 58 48 15 8 27 18 27 23 0 12 -1 11
-55 -23z m-25 -134 c-7 -9 -15 -13 -18 -10 -3 2 1 11 8 20 7 9 15 13 18 10 3
-2 -1 -11 -8 -20z"/>
<path d="M1395 3370 c-4 -6 3 -10 14 -10 25 0 27 6 6 13 -8 4 -17 2 -20 -3z"/>
<path d="M517 3316 c-48 -30 -55 -37 -31 -33 22 3 80 44 73 51 -2 3 -21 -6
-42 -18z"/>
<path d="M1208 3325 c-42 -7 -91 -20 -109 -29 -17 -9 -36 -13 -42 -9 -6 3 -7
1 -3 -5 9 -14 52 -16 61 -2 3 5 13 6 22 3 10 -4 14 -2 10 4 -12 20 220 39 255
21 9 -4 30 -9 45 -10 15 -1 31 -6 34 -11 4 -5 9 -5 13 1 6 11 -51 32 -87 32
-10 0 -15 5 -12 10 9 14 -91 11 -187 -5z"/>
<path d="M1450 3336 c0 -2 9 -6 20 -9 11 -3 18 -1 14 4 -5 9 -34 13 -34 5z"/>
<path d="M1611 3308 c-1 -10 6 -18 14 -18 7 0 18 -7 23 -16 7 -13 10 -14 21 0
10 12 9 17 -9 26 -11 6 -24 8 -29 5 -5 -3 -12 1 -14 7 -3 8 -6 6 -6 -4z m54
-26 c-3 -3 -11 0 -18 7 -9 10 -8 11 6 5 10 -3 15 -9 12 -12z"/>
<path d="M451 3293 c-1 -12 -10 -27 -21 -33 -26 -14 -53 -67 -47 -92 3 -11 1
-30 -5 -43 -17 -37 23 -110 68 -125 18 -6 42 -9 51 -7 12 3 9 5 -8 6 -31 1
-82 38 -73 53 4 6 9 6 13 1 10 -14 61 -44 61 -36 -1 15 -68 51 -77 42 -6 -6
-14 4 -20 25 -9 28 -7 39 10 65 12 21 25 30 34 26 11 -4 13 -1 9 10 -3 9 -2
13 4 10 8 -5 50 63 50 81 0 13 -32 -20 -62 -64 -16 -24 -32 -41 -34 -39 -9 9
17 63 40 82 18 15 22 25 16 40 -8 19 -9 19 -9 -2z"/>
<path d="M386 3275 c-16 -14 -25 -25 -19 -25 5 0 20 11 33 25 30 32 23 32 -14
0z"/>
<path d="M516 3264 c-14 -15 -26 -31 -26 -36 0 -6 8 -1 18 11 9 11 26 27 37
36 11 8 15 15 9 15 -6 0 -23 -12 -38 -26z"/>
<path d="M1531 3273 c30 -36 57 -63 63 -63 4 0 4 6 0 13 -7 10 56 -42 94 -80
7 -7 19 -13 26 -13 7 0 21 -8 32 -19 11 -10 30 -22 42 -25 12 -4 20 -12 16
-17 -3 -5 -2 -9 3 -8 20 3 35 -3 65 -29 34 -30 74 -50 63 -32 -9 15 7 12 48
-10 20 -11 37 -16 37 -10 0 12 -46 36 -88 45 -18 3 -30 10 -28 14 3 4 0 8 -7
8 -7 0 -32 14 -57 30 -25 17 -67 43 -95 58 -27 15 -58 36 -67 47 -10 11 -18
17 -18 13 0 -4 -16 6 -35 21 -86 71 -124 95 -94 57z"/>
<path d="M914 3264 c-18 -14 -18 -15 4 -4 12 6 22 13 22 15 0 8 -5 6 -26 -11z"/>
<path d="M1496 3272 c-3 -5 1 -9 9 -9 8 0 12 4 9 9 -3 4 -7 8 -9 8 -2 0 -6 -4
-9 -8z"/>
<path d="M2541 3264 c0 -11 3 -14 6 -6 3 7 2 16 -1 19 -3 4 -6 -2 -5 -13z"/>
<path d="M869 3233 c-13 -16 -12 -17 4 -4 9 7 17 15 17 17 0 8 -8 3 -21 -13z"/>
<path d="M2311 3229 c-18 -11 -31 -23 -28 -26 3 -3 18 4 34 14 15 11 35 23 43
26 13 5 13 6 0 6 -8 1 -30 -8 -49 -20z"/>
<path d="M1670 3236 c0 -2 28 -28 63 -57 34 -29 50 -39 34 -23 -15 17 -25 33
-21 36 3 3 0 9 -7 14 -8 4 -10 3 -5 -4 4 -7 3 -12 -2 -12 -6 0 -12 6 -15 14
-5 14 -47 42 -47 32z"/>
<path d="M356 3214 c-3 -9 -6 -28 -5 -42 1 -26 1 -26 8 4 4 17 11 36 15 42 4
7 3 12 -2 12 -6 0 -13 -7 -16 -16z"/>
<path d="M702 3208 c-7 -7 -12 -17 -12 -22 0 -6 4 -5 9 3 7 11 13 5 25 -24 9
-21 19 -49 22 -62 4 -13 10 -25 14 -28 10 -6 -1 34 -24 89 -20 47 -20 57 -1
32 8 -11 15 -15 15 -10 0 11 -20 34 -30 34 -3 0 -11 -5 -18 -12z"/>
<path d="M610 3160 c-6 -11 -8 -20 -6 -20 3 0 10 9 16 20 6 11 8 20 6 20 -3 0
-10 -9 -16 -20z"/>
<path d="M520 3151 c-5 -11 -10 -32 -9 -48 l1 -28 8 30 c4 17 11 38 15 48 10
23 -2 22 -15 -2z"/>
<path d="M670 3163 c0 -3 11 -30 25 -59 14 -30 25 -66 25 -81 -1 -16 -1 -58 0
-95 0 -38 -3 -76 -9 -85 -13 -25 -7 -139 9 -158 7 -8 9 -15 4 -16 -17 -1 31
-18 51 -18 16 1 15 3 -6 10 -35 13 -49 43 -53 112 -3 43 0 59 11 66 23 12 14
232 -11 279 -9 18 -21 30 -26 27 -6 -3 -7 1 -4 9 3 9 1 16 -5 16 -6 0 -11 -3
-11 -7z"/>
<path d="M460 3141 c0 -6 4 -13 10 -16 6 -3 7 1 4 9 -7 18 -14 21 -14 7z"/>
<path d="M426 3117 c3 -10 9 -15 12 -12 3 3 0 11 -7 18 -10 9 -11 8 -5 -6z"/>
<path d="M263 3100 c-37 -22 -39 -28 -17 -56 8 -10 13 -13 9 -6 -11 22 5 50
37 61 40 14 43 14 29 -3 -7 -8 -11 -29 -9 -47 3 -32 3 -32 18 17 l15 50 -25 2
c-14 1 -40 -7 -57 -18z"/>
<path d="M791 3099 c-1 -14 -4 -29 -7 -32 -4 -4 -8 -28 -10 -54 l-4 -48 20 35
c20 37 24 73 10 105 -8 18 -9 18 -9 -6z"/>
<path d="M480 3103 c-6 -32 -4 -40 18 -67 15 -20 22 -24 22 -12 0 9 -5 16 -11
16 -5 0 -8 3 -6 8 3 4 -1 21 -8 37 -7 17 -14 24 -15 18z"/>
<path d="M430 3086 c0 -2 7 -9 15 -16 9 -7 15 -8 15 -2 0 5 -7 12 -15 16 -8 3
-15 4 -15 2z"/>
<path d="M530 3050 c6 -11 13 -20 16 -20 2 0 0 9 -6 20 -6 11 -13 20 -16 20
-2 0 0 -9 6 -20z"/>
<path d="M2401 3036 c-40 -30 -127 -46 -245 -46 -61 0 -85 -3 -80 -11 4 -7 -2
-7 -16 1 l-23 13 24 13 c13 7 35 11 49 8 23 -4 23 -3 -3 7 -22 9 -33 8 -52 -5
-28 -18 -39 -20 -30 -6 3 6 1 10 -5 10 -7 0 -9 -6 -6 -12 3 -7 9 -20 12 -28 3
-8 21 -22 40 -31 26 -13 32 -13 23 -3 -9 11 -9 14 0 14 7 0 10 4 7 8 -2 4 30
5 72 1 42 -4 79 -6 83 -3 4 2 9 0 11 -6 2 -5 24 1 50 14 27 13 50 20 54 15 9
-15 25 -10 22 7 -2 10 3 19 11 22 10 3 12 -1 8 -17 -3 -11 -1 -21 4 -21 5 0 9
7 9 15 0 8 9 20 20 27 23 14 27 38 7 38 -7 0 -28 -11 -46 -24z"/>
<path d="M2131 3041 c-10 -6 -5 -11 18 -16 36 -8 53 1 31 15 -19 12 -31 12
-49 1z"/>
<path d="M350 3028 c0 -15 62 -68 73 -61 7 4 5 -1 -3 -12 -14 -17 -13 -17 10
-10 14 4 32 11 40 16 12 6 10 8 -8 9 -28 0 -59 15 -89 43 -13 11 -23 18 -23
15z"/>
<path d="M1810 3026 c0 -2 8 -10 18 -17 15 -13 16 -12 3 4 -13 16 -21 21 -21
13z"/>
<path d="M231 3006 c-35 -19 -50 -54 -51 -113 0 -41 5 -58 26 -82 14 -17 32
-31 40 -31 8 0 34 20 57 45 50 51 50 61 0 14 l-32 -32 -28 19 c-15 10 -30 18
-33 17 -12 -3 -9 80 4 111 17 40 51 64 60 41 3 -8 -2 -18 -11 -23 -14 -8 -14
-10 1 -15 11 -4 20 3 31 22 14 27 13 29 -8 35 -29 7 -28 8 -56 -8z m19 -197
c18 -15 20 -19 7 -15 -10 3 -22 6 -27 6 -4 0 -10 7 -14 15 -8 21 4 18 34 -6z"/>
<path d="M325 2990 c3 -5 8 -10 11 -10 2 0 4 5 4 10 0 6 -5 10 -11 10 -5 0 -7
-4 -4 -10z"/>
<path d="M2440 2972 c-8 -10 -22 -26 -30 -37 -14 -20 -14 -20 8 -1 19 17 22
17 22 3 0 -10 5 -17 10 -17 6 0 10 16 10 35 0 40 -1 41 -20 17z"/>
<path d="M1967 2969 c7 -7 15 -10 18 -7 3 3 -2 9 -12 12 -14 6 -15 5 -6 -5z"/>
<path d="M475 2946 l-30 -14 30 3 c16 1 31 7 33 14 4 13 4 13 -33 -3z"/>
<path d="M2135 2944 c22 -7 49 -12 60 -13 20 0 20 0 0 8 -20 8 -20 8 0 12 11
3 -7 5 -40 5 l-60 0 40 -12z"/>
<path d="M2309 2943 c-13 -16 -12 -17 4 -4 9 7 17 15 17 17 0 8 -8 3 -21 -13z"/>
<path d="M2000 2907 c24 -26 46 -47 48 -47 8 0 -34 47 -62 69 -21 16 -16 9 14
-22z"/>
<path d="M2000 2947 c0 -3 12 -12 26 -22 15 -9 23 -12 20 -6 -7 11 -46 35 -46
28z"/>
<path d="M2228 2943 c7 -3 16 -2 19 1 4 3 -2 6 -13 5 -11 0 -14 -3 -6 -6z"/>
<path d="M315 2930 c27 -12 43 -12 25 0 -8 5 -22 9 -30 9 -10 0 -8 -3 5 -9z"/>
<path d="M2269 2923 c-13 -16 -12 -17 4 -4 9 7 17 15 17 17 0 8 -8 3 -21 -13z"/>
<path d="M418 2923 c7 -3 16 -2 19 1 4 3 -2 6 -13 5 -11 0 -14 -3 -6 -6z"/>
<path d="M2160 2900 c-9 -6 -10 -10 -3 -10 6 0 15 5 18 10 8 12 4 12 -15 0z"/>
<path d="M330 2890 c0 -5 7 -7 15 -4 8 4 15 8 15 10 0 2 -7 4 -15 4 -8 0 -15
-4 -15 -10z"/>
<path d="M2070 2895 c0 -2 15 -12 32 -23 l33 -21 -25 -10 c-14 -5 -18 -10 -10
-10 8 -1 32 8 53 19 41 22 51 25 42 10 -4 -6 1 -7 11 -3 11 4 13 8 6 11 -7 2
-9 8 -6 14 3 5 -8 2 -25 -7 -31 -15 -71 -13 -71 5 0 4 -9 10 -20 13 -11 3 -20
4 -20 2z"/>
<path d="M2303 2885 c0 -8 4 -12 9 -9 5 3 6 10 3 15 -9 13 -12 11 -12 -6z"/>
<path d="M1150 2880 c-8 -5 -12 -12 -9 -15 4 -3 12 1 19 10 14 17 11 19 -10 5z"/>
<path d="M1998 2875 c6 -11 25 -29 44 -39 18 -10 29 -15 23 -10 -67 61 -77 68
-67 49z"/>
<path d="M1351 2876 c3 -3 44 -8 90 -10 46 -1 93 -7 104 -11 17 -7 18 -6 7 6
-8 9 -45 15 -110 17 -53 2 -94 1 -91 -2z"/>
<path d="M1093 2846 c-13 -6 -23 -14 -23 -18 0 -13 10 -9 37 12 28 22 22 24
-14 6z"/>
<path d="M460 2839 c0 -5 5 -7 10 -4 6 3 10 8 10 11 0 2 -4 4 -10 4 -5 0 -10
-5 -10 -11z"/>
<path d="M1611 2836 c2 -2 15 -9 29 -15 24 -11 24 -11 6 3 -16 13 -49 24 -35
12z"/>
<path d="M751 2821 c-23 -15 -5 -45 22 -36 36 11 87 14 87 5 0 -9 -50 -20 -91
-20 -37 0 -40 -35 -5 -51 27 -13 76 -5 76 12 0 5 10 23 21 38 23 31 19 54 -8
44 -12 -5 -14 -3 -8 8 8 12 6 12 -8 1 -9 -8 -25 -11 -38 -7 -13 5 -19 3 -15
-3 3 -5 -1 -12 -8 -15 -10 -4 -13 0 -11 14 4 22 5 22 -14 10z m61 -84 c-16
-16 -23 -17 -41 -8 -32 18 -25 28 20 28 40 0 40 0 21 -20z"/>
<path d="M1125 2820 c-3 -6 1 -7 9 -4 18 7 21 14 7 14 -6 0 -13 -4 -16 -10z"/>
<path d="M1316 2822 c-3 -5 1 -9 9 -9 8 0 12 4 9 9 -3 4 -7 8 -9 8 -2 0 -6 -4
-9 -8z"/>
<path d="M2195 2810 c10 -11 20 -20 23 -20 3 0 -3 9 -13 20 -10 11 -20 20 -23
20 -3 0 3 -9 13 -20z"/>
<path d="M2545 2807 c-10 -22 -22 -26 -129 -42 -62 -10 -34 -16 38 -9 42 4 74
13 88 25 26 23 32 24 24 3 -3 -8 -2 -12 4 -9 14 9 12 31 -3 43 -9 8 -15 5 -22
-11z"/>
<path d="M323 2798 c-35 -38 -73 -121 -73 -158 0 -19 -7 -44 -15 -54 -16 -21
-20 -73 -7 -94 6 -8 9 0 9 20 0 44 6 78 13 78 3 0 11 -9 17 -20 11 -16 10 -18
-2 -14 -12 5 -15 -2 -15 -29 0 -42 10 -50 63 -53 l39 -2 -36 37 c-20 21 -34
40 -31 43 3 3 -1 18 -10 34 -16 32 -18 78 -5 109 7 17 9 17 9 3 1 -26 52 -75
84 -82 15 -4 27 -3 27 0 0 14 -54 52 -67 47 -13 -5 -17 6 -14 40 1 9 -3 17
-10 17 -8 0 -8 4 2 16 7 9 14 23 15 31 2 8 10 23 20 34 9 10 15 19 12 19 -2 0
-14 -10 -25 -22z m27 -158 c0 -5 -2 -10 -4 -10 -3 0 -8 5 -11 10 -3 6 -1 10 4
10 6 0 11 -4 11 -10z m-62 -123 c21 -22 21 -23 2 -23 -11 0 -20 3 -20 7 0 4
-3 14 -6 23 -8 22 -1 20 24 -7z"/>
<path d="M1080 2800 c-13 -8 -13 -10 2 -10 9 0 20 5 23 10 8 13 -5 13 -25 0z"/>
<path d="M1430 2779 c-59 -32 -92 -59 -73 -59 7 0 15 5 18 10 8 13 85 53 91
47 5 -4 -49 -43 -54 -39 -9 8 -52 -49 -55 -73 -3 -17 -2 -22 0 -13 4 17 53 64
128 126 52 43 22 44 -55 1z"/>
<path d="M1557 2797 c-3 -9 -3 -18 1 -21 4 -2 4 -80 1 -173 -3 -92 -3 -172 1
-178 9 -15 6 -88 -5 -105 -7 -12 -6 -13 7 -3 8 7 17 11 20 8 3 -3 13 5 24 17
15 18 16 20 2 9 -10 -7 -18 -10 -18 -5 1 12 26 46 34 45 23 -3 25 1 11 15 -9
9 -17 15 -18 13 -2 -2 -9 -16 -16 -31 -8 -15 -18 -25 -23 -22 -5 3 -2 17 7 30
11 17 12 23 3 22 -7 -2 -12 3 -10 10 1 7 -3 22 -9 33 -9 17 -7 21 10 26 11 3
19 8 17 12 -2 3 14 7 36 8 21 0 47 8 56 16 9 8 28 20 41 27 21 11 23 10 18 -4
-4 -9 -4 -16 -1 -16 2 0 9 11 14 25 5 14 16 25 25 25 23 0 18 -17 -19 -57 -26
-29 -50 -43 -99 -57 -36 -11 -64 -23 -62 -27 7 -10 58 2 73 18 7 7 29 13 48
13 23 0 34 5 34 14 0 8 4 16 8 18 4 2 19 18 32 37 16 24 20 36 12 39 -7 2 -10
7 -7 12 3 4 -23 -1 -56 -11 -77 -24 -90 -24 -112 1 -9 11 -27 20 -39 19 -22 0
-22 -1 -3 -9 14 -6 15 -9 5 -10 -8 -1 10 -9 40 -19 l55 -18 -33 -7 c-19 -5
-30 -12 -25 -19 4 -7 0 -8 -13 -3 -10 5 -27 11 -36 13 -10 3 -18 9 -18 13 0 5
8 11 18 13 16 4 16 5 -1 6 -14 1 -16 7 -11 34 4 17 7 41 9 52 1 14 8 19 21 16
35 -7 149 -13 144 -8 -3 3 -33 8 -67 10 -65 5 -83 12 -83 28 0 6 10 3 22 -5
38 -27 38 -18 0 21 -21 21 -40 36 -43 35 -4 -1 -5 8 -2 19 5 18 8 18 33 -12
23 -29 34 -33 87 -37 38 -3 63 0 67 7 4 6 1 11 -6 11 -7 0 -24 3 -37 7 -16 4
-22 3 -17 -5 10 -17 -49 3 -85 28 -45 33 -26 37 22 5 30 -19 44 -24 49 -15 5
8 16 9 31 5 43 -14 163 -12 178 2 11 12 9 13 -13 8 -14 -3 -38 -7 -52 -10 -14
-3 -24 -2 -21 2 3 4 -18 15 -46 24 -39 13 -47 14 -32 3 10 -8 23 -14 29 -14 5
0 7 -2 4 -5 -3 -3 -22 2 -42 10 -21 9 -35 12 -32 7 7 -12 -19 -23 -38 -16 -8
3 -17 12 -20 21 -5 11 -15 14 -35 10 -18 -4 -31 -2 -33 5 -3 7 -7 5 -11 -5z
m27 -453 c3 -8 2 -12 -4 -9 -6 3 -10 10 -10 16 0 14 7 11 14 -7z"/>
<path d="M1287 2793 c-12 -12 -7 -22 8 -17 8 4 15 10 15 15 0 11 -14 12 -23 2z"/>
<path d="M962 2770 c7 -11 17 -20 22 -20 5 0 1 9 -9 20 -10 11 -20 20 -22 20
-2 0 2 -9 9 -20z"/>
<path d="M1226 2775 c-11 -8 -15 -15 -9 -15 6 0 16 7 23 15 16 19 11 19 -14 0z"/>
<path d="M1350 2768 c-55 -61 -71 -86 -58 -94 7 -4 10 -4 6 1 -4 4 4 16 17 27
14 11 23 23 20 28 -3 5 3 15 13 22 19 14 37 38 28 38 -3 0 -14 -10 -26 -22z"/>
<path d="M446 2763 c-6 -14 -5 -15 5 -6 7 7 10 15 7 18 -3 3 -9 -2 -12 -12z"/>
<path d="M1251 2767 c-8 -10 -7 -14 2 -14 8 0 14 6 14 14 0 7 -1 13 -2 13 -2
0 -8 -6 -14 -13z"/>
<path d="M1450 2709 c-38 -40 -70 -77 -70 -81 0 -16 18 -7 34 17 21 33 50 24
34 -11 -6 -13 -15 -21 -20 -18 -4 3 -5 10 -2 16 4 7 2 8 -5 4 -9 -6 -9 -11 -1
-21 8 -9 8 -15 0 -20 -5 -3 -10 1 -10 10 0 9 -4 13 -10 10 -12 -7 17 -55 34
-55 6 0 5 4 -3 9 -11 7 -8 16 14 45 15 20 32 33 38 29 5 -3 7 -2 4 4 -4 6 1
19 9 29 14 17 15 12 9 -56 -6 -71 -8 -77 -48 -117 l-42 -42 -17 24 c-15 19
-16 26 -5 37 10 11 10 19 -4 47 -13 28 -17 31 -23 16 -4 -10 -2 -23 4 -29 5
-5 9 -19 9 -31 -1 -16 -2 -17 -6 -2 -5 20 -19 22 -29 5 -4 -7 -3 -8 4 -4 7 4
12 1 12 -8 0 -8 6 -19 13 -23 7 -4 21 -19 30 -32 15 -23 15 -25 -1 -37 -14
-11 -14 -13 -2 -13 8 0 29 11 45 25 23 20 25 23 7 14 -42 -21 -36 -1 16 54 35
37 52 64 53 83 1 15 3 45 5 66 2 20 -1 37 -7 37 -6 0 -7 6 -3 13 4 6 -8 -1
-26 -18 -25 -22 -31 -25 -26 -11 5 16 4 17 -9 6 -25 -20 -17 5 9 29 18 17 25
19 29 9 4 -11 6 -11 6 0 1 7 6 10 13 6 7 -4 8 -3 4 5 -4 6 -2 19 5 27 6 8 9
17 6 21 -4 3 -38 -27 -77 -68z"/>
<path d="M1010 2760 c0 -5 5 -10 11 -10 5 0 7 5 4 10 -3 6 -8 10 -11 10 -2 0
-4 -4 -4 -10z"/>
<path d="M1040 2760 c0 -5 5 -10 11 -10 5 0 7 5 4 10 -3 6 -8 10 -11 10 -2 0
-4 -4 -4 -10z"/>
<path d="M2585 2760 c3 -5 8 -10 11 -10 2 0 4 5 4 10 0 6 -5 10 -11 10 -5 0
-7 -4 -4 -10z"/>
<path d="M1120 2741 c0 -7 -4 -10 -9 -7 -5 3 -12 -1 -15 -10 -10 -25 -7 -26
16 -4 12 11 18 23 15 27 -4 3 -7 1 -7 -6z"/>
<path d="M1988 2740 c-3 -8 -27 -43 -52 -77 -26 -35 -45 -67 -41 -73 3 -6 24
17 46 50 23 33 42 60 45 60 9 0 -12 -38 -43 -79 -28 -37 -44 -81 -29 -81 2 0
21 29 42 65 39 66 53 79 55 48 0 -10 2 -13 5 -8 2 6 -2 32 -9 60 -8 28 -16 43
-19 35z"/>
<path d="M2464 2727 c27 -22 28 -25 13 -48 -19 -30 -11 -50 37 -104 20 -22 36
-43 36 -47 0 -5 5 -8 11 -8 6 0 -4 18 -23 41 -63 78 -63 77 -48 117 12 33 11
37 -10 54 -12 10 -27 18 -34 18 -6 0 2 -11 18 -23z"/>
<path d="M325 2729 c-4 -6 -5 -12 -2 -15 2 -3 7 2 10 11 7 17 1 20 -8 4z"/>
<path d="M341 2708 c-10 -30 -9 -31 4 -14 8 11 15 26 15 33 0 22 -8 14 -19
-19z"/>
<path d="M2072 2680 c-13 -16 -19 -30 -14 -30 4 0 16 14 25 30 10 17 16 30 14
30 -2 0 -13 -13 -25 -30z"/>
<path d="M1336 2682 c-4 -12 -12 -19 -18 -16 -7 4 -8 2 -4 -5 9 -13 -61 -88
-72 -77 -4 4 0 13 8 19 8 7 24 24 35 37 11 14 1 8 -21 -13 -22 -20 -43 -34
-47 -31 -4 4 -7 3 -7 -3 0 -18 43 -23 65 -9 29 19 78 92 73 108 -3 8 -8 4 -12
-10z"/>
<path d="M1683 2683 c9 -2 23 -2 30 0 6 3 -1 5 -18 5 -16 0 -22 -2 -12 -5z"/>
<path d="M805 2670 c-3 -5 3 -13 12 -19 16 -9 14 -10 -9 -11 -15 0 -29 -4 -32
-8 -3 -5 -19 -7 -35 -6 -17 1 -29 -2 -26 -7 3 -4 13 -5 21 -2 9 3 19 1 23 -5
4 -7 20 -5 50 9 24 11 46 17 48 15 11 -10 -10 -47 -23 -42 -10 4 -13 -2 -10
-24 2 -20 -2 -30 -13 -33 -13 -3 -13 -5 4 -12 11 -4 32 -19 48 -33 20 -19 30
-23 38 -15 7 7 8 17 3 25 -15 23 -13 38 4 38 11 0 13 3 5 8 -8 5 -6 13 6 29
17 20 40 19 44 -3 1 -5 6 -8 10 -6 21 7 -2 -24 -27 -37 -18 -8 -25 -16 -18
-23 6 -6 1 -19 -14 -36 -17 -18 -21 -28 -13 -33 7 -4 9 -17 6 -29 -5 -18 -3
-19 9 -9 8 7 12 19 9 27 -6 17 59 122 75 122 6 0 10 5 10 11 0 5 -4 7 -10 4
-5 -3 -10 1 -10 10 0 9 -4 13 -10 10 -5 -3 -10 0 -10 8 0 8 -16 27 -36 42 -31
24 -34 25 -25 7 17 -33 13 -50 -16 -64 -31 -15 -33 -40 -6 -70 22 -25 2 -23
-25 2 -29 27 -28 51 3 80 14 13 25 29 25 37 0 15 -78 55 -85 43z"/>
<path d="M1160 2655 c-17 -10 -20 -14 -9 -15 9 0 22 7 29 15 15 18 12 18 -20
0z"/>
<path d="M222 2641 c-8 -4 -13 -11 -13 -15 1 -3 -6 -23 -14 -43 -26 -61 -12
-54 17 8 15 33 26 59 25 59 -1 0 -8 -4 -15 -9z"/>
<path d="M1236 2634 c-23 -23 -20 -30 4 -9 11 10 20 20 20 22 0 7 -9 2 -24
-13z"/>
<path d="M407 2627 c-3 -8 -1 -18 6 -21 9 -3 9 -5 0 -5 -7 -1 -10 -8 -6 -18 4
-9 2 -14 -3 -11 -5 4 -9 -20 -9 -53 0 -57 2 -61 43 -101 38 -36 42 -44 37 -72
-4 -17 -16 -46 -26 -64 -21 -37 -24 -46 -10 -38 5 4 7 -3 4 -14 -3 -11 -10
-23 -15 -26 -6 -4 -8 3 -4 17 7 24 7 24 -8 -1 -17 -28 -20 -44 -7 -36 5 4 7
-4 4 -15 -6 -20 -7 -19 -18 7 -13 30 -9 58 6 48 5 -3 9 2 9 10 0 20 -17 30
-23 14 -4 -9 -6 -9 -6 -1 -1 14 50 76 57 69 3 -3 -1 -12 -8 -21 -7 -9 -10 -18
-7 -21 3 -3 12 7 20 23 12 22 13 33 4 48 -6 11 -11 29 -12 40 -1 11 -5 18 -8
15 -12 -9 -37 39 -48 92 -13 64 -13 68 -4 93 4 11 -2 7 -14 -10 -18 -27 -19
-32 -6 -52 8 -12 15 -33 15 -46 0 -13 11 -41 25 -61 29 -43 32 -53 8 -35 -10
7 -5 0 10 -15 22 -22 26 -31 16 -42 -6 -7 -16 -11 -23 -7 -6 3 -8 3 -4 -2 4
-4 0 -14 -10 -21 -14 -10 -17 -29 -17 -98 -1 -51 3 -80 8 -71 4 8 13 15 20 15
11 0 57 97 57 123 1 6 9 29 19 50 23 49 17 79 -20 101 -39 23 -56 81 -43 146
10 50 4 100 -9 67z"/>
<path d="M1066 2627 c3 -8 17 -18 30 -21 14 -4 23 -10 20 -14 -2 -4 6 -9 19
-10 13 -1 27 3 30 8 4 6 -1 7 -11 3 -12 -4 -15 -3 -10 5 4 7 15 12 26 12 10 0
21 7 24 16 5 13 3 14 -6 7 -7 -6 -21 -9 -30 -8 -9 2 -19 -4 -22 -12 -5 -12
-12 -11 -41 7 -26 16 -33 18 -29 7z"/>
<path d="M1981 2580 c-59 -68 -57 -83 3 -18 21 24 32 32 24 18 -8 -14 -17 -34
-21 -45 -7 -20 -7 -20 8 0 35 45 63 94 57 99 -11 12 -20 5 -71 -54z"/>
<path d="M2214 2634 c-7 -3 -41 -9 -75 -14 l-64 -9 68 4 67 4 -16 -30 c-8 -17
-13 -38 -11 -47 4 -13 5 -12 6 4 0 11 12 35 26 54 31 42 31 47 -1 34z"/>
<path d="M300 2625 c0 -5 9 -23 20 -40 26 -39 26 -25 0 17 -11 18 -20 29 -20
23z"/>
<path d="M2395 2621 c-3 -5 3 -12 13 -15 35 -11 64 -52 65 -92 1 -20 3 -32 5
-25 3 9 8 9 17 1 7 -6 -1 23 -17 65 -26 63 -34 75 -54 75 -12 0 -25 -4 -29 -9z
m55 -22 c0 -6 -4 -7 -10 -4 -5 3 -10 11 -10 16 0 6 5 7 10 4 6 -3 10 -11 10
-16z"/>
<path d="M2715 2620 c-17 -7 -15 -9 11 -9 58 -2 92 -20 96 -52 5 -35 4 -36
-34 -4 -46 39 -58 29 -15 -12 30 -28 38 -41 34 -61 l-5 -26 19 25 c10 13 19
40 19 62 0 67 -61 105 -125 77z"/>
<path d="M1332 2593 c-6 -16 -13 -38 -17 -49 -4 -15 -21 -26 -58 -37 -83 -25
-107 -28 -107 -17 0 6 -4 9 -9 5 -5 -3 -20 9 -34 26 -35 45 -50 31 -45 -44 4
-52 9 -64 36 -88 35 -31 94 -39 133 -19 20 11 28 -3 8 -16 -7 -4 -10 -28 -7
-63 5 -66 32 -113 81 -137 31 -16 31 -15 -6 16 -20 17 -44 45 -52 60 -17 33
-20 106 -5 115 6 3 10 15 10 25 0 21 -32 34 -87 34 -18 0 -30 2 -28 5 3 2 -3
10 -13 17 -15 11 -14 13 11 19 15 4 27 11 27 16 0 5 13 9 29 9 16 0 43 6 61
14 29 12 34 11 56 -9 32 -30 31 -46 -3 -39 -16 3 -39 1 -53 -5 -21 -9 -19 -10
17 -5 31 4 44 2 48 -8 3 -7 16 -14 29 -14 19 -1 22 2 18 25 -2 14 -15 35 -28
46 -21 19 -23 24 -13 55 12 39 21 90 15 90 -2 0 -8 -12 -14 -27z m-242 -80 c0
-9 3 -14 6 -10 3 3 11 1 18 -4 6 -5 20 -17 31 -25 11 -9 15 -13 10 -10 -6 2
-17 1 -25 -4 -10 -6 -21 1 -37 25 -24 35 -30 61 -13 50 6 -3 10 -13 10 -22z
m4 -59 c3 -9 4 -20 0 -25 -3 -5 0 -9 6 -9 6 0 20 -9 32 -20 24 -22 44 -27 32
-8 -5 8 -2 9 10 5 10 -4 27 -7 37 -7 11 0 17 -4 14 -10 -15 -25 -135 2 -135
30 0 18 -2 25 -11 43 -6 10 -6 17 0 17 5 0 12 -7 15 -16z"/>
<path d="M570 2567 c-41 -22 -70 -42 -63 -44 6 -2 33 10 61 26 27 17 54 31 61
31 6 0 11 4 11 9 0 5 10 7 23 4 18 -4 19 -3 7 6 -19 13 -12 16 -100 -32z"/>
<path d="M1455 2599 c-4 -6 -5 -12 -2 -15 2 -3 7 2 10 11 7 17 1 20 -8 4z"/>
<path d="M2618 2603 c-22 -5 -22 -21 -3 -47 19 -25 19 -87 0 -133 -22 -52 -19
-63 14 -63 30 0 40 -14 42 -53 0 -21 1 -21 10 2 10 26 3 62 -15 73 -6 4 -22 4
-35 1 -24 -6 -24 -5 -8 18 10 13 17 31 17 41 0 10 4 18 9 18 6 0 5 15 -1 36
-12 46 -4 53 33 31 17 -9 37 -17 45 -17 16 0 20 45 4 55 -5 3 -10 -3 -10 -14
0 -24 -8 -26 -33 -6 -11 7 -26 11 -34 8 -13 -5 -32 11 -33 28 0 3 15 11 33 17
28 9 29 10 7 10 -14 0 -33 -2 -42 -5z"/>
<path d="M1531 2584 c0 -11 3 -14 6 -6 3 7 2 16 -1 19 -3 4 -6 -2 -5 -13z"/>
<path d="M650 2565 c-7 -8 -9 -15 -6 -15 4 0 14 7 22 15 9 8 11 15 6 15 -5 0
-15 -7 -22 -15z"/>
<path d="M1070 2571 c0 -10 30 -24 37 -17 3 2 -5 9 -16 16 -12 6 -21 7 -21 1z"/>
<path d="M930 2555 c0 -9 5 -15 11 -13 6 2 11 8 11 13 0 5 -5 11 -11 13 -6 2
-11 -4 -11 -13z"/>
<path d="M2341 2522 c-1 -49 0 -52 15 -37 14 14 15 19 0 53 l-15 37 0 -53z"/>
<path d="M1120 2545 c0 -8 2 -15 4 -15 2 0 6 7 10 15 3 8 1 15 -4 15 -6 0 -10
-7 -10 -15z"/>
<path d="M1155 2546 c-18 -14 -18 -15 -2 -16 9 0 17 5 17 10 0 6 13 4 31 -5
35 -19 81 -13 101 13 12 15 11 16 -4 3 -17 -13 -76 -12 -108 3 -9 3 -24 0 -35
-8z"/>
<path d="M1506 2498 c-10 -35 -25 -71 -33 -81 -9 -9 -13 -20 -10 -23 10 -10
37 16 37 36 0 9 3 20 7 24 11 11 32 106 23 106 -4 0 -15 -28 -24 -62z"/>
<path d="M2254 2533 c-3 -16 -8 -35 -10 -43 -3 -10 1 -9 10 4 14 17 16 16 30
-19 9 -20 14 -41 11 -46 -8 -12 -33 0 -37 17 -2 8 -8 3 -16 -13 -8 -18 -8 -23
0 -15 7 7 17 8 28 2 35 -19 42 11 19 78 -11 34 -23 62 -25 62 -2 0 -6 -12 -10
-27z"/>
<path d="M1618 2543 c7 -3 16 -2 19 1 4 3 -2 6 -13 5 -11 0 -14 -3 -6 -6z"/>
<path d="M470 2525 c0 -8 2 -15 4 -15 2 0 6 7 10 15 3 8 1 15 -4 15 -6 0 -10
-7 -10 -15z"/>
<path d="M573 2523 c-10 -10 -14 -15 -8 -11 6 4 22 12 36 17 15 6 18 10 8 10
-9 1 -25 -7 -36 -16z"/>
<path d="M745 2520 c-16 -4 -42 -11 -57 -14 -16 -4 -28 -10 -28 -15 0 -4 21
-2 48 6 83 26 112 43 37 23z"/>
<path d="M2085 2524 c-6 -2 -37 -8 -70 -13 l-60 -9 52 -1 52 -1 -24 -24 c-30
-30 -41 -71 -27 -99 11 -21 11 -20 6 5 -7 34 9 65 60 110 37 33 41 45 11 32z"/>
<path d="M775 2497 c-5 -7 -11 -21 -12 -32 -1 -17 1 -17 18 5 10 14 19 28 19
33 0 11 -14 8 -25 -6z"/>
<path d="M2181 2499 c-1 -9 7 -25 17 -36 9 -10 14 -14 10 -8 -4 6 -12 22 -17
36 -6 15 -10 18 -10 8z"/>
<path d="M180 2483 c0 -14 27 -43 41 -43 6 0 8 -3 6 -7 -3 -5 8 -9 24 -10 15
-1 40 -10 55 -20 l27 -17 -34 -28 c-18 -15 -28 -28 -22 -28 7 0 25 11 40 24
23 20 26 28 17 43 -6 10 -24 22 -40 27 -56 17 -93 37 -103 54 -6 9 -11 12 -11
5z"/>
<path d="M700 2480 c-14 -5 -42 -11 -63 -15 -21 -3 -45 -15 -54 -25 -9 -10
-21 -16 -27 -13 -6 3 -8 3 -4 -2 4 -4 2 -13 -5 -19 -7 -6 -10 -10 -8 -9 2 2
10 -2 18 -9 9 -7 13 -8 11 -1 -2 6 2 12 7 12 6 1 11 -9 13 -23 3 -23 5 -24 30
-10 15 8 32 14 38 14 6 0 25 7 42 16 18 8 35 13 39 11 5 -3 9 8 10 25 l2 30
-20 -26 c-27 -34 -39 -33 -30 2 5 17 15 28 29 30 12 2 22 8 22 13 0 11 -16 11
-50 -1z m-14 -53 c1 -18 -5 -28 -17 -32 -11 -3 -28 -8 -39 -11 -15 -4 -20 -1
-20 15 0 12 -3 20 -7 20 -20 -3 -24 2 -13 16 18 21 28 19 32 -7 2 -14 11 -24
23 -26 18 -2 18 -2 3 8 -10 6 -18 18 -18 27 0 13 3 13 15 3 9 -7 18 -10 22 -6
3 3 1 6 -6 6 -7 0 -9 5 -6 11 12 18 30 4 31 -24z"/>
<path d="M440 2469 c0 -10 8 -14 53 -23 15 -4 27 -2 27 4 0 5 -8 10 -18 10
-10 0 -22 3 -26 7 -11 11 -36 12 -36 2z"/>
<path d="M1598 2473 c7 -3 16 -2 19 1 4 3 -2 6 -13 5 -11 0 -14 -3 -6 -6z"/>
<path d="M2323 2429 c-12 -30 -11 -32 3 -17 9 8 14 23 12 33 -2 12 -7 7 -15
-16z"/>
<path d="M2452 2436 c-17 -37 -15 -45 4 -18 8 12 14 27 12 33 -2 6 -9 -1 -16
-15z"/>
<path d="M334 2425 c33 -31 33 -37 -5 -80 -24 -27 -37 -34 -53 -30 -15 5 -17
4 -7 -3 10 -7 10 -14 2 -30 -6 -11 -11 -29 -10 -39 0 -10 5 -3 12 16 8 23 24
40 49 53 43 22 59 59 46 106 -7 26 -14 32 -35 32 l-26 0 27 -25z"/>
<path d="M1753 2430 c-27 -21 -28 -27 -8 -27 8 0 13 3 10 5 -3 3 3 11 13 18 9
7 15 15 12 17 -3 3 -15 -3 -27 -13z"/>
<path d="M2069 2427 c-38 -25 -47 -69 -19 -90 13 -11 13 -10 0 7 -13 18 -13
19 0 14 8 -3 26 -8 40 -12 18 -4 16 -2 -7 9 -17 8 -34 18 -37 23 -8 14 31 45
45 36 8 -4 10 -3 5 4 -5 8 0 12 13 12 19 0 26 -15 22 -42 0 -4 8 -12 19 -18
11 -6 20 -18 21 -28 0 -10 3 -12 6 -5 5 15 47 -4 102 -46 30 -22 33 -23 30 -6
-5 24 -60 62 -110 75 -30 8 -40 17 -45 38 -10 47 -13 52 -32 52 -11 0 -34 -10
-53 -23z m221 -123 c0 -2 -9 0 -20 6 -11 6 -20 13 -20 16 0 2 9 0 20 -6 11 -6
20 -13 20 -16z"/>
<path d="M2370 2414 c0 -19 4 -33 8 -30 12 7 14 66 2 66 -5 0 -10 -16 -10 -36z"/>
<path d="M780 2432 c0 -15 28 -23 36 -9 4 7 4 9 -1 5 -4 -4 -14 -3 -22 3 -8 7
-13 8 -13 1z"/>
<path d="M1822 2386 c12 -25 25 -43 29 -40 5 2 -1 20 -13 39 -30 52 -42 53
-16 1z"/>
<path d="M1290 2410 c0 -6 15 -25 33 -43 17 -18 24 -24 15 -12 -10 12 -18 28
-18 37 0 9 -7 18 -15 22 -8 3 -15 1 -15 -4z"/>
<path d="M1754 2379 c-23 -24 -25 -29 -9 -24 15 5 13 1 -9 -20 -17 -16 -35
-24 -45 -20 -13 5 -13 4 -4 -6 10 -10 19 -8 43 9 46 34 49 25 5 -13 -38 -33
-39 -35 -17 -41 15 -4 22 -14 22 -31 0 -16 -4 -22 -12 -17 -8 4 -10 3 -5 -2 5
-5 12 -9 16 -9 12 0 71 -72 71 -86 -1 -8 -13 1 -29 19 -34 39 -47 40 -56 5 -6
-24 -8 -25 -16 -11 -7 12 -19 16 -44 13 -32 -4 -55 8 -40 23 3 3 10 0 14 -7 7
-11 11 -9 21 8 11 21 13 21 29 7 10 -9 22 -16 27 -16 4 0 -1 7 -13 15 -14 10
-19 22 -16 35 3 11 0 20 -6 20 -6 0 -8 -7 -4 -17 4 -10 2 -14 -4 -10 -6 4 -13
0 -17 -8 -7 -19 -26 -19 -26 0 0 8 -4 15 -9 15 -5 0 -8 -8 -7 -17 0 -10 -8
-19 -18 -21 -19 -4 -19 -3 -4 19 10 15 24 23 37 22 12 -2 21 3 21 10 0 8 -17
12 -50 12 -39 0 -46 -2 -30 -9 11 -5 20 -13 20 -18 0 -5 -4 -7 -8 -4 -4 2 -14
1 -22 -5 -13 -7 -13 -9 1 -9 11 0 15 -9 14 -35 -1 -40 19 -64 56 -69 59 -7
111 -29 141 -59 18 -19 54 -41 80 -51 26 -10 50 -22 53 -27 4 -5 11 -9 17 -9
6 0 1 11 -12 25 -13 14 -21 28 -17 31 12 13 -15 46 -49 60 l-34 14 15 31 c16
30 16 31 -29 79 -48 51 -56 79 -32 100 14 11 15 65 2 78 -4 3 1 14 11 24 28
32 8 29 -23 -3z m0 -94 c-22 -16 -34 -19 -34 -7 0 10 43 32 49 26 3 -2 -4 -11
-15 -19z m24 -167 c15 -28 19 -45 12 -52 -7 -7 -10 -3 -10 11 0 12 -4 24 -9
27 -4 3 -6 -6 -3 -19 3 -16 0 -25 -8 -25 -7 0 -10 7 -6 15 3 8 0 14 -6 12 -12
-2 -20 30 -12 56 8 26 17 21 42 -25z m-141 0 c9 -10 14 -20 12 -22 -7 -8 -70
24 -65 32 9 15 35 10 53 -10z m60 8 c-3 -7 0 -19 6 -25 9 -9 7 -11 -8 -9 -11
2 -21 8 -21 13 -2 16 8 35 18 35 6 0 8 -6 5 -14z m183 -126 c0 -17 -3 -18 -27
-7 -54 23 -66 34 -60 51 6 15 10 15 47 -4 26 -13 40 -27 40 -40z"/>
<path d="M2481 2394 c0 -11 3 -14 6 -6 3 7 2 16 -1 19 -3 4 -6 -2 -5 -13z"/>
<path d="M2500 2405 c0 -5 5 -17 10 -25 5 -8 10 -10 10 -5 0 6 -5 17 -10 25
-5 8 -10 11 -10 5z"/>
<path d="M1509 2390 c-3 -77 -9 -96 -45 -127 -45 -40 -57 -41 -83 -5 -11 15
-21 22 -21 16 0 -22 42 -64 65 -64 37 0 91 67 98 125 4 29 3 53 -3 59 -7 7
-10 5 -11 -4z"/>
<path d="M540 2365 c0 -8 4 -15 10 -15 5 0 7 7 4 15 -4 8 -8 15 -10 15 -2 0
-4 -7 -4 -15z"/>
<path d="M660 2364 c-42 -11 -43 -12 -19 -19 18 -4 41 0 70 13 34 15 38 19 19
18 -14 0 -45 -6 -70 -12z"/>
<path d="M811 2364 c0 -11 3 -14 6 -6 3 7 2 16 -1 19 -3 4 -6 -2 -5 -13z"/>
<path d="M1639 2363 c-13 -16 -12 -17 4 -4 9 7 17 15 17 17 0 8 -8 3 -21 -13z"/>
<path d="M1814 2359 c2 -9 -1 -22 -7 -28 -6 -6 -7 -11 -3 -11 5 0 3 -7 -4 -15
-21 -25 -5 -27 18 -2 19 20 19 24 6 47 -9 14 -13 18 -10 9z"/>
<path d="M2491 2354 c0 -11 3 -14 6 -6 3 7 2 16 -1 19 -3 4 -6 -2 -5 -13z"/>
<path d="M2408 2331 c4 -26 0 -30 -35 -41 -46 -15 -69 -33 -26 -21 47 14 73
30 73 47 0 14 2 14 16 0 12 -12 20 -14 36 -5 11 6 17 13 14 17 -4 3 -12 0 -18
-6 -9 -9 -18 -6 -38 13 l-27 25 5 -29z"/>
<path d="M730 2339 c0 -5 5 -7 10 -4 6 3 10 8 10 11 0 2 -4 4 -10 4 -5 0 -10
-5 -10 -11z"/>
<path d="M1402 2338 c-15 -15 -16 -64 -2 -73 16 -10 49 4 60 26 22 39 -27 78
-58 47z m38 -34 c0 -8 -7 -14 -15 -14 -15 0 -21 21 -9 33 10 9 24 -2 24 -19z"/>
<path d="M1700 2340 c-9 -6 -10 -10 -3 -10 6 0 15 5 18 10 8 12 4 12 -15 0z"/>
<path d="M1612 2328 c-9 -9 -9 -15 1 -26 10 -13 8 -14 -10 -8 -24 8 -41 -9
-17 -18 10 -4 13 -2 8 6 -5 7 -3 8 5 4 7 -5 20 -1 30 8 17 15 19 15 24 1 4 -8
12 -15 19 -14 10 0 10 2 1 6 -7 2 -13 13 -13 24 0 16 -3 18 -19 9 -28 -14 -36
-12 -21 5 15 18 9 20 -8 3z"/>
<path d="M355 2316 c-46 -20 -60 -43 -61 -103 -1 -30 -6 -59 -13 -66 -14 -14
-14 -97 0 -117 8 -11 9 -9 3 10 l-7 25 26 -27 c14 -16 30 -28 36 -28 16 0 42
-32 37 -46 -3 -8 0 -11 9 -7 21 8 1 40 -39 64 -42 24 -61 59 -52 96 4 15 11
51 15 78 8 58 26 89 58 104 13 6 23 15 23 21 0 12 2 12 -35 -4z"/>
<path d="M2077 2319 c7 -7 15 -10 18 -7 3 3 -2 9 -12 12 -14 6 -15 5 -6 -5z"/>
<path d="M492 2298 c2 -6 10 -14 16 -16 7 -2 10 2 6 12 -7 18 -28 22 -22 4z"/>
<path d="M2155 2299 c-4 -6 -5 -12 -2 -15 2 -3 7 2 10 11 7 17 1 20 -8 4z"/>
<path d="M546 2285 c-3 -8 -1 -15 3 -15 5 0 11 7 15 15 3 8 1 15 -3 15 -5 0
-11 -7 -15 -15z"/>
<path d="M400 2271 c0 -5 5 -13 10 -16 6 -3 10 -2 10 4 0 5 -4 13 -10 16 -5 3
-10 2 -10 -4z"/>
<path d="M862 2260 c0 -14 2 -19 5 -12 2 6 2 18 0 25 -3 6 -5 1 -5 -13z"/>
<path d="M1620 2270 c-8 -5 -26 -7 -40 -4 -20 4 -22 3 -10 -5 23 -16 67 -14
67 4 0 8 -1 15 -1 15 -1 0 -8 -5 -16 -10z"/>
<path d="M490 2261 c0 -5 5 -13 10 -16 6 -3 10 -2 10 4 0 5 -4 13 -10 16 -5 3
-10 2 -10 -4z"/>
<path d="M675 2259 c-4 -6 -5 -12 -2 -15 2 -3 7 2 10 11 7 17 1 20 -8 4z"/>
<path d="M1671 2254 c0 -11 3 -14 6 -6 3 7 2 16 -1 19 -3 4 -6 -2 -5 -13z"/>
<path d="M1765 2260 c-3 -5 -1 -10 4 -10 6 0 11 5 11 10 0 6 -2 10 -4 10 -3 0
-8 -4 -11 -10z"/>
<path d="M340 2245 c-7 -9 -8 -15 -2 -15 5 0 12 7 16 15 3 8 4 15 2 15 -2 0
-9 -7 -16 -15z"/>
<path d="M775 2250 c3 -5 8 -10 11 -10 2 0 4 5 4 10 0 6 -5 10 -11 10 -5 0 -7
-4 -4 -10z"/>
<path d="M2308 2223 c-20 -8 -39 -22 -43 -31 -5 -14 -4 -14 12 0 10 9 30 20
46 23 15 4 27 11 27 16 0 5 -1 9 -2 8 -2 -1 -20 -8 -40 -16z"/>
<path d="M257 2202 c4 -18 -18 -35 -62 -46 -11 -3 -2 -3 19 -1 22 2 43 10 48
17 11 17 10 48 -1 48 -5 0 -7 -8 -4 -18z"/>
<path d="M604 2188 c27 -38 19 -52 -35 -73 -28 -11 -55 -26 -61 -32 -15 -19 7
-17 37 3 21 14 41 21 68 23 4 1 12 12 18 25 9 19 7 29 -6 50 -10 14 -22 26
-27 26 -5 0 -2 -10 6 -22z"/>
<path d="M2313 2194 c-18 -8 -33 -16 -33 -18 0 -7 45 7 65 21 25 17 9 16 -32
-3z"/>
<path d="M332 2165 c6 -13 15 -22 19 -19 5 2 1 14 -9 24 -22 26 -24 25 -10 -5z"/>
<path d="M1376 2114 c7 -61 -7 -94 -69 -161 -23 -25 -41 -46 -39 -47 8 -3 -11
-36 -21 -36 -5 0 -2 10 9 21 10 12 14 20 8 18 -18 -6 -146 -129 -135 -129 5 0
29 20 53 45 40 42 76 64 48 29 -11 -12 -11 -15 -1 -12 11 3 48 37 97 92 51 55
77 160 53 211 -6 14 -7 4 -3 -31z"/>
<path d="M177 2129 c7 -7 15 -10 18 -7 3 3 -2 9 -12 12 -14 6 -15 5 -6 -5z"/>
<path d="M230 2130 c-10 -6 -11 -10 -2 -10 7 0 12 -14 12 -37 0 -21 4 -43 8
-50 4 -6 7 15 7 48 0 62 -1 64 -25 49z"/>
<path d="M500 2130 c0 -6 -15 -19 -32 -30 -18 -11 -29 -20 -24 -20 13 0 76 43
76 53 0 4 -4 7 -10 7 -5 0 -10 -5 -10 -10z"/>
<path d="M396 2108 c-7 -35 -4 -57 8 -55 6 1 10 -4 8 -11 -1 -8 2 -11 8 -7 8
5 8 11 0 20 -6 8 -12 27 -12 44 -1 37 -6 40 -12 9z"/>
<path d="M347 2070 c3 -11 7 -20 9 -20 2 0 4 9 4 20 0 11 -4 20 -9 20 -5 0 -7
-9 -4 -20z"/>
<path d="M568 2037 c-8 -9 -21 -11 -33 -6 -11 4 -38 7 -60 7 -23 0 -29 -2 -15
-5 93 -14 91 -13 86 -36 -3 -12 -3 -17 0 -10 3 7 12 9 20 6 8 -3 14 0 14 7 0
6 -4 8 -10 5 -5 -3 -10 -1 -10 4 0 6 4 11 9 11 5 0 11 7 15 15 7 19 2 19 -16
2z"/>
<path d="M1693 2028 c-11 -13 -23 -30 -28 -38 -4 -8 7 0 24 19 17 18 31 35 31
37 0 8 -7 3 -27 -18z"/>
<path d="M640 1955 c14 -8 34 -14 45 -14 11 0 2 6 -20 14 -50 18 -57 18 -25 0z"/>
<path d="M426 1945 c-9 -26 -7 -32 5 -12 6 10 9 21 6 23 -2 3 -7 -2 -11 -11z"/>
<path d="M521 1948 c-1 -20 14 -24 25 -6 4 6 3 8 -4 4 -5 -3 -13 0 -15 6 -3 8
-6 6 -6 -4z"/>
<path d="M1541 1944 c0 -11 3 -14 6 -6 3 7 2 16 -1 19 -3 4 -6 -2 -5 -13z"/>
<path d="M1558 1935 c-3 -14 -1 -25 3 -25 5 0 9 11 9 25 0 14 -2 25 -4 25 -2
0 -6 -11 -8 -25z"/>
<path d="M1587 1946 c-4 -10 -7 -25 -6 -34 0 -11 4 -9 10 7 5 13 8 29 6 35 -2
5 -6 2 -10 -8z"/>
<path d="M560 1940 c0 -5 5 -10 11 -10 5 0 7 5 4 10 -3 6 -8 10 -11 10 -2 0
-4 -4 -4 -10z"/>
<path d="M590 1945 c0 -2 19 -9 43 -16 35 -10 39 -13 22 -20 -12 -5 1 -6 35
-3 30 2 58 8 63 13 5 5 17 7 26 3 14 -5 14 -4 2 12 -10 12 -16 13 -21 6 -4 -7
-10 -11 -14 -11 -3 1 -17 -1 -31 -5 -14 -3 -42 1 -65 10 -41 16 -60 20 -60 11z"/>
<path d="M1522 1925 c0 -16 2 -22 5 -12 2 9 2 23 0 30 -3 6 -5 -1 -5 -18z"/>
<path d="M1611 1932 c-6 -12 -11 -27 -11 -34 1 -7 8 0 16 15 9 16 13 31 11 34
-3 2 -10 -4 -16 -15z"/>
<path d="M500 1935 c0 -18 30 -55 46 -55 16 0 19 -16 4 -25 -12 -7 -13 -25 -2
-25 4 0 13 14 19 30 11 28 10 30 -13 30 -15 0 -28 9 -38 28 -8 15 -15 22 -16
17z"/>
<path d="M1500 1923 c0 -15 -2 -16 -10 -3 -7 11 -10 11 -10 2 0 -7 -4 -10 -10
-7 -6 4 -7 -1 -3 -12 6 -15 4 -16 -8 -6 -13 10 -19 10 -33 0 -16 -12 -16 -14
-2 -26 22 -18 10 -44 -16 -30 -10 6 -24 8 -31 5 -7 -2 -3 -5 8 -6 17 -2 17 -3
-5 -11 -22 -8 -22 -8 7 -4 31 4 31 4 22 -27 -6 -24 -4 -41 10 -73 10 -23 24
-46 30 -50 7 -4 3 10 -8 31 -31 57 -27 90 13 130 28 28 41 34 78 34 37 0 50
-6 81 -36 41 -40 41 -41 27 -78 -12 -32 -27 -33 -60 -1 -22 21 -28 23 -49 12
-27 -14 -68 -85 -62 -110 0 -4 -3 -16 -8 -26 -7 -12 -6 -22 2 -30 9 -10 8 -12
-8 -9 -11 1 -20 -1 -20 -7 -1 -5 -15 -32 -33 -59 -32 -50 -40 -92 -23 -124 5
-9 6 -49 4 -89 l-6 -71 -44 -17 c-25 -10 -60 -31 -79 -47 -28 -24 -34 -37 -34
-68 0 -41 16 -62 31 -39 13 21 11 32 -5 26 -10 -4 -13 1 -11 19 3 29 22 54 22
29 0 -8 -5 -15 -10 -15 -5 0 -4 -7 3 -15 17 -20 25 -11 25 27 0 20 7 34 20 42
18 10 18 10 3 -3 -40 -31 -14 -29 46 3 35 19 67 32 71 28 7 -8 -3 39 -16 76
-11 29 -11 29 4 29 6 0 21 4 32 8 18 6 18 5 -2 -13 -18 -16 -22 -27 -17 -51
l7 -31 32 20 32 20 11 -25 c6 -13 7 -27 3 -30 -5 -2 -11 5 -14 17 -6 21 -7 21
-25 5 -10 -9 -22 -14 -25 -10 -4 3 -7 1 -7 -5 0 -16 23 -15 38 0 9 9 12 9 13
-3 1 -7 1 -17 0 -21 -2 -13 16 -9 28 6 10 11 9 21 -4 45 -8 17 -21 31 -27 31
-9 0 -9 3 -1 11 16 16 30 4 38 -31 l7 -30 43 45 c39 40 77 62 60 35 -17 -28
18 -3 78 55 41 39 76 65 89 65 21 0 21 0 -2 -25 -14 -14 -48 -44 -77 -67 -29
-22 -53 -44 -53 -49 0 -5 38 23 85 63 47 39 85 74 85 78 0 3 -15 7 -33 8 -28
2 -41 -6 -92 -58 -33 -33 -64 -60 -69 -60 -6 0 19 29 54 65 l64 65 -39 -1
c-35 -1 -37 -2 -12 -8 l28 -6 -48 -45 c-61 -58 -98 -88 -90 -73 4 6 -2 27 -13
45 -11 18 -20 38 -20 45 0 6 -5 24 -10 38 l-10 26 -26 -30 c-14 -17 -30 -31
-35 -31 -6 0 7 20 27 45 l38 44 16 -27 c22 -36 45 -103 42 -122 -2 -8 10 0 26
18 21 26 28 45 30 83 1 28 -2 58 -7 68 -5 9 -6 23 -2 30 6 9 13 6 29 -13 11
-14 23 -26 28 -26 4 0 -5 14 -21 30 -17 17 -25 33 -19 38 5 4 8 5 6 3 -1 -3 7
-15 19 -27 17 -18 26 -21 46 -13 39 15 38 11 -8 -32 l-44 -41 47 37 c26 21 46
41 43 45 -3 5 9 20 27 35 34 28 22 25 -23 -6 -26 -18 -27 -18 -49 6 -13 13
-27 22 -31 19 -5 -3 -6 8 -3 25 3 16 1 37 -5 48 -11 20 -13 16 -15 -46 -2 -55
-31 -50 -62 11 -14 27 -23 53 -20 56 3 3 6 0 6 -6 0 -7 9 -12 20 -12 11 0 20
5 20 10 0 5 -5 9 -11 7 -6 -1 -14 5 -16 13 -4 12 -3 12 5 2 16 -23 42 14 42
60 0 76 -43 118 -121 118 -37 0 -39 1 -33 25 3 14 3 25 0 25 -3 0 -6 -8 -6
-17z m-28 -50 c-22 -12 -28 -12 -41 4 -15 16 -15 16 3 2 18 -13 19 -12 13 5
-6 16 -5 17 8 6 12 -10 16 -9 21 5 5 13 9 14 15 4 5 -8 -2 -17 -19 -26z m97
-135 c20 -20 20 -44 0 -32 -5 3 -7 9 -4 14 3 4 -2 13 -9 19 -11 9 -14 9 -12
-1 2 -13 36 -69 47 -78 4 -3 3 -16 -2 -29 -8 -19 -12 -21 -24 -11 -8 7 -15 17
-15 22 0 6 7 5 15 -2 8 -7 15 -10 15 -8 0 3 -10 13 -22 24 -13 10 -20 15 -16
11 7 -9 4 -13 -83 -116 -30 -36 -59 -73 -63 -81 -9 -17 39 33 104 109 l45 53
43 -55 c23 -31 42 -60 42 -66 0 -6 5 -11 10 -11 11 0 13 -30 4 -54 -6 -16 -24
-12 -24 5 0 6 5 7 11 4 17 -11 -37 88 -60 109 -12 11 -21 15 -21 10 0 -5 -4
-3 -9 4 -5 9 -16 1 -36 -28 -15 -22 -45 -56 -66 -75 -22 -19 -38 -40 -37 -46
2 -6 -2 -13 -8 -16 -7 -2 -11 10 -10 35 2 36 45 106 85 138 8 7 11 16 6 24 -6
9 -4 11 5 5 10 -6 12 -4 7 9 -4 10 -3 15 3 11 6 -3 10 2 10 12 0 30 33 113 45
113 2 0 13 -10 24 -22z m67 -159 c9 -10 11 -19 6 -23 -6 -3 -16 7 -24 24 -7
16 -17 30 -21 30 -5 0 -5 -5 -1 -12 4 -7 3 -8 -4 -4 -9 5 -8 12 1 26 11 19 12
19 20 -2 4 -13 15 -30 23 -39z m97 -30 c-26 -9 -57 19 -41 38 9 11 15 10 35
-9 22 -21 22 -23 6 -29z m-165 8 c12 -8 52 -80 52 -94 0 -4 -14 16 -30 45 -41
70 -47 66 -11 -5 41 -80 52 -111 41 -118 -4 -3 -13 9 -19 27 -7 18 -22 50 -35
72 l-24 38 -27 -40 c-37 -55 -143 -124 -109 -70 5 7 9 16 9 19 0 11 120 136
130 135 5 -1 16 -5 23 -9z m12 -233 c0 -5 -6 -19 -14 -29 -13 -18 -15 -16 -35
23 -21 42 -22 42 -47 26 -13 -9 -27 -14 -30 -11 -3 3 3 10 14 16 11 6 27 18
36 26 13 14 17 10 33 -34 9 -28 20 -45 24 -40 4 6 -5 31 -18 55 l-24 43 -49
-35 c-27 -20 -54 -33 -60 -29 -20 12 -9 40 21 58 43 24 50 13 8 -12 -19 -12
-30 -21 -26 -21 17 0 63 30 91 59 l29 31 24 -58 c12 -31 23 -62 23 -68z m-57
-19 c19 -40 22 -59 8 -50 -5 3 -12 19 -16 35 -8 36 -12 37 -50 5 -21 -17 -24
-23 -10 -18 18 6 18 5 6 -10 -18 -23 -29 -21 -27 4 1 18 50 69 67 69 3 0 13
-16 22 -35z"/>
<path d="M1696 1582 c-3 -6 1 -15 8 -21 8 -7 17 -8 20 -3 3 6 -1 15 -8 21 -8
7 -17 8 -20 3z"/>
<path d="M1516 1532 c-9 -17 -34 -46 -58 -66 -44 -38 -45 -48 -2 -19 28 18 89
101 81 110 -3 3 -12 -9 -21 -25z"/>
<path d="M1877 1888 c15 -29 26 -56 25 -60 -1 -5 2 -8 7 -8 5 0 24 -24 42 -52
18 -29 57 -83 87 -120 29 -37 51 -71 48 -76 -3 -5 4 -9 16 -8 16 1 34 -15 64
-59 24 -33 43 -65 43 -71 1 -6 8 -18 17 -25 17 -14 31 -45 38 -85 3 -14 13
-32 23 -40 17 -13 17 -14 1 -8 -11 4 -18 1 -18 -7 0 -7 3 -9 6 -6 11 11 44
-13 44 -32 0 -11 7 -22 16 -25 9 -4 14 -9 11 -12 -2 -3 5 -15 17 -28 27 -28
85 -96 82 -96 -1 0 40 -44 91 -97 51 -53 93 -102 93 -107 0 -6 4 -4 9 3 8 12
12 9 23 -15 7 -16 18 -35 25 -41 6 -7 10 -24 9 -38 -2 -13 0 -22 4 -20 9 6 19
-44 25 -120 2 -29 11 -86 19 -127 22 -109 47 -325 45 -389 -1 -30 1 -61 5 -68
4 -6 3 -18 -4 -26 -7 -8 -7 -15 -1 -19 14 -9 48 44 34 52 -5 4 -13 59 -16 122
-3 63 -20 190 -36 282 -17 92 -31 185 -31 207 0 97 -101 290 -139 267 -5 -4
-13 0 -18 7 -4 8 -38 48 -75 88 -99 109 -184 225 -224 304 -19 39 -48 90 -63
115 -49 80 -187 255 -199 253 -6 -2 -19 9 -28 25 -9 15 -30 46 -46 70 -15 24
-25 48 -22 54 4 7 2 8 -4 4 -7 -4 -19 9 -31 33 -12 22 -25 42 -31 46 -5 3 2
-18 17 -47z m214 -273 c31 -49 22 -53 -11 -4 -63 94 -64 96 -35 64 15 -16 35
-43 46 -60z m534 -705 c10 -11 13 -20 7 -20 -6 0 -16 9 -22 20 -6 11 -9 20 -7
20 2 0 12 -9 22 -20z"/>
<path d="M1631 1911 c-17 -30 -12 -39 5 -11 l15 25 -5 -26 c-4 -18 0 -35 12
-49 16 -19 22 -21 38 -11 17 11 17 11 -6 6 -23 -6 -23 -5 -7 8 9 8 17 18 17
22 0 4 -8 1 -17 -6 -15 -12 -16 -12 -10 5 6 16 5 17 -8 6 -14 -12 -15 -10 -10
12 8 32 -10 46 -24 19z"/>
<path d="M208 1913 c7 -3 16 -2 19 1 4 3 -2 6 -13 5 -11 0 -14 -3 -6 -6z"/>
<path d="M597 1885 c-21 -30 -6 -42 18 -15 11 13 15 24 9 29 -5 6 -16 0 -27
-14z"/>
<path d="M1810 1906 c0 -2 7 -7 16 -10 8 -3 12 -2 9 4 -6 10 -25 14 -25 6z"/>
<path d="M1915 1889 c-4 -6 -4 -13 -1 -16 3 -4 6 -1 6 5 0 7 5 12 10 12 6 0
10 -8 10 -17 0 -14 3 -14 12 -5 10 10 10 15 -2 22 -20 13 -27 12 -35 -1z"/>
<path d="M1390 1871 c0 -5 7 -12 16 -15 14 -5 15 -4 4 9 -14 17 -20 19 -20 6z"/>
<path d="M608 1823 c6 -2 18 -2 25 0 6 3 1 5 -13 5 -14 0 -19 -2 -12 -5z"/>
<path d="M680 1819 c-13 -9 -12 -10 3 -5 9 3 17 1 17 -5 0 -6 4 -8 9 -5 5 3
12 -2 16 -12 6 -16 7 -16 21 2 8 11 14 25 14 30 0 6 -5 4 -10 -4 -8 -12 -13
-13 -30 -2 -24 14 -21 14 -40 1z"/>
<path d="M1223 1818 c-17 -21 -24 -56 -13 -63 6 -4 10 4 10 17 0 13 5 29 12
36 6 6 9 14 6 17 -3 3 -10 0 -15 -7z"/>
<path d="M1685 1820 c-13 -6 -15 -9 -5 -9 8 0 22 4 30 9 18 12 2 12 -25 0z"/>
<path d="M569 1800 c13 -11 28 -20 33 -20 6 0 -1 9 -15 20 -33 26 -49 26 -18
0z"/>
<path d="M1368 1803 c6 -2 18 -2 25 0 6 3 1 5 -13 5 -14 0 -19 -2 -12 -5z"/>
<path d="M1698 1803 c-26 -7 -22 -33 5 -32 21 0 21 1 2 9 -17 7 -17 9 -2 9 9
1 17 6 17 11 0 6 -1 9 -2 9 -2 -1 -11 -3 -20 -6z"/>
<path d="M634 1775 c8 -8 18 -15 22 -15 3 0 1 7 -6 15 -7 8 -17 15 -22 15 -5
0 -3 -7 6 -15z"/>
<path d="M680 1769 c0 -5 5 -7 10 -4 6 3 10 8 10 11 0 2 -4 4 -10 4 -5 0 -10
-5 -10 -11z"/>
<path d="M1364 1773 c15 -4 16 -7 5 -15 -12 -8 -12 -9 0 -6 25 7 24 28 -1 27
-19 -1 -20 -2 -4 -6z"/>
<path d="M1099 1753 c-13 -16 -12 -17 4 -4 9 7 17 15 17 17 0 8 -8 3 -21 -13z"/>
<path d="M1682 1751 c-11 -7 -10 -9 3 -14 9 -4 13 -3 10 2 -3 5 3 12 12 14 13
3 14 5 3 6 -8 0 -21 -3 -28 -8z"/>
<path d="M1755 1750 c-3 -5 -1 -10 4 -10 6 0 11 5 11 10 0 6 -2 10 -4 10 -3 0
-8 -4 -11 -10z"/>
<path d="M640 1730 c0 -11 4 -20 9 -20 5 0 7 9 4 20 -3 11 -7 20 -9 20 -2 0
-4 -9 -4 -20z"/>
<path d="M1890 1736 c0 -7 11 -21 25 -30 14 -9 25 -12 25 -7 0 5 -9 13 -20 16
-23 7 -26 21 -7 28 7 3 5 6 -5 6 -10 1 -18 -5 -18 -13z"/>
<path d="M1212 1720 c0 -14 2 -19 5 -12 2 6 2 18 0 25 -3 6 -5 1 -5 -13z"/>
<path d="M1360 1731 c0 -5 9 -7 20 -4 11 3 20 7 20 9 0 2 -9 4 -20 4 -11 0
-20 -4 -20 -9z"/>
<path d="M1301 1707 c-13 -21 -12 -21 5 -5 10 10 16 20 13 22 -3 3 -11 -5 -18
-17z"/>
<path d="M1662 1714 c-18 -19 -5 -39 15 -23 12 10 16 10 24 -2 7 -12 9 -12 9
0 0 16 13 7 16 -12 1 -7 7 -25 13 -40 10 -25 15 -28 56 -26 40 2 48 -1 75 -32
16 -19 37 -42 46 -51 10 -10 18 -27 19 -39 1 -21 145 -165 145 -145 0 6 -26
38 -57 71 -31 33 -67 82 -80 108 -14 31 -27 46 -34 41 -7 -4 -9 -3 -6 3 12 19
-57 61 -104 65 -40 3 -45 6 -55 38 -14 42 -61 67 -82 44z"/>
<path d="M1817 1723 c-10 -9 -9 -23 1 -23 5 0 9 7 9 15 0 17 -1 18 -10 8z"/>
<path d="M1380 1710 c-13 -8 -13 -10 2 -10 9 0 20 5 23 10 8 13 -5 13 -25 0z"/>
<path d="M1060 1690 c-8 -5 -10 -10 -5 -10 6 0 17 5 25 10 8 5 11 10 5 10 -5
0 -17 -5 -25 -10z"/>
<path d="M1395 1689 c-18 -7 -18 -8 5 -8 17 -1 21 -4 12 -9 -7 -5 -10 -16 -6
-26 4 -10 1 -35 -6 -56 -11 -32 -20 -42 -49 -51 -20 -6 -40 -15 -45 -20 -5 -5
-15 -4 -23 2 -19 17 -16 1 7 -31 11 -15 18 -29 17 -32 -1 -2 6 5 16 15 9 11
17 25 17 32 0 14 29 29 38 20 3 -3 1 -5 -5 -5 -6 0 -18 -18 -27 -39 -14 -38
-14 -43 5 -86 11 -26 23 -44 26 -42 2 3 -5 23 -16 46 -24 47 -19 69 36 137 18
23 30 44 26 47 -3 4 4 23 16 43 l22 36 -26 -4 c-18 -4 -23 -2 -16 6 15 18 -1
34 -24 25z m-74 -206 c-8 -15 -10 -15 -11 -2 0 17 10 32 18 25 2 -3 -1 -13 -7
-23z"/>
<path d="M1119 1672 c6 -12 16 -24 22 -28 8 -4 8 -1 0 14 -6 12 -16 24 -22 28
-8 4 -8 1 0 -14z"/>
<path d="M1969 1666 c29 -31 35 -33 22 -7 -6 10 -18 22 -28 25 -13 5 -11 1 6
-18z"/>
<path d="M640 1666 c0 -23 65 -86 88 -85 14 0 14 2 2 6 -29 11 -65 45 -77 71
-9 21 -12 22 -13 8z"/>
<path d="M967 1648 c-31 -17 -56 -33 -54 -34 2 -2 32 12 68 31 35 19 60 35 54
35 -5 -1 -36 -15 -68 -32z"/>
<path d="M1335 1649 c-4 -6 -5 -12 -2 -15 2 -3 7 2 10 11 7 17 1 20 -8 4z"/>
<path d="M605 1640 c3 -5 11 -10 16 -10 6 0 7 5 4 10 -3 6 -11 10 -16 10 -6 0
-7 -4 -4 -10z"/>
<path d="M580 1631 c0 -6 4 -13 10 -16 6 -3 7 1 4 9 -7 18 -14 21 -14 7z"/>
<path d="M1210 1628 c0 -9 5 -20 10 -23 13 -8 13 5 0 25 -8 13 -10 13 -10 -2z"/>
<path d="M421 1603 c-1 -18 4 -23 22 -22 15 1 17 3 5 6 -9 2 -19 12 -21 21 -3
12 -5 10 -6 -5z"/>
<path d="M1936 1611 c-3 -5 1 -11 9 -14 9 -4 12 -1 8 9 -6 16 -10 17 -17 5z"/>
<path d="M840 1590 c-13 -9 -13 -10 0 -10 8 0 22 5 30 10 13 9 13 10 0 10 -8
0 -22 -5 -30 -10z"/>
<path d="M1280 1570 c0 -11 4 -20 9 -20 5 0 7 9 4 20 -3 11 -7 20 -9 20 -2 0
-4 -9 -4 -20z"/>
<path d="M1321 1574 c0 -11 3 -14 6 -6 3 7 2 16 -1 19 -3 4 -6 -2 -5 -13z"/>
<path d="M963 1558 c-15 -20 -25 -38 -20 -38 3 0 12 11 21 25 17 26 16 35 -1
13z"/>
<path d="M2300 1539 c0 -5 5 -7 10 -4 6 3 10 8 10 11 0 2 -4 4 -10 4 -5 0 -10
-5 -10 -11z"/>
<path d="M974 1529 c-3 -6 -2 -15 3 -20 5 -5 9 -1 10 11 2 22 -2 25 -13 9z"/>
<path d="M1759 1503 l-34 -38 35 30 c19 16 39 33 45 37 5 5 5 8 -1 8 -6 0 -26
-17 -45 -37z"/>
<path d="M1793 1502 c-17 -12 -20 -21 -13 -32 8 -12 10 -13 10 -1 0 8 7 23 17
33 20 23 15 23 -14 0z"/>
<path d="M1881 1459 c32 -34 37 -48 14 -45 -21 3 -55 37 -56 55 0 10 -2 11 -6
4 -2 -7 2 -22 10 -33 16 -23 8 -32 -110 -135 -31 -27 -49 -60 -19 -36 8 7 16
8 18 4 3 -4 3 -3 2 4 -3 13 12 26 33 29 11 2 38 17 92 53 12 8 12 12 2 24 -15
19 4 34 23 18 9 -7 16 -7 24 1 9 9 12 8 12 -4 0 -10 11 -17 30 -20 17 -3 30
-1 30 4 0 4 -8 8 -17 8 -10 0 -33 22 -52 50 -19 28 -40 50 -47 50 -6 0 1 -14
17 -31z m-27 -78 c4 -5 -18 -23 -46 -40 l-53 -32 44 41 c48 44 47 44 55 31z"/>
<path d="M1901 1487 c-1 -15 40 -67 62 -79 16 -8 14 -4 -8 18 -16 16 -35 38
-42 49 -6 11 -12 16 -12 12z"/>
<path d="M2080 1435 c0 -8 2 -15 4 -15 2 0 6 7 10 15 3 8 1 15 -4 15 -6 0 -10
-7 -10 -15z"/>
<path d="M2179 1404 c8 -18 16 -32 17 -31 7 7 -10 56 -20 60 -9 4 -8 -5 3 -29z"/>
<path d="M1321 1414 c-1 -6 8 -32 20 -58 11 -26 18 -52 16 -59 -3 -7 -15 10
-27 36 -12 27 -24 46 -27 44 -2 -3 5 -24 17 -47 12 -23 19 -44 16 -47 -3 -3
-10 7 -16 22 l-11 28 -24 -34 c-13 -19 -29 -40 -36 -47 -6 -7 -9 -16 -6 -18 3
-3 18 11 34 30 l28 36 17 -23 c10 -12 18 -16 18 -9 0 7 4 10 10 7 22 -14 20
43 -4 95 -14 30 -25 50 -25 44z"/>
<path d="M220 1389 c0 -5 5 -7 10 -4 6 3 10 8 10 11 0 2 -4 4 -10 4 -5 0 -10
-5 -10 -11z"/>
<path d="M911 1384 c0 -11 3 -14 6 -6 3 7 2 16 -1 19 -3 4 -6 -2 -5 -13z"/>
<path d="M2101 1354 c0 -11 3 -14 6 -6 3 7 2 16 -1 19 -3 4 -6 -2 -5 -13z"/>
<path d="M1221 1298 c-58 -58 -93 -114 -116 -188 l-8 -25 21 25 c11 13 18 30
15 36 -3 8 3 11 14 10 10 -2 12 -1 6 1 -7 3 -13 7 -13 9 0 15 64 95 109 137
28 26 51 50 51 52 0 15 -22 -2 -79 -57z"/>
<path d="M2125 1350 c-3 -5 -1 -10 4 -10 6 0 11 5 11 10 0 6 -2 10 -4 10 -3 0
-8 -4 -11 -10z"/>
<path d="M1870 1339 c0 -5 -5 -7 -12 -3 -7 4 -8 3 -4 -5 4 -6 12 -9 17 -5 6 3
17 -2 24 -12 8 -11 14 -14 14 -9 0 12 -24 45 -33 45 -3 0 -6 -5 -6 -11z"/>
<path d="M1960 1345 c0 -3 11 -30 24 -58 13 -29 26 -62 30 -74 4 -13 12 -23
17 -23 11 0 12 13 1 26 -5 5 -19 35 -32 67 -19 50 -40 81 -40 62z"/>
<path d="M1185 1330 c3 -5 11 -10 16 -10 6 0 7 5 4 10 -3 6 -11 10 -16 10 -6
0 -7 -4 -4 -10z"/>
<path d="M2130 1320 c0 -5 5 -10 11 -10 5 0 7 5 4 10 -3 6 -8 10 -11 10 -2 0
-4 -4 -4 -10z"/>
<path d="M2165 1310 c4 -6 11 -8 16 -5 14 9 11 15 -7 15 -8 0 -12 -5 -9 -10z"/>
<path d="M2210 1314 c0 -13 18 -39 24 -34 2 3 -2 14 -10 24 -8 11 -14 16 -14
10z"/>
<path d="M2060 1300 c0 -5 5 -10 11 -10 5 0 7 5 4 10 -3 6 -8 10 -11 10 -2 0
-4 -4 -4 -10z"/>
<path d="M2100 1299 c0 -5 5 -7 10 -4 6 3 10 8 10 11 0 2 -4 4 -10 4 -5 0 -10
-5 -10 -11z"/>
<path d="M1562 1247 c-23 -23 -42 -46 -42 -49 0 -4 16 -16 36 -28 19 -13 40
-34 45 -48 13 -33 3 -72 -16 -72 -10 0 -15 -10 -15 -30 0 -31 6 -33 49 -21 56
15 36 129 -31 186 l-30 26 26 39 c14 22 25 40 23 40 -1 0 -22 -19 -45 -43z
m75 -187 c-1 -12 -9 -28 -19 -37 -15 -14 -21 -14 -31 -3 -10 10 -9 12 6 7 10
-4 16 -3 12 3 -6 10 15 50 27 50 4 0 6 -9 5 -20z"/>
<path d="M1770 1276 c0 -9 5 -16 10 -16 6 0 10 4 10 9 0 6 -4 13 -10 16 -5 3
-10 -1 -10 -9z"/>
<path d="M2244 1252 c3 -5 8 -24 11 -42 6 -34 24 -74 30 -68 6 6 -30 118 -38
118 -5 0 -6 -4 -3 -8z"/>
<path d="M1935 1240 c3 -5 8 -10 11 -10 2 0 4 5 4 10 0 6 -5 10 -11 10 -5 0
-7 -4 -4 -10z"/>
<path d="M2172 1231 c13 -22 28 -28 28 -11 0 5 -9 14 -20 20 -19 10 -20 10 -8
-9z"/>
<path d="M1695 1230 c-3 -5 -1 -10 4 -10 6 0 11 5 11 10 0 6 -2 10 -4 10 -3 0
-8 -4 -11 -10z"/>
<path d="M1775 1229 c-11 -16 -1 -19 13 -3 7 8 8 14 3 14 -5 0 -13 -5 -16 -11z"/>
<path d="M2280 1230 c0 -5 5 -10 10 -10 6 0 10 5 10 10 0 6 -4 10 -10 10 -5 0
-10 -4 -10 -10z"/>
<path d="M2057 1206 c-4 -10 -1 -13 9 -9 7 3 14 9 14 14 0 14 -17 10 -23 -5z"/>
<path d="M1725 1199 c-4 -6 -5 -12 -2 -15 2 -3 7 2 10 11 7 17 1 20 -8 4z"/>
<path d="M1850 1199 c0 -5 5 -7 10 -4 6 3 10 8 10 11 0 2 -4 4 -10 4 -5 0 -10
-5 -10 -11z"/>
<path d="M1963 1195 c0 -8 7 -15 15 -15 12 0 12 3 2 15 -7 8 -13 15 -15 15 -1
0 -2 -7 -2 -15z"/>
<path d="M2138 1203 c7 -3 16 -2 19 1 4 3 -2 6 -13 5 -11 0 -14 -3 -6 -6z"/>
<path d="M2295 1190 c14 -47 26 -73 30 -68 3 3 0 20 -6 39 -14 41 -35 67 -24
29z"/>
<path d="M1365 1176 c-32 -14 -61 -43 -90 -88 l-17 -27 69 19 c95 27 91 25
108 66 8 20 15 38 15 40 0 9 -57 2 -85 -10z m56 -29 c-11 -28 -34 -33 -56 -11
-15 16 -15 18 -1 26 9 5 21 6 26 3 6 -3 10 -2 10 4 0 6 6 8 14 5 10 -4 12 -12
7 -27z m-62 -21 c13 -15 -1 -32 -18 -22 -5 4 -11 0 -14 -6 -2 -7 -7 -10 -11
-6 -8 6 14 48 25 48 4 0 12 -6 18 -14z"/>
<path d="M1451 1149 c-14 -39 -14 -49 -1 -49 6 0 10 10 10 21 0 19 2 20 17 8
15 -13 15 -12 4 9 -10 18 -9 22 4 22 9 0 19 -8 22 -17 4 -10 12 -22 20 -26 15
-9 18 -77 3 -77 -5 0 -10 7 -10 15 0 9 -7 18 -15 21 -8 4 -12 11 -8 17 3 5 1
7 -5 3 -5 -3 -12 -1 -14 6 -3 9 -6 9 -11 1 -4 -6 14 -33 40 -60 l48 -48 3 52
c3 60 -14 95 -59 119 -37 18 -35 19 -48 -17z"/>
<path d="M1668 1173 c7 -3 16 -2 19 1 4 3 -2 6 -13 5 -11 0 -14 -3 -6 -6z"/>
<path d="M1746 1155 c4 -8 8 -15 10 -15 2 0 4 7 4 15 0 8 -4 15 -10 15 -5 0
-7 -7 -4 -15z"/>
<path d="M1886 1161 c-3 -5 1 -11 9 -14 9 -4 12 -1 8 9 -6 16 -10 17 -17 5z"/>
<path d="M1959 1144 c12 -15 21 -33 21 -40 0 -8 5 -14 11 -14 13 0 2 36 -19
61 -25 29 -36 23 -13 -7z"/>
<path d="M1698 1153 c7 -3 16 -2 19 1 4 3 -2 6 -13 5 -11 0 -14 -3 -6 -6z"/>
<path d="M1995 1150 c3 -5 8 -10 11 -10 2 0 4 5 4 10 0 6 -5 10 -11 10 -5 0
-7 -4 -4 -10z"/>
<path d="M2346 1147 c3 -10 9 -15 12 -12 3 3 0 11 -7 18 -10 9 -11 8 -5 -6z"/>
<path d="M1080 1131 c-6 -12 -7 -21 -1 -21 10 0 24 30 17 37 -2 3 -9 -5 -16
-16z"/>
<path d="M2040 1130 c0 -11 4 -20 8 -20 4 0 9 -12 10 -27 1 -14 5 -29 8 -32 4
-3 4 6 2 22 -3 15 -1 27 4 27 5 0 2 7 -6 16 -9 8 -14 20 -11 25 4 5 1 9 -4 9
-6 0 -11 -9 -11 -20z"/>
<path d="M1706 1123 c-6 -14 -5 -15 5 -6 7 7 10 15 7 18 -3 3 -9 -2 -12 -12z"/>
<path d="M1937 1125 c3 -8 9 -12 14 -9 12 7 11 11 -5 17 -10 4 -13 1 -9 -8z"/>
<path d="M1760 1120 c0 -5 5 -10 11 -10 5 0 7 5 4 10 -3 6 -8 10 -11 10 -2 0
-4 -4 -4 -10z"/>
<path d="M882 1095 c-18 -40 -14 -50 8 -22 11 14 20 30 20 36 0 20 -17 11 -28
-14z"/>
<path d="M2190 1115 c0 -9 30 -65 35 -65 6 0 -6 32 -16 46 -5 6 -6 14 -2 17 3
4 1 7 -5 7 -7 0 -12 -2 -12 -5z"/>
<path d="M2370 1111 c0 -6 4 -13 10 -16 6 -3 7 1 4 9 -7 18 -14 21 -14 7z"/>
<path d="M1916 1097 c3 -10 9 -15 12 -12 3 3 0 11 -7 18 -10 9 -11 8 -5 -6z"/>
<path d="M1071 1074 c0 -11 3 -14 6 -6 3 7 2 16 -1 19 -3 4 -6 -2 -5 -13z"/>
<path d="M1326 1068 c-57 -18 -72 -27 -92 -59 -13 -21 -26 -49 -30 -63 -3 -14
-11 -23 -18 -20 -17 7 -76 -61 -76 -87 0 -32 28 -76 60 -95 16 -10 37 -33 46
-52 19 -41 29 -35 20 11 -4 21 -20 45 -41 64 -40 36 -42 47 -18 103 19 42 39
55 30 19 -10 -38 5 -80 41 -116 l35 -35 37 118 c20 66 44 134 54 152 9 18 15
39 12 45 -3 8 -5 8 -5 -1 -1 -7 -6 -10 -13 -6 -7 4 -8 3 -4 -5 4 -6 3 -17 -2
-24 -5 -7 -13 -27 -17 -45 -3 -18 -10 -30 -15 -27 -5 3 -7 -3 -5 -12 1 -10 -1
-22 -5 -28 -3 -5 -13 -36 -20 -67 -7 -33 -17 -55 -23 -51 -6 4 -7 1 -2 -8 8
-12 6 -12 -8 0 -9 7 -17 18 -17 23 0 5 -6 16 -14 23 -16 17 -20 113 -5 132 6
7 9 13 5 13 -3 0 2 14 12 31 17 31 63 53 126 62 17 2 32 9 34 15 5 15 0 15
-82 -10z m-159 -192 c-9 -14 -18 -38 -19 -55 -1 -16 -6 -28 -10 -25 -13 8 -2
73 17 94 24 27 32 17 12 -14z"/>
<path d="M1396 1018 c-27 -59 -60 -153 -91 -254 -6 -21 13 -36 53 -41 41 -5
77 9 117 44 28 25 74 117 81 163 6 36 3 41 -54 99 -33 33 -63 61 -66 61 -4 0
-22 -33 -40 -72z m94 2 c55 -56 59 -72 35 -140 -19 -53 -75 -126 -85 -110 -5
8 -9 4 -13 -9 -4 -17 -13 -21 -45 -21 -43 0 -66 17 -52 39 4 8 6 20 3 27 -2 6
1 15 6 19 6 3 9 11 6 16 -4 5 -1 9 5 9 6 0 10 6 9 13 -5 25 14 83 44 137 18
30 31 58 29 63 -5 15 9 5 58 -43z"/>
<path d="M1460 884 c0 -6 7 -19 16 -30 14 -18 14 -18 3 6 -14 31 -19 36 -19
24z"/>
<path d="M1429 862 c5 -10 18 -25 28 -33 12 -10 11 -5 -6 19 -24 35 -38 43
-22 14z"/>
<path d="M2305 1080 c-3 -5 -1 -10 4 -10 6 0 11 5 11 10 0 6 -2 10 -4 10 -3 0
-8 -4 -11 -10z"/>
<path d="M1997 1066 c-4 -10 -5 -22 -2 -26 3 -5 21 -62 41 -127 34 -111 36
-125 32 -230 -2 -72 -8 -117 -16 -125 -6 -6 -12 -8 -13 -2 -1 29 -12 100 -15
103 -2 2 -4 -18 -4 -45 0 -45 12 -74 31 -74 20 0 34 72 33 170 -1 86 -6 120
-28 190 -16 47 -34 107 -40 135 -9 36 -14 44 -19 31z"/>
<path d="M2130 1073 c0 -7 14 -28 31 -47 17 -20 28 -40 25 -45 -4 -5 2 -16 11
-23 10 -7 35 -38 55 -68 21 -30 50 -69 65 -86 16 -18 55 -66 88 -107 33 -42
64 -76 69 -77 11 0 -23 52 -40 63 -7 4 -43 50 -80 102 -37 52 -71 95 -76 95
-5 0 -7 3 -5 8 3 4 -1 13 -9 20 -8 7 -14 10 -14 6 0 -4 -10 11 -22 34 -36 65
-97 143 -98 125z"/>
<path d="M1025 1040 c-9 -17 -25 -74 -36 -127 -11 -53 -23 -101 -26 -106 -3
-5 -5 -41 -4 -79 1 -44 -3 -76 -11 -85 -11 -14 -13 -13 -19 8 -6 22 -7 22 -14
5 -5 -11 -3 -21 6 -26 11 -7 10 -13 -6 -30 -12 -14 -14 -19 -4 -15 8 3 23 18
34 34 10 16 22 28 26 25 10 -6 17 -54 8 -54 -5 0 -9 7 -9 15 0 8 -3 15 -7 15
-8 0 -25 -26 -80 -130 -20 -36 -40 -71 -46 -78 -7 -9 -6 -11 7 -6 24 9 21 2
-30 -77 -50 -79 -114 -209 -136 -281 l-16 -48 28 0 c25 0 31 6 46 47 19 50 90
176 128 228 34 46 41 63 12 30 -14 -16 -38 -49 -52 -72 -14 -24 -28 -43 -30
-43 -11 0 0 23 40 86 32 48 42 72 35 81 -7 7 -7 18 -1 30 5 10 7 24 5 30 -6
18 78 162 91 157 6 -2 12 -25 13 -51 1 -44 12 -114 34 -210 5 -24 6 -64 3 -91
-6 -48 -4 -50 32 -81 21 -17 48 -31 59 -31 11 0 46 -9 78 -20 42 -14 64 -17
77 -10 29 16 52 12 77 -12 15 -14 39 -23 61 -25 20 -1 66 -10 102 -19 64 -17
242 -24 355 -15 28 2 59 0 70 -4 16 -7 18 -6 9 6 -15 20 -16 93 -2 167 9 46
18 66 35 78 31 19 94 89 111 121 25 46 -2 44 -46 -2 -24 -25 -36 -45 -28 -45
8 0 -1 -15 -21 -35 -61 -61 -76 -34 -19 34 33 39 96 141 96 155 0 21 -25 -2
-56 -51 -20 -32 -49 -77 -65 -100 -26 -36 -29 -50 -29 -115 0 -96 -10 -179
-21 -172 -5 3 -12 -1 -15 -10 -6 -16 -22 -18 -169 -16 -61 1 -135 10 -190 23
-49 11 -107 21 -127 21 -24 0 -38 5 -38 13 0 7 -11 20 -25 29 -23 15 -28 15
-56 2 -28 -14 -36 -14 -92 5 -34 11 -72 19 -85 18 -12 0 -25 6 -28 14 -4 8
-14 15 -23 15 -13 0 -13 2 -2 9 12 8 11 10 -2 12 -13 4 -14 9 -2 42 11 33 10
46 -6 100 -22 77 -42 218 -34 249 3 13 1 37 -6 53 -15 37 -20 138 -8 185 9 39
14 62 29 135 6 28 17 67 25 88 18 45 12 49 -10 7z m-188 -727 c-31 -48 -117
-220 -117 -230 1 -5 15 18 31 51 17 32 33 56 35 53 3 -3 -8 -29 -25 -59 -17
-30 -31 -61 -31 -69 -1 -21 -27 -52 -38 -45 -11 6 9 64 57 169 32 71 100 181
108 174 2 -3 -7 -23 -20 -44z"/>
<path d="M2406 1057 c3 -10 9 -15 12 -12 3 3 0 11 -7 18 -10 9 -11 8 -5 -6z"/>
<path d="M1940 1053 c0 -5 5 -15 10 -23 7 -12 9 -10 7 8 -1 19 -17 33 -17 15z"/>
<path d="M2199 1034 c17 -14 63 -75 103 -134 39 -60 75 -107 80 -104 4 3 8 1
8 -5 0 -12 90 -110 90 -99 0 4 -13 22 -28 40 -50 58 -163 210 -174 234 -6 13
-15 24 -20 24 -5 0 -7 4 -4 9 3 4 -1 17 -9 27 -10 14 -14 15 -15 5 0 -11 -6
-8 -20 7 -12 12 -25 22 -31 22 -6 0 3 -12 20 -26z"/>
<path d="M1182 1039 c-13 -5 -29 -24 -37 -44 -23 -53 -18 -64 11 -27 15 19 38
38 51 43 14 5 23 14 21 21 -6 16 -19 18 -46 7z"/>
<path d="M783 1005 c0 -22 2 -30 4 -17 2 12 2 30 0 40 -3 9 -5 -1 -4 -23z"/>
<path d="M1105 1029 c-4 -6 -5 -13 -2 -16 7 -7 27 6 27 18 0 12 -17 12 -25 -2z"/>
<path d="M1905 1030 c-3 -5 -1 -10 4 -10 6 0 11 5 11 10 0 6 -2 10 -4 10 -3 0
-8 -4 -11 -10z"/>
<path d="M2291 1001 c13 -18 36 -50 51 -70 14 -20 48 -66 73 -103 26 -38 49
-68 51 -68 17 0 -103 175 -164 238 l-35 37 24 -34z"/>
<path d="M2388 958 c27 -28 60 -68 73 -89 13 -21 28 -39 34 -39 5 0 4 5 -3 12
-7 7 -12 20 -12 30 0 10 -7 18 -15 18 -8 0 -15 5 -15 10 0 14 -90 110 -103
110 -5 0 13 -23 41 -52z"/>
<path d="M2436 980 c10 -39 23 -70 28 -70 7 0 -10 56 -24 77 -9 15 -10 15 -4
-7z"/>
<path d="M1930 980 c0 -5 5 -10 10 -10 6 0 10 5 10 10 0 6 -4 10 -10 10 -5 0
-10 -4 -10 -10z"/>
<path d="M630 963 c0 -19 23 -53 35 -53 6 0 -16 52 -27 65 -4 5 -8 0 -8 -12z"/>
<path d="M1090 971 c0 -6 5 -13 10 -16 6 -3 10 1 10 9 0 9 -4 16 -10 16 -5 0
-10 -4 -10 -9z"/>
<path d="M1570 955 c0 -16 5 -22 18 -21 14 1 17 -8 18 -47 1 -59 8 -66 24 -26
19 46 3 100 -32 110 -25 6 -28 4 -28 -16z"/>
<path d="M1710 935 c-10 -12 -10 -15 3 -15 19 0 31 16 18 24 -5 3 -14 -1 -21
-9z"/>
<path d="M2531 944 c2 -5 15 -37 28 -72 13 -34 26 -60 28 -58 7 6 -38 126 -50
133 -5 3 -8 2 -6 -3z"/>
<path d="M1266 917 c3 -10 9 -15 12 -12 3 3 0 11 -7 18 -10 9 -11 8 -5 -6z"/>
<path d="M1061 903 c0 -13 -8 -23 -16 -23 -11 0 -15 -11 -15 -37 0 -84 10
-106 62 -147 54 -42 68 -68 73 -134 6 -79 31 -68 40 18 8 68 -11 118 -59 155
-50 38 -70 73 -77 135 -3 30 -7 45 -8 33z m14 -136 c8 3 18 -2 21 -11 3 -8 21
-25 39 -36 38 -23 55 -64 54 -124 l0 -41 -14 50 c-7 27 -23 57 -36 68 -79 64
-89 76 -90 114 -3 65 5 91 8 31 3 -45 7 -56 18 -51z"/>
<path d="M1090 900 c0 -5 7 -10 15 -10 8 0 15 5 15 10 0 6 -7 10 -15 10 -8 0
-15 -4 -15 -10z"/>
<path d="M1930 900 c0 -5 5 -10 11 -10 5 0 7 5 4 10 -3 6 -8 10 -11 10 -2 0
-4 -4 -4 -10z"/>
<path d="M1250 891 c0 -6 4 -13 10 -16 6 -3 7 1 4 9 -7 18 -14 21 -14 7z"/>
<path d="M1695 889 c-10 -15 1 -23 20 -15 9 3 13 10 10 16 -8 13 -22 13 -30
-1z"/>
<path d="M1080 845 c0 -8 5 -15 10 -15 6 0 10 7 10 15 0 8 -4 15 -10 15 -5 0
-10 -7 -10 -15z"/>
<path d="M1536 835 c-6 -18 2 -45 15 -45 5 0 9 -9 9 -19 0 -18 -51 -65 -96
-89 -28 -15 -50 -72 -28 -72 7 0 14 7 14 16 0 9 25 26 63 44 75 34 100 60 99
101 -1 58 -59 107 -76 64z m60 -72 c1 -13 -2 -23 -7 -23 -6 0 -7 -6 -3 -12 4
-7 3 -10 -1 -5 -5 4 -17 0 -27 -10 -10 -9 -18 -12 -18 -7 0 5 9 15 19 21 21
13 22 53 2 77 -9 11 -9 15 1 18 14 5 29 -21 34 -59z"/>
<path d="M1722 806 c-15 -40 -88 -126 -107 -126 -34 0 -133 -53 -144 -77 -18
-39 -25 -109 -12 -117 6 -4 11 -3 11 3 0 5 23 35 52 66 36 40 70 65 116 86 36
16 63 32 59 35 -3 3 6 27 19 54 27 54 41 110 27 110 -5 0 -14 -15 -21 -34z
m-52 -126 c0 -6 -24 -21 -52 -34 -32 -13 -72 -44 -100 -74 -52 -55 -57 -54
-32 7 15 39 23 44 182 110 1 1 2 -4 2 -9z"/>
<path d="M1806 823 c-4 -10 -25 -50 -48 -89 -35 -62 -47 -74 -91 -94 -71 -32
-126 -86 -155 -150 -23 -50 -32 -113 -20 -126 3 -2 23 12 44 31 21 20 57 44
79 54 65 30 104 79 135 172 16 46 40 114 53 152 14 37 22 67 17 67 -4 0 -11
-8 -14 -17z m-53 -144 c-6 -6 -9 -18 -6 -25 3 -8 1 -14 -5 -14 -5 0 -13 -11
-16 -25 -6 -23 -8 -24 -21 -11 -16 16 -21 41 -6 31 5 -3 19 8 31 25 12 16 24
30 28 30 3 0 1 -5 -5 -11z m-65 -93 c6 -27 -7 -65 -28 -86 -26 -26 -79 -27
-82 -2 -3 38 3 55 29 76 49 39 75 43 81 12z m-114 -101 c15 -15 20 -25 12 -25
-8 0 -16 -6 -19 -14 -3 -8 -19 -21 -36 -29 -27 -14 -31 -14 -31 -1 0 13 41 94
47 94 1 0 13 -11 27 -25z"/>
<path d="M1621 561 c-15 -26 -14 -29 8 -40 16 -9 20 -7 23 14 7 34 -17 53 -31
26z m22 -16 c-7 -21 -13 -19 -13 6 0 11 4 18 10 14 5 -3 7 -12 3 -20z"/>
<path d="M1670 814 c0 -9 7 -14 17 -12 25 5 28 28 4 28 -12 0 -21 -6 -21 -16z"/>
<path d="M2032 810 c0 -14 2 -19 5 -12 2 6 2 18 0 25 -3 6 -5 1 -5 -13z"/>
<path d="M1006 722 c-6 -77 -5 -87 24 -156 17 -41 47 -95 67 -120 35 -45 61
-61 49 -30 -3 8 -2 12 4 9 10 -6 6 77 -8 146 -12 61 -47 117 -78 125 -16 4
-26 16 -30 33 -17 76 -21 75 -28 -7z m44 -42 c0 -5 -4 -11 -8 -14 -5 -3 -8
-18 -7 -33 2 -19 1 -20 -2 -5 -2 12 -8 20 -12 18 -8 -5 -12 21 -6 41 4 13 35
7 35 -7z m42 -27 c26 -30 41 -89 28 -113 -14 -26 -25 -25 -44 2 -17 24 -23
128 -8 128 5 0 16 -8 24 -17z m18 -143 c24 15 26 12 22 -25 -5 -39 -11 -38
-44 8 -12 18 -15 27 -7 20 9 -8 20 -9 29 -3z"/>
<path d="M1080 615 c-6 -8 -10 -22 -8 -31 3 -16 4 -16 18 1 9 11 10 16 3 11
-16 -9 -17 6 -1 22 7 7 9 12 6 12 -3 0 -11 -7 -18 -15z"/>
<path d="M2557 789 c7 -7 15 -10 18 -7 3 3 -2 9 -12 12 -14 6 -15 5 -6 -5z"/>
<path d="M2590 788 c0 -8 7 -21 15 -28 19 -16 19 -1 0 24 -12 16 -15 17 -15 4z"/>
<path d="M925 770 c3 -5 8 -10 11 -10 2 0 4 5 4 10 0 6 -5 10 -11 10 -5 0 -7
-4 -4 -10z"/>
<path d="M1655 770 c-3 -5 3 -10 14 -10 12 0 21 5 21 10 0 6 -6 10 -14 10 -8
0 -18 -4 -21 -10z"/>
<path d="M2910 766 c0 -8 4 -17 9 -20 5 -4 7 3 4 14 -6 23 -13 26 -13 6z"/>
<path d="M2501 743 c7 -12 15 -20 18 -17 3 2 -3 12 -13 22 -17 16 -18 16 -5
-5z"/>
<path d="M2470 746 c0 -2 8 -10 18 -17 15 -13 16 -12 3 4 -13 16 -21 21 -21
13z"/>
<path d="M850 725 c0 -8 5 -15 10 -15 6 0 10 7 10 15 0 8 -4 15 -10 15 -5 0
-10 -7 -10 -15z"/>
<path d="M807 706 c-12 -43 10 -134 34 -141 10 -4 19 -10 19 -15 0 -20 -39
-73 -62 -84 -16 -8 -25 -23 -29 -51 -7 -44 -94 -232 -101 -219 -3 5 -3 3 -1
-5 2 -7 0 -19 -5 -25 -20 -26 -80 -166 -72 -166 6 0 10 7 10 15 0 8 4 15 10
15 5 0 6 -7 3 -17 -4 -11 -3 -14 5 -9 7 4 12 15 12 24 0 9 7 30 15 46 9 16 13
36 10 43 -3 9 0 11 7 7 8 -5 9 -2 5 9 -3 10 -2 17 4 17 9 0 28 39 33 66 1 7 7
18 13 25 6 8 23 40 38 72 14 31 31 57 36 57 5 0 9 6 9 14 0 8 17 43 37 77 46
76 56 158 16 118 -12 -12 -16 1 -32 106 -6 46 -7 48 -14 21z m8 -266 c-14 -27
-35 -41 -35 -23 0 7 41 53 47 53 2 0 -3 -13 -12 -30z"/>
<path d="M700 704 c0 -8 5 -12 10 -9 6 3 10 10 10 16 0 5 -4 9 -10 9 -5 0 -10
-7 -10 -16z"/>
<path d="M837 670 c3 -30 7 -57 9 -59 7 -8 2 64 -6 89 -6 16 -7 6 -3 -30z"/>
<path d="M650 701 c0 -6 5 -13 10 -16 6 -3 10 1 10 9 0 9 -4 16 -10 16 -5 0
-10 -4 -10 -9z"/>
<path d="M1920 675 c0 -22 -7 -75 -15 -118 -8 -43 -15 -101 -15 -128 0 -42 3
-49 20 -49 15 0 23 14 39 68 41 141 53 191 49 203 -2 7 -12 -18 -21 -55 -9
-37 -27 -99 -39 -139 l-23 -72 -3 41 c-2 23 4 91 12 150 9 68 12 113 6 123 -7
12 -9 5 -10 -24z"/>
<path d="M2511 673 c28 -115 48 -183 43 -148 -9 66 -38 185 -45 185 -4 0 -3
-17 2 -37z"/>
<path d="M1836 625 c3 -13 -1 -68 -10 -122 -19 -125 -24 -175 -15 -165 10 10
39 208 39 266 0 25 -5 46 -10 46 -6 0 -8 -11 -4 -25z"/>
<path d="M2492 595 c0 -41 11 -94 33 -165 19 -58 40 -130 49 -160 8 -30 15
-47 15 -38 1 25 -45 238 -73 338 l-24 85 0 -60z m31 -85 c3 -11 2 -20 -3 -20
-4 0 -10 11 -12 25 -6 29 7 25 15 -5z m11 -46 c3 -8 2 -12 -4 -9 -6 3 -10 10
-10 16 0 14 7 11 14 -7z"/>
<path d="M736 631 c-4 -7 -5 -15 -2 -18 9 -9 19 4 14 18 -4 11 -6 11 -12 0z"/>
<path d="M1779 598 c-5 -18 -2 -78 4 -78 4 0 7 18 7 40 0 22 -2 40 -5 40 -3 0
-5 -1 -6 -2z"/>
<path d="M1736 473 c-10 -38 -20 -77 -23 -88 -3 -11 -3 -17 1 -14 8 8 48 160
43 165 -2 3 -12 -26 -21 -63z"/>
<path d="M1866 518 c-3 -13 -5 -32 -5 -43 1 -11 5 -2 10 19 10 42 6 62 -5 24z"/>
<path d="M1245 511 c-71 -33 -94 -105 -55 -180 22 -43 35 -51 90 -51 49 0 78
11 113 43 23 22 27 34 27 80 0 79 -30 121 -90 125 -28 1 -60 -5 -85 -17z m111
-6 c45 -10 61 -113 26 -163 -26 -36 -89 -54 -136 -39 -32 11 -66 74 -59 111 6
32 46 76 73 81 13 2 24 6 26 8 6 5 49 7 70 2z"/>
<path d="M2791 514 c0 -11 3 -14 6 -6 3 7 2 16 -1 19 -3 4 -6 -2 -5 -13z"/>
<path d="M1770 490 c-1 -14 -4 -40 -6 -59 -2 -19 -2 -32 2 -29 3 3 6 17 8 30
1 13 5 28 8 33 3 6 2 19 -3 30 -7 18 -8 18 -9 -5z"/>
<path d="M2711 494 c0 -11 3 -14 6 -6 3 7 2 16 -1 19 -3 4 -6 -2 -5 -13z"/>
<path d="M687 431 c-3 -14 -1 -18 9 -14 8 3 14 11 14 19 0 21 -17 17 -23 -5z"/>
<path d="M1032 430 c0 -14 2 -19 5 -12 2 6 2 18 0 25 -3 6 -5 1 -5 -13z"/>
<path d="M1852 425 c0 -16 2 -22 5 -12 2 9 2 23 0 30 -3 6 -5 -1 -5 -18z"/>
<path d="M632 408 c-14 -14 -16 -68 -3 -68 8 0 24 70 18 77 -2 1 -9 -3 -15 -9z"/>
<path d="M1062 395 c0 -16 2 -22 5 -12 2 9 2 23 0 30 -3 6 -5 -1 -5 -18z"/>
<path d="M1020 381 c0 -5 5 -13 10 -16 6 -3 10 -2 10 4 0 5 -4 13 -10 16 -5 3
-10 2 -10 -4z"/>
<path d="M1842 370 c0 -14 2 -19 5 -12 2 6 2 18 0 25 -3 6 -5 1 -5 -13z"/>
<path d="M2735 350 c2 -25 10 -77 18 -116 14 -76 12 -155 -5 -189 -10 -19 -9
-19 7 -4 14 14 17 34 17 105 -1 104 -16 222 -32 238 -7 7 -9 -3 -5 -34z"/>
<path d="M1882 302 c1 -43 2 -47 5 -19 2 20 8 37 14 37 15 0 10 27 -6 34 -12
4 -15 -5 -13 -52z"/>
<path d="M1721 325 c-6 -17 -25 -55 -41 -85 -16 -30 -29 -58 -30 -62 0 -16 21
-8 27 10 3 9 19 46 35 81 16 35 27 69 25 75 -2 6 -9 -3 -16 -19z"/>
<path d="M1962 310 c-12 -12 -22 -25 -22 -30 0 -5 12 2 27 16 14 13 24 26 21
29 -2 3 -14 -4 -26 -15z"/>
<path d="M1753 280 c0 -25 2 -35 4 -22 2 12 2 32 0 45 -2 12 -4 2 -4 -23z"/>
<path d="M1810 305 c0 -8 4 -15 10 -15 5 0 7 7 4 15 -4 8 -8 15 -10 15 -2 0
-4 -7 -4 -15z"/>
<path d="M883 266 c-30 -28 -125 -195 -118 -206 3 -5 -2 -21 -11 -35 -9 -14
-12 -25 -7 -25 13 0 79 130 75 147 -2 7 3 12 10 11 8 -2 12 4 10 16 -2 12 1
16 9 10 8 -4 10 -3 5 4 -4 7 -2 12 5 12 7 0 10 3 6 6 -3 4 6 22 20 41 30 39
28 50 -4 19z m-89 -176 c-10 -16 -20 -28 -22 -26 -4 5 28 56 35 56 2 0 -4 -13
-13 -30z"/>
<path d="M450 231 c-12 -27 -20 -55 -17 -62 4 -10 6 -8 6 4 1 10 10 36 22 58
11 23 19 43 16 45 -2 2 -14 -18 -27 -45z"/>
<path d="M860 158 c-33 -56 -60 -107 -60 -112 1 -16 30 26 37 52 3 12 9 22 13
22 5 0 24 32 44 70 20 39 34 70 32 70 -3 0 -33 -46 -66 -102z"/>
<path d="M1760 230 c-13 -8 -13 -11 2 -26 15 -15 16 -14 15 10 -1 14 -2 26 -2
26 0 0 -7 -5 -15 -10z"/>
<path d="M1872 215 c0 -16 2 -22 5 -12 2 9 2 23 0 30 -3 6 -5 -1 -5 -18z"/>
<path d="M2632 220 c0 -14 2 -19 5 -12 2 6 2 18 0 25 -3 6 -5 1 -5 -13z"/>
<path d="M1863 135 c0 -22 2 -30 4 -17 2 12 2 30 0 40 -3 9 -5 -1 -4 -23z"/>
<path d="M2532 84 c-29 -47 -47 -84 -40 -82 7 3 26 27 43 56 16 28 34 54 38
59 11 10 -12 -44 -31 -74 -8 -12 -12 -28 -10 -35 8 -22 50 74 54 119 1 24 2
43 0 43 -1 0 -25 -39 -54 -86z"/>
<path d="M2604 159 c-3 -6 -1 -16 5 -22 8 -8 11 -5 11 11 0 24 -5 28 -16 11z"/>
<path d="M422 130 c0 -14 2 -19 5 -12 2 6 2 18 0 25 -3 6 -5 1 -5 -13z"/>
<path d="M2737 121 c-4 -17 -3 -21 5 -13 5 5 8 16 6 23 -3 8 -7 3 -11 -10z"/>
<path d="M1851 74 c0 -11 3 -14 6 -6 3 7 2 16 -1 19 -3 4 -6 -2 -5 -13z"/>
<path d="M1035 76 c6 -3 37 -12 70 -21 33 -10 73 -23 90 -30 16 -8 33 -11 38
-8 5 3 14 -1 19 -8 8 -11 9 -12 6 0 -4 13 -57 37 -108 48 -14 3 -29 9 -35 12
-5 4 -28 8 -50 9 -22 1 -35 0 -30 -2z"/>
<path d="M1040 30 c12 -17 26 -30 31 -30 13 0 -22 47 -39 55 -7 2 -4 -9 8 -25z"/>
<path d="M1840 40 c0 -5 5 -10 10 -10 6 0 10 5 10 10 0 6 -4 10 -10 10 -5 0
-10 -4 -10 -10z"/>
<path d="M1006 17 c3 -10 9 -15 12 -12 3 3 0 11 -7 18 -10 9 -11 8 -5 -6z"/>
<path d="M1337 18 c-7 -4 13 -8 43 -8 40 1 51 3 38 10 -18 11 -62 10 -81 -2z"/>
<path d="M975 10 c-3 -5 -1 -10 4 -10 6 0 11 5 11 10 0 6 -2 10 -4 10 -3 0 -8
-4 -11 -10z"/>
</g>
</svg>
