<?xml version="1.0" standalone="no"?>
<!DOCTYPE svg PUBLIC "-//W3C//DTD SVG 20010904//EN"
 "http://www.w3.org/TR/2001/REC-SVG-20010904/DTD/svg10.dtd">
<svg version="1.0" xmlns="http://www.w3.org/2000/svg"
 width="300.000000pt" height="354.000000pt" viewBox="0 0 300.000000 354.000000"
 preserveAspectRatio="xMidYMid meet">
<metadata>
Created by potrace 1.10, written by Peter Selinger 2001-2011
</metadata>
<g transform="translate(0.000000,354.000000) scale(0.100000,-0.100000)"
fill="#000000" stroke="none">
<path d="M726 3281 c-25 -38 -64 -85 -87 -105 l-40 -37 -39 35 c-44 39 -110
76 -137 76 -10 0 2 -10 27 -21 47 -21 129 -79 130 -91 0 -4 -9 -12 -20 -18
-17 -9 -28 -2 -81 52 -70 73 -67 56 3 -22 52 -56 64 -58 119 -19 26 19 27 19
33 -4 3 -12 6 -44 6 -72 1 -39 3 -45 10 -28 5 13 5 45 0 75 -8 54 -3 66 50
118 3 3 21 29 39 58 25 40 36 50 43 40 7 -10 8 -8 4 5 -3 9 -3 17 0 17 7 0
137 -83 152 -96 15 -15 16 -28 1 -18 -8 4 -8 0 0 -15 7 -11 17 -20 23 -18 6 1
13 -4 16 -12 3 -9 0 -11 -7 -6 -15 8 20 -61 44 -90 9 -11 5 2 -10 28 -34 62
-25 73 10 13 31 -53 44 -62 19 -13 -26 49 -65 97 -75 91 -5 -3 -9 0 -9 5 0 25
31 8 76 -41 26 -29 44 -45 41 -35 -4 10 -7 23 -7 28 0 6 -5 7 -10 4 -5 -3 -10
-2 -10 3 0 25 -218 182 -254 182 -8 0 -35 -31 -60 -69z"/>
<path d="M2125 3318 c-65 -39 -185 -137 -185 -151 0 -6 -3 -7 -7 -3 -4 3 -15
-15 -25 -41 -25 -65 -23 -66 11 -7 27 46 54 74 126 129 15 11 32 25 38 30 7 6
34 23 61 38 56 31 61 29 101 -38 25 -43 25 -45 10 -101 -17 -68 -18 -74 -6
-74 5 0 12 25 16 55 3 30 9 55 13 55 3 0 18 -11 32 -25 25 -24 27 -32 25 -98
-1 -40 -1 -56 1 -37 2 19 7 50 10 68 l5 32 37 -25 c20 -14 41 -25 47 -25 14 0
130 118 123 125 -3 3 -31 -22 -62 -55 -50 -54 -58 -60 -77 -50 l-21 12 23 24
c29 31 80 63 128 80 27 10 31 13 13 14 -31 0 -95 -34 -142 -76 l-39 -35 -40
37 c-23 20 -62 67 -87 105 -27 41 -52 69 -62 68 -9 0 -39 -14 -67 -31z"/>
<path d="M1565 3314 c-16 -8 -37 -22 -46 -30 -8 -7 -39 -15 -67 -16 -28 -1
-46 -6 -39 -10 7 -4 -8 -8 -33 -8 -25 0 -52 -5 -60 -11 -12 -8 -9 -10 12 -6
22 3 26 1 23 -16 -3 -10 -10 -25 -16 -33 -7 -8 -10 -17 -7 -19 3 -3 16 12 29
33 20 31 33 39 84 52 33 8 85 30 115 47 56 33 60 46 5 17z"/>
<path d="M2182 3287 c-15 -43 -36 -167 -29 -174 3 -3 8 5 11 18 2 13 11 60 20
103 17 86 17 104 -2 53z"/>
<path d="M1650 3300 c-8 -5 -29 -10 -46 -10 -30 0 -69 -20 -69 -37 -1 -4 -11
-24 -23 -43 -21 -33 -27 -63 -24 -120 1 -23 1 -23 -8 -5 -6 13 -9 15 -9 5 0
-8 4 -22 9 -30 25 -39 -82 -27 -116 14 -20 23 -34 25 -34 4 0 -5 4 -7 9 -3 5
3 12 1 15 -4 4 -5 -2 -8 -11 -7 -15 2 -18 13 -18 57 -1 30 5 64 12 76 12 21
11 22 -24 20 -22 -1 -38 -8 -41 -17 -4 -12 -2 -13 9 -2 24 22 27 12 7 -27 -13
-26 -17 -48 -12 -66 7 -30 63 -70 78 -55 5 5 18 2 33 -7 31 -20 15 -31 -38
-27 -45 3 -64 15 -85 55 -16 32 -19 85 -4 94 5 3 7 12 3 21 -4 11 -9 12 -19 3
-8 -6 -14 -8 -14 -3 0 4 -11 -7 -25 -26 -17 -23 -21 -36 -14 -41 6 -4 9 -11 6
-16 -3 -5 10 -27 28 -48 19 -22 34 -37 35 -34 0 3 -11 19 -24 34 -33 38 -37
70 -14 100 26 34 41 32 21 -3 -15 -25 -14 -31 7 -79 14 -33 29 -53 43 -57 27
-7 21 -12 -23 -20 -34 -6 -36 -5 -64 49 -16 30 -33 55 -38 55 -5 0 -24 11 -41
24 -50 37 -65 43 -46 20 9 -10 28 -39 42 -64 15 -25 27 -39 27 -32 0 7 -8 24
-17 39 -17 26 -17 26 6 14 19 -11 33 -29 86 -115 8 -14 16 -15 43 -6 82 26 96
29 100 26 7 -8 -93 -50 -113 -48 -15 2 -17 0 -6 -7 11 -7 10 -14 -8 -39 -18
-26 -27 -30 -58 -29 -25 2 -39 9 -44 22 -4 11 -8 15 -8 9 -1 -6 6 -28 15 -49
15 -36 11 -63 -5 -36 -5 8 -8 3 -8 -16 -1 -15 -5 -54 -10 -85 -5 -31 -6 -55
-1 -52 4 3 8 -6 8 -19 0 -14 7 -27 15 -31 8 -3 15 -11 15 -17 0 -8 -4 -8 -15
1 -8 7 -15 10 -15 7 0 -3 13 -15 30 -27 l30 -21 72 44 c40 24 101 54 136 67
65 24 76 31 40 27 -28 -3 -41 45 -32 123 9 87 25 129 61 160 34 30 34 41 0 15
-11 -7 -25 -11 -32 -9 -48 19 -166 -251 -134 -306 6 -10 8 1 9 32 0 79 75 246
116 262 18 7 18 -1 0 -19 -22 -23 -49 -148 -41 -196 6 -32 4 -40 -5 -34 -9 5
-11 4 -6 -4 4 -6 11 -9 16 -6 4 3 10 -2 13 -9 4 -10 -15 -25 -61 -47 -37 -18
-70 -35 -74 -37 -4 -2 -19 8 -33 22 -14 14 -25 20 -25 14 0 -6 -3 -9 -6 -5 -4
3 -3 14 1 24 4 10 9 38 12 62 5 56 21 86 74 140 36 37 39 40 12 23 -60 -42
-153 -172 -123 -172 6 0 10 8 10 18 0 9 5 24 10 32 8 11 9 7 3 -15 -4 -16 -7
-38 -7 -47 0 -9 -3 -15 -7 -12 -18 11 -17 -31 2 -57 11 -16 17 -33 14 -39 -3
-6 1 -7 9 -4 9 3 16 1 16 -5 0 -6 -6 -11 -14 -11 -8 0 -20 -2 -28 -3 -7 -2
-10 -2 -5 1 4 2 -4 17 -18 34 -65 76 -38 166 75 255 30 24 67 54 83 67 25 22
31 23 28 3 -1 -5 3 -6 8 -2 6 3 8 12 4 20 -3 10 1 15 16 15 11 0 25 8 30 18
12 22 108 26 103 4 -1 -8 2 -11 8 -7 6 3 8 11 5 16 -4 5 14 7 42 4 35 -4 42
-3 28 4 -11 5 -32 10 -47 10 -50 2 -55 8 -50 64 2 29 9 61 15 72 6 11 10 24 9
29 -3 10 27 46 39 46 11 0 5 -25 -11 -46 -13 -18 -13 -18 6 -1 10 10 19 27 19
39 0 17 11 26 50 40 l49 18 26 -24 c24 -23 70 -43 70 -31 0 3 -12 10 -26 15
-14 6 -23 14 -20 19 3 5 -8 14 -26 20 -37 13 -30 13 -48 1z m-343 -175 c0 -27
-4 -40 -9 -33 -14 22 -8 78 8 78 1 0 2 -20 1 -45z m7 -170 c-10 -8 -23 -14
-29 -14 -5 0 -1 6 9 14 11 8 24 15 30 15 5 0 1 -7 -10 -15z m-134 -94 c0 -6
-4 -13 -10 -16 -5 -3 -10 1 -10 9 0 9 5 16 10 16 6 0 10 -4 10 -9z m65 -239
c-6 -7 -35 18 -35 31 0 5 9 2 20 -8 11 -10 18 -20 15 -23z"/>
<path d="M789 3261 c6 -10 14 -44 17 -75 4 -31 11 -59 17 -63 6 -3 7 11 2 38
-10 65 -27 119 -37 119 -5 0 -4 -9 1 -19z"/>
<path d="M1285 3250 c-45 -36 -38 -41 8 -6 18 14 48 26 67 29 l35 4 -36 1
c-27 2 -46 -6 -74 -28z"/>
<path d="M820 3267 c0 -2 15 -16 33 -33 l32 -29 -29 33 c-28 30 -36 37 -36 29z"/>
<path d="M1593 3245 c0 -8 4 -12 9 -9 5 3 6 10 3 15 -9 13 -12 11 -12 -6z"/>
<path d="M1480 3208 c-11 -24 -19 -56 -19 -73 1 -25 3 -23 10 13 4 23 18 56
29 72 12 17 16 30 10 30 -6 0 -20 -19 -30 -42z"/>
<path d="M1697 3228 c2 -5 0 -8 -6 -8 -6 0 -8 -7 -4 -15 4 -11 -15 -34 -56
-72 -33 -31 -61 -61 -61 -67 0 -6 29 19 65 54 36 35 65 72 65 82 0 18 12 17
57 -4 18 -9 20 -14 10 -32 -27 -48 -77 -103 -111 -121 -20 -11 -36 -23 -36
-26 0 -4 19 -13 43 -19 30 -9 43 -19 44 -33 2 -17 0 -18 -15 -3 -17 15 -84 46
-99 46 -11 0 -15 -168 -4 -205 8 -30 8 -29 12 13 3 23 1 42 -3 42 -5 0 -8 7
-8 15 0 8 5 15 10 15 7 0 8 18 4 50 -9 65 5 64 40 -1 22 -40 28 -63 27 -109 0
-54 -14 -110 -26 -110 -12 0 -63 56 -68 75 -3 12 -5 6 -6 -16 -1 -31 -5 -37
-28 -43 -16 -3 -39 -9 -52 -12 -24 -7 -24 -7 -17 52 11 100 50 204 84 224 9 5
12 10 6 10 -27 0 -78 -92 -93 -173 -7 -35 -9 -37 -9 -12 -1 17 6 48 14 70 8
22 16 45 17 50 2 6 6 16 11 23 4 7 6 15 3 18 -2 3 -14 -15 -25 -40 -26 -55
-44 -158 -30 -167 6 -4 5 -8 -3 -11 -11 -4 -9 -11 6 -34 11 -16 18 -33 17 -37
-1 -4 11 -1 27 8 38 19 60 19 99 -1 30 -15 34 -14 63 6 16 12 33 19 37 16 3
-4 0 -11 -8 -16 -8 -6 -10 -10 -5 -10 6 0 18 8 27 19 8 10 21 20 27 22 6 2 13
26 15 52 2 27 6 51 9 53 6 6 -1 56 -9 63 -2 2 -4 -7 -5 -20 0 -19 -3 -16 -15
15 -8 22 -12 41 -9 44 3 3 0 11 -6 19 -6 7 -7 13 -2 13 15 0 128 -112 142
-142 16 -32 11 -110 -10 -152 -13 -27 -28 -36 -30 -18 0 4 -5 12 -10 18 -5 6
-3 18 6 30 8 10 15 14 15 8 0 -5 -5 -15 -12 -22 -9 -9 -9 -12 0 -12 15 0 42
53 42 82 -1 13 -7 34 -15 48 l-14 25 -1 -32 c0 -17 6 -33 12 -35 10 -4 10 -10
0 -29 -12 -23 -12 -23 -8 -1 2 12 0 20 -5 16 -5 -3 -9 -11 -9 -17 -1 -17 -46
-48 -73 -49 -12 -1 -27 -5 -33 -10 -7 -5 -16 -8 -20 -7 -5 1 -21 1 -36 0 -21
-1 -26 -5 -21 -17 5 -13 7 -13 15 -2 7 10 11 9 20 -7 15 -26 110 -120 169
-168 46 -37 66 -47 53 -25 -4 7 -3 8 5 4 6 -4 9 -11 6 -16 -3 -5 14 -19 38
-30 24 -11 65 -43 92 -70 52 -52 57 -77 9 -37 -16 13 -37 27 -47 30 -72 27
-333 247 -323 273 3 8 0 11 -9 8 -8 -3 -13 -11 -12 -16 1 -6 -4 -13 -11 -15
-9 -4 -11 2 -6 21 5 20 0 32 -24 56 -33 32 -55 36 -117 19 -22 -6 -41 -10 -41
-8 -1 2 -10 -3 -20 -12 -11 -9 -39 -27 -64 -39 -25 -13 -78 -45 -119 -72 -40
-27 -76 -47 -79 -44 -3 3 -3 8 -1 9 24 20 116 78 164 104 33 18 56 33 52 33
-21 0 -227 -119 -227 -132 0 -5 -5 -6 -10 -3 -6 4 -9 1 -8 -6 2 -6 -3 -14 -11
-17 -8 -2 -11 0 -8 5 3 5 -17 2 -45 -8 -29 -9 -61 -15 -72 -13 -61 11 -75 16
-80 30 -6 17 -2 17 44 4 24 -7 51 -7 87 1 29 6 55 10 58 9 3 0 20 7 38 16 22
12 27 19 17 22 -8 2 -23 11 -32 20 -10 8 -18 10 -18 5 0 -6 8 -14 17 -17 9 -4
13 -10 7 -15 -12 -12 -84 -34 -90 -28 -8 8 30 66 51 76 11 5 15 10 8 10 -8 1
-10 8 -6 19 6 15 5 16 -11 2 -11 -9 -14 -16 -7 -18 6 -2 0 -13 -15 -24 -14
-11 -30 -31 -34 -44 -8 -19 -17 -24 -45 -24 -29 0 -35 4 -37 23 -4 62 5 83 52
132 67 68 123 170 110 196 -13 24 -20 25 -13 1 2 -10 -1 -30 -6 -45 l-11 -28
-26 28 -26 28 22 -33 c21 -32 21 -33 4 -60 -10 -15 -40 -51 -68 -81 -39 -41
-50 -59 -48 -80 3 -24 2 -23 -15 9 -11 19 -25 45 -33 57 -13 20 -12 25 10 48
13 13 21 28 18 31 -4 3 -12 -4 -19 -17 -12 -22 -12 -22 -30 12 -10 19 -16 41
-13 50 5 18 -63 118 -103 153 -24 21 -27 30 -24 75 1 28 -1 51 -6 51 -5 0 -7
-19 -5 -41 3 -25 0 -44 -7 -49 -8 -4 1 -19 27 -42 53 -48 54 -51 36 -93 -8
-20 -13 -39 -11 -42 3 -2 11 12 18 31 7 20 16 36 19 36 4 0 15 -17 26 -37 21
-39 21 -78 1 -67 -7 4 0 -5 16 -20 15 -15 27 -34 27 -43 0 -11 -12 -4 -37 22
-45 45 -120 95 -142 95 -9 -1 4 -12 29 -25 25 -13 56 -33 70 -45 l25 -20 -45
16 c-25 8 -59 13 -76 9 -30 -5 -111 -72 -100 -82 3 -3 17 8 31 25 14 17 41 36
61 42 30 10 43 9 89 -10 45 -18 120 -79 98 -80 -5 0 0 -5 10 -11 30 -17 61
-109 36 -109 -5 0 -8 4 -5 9 3 4 -1 17 -9 27 -8 10 -15 29 -15 42 0 12 -5 22
-11 22 -7 0 -9 -10 -5 -26 l7 -27 -30 30 c-16 17 -43 36 -59 42 -26 11 -34 10
-56 -5 -15 -9 -31 -25 -37 -36 -10 -18 -11 -18 -35 1 -15 11 -32 17 -42 14
-13 -6 -13 -7 -1 -11 42 -11 58 -25 49 -43 -6 -9 -15 -40 -21 -68 -10 -49 -11
-51 -32 -36 -12 8 -29 15 -38 15 -16 0 -16 5 -4 53 7 28 16 61 20 72 6 14 5
17 -3 10 -24 -22 -62 -235 -42 -235 5 0 10 20 10 45 0 51 17 59 57 27 19 -15
23 -31 29 -113 7 -106 -1 -198 -19 -223 -10 -12 -20 -14 -51 -6 -21 4 -35 5
-30 0 5 -5 20 -10 33 -12 22 -3 20 -5 -19 -30 -23 -16 -47 -28 -53 -28 -8 0
-7 -4 2 -9 13 -8 38 7 133 79 14 11 54 34 89 51 49 25 63 28 70 17 7 -10 9
-10 9 3 0 24 94 41 213 38 56 -1 111 -5 122 -9 23 -9 72 14 158 72 73 49 88
43 18 -7 -28 -20 -48 -41 -45 -47 4 -5 24 7 45 28 21 21 41 35 44 33 9 -9 -83
-91 -94 -84 -6 3 -9 11 -6 16 8 12 4 12 -39 -6 -20 -8 -36 -20 -36 -25 0 -7 6
-7 18 -1 19 10 62 11 62 2 0 -3 -12 -18 -27 -33 l-27 -28 25 0 c16 0 20 3 11
8 -17 11 31 57 52 49 9 -4 18 -2 21 3 4 6 0 10 -7 10 -7 0 16 29 51 64 36 36
69 64 75 63 5 -1 10 3 11 8 0 6 19 29 42 52 23 23 54 65 68 94 15 28 28 49 31
46 2 -2 -9 -41 -26 -87 -17 -46 -29 -85 -26 -87 2 -2 9 12 16 32 7 20 14 34
17 31 3 -3 -5 -33 -17 -66 -13 -35 -26 -56 -30 -50 -5 8 -9 7 -13 -5 -4 -9 -3
-13 3 -10 6 3 10 0 11 -7 1 -16 49 82 49 100 0 6 5 12 10 12 7 0 7 6 0 20 -11
21 -4 70 12 70 5 0 8 -6 7 -12 -3 -21 24 -114 29 -99 2 7 19 -13 36 -46 44
-81 110 -158 163 -187 35 -20 43 -22 43 -9 0 11 7 14 23 10 21 -5 21 -5 -3 11
-43 30 -75 60 -69 66 11 11 195 9 254 -3 103 -22 226 -86 308 -160 21 -19 30
-22 39 -13 9 9 9 12 -3 12 -7 1 -27 11 -42 24 l-29 23 33 7 c18 3 30 8 27 11
-2 3 -19 1 -36 -5 -28 -8 -34 -6 -48 15 -19 30 -29 157 -20 249 7 60 10 68 36
81 44 23 50 19 50 -29 0 -25 5 -48 10 -51 6 -3 10 4 10 17 -1 34 -27 169 -38
199 -11 29 -49 42 -76 27 -10 -5 -16 -5 -16 0 0 6 -8 13 -17 16 -17 7 -17 6 0
-11 11 -11 32 -18 55 -18 33 0 38 -3 48 -35 26 -81 26 -90 2 -90 -12 0 -29 -7
-39 -15 -15 -15 -17 -13 -23 19 -11 58 -44 123 -77 150 -35 30 -48 32 -75 11
-26 -20 -39 -19 -23 3 12 15 12 16 -2 5 -9 -7 -19 -10 -22 -6 -4 3 -7 1 -7 -5
0 -7 6 -12 13 -12 8 -1 7 -4 -3 -13 -26 -21 -70 -85 -70 -102 0 -12 -5 -15
-22 -9 -31 9 -79 40 -73 46 3 3 -17 17 -45 32 -27 15 -50 30 -50 34 1 4 7 18
15 32 8 14 14 34 14 45 0 11 -7 1 -16 -22 -8 -25 -21 -43 -30 -43 -8 0 -13 3
-11 8 25 47 41 92 42 115 1 25 2 26 14 10 29 -42 59 -77 92 -109 62 -60 54
-36 -13 36 -58 63 -110 145 -110 177 0 6 -7 9 -14 6 -12 -5 -11 2 2 33 26 60
28 84 3 34 -12 -25 -24 -47 -25 -49 -4 -7 -48 53 -46 61 2 5 -2 7 -9 5 -6 -1
-13 7 -15 18 -3 13 -1 16 4 8 7 -9 22 -6 61 12 67 31 67 41 1 14 -29 -11 -54
-18 -56 -15 -8 8 34 70 57 84 20 12 20 12 10 -8 -6 -12 -9 -24 -7 -27 3 -3 13
10 22 29 10 18 27 44 39 57 l21 24 -22 -12 c-19 -9 -23 -9 -23 2 0 7 -11 24
-25 37 -14 13 -25 20 -25 15 0 -4 -9 0 -20 10 -11 10 -28 15 -40 12 -11 -3
-20 -2 -20 1 0 4 -11 7 -24 7 -13 0 -22 -3 -19 -7z m101 -24 c12 -8 22 -12 22
-8 0 4 6 -1 14 -11 8 -11 11 -26 8 -34 -3 -9 -1 -12 6 -7 7 4 12 2 12 -6 0
-12 -36 -42 -52 -43 -10 0 -58 -90 -58 -108 0 -12 -5 -12 -33 2 l-33 16 43 28
c24 16 46 34 50 39 3 6 -15 -3 -40 -20 -25 -18 -58 -32 -73 -32 -40 0 -18 15
29 19 5 1 6 5 3 9 -3 5 8 22 25 38 17 16 37 42 46 57 10 20 20 27 31 23 10 -3
5 5 -10 18 -41 37 -34 51 10 20z m-120 -247 c63 -67 71 -217 12 -217 -20 0
-27 15 -11 24 15 10 21 68 11 106 -6 20 -21 54 -35 74 -28 41 -12 50 23 13z
m-49 -251 c-9 -9 -50 25 -43 36 4 6 14 2 27 -11 12 -11 19 -23 16 -25z m-28
-36 c29 -24 18 -26 -19 -4 -25 15 -26 15 -7 0 11 -9 28 -22 38 -29 17 -11 17
-14 2 -51 -31 -73 -87 -150 -158 -218 -67 -64 -94 -86 -67 -53 10 12 10 15 0
15 -10 0 -10 3 0 15 7 9 18 14 23 12 13 -4 159 152 152 163 -3 5 1 11 7 13 9
4 9 6 1 6 -6 1 -37 -33 -68 -75 -31 -41 -68 -80 -82 -85 -32 -12 -36 -11 -27
3 9 14 -56 -24 -106 -62 -19 -15 -50 -35 -68 -44 -19 -10 -31 -20 -29 -23 3
-3 45 21 94 53 99 66 114 74 95 52 -22 -27 -165 -116 -197 -123 -17 -4 -25 -3
-19 2 7 4 -32 9 -89 11 -111 3 -146 17 -127 53 6 10 14 29 20 43 8 21 7 24 -7
19 -12 -5 -14 -3 -8 8 5 8 5 11 -1 6 -5 -5 -9 -12 -9 -16 0 -4 -13 -20 -30
-35 -16 -15 -25 -25 -18 -22 7 4 5 -8 -5 -33 -11 -26 -25 -41 -39 -44 -22 -4
-22 -3 -7 32 8 20 19 40 25 46 5 5 9 13 9 18 0 16 -20 -5 -40 -41 l-19 -37 -1
37 c0 21 7 53 16 72 16 32 15 39 -11 147 -28 119 -44 162 -45 123 0 -12 9 -50
19 -85 18 -57 34 -127 36 -154 0 -5 -4 -13 -10 -17 -5 -4 -10 -40 -11 -79 l-1
-72 -48 -19 c-27 -10 -60 -27 -74 -37 l-26 -19 1 187 c1 167 3 191 22 232 19
41 72 99 90 99 14 0 68 -41 95 -72 16 -18 26 -25 23 -15 -7 24 1 21 15 -4 9
-17 8 -20 -2 -14 -9 6 -10 3 -5 -11 5 -10 9 -25 9 -31 0 -13 65 -41 102 -44
11 -1 37 5 57 15 43 19 52 20 43 6 -10 -16 11 -12 25 5 7 8 17 15 23 15 5 0 2
-10 -9 -22 -22 -25 -13 -20 71 38 134 92 276 161 336 163 9 1 27 -8 40 -19z
m149 9 c0 7 5 9 10 6 6 -4 7 -11 4 -17 -4 -6 3 -5 16 2 12 6 24 9 28 6 3 -3 0
-6 -6 -6 -14 0 22 -38 69 -73 38 -28 55 -35 43 -16 -4 8 0 8 15 0 25 -14 28
-23 4 -14 -11 5 -14 3 -8 -6 6 -10 2 -11 -16 -6 -21 7 -22 6 -10 -9 10 -12 17
-13 26 -6 10 8 22 5 47 -10 18 -11 41 -20 51 -20 10 0 15 -4 12 -10 -9 -14
-48 -12 -65 3 -12 10 -12 9 -1 -5 7 -10 9 -18 3 -18 -13 0 -33 25 -26 32 3 3
0 9 -7 14 -8 4 -10 3 -5 -4 13 -21 -6 -12 -43 20 -22 19 -28 29 -16 25 13 -5
10 1 -10 17 -21 17 -32 21 -37 13 -7 -11 -9 -10 -12 12 -2 13 -14 24 -31 28
-8 2 -21 4 -29 6 -22 5 -46 28 -40 39 3 5 12 4 20 -3 11 -9 14 -9 14 0z m-30
-29 c15 -11 31 -16 35 -12 5 4 5 1 1 -5 -4 -7 -3 -13 3 -13 5 0 68 -46 138
-102 129 -102 159 -127 136 -114 -34 19 -5 -9 67 -65 57 -43 83 -71 89 -93 8
-28 9 -29 10 -6 0 14 -3 31 -8 38 -4 7 -4 30 0 50 5 20 16 84 25 142 9 57 18
111 21 120 4 12 3 12 -6 -1 -11 -18 -41 -167 -48 -241 -3 -27 -7 -48 -10 -48
-11 0 -58 43 -58 53 0 7 -8 11 -17 9 -33 -5 -27 16 7 22 19 4 39 15 45 26 16
30 11 37 -10 12 -22 -27 -71 -44 -91 -31 -10 6 -11 9 -1 9 23 0 7 25 -30 48
-39 23 -51 39 -23 28 18 -7 91 38 99 61 6 14 4 14 -11 2 -15 -12 -15 -11 1 8
22 27 36 21 36 -13 0 -19 -8 -28 -35 -40 -19 -8 -35 -17 -35 -20 0 -3 5 -2 10
1 6 3 16 3 22 -1 9 -6 5 -11 -12 -16 l-25 -7 25 2 c14 1 25 8 25 16 0 8 6 16
14 19 8 3 11 0 7 -7 -4 -6 -2 -11 3 -11 6 0 11 17 12 38 l1 37 13 -46 c7 -26
15 -51 19 -57 4 -6 1 -32 -5 -57 -6 -25 -9 -48 -6 -51 3 -3 11 20 18 51 10 46
10 61 0 77 -10 16 -9 26 3 53 9 18 18 55 21 82 l5 48 -19 -63 c-24 -77 -31
-94 -28 -65 1 12 -8 32 -21 46 -22 23 -22 25 -5 44 61 70 113 59 158 -33 27
-58 28 -63 29 -245 l1 -187 -26 19 c-28 20 -80 43 -91 41 -3 -1 -20 21 -38 48
-36 57 -60 80 -60 59 0 -8 -23 10 -51 39 -66 69 -148 134 -160 126 -12 -7 -41
15 -34 26 3 4 -17 22 -43 39 -44 28 -79 61 -121 114 -18 23 -6 22 29 -3z m146
-248 c11 3 179 -99 195 -119 31 -37 -49 11 -181 110 -8 7 -7 2 4 -10 29 -35
166 -125 180 -120 14 5 36 -10 36 -25 0 -16 -66 6 -92 30 -28 26 -51 25 -30
-1 16 -19 8 -24 -32 -19 -27 3 -50 19 -98 68 -35 35 -63 67 -63 72 0 14 -84
119 -121 152 -39 34 -40 37 -16 43 11 2 49 -27 113 -90 52 -52 100 -93 105
-91z m-162 64 c51 -63 74 -101 71 -114 -2 -11 5 -28 16 -38 10 -9 19 -13 19
-9 0 5 10 -1 23 -12 12 -11 33 -24 46 -28 12 -4 19 -11 15 -15 -14 -13 -87
-19 -109 -8 -16 7 -16 5 4 -11 12 -12 26 -20 30 -18 3 1 22 -12 41 -30 19 -18
29 -33 23 -33 -7 0 -15 5 -18 10 -3 6 -14 10 -24 10 -34 0 -111 102 -180 237
-17 34 -31 69 -31 78 0 8 -4 15 -8 15 -5 0 -9 14 -9 30 0 17 4 30 8 30 5 0 42
-42 83 -94z m121 -148 c22 -24 28 -32 13 -19 -16 14 -28 21 -28 16 0 -14 -24
13 -26 30 -1 8 -1 15 0 15 1 0 20 -19 41 -42z m-887 -22 c-10 -23 -9 -29 2
-36 20 -13 7 -22 -26 -18 -26 3 -27 4 -11 19 9 9 13 19 10 23 -4 3 -2 6 4 6 6
0 13 10 16 22 4 12 9 20 12 16 3 -3 0 -18 -7 -32z m1222 -68 c0 -4 -5 -8 -12
-8 -15 0 -68 50 -68 64 0 6 10 0 21 -14 17 -21 19 -22 10 -3 -6 12 -11 25 -11
30 1 10 60 -58 60 -69z"/>
<path d="M1776 3133 c-4 -13 -24 -37 -44 -54 -20 -17 -28 -26 -17 -21 32 16
78 69 73 84 -3 8 -8 5 -12 -9z"/>
<path d="M1816 3113 c-6 -14 -5 -15 5 -6 7 7 10 15 7 18 -3 3 -9 -2 -12 -12z"/>
<path d="M1478 2624 c-27 -13 -48 -27 -48 -30 0 -3 3 -3 8 -1 4 3 28 14 55 26
26 12 47 24 47 26 0 9 -15 4 -62 -21z"/>
<path d="M1440 2545 c-124 -91 -162 -109 -90 -43 46 42 30 34 -25 -12 -52 -43
-170 -119 -267 -170 -51 -27 -89 -50 -85 -50 16 0 237 111 237 120 0 5 10 10
23 12 12 2 21 8 20 13 -1 6 10 11 25 12 l26 1 -24 -19 c-14 -10 -76 -44 -137
-75 -62 -31 -113 -58 -113 -60 0 -6 94 36 158 73 96 53 85 33 -18 -32 -96 -61
-120 -89 -29 -34 119 73 349 234 349 246 0 3 -7 0 -15 -7 -9 -7 -18 -10 -21
-7 -3 3 6 13 20 22 14 10 23 21 20 26 -3 5 0 8 6 7 6 -2 23 12 37 30 14 17 24
32 22 31 -2 0 -56 -38 -119 -84z m15 -10 c-19 -16 -25 -25 -15 -25 10 -1 4
-10 -15 -25 -40 -33 -58 -32 -20 1 l30 26 -33 -22 c-18 -12 -30 -25 -27 -29 2
-5 -20 -25 -50 -45 -61 -40 -86 -49 -37 -12 27 19 30 25 16 30 -9 3 -21 3 -27
0 -7 -3 -4 1 6 10 11 8 24 13 30 11 7 -3 46 20 87 50 79 57 106 71 55 30z"/>
<path d="M1334 2445 c-10 -8 -14 -15 -8 -15 6 0 17 7 24 15 16 19 9 19 -16 0z"/>
<path d="M1590 2620 c0 -6 -4 -8 -10 -5 -5 3 -10 1 -10 -4 0 -13 10 -14 29 -2
9 6 10 11 2 15 -6 4 -11 2 -11 -4z"/>
<path d="M733 2607 c15 -42 36 -148 47 -239 7 -54 15 -98 18 -98 19 0 -37 322
-61 345 -7 7 -8 4 -4 -8z"/>
<path d="M860 2562 c0 -24 44 -94 75 -120 l36 -29 -56 -17 c-38 -12 -55 -23
-55 -34 0 -10 3 -13 8 -7 4 6 32 21 62 34 81 34 88 35 60 12 -14 -11 -20 -21
-14 -21 6 0 17 7 24 15 7 8 20 14 29 13 8 -2 16 2 16 9 0 13 34 42 49 43 5 0
2 -8 -5 -17 -12 -14 -10 -14 14 1 31 21 35 28 10 19 -11 -4 -14 -3 -9 5 10 16
7 16 -52 -13 -35 -17 -61 -23 -78 -19 -32 8 -84 60 -84 85 0 10 -4 19 -10 19
-5 0 -7 7 -4 15 4 8 1 15 -5 15 -6 0 -11 -4 -11 -8z m177 -136 c0 -8 -6 -12
-15 -9 -11 5 -11 7 0 14 7 5 13 9 14 9 0 0 1 -6 1 -14z"/>
<path d="M858 2515 c-4 -6 -4 -30 -1 -54 4 -28 9 -38 14 -29 7 10 9 9 9 -3 0
-9 7 -19 15 -23 13 -4 12 -1 -2 20 -9 14 -19 42 -22 62 -4 21 -9 32 -13 27z"/>
<path d="M1108 2403 c-27 -14 -46 -28 -44 -31 5 -4 96 47 96 54 0 6 -2 5 -52
-23z"/>
<path d="M1027 2369 c7 -7 15 -10 18 -7 3 3 -2 9 -12 12 -14 6 -15 5 -6 -5z"/>
<path d="M870 2278 c-12 -22 -12 -22 6 -6 10 10 15 20 12 24 -4 3 -12 -5 -18
-18z"/>
<path d="M1865 2490 c3 -5 11 -10 16 -10 6 0 7 5 4 10 -3 6 -11 10 -16 10 -6
0 -7 -4 -4 -10z"/>
<path d="M1800 2406 c0 -10 95 -103 124 -122 24 -15 28 -16 20 -3 -10 17 -144
134 -144 125z"/>
<path d="M1630 2518 c0 -23 89 -191 106 -201 8 -4 14 -14 14 -22 0 -7 14 -23
30 -35 34 -24 41 -13 9 16 -32 28 -96 126 -130 197 -16 34 -29 54 -29 45z"/>
<path d="M1720 2403 c25 -38 37 -47 37 -28 0 8 -3 13 -7 12 -4 -1 -17 9 -30
23 l-22 25 22 -32z"/>
<path d="M905 3195 c0 -45 11 -54 13 -10 1 19 -2 36 -6 39 -4 2 -7 -11 -7 -29z"/>
<path d="M1446 3214 c-3 -8 -10 -12 -16 -9 -14 9 -13 -81 2 -122 7 -18 16 -33
21 -33 5 0 6 8 2 18 -17 40 -18 112 -1 137 9 14 12 25 7 25 -5 0 -12 -7 -15
-16z"/>
<path d="M1659 3225 c-1 -3 -2 -9 -3 -14 0 -5 -5 -13 -10 -18 -5 -5 -6 -3 -2
5 4 6 3 12 -2 12 -5 0 -32 -29 -61 -65 -40 -49 -50 -68 -43 -81 8 -14 10 -13
16 10 8 32 60 92 96 111 15 8 27 21 27 29 0 14 -15 23 -18 11z"/>
<path d="M2066 3215 c-3 -8 -1 -15 4 -15 6 0 10 7 10 15 0 8 -2 15 -4 15 -2 0
-6 -7 -10 -15z"/>
<path d="M1385 3210 c-3 -5 -1 -10 4 -10 6 0 11 5 11 10 0 6 -2 10 -4 10 -3 0
-8 -4 -11 -10z"/>
<path d="M707 3190 c3 -11 9 -20 15 -20 5 0 4 9 -2 20 -6 11 -12 20 -14 20 -2
0 -2 -9 1 -20z"/>
<path d="M2016 3188 c-15 -21 -17 -21 -11 -3 4 17 2 16 -14 -5 -24 -30 -74
-120 -67 -120 2 0 15 18 27 40 27 47 37 46 15 -2 -16 -32 -16 -32 1 -9 24 32
74 121 69 121 -2 0 -11 -10 -20 -22z m-24 -40 c-7 -7 -12 -8 -12 -2 0 14 12
26 19 19 2 -3 -1 -11 -7 -17z"/>
<path d="M1378 3178 c-6 -15 9 -95 16 -86 2 1 0 26 -3 53 -4 32 -9 44 -13 33z"/>
<path d="M2060 3180 c0 -5 5 -10 10 -10 6 0 10 5 10 10 0 6 -4 10 -10 10 -5 0
-10 -4 -10 -10z"/>
<path d="M1700 3163 c0 -6 -21 -35 -47 -64 -37 -42 -40 -48 -15 -26 19 15 37
27 42 27 11 0 34 59 26 67 -3 3 -6 2 -6 -4z"/>
<path d="M721 3138 c-1 -16 4 -28 9 -28 12 0 12 8 0 35 -8 18 -9 17 -9 -7z"/>
<path d="M895 3129 c-4 -6 -14 -8 -23 -4 -14 5 -14 3 1 -13 9 -10 17 -24 17
-30 0 -6 3 -13 8 -15 4 -3 7 12 7 34 0 42 -1 44 -10 28z"/>
<path d="M2072 3063 c-2 -56 -8 -83 -22 -104 -11 -15 -20 -33 -20 -41 1 -7 8
0 16 16 13 22 18 26 25 15 6 -10 9 -7 9 11 1 34 8 133 10 145 4 18 0 35 -7 35
-5 0 -9 -35 -11 -77z"/>
<path d="M2176 3088 c-29 -29 -32 -37 -26 -68 l7 -35 2 33 c1 36 18 75 29 69
4 -2 15 4 25 15 30 32 -2 19 -37 -14z"/>
<path d="M540 3079 c0 -5 7 -12 15 -15 9 -4 13 -13 10 -24 -3 -9 1 -23 10 -30
12 -10 15 -10 15 4 0 9 -5 16 -11 16 -5 0 -8 4 -5 9 4 5 3 16 0 24 -7 18 -34
31 -34 16z"/>
<path d="M817 3083 c-4 -6 -3 -21 1 -34 6 -16 10 -18 14 -8 7 19 -6 56 -15 42z"/>
<path d="M2244 3065 c-3 -14 -4 -40 -2 -57 4 -26 0 -36 -20 -52 -27 -21 -112
-133 -112 -147 0 -21 16 -6 33 31 20 42 37 52 37 23 0 -10 8 -27 17 -38 16
-20 16 -20 8 0 -28 77 -29 71 11 107 34 32 37 39 38 96 2 67 0 76 -10 37z"/>
<path d="M2410 3058 c-22 -36 -26 -58 -10 -58 5 0 12 11 16 25 6 24 7 25 21 8
13 -17 13 -16 4 4 -6 12 -8 29 -5 37 11 28 -5 17 -26 -16z"/>
<path d="M505 3068 c-2 -7 -13 -50 -25 -95 -21 -84 -26 -131 -8 -78 14 43 46
185 41 185 -2 0 -6 -6 -8 -12z"/>
<path d="M2463 3068 c12 -35 47 -191 44 -195 -3 -2 -12 9 -22 24 -21 34 -66
83 -76 83 -3 0 -14 -26 -23 -57 -10 -32 -19 -64 -22 -70 -2 -7 -17 -13 -34
-13 -30 0 -30 1 -30 53 0 29 5 58 12 65 9 9 9 12 0 12 -17 0 -29 -30 -30 -74
-2 -57 10 -66 82 -65 33 1 51 4 39 6 -26 5 -28 15 -12 64 6 19 13 40 15 48 6
20 49 -22 85 -84 30 -52 36 -70 19 -60 -5 3 -10 1 -10 -4 0 -6 7 -11 15 -11 8
0 17 -15 21 -37 4 -21 9 -32 11 -25 6 17 -67 335 -79 347 -8 7 -9 5 -5 -7z"/>
<path d="M936 3050 c7 -28 12 -35 18 -29 2 2 -2 15 -10 29 l-15 25 7 -25z"/>
<path d="M1025 3022 c-4 -20 -15 -59 -26 -87 -14 -38 -15 -45 -3 -30 8 11 23
46 32 77 9 32 23 58 30 58 6 0 12 -5 12 -11 0 -5 4 -7 10 -4 5 3 31 -3 56 -14
53 -24 54 -24 54 -12 0 8 -41 23 -147 56 -7 3 -15 -10 -18 -33z"/>
<path d="M1925 3052 c-27 -5 -39 -18 -26 -26 6 -4 11 -2 11 3 0 23 28 9 34
-16 12 -48 41 -113 53 -117 6 -3 2 11 -9 30 -11 19 -25 56 -32 82 -9 40 -14
47 -31 44z"/>
<path d="M903 2990 c0 -36 1 -57 4 -47 4 15 7 16 21 5 15 -12 15 -11 0 13 -9
14 -18 41 -21 60 -2 19 -4 5 -4 -31z"/>
<path d="M526 3023 c-6 -14 -5 -15 5 -6 7 7 10 15 7 18 -3 3 -9 -2 -12 -12z"/>
<path d="M817 3003 c-4 -3 -7 -25 -6 -47 l1 -41 9 44 c9 45 8 56 -4 44z"/>
<path d="M615 2990 c-24 -6 -18 -8 29 -9 33 0 57 1 55 3 -11 9 -57 12 -84 6z"/>
<path d="M2300 2990 c-20 -5 -13 -8 30 -12 30 -2 57 -3 59 -1 15 11 -57 22
-89 13z"/>
<path d="M538 2953 c-20 -21 -43 -53 -52 -71 -9 -18 -20 -31 -25 -28 -4 3 -12
-17 -17 -45 -6 -27 -7 -49 -2 -49 4 0 8 6 8 14 0 12 26 26 55 30 6 1 16 5 24
10 7 5 45 11 83 14 38 3 71 8 74 13 9 15 11 84 3 107 -5 12 -14 22 -21 22 -9
0 -9 -3 0 -12 7 -7 12 -36 12 -65 l0 -53 -57 -2 c-32 -1 -66 -2 -75 -1 -10 0
-18 -4 -18 -9 0 -4 -8 -8 -18 -8 -10 0 -23 -5 -30 -12 -24 -24 -23 2 3 50 45
83 95 124 95 77 0 -8 5 -17 11 -21 8 -4 9 1 4 17 -4 13 -11 25 -16 27 -4 2 -5
10 -2 18 8 22 0 17 -39 -23z"/>
<path d="M2162 2950 c0 -19 2 -27 5 -17 2 9 2 25 0 35 -3 9 -5 1 -5 -18z"/>
<path d="M1106 2957 c3 -10 9 -15 12 -12 3 3 0 11 -7 18 -10 9 -11 8 -5 -6z"/>
<path d="M1730 2941 c0 -6 4 -13 10 -16 6 -3 7 1 4 9 -7 18 -14 21 -14 7z"/>
<path d="M1546 2857 c-4 -49 -6 -91 -3 -93 7 -7 20 138 15 162 -2 10 -8 -21
-12 -69z"/>
<path d="M2082 2905 c0 -16 3 -39 8 -50 9 -20 9 -20 8 0 0 11 -4 34 -8 50 l-8
30 0 -30z"/>
<path d="M1787 2878 c15 -45 14 -49 -11 -104 -33 -72 -33 -75 5 -36 45 46 52
116 16 158 l-26 29 16 -47z"/>
<path d="M592 2880 c0 -14 2 -19 5 -12 2 6 2 18 0 25 -3 6 -5 1 -5 -13z"/>
<path d="M882 2860 c0 -14 2 -19 5 -12 2 6 2 18 0 25 -3 6 -5 1 -5 -13z"/>
<path d="M1296 2851 c-9 -16 -15 -51 -15 -78 l2 -48 7 57 c4 32 13 65 20 73 7
9 10 18 7 21 -3 3 -13 -8 -21 -25z"/>
<path d="M2000 2868 c0 -21 20 -68 37 -86 7 -7 13 -19 13 -27 0 -25 25 -23 27
3 1 17 -2 21 -7 12 -6 -9 -18 7 -39 51 -17 35 -31 56 -31 47z"/>
<path d="M953 2823 c-13 -24 -18 -41 -13 -38 13 8 42 64 38 74 -2 4 -13 -12
-25 -36z"/>
<path d="M710 2856 c0 -2 7 -6 15 -10 8 -3 15 -1 15 4 0 6 -7 10 -15 10 -8 0
-15 -2 -15 -4z"/>
<path d="M1912 2835 c-6 -14 -8 -25 -3 -25 8 0 23 41 17 47 -1 2 -8 -8 -14
-22z"/>
<path d="M815 2820 c10 -11 20 -20 22 -20 2 0 -1 9 -7 20 -6 11 -16 20 -22 20
-6 0 -3 -9 7 -20z"/>
<path d="M1251 2789 c-6 -29 -9 -68 -5 -88 4 -28 3 -33 -6 -21 -8 10 -10 11
-8 2 2 -8 7 -13 12 -12 5 1 12 -3 15 -8 3 -6 6 32 6 84 0 52 -1 94 -2 94 -1 0
-6 -23 -12 -51z"/>
<path d="M2150 2818 c-12 -22 -12 -22 6 -6 10 10 15 20 12 24 -4 3 -12 -5 -18
-18z"/>
<path d="M2455 2816 c17 -8 32 -12 34 -10 7 7 -3 12 -34 18 l-30 6 30 -14z"/>
<path d="M2200 2786 c-25 -18 -64 -54 -87 -79 -52 -56 -102 -152 -87 -167 7
-7 14 5 22 37 7 27 22 59 32 73 19 25 19 24 0 -30 -16 -46 -16 -51 -2 -31 9
13 23 45 32 70 13 38 23 49 64 70 27 14 64 25 82 25 65 0 141 -90 164 -195 l9
-44 -4 48 c-8 87 -84 186 -154 202 -15 3 -47 -1 -71 -10 -49 -17 -47 -13 19
34 24 17 40 31 35 31 -5 0 -29 -15 -54 -34z"/>
<path d="M2445 2790 c10 -11 20 -20 23 -20 3 0 -3 9 -13 20 -10 11 -20 20 -23
20 -3 0 3 -9 13 -20z"/>
<path d="M470 2751 c-18 -28 -36 -48 -40 -46 -21 13 -16 -341 6 -398 5 -14 1
-14 -42 -1 -68 20 -180 18 -257 -6 -81 -25 -103 -46 -50 -48 93 -4 203 -53
331 -149 41 -30 76 -52 79 -49 4 3 1 6 -5 6 -6 0 -9 9 -7 20 4 19 -2 21 -40
20 -3 0 -29 17 -58 38 -28 22 -67 46 -84 56 -18 9 -33 21 -33 27 0 6 -4 7 -10
4 -6 -3 -10 -1 -10 5 0 6 -4 9 -8 6 -5 -3 -30 1 -57 9 -26 8 -61 15 -77 15
-17 0 -27 4 -23 10 3 6 25 8 48 5 32 -3 35 -3 12 3 -28 7 -25 9 32 21 63 14
188 11 213 -4 9 -6 9 -10 -1 -17 -10 -7 -5 -8 15 -5 36 6 66 -7 131 -55 59
-43 86 -73 77 -84 -4 -4 -2 -4 5 0 6 3 11 15 10 26 -1 10 -3 18 -5 16 -2 -2
-32 18 -67 44 -35 27 -73 51 -84 55 -12 3 -21 9 -21 13 -1 4 -6 50 -13 102 -7
52 -9 120 -6 150 3 30 6 51 7 46 1 -5 8 -3 16 3 8 6 33 18 57 25 33 11 38 14
19 15 -14 0 -40 -8 -58 -19 -28 -17 -33 -18 -38 -5 -9 24 6 86 27 114 12 14
32 26 51 28 17 2 34 6 37 9 3 4 -9 5 -26 2 -35 -5 -40 1 -21 20 6 6 9 14 6 17
-3 4 -20 -16 -38 -44z"/>
<path d="M1362 2775 c0 -16 2 -22 5 -12 2 9 2 23 0 30 -3 6 -5 -1 -5 -18z"/>
<path d="M2101 2750 c-10 -22 -15 -42 -10 -46 5 -3 9 2 9 10 0 8 6 21 13 28
12 13 22 48 13 48 -3 0 -14 -18 -25 -40z"/>
<path d="M588 2763 c18 -2 30 -8 27 -14 -3 -5 1 -6 10 -2 24 9 -2 23 -40 21
l-30 -1 33 -4z"/>
<path d="M2378 2763 c12 -2 30 -2 40 0 9 3 -1 5 -23 4 -22 0 -30 -2 -17 -4z"/>
<path d="M2514 2727 c30 -55 43 -121 27 -131 -6 -4 -10 -24 -10 -44 l2 -37 7
40 7 40 2 -52 c0 -29 6 -53 11 -53 16 0 0 200 -17 219 -8 9 -23 27 -34 41 -15
19 -14 13 5 -23z"/>
<path d="M2460 2747 c27 -15 36 -14 25 2 -3 6 -16 11 -28 11 -21 0 -21 -1 3
-13z"/>
<path d="M431 2734 c0 -11 3 -14 6 -6 3 7 2 16 -1 19 -3 4 -6 -2 -5 -13z"/>
<path d="M715 2724 c16 -8 38 -23 47 -31 11 -10 18 -12 18 -4 0 13 -58 51 -80
51 -8 0 -2 -7 15 -16z"/>
<path d="M2234 2721 c-52 -31 -49 -42 3 -14 59 32 60 33 42 33 -8 0 -28 -9
-45 -19z"/>
<path d="M1331 2704 c0 -11 3 -14 6 -6 3 7 2 16 -1 19 -3 4 -6 -2 -5 -13z"/>
<path d="M910 2690 c0 -5 5 -10 11 -10 5 0 7 5 4 10 -3 6 -8 10 -11 10 -2 0
-4 -4 -4 -10z"/>
<path d="M805 2680 c3 -5 8 -10 11 -10 2 0 4 5 4 10 0 6 -5 10 -11 10 -5 0 -7
-4 -4 -10z"/>
<path d="M2045 2680 c-3 -6 1 -7 9 -4 18 7 21 14 7 14 -6 0 -13 -4 -16 -10z"/>
<path d="M578 2642 c-9 -15 -21 -54 -27 -86 -6 -33 -12 -62 -12 -65 -1 -3 -5
8 -9 24 l-8 30 -1 -28 c-1 -22 -5 -27 -18 -23 -10 3 -29 -2 -43 -10 l-25 -15
25 5 c14 3 39 6 56 6 31 0 32 2 43 61 5 33 17 74 26 91 19 39 14 46 -7 10z"/>
<path d="M2469 2614 c25 -8 47 -12 49 -9 7 7 -47 25 -71 24 -14 -1 -5 -6 22
-15z"/>
<path d="M2310 2598 c0 -3 7 -21 15 -39 10 -24 14 -28 14 -14 0 11 -6 29 -14
39 -8 11 -15 17 -15 14z"/>
<path d="M2451 2510 c-1 -20 -3 -22 -12 -10 -8 12 -10 12 -7 -5 3 -16 10 -19
39 -17 24 2 42 -2 53 -13 15 -15 16 -15 16 4 0 13 -5 19 -14 15 -8 -3 -17 0
-21 6 -4 6 -15 8 -25 5 -14 -4 -20 0 -23 17 -4 22 -4 22 -6 -2z"/>
<path d="M2550 2449 c0 -16 -5 -61 -11 -98 -11 -65 -13 -68 -54 -90 -63 -33
-140 -105 -130 -120 5 -10 13 -5 27 17 26 42 110 97 192 127 77 28 158 31 241
10 l50 -13 -90 -2 c-49 -1 -101 -6 -115 -11 -21 -7 -20 -8 10 -4 57 7 209 10
215 4 5 -5 -101 -30 -137 -32 -10 -1 -18 -5 -18 -10 0 -4 -4 -6 -9 -3 -5 3
-11 -1 -15 -9 -3 -8 -10 -15 -17 -15 -6 0 -24 -9 -40 -20 -23 -17 -32 -19 -49
-10 -20 10 -21 10 -11 -8 9 -17 6 -23 -17 -38 -15 -10 -29 -17 -32 -17 -13 2
-40 -19 -35 -28 4 -5 -4 -13 -17 -18 -13 -6 -17 -10 -9 -10 8 -1 46 23 85 53
124 94 236 144 329 148 21 1 37 5 37 9 0 4 -26 18 -57 30 -77 29 -211 37 -282
16 -41 -12 -51 -12 -48 -2 3 7 8 34 12 61 3 27 8 64 11 82 3 19 1 32 -6 32 -5
0 -10 -14 -10 -31z"/>
<path d="M1526 2375 c-36 -55 -303 -305 -326 -305 -4 0 -6 10 -2 22 l5 22 -31
-23 c-30 -21 -49 -41 -38 -41 2 0 12 8 22 17 11 12 19 14 21 6 3 -7 23 -9 61
-6 52 5 61 3 90 -22 18 -15 30 -31 26 -36 -3 -5 0 -9 5 -9 40 0 -24 85 -71 94
l-32 6 23 16 c15 11 34 14 58 11 39 -7 67 4 77 28 4 11 2 14 -6 9 -8 -5 -9 -1
-4 12 5 14 4 16 -4 8 -6 -6 -12 -19 -14 -28 -1 -9 -5 -16 -9 -16 -4 0 -22 0
-39 0 -24 0 -29 3 -18 9 8 6 18 7 22 5 5 -3 7 0 6 7 -2 7 3 13 10 14 7 0 27
18 45 40 17 23 45 54 60 70 l28 30 -7 -30 c-14 -60 -73 -177 -85 -169 -9 5
-10 2 -6 -10 4 -10 2 -27 -4 -38 -6 -11 -8 -22 -6 -24 3 -3 29 42 58 99 47 93
55 103 67 89 12 -15 12 -15 4 3 -12 25 -12 75 -1 75 5 0 6 7 3 15 -4 8 -2 15
3 15 10 0 36 50 30 57 -2 2 -12 -8 -21 -22z"/>
<path d="M465 2369 c-16 -8 -15 -8 8 -4 15 3 36 1 47 -5 11 -6 20 -7 20 -2 0
6 -10 12 -22 16 -28 7 -28 7 -53 -5z"/>
<path d="M630 2350 c0 -30 -13 -40 -25 -20 -4 6 -11 8 -16 5 -5 -4 -9 4 -9 16
0 30 -6 22 -14 -20 -5 -28 -4 -32 9 -21 18 15 31 7 56 -34 17 -27 19 -28 19
-9 0 12 -4 24 -9 27 -5 3 -7 24 -4 46 3 22 3 40 -1 40 -3 0 -6 -13 -6 -30z"/>
<path d="M1625 2343 c24 -57 45 -84 57 -77 7 5 9 2 5 -9 -4 -10 -2 -16 6 -14
7 1 12 -5 12 -13 0 -17 -70 -32 -131 -28 l-41 3 14 -35 c8 -19 18 -39 23 -43
4 -5 0 -23 -8 -40 -15 -30 -29 -87 -18 -77 6 6 37 92 38 105 1 6 22 12 47 13
33 1 42 -1 31 -8 -24 -15 2 -11 30 5 33 19 41 18 33 -2 -4 -11 -3 -14 5 -9 7
4 12 14 12 22 0 11 -11 13 -55 8 -50 -6 -58 -4 -81 17 l-26 24 74 10 c72 10
73 10 101 -16 24 -23 26 -30 17 -54 -7 -19 -16 -26 -33 -24 -12 1 -30 -2 -40
-6 -10 -4 -20 -5 -24 -2 -7 8 -50 -45 -63 -78 -9 -24 -8 -26 7 -19 10 5 42 9
70 9 29 1 56 4 59 8 4 4 20 7 36 7 15 0 37 9 48 20 11 11 33 20 49 20 l29 0 4
-247 3 -248 33 -63 c26 -50 30 -67 22 -83 -7 -13 -8 -25 -1 -37 9 -15 10 -13
11 9 0 41 9 40 54 -5 l41 -43 -1 -106 c0 -59 -2 -109 -5 -111 -2 -3 -20 27
-40 65 -20 38 -32 69 -28 69 5 0 9 10 9 23 0 16 -3 18 -9 8 -8 -13 -14 -2 -55
114 -8 22 -15 32 -15 23 -1 -10 8 -41 19 -70 13 -36 16 -54 9 -59 -8 -5 -8 -8
0 -13 6 -4 11 -1 11 6 0 8 5 6 11 -5 6 -10 8 -21 5 -24 -6 -7 109 -228 173
-333 28 -45 75 -113 104 -153 65 -87 117 -168 153 -239 15 -29 66 -116 114
-193 106 -170 118 -193 144 -272 12 -35 26 -62 31 -60 6 1 9 9 7 17 -1 8 -4
27 -6 42 -4 25 -52 115 -119 221 -16 26 -28 50 -25 52 4 4 181 -106 201 -125
13 -11 17 -60 10 -105 -4 -29 -8 -35 -12 -21 -5 13 -11 3 -23 -38 -8 -31 -12
-56 -8 -56 4 0 11 16 14 35 9 48 28 45 21 -2 -4 -28 -3 -33 4 -18 5 11 11 34
12 50 2 24 3 21 9 -15 5 -35 7 -24 7 48 1 51 6 99 11 105 15 19 22 47 12 47
-5 0 -10 -8 -12 -19 -3 -16 -21 -7 -123 60 -144 94 -185 126 -181 142 1 7 1 9
-1 5 -3 -4 -20 15 -39 43 -30 46 -32 52 -20 72 8 12 25 56 37 97 20 67 21 83
12 155 -5 44 -18 98 -27 119 l-17 40 -47 -47 c-27 -26 -61 -70 -78 -97 -16
-27 -33 -50 -37 -50 -11 0 -53 73 -49 85 10 28 16 183 8 178 -5 -3 -7 6 -4 21
3 14 1 29 -4 32 -4 3 -6 9 -3 14 3 5 1 20 -5 34 -5 14 -7 26 -4 26 3 0 10 -13
15 -30 6 -16 15 -30 20 -30 16 0 10 15 -26 66 -19 27 -35 55 -35 63 0 8 -3 12
-6 8 -3 -3 1 -27 10 -54 23 -70 31 -182 16 -227 -6 -21 -10 -40 -7 -43 3 -3
10 10 16 28 11 40 14 13 4 -44 l-6 -39 -22 28 c-18 23 -21 34 -14 59 20 70 -7
274 -46 342 -10 18 -14 21 -11 8 3 -11 10 -40 17 -65 14 -57 16 -227 3 -240
-14 -14 -89 116 -76 133 5 6 10 50 11 96 1 47 6 93 11 102 7 12 5 21 -5 29 -9
7 -15 22 -14 34 1 11 1 30 0 41 -1 16 -3 17 -11 5 -7 -12 -12 -7 -25 23 -9 21
-13 48 -9 59 4 14 2 18 -5 14 -6 -4 -15 3 -20 16 -15 37 -51 162 -51 176 0 7
-4 12 -9 12 -17 0 47 -208 93 -298 34 -67 33 -72 -9 -31 -22 21 -33 40 -29 51
2 9 0 19 -5 23 -7 4 -8 -1 -5 -12 13 -40 -36 34 -51 76 -21 63 -18 76 5 17 11
-27 25 -54 31 -60 14 -12 14 -14 -27 84 -26 62 -28 75 -32 268 -3 136 -1 202
6 202 6 0 18 3 27 6 15 6 16 -2 13 -75 -3 -82 2 -97 22 -61 6 11 18 20 27 20
11 0 13 4 6 13 -6 6 -13 32 -17 56 -4 24 -17 57 -30 72 -15 18 -22 36 -19 48
5 19 7 19 29 4 13 -8 24 -12 24 -7 0 4 14 -5 30 -21 17 -16 30 -38 30 -49 0
-12 7 -42 14 -68 22 -70 11 -209 -20 -271 -13 -27 -30 -58 -38 -69 -14 -20
-14 -20 -21 2 -4 12 -9 19 -12 17 -2 -3 6 -28 18 -56 12 -29 24 -50 26 -48 2
3 -1 16 -8 30 -10 22 -7 31 24 79 44 66 57 113 57 206 0 71 -27 203 -42 210
-5 2 -8 8 -8 13 0 6 5 7 10 4 6 -3 1 10 -11 29 -12 20 -16 36 -11 36 6 0 14
-9 17 -20 3 -11 11 -20 16 -20 6 0 6 8 -1 20 -8 14 -8 20 0 20 6 0 15 -12 20
-26 12 -32 12 -37 1 -29 -10 6 -3 -26 19 -80 6 -16 12 -85 12 -155 l1 -125 7
95 c4 52 6 117 4 145 -4 61 4 95 17 74 5 -8 9 -28 9 -45 0 -16 23 -85 50 -152
47 -114 65 -202 41 -202 -5 0 -12 -17 -16 -37 -5 -28 -9 -33 -17 -22 -8 11 -9
11 -5 -2 3 -10 11 -35 18 -58 7 -23 16 -41 21 -41 5 0 6 -4 3 -10 -3 -5 -2
-10 3 -10 10 0 71 -109 77 -137 2 -10 8 -29 14 -43 l10 -25 0 25 c1 23 -27 84
-103 224 -27 50 -34 78 -16 60 25 -25 129 -249 136 -291 4 -27 14 -53 23 -60
14 -10 14 -14 2 -25 -8 -8 -11 -8 -7 -1 3 6 2 14 -4 18 -5 3 -10 -1 -10 -10 0
-19 78 -105 92 -102 6 1 13 -4 16 -12 3 -9 0 -11 -8 -6 -9 5 -11 4 -6 -4 4 -6
11 -9 16 -6 5 3 14 -4 21 -17 6 -12 27 -38 47 -57 93 -96 94 -232 3 -335 -26
-30 -26 -30 -2 -15 41 26 80 115 81 184 1 56 2 59 16 40 8 -11 24 -30 34 -42
11 -13 16 -23 11 -23 -5 0 3 -24 17 -52 32 -64 31 -62 37 -56 3 2 -6 26 -19
52 -14 27 -22 54 -20 60 2 6 -17 36 -44 66 -26 30 -56 68 -66 84 -10 16 -35
48 -56 70 -66 72 -149 203 -160 251 -10 46 -96 227 -130 275 -16 23 -17 29 -4
59 20 47 17 112 -6 171 -11 28 -18 55 -15 60 3 5 0 12 -6 16 -27 16 -58 113
-63 196 -2 49 -1 75 4 63 5 -11 9 -14 9 -7 1 10 8 9 34 -1 83 -36 125 -60 160
-93 20 -19 37 -31 37 -26 0 32 -133 112 -248 151 -68 23 -262 31 -262 11 0 -6
8 -10 18 -8 13 2 16 -3 14 -25 -2 -16 4 -40 13 -53 15 -23 15 -24 -9 -24 -15
0 -26 7 -29 18 -4 16 -5 16 -6 0 0 -10 -7 -18 -15 -18 -9 0 -12 7 -9 18 3 14
-6 23 -37 37 -46 21 -147 123 -173 175 -12 26 -17 30 -17 15 -1 -13 -8 -5 -20
23 -24 52 -36 56 -15 5z m53 -68 c-3 -3 -9 2 -12 12 -6 14 -5 15 5 6 7 -7 10
-15 7 -18z m-88 -115 c15 -16 24 -30 20 -30 -5 0 -12 5 -16 11 -5 8 -9 8 -14
-1 -5 -8 -11 -1 -18 19 -14 39 -8 39 28 1z m402 3 c21 -19 24 -35 5 -27 -14 5
-41 44 -30 44 3 0 15 -7 25 -17z m51 -18 c16 -33 16 -34 -1 -24 -24 15 -45 59
-28 59 7 0 20 -16 29 -35z m118 -6 c4 -13 7 -33 7 -44 0 -16 -2 -15 -8 5 -7
22 -8 22 -9 4 -2 -40 -14 -33 -32 19 -10 28 -18 53 -19 54 0 1 12 -2 27 -6 17
-5 30 -17 34 -32z m-356 -7 c18 -13 11 -37 -12 -40 -26 -4 -31 15 -7 25 13 5
13 7 2 14 -7 5 -8 9 -3 9 6 0 15 -4 20 -8z m69 -30 c5 -3 1 -9 -10 -13 -28
-11 -44 -10 -44 2 0 6 7 8 16 5 14 -5 15 -4 4 9 -11 13 -10 14 6 9 10 -4 23
-9 28 -12z m243 -24 c-3 -8 -6 -5 -6 6 -1 11 2 17 5 13 3 -3 4 -12 1 -19z
m-302 -17 c19 -8 18 -10 -9 -22 -25 -12 -30 -12 -34 0 -3 9 -7 10 -11 2 -4 -6
-30 -12 -58 -15 -28 -2 -56 -7 -63 -11 -26 -16 -19 4 10 29 26 22 41 26 88 25
31 0 66 -4 77 -8z m184 -88 c0 -18 -2 -33 -7 -33 -4 0 -8 28 -9 63 -1 47 1 55
7 32 4 -16 8 -45 9 -62z m455 -794 c15 -22 25 -43 22 -46 -3 -3 -14 9 -24 27
-11 17 -22 31 -26 31 -3 -1 -6 1 -6 4 0 3 0 10 0 15 0 17 6 11 34 -31z m-269
-199 c-6 -43 -9 -50 -17 -36 -7 12 -6 32 1 61 6 24 12 56 13 72 1 24 2 23 5
-7 3 -19 2 -60 -2 -90z m276 -85 c5 -15 11 -58 15 -94 3 -36 7 -68 7 -71 4
-20 -16 -99 -24 -95 -5 4 -9 -6 -9 -22 0 -44 -13 -56 -33 -33 -9 11 -17 24
-17 29 0 5 -11 23 -25 39 -13 16 -22 31 -20 34 3 2 -8 20 -24 39 -26 30 -28
36 -14 51 8 9 16 24 17 34 3 22 97 125 110 121 5 -2 13 -16 17 -32z"/>
<path d="M2458 2373 c-10 -2 -18 -9 -18 -14 0 -6 7 -6 18 -1 9 5 24 12 32 15
13 5 13 5 0 5 -8 0 -23 -2 -32 -5z"/>
<path d="M2401 2354 c0 -11 3 -14 6 -6 3 7 2 16 -1 19 -3 4 -6 -2 -5 -13z"/>
<path d="M2350 2308 c-11 -12 -20 -29 -20 -37 0 -10 11 -4 29 18 32 39 50 35
52 -12 l2 -32 6 35 c10 53 -30 69 -69 28z"/>
<path d="M542 2300 c0 -14 2 -19 5 -12 2 6 2 18 0 25 -3 6 -5 1 -5 -13z"/>
<path d="M1414 2288 l-29 -33 33 29 c30 28 37 36 29 36 -2 0 -16 -15 -33 -32z"/>
<path d="M195 2279 c-14 -5 -1 -8 39 -8 33 -1 57 1 55 3 -10 9 -76 13 -94 5z"/>
<path d="M320 2261 c30 -9 90 -39 109 -54 10 -9 5 -15 -25 -27 -32 -14 -35
-17 -19 -24 11 -4 16 -4 12 1 -4 4 10 14 33 23 l40 16 -69 37 c-37 20 -77 37
-87 36 -14 0 -12 -3 6 -8z"/>
<path d="M1525 2259 c-4 -6 -5 -12 -2 -15 2 -3 7 2 10 11 7 17 1 20 -8 4z"/>
<path d="M2340 2240 c-6 -11 -8 -20 -6 -20 3 0 10 9 16 20 6 11 8 20 6 20 -3
0 -10 -9 -16 -20z"/>
<path d="M2569 2228 c-31 -17 -62 -40 -68 -50 -7 -11 17 0 56 27 98 67 101 73
12 23z"/>
<path d="M2690 2256 c0 -2 7 -7 16 -10 8 -3 12 -2 9 4 -6 10 -25 14 -25 6z"/>
<path d="M1085 2210 c3 -5 8 -10 11 -10 2 0 4 5 4 10 0 6 -5 10 -11 10 -5 0
-7 -4 -4 -10z"/>
<path d="M997 2203 c-21 -3 -29 -11 -34 -34 -3 -16 -9 -32 -14 -34 -4 -3 -6
-17 -3 -31 3 -15 1 -23 -5 -20 -5 4 -12 -7 -16 -24 -4 -18 -11 -27 -17 -24 -7
5 -8 2 -3 -7 5 -7 8 -81 6 -164 -2 -126 1 -153 14 -170 9 -11 13 -14 9 -6 -5
11 -6 106 -3 270 1 22 3 21 30 -12 26 -32 86 -77 103 -77 3 0 5 24 4 53 l-2
52 -3 -48 c-2 -26 -7 -46 -11 -43 -14 8 -1 96 14 96 17 0 19 26 2 36 -8 5 -9
2 -5 -9 5 -13 1 -17 -16 -18 -12 0 -39 -2 -59 -4 -21 -2 -40 1 -44 7 -4 7 -9
6 -15 -3 -6 -10 -9 -6 -9 13 0 15 5 30 12 34 7 4 8 3 4 -5 -8 -13 10 -41 26
-41 6 0 5 7 -2 15 -10 12 -9 16 3 21 9 3 22 3 29 -1 7 -4 4 1 -7 10 -12 9 -21
11 -23 5 -2 -5 -8 -8 -12 -5 -11 7 9 55 22 55 5 0 6 9 3 21 -4 11 -2 33 5 49
11 26 14 27 48 19 20 -5 48 -8 62 -8 23 0 23 1 5 9 -11 5 -33 9 -50 9 -23 1
-27 4 -15 11 8 5 11 9 5 8 -5 0 -23 -3 -38 -5z m21 -229 c17 -5 22 -14 22 -40
0 -41 -17 -45 -26 -6 -10 45 -12 48 -13 17 l-1 -29 -22 22 c-20 19 -21 24 -8
32 18 11 18 11 48 4z"/>
<path d="M1448 2117 c-44 -85 -118 -188 -104 -143 4 12 -10 3 -36 -23 -24 -22
-48 -41 -55 -41 -7 0 -13 -4 -13 -10 0 -17 11 -12 58 27 37 30 42 32 28 11 -9
-14 -32 -33 -51 -44 -19 -10 -35 -24 -35 -31 0 -7 12 -1 26 12 14 13 34 27 43
30 9 3 32 26 51 51 76 99 67 93 78 54 l10 -35 1 32 c1 17 -4 33 -9 35 -6 2 6
36 25 76 20 40 35 77 33 82 -2 5 -24 -32 -50 -83z"/>
<path d="M851 2179 c-81 -18 -218 -81 -251 -116 -9 -9 1 -7 23 6 46 28 155 81
165 81 15 0 18 -66 7 -142 -6 -34 -4 -54 7 -70 9 -15 15 -56 17 -113 2 -49 5
-92 8 -95 4 -4 -1 171 -8 265 0 6 5 46 12 91 l13 81 50 2 c54 2 65 7 50 20 -5
5 -46 0 -93 -10z m-22 -36 c0 -10 -4 -27 -8 -38 -7 -18 -8 -17 -13 6 -2 13 -3
30 0 37 6 18 22 14 21 -5z"/>
<path d="M1220 2184 c-23 -13 -24 -14 -4 -14 12 0 27 7 34 15 15 18 4 18 -30
-1z"/>
<path d="M2550 2180 c0 -5 5 -10 11 -10 5 0 7 5 4 10 -3 6 -8 10 -11 10 -2 0
-4 -4 -4 -10z"/>
<path d="M990 2163 c0 -7 4 -13 9 -13 5 0 16 -17 24 -37 12 -29 16 -32 16 -16
1 12 -10 35 -24 50 -13 15 -25 22 -25 16z"/>
<path d="M1114 2157 c-3 -9 -11 -14 -18 -11 -7 3 -23 0 -37 -5 -16 -6 -18 -10
-7 -10 9 -1 19 -7 21 -13 3 -8 6 -6 6 5 1 9 6 17 12 17 7 0 9 -11 6 -30 -4
-16 -2 -30 3 -30 14 0 25 23 21 48 -2 19 2 22 31 21 l33 -1 -27 -11 c-29 -11
-37 -27 -15 -27 6 -1 1 -10 -12 -20 -15 -13 -38 -20 -66 -20 -38 0 -44 -3 -49
-26 -4 -15 -4 -29 -1 -32 3 -3 8 4 12 16 3 12 11 22 18 22 8 0 22 3 32 6 16 6
16 5 -2 -10 -31 -27 5 -6 48 27 20 16 35 33 32 38 -3 4 5 11 19 15 26 6 44 34
22 34 -7 0 -27 3 -45 6 -23 5 -32 2 -37 -9z"/>
<path d="M1670 2160 c-8 -5 -10 -10 -5 -10 6 0 17 5 25 10 8 5 11 10 5 10 -5
0 -17 -5 -25 -10z"/>
<path d="M858 2060 c-13 -77 -15 -116 -8 -145 5 -22 7 -75 3 -117 -6 -76 7
-138 28 -138 5 0 3 13 -6 30 -12 23 -14 48 -9 112 4 50 2 99 -5 123 -8 31 -7
52 5 98 8 32 14 78 12 100 -2 33 -7 20 -20 -63z"/>
<path d="M517 2106 c-17 -13 -17 -14 1 -18 12 -4 18 1 18 13 0 11 0 19 -1 19
0 0 -8 -7 -18 -14z"/>
<path d="M1051 2104 c0 -11 3 -14 6 -6 3 7 2 16 -1 19 -3 4 -6 -2 -5 -13z"/>
<path d="M2452 2104 c10 -10 20 -16 22 -13 3 3 -5 11 -17 18 -21 13 -21 12 -5
-5z"/>
<path d="M554 2028 l-19 -23 23 19 c21 18 27 26 19 26 -2 0 -12 -10 -23 -22z"/>
<path d="M1134 2023 l-40 -22 0 -76 c1 -55 -2 -75 -12 -75 -20 0 -84 35 -114
63 -16 15 -28 22 -28 17 0 -5 15 -21 34 -37 57 -48 59 -59 36 -186 -22 -113
-49 -207 -61 -207 -4 0 -10 8 -14 18 -3 9 -32 60 -63 112 l-56 95 -12 -115
c-6 -63 -17 -135 -23 -159 -7 -23 -10 -45 -8 -48 14 -13 46 159 47 247 0 32 3
41 11 33 6 -6 12 -23 12 -37 0 -14 3 -24 8 -23 5 1 22 -20 38 -46 27 -47 28
-50 15 -105 -16 -68 -17 -75 -5 -67 5 3 13 30 16 60 7 54 7 54 25 32 l19 -22
15 37 c22 51 41 127 57 226 10 68 11 87 0 104 -12 19 -11 20 6 13 10 -4 28
-10 41 -12 22 -5 31 -23 12 -23 -5 0 -10 -16 -10 -36 0 -19 -5 -54 -11 -78 -6
-24 -9 -56 -7 -72 4 -23 6 -18 12 24 5 28 12 52 17 52 5 0 9 -4 9 -10 0 -5 28
-47 61 -92 78 -105 102 -157 102 -226 0 -33 3 -48 8 -40 5 7 9 24 9 37 0 24 0
24 21 5 11 -10 16 -20 10 -22 -6 -2 -11 -14 -11 -26 0 -27 -36 -202 -54 -266
-7 -25 -11 -50 -9 -57 2 -6 -1 -30 -7 -53 l-11 -41 -39 78 c-59 117 -141 192
-196 179 -13 -4 -24 -11 -24 -17 0 -6 7 -6 20 1 27 15 86 -16 127 -67 45 -57
103 -170 103 -201 0 -27 -13 -77 -76 -295 -19 -64 -34 -125 -34 -135 0 -9 -9
-41 -20 -71 -12 -29 -18 -56 -16 -59 3 -3 2 -10 -3 -16 -5 -6 -14 -36 -21 -66
-6 -30 -25 -97 -41 -148 -34 -108 -33 -99 -14 -99 10 0 13 8 10 26 -3 14 -2
20 1 12 6 -13 51 146 121 426 14 56 29 100 33 98 4 -2 5 8 3 23 -4 27 -4 27
10 -4 8 -17 17 -41 21 -55 l7 -24 -15 25 c-20 32 -20 22 -1 -24 12 -29 61
-197 64 -221 1 -3 2 -8 2 -12 1 -5 0 -16 -1 -27 -1 -10 4 -22 10 -26 7 -4 15
-52 19 -116 6 -92 8 -103 15 -71 17 79 -61 468 -113 566 -10 17 -9 37 5 92 11
47 20 66 25 57 6 -8 7 1 4 22 -5 35 -5 35 16 -10 12 -25 21 -51 20 -57 -1 -7
3 -13 9 -13 6 0 9 4 6 9 -4 5 17 26 45 47 l52 38 -24 19 c-67 54 -100 90 -97
105 2 12 21 0 69 -46 64 -59 69 -62 118 -62 50 0 51 1 51 30 0 17 5 30 13 31
6 0 -2 7 -19 14 -23 10 -37 29 -59 77 -28 64 -88 169 -112 199 -16 19 -7 72
11 66 6 -2 43 -67 81 -144 74 -150 89 -173 111 -173 8 0 47 67 92 157 42 86
82 158 88 160 6 2 14 -6 17 -19 5 -17 -8 -48 -46 -113 -29 -49 -65 -115 -79
-147 -15 -31 -35 -59 -45 -62 -15 -5 -18 -14 -15 -41 4 -35 4 -35 54 -35 48 0
54 3 117 62 48 46 67 58 69 46 3 -15 -30 -51 -96 -104 l-23 -19 50 -38 c32
-25 48 -43 44 -53 -6 -16 -1 -18 -75 31 -16 9 -28 15 -28 11 0 -3 19 -18 43
-33 23 -15 44 -28 46 -30 2 -1 -5 -25 -15 -53 -26 -73 -42 -63 -71 44 -13 50
-25 91 -27 93 -10 10 -177 9 -207 -1 -40 -14 -150 -86 -131 -86 7 0 11 -3 9
-7 -3 -5 11 -44 30 -88 20 -48 32 -67 29 -47 -4 23 -2 32 8 32 8 0 16 16 20
40 3 23 11 38 16 35 6 -4 7 6 4 23 -3 16 -1 39 5 51 7 13 8 21 2 21 -5 0 -18
-36 -28 -80 -23 -105 -39 -106 -69 -5 -9 28 -6 31 40 63 28 19 58 31 68 29 10
-3 18 -1 18 4 0 5 36 9 80 9 50 0 80 -4 80 -11 0 -5 4 -8 9 -4 14 8 33 -67 21
-79 -6 -6 -10 -17 -9 -26 0 -10 3 -9 8 5 7 17 10 14 20 -18 7 -21 11 -44 8
-51 -4 -9 2 -11 20 -8 14 3 24 1 20 -4 -3 -5 -10 -28 -17 -52 -9 -37 -13 -42
-26 -31 -21 17 -31 4 -59 -78 -24 -72 -45 -194 -45 -262 0 -47 -20 -67 -50
-51 -11 6 -18 16 -14 22 20 31 -12 228 -51 322 -24 57 -29 37 -5 -23 21 -53
50 -210 50 -269 0 -28 -2 -31 -17 -23 -49 29 -53 37 -59 117 -3 44 -10 110
-16 147 -7 50 -7 72 1 80 16 16 14 32 -2 18 -8 -6 -17 -7 -22 -3 -4 4 -5 -6
-2 -23 11 -55 17 -110 11 -95 -68 158 -152 325 -160 317 -3 -2 11 -41 30 -85
60 -140 104 -325 122 -517 7 -68 7 -69 17 -33 l9 37 45 -34 c25 -19 53 -35 61
-35 8 0 -10 18 -41 41 -38 27 -57 47 -58 62 -1 16 -3 14 -10 -10 -5 -18 -11
-33 -12 -33 -1 0 -4 37 -5 83 -2 45 -5 98 -5 119 -1 20 -5 34 -9 32 -4 -3 -10
8 -14 23 -3 15 -14 55 -25 87 -29 90 -23 90 17 1 19 -44 39 -87 44 -96 4 -9 8
-43 7 -77 -1 -33 1 -58 6 -55 4 2 7 -5 7 -16 0 -11 13 -30 30 -42 16 -12 26
-27 23 -32 -3 -6 -1 -7 4 -4 6 4 23 -3 37 -14 25 -20 28 -20 45 -5 20 19 35
21 25 4 -4 -7 -3 -8 5 -4 6 4 9 11 6 16 -3 5 12 21 35 36 42 28 44 32 41 104
-1 25 5 65 14 90 23 66 68 171 71 167 2 -1 -9 -44 -24 -95 -16 -51 -31 -89
-35 -86 -4 4 -7 2 -7 -3 0 -6 4 -13 9 -15 7 -3 -1 -98 -15 -163 -2 -11 -34
-41 -70 -67 -37 -27 -60 -48 -51 -48 8 0 38 18 66 40 l51 40 1 -42 c1 -67 15
-11 22 92 11 152 56 327 123 479 13 30 22 56 20 59 -9 8 -77 -139 -70 -150 4
-6 3 -8 -3 -5 -6 4 -27 -29 -49 -79 -21 -47 -40 -81 -42 -75 -5 16 28 131 78
266 66 180 67 183 46 166 -9 -7 -16 -22 -16 -32 0 -10 -4 -20 -8 -23 -11 -6
-72 36 -71 49 0 6 21 27 46 49 l47 38 23 -83 c13 -46 28 -101 35 -121 10 -33
8 -45 -15 -100 -14 -35 -32 -85 -41 -113 -38 -122 -81 -455 -59 -455 6 0 13
49 17 113 4 61 13 138 20 170 8 31 12 57 9 57 -3 0 0 7 7 15 6 8 9 24 5 37 -4
15 -3 18 2 10 6 -8 15 6 27 45 24 77 55 135 56 108 2 -22 2 -22 29 -123 20
-77 19 -120 -5 -185 -15 -39 -20 -237 -7 -223 5 4 7 38 6 74 l-1 67 10 -82 c6
-46 15 -83 19 -83 8 0 7 36 -6 154 -7 56 6 185 16 161 4 -11 5 -45 2 -75 -5
-51 12 -228 23 -239 13 -13 13 14 1 73 -14 67 -23 195 -13 185 3 -2 21 -59 41
-124 20 -66 41 -124 47 -130 8 -7 9 -5 5 7 -16 44 -101 327 -108 358 -4 19
-19 79 -33 132 l-26 98 31 62 c17 35 47 83 67 108 20 25 36 46 36 47 1 1 27
-4 58 -12 l56 -13 45 37 c26 20 46 40 47 44 0 11 -62 -33 -73 -51 -9 -14 -75
-9 -109 9 -22 12 -87 -62 -131 -150 l-33 -66 -32 145 c-18 80 -33 150 -32 155
0 6 8 19 16 30 16 19 16 19 12 -7 -3 -16 -1 -25 4 -21 6 3 7 18 4 34 -14 70
135 236 192 214 13 -5 14 -3 5 6 -36 36 -144 -55 -200 -168 -28 -57 -39 -70
-45 -58 -5 8 -6 25 -3 36 4 12 3 19 -2 16 -8 -5 -41 144 -68 310 -10 61 -9 73
3 78 8 3 12 12 8 20 -14 37 71 248 134 331 33 45 38 57 30 76 -8 19 -9 20 -8
3 2 -11 -1 -26 -6 -33 -6 -11 -12 -10 -27 4 -24 22 -36 11 -20 -18 6 -13 9
-15 7 -5 -6 20 12 23 20 3 3 -8 -5 -27 -19 -42 -43 -46 -127 -246 -127 -302 0
-25 -51 -69 -109 -95 -72 -32 -139 -20 -225 41 -53 36 -72 56 -77 78 -8 42
-42 103 -88 162 -23 28 -41 55 -41 60 0 5 -9 17 -19 26 -11 10 -17 25 -14 34
4 15 3 15 -6 2 -9 -12 -11 -11 -11 8 0 13 4 21 9 18 5 -3 11 2 14 12 2 9 8 26
13 36 5 14 4 17 -4 12 -7 -4 -12 -3 -12 2 0 5 25 16 57 23 37 9 57 19 59 30 2
14 -3 15 -33 6 -29 -9 -32 -12 -17 -18 18 -7 18 -8 -1 -8 -11 -1 -30 -4 -42
-7 -21 -6 -22 -3 -18 22 4 16 7 51 8 79 2 40 6 50 21 53 15 3 17 0 12 -14 -6
-15 -5 -16 5 -7 8 8 18 9 31 2 10 -5 19 -6 19 -2 1 4 5 -10 9 -32 l7 -40 2 35
c1 34 3 36 38 38 61 4 51 12 -15 12 -33 0 -64 5 -67 10 -4 6 -10 8 -15 5 -5
-3 -11 -1 -15 5 -4 6 7 10 27 10 26 0 30 -3 18 -10 -10 -8 8 -9 60 -4 76 7
105 14 57 14 -15 0 -27 4 -27 10 0 6 -9 6 -23 1 -23 -9 -78 -4 -87 9 -3 3 -23
-4 -46 -17z m83 -159 c-3 -3 -12 -4 -19 -1 -8 3 -5 6 6 6 11 1 17 -2 13 -5z
m-116 -81 c-8 -15 -10 -15 -11 -2 0 17 10 32 18 25 2 -3 -1 -13 -7 -23z m567
-445 c-2 -18 -10 -39 -18 -46 -13 -11 -12 -12 8 -7 19 5 22 2 22 -19 0 -19
-11 -34 -42 -56 -36 -27 -88 -88 -88 -105 0 -3 12 6 27 20 15 14 31 25 35 25
9 0 -39 -105 -71 -155 -14 -22 -28 -49 -31 -60 -3 -11 -12 -20 -20 -20 -8 0
-16 9 -18 20 -2 11 -10 27 -17 35 -7 8 -32 53 -54 98 l-42 84 30 -18 c17 -10
31 -25 31 -33 0 -8 3 -12 6 -8 11 11 -8 47 -47 88 -21 22 -39 37 -39 33 0 -4
-9 1 -20 11 -26 23 -28 70 -2 60 38 -16 57 -16 30 0 -21 11 -28 23 -28 45 0
17 2 30 5 30 3 0 24 -12 47 -27 36 -24 51 -28 118 -28 69 0 81 3 125 32 28 18
51 33 53 33 1 0 1 -15 0 -32z m-279 -181 c12 -18 11 -18 -18 2 -17 12 -31 27
-31 32 0 13 35 -10 49 -34z m251 29 c0 -3 -15 -15 -32 -27 l-33 -23 24 27 c22
24 41 35 41 23z m-254 -228 c19 -37 33 -68 30 -68 -2 0 -21 6 -42 13 -22 8
-52 17 -68 21 -26 6 -27 6 -13 -9 9 -8 20 -14 24 -13 4 2 36 -6 71 -16 52 -16
62 -23 62 -41 0 -17 -8 -24 -31 -29 -37 -7 -40 -6 -117 63 -53 48 -59 57 -51
78 5 14 9 43 9 66 0 23 5 59 11 81 l11 38 35 -58 c19 -31 50 -88 69 -126z
m319 156 c24 -118 36 -168 42 -178 3 -6 3 -8 -2 -4 -4 4 -15 -1 -24 -11 -9 -9
-39 -38 -67 -63 -44 -39 -55 -44 -87 -40 -31 3 -37 8 -37 27 0 20 9 26 54 39
30 9 65 16 79 16 14 0 29 5 32 11 9 13 -4 27 -13 14 -4 -6 -23 -11 -42 -13
-19 -1 -39 -7 -44 -12 -6 -6 -16 -10 -24 -10 -14 0 92 212 109 218 5 2 9 11 9
20 0 20 9 11 15 -14z m-421 -291 c20 -18 36 -36 36 -40 0 -4 -15 -18 -32 -30
l-32 -22 -21 38 c-15 25 -20 48 -17 69 5 36 9 35 66 -15z m526 -280 c-13 -25
-18 -29 -14 -13 12 46 26 75 31 63 2 -6 -5 -29 -17 -50z m-189 -169 c-5 -38
-11 -102 -12 -143 -2 -70 -4 -76 -34 -103 -18 -15 -36 -28 -40 -28 -12 0 4
108 39 270 3 14 11 42 18 62 11 32 15 35 26 24 11 -11 12 -27 3 -82z"/>
<path d="M1547 1283 c-38 -20 -80 -36 -95 -38 -15 -1 -40 -9 -57 -19 -16 -9
-22 -15 -13 -12 9 3 34 8 55 12 46 8 155 58 173 79 15 19 19 20 -63 -22z"/>
<path d="M1365 1300 c3 -5 8 -10 11 -10 2 0 4 5 4 10 0 6 -5 10 -11 10 -5 0
-7 -4 -4 -10z"/>
<path d="M1415 1270 c-3 -5 -1 -10 4 -10 6 0 11 5 11 10 0 6 -2 10 -4 10 -3 0
-8 -4 -11 -10z"/>
<path d="M1318 1263 c6 -2 12 -11 12 -19 0 -12 3 -12 14 -2 12 11 11 14 -3 20
-9 4 -20 7 -26 7 -5 -1 -4 -3 3 -6z"/>
<path d="M1640 1248 c0 -19 2 -20 10 -8 13 19 13 30 0 30 -5 0 -10 -10 -10
-22z"/>
<path d="M1378 1253 c7 -3 16 -2 19 1 4 3 -2 6 -13 5 -11 0 -14 -3 -6 -6z"/>
<path d="M1598 1253 c6 -2 18 -2 25 0 6 3 1 5 -13 5 -14 0 -19 -2 -12 -5z"/>
<path d="M1857 2032 c7 -4 12 -16 12 -27 -1 -41 11 -422 15 -468 2 -26 7 -51
11 -55 4 -4 4 56 0 133 -4 77 -7 204 -6 283 0 140 0 142 -22 142 -14 0 -18 -3
-10 -8z"/>
<path d="M1041 2014 c0 -11 3 -14 6 -6 3 7 2 16 -1 19 -3 4 -6 -2 -5 -13z"/>
<path d="M1825 2010 c-4 -6 -11 -8 -16 -5 -16 11 -10 -12 8 -26 13 -11 15 -11
9 -1 -5 8 -1 19 10 27 11 8 14 15 7 15 -6 0 -15 -5 -18 -10z"/>
<path d="M510 1995 c-7 -9 -11 -17 -9 -20 3 -2 10 5 17 15 14 24 10 26 -8 5z"/>
<path d="M1758 2003 c6 -2 18 -2 25 0 6 3 1 5 -13 5 -14 0 -19 -2 -12 -5z"/>
<path d="M1680 1983 c63 -10 70 -13 70 -38 0 -13 -6 -28 -14 -32 -7 -4 -16
-19 -20 -33 -6 -23 -6 -23 5 -5 12 19 12 19 20 0 5 -14 9 -1 14 42 4 35 11 60
16 58 4 -3 10 -1 14 5 4 6 -18 10 -62 9 -37 -1 -57 -3 -43 -6z"/>
<path d="M1451 1955 c-2 -20 -6 -86 -9 -154 -2 -28 -5 -33 -22 -28 -11 3 -20
1 -20 -4 0 -5 11 -9 24 -9 23 0 25 4 31 73 6 62 2 176 -4 122z"/>
<path d="M2160 1950 c0 -11 4 -20 9 -20 5 0 7 9 4 20 -3 11 -7 20 -9 20 -2 0
-4 -9 -4 -20z"/>
<path d="M1941 1879 c1 -35 5 -75 9 -89 5 -15 7 8 4 59 -4 100 -14 122 -13 30z"/>
<path d="M2187 1870 c3 -30 9 -71 14 -90 8 -33 8 -32 4 10 -3 32 -1 39 5 25 5
-11 9 -30 9 -43 1 -15 5 -21 13 -16 8 5 9 2 5 -10 -4 -10 -3 -15 3 -11 6 3 11
-6 11 -22 2 -26 2 -26 6 -4 3 13 0 33 -6 45 -6 12 -24 55 -40 96 l-30 75 6
-55z"/>
<path d="M746 1789 c-21 -62 -51 -142 -67 -177 -16 -36 -28 -67 -25 -69 5 -5
80 171 101 237 9 30 21 65 27 77 6 11 9 26 6 33 -2 6 -21 -39 -42 -101z"/>
<path d="M2059 1863 c-13 -21 -26 -39 -30 -41 -4 -2 -5 -11 -2 -22 3 -10 -7
-38 -21 -62 -35 -61 -33 -71 4 -17 16 24 30 52 30 62 0 10 12 39 26 63 32 55
26 70 -7 17z"/>
<path d="M801 1864 c0 -11 3 -14 6 -6 3 7 2 16 -1 19 -3 4 -6 -2 -5 -13z"/>
<path d="M1335 1869 c-4 -6 -5 -12 -2 -15 2 -3 7 2 10 11 7 17 1 20 -8 4z"/>
<path d="M1764 1860 c0 -13 4 -16 10 -10 7 7 7 13 0 20 -6 6 -10 3 -10 -10z"/>
<path d="M2176 1777 c2 -54 9 -122 15 -150 20 -106 62 -257 71 -257 5 0 6 -4
3 -10 -3 -5 -1 -10 4 -10 14 0 14 3 -3 42 -13 30 -22 62 -54 193 -9 34 -18 98
-36 255 -3 19 -2 -9 0 -63z"/>
<path d="M1522 1830 c0 -19 2 -27 5 -17 2 9 2 25 0 35 -3 9 -5 1 -5 -18z"/>
<path d="M803 1805 c0 -22 2 -30 4 -17 2 12 2 30 0 40 -3 9 -5 -1 -4 -23z"/>
<path d="M1231 1824 c0 -11 3 -14 6 -6 3 7 2 16 -1 19 -3 4 -6 -2 -5 -13z"/>
<path d="M781 1812 c0 -12 -12 -50 -25 -83 -14 -33 -22 -67 -19 -76 4 -11 2
-14 -5 -9 -9 5 -9 0 -2 -19 7 -19 7 -24 -2 -19 -8 5 -9 2 -5 -10 4 -9 0 -32
-9 -49 -15 -32 -15 -32 4 -10 20 23 47 136 37 153 -3 6 -1 10 5 10 7 0 10 6 7
13 -2 6 2 25 10 40 8 16 12 40 10 55 -3 23 -4 24 -6 4z"/>
<path d="M1371 1811 c-7 -5 -12 -14 -10 -20 2 -6 10 -2 17 9 14 22 13 23 -7
11z"/>
<path d="M1376 1774 c-13 -34 -4 -53 36 -83 56 -41 101 -41 156 -1 41 29 49
50 36 84 -3 9 -11 16 -17 16 -7 0 -7 -4 1 -12 22 -22 13 -38 -20 -39 l-33 -1
30 -8 c29 -7 29 -8 4 -9 -14 0 -34 -8 -45 -16 -17 -13 -16 -14 14 -5 40 11 41
5 1 -15 -32 -17 -75 -15 -106 5 -16 10 -16 11 5 7 12 -3 22 -2 22 3 0 10 -25
20 -50 20 -21 0 -34 29 -24 54 3 9 4 16 1 16 -3 0 -8 -7 -11 -16z"/>
<path d="M2151 1774 c0 -11 3 -14 6 -6 3 7 2 16 -1 19 -3 4 -6 -2 -5 -13z"/>
<path d="M1046 1734 c-3 -26 -4 -49 -2 -52 3 -2 8 17 11 43 4 25 5 48 3 51 -3
2 -8 -17 -12 -42z"/>
<path d="M1167 1755 c2 -7 -3 -20 -12 -29 -9 -9 -12 -16 -7 -16 8 0 42 43 42
53 0 2 -6 4 -14 4 -8 0 -12 -6 -9 -12z"/>
<path d="M789 1753 c0 -5 -2 -24 -4 -43 -14 -119 -14 -135 -5 -112 12 29 25
162 16 162 -3 0 -6 -3 -7 -7z"/>
<path d="M1961 1755 c1 -19 18 -51 18 -35 0 8 -4 22 -9 30 -5 8 -9 11 -9 5z"/>
<path d="M2126 1727 c-3 -12 -23 -47 -46 -76 -45 -62 -46 -63 -25 -55 18 7 19
-5 1 -28 -10 -14 -11 -27 -2 -62 14 -53 21 -63 30 -41 3 9 2 14 -3 11 -15 -9
-21 77 -7 99 51 80 51 81 33 66 -24 -19 -21 2 3 24 20 18 20 17 20 -21 0 -37
15 -147 26 -189 3 -11 -6 2 -20 28 -15 27 -26 64 -26 83 0 19 -4 33 -9 30 -10
-7 -2 -95 11 -111 46 -55 78 -134 44 -106 -8 7 -18 25 -21 41 -3 16 -12 31
-20 34 -16 6 -8 -24 9 -36 8 -6 7 -10 -1 -16 -13 -8 -7 -85 6 -77 13 8 36 -14
48 -47 l13 -33 -5 35 c-4 35 -4 35 7 8 7 -16 16 -28 20 -28 5 0 20 -12 34 -26
22 -21 31 -24 58 -18 17 4 34 7 39 6 4 -1 7 2 7 8 0 12 -35 31 -43 23 -4 -3
-13 0 -21 6 -10 8 -16 9 -21 1 -6 -9 10 -14 43 -13 10 1 10 -2 1 -13 -6 -8
-17 -14 -25 -14 -15 0 -36 34 -27 44 3 3 -5 6 -20 6 -17 0 -28 7 -32 20 -4 11
-19 27 -34 34 -25 13 -60 66 -43 66 4 0 36 -27 72 -60 35 -32 66 -57 69 -54 2
2 -3 12 -12 22 -10 10 -17 26 -17 36 0 9 -6 27 -12 39 -22 39 -37 110 -49 232
-12 112 -20 145 -39 145 -4 0 -10 -10 -14 -23z m37 -97 c7 -107 29 -218 53
-262 7 -14 14 -32 14 -39 0 -19 -43 26 -46 48 -1 10 -7 37 -13 60 -14 54 -38
253 -33 276 9 43 19 8 25 -83z m-73 -8 c0 -13 -12 -22 -22 -16 -10 6 -1 24 13
24 5 0 9 -4 9 -8z"/>
<path d="M1408 1733 c6 -2 18 -2 25 0 6 3 1 5 -13 5 -14 0 -19 -2 -12 -5z"/>
<path d="M1468 1723 c7 -3 16 -2 19 1 4 3 -2 6 -13 5 -11 0 -14 -3 -6 -6z"/>
<path d="M2222 1705 c0 -11 3 -29 8 -40 11 -25 11 1 0 35 -6 20 -8 21 -8 5z"/>
<path d="M1837 1690 c-3 -11 -2 -20 3 -20 12 0 21 28 11 35 -5 2 -11 -4 -14
-15z"/>
<path d="M1031 1654 c0 -11 3 -14 6 -6 3 7 2 16 -1 19 -3 4 -6 -2 -5 -13z"/>
<path d="M938 1621 c9 -16 18 -28 20 -27 5 6 -21 56 -29 56 -5 0 0 -13 9 -29z"/>
<path d="M890 1634 c0 -5 7 -18 15 -28 8 -11 15 -16 15 -10 0 5 -7 18 -15 28
-8 11 -15 16 -15 10z"/>
<path d="M1355 1619 c-4 -6 -5 -12 -2 -15 2 -3 7 2 10 11 7 17 1 20 -8 4z"/>
<path d="M1036 1605 c-9 -24 -7 -32 4 -15 16 25 11 -5 -10 -63 -11 -29 -37
-73 -57 -97 l-37 -43 -1 -116 c0 -72 -5 -124 -13 -136 -10 -16 -12 6 -11 118
1 75 5 140 10 143 15 9 83 106 97 137 19 45 13 46 -11 1 -12 -22 -44 -71 -72
-108 -27 -37 -50 -71 -49 -74 0 -4 -7 -32 -16 -62 -9 -30 -18 -87 -19 -125 -1
-39 -4 -77 -7 -86 -2 -9 1 -16 8 -16 9 0 14 26 15 91 1 50 7 107 12 126 7 29
9 17 10 -62 1 -65 5 -98 13 -100 8 -3 -1 -28 -26 -73 -33 -58 -40 -65 -49 -50
-9 17 -5 174 8 260 11 75 -16 9 -36 -88 -21 -102 -24 -182 -9 -222 8 -22 6
-32 -12 -58 l-22 -31 -8 38 c-26 124 55 446 111 446 4 0 7 8 8 18 12 143 14
216 8 210 -4 -4 -7 -35 -7 -68 1 -34 -3 -60 -9 -60 -6 0 -7 -9 -4 -21 8 -25
-13 -81 -28 -72 -6 3 -7 1 -3 -6 4 -6 1 -14 -7 -17 -8 -3 -17 -18 -20 -34 -4
-16 -16 -50 -29 -77 -12 -26 -21 -56 -20 -65 2 -10 -1 -18 -6 -18 -16 0 -23
30 -12 50 17 32 20 90 4 90 -18 0 -18 16 0 23 7 3 17 22 20 42 4 20 14 39 22
42 26 10 28 -6 3 -34 -19 -21 -14 -19 21 9 25 19 46 44 47 54 2 15 1 15 -6 -2
-11 -26 -27 -38 -35 -26 -3 5 6 24 19 43 28 41 41 79 26 79 -6 0 -12 -10 -12
-22 -1 -19 -3 -18 -10 7 l-8 30 2 -30 c1 -39 -27 -91 -52 -98 -12 -3 -23 -17
-26 -33 -15 -69 -46 -108 -77 -98 -12 3 -25 -7 -43 -35 -14 -22 -25 -44 -25
-48 0 -5 -32 -39 -72 -78 -45 -43 -66 -71 -57 -74 7 -2 15 2 17 9 8 24 132
138 157 144 14 4 25 13 25 21 0 8 7 15 15 15 8 0 15 -2 15 -5 0 -15 -40 -82
-58 -98 -11 -11 -18 -25 -15 -32 2 -8 -7 -26 -21 -40 -28 -28 -31 -35 -16 -35
15 0 130 192 130 218 0 4 -11 7 -25 7 -14 0 -25 -3 -25 -7 0 -13 -32 -38 -48
-37 -11 0 -12 2 -4 6 6 2 12 11 12 18 0 7 9 15 21 18 13 4 18 10 13 18 -4 7
-3 10 4 5 6 -3 22 -2 35 3 18 7 27 6 30 -3 12 -31 -85 -242 -116 -252 -18 -6
-18 -7 5 -32 29 -31 68 -87 68 -97 0 -3 -6 -3 -12 1 -10 6 -10 4 0 -7 6 -7 12
-17 12 -22 0 -4 -6 -5 -12 -1 -7 4 -2 -5 11 -20 19 -20 22 -29 13 -38 -6 -6
-13 -10 -15 -7 -84 128 -172 224 -181 198 -21 -66 -26 -91 -23 -140 1 -32 6
-54 11 -51 5 3 7 -2 3 -11 -7 -19 24 -82 54 -108 32 -27 37 -23 8 7 -15 17
-20 28 -13 31 7 2 10 13 7 23 -3 11 -9 17 -14 15 -4 -3 -5 -13 -2 -22 4 -11 3
-14 -6 -9 -7 5 -10 15 -7 23 3 8 -1 27 -9 43 -9 17 -15 56 -15 94 0 54 3 64
15 60 8 -4 15 -1 15 6 0 6 -4 8 -10 5 -5 -3 -10 -1 -10 4 0 6 4 11 8 11 13 0
72 -64 72 -78 0 -7 6 -11 13 -9 6 1 13 -5 13 -13 1 -8 2 -22 3 -30 1 -12 3
-12 10 -2 7 11 9 11 14 -2 4 -9 5 -18 4 -20 -1 -2 6 -13 16 -24 19 -21 16 -40
-15 -84 -20 -29 -53 -37 -61 -15 -4 9 -6 9 -6 0 -1 -15 39 -44 51 -37 4 3 17
22 28 42 37 68 62 107 80 127 9 11 23 30 29 43 16 30 24 28 71 -14 38 -34 44
-36 88 -31 26 3 54 8 62 11 18 6 77 -67 111 -137 13 -26 26 -47 31 -47 11 0
-1 29 -40 90 -49 79 -91 121 -111 111 -9 -5 -33 -11 -54 -15 -33 -6 -42 -3
-79 28 -23 20 -45 36 -49 36 -4 0 11 30 33 68 70 113 171 324 160 331 -6 3
-13 27 -15 51 -2 25 -3 15 -2 -21 1 -40 -3 -76 -11 -90 -12 -21 -13 -12 -14
77 0 73 4 105 13 113 8 6 17 8 20 4 4 -3 7 1 7 10 0 9 4 17 9 17 10 0 61 115
61 138 0 9 -4 23 -9 30 -7 11 -10 10 -15 -3z m-301 -522 c0 -23 -2 -40 -5 -38
-8 5 0 -124 10 -164 7 -25 5 -39 -8 -58 -15 -24 -17 -24 -23 -7 -32 86 -36
226 -8 288 17 37 34 27 34 -21z m78 -143 c-9 -22 -21 33 -21 100 l0 55 14 -70
c8 -38 11 -77 7 -85z m-144 17 c1 -16 -1 -16 -21 2 -18 17 -19 23 -7 37 12 15
14 14 20 -3 4 -10 8 -26 8 -36z m-155 -213 c3 -8 2 -12 -4 -9 -6 3 -10 10 -10
16 0 14 7 11 14 -7z"/>
<path d="M706 1064 c-4 -10 -9 -45 -11 -78 l-5 -61 14 75 c13 75 14 95 2 64z"/>
<path d="M713 925 c0 -38 2 -53 4 -32 2 20 2 52 0 70 -2 17 -4 1 -4 -38z"/>
<path d="M1276 1597 c15 -11 46 -39 71 -61 56 -51 64 -54 140 -55 78 -1 95 6
167 72 45 42 55 55 42 60 -9 4 -16 1 -16 -5 0 -8 -19 -9 -62 -3 -58 7 -130 9
-215 6 -18 -1 -33 -5 -33 -11 0 -6 37 -8 93 -5 50 2 108 0 127 -4 21 -5 26 -9
14 -10 -11 -1 -41 -8 -67 -17 -45 -15 -49 -15 -126 10 -44 14 -87 26 -96 26
-8 0 -15 3 -15 8 0 4 -11 8 -25 8 l-25 2 26 -21z m152 -43 c52 -15 61 -15 134
1 43 10 80 16 82 14 2 -2 -15 -19 -39 -37 -32 -25 -55 -33 -93 -36 -28 -2 -54
-1 -57 3 -4 3 -10 6 -13 7 -18 2 -67 26 -90 44 -24 20 -25 20 -2 20 12 0 47
-7 78 -16z"/>
<path d="M696 1594 c-3 -10 -5 -23 -5 -28 0 -5 -3 -12 -8 -15 -4 -3 -20 -24
-34 -46 -38 -60 -97 -147 -115 -172 -9 -13 -14 -23 -11 -23 4 0 25 26 49 58
23 31 47 62 54 67 7 6 31 41 53 78 30 49 39 72 32 84 -8 14 -9 14 -15 -3z"/>
<path d="M1842 1585 c0 -16 2 -22 5 -12 2 9 2 23 0 30 -3 6 -5 -1 -5 -18z"/>
<path d="M836 1592 c-6 -9 1 -72 8 -79 3 -3 4 16 3 41 -1 48 -2 52 -11 38z"/>
<path d="M767 1563 c-3 -5 -12 -34 -21 -66 -9 -32 -30 -91 -45 -131 -16 -41
-25 -79 -21 -86 4 -7 10 -8 12 -4 7 12 74 231 82 267 6 26 2 36 -7 20z"/>
<path d="M1852 1530 c0 -14 2 -19 5 -12 2 6 2 18 0 25 -3 6 -5 1 -5 -13z"/>
<path d="M706 1502 c-9 -11 -27 -47 -41 -81 -24 -63 -72 -151 -81 -151 -7 0 7
52 27 94 18 38 18 38 -1 21 -19 -17 -27 -40 -35 -104 -2 -19 -9 -39 -16 -45
-9 -8 -10 -7 -6 6 3 9 8 34 11 55 l5 38 -13 -40 c-8 -22 -15 -52 -15 -67 -1
-21 -25 -53 -96 -126 -106 -111 -128 -144 -35 -54 33 33 61 57 64 55 2 -2 9 3
16 12 7 8 9 15 6 15 -4 0 19 33 52 73 33 39 65 83 72 95 6 13 14 21 17 19 5
-6 -22 -64 -42 -87 -16 -21 -27 -53 -15 -45 6 3 10 11 10 17 0 6 6 19 14 27
24 27 68 120 61 131 -9 15 5 51 17 44 6 -4 8 1 3 16 -4 14 -3 20 3 16 11 -7
25 21 16 35 -3 5 -1 9 4 9 10 0 25 30 19 36 -2 2 -11 -4 -21 -14z m-55 -169
c-12 -20 -14 -14 -5 12 4 9 9 14 11 11 3 -2 0 -13 -6 -23z"/>
<path d="M1922 1475 c0 -16 2 -22 5 -12 2 9 2 23 0 30 -3 6 -5 -1 -5 -18z"/>
<path d="M1036 1465 c-3 -8 -1 -15 4 -15 6 0 10 7 10 15 0 8 -2 15 -4 15 -2 0
-6 -7 -10 -15z"/>
<path d="M1906 1418 c7 -29 14 -54 14 -55 0 -2 -12 -3 -27 -4 -16 0 -37 -4
-47 -8 -33 -13 -1 -22 43 -12 54 12 56 -11 4 -38 -64 -33 -153 -142 -153 -187
0 -11 12 3 26 31 32 63 84 117 140 147 31 16 42 27 38 38 -4 8 -14 43 -22 78
-9 34 -19 62 -23 62 -4 0 -1 -24 7 -52z"/>
<path d="M2260 1457 c0 -19 54 -142 73 -164 12 -13 27 -36 33 -51 10 -21 13
-23 13 -8 1 11 -6 27 -14 35 -8 9 -34 57 -59 106 -25 50 -45 86 -46 82z"/>
<path d="M1013 1424 c-3 -8 -2 -19 3 -24 5 -5 9 1 9 16 0 28 -3 30 -12 8z"/>
<path d="M1056 1413 c-6 -14 -5 -15 5 -6 7 7 10 15 7 18 -3 3 -9 -2 -12 -12z"/>
<path d="M995 1390 c4 -7 8 -34 7 -59 l-1 -46 13 35 c7 19 9 37 5 38 -5 2 -9
10 -9 17 0 8 -5 17 -12 21 -7 5 -8 3 -3 -6z"/>
<path d="M2003 1350 c0 -25 2 -35 4 -22 2 12 2 32 0 45 -2 12 -4 2 -4 -23z"/>
<path d="M2020 1340 c0 -5 5 -10 10 -10 6 0 10 5 10 10 0 6 -4 10 -10 10 -5 0
-10 -4 -10 -10z"/>
<path d="M2250 1328 c0 -4 4 -8 10 -8 5 0 16 -12 23 -26 11 -22 15 -24 20 -10
4 9 2 16 -3 16 -6 0 -10 8 -10 18 0 11 -7 18 -20 18 -11 0 -20 -4 -20 -8z"/>
<path d="M1030 1320 c0 -6 18 -17 40 -26 46 -19 118 -94 149 -156 11 -24 21
-35 21 -25 0 48 -87 152 -163 195 -43 25 -47 26 -47 12z"/>
<path d="M1701 1314 c0 -11 3 -14 6 -6 3 7 2 16 -1 19 -3 4 -6 -2 -5 -13z"/>
<path d="M2033 1270 c0 -30 2 -43 4 -27 2 15 2 39 0 55 -2 15 -4 2 -4 -28z"/>
<path d="M2106 1265 c4 -22 10 -69 15 -105 8 -65 8 -65 4 15 -2 45 -9 92 -15
105 -9 21 -9 19 -4 -15z"/>
<path d="M763 1275 c0 -8 4 -15 9 -15 4 0 8 4 8 9 0 6 -4 12 -8 15 -5 3 -9 -1
-9 -9z"/>
<path d="M1261 1253 c-6 -22 -13 -55 -16 -74 -3 -18 4 -3 14 36 11 38 18 71
16 73 -2 2 -8 -14 -14 -35z"/>
<path d="M1716 1240 c3 -25 10 -49 15 -54 14 -15 10 24 -7 64 l-14 35 6 -45z"/>
<path d="M2220 1225 c0 -3 9 -16 21 -28 l21 -22 -13 28 c-11 23 -29 37 -29 22z"/>
<path d="M2355 1181 c-4 -17 -11 -33 -16 -36 -5 -4 -9 -12 -9 -18 0 -7 10 1
23 16 l22 29 20 -24 20 -23 -24 20 c-15 12 -21 14 -16 5 11 -20 48 -46 59 -42
4 1 16 -3 25 -10 9 -6 -9 15 -39 47 -30 33 -56 61 -57 63 0 2 -4 -10 -8 -27z
m75 -61 c0 -5 -2 -10 -4 -10 -3 0 -8 5 -11 10 -3 6 -1 10 4 10 6 0 11 -4 11
-10z"/>
<path d="M2320 1185 c7 -8 17 -12 22 -9 6 4 5 10 -3 15 -22 14 -33 10 -19 -6z"/>
<path d="M550 1164 c0 -8 -4 -13 -8 -10 -5 3 -9 -1 -9 -9 0 -13 3 -12 18 1 10
9 16 21 13 25 -8 14 -14 11 -14 -7z"/>
<path d="M2273 1163 c9 -14 46 -23 52 -14 2 4 -1 8 -8 8 -7 0 -21 4 -31 9 -13
5 -17 4 -13 -3z"/>
<path d="M635 1152 c-16 -11 -95 -110 -95 -118 0 -12 45 34 79 81 32 45 35 51
16 37z"/>
<path d="M2283 1123 c27 -31 46 -91 47 -145 l0 -47 39 42 40 42 -32 33 c-39
41 -120 106 -94 75z m90 -125 c-20 -22 -19 -23 -26 26 l-6 39 24 -23 c23 -22
24 -25 8 -42z"/>
<path d="M2142 1110 c0 -14 2 -19 5 -12 2 6 2 18 0 25 -3 6 -5 1 -5 -13z"/>
<path d="M2399 1081 c17 -16 31 -34 31 -40 0 -7 8 -6 23 4 21 13 24 13 42 -7
18 -22 18 -22 -6 -41 l-25 -18 23 -70 c25 -72 33 -175 19 -239 -5 -25 -4 -30
3 -19 24 38 28 118 10 199 -6 25 -12 52 -14 60 -2 8 -8 27 -13 41 -8 21 -7 27
9 38 17 10 25 8 49 -11 35 -28 51 -56 60 -105 l8 -38 1 38 c0 21 -4 48 -10 60
-22 43 -133 139 -184 158 -27 11 -51 19 -53 19 -2 0 10 -13 27 -29z m51 -21
c0 -5 -2 -10 -4 -10 -3 0 -8 5 -11 10 -3 6 -1 10 4 10 6 0 11 -4 11 -10z"/>
<path d="M929 1083 c-13 -16 -12 -17 4 -4 9 7 17 15 17 17 0 8 -8 3 -21 -13z"/>
<path d="M2264 1063 c20 -98 25 -166 17 -205 -9 -39 -7 -70 2 -37 2 8 9 30 16
50 15 49 14 101 -5 165 -16 55 -40 77 -30 27z"/>
<path d="M320 923 c-40 -43 -67 -79 -61 -81 6 -2 22 9 36 25 l25 28 -24 -67
c-13 -37 -20 -65 -16 -63 5 3 11 -14 15 -37 15 -96 60 -187 82 -165 3 4 1 7
-5 7 -18 0 -49 70 -57 130 -15 105 -2 173 50 249 18 28 32 51 30 51 -2 0 -35
-35 -75 -77z"/>
<path d="M393 953 c-48 -78 -63 -128 -63 -203 0 -39 3 -70 8 -70 4 0 7 33 8
73 0 61 5 82 32 135 18 34 38 62 45 62 7 0 8 -3 2 -8 -5 -4 -11 -27 -12 -52
-1 -25 1 -36 4 -25 3 11 9 24 14 29 5 6 9 21 9 35 0 15 4 33 10 41 6 9 5 17
-3 22 -20 13 -24 10 -54 -39z"/>
<path d="M2413 993 c4 -6 -4 -22 -18 -34 -30 -29 -34 -50 -4 -23 30 27 41 51
27 60 -6 4 -8 3 -5 -3z"/>
<path d="M2263 925 c0 -38 2 -53 4 -32 2 20 2 52 0 70 -2 17 -4 1 -4 -38z"/>
<path d="M751 960 c0 -8 4 -24 9 -35 5 -13 9 -14 9 -5 0 8 -4 24 -9 35 -5 13
-9 14 -9 5z"/>
<path d="M471 944 c0 -11 3 -14 6 -6 3 7 2 16 -1 19 -3 4 -6 -2 -5 -13z"/>
<path d="M599 921 c20 -22 38 -38 40 -36 6 6 -53 73 -65 74 -6 1 5 -17 25 -38z"/>
<path d="M431 869 c-1 -9 -3 -32 -6 -50 -4 -30 -4 -31 5 -9 9 24 9 23 7 -7 -2
-18 0 -30 4 -27 4 2 10 0 14 -6 3 -5 1 -10 -6 -10 -8 0 -6 -6 4 -18 10 -10 17
-23 17 -28 0 -6 10 -21 23 -34 12 -14 21 -26 20 -27 -2 -2 -1 -2 0 0 2 1 12
-5 23 -13 10 -8 7 -1 -8 15 -31 35 -62 100 -82 176 -8 30 -15 47 -15 38z"/>
<path d="M1172 860 c0 -14 2 -19 5 -12 2 6 2 18 0 25 -3 6 -5 1 -5 -13z"/>
<path d="M1816 865 c4 -8 8 -15 10 -15 2 0 4 7 4 15 0 8 -4 15 -10 15 -5 0 -7
-7 -4 -15z"/>
<path d="M895 860 c-3 -5 -1 -10 4 -10 6 0 11 5 11 10 0 6 -2 10 -4 10 -3 0
-8 -4 -11 -10z"/>
<path d="M242 791 c-12 -21 -24 -58 -26 -82 l-4 -44 10 35 c6 19 19 55 30 79
24 55 18 63 -10 12z"/>
<path d="M1161 814 c0 -11 3 -14 6 -6 3 7 2 16 -1 19 -3 4 -6 -2 -5 -13z"/>
<path d="M2621 814 c0 -11 3 -14 6 -6 3 7 2 16 -1 19 -3 4 -6 -2 -5 -13z"/>
<path d="M1837 774 c8 -25 17 -44 18 -42 6 6 -19 88 -26 88 -4 0 -1 -20 8 -46z"/>
<path d="M755 740 c22 -24 9 -27 -17 -3 -10 9 -18 12 -18 6 0 -5 16 -18 35
-29 35 -19 85 -79 85 -102 0 -22 15 -12 28 18 21 48 50 49 91 4 20 -22 39 -38
43 -37 4 2 5 -3 2 -10 -2 -7 5 -23 16 -35 15 -15 19 -30 15 -45 -4 -15 -3 -18
3 -8 14 19 24 -2 17 -36 -5 -24 -4 -25 5 -8 8 16 9 11 5 -20 -4 -29 -3 -36 4
-25 18 25 12 68 -14 121 -27 53 -86 123 -117 140 -25 14 -78 2 -72 -16 11 -28
-16 -24 -31 5 -8 16 -31 46 -51 65 -37 37 -60 49 -29 15z"/>
<path d="M1734 654 c-23 -57 -38 -104 -35 -104 8 0 85 200 79 205 -2 2 -22
-43 -44 -101z"/>
<path d="M2195 723 c-42 -44 -79 -109 -66 -118 5 -3 14 9 21 27 12 36 80 121
80 101 0 -7 7 -10 15 -6 9 3 22 -2 31 -13 13 -17 13 -16 2 9 -9 21 -16 26 -31
21 -13 -4 -17 -2 -13 5 14 22 -4 10 -39 -26z"/>
<path d="M1136 733 c-4 -9 -2 -21 4 -27 7 -7 10 -2 10 17 0 31 -5 34 -14 10z"/>
<path d="M1211 723 c-1 -16 87 -235 99 -247 6 -6 -7 35 -29 89 -51 133 -69
172 -70 158z"/>
<path d="M241 704 c0 -11 3 -14 6 -6 3 7 2 16 -1 19 -3 4 -6 -2 -5 -13z"/>
<path d="M1427 665 c2 -30 0 -55 -5 -55 -5 0 -7 -11 -5 -25 3 -13 0 -38 -5
-55 -6 -16 -7 -30 -2 -30 4 0 13 30 19 68 18 114 19 152 7 152 -8 0 -11 -19
-9 -55z"/>
<path d="M185 671 c-4 -22 -4 -49 0 -61 4 -11 2 -20 -4 -20 -14 0 -15 -142 -1
-189 7 -26 6 -42 -5 -63 l-14 -28 28 22 c16 13 26 27 23 32 -3 5 1 7 9 4 17
-7 54 17 54 34 0 6 6 13 14 16 9 3 11 0 6 -8 -6 -9 -3 -9 14 -1 24 13 28 23 6
15 -33 -13 -12 6 38 35 60 34 197 92 197 83 0 -3 -21 -38 -47 -78 -39 -60 -60
-80 -112 -110 -35 -21 -97 -62 -138 -91 -41 -29 -76 -53 -79 -53 -2 0 -5 10
-5 23 -1 17 -2 18 -6 4 -3 -10 1 -24 7 -32 7 -8 12 -53 12 -107 1 -68 3 -82 8
-53 5 28 8 33 9 15 1 -14 7 -34 12 -45 7 -15 8 -11 5 17 -3 21 -1 38 5 38 5 0
9 5 9 11 0 5 -5 7 -12 3 -8 -5 -9 2 -5 27 5 24 4 30 -3 19 -7 -11 -10 -5 -10
25 0 22 4 45 8 51 9 15 204 145 210 140 2 -2 -24 -50 -57 -105 -65 -109 -108
-218 -91 -235 14 -14 20 -4 23 33 1 17 6 31 10 31 4 0 7 6 5 13 -1 6 11 37 26
67 28 55 154 260 165 270 5 5 23 35 54 93 7 12 25 41 41 65 16 23 25 46 21 50
-4 4 -12 -1 -19 -12 -26 -44 -44 -57 -101 -76 -76 -26 -117 -47 -177 -88 -27
-17 -48 -30 -48 -26 0 3 -7 -2 -16 -10 -8 -9 -20 -14 -25 -10 -5 3 -8 0 -7 -7
5 -22 -19 -20 -26 3 -9 36 -7 164 4 192 6 17 6 26 0 26 -6 0 -10 10 -9 23 0
21 1 21 9 2 7 -14 8 -8 3 20 -8 53 -10 54 -18 6z m84 -274 c-2 -1 -13 -9 -24
-17 -19 -14 -19 -14 -6 3 7 9 18 17 24 17 6 0 8 -1 6 -3z"/>
<path d="M2764 663 c10 -43 11 -44 17 -17 3 16 6 -36 6 -116 0 -80 -1 -148 -4
-152 -2 -4 -36 16 -76 46 -40 30 -82 57 -95 61 -12 3 -19 11 -16 17 4 6 2 8
-4 4 -6 -3 -16 -1 -24 6 -7 7 -24 14 -37 16 -14 1 -30 7 -37 13 -14 11 -9 56
8 76 6 7 6 13 1 13 -5 0 -18 -22 -30 -49 l-20 -48 51 -17 c62 -20 209 -104
201 -115 -2 -5 7 -17 21 -26 15 -9 23 -12 19 -5 -5 8 -3 11 6 8 8 -3 14 -10
14 -15 0 -6 12 -21 28 -33 15 -12 27 -17 27 -12 0 6 -5 12 -11 14 -12 4 -12 9
-3 156 5 75 3 102 -6 102 -7 0 -9 8 -5 20 4 12 3 40 -1 63 -7 38 -8 40 -15 17
-4 -15 -7 -18 -8 -8 -1 9 -5 19 -9 22 -4 3 -3 -16 2 -41z m-29 -273 c3 -6 -1
-7 -9 -4 -18 7 -21 14 -7 14 6 0 13 -4 16 -10z"/>
<path d="M1381 674 c0 -11 3 -14 6 -6 3 7 2 16 -1 19 -3 4 -6 -2 -5 -13z"/>
<path d="M1580 669 c0 -5 5 -7 10 -4 6 3 10 8 10 11 0 2 -4 4 -10 4 -5 0 -10
-5 -10 -11z"/>
<path d="M2004 638 c-26 -24 -43 -47 -40 -55 3 -8 1 -11 -4 -8 -14 9 -60 -93
-59 -130 0 -25 3 -21 22 28 13 32 25 55 29 52 3 -4 5 0 4 8 -2 20 91 137 109
137 8 0 23 -9 34 -21 17 -19 19 -19 18 -2 -2 19 -20 31 -50 32 -9 1 -38 -18
-63 -41z"/>
<path d="M340 654 c0 -6 7 -19 16 -30 14 -18 14 -18 3 6 -14 31 -19 36 -19 24z"/>
<path d="M2349 595 c5 -11 17 -29 26 -40 16 -20 16 -20 6 0 -5 11 -17 29 -26
40 -16 20 -16 20 -6 0z"/>
<path d="M575 508 c-8 -44 12 -88 56 -118 24 -18 40 -21 79 -18 l48 5 11 -71
c15 -87 20 -226 9 -232 -4 -3 -8 -17 -7 -32 1 -26 1 -26 16 8 27 61 15 257
-19 323 -8 15 -17 17 -55 11 -42 -6 -46 -5 -40 12 6 17 6 17 -6 3 -12 -16 -30
-9 -35 14 -6 25 -34 67 -42 62 -13 -8 -13 18 0 31 5 5 6 15 0 23 -6 11 -10 5
-15 -21z m40 -73 l18 -30 -21 19 c-12 11 -22 26 -22 34 0 17 -1 18 25 -23z"/>
<path d="M1685 529 c-4 -6 -5 -12 -2 -15 2 -3 7 2 10 11 7 17 1 20 -8 4z"/>
<path d="M2397 523 c-5 -7 -6 -17 -3 -22 11 -17 -17 -72 -41 -82 -13 -5 -21
-14 -18 -20 4 -6 1 -9 -6 -8 -8 1 -22 -1 -31 -5 -10 -5 -31 -3 -47 2 -27 9
-30 8 -40 -16 -35 -89 -45 -263 -19 -322 16 -34 16 -34 17 -8 1 15 6 30 11 33
6 4 8 11 4 16 -8 14 23 93 44 111 9 8 42 23 72 32 62 20 103 54 132 109 29 58
14 56 -18 -2 -31 -58 -52 -74 -115 -91 -24 -6 -54 -18 -66 -26 -30 -19 -63
-85 -63 -124 0 -17 -4 -29 -8 -26 -11 7 -5 170 9 242 l12 63 46 -5 c58 -6 106
21 127 72 16 37 16 100 1 77z"/>
<path d="M716 503 c-6 -14 -5 -15 5 -6 7 7 10 15 7 18 -3 3 -9 -2 -12 -12z"/>
<path d="M418 479 c-32 -16 -58 -32 -58 -34 0 -3 26 8 59 24 32 17 62 27 66
23 5 -4 5 -1 1 6 -4 6 -8 12 -9 12 -1 -1 -28 -14 -59 -31z"/>
<path d="M2524 478 c-4 -6 -3 -8 4 -4 5 3 12 1 14 -6 3 -8 6 -9 11 -1 4 6 0
13 -8 17 -8 3 -17 0 -21 -6z"/>
<path d="M465 463 c-8 -10 -14 -21 -13 -24 2 -3 -4 -14 -12 -25 -14 -18 -14
-18 2 -5 10 7 15 17 12 22 -3 5 1 12 10 15 8 3 17 12 20 20 7 19 -1 18 -19 -3z"/>
<path d="M696 463 c-6 -14 -5 -15 5 -6 7 7 10 15 7 18 -3 3 -9 -2 -12 -12z"/>
<path d="M1140 473 c0 -6 7 -45 16 -88 9 -42 13 -83 10 -91 -3 -8 -2 -13 3
-10 7 5 20 -63 47 -239 10 -66 17 -55 9 15 -7 70 -73 411 -80 419 -3 2 -5 0
-5 -6z"/>
<path d="M1811 388 c-27 -124 -61 -328 -60 -364 0 -16 12 34 26 111 14 77 30
143 35 146 6 4 7 15 4 26 -4 11 1 53 9 93 8 40 13 75 11 77 -2 2 -13 -38 -25
-89z"/>
<path d="M1535 459 c-4 -6 -5 -12 -2 -15 2 -3 7 2 10 11 7 17 1 20 -8 4z"/>
<path d="M2570 466 c0 -2 7 -7 16 -10 8 -3 12 -2 9 4 -6 10 -25 14 -25 6z"/>
<path d="M2630 436 c0 -3 9 -10 20 -16 11 -6 20 -8 20 -6 0 3 -9 10 -20 16
-11 6 -20 8 -20 6z"/>
<path d="M1950 400 c0 -11 4 -20 9 -20 5 0 7 9 4 20 -3 11 -7 20 -9 20 -2 0
-4 -9 -4 -20z"/>
<path d="M479 357 c-9 -18 -43 -86 -77 -152 -65 -128 -86 -189 -58 -166 9 8
16 19 16 25 0 6 13 37 30 69 17 33 27 64 23 74 -4 11 -3 14 5 9 13 -8 46 50
37 65 -4 5 -1 8 6 7 7 -2 15 8 19 22 3 14 10 25 16 25 11 0 86 -80 80 -86 -3
-2 5 -5 17 -6 79 -6 123 -25 110 -46 -3 -6 -1 -7 5 -3 13 8 33 -24 49 -79 6
-22 11 -32 12 -21 2 38 -23 98 -52 122 -15 13 -47 27 -69 31 -49 7 -114 61
-135 111 -7 17 -14 32 -16 32 -1 -1 -9 -15 -18 -33z"/>
<path d="M2650 350 c19 -16 39 -30 44 -30 6 0 23 -12 39 -27 17 -16 26 -21 22
-13 -12 20 -50 50 -99 78 l-41 22 35 -30z"/>
<path d="M1704 362 c4 -7 2 -21 -5 -30 -12 -15 -11 -15 6 0 16 15 17 20 6 30
-11 11 -13 10 -7 0z"/>
<path d="M1970 360 c0 -17 39 -121 40 -105 0 6 -9 35 -20 65 -10 30 -19 48
-20 40z"/>
<path d="M1759 343 c-7 -51 -7 -93 -1 -97 4 -2 9 20 10 50 2 30 1 54 -2 54 -3
0 -6 -3 -7 -7z"/>
<path d="M1118 315 c2 -14 6 -25 7 -25 1 0 5 11 7 25 3 16 1 25 -7 25 -8 0
-10 -9 -7 -25z"/>
<path d="M191 304 c0 -11 3 -14 6 -6 3 7 2 16 -1 19 -3 4 -6 -2 -5 -13z"/>
<path d="M1201 300 c0 -8 4 -24 9 -35 5 -13 9 -14 9 -5 0 8 -4 24 -9 35 -5 13
-9 14 -9 5z"/>
<path d="M2781 294 c0 -11 3 -14 6 -6 3 7 2 16 -1 19 -3 4 -6 -2 -5 -13z"/>
<path d="M992 253 c-7 -25 -11 -47 -9 -50 2 -2 10 17 17 42 7 25 11 48 8 50
-2 2 -10 -16 -16 -42z"/>
<path d="M225 280 c-3 -5 -1 -10 4 -10 6 0 11 5 11 10 0 6 -2 10 -4 10 -3 0
-8 -4 -11 -10z"/>
<path d="M1096 183 c-4 -59 -10 -125 -13 -146 -4 -29 -2 -37 10 -37 8 0 17 12
20 28 6 27 0 252 -7 259 -2 2 -6 -45 -10 -104z"/>
<path d="M1135 270 c3 -5 8 -10 11 -10 2 0 4 5 4 10 0 6 -5 10 -11 10 -5 0 -7
-4 -4 -10z"/>
<path d="M1511 254 c0 -11 3 -14 6 -6 3 7 2 16 -1 19 -3 4 -6 -2 -5 -13z"/>
<path d="M1072 225 c0 -16 2 -22 5 -12 2 9 2 23 0 30 -3 6 -5 -1 -5 -18z"/>
<path d="M1135 125 c0 -68 3 -121 8 -118 4 2 7 28 7 56 1 59 13 48 25 -20 4
-24 11 -43 16 -43 5 0 6 15 3 33 -11 61 -46 202 -53 209 -3 4 -6 -49 -6 -117z"/>
<path d="M2550 237 c0 -9 4 -18 9 -22 5 -3 12 -19 16 -35 4 -17 10 -28 15 -25
5 3 1 23 -9 45 -21 48 -31 59 -31 37z"/>
<path d="M1740 223 c0 -10 -2 -38 -4 -63 -2 -25 -1 -28 1 -7 2 20 9 37 14 37
6 0 8 4 5 9 -4 5 -1 11 5 13 7 2 6 8 -4 17 -13 10 -16 10 -17 -6z"/>
<path d="M1812 153 c-29 -126 -33 -153 -23 -153 5 0 12 15 16 33 6 28 8 30 15
12 5 -13 8 9 8 61 1 44 4 93 7 107 4 15 5 27 2 27 -3 0 -14 -39 -25 -87z"/>
<path d="M2011 230 c0 -8 4 -24 9 -35 5 -13 9 -14 9 -5 0 8 -4 24 -9 35 -5 13
-9 14 -9 5z"/>
<path d="M549 207 c-9 -12 -19 -33 -23 -47 -4 -15 3 -7 19 19 28 47 30 62 4
28z"/>
<path d="M1243 135 c0 -44 2 -61 4 -37 2 23 2 59 0 80 -2 20 -4 1 -4 -43z"/>
<path d="M1061 145 c-1 -27 -6 -71 -10 -98 -4 -26 -4 -47 0 -47 10 0 22 115
16 160 -3 29 -4 27 -6 -15z"/>
<path d="M2762 140 c0 -14 2 -19 5 -12 2 6 2 18 0 25 -3 6 -5 1 -5 -13z"/>
<path d="M946 114 c-10 -38 0 -41 12 -5 6 17 7 31 3 31 -5 0 -12 -12 -15 -26z"/>
<path d="M2591 119 c0 -13 4 -33 9 -44 7 -14 8 -8 3 20 -7 46 -13 59 -12 24z"/>
<path d="M495 98 c-23 -45 -35 -78 -30 -78 8 0 57 102 52 107 -3 2 -13 -11
-22 -29z"/>
<path d="M2052 89 c6 -16 12 -28 14 -26 5 5 -13 57 -20 57 -3 0 0 -14 6 -31z"/>
<path d="M921 39 c-6 -18 -9 -34 -7 -36 2 -2 9 10 15 28 6 18 9 34 7 36 -2 2
-9 -10 -15 -28z"/>
<path d="M1599 38 c-6 -21 -5 -38 2 -38 5 0 9 9 9 20 0 16 -7 28 -11 18z"/>
<path d="M240 15 c0 -8 4 -15 10 -15 5 0 7 7 4 15 -4 8 -8 15 -10 15 -2 0 -4
-7 -4 -15z"/>
</g>
</svg>
