<?xml version="1.0" standalone="no"?>
<!DOCTYPE svg PUBLIC "-//W3C//DTD SVG 20010904//EN"
 "http://www.w3.org/TR/2001/REC-SVG-20010904/DTD/svg10.dtd">
<svg version="1.0" xmlns="http://www.w3.org/2000/svg"
 width="300.000000pt" height="424.000000pt" viewBox="0 0 300.000000 424.000000"
 preserveAspectRatio="xMidYMid meet">
<metadata>
Created by potrace 1.10, written by Peter Selinger 2001-2011
</metadata>
<g transform="translate(0.000000,424.000000) scale(0.100000,-0.100000)"
fill="#000000" stroke="none">
<path d="M301 3958 c1 -17 2 -19 6 -5 4 16 69 17 1190 17 l1185 0 -4 -254 c-1
-140 0 -252 5 -249 4 2 7 119 7 259 l0 254 -1195 0 -1195 0 1 -22z"/>
<path d="M492 3818 c-17 -17 -15 -28 4 -28 10 0 14 6 11 14 -3 8 -1 17 6 20 7
2 7 5 2 5 -6 1 -16 -4 -23 -11z"/>
<path d="M450 3780 c0 -5 5 -10 11 -10 5 0 7 5 4 10 -3 6 -8 10 -11 10 -2 0
-4 -4 -4 -10z"/>
<path d="M540 3767 c14 -13 27 -23 29 -21 6 5 -10 24 -32 35 -20 10 -20 9 3
-14z"/>
<path d="M480 3766 c0 -2 9 -6 20 -9 11 -3 18 -1 14 4 -5 9 -34 13 -34 5z"/>
<path d="M302 3693 c-1 -39 -5 -78 -8 -87 -3 -9 -2 -16 4 -16 15 0 17 19 11
100 l-5 75 -2 -72z"/>
<path d="M530 3742 c0 -5 7 -15 15 -22 8 -7 15 -8 15 -2 0 5 -7 15 -15 22 -8
7 -15 8 -15 2z"/>
<path d="M591 3724 c0 -11 3 -14 6 -6 3 7 2 16 -1 19 -3 4 -6 -2 -5 -13z"/>
<path d="M465 3690 c3 -5 15 -10 26 -10 11 0 17 5 14 10 -3 6 -15 10 -26 10
-11 0 -17 -4 -14 -10z"/>
<path d="M389 3659 c-19 -16 -20 -18 -4 -10 34 17 51 31 39 31 -7 0 -22 -9
-35 -21z"/>
<path d="M340 3649 c-22 -18 -22 -19 -3 -10 12 6 25 16 28 21 9 15 3 12 -25
-11z"/>
<path d="M576 3645 c-9 -26 -7 -32 5 -12 6 10 9 21 6 23 -2 3 -7 -2 -11 -11z"/>
<path d="M488 3623 c6 -2 18 -2 25 0 6 3 1 5 -13 5 -14 0 -19 -2 -12 -5z"/>
<path d="M460 3600 c0 -5 5 -10 11 -10 5 0 7 5 4 10 -3 6 -8 10 -11 10 -2 0
-4 -4 -4 -10z"/>
<path d="M383 3564 c-20 -15 -33 -34 -32 -47 0 -19 2 -19 10 5 6 15 19 30 29
33 20 6 48 35 34 35 -5 0 -24 -12 -41 -26z"/>
<path d="M295 3549 c-4 -12 -3 -25 3 -31 6 -6 11 1 14 21 5 35 -7 42 -17 10z"/>
<path d="M531 3546 c12 -10 60 -16 54 -6 -3 5 -18 10 -32 10 -15 0 -24 -2 -22
-4z"/>
<path d="M1220 3544 c-35 -12 -100 -46 -106 -56 -4 -7 -56 -9 -153 -7 l-146 4
-8 -95 c-8 -108 -30 -182 -59 -210 -12 -11 -18 -25 -14 -35 3 -9 2 -13 -4 -10
-12 8 -63 -92 -54 -107 4 -6 3 -8 -3 -5 -9 5 -61 -73 -54 -81 1 -2 -5 -9 -15
-16 -9 -7 -14 -18 -10 -24 3 -6 -3 -17 -15 -26 -12 -8 -18 -19 -15 -24 3 -6
-1 -12 -9 -16 -8 -3 -15 -10 -15 -16 0 -6 5 -8 10 -5 6 4 5 -4 -1 -19 -7 -14
-15 -23 -20 -21 -4 3 -10 1 -13 -4 -8 -13 46 -24 75 -16 13 4 40 26 59 50 60
73 138 107 189 80 23 -11 33 -27 46 -72 9 -31 15 -74 13 -95 -3 -34 -1 -39 24
-47 26 -9 28 -14 28 -60 0 -28 4 -51 9 -51 6 0 26 9 45 21 38 22 84 27 151 17
80 -13 105 -21 98 -31 -3 -6 -1 -7 5 -3 7 4 20 2 29 -3 29 -17 -34 -14 -82 4
-22 8 -58 14 -80 14 -36 -1 -34 -2 24 -15 64 -14 88 -24 59 -24 -9 0 -18 -11
-21 -26 l-4 -25 21 20 c12 12 35 21 50 21 15 0 36 5 47 10 31 17 115 1 143
-26 21 -22 24 -22 28 -7 7 32 -2 51 -22 46 -11 -3 -47 9 -81 27 -52 27 -66 30
-86 21 -13 -6 -35 -8 -48 -5 -20 5 -23 9 -15 24 6 10 9 36 8 57 -1 37 -1 37
-5 6 -2 -18 -8 -33 -13 -33 -4 0 -6 -8 -3 -19 3 -13 -2 -19 -19 -22 -43 -8
-69 2 -79 28 -10 27 -79 143 -85 143 -7 0 17 -54 36 -80 11 -16 20 -34 20 -42
0 -8 6 -20 13 -27 10 -10 6 -11 -16 -7 -17 3 -41 -2 -62 -14 l-34 -19 -6 31
c-4 16 -17 45 -30 64 -14 20 -21 42 -18 54 3 11 -1 28 -8 37 -12 14 -12 15 -1
9 11 -7 12 -4 3 11 -6 11 -7 24 -3 28 4 5 2 5 -4 2 -7 -4 -14 4 -17 21 -7 36
-71 74 -112 66 -41 -7 -125 -45 -125 -55 0 -13 -63 -68 -77 -69 -19 0 -16 13
11 53 13 19 22 38 19 41 -3 3 4 16 15 30 10 14 22 22 26 18 4 -3 5 0 1 8 -3 9
7 29 24 47 16 18 27 34 24 37 -3 3 4 20 15 38 11 18 30 51 42 73 13 22 34 60
47 83 14 24 27 59 29 77 2 19 9 46 14 60 6 17 7 33 1 44 -6 10 -9 27 -9 37 2
17 9 19 50 17 26 -1 53 -5 60 -9 20 -13 38 -13 38 -2 0 7 18 9 50 5 27 -3 52
-2 55 4 4 5 13 9 22 9 9 0 25 8 36 18 15 12 19 13 13 2 -6 -12 -5 -12 6 1 21
25 48 30 71 14 12 -8 17 -15 12 -16 -6 0 1 -5 15 -10 19 -8 21 -12 11 -18 -11
-7 -9 -10 7 -15 25 -8 172 -151 172 -167 0 -6 17 -31 38 -54 78 -88 130 -162
145 -205 9 -25 16 -41 17 -37 0 4 6 2 14 -5 8 -7 12 -16 10 -20 -2 -4 7 -23
21 -44 14 -20 25 -45 25 -55 0 -21 -28 -51 -40 -44 -5 3 -6 -5 -3 -17 3 -13 7
-38 10 -56 3 -18 9 -34 13 -37 4 -2 5 7 2 20 -2 14 0 31 6 38 6 7 15 31 20 52
5 22 11 45 12 50 1 6 2 26 1 45 -1 27 -4 32 -11 20 -9 -13 -12 -12 -25 4 -9
12 -11 23 -5 31 11 13 1 29 -22 38 -20 7 -25 37 -6 37 6 0 -18 29 -53 65 -94
94 -149 161 -154 186 -5 23 -21 39 -40 39 -6 0 -21 18 -35 40 -14 22 -28 40
-33 40 -5 0 -37 29 -72 65 -36 36 -58 65 -51 65 7 0 19 -7 26 -15 8 -10 26
-13 56 -11 24 2 44 0 44 -4 0 -5 10 -6 23 -4 12 2 16 1 9 -2 -9 -4 0 -16 30
-35 23 -16 48 -29 55 -29 6 0 13 -6 16 -12 2 -7 8 -10 12 -6 4 4 -11 18 -33
32 -50 31 -56 41 -27 41 13 0 22 -2 20 -5 -2 -3 8 -10 21 -17 28 -13 30 -10 8
12 -23 22 -9 32 15 11 13 -12 21 -14 26 -6 5 8 13 6 27 -7 15 -14 37 -18 95
-19 41 0 78 -5 81 -11 7 -11 62 -15 62 -5 0 2 -8 11 -17 18 -17 12 -16 13 7
14 32 0 86 -48 106 -95 8 -19 13 -36 12 -37 -1 -2 13 -19 31 -38 17 -19 40
-53 50 -75 10 -23 32 -53 50 -68 20 -16 30 -32 25 -39 -4 -7 -4 -10 1 -6 9 9
34 -32 28 -45 -3 -4 -14 -5 -25 -1 -13 4 -18 2 -14 -5 4 -6 -8 -17 -29 -25
-39 -17 -54 -41 -35 -59 9 -9 11 -8 8 7 -2 15 9 25 54 44 36 16 63 22 75 17
31 -13 49 -12 104 7 l54 18 -63 -5 c-35 -4 -69 -8 -76 -11 -7 -3 -17 10 -24
30 -7 19 -24 45 -38 58 -29 26 -112 150 -166 249 -48 86 -74 97 -218 95 -71
-1 -114 2 -133 12 -15 7 -54 12 -85 12 -31 -1 -82 5 -112 13 -66 18 -140 27
-160 21z m-332 -71 c-10 -2 -26 -2 -35 0 -10 3 -2 5 17 5 19 0 27 -2 18 -5z
m135 -10 c-13 -2 -35 -2 -50 0 -16 2 -5 4 22 4 28 0 40 -2 28 -4z m60 0 c-7
-2 -19 -2 -25 0 -7 3 -2 5 12 5 14 0 19 -2 13 -5z m-252 -111 c-9 -25 -9 -24
-10 18 0 36 2 41 10 27 7 -12 7 -27 0 -45z m889 -561 c0 -6 -4 -12 -8 -15 -5
-3 -9 1 -9 9 0 8 4 15 9 15 4 0 8 -4 8 -9z m-409 -213 c-13 -4 -27 -5 -33 -2
-16 10 11 22 35 16 20 -5 20 -5 -2 -14z"/>
<path d="M478 3525 c-7 -9 -20 -24 -29 -33 -8 -9 -21 -32 -28 -49 -15 -37 -27
-34 -47 11 l-15 31 6 -30 c11 -50 55 -87 55 -46 0 22 43 89 73 113 12 10 17
18 10 18 -7 0 -18 -7 -25 -15z"/>
<path d="M615 3510 c10 -11 20 -20 23 -20 3 0 -3 9 -13 20 -10 11 -20 20 -23
20 -3 0 3 -9 13 -20z"/>
<path d="M500 3510 c-8 -5 -12 -11 -9 -14 3 -3 14 1 25 9 21 16 8 20 -16 5z"/>
<path d="M1303 3485 c0 -8 5 -13 11 -12 6 1 10 -4 8 -11 -1 -8 2 -11 7 -7 6 3
25 -9 43 -28 18 -18 25 -24 16 -12 -10 12 -18 25 -18 30 0 8 -23 28 -51 45
-11 6 -16 5 -16 -5z"/>
<path d="M570 3465 c13 -14 26 -25 28 -25 3 0 -5 11 -18 25 -13 14 -26 25 -28
25 -3 0 5 -11 18 -25z"/>
<path d="M603 3467 c9 -14 17 -33 17 -40 0 -8 7 -20 15 -27 8 -7 15 -9 15 -6
0 14 -40 85 -52 92 -7 5 -5 -4 5 -19z"/>
<path d="M290 3455 c0 -8 4 -15 10 -15 5 0 7 7 4 15 -4 8 -8 15 -10 15 -2 0
-4 -7 -4 -15z"/>
<path d="M2767 3460 c-3 -8 -16 -49 -27 -90 -12 -41 -31 -95 -42 -120 -11 -25
-26 -61 -33 -81 -7 -20 -23 -55 -35 -78 -28 -56 -20 -62 14 -11 14 22 30 40
35 40 4 0 13 18 20 40 7 25 16 38 23 34 6 -4 8 -3 4 4 -6 11 0 34 53 182 17
47 24 77 16 70 -10 -8 -14 -7 -18 7 -3 15 -5 15 -10 3z"/>
<path d="M1630 3441 c0 -6 4 -13 10 -16 6 -3 7 1 4 9 -7 18 -14 21 -14 7z"/>
<path d="M476 3431 c-4 -7 -5 -15 -2 -18 9 -9 19 4 14 18 -4 11 -6 11 -12 0z"/>
<path d="M504 3400 c0 -23 3 -34 8 -27 10 16 10 54 0 61 -5 3 -8 -13 -8 -34z"/>
<path d="M573 3404 c21 -14 36 -31 34 -38 -3 -6 2 -21 10 -31 15 -19 15 -18 9
13 -6 34 -50 81 -76 82 -8 0 2 -12 23 -26z"/>
<path d="M305 3396 c17 -28 17 -29 -1 -23 -18 7 -18 6 -1 -7 10 -8 14 -17 9
-20 -12 -7 -21 -66 -10 -66 4 0 8 14 8 30 0 17 5 30 11 30 6 0 9 6 6 14 -3 8
-2 16 2 18 4 2 -3 14 -17 28 l-25 25 18 -29z"/>
<path d="M1741 3349 c36 -41 73 -85 82 -99 10 -14 17 -18 17 -10 -1 17 -8 27
-70 99 -25 29 -56 59 -70 68 -14 9 5 -17 41 -58z"/>
<path d="M1457 3399 c7 -7 15 -10 18 -7 3 3 -2 9 -12 12 -14 6 -15 5 -6 -5z"/>
<path d="M1545 3390 c10 -11 20 -20 23 -20 3 0 -3 9 -13 20 -10 11 -20 20 -23
20 -3 0 3 -9 13 -20z"/>
<path d="M1420 3381 c0 -6 4 -13 10 -16 6 -3 7 1 4 9 -7 18 -14 21 -14 7z"/>
<path d="M1580 3382 c0 -12 19 -26 26 -19 2 2 -2 10 -11 17 -9 8 -15 8 -15 2z"/>
<path d="M345 3340 c3 -5 8 -10 11 -10 2 0 4 5 4 10 0 6 -5 10 -11 10 -5 0 -7
-4 -4 -10z"/>
<path d="M470 3339 c0 -5 5 -7 10 -4 6 3 10 8 10 11 0 2 -4 4 -10 4 -5 0 -10
-5 -10 -11z"/>
<path d="M2675 3310 c-30 -47 -80 -169 -72 -176 3 -3 8 5 13 18 4 13 15 42 25
66 10 23 19 46 19 50 1 4 7 14 14 22 17 19 38 60 31 60 -2 0 -16 -18 -30 -40z"/>
<path d="M586 3298 c-3 -17 -16 -44 -29 -58 l-22 -25 27 24 c25 21 47 76 35
87 -2 3 -7 -10 -11 -28z"/>
<path d="M665 3287 c-4 -26 -18 -64 -31 -83 -33 -49 -30 -54 6 -9 30 38 45 88
38 122 -3 10 -8 -4 -13 -30z"/>
<path d="M2781 3315 c-1 -11 -4 -38 -7 -60 -4 -32 -2 -36 6 -22 6 9 9 36 7 60
-2 23 -4 33 -6 22z"/>
<path d="M302 3240 c0 -19 2 -27 5 -17 2 9 2 25 0 35 -3 9 -5 1 -5 -18z"/>
<path d="M1960 3249 c0 -5 5 -7 10 -4 6 3 10 8 10 11 0 2 -4 4 -10 4 -5 0 -10
-5 -10 -11z"/>
<path d="M1536 3227 c18 -31 77 -97 87 -97 6 0 -6 17 -26 38 -20 21 -37 43
-37 49 0 6 -7 14 -16 17 -10 4 -13 2 -8 -7z"/>
<path d="M1590 3220 c-11 -7 -12 -10 -2 -10 8 0 33 -16 56 -35 24 -19 46 -35
49 -35 16 0 136 -83 131 -91 -3 -5 0 -8 8 -7 7 2 12 -3 10 -11 -3 -12 0 -12
12 -2 12 10 17 8 27 -11 7 -13 12 -26 11 -30 -1 -5 2 -8 7 -8 5 0 11 -14 15
-31 4 -24 10 -30 22 -25 16 6 32 -7 54 -45 12 -21 -33 -74 -55 -65 -17 6 -21
-9 -5 -19 6 -4 25 6 43 21 26 22 33 24 35 11 3 -17 32 -32 32 -17 0 6 -4 10
-10 10 -5 0 -10 6 -10 13 0 6 -7 25 -15 41 -8 15 -13 31 -11 35 4 6 -19 32
-29 31 -3 0 -9 0 -14 0 -5 0 -21 25 -37 56 -16 31 -39 61 -51 67 -13 6 -23 17
-24 26 0 9 -3 11 -5 4 -4 -8 -13 -7 -35 5 -16 9 -29 21 -29 25 0 5 -4 5 -10 2
-5 -3 -10 -1 -10 4 0 6 -21 22 -47 35 -27 13 -56 34 -65 45 -20 23 -26 25 -48
11z"/>
<path d="M2563 3216 c-6 -8 -16 -42 -23 -77 -6 -35 -18 -95 -27 -132 -20 -85
-12 -98 11 -17 9 33 21 60 26 60 10 0 34 69 27 76 -3 3 -8 -8 -12 -25 -4 -17
-10 -33 -15 -36 -8 -5 1 44 17 85 26 67 24 98 -4 66z"/>
<path d="M2693 3012 c-51 -108 -106 -231 -122 -272 -42 -107 -117 -267 -129
-274 -6 -4 -16 -31 -23 -61 -13 -58 -19 -64 -43 -40 -8 8 -21 15 -30 15 -21 0
-66 21 -66 32 0 4 -6 7 -12 5 -7 -1 -12 6 -10 15 1 9 -2 19 -8 23 -5 3 -7 0
-4 -9 8 -20 -28 -10 -55 15 -12 11 -21 17 -21 13 0 -3 -7 -1 -15 6 -9 7 -18
10 -21 7 -13 -13 184 -127 281 -162 28 -10 56 -23 64 -29 12 -9 13 -7 8 7 -4
10 -7 23 -7 27 0 5 -13 7 -29 5 -25 -3 -30 0 -29 18 0 28 3 33 81 197 35 74
68 146 72 160 4 14 32 76 61 138 30 62 54 115 54 118 0 15 103 214 110 214 11
0 -43 -123 -157 -358 -35 -73 -61 -137 -57 -144 4 -7 3 -8 -4 -4 -7 4 -12 1
-12 -8 0 -58 39 10 124 214 19 47 58 130 86 184 27 55 50 111 50 125 0 21 -2
23 -11 11 -8 -11 -12 -12 -16 -2 -2 6 -8 12 -11 12 -4 0 -48 -89 -99 -198z"/>
<path d="M460 3183 l-35 -14 34 6 c34 5 49 12 40 18 -2 2 -20 -3 -39 -10z"/>
<path d="M393 3162 c-23 -19 -69 -110 -60 -118 3 -3 13 16 22 41 10 25 29 55
43 66 14 10 23 21 20 24 -3 3 -14 -3 -25 -13z"/>
<path d="M1890 3176 c0 -2 8 -10 18 -17 15 -13 16 -12 3 4 -13 16 -21 21 -21
13z"/>
<path d="M2716 3155 c-13 -19 -13 -23 -2 -19 8 3 16 14 19 25 7 25 3 24 -17
-6z"/>
<path d="M548 3131 c-17 -13 -44 -21 -83 -23 -48 -2 -60 -7 -73 -26 l-16 -24
35 21 c19 12 52 21 74 21 27 1 50 9 70 25 35 29 29 34 -7 6z"/>
<path d="M595 3139 c-4 -6 -5 -12 -2 -15 2 -3 7 2 10 11 7 17 1 20 -8 4z"/>
<path d="M478 3128 c6 -6 18 -8 28 -6 14 3 12 5 -9 10 -19 3 -25 2 -19 -4z"/>
<path d="M1807 3119 c7 -7 15 -10 18 -7 3 3 -2 9 -12 12 -14 6 -15 5 -6 -5z"/>
<path d="M1462 3084 c-44 -34 -72 -45 -56 -21 5 7 -2 1 -16 -14 -33 -36 -77
-62 -89 -55 -6 4 -1 21 12 43 25 43 30 66 14 60 -7 -2 -21 -27 -32 -55 -19
-50 -38 -65 -48 -39 -4 9 -6 9 -6 -1 -1 -18 -21 -4 -21 15 0 9 6 13 15 9 9 -3
15 0 15 10 0 10 -6 14 -14 11 -8 -3 -17 -1 -20 6 -2 7 -5 -9 -5 -34 -1 -25 -4
-48 -7 -52 -3 -3 -19 -1 -36 5 -21 7 -36 7 -51 0 -38 -18 -65 -23 -72 -12 -3
5 -11 10 -18 10 -6 0 -2 -6 8 -14 13 -10 36 -12 77 -8 40 3 58 1 58 -7 0 -6
-8 -11 -17 -11 -15 0 -16 -2 -3 -9 8 -6 18 -7 23 -4 5 3 7 0 5 -8 -3 -8 -17
-13 -34 -12 -16 1 -21 -1 -11 -3 23 -7 22 -24 -2 -24 -21 0 -36 46 -17 54 7 3
7 5 0 5 -5 1 -19 -6 -30 -14 -16 -13 -16 -14 -1 -9 12 4 17 1 17 -11 0 -9 -4
-13 -10 -10 -5 3 -7 0 -4 -8 3 -8 14 -17 25 -20 19 -5 23 -12 33 -58 9 -40 75
-57 116 -29 49 33 54 31 16 -5 -34 -33 -42 -37 -75 -31 -25 4 -31 2 -21 -4 28
-18 74 -11 105 16 25 22 37 25 70 20 22 -3 47 0 55 5 12 9 10 10 -8 6 -12 -3
-37 2 -54 11 -39 19 -19 29 23 12 16 -7 33 -10 37 -6 9 10 -20 27 -35 21 -7
-2 -22 13 -33 35 -11 22 -18 40 -15 40 10 0 80 -47 106 -72 14 -13 34 -45 44
-71 10 -26 21 -47 25 -47 5 0 7 6 5 13 -13 59 -18 74 -28 88 -18 24 -137 99
-158 99 -32 0 -70 23 -64 38 4 10 0 13 -15 9 -11 -3 -22 -1 -25 3 -7 11 24 26
45 24 8 -1 22 -2 31 -3 9 0 21 -12 27 -26 6 -14 16 -25 22 -25 6 0 30 -14 53
-30 79 -57 116 -79 110 -65 -2 8 -12 17 -22 20 -9 2 -32 19 -51 36 -18 17 -47
36 -62 41 -25 9 -27 12 -16 26 11 13 10 15 -4 9 -10 -3 -20 -2 -22 2 -6 10 23
38 44 43 8 2 21 9 28 16 7 6 22 12 32 12 10 0 20 4 22 9 2 5 29 11 61 13 31 1
57 6 57 11 0 14 -44 25 -62 15 -21 -10 -22 -5 -8 23 13 24 13 24 -38 -17z
m-262 -138 c0 -3 -4 -8 -10 -11 -5 -3 -10 -1 -10 4 0 6 5 11 10 11 6 0 10 -2
10 -4z m25 -26 c-3 -5 1 -10 10 -10 22 0 95 -58 95 -75 0 -19 -49 -33 -108
-30 -50 3 -70 -8 -34 -19 13 -4 12 -4 -3 -3 -12 2 -19 10 -19 20 1 9 -3 17 -8
17 -15 0 2 42 31 77 24 29 50 46 36 23z m12 -146 c-3 -3 -12 -4 -19 -1 -8 3
-5 6 6 6 11 1 17 -2 13 -5z"/>
<path d="M1690 3100 c0 -6 7 -10 15 -10 8 0 15 2 15 4 0 2 -7 6 -15 10 -8 3
-15 1 -15 -4z"/>
<path d="M2465 3030 c-20 -45 -35 -83 -32 -86 3 -3 15 16 27 43 12 26 29 63
37 81 9 18 14 35 11 37 -3 3 -22 -31 -43 -75z"/>
<path d="M1955 3073 c15 -32 25 -42 25 -24 0 5 -9 19 -20 32 l-21 24 16 -32z"/>
<path d="M2675 3089 c-4 -6 -5 -12 -2 -15 2 -3 7 2 10 11 7 17 1 20 -8 4z"/>
<path d="M2801 3050 c-6 -28 -11 -59 -11 -70 0 -29 -11 -50 -23 -43 -6 4 -8 0
-4 -10 6 -16 -4 -22 -28 -17 -5 1 -7 -2 -3 -5 4 -4 1 -19 -6 -34 -7 -14 -11
-32 -8 -40 2 -7 20 14 42 52 27 47 41 86 49 138 13 84 8 103 -8 29z"/>
<path d="M302 3065 c0 -16 2 -22 5 -12 2 9 2 23 0 30 -3 6 -5 -1 -5 -18z"/>
<path d="M507 3069 c-17 -13 -37 -19 -52 -17 -57 11 -90 -86 -60 -173 21 -58
95 -136 95 -99 0 6 -6 10 -14 10 -7 0 -26 19 -42 43 -24 35 -29 53 -30 110 -2
73 13 103 47 94 9 -3 37 8 61 24 23 16 39 29 33 29 -5 -1 -23 -10 -38 -21z"/>
<path d="M465 3070 c-3 -6 1 -7 9 -4 18 7 21 14 7 14 -6 0 -13 -4 -16 -10z"/>
<path d="M2637 3034 c-10 -19 -12 -32 -7 -29 12 7 33 55 27 61 -2 2 -11 -12
-20 -32z"/>
<path d="M1737 3041 c3 -12 9 -21 14 -21 14 0 11 16 -5 29 -12 10 -13 8 -9 -8z"/>
<path d="M2352 3049 c-104 -12 -202 -44 -263 -85 -29 -19 -58 -33 -65 -30 -8
3 -10 -3 -6 -17 3 -12 7 -16 10 -9 2 6 10 12 18 12 8 0 14 5 14 10 0 5 3 9 8
8 4 -1 24 6 46 15 21 9 50 15 65 12 26 -5 26 -5 2 5 -13 6 -22 12 -20 15 3 2
38 11 79 20 137 30 129 31 85 -3 -23 -18 -42 -26 -46 -20 -11 17 -19 10 -62
-53 -23 -34 -51 -67 -62 -73 -11 -6 -23 -16 -28 -23 -4 -7 -15 -20 -24 -29
-16 -16 -18 -14 -34 22 -10 22 -18 32 -18 24 -1 -8 9 -32 22 -52 l22 -37 24
35 c16 23 29 33 40 29 8 -3 12 -3 8 1 -8 8 21 44 35 44 4 0 8 -9 8 -20 0 -11
3 -20 8 -20 9 0 32 -49 32 -69 0 -9 -8 -37 -17 -63 l-17 -48 -25 23 c-13 12
-21 17 -17 10 4 -7 -2 -13 -16 -16 -19 -3 -15 -7 25 -26 27 -13 50 -21 51 -19
5 8 29 107 34 137 5 36 -34 135 -50 125 -4 -3 -8 -1 -8 3 0 5 9 14 20 21 11 7
20 20 20 30 0 25 11 34 26 21 9 -7 28 1 72 31 48 32 97 74 81 69 -2 -1 -37 -5
-77 -10z"/>
<path d="M1095 3023 c-16 -14 -30 -32 -31 -40 -2 -14 25 11 55 50 19 24 11 21
-24 -10z"/>
<path d="M1564 3026 c-5 -13 -15 -15 -54 -10 -48 6 -76 -2 -112 -34 -20 -17
-15 -34 7 -26 8 4 13 10 10 14 -3 4 2 14 11 21 13 10 17 10 25 -2 6 -10 9 -11
9 -1 0 7 4 11 9 8 5 -4 11 -2 13 2 1 5 14 6 27 2 l25 -6 -31 -33 c-18 -21 -35
-31 -42 -27 -6 4 -9 12 -6 17 4 5 -1 9 -9 9 -9 0 -16 -5 -16 -11 0 -5 -4 -8
-9 -4 -5 3 -12 1 -16 -4 -7 -12 26 -31 55 -31 30 0 132 111 117 127 -4 3 -9
-2 -13 -11z"/>
<path d="M2573 3014 c-7 -14 -9 -33 -6 -41 5 -12 3 -14 -7 -8 -9 5 -11 4 -6
-3 11 -18 23 -14 29 8 3 11 1 18 -4 14 -5 -3 -9 -1 -9 5 0 5 7 14 15 18 8 5
11 14 7 20 -5 7 -11 3 -19 -13z"/>
<path d="M321 3013 c0 -12 -5 -25 -11 -28 -13 -8 -13 -45 0 -45 6 0 10 -6 9
-12 -1 -7 3 -26 9 -41 7 -16 12 -33 12 -39 0 -36 99 -128 137 -128 10 0 0 9
-22 19 -69 32 -115 112 -125 221 -4 41 -8 65 -9 53z"/>
<path d="M1165 3021 c-3 -5 -1 -12 5 -16 5 -3 10 1 10 9 0 18 -6 21 -15 7z"/>
<path d="M1801 3013 c-1 -17 16 -25 25 -12 4 7 3 9 -4 5 -5 -3 -13 0 -15 6 -4
9 -6 10 -6 1z"/>
<path d="M1632 2970 c0 -14 2 -19 5 -12 2 6 2 18 0 25 -3 6 -5 1 -5 -13z"/>
<path d="M2361 2923 c-11 -38 -32 -117 -46 -178 -14 -60 -29 -123 -34 -140
-21 -68 -22 -75 -14 -75 5 0 15 23 22 51 7 27 15 48 18 46 2 -3 -5 -40 -16
-83 -19 -71 -21 -97 -5 -81 4 3 10 23 15 44 4 21 15 70 24 108 9 39 20 97 24
130 5 33 14 78 19 100 11 41 24 145 18 145 -2 0 -13 -30 -25 -67z m-34 -235
c-3 -8 -6 -5 -6 6 -1 11 2 17 5 13 3 -3 4 -12 1 -19z"/>
<path d="M1876 2967 c3 -10 9 -15 12 -12 3 3 0 11 -7 18 -10 9 -11 8 -5 -6z"/>
<path d="M1815 2960 c4 -6 1 -17 -5 -25 -9 -11 -9 -15 -1 -15 6 0 11 5 11 10
0 6 6 10 14 10 8 0 18 5 22 12 5 8 2 9 -9 5 -10 -3 -17 -2 -17 3 0 6 -5 10
-11 10 -5 0 -7 -5 -4 -10z"/>
<path d="M2475 2923 c-4 -21 -22 -75 -41 -120 -41 -101 -125 -355 -119 -361 2
-3 9 7 15 22 5 14 15 38 20 52 6 15 13 24 16 21 7 -7 -14 -75 -32 -104 -9 -14
-10 -23 -4 -23 21 0 38 55 96 308 9 39 20 72 25 72 9 0 24 53 34 123 7 56 0
63 -10 10z"/>
<path d="M997 2939 c7 -7 15 -10 18 -7 3 3 -2 9 -12 12 -14 6 -15 5 -6 -5z"/>
<path d="M2833 2888 c-22 -35 -66 -106 -98 -158 -57 -96 -184 -294 -219 -344
-10 -15 -16 -29 -12 -33 6 -7 40 33 71 84 11 18 47 77 81 131 33 53 82 134
109 180 26 45 52 82 56 82 5 0 9 -2 9 -4 0 -10 -193 -325 -272 -445 -40 -58
-44 -71 -28 -71 13 0 81 92 77 104 -3 6 15 38 38 71 24 33 53 78 65 100 28 49
122 211 166 285 18 30 30 57 27 60 -3 3 -8 -1 -10 -7 -8 -22 -25 -14 -18 7 10
33 1 23 -42 -42z m16 -31 c-7 -15 -16 -24 -20 -21 -5 3 -1 16 8 29 22 29 27
26 12 -8z"/>
<path d="M1277 2929 c7 -7 15 -10 18 -7 3 3 -2 9 -12 12 -14 6 -15 5 -6 -5z"/>
<path d="M2120 2929 c0 -5 5 -7 10 -4 6 3 10 8 10 11 0 2 -4 4 -10 4 -5 0 -10
-5 -10 -11z"/>
<path d="M2407 2924 c-10 -35 -19 -119 -12 -112 8 8 13 34 14 71 1 16 5 26 11
22 12 -8 13 5 1 24 -7 11 -10 10 -14 -5z"/>
<path d="M1645 2909 c-4 -11 -4 -23 -1 -26 3 -4 6 -1 6 6 0 7 4 10 8 7 4 -2 8
4 8 15 0 25 -13 24 -21 -2z"/>
<path d="M1850 2923 c0 -14 31 -46 37 -39 3 3 -4 15 -16 27 -12 13 -21 18 -21
12z"/>
<path d="M1680 2910 c0 -5 5 -10 11 -10 5 0 7 5 4 10 -3 6 -8 10 -11 10 -2 0
-4 -4 -4 -10z"/>
<path d="M1055 2891 c6 -10 4 -13 -7 -9 -11 5 -14 0 -10 -19 3 -16 1 -24 -5
-20 -5 3 -10 -7 -10 -23 0 -17 1 -30 3 -30 1 0 12 21 24 46 18 37 20 48 10 57
-10 9 -11 9 -5 -2z"/>
<path d="M2571 2884 c0 -11 3 -14 6 -6 3 7 2 16 -1 19 -3 4 -6 -2 -5 -13z"/>
<path d="M301 2838 c1 -55 5 -50 11 15 2 20 0 37 -4 37 -4 0 -7 -24 -7 -52z"/>
<path d="M745 2865 l-30 -13 44 -1 c31 -1 54 -9 78 -27 l34 -26 -7 29 c-4 15
-11 34 -17 41 -12 16 -64 15 -102 -3z"/>
<path d="M1660 2870 c0 -6 -16 -20 -35 -32 -20 -11 -42 -32 -49 -47 -19 -37
-30 -111 -17 -111 6 0 11 -5 11 -11 0 -5 -4 -8 -9 -5 -5 4 -7 -4 -3 -16 5 -21
6 -21 13 -2 4 10 5 37 2 60 -5 42 11 89 41 113 22 19 20 4 -4 -26 -11 -14 -20
-35 -19 -47 1 -16 3 -15 9 8 5 16 23 41 41 56 30 24 47 70 27 70 -4 0 -8 -5
-8 -10z m5 -30 c-3 -5 -11 -10 -16 -10 -6 0 -7 5 -4 10 3 6 11 10 16 10 6 0 7
-4 4 -10z"/>
<path d="M2878 2830 c-9 -25 -19 -64 -23 -88 -4 -23 -11 -40 -15 -37 -7 5 -18
-16 -20 -37 -1 -4 -15 -22 -32 -40 -29 -31 -133 -165 -152 -197 -38 -61 119
123 197 231 16 21 38 70 49 109 23 83 20 125 -4 59z"/>
<path d="M1560 2844 c0 -8 5 -12 10 -9 6 4 8 11 5 16 -9 14 -15 11 -15 -7z"/>
<path d="M1690 2848 c0 -9 5 -20 10 -23 13 -8 13 5 0 25 -8 13 -10 13 -10 -2z"/>
<path d="M1853 2853 c-16 -6 -17 -43 -2 -43 6 0 9 7 5 15 -3 9 0 15 8 15 8 0
16 -6 19 -12 2 -7 8 -10 12 -6 4 4 2 14 -5 23 -13 16 -17 17 -37 8z"/>
<path d="M1057 2810 c-3 -11 -1 -23 4 -26 5 -3 9 6 9 20 0 31 -6 34 -13 6z"/>
<path d="M2745 2819 c-11 -17 -2 -18 19 -3 17 12 17 14 4 14 -9 0 -20 -5 -23
-11z"/>
<path d="M712 2808 c-19 -7 -41 -24 -52 -43 -28 -46 -87 -68 -135 -52 -17 6
-21 2 -22 -16 -3 -50 10 -187 18 -187 5 0 9 11 9 23 0 13 9 32 20 42 18 16 20
17 20 1 0 -20 61 -60 71 -45 7 11 39 -15 39 -32 0 -19 103 -110 111 -98 10 16
29 2 29 -22 0 -11 -4 -17 -10 -14 -15 9 -12 -11 3 -24 8 -6 20 -29 27 -51 7
-21 18 -37 23 -33 6 4 8 -2 5 -15 -5 -18 -2 -20 23 -17 32 4 37 -6 14 -25 -18
-15 -20 -69 -3 -105 11 -24 9 -29 -25 -61 -20 -20 -37 -39 -37 -44 0 -5 -15
-24 -34 -42 -22 -22 -40 -53 -51 -90 -9 -32 -21 -60 -26 -63 -5 -4 -9 -14 -9
-23 0 -9 -6 -28 -13 -42 -26 -50 -26 -68 2 -107 45 -65 53 -101 41 -195 -5
-45 -10 -87 -10 -93 0 -5 -11 8 -24 30 -21 35 -24 49 -20 105 l5 65 -26 -30
c-40 -46 -49 -65 -30 -65 8 0 15 6 15 14 0 8 4 17 9 20 10 7 -12 -84 -33 -135
-13 -32 -24 -115 -28 -216 -1 -23 -6 -39 -11 -36 -5 3 -6 50 -4 104 3 56 1
101 -4 104 -11 8 -2 47 22 99 14 28 16 43 8 57 -5 11 -13 19 -18 19 -8 0 -62
74 -118 164 -18 28 -37 50 -42 49 -6 -2 -10 3 -8 9 3 17 -37 22 -50 6 -6 -7
-16 -30 -21 -50 -9 -33 -8 -40 8 -51 11 -7 28 -34 39 -60 11 -26 27 -50 36
-53 22 -9 85 -98 105 -152 10 -26 22 -46 27 -45 4 1 7 -42 5 -95 -3 -78 0
-103 14 -130 19 -35 34 -28 34 17 0 23 2 22 36 -14 19 -21 60 -72 91 -114 72
-98 180 -209 217 -225 16 -6 49 -9 75 -6 39 4 47 9 49 29 5 35 -15 50 -24 17
-6 -25 -10 -27 -53 -24 -38 2 -45 6 -43 21 2 9 -2 16 -8 15 -28 -7 -164 136
-165 175 0 4 -4 7 -10 8 -15 1 -35 19 -47 43 -11 21 -11 21 11 2 11 -11 21
-16 21 -12 0 9 -81 91 -91 91 -13 0 -21 13 -15 24 4 6 20 2 41 -10 32 -19 36
-19 41 -5 16 43 -19 126 -53 126 -9 0 -5 -9 11 -27 14 -15 22 -31 19 -36 -3
-6 -1 -7 5 -3 8 5 12 -3 12 -23 0 -17 -4 -31 -10 -31 -14 0 -77 59 -64 60 6 0
19 -9 29 -20 10 -11 22 -20 27 -20 5 0 -6 16 -24 36 -18 20 -39 45 -45 57 -11
20 -12 18 -8 -17 2 -21 7 -47 11 -58 4 -14 2 -18 -5 -14 -7 5 -8 1 -4 -11 6
-15 4 -16 -9 -6 -8 7 -17 11 -19 9 -8 -8 3 159 12 176 5 9 9 23 9 32 0 8 5 27
10 42 l10 26 32 -43 c18 -24 31 -48 30 -52 -1 -5 1 -6 6 -3 5 3 19 -13 33 -35
22 -35 171 -247 218 -309 10 -14 45 -61 76 -105 32 -44 89 -112 127 -151 l69
-71 30 29 c16 16 29 34 29 39 0 5 7 9 16 9 8 0 13 4 9 9 -3 6 7 22 22 37 l28
27 -37 -27 c-37 -26 -38 -26 -38 -6 0 12 4 18 10 15 6 -4 10 -3 9 2 -2 16 13
53 21 48 5 -3 7 3 5 12 -14 67 -16 73 -35 73 -23 0 -68 -46 -76 -77 -4 -13
-10 -20 -15 -17 -5 3 -9 -5 -9 -18 1 -23 1 -23 23 4 12 15 33 41 46 58 15 20
27 28 33 22 12 -12 1 -72 -13 -72 -5 0 -9 -7 -9 -15 0 -9 -7 -18 -15 -21 -10
-4 -13 -13 -10 -25 4 -10 3 -25 -2 -33 -6 -12 -18 -5 -56 30 -26 25 -47 50
-47 56 0 7 9 21 20 33 l20 22 -24 13 c-14 7 -27 24 -29 39 -3 20 -4 18 -6 -10
-2 -54 -23 -66 -51 -29 -13 17 -27 30 -33 30 -5 0 -3 -8 4 -17 13 -16 12 -17
-3 -4 -10 7 -15 17 -12 22 5 9 -19 40 -27 36 -3 -1 14 15 36 37 22 21 31 32
20 25 -11 -8 -26 -20 -33 -26 -7 -7 -19 -13 -25 -13 -20 0 -108 102 -102 119
2 9 0 23 -6 31 -8 12 -10 10 -5 -9 7 -31 -1 -22 -67 79 -31 47 -67 99 -81 116
-27 34 -33 54 -15 54 6 0 9 6 6 13 -2 6 3 21 12 31 13 16 13 18 1 12 -9 -4 -8
-2 3 7 10 9 17 28 17 51 0 20 4 36 9 36 15 0 22 -30 11 -50 -16 -29 -13 -45 5
-30 13 10 17 7 30 -21 8 -20 14 -27 15 -16 0 10 -7 32 -16 50 -12 22 -13 32
-5 35 7 2 1 14 -16 29 -16 16 -29 21 -31 14 -6 -19 -19 -12 -24 14 -3 13 -2
22 2 20 5 -3 11 2 14 11 9 22 7 64 -2 64 -7 0 -11 20 -13 68 -1 12 -5 22 -10
22 -11 0 -11 -31 0 -48 9 -14 3 -62 -8 -62 -14 0 -53 90 -46 107 5 10 9 24 11
31 1 7 8 20 16 29 7 9 13 23 13 31 0 8 16 21 35 28 19 7 29 13 21 13 -10 1
-11 4 -2 15 6 7 9 21 5 30 -3 9 -1 16 6 16 6 0 9 -3 7 -7 -3 -5 1 -14 9 -21 8
-7 14 -8 14 -2 0 5 6 10 14 10 7 0 27 7 42 15 35 18 54 19 54 3 0 -6 6 -4 13
7 8 10 19 15 26 11 12 -8 10 29 -2 39 -4 3 -5 2 -2 -1 9 -13 -23 -32 -47 -27
-15 3 -31 -2 -41 -11 -21 -22 -67 -39 -67 -25 0 10 139 79 160 79 12 0 33 -48
25 -60 -3 -5 -2 -10 3 -12 4 -1 18 -29 30 -62 19 -49 20 -57 6 -52 -8 3 -20 6
-25 6 -4 0 -6 8 -3 18 5 16 5 16 -6 0 -6 -10 -16 -18 -22 -18 -6 0 -3 11 6 25
20 31 21 61 0 69 -22 8 -34 7 -34 -3 0 -5 8 -8 17 -7 12 0 19 -7 21 -21 2 -13
-1 -23 -7 -23 -6 0 -11 -7 -11 -15 0 -8 -8 -15 -17 -15 -13 0 -14 3 -5 12 17
17 15 38 -4 38 -10 0 -14 -6 -11 -15 8 -18 -13 -32 -23 -15 -4 7 -5 21 -3 31
4 15 0 19 -20 19 -14 0 -28 -7 -31 -17 -7 -18 12 -35 32 -28 6 2 12 -2 12 -10
0 -8 8 -15 18 -16 14 0 14 -1 -3 -8 -11 -5 -38 -11 -59 -15 -36 -7 -38 -6 -27
8 8 9 20 16 28 16 8 0 11 5 8 11 -4 6 -13 8 -20 5 -20 -7 -26 5 -12 23 10 14
10 14 -5 3 -9 -7 -15 -21 -14 -30 2 -9 -4 -27 -12 -40 -12 -18 -17 -20 -24
-10 -6 8 -7 4 -2 -12 6 -22 5 -23 -10 -11 -21 17 -21 7 0 -14 15 -15 17 -14
28 6 13 26 132 59 186 52 49 -6 82 -24 75 -41 -3 -10 1 -12 16 -7 14 5 19 3
15 -3 -3 -6 -29 -16 -56 -23 -28 -7 -50 -16 -50 -21 0 -4 5 -8 10 -8 34 0 -23
-84 -64 -94 -29 -7 -35 -26 -43 -137 -6 -91 4 -130 51 -191 37 -47 57 -77 56
-84 -1 -3 7 -13 18 -22 10 -9 21 -25 25 -34 3 -10 11 -18 17 -18 6 0 9 -4 6
-8 -2 -4 16 -19 42 -32 26 -14 51 -30 55 -37 4 -7 15 -13 22 -13 8 0 15 -4 15
-8 0 -4 11 -9 26 -10 14 -1 34 -6 44 -12 28 -15 96 -12 110 5 7 8 19 15 28 15
8 0 12 3 9 6 -9 9 50 40 101 53 23 7 48 18 56 27 9 8 20 12 26 9 6 -4 9 -1 8
7 -2 8 5 12 17 10 16 -2 17 -1 5 7 -12 8 -7 13 22 26 21 8 41 15 45 15 5 0 20
11 35 25 16 14 33 22 42 19 11 -4 16 0 16 10 0 9 7 16 15 16 8 0 15 5 15 11 0
5 5 7 10 4 6 -3 10 -3 10 2 0 4 16 19 35 32 43 29 83 84 124 168 17 33 36 63
43 66 10 4 10 6 1 6 -7 1 -30 -27 -50 -61 -53 -87 -146 -183 -223 -229 -36
-22 -72 -44 -80 -49 -8 -5 -67 -34 -130 -65 -63 -31 -131 -69 -150 -84 -63
-50 -68 -51 -146 -27 -39 13 -87 35 -106 50 -19 14 -39 26 -44 26 -10 0 -65
63 -104 120 -13 19 -30 39 -37 43 -7 4 -13 15 -13 22 0 8 -4 15 -9 15 -5 0
-12 8 -15 18 -3 9 -13 28 -22 42 -12 20 -14 44 -10 111 3 48 8 93 11 101 7 17
46 22 44 5 -1 -7 -1 -18 0 -26 2 -24 14 -3 16 30 2 17 14 43 29 58 14 15 26
35 26 45 0 26 142 77 156 55 3 -5 10 -7 15 -3 6 3 27 3 46 -1 27 -5 33 -9 22
-16 -11 -7 -9 -9 8 -9 41 0 35 -21 -25 -79 -33 -32 -68 -70 -77 -85 -10 -15
-20 -25 -22 -22 -10 10 23 55 86 114 60 58 62 61 21 34 -25 -17 -57 -43 -72
-59 -27 -28 -80 -134 -92 -185 -11 -47 1 -31 19 25 10 28 22 57 27 62 12 11 4
-20 -18 -73 -7 -17 -15 -60 -18 -95 l-5 -62 15 65 c28 118 54 176 106 234 27
31 60 59 72 62 14 3 22 14 24 30 3 44 89 153 120 154 15 0 16 26 0 36 -7 4 -8
3 -4 -4 4 -7 2 -12 -3 -12 -6 0 -11 14 -11 30 0 17 -4 30 -8 30 -4 0 -6 -16
-4 -35 3 -23 0 -35 -8 -35 -7 0 -10 8 -7 20 3 11 1 20 -3 20 -4 0 -8 23 -8 50
-1 28 3 48 8 45 9 -5 22 25 25 58 2 25 -2 21 -24 -20 -28 -57 -33 -93 -18
-150 13 -51 13 -63 -4 -63 -8 0 -31 101 -31 138 0 12 -5 22 -11 22 -9 0 -5
-59 9 -115 5 -22 3 -25 -21 -25 -14 0 -24 -4 -20 -10 4 -6 15 -6 30 0 22 8 25
7 25 -14 0 -24 -42 -71 -53 -59 -4 3 -26 8 -50 11 -48 4 -52 6 -41 23 4 7 8
24 9 38 6 78 30 188 44 200 14 12 14 13 -1 8 -10 -4 -18 -3 -18 1 0 9 40 36
60 39 8 2 26 5 40 7 14 2 25 5 25 6 0 3 39 12 57 13 9 1 15 4 13 8 -6 9 45 30
56 23 13 -8 56 32 76 69 9 18 20 27 31 24 9 -2 37 4 62 13 77 30 215 23 313
-15 14 -6 16 -3 11 11 -5 15 -4 16 4 4 6 -8 9 -17 6 -21 -2 -4 5 -14 16 -22
12 -8 43 -35 69 -60 39 -37 50 -43 55 -31 9 23 7 27 -8 21 -8 -3 -28 14 -49
41 -78 103 -73 100 -243 104 -115 2 -155 0 -167 -10 -9 -8 -22 -10 -28 -6 -7
4 -9 3 -6 -3 4 -5 -7 -10 -24 -10 -31 0 -31 0 -8 12 55 29 219 84 264 90 29 4
62 2 78 -4 38 -15 197 -131 197 -143 0 -15 67 -87 74 -80 3 3 6 -4 6 -15 0
-11 3 -23 8 -27 4 -4 8 -12 8 -17 1 -5 3 -10 4 -11 1 -2 4 -12 6 -23 1 -11 7
-33 13 -50 9 -27 10 -24 7 22 -4 62 -42 147 -93 211 -52 65 -60 72 -67 65 -3
-4 -6 -1 -6 6 0 7 -4 10 -9 7 -5 -4 -11 -3 -13 2 -1 4 -19 17 -38 30 -29 18
-31 22 -14 22 34 0 87 -22 125 -52 64 -51 154 -264 144 -343 -2 -16 -6 -67
-10 -111 -9 -105 -24 -131 -26 -44 -1 61 -2 63 -10 25 -4 -22 -11 -89 -14
-150 -4 -60 -12 -114 -17 -120 -8 -7 -9 -5 -5 8 4 9 2 17 -4 17 -5 0 -9 -17
-9 -37 0 -21 -4 -60 -10 -88 -15 -72 -23 -204 -12 -185 13 20 33 186 25 208
-3 9 -2 13 2 9 5 -4 15 3 22 15 12 20 13 20 8 3 -3 -11 -9 -56 -15 -100 -15
-119 -29 -193 -49 -265 -11 -36 -27 -128 -36 -205 -17 -146 -27 -185 -46 -185
-7 0 -8 7 -4 18 10 22 19 199 11 191 -4 -4 -9 -29 -12 -55 -3 -27 -6 -58 -8
-69 -2 -11 -4 -34 -5 -52 0 -17 -7 -38 -14 -45 -7 -7 -19 -22 -25 -33 -10 -16
-11 -9 -7 40 8 73 11 96 23 157 5 26 7 49 5 52 -2 2 3 55 11 117 8 63 17 150
20 194 3 44 10 139 16 210 18 229 -8 384 -80 471 -116 140 -236 181 -392 134
-89 -26 -198 -76 -198 -90 0 -7 6 -7 20 0 11 6 20 8 20 5 0 -4 13 3 30 15 16
11 62 33 102 47 146 51 260 28 361 -72 69 -69 84 -104 91 -214 7 -100 16 -135
16 -61 0 66 8 44 14 -42 4 -47 2 -79 -4 -83 -5 -3 -10 -12 -10 -18 0 -8 4 -7
9 2 6 9 8 -14 5 -60 -10 -143 -12 -185 -17 -299 -3 -63 -12 -151 -21 -195 -29
-144 -46 -280 -45 -350 l2 -68 18 24 c11 13 23 40 29 59 5 19 14 42 19 50 9
12 11 12 16 -2 6 -14 9 -13 31 7 20 19 24 32 24 83 0 56 33 282 46 316 3 8 17
22 30 31 13 8 35 32 49 53 24 37 24 37 9 112 -9 41 -20 82 -25 92 -9 16 11
239 26 301 7 24 35 39 35 18 0 -5 8 -12 18 -15 9 -4 29 -13 44 -22 32 -17 67
-11 98 18 29 28 23 60 -15 71 -76 22 -100 40 -106 82 -6 39 -6 39 -8 6 -1 -29
-3 -32 -16 -21 -20 16 -19 26 6 61 l20 29 44 -43 c24 -24 58 -50 75 -57 l32
-13 -6 -121 c-7 -112 -18 -209 -32 -280 l-6 -29 -14 31 c-7 18 -23 78 -35 135
-24 113 -35 138 -26 62 l6 -50 -12 47 c-7 25 -15 50 -19 54 -11 11 -10 -4 7
-66 18 -65 18 -73 5 -65 -5 3 -10 1 -10 -5 0 -7 6 -10 14 -7 22 8 28 -48 11
-90 -9 -20 -13 -39 -10 -42 9 -9 25 21 26 49 0 21 4 17 21 -20 22 -49 27 -100
14 -142 -5 -17 -4 -28 1 -28 17 0 35 53 40 116 4 59 20 135 22 103 1 -9 8 -19
16 -23 8 -3 15 -15 15 -26 0 -12 4 -19 8 -16 16 9 0 66 -23 84 -19 15 -22 24
-16 52 l7 34 17 -24 c14 -20 17 -21 17 -6 0 10 -8 28 -17 40 -15 19 -17 39
-15 124 l3 102 42 -1 c58 -3 87 17 87 58 0 22 -5 33 -15 33 -8 0 -35 10 -61
22 -45 22 -45 23 -40 63 3 22 8 78 12 125 4 47 12 99 19 115 l13 30 1 -35 c1
-19 -6 -75 -14 -125 -16 -95 -18 -121 -10 -114 8 8 46 261 40 267 -3 3 5 16
17 29 l23 24 -40 34 c-43 37 -60 44 -52 20 5 -11 1 -12 -18 -5 -15 6 -27 6
-30 0 -4 -6 -4 -11 -1 -11 14 -3 23 -6 49 -17 16 -7 33 -12 38 -12 5 0 9 -5 9
-11 0 -7 -9 -9 -22 -4 -13 3 -35 8 -50 10 -15 3 -44 11 -64 20 -21 8 -39 14
-41 11 -6 -6 65 -37 95 -41 58 -7 78 -25 46 -43 -9 -5 -15 -12 -15 -15 3 -24
0 -31 -9 -17 -8 13 -10 13 -14 0 -4 -8 -8 -28 -10 -45 -5 -46 -26 -82 -52 -94
-13 -6 -29 -21 -35 -34 -9 -20 -5 -29 28 -65 21 -23 44 -42 50 -42 18 0 21
-11 14 -65 l-6 -49 -65 60 c-57 53 -68 59 -87 50 -13 -6 -23 -14 -23 -18 0 -5
-4 -8 -9 -8 -5 0 -5 15 -2 33 4 17 4 48 0 66 -4 19 -5 39 -2 44 3 6 1 7 -5 3
-7 -4 -15 9 -22 36 -7 24 -16 51 -22 61 -14 28 -5 29 22 4 45 -41 65 -41 29 0
-18 21 -41 37 -51 37 -15 -1 -16 1 -6 14 7 9 8 13 2 9 -6 -3 -22 5 -34 18 -24
25 -23 34 2 39 21 4 88 47 88 57 0 5 11 4 25 -1 15 -6 26 -6 30 0 4 6 -1 10
-9 10 -9 0 -16 5 -16 10 0 7 6 7 19 0 11 -5 23 -10 28 -10 4 1 -14 12 -40 26
-26 14 -52 22 -57 19 -6 -3 -10 -2 -10 4 0 5 -25 24 -55 41 -31 18 -69 43 -84
56 -25 21 -33 23 -56 14 -15 -6 -25 -13 -22 -16 3 -3 13 -1 23 4 14 8 28 2 64
-27 26 -21 61 -43 79 -50 17 -8 31 -17 31 -22 0 -5 9 -18 19 -28 20 -20 19
-20 -26 -50 -26 -17 -52 -31 -58 -31 -7 0 -18 27 -24 60 -7 33 -17 62 -23 66
-8 5 -9 1 -5 -10 4 -10 10 -30 13 -44 l6 -27 -21 25 c-11 14 -21 28 -21 31 0
3 -15 6 -32 6 -19 1 -26 -2 -17 -6 40 -16 116 -101 91 -101 -5 0 -12 6 -15 14
-10 26 -131 58 -221 58 -99 -1 -130 -8 -255 -62 -52 -22 -96 -39 -97 -37 -1 1
-5 14 -9 28 -6 26 -4 27 52 38 121 23 186 40 196 50 7 7 4 9 -9 6 -10 -2 -35
-6 -54 -9 -19 -2 -67 -13 -106 -24 -59 -16 -71 -17 -71 -5 0 8 6 12 14 9 8 -3
28 1 44 10 78 40 323 68 390 45 16 -6 29 -6 29 -1 0 14 -68 25 -145 24 -106
-2 -224 -22 -287 -48 -52 -22 -118 -36 -118 -25 0 6 -8 5 -19 -1 -11 -5 -30
-10 -42 -10 -18 0 -19 2 -9 15 7 8 21 15 31 15 11 0 19 5 19 11 0 5 -4 7 -10
4 -5 -3 -2 8 8 24 14 26 51 53 74 55 3 1 16 12 28 26 12 14 26 24 30 23 4 -1
16 7 25 17 10 11 26 20 37 20 10 0 18 5 18 11 0 6 6 9 14 6 21 -8 44 26 35 51
-10 25 -36 23 -78 -7 -16 -12 -36 -21 -45 -21 -20 0 -66 -21 -66 -31 0 -12 92
16 130 39 39 24 50 27 50 12 0 -9 -98 -60 -117 -60 -5 0 -24 -16 -43 -35 -19
-19 -37 -35 -41 -35 -10 0 -79 -70 -79 -81 0 -5 -4 -9 -10 -9 -5 0 -16 -12
-24 -27 -11 -23 -22 -28 -53 -30 -21 -1 -60 -4 -88 -8 -69 -10 -99 14 -115 91
-6 30 -22 85 -34 122 -21 62 -25 67 -51 65 -28 -2 -36 -7 -99 -57 -59 -47
-114 -35 -153 34 -16 26 -23 55 -23 89 0 45 3 51 24 57 29 7 43 52 27 83 -15
27 -73 61 -102 60 -13 -1 -39 -6 -57 -11z m116 -43 c28 -32 28 -50 1 -69 -36
-25 -38 -103 -4 -171 16 -30 31 -53 33 -50 3 3 15 -1 26 -8 28 -17 78 -20 88
-5 6 10 10 10 17 0 7 -11 9 -10 14 3 4 9 3 13 -3 10 -6 -3 -10 -4 -10 -2 0 2
20 18 44 35 65 47 80 43 101 -25 10 -32 18 -66 17 -75 0 -10 4 -18 10 -18 6 0
8 -13 6 -29 -2 -17 -1 -28 4 -25 4 3 8 -3 8 -14 0 -10 9 -27 20 -37 11 -10 18
-21 15 -24 -4 -7 66 -6 125 3 l35 5 -30 -22 c-50 -36 -80 -73 -92 -112 -11
-34 -10 -39 12 -61 13 -13 29 -24 36 -24 7 0 0 11 -15 25 -32 30 -33 52 -3 96
26 40 114 90 137 78 9 -4 31 -3 50 1 l35 9 -37 -2 c-20 -1 -40 2 -44 6 -4 4
22 7 59 7 36 0 69 5 72 10 8 13 25 13 25 0 0 -5 -3 -9 -7 -9 -21 3 -23 -3 -9
-23 9 -12 16 -35 16 -50 0 -64 -121 -148 -212 -148 -26 0 -48 -4 -48 -9 0 -5
-10 -13 -22 -16 -13 -4 -34 -19 -47 -33 -13 -15 -20 -21 -17 -14 9 15 5 15
-31 1 -55 -21 -86 -20 -102 4 -18 25 -26 61 -12 53 5 -3 7 2 4 12 -3 14 6 23
37 37 28 13 37 21 28 27 -10 6 -10 8 2 8 12 0 12 2 2 8 -19 13 11 66 38 67 11
0 20 5 19 10 0 6 -8 9 -17 7 -27 -5 -56 -40 -57 -66 -2 -34 -23 -56 -53 -56
-14 0 -23 3 -19 6 3 3 -5 16 -18 29 -14 12 -22 25 -19 28 5 5 -27 2 -33 -3 -4
-4 -21 -7 -38 -9 -8 0 -15 -8 -15 -16 0 -23 -15 -18 -28 9 -9 21 -8 23 9 19
10 -3 19 0 19 6 0 6 -5 10 -11 9 -6 -2 -13 5 -14 15 -2 9 1 17 6 17 18 0 4 25
-24 43 -17 10 -27 24 -23 32 2 7 0 16 -7 19 -7 2 -2 5 11 5 17 1 22 7 22 27 0
14 4 23 10 19 6 -3 10 -1 10 4 0 6 -5 11 -11 11 -6 0 -18 9 -27 21 -10 11 -25
21 -35 23 -10 1 -22 8 -26 15 -4 6 -17 13 -29 14 -12 0 -20 3 -18 4 5 6 -51
63 -62 63 -5 0 -21 18 -35 39 -17 25 -33 38 -44 36 -23 -3 -55 13 -48 25 6 9
-17 7 -45 -4 -12 -5 -15 2 -15 33 1 47 0 46 45 55 25 4 31 3 20 -4 -10 -7 -11
-10 -2 -10 7 0 38 27 70 60 51 53 61 59 98 60 31 0 45 -6 62 -25z m-160 -220
c-3 -3 -13 -2 -22 1 -14 5 -15 9 -4 15 13 8 36 -6 26 -16z m78 -86 c21 -23 23
-29 9 -21 -25 13 -62 52 -48 52 5 0 22 -14 39 -31z m154 -128 c0 -12 -30 -22
-42 -15 -17 11 -26 47 -14 61 9 10 16 7 34 -13 12 -14 22 -29 22 -33z m1439
-10 c8 -5 9 -11 3 -15 -14 -8 -43 4 -36 15 7 11 15 11 33 0z m211 -181 c0 -5
-5 -10 -11 -10 -5 0 -7 5 -4 10 3 6 8 10 11 10 2 0 4 -4 4 -10z m-1512 -36
c16 -11 22 -25 22 -55 0 -82 45 -123 111 -100 35 12 69 0 69 -25 0 -16 -27
-156 -36 -187 -8 -26 -50 -19 -46 8 2 11 9 23 15 27 7 4 8 8 4 8 -5 0 -5 6 0
13 14 23 9 68 -9 78 -25 13 -23 27 5 32 12 2 1 5 -25 6 -26 0 -50 6 -53 11 -4
6 -11 8 -16 4 -5 -3 -8 -2 -7 3 1 4 -10 33 -25 63 -15 30 -27 47 -27 38 0 -22
-16 -23 -24 -2 -3 8 -11 12 -17 8 -8 -5 -6 -10 5 -16 9 -5 14 -13 11 -19 -4
-5 5 -9 18 -9 21 0 28 -10 51 -74 14 -41 26 -80 27 -88 1 -23 37 -94 38 -75 1
24 -29 116 -40 123 -23 14 -6 21 19 8 54 -26 63 -44 48 -94 -14 -49 -41 -74
-55 -51 -5 8 -23 57 -41 110 -18 53 -36 100 -40 105 -11 12 -71 16 -64 5 3 -5
-3 -6 -13 -2 -10 3 -15 2 -10 -2 4 -5 -12 -19 -35 -32 -28 -16 -44 -20 -48
-13 -5 7 -19 1 -41 -17 -19 -15 -28 -20 -21 -11 10 13 10 17 0 21 -7 2 -9 8
-5 13 4 5 12 2 17 -6 8 -13 14 -8 12 11 -1 10 99 129 108 129 15 0 12 -12 -10
-40 -21 -27 -26 -50 -10 -50 6 0 10 4 10 10 0 5 7 7 16 3 14 -5 15 -3 4 17 -8
14 -8 25 -2 29 5 3 13 21 17 39 12 59 49 77 93 46z m1502 -55 c-5 -35 -10 -81
-10 -101 0 -21 -3 -38 -7 -38 -5 1 -25 16 -46 34 -40 36 -42 60 -4 70 14 4 31
25 46 57 13 27 25 48 27 46 3 -3 0 -33 -6 -68z m73 -213 c33 -14 36 -18 27
-36 -12 -22 -45 -33 -81 -28 -21 3 -24 8 -22 48 1 25 2 46 2 48 1 1 9 -2 19
-7 9 -5 34 -16 55 -25z m-1823 -6 c-6 -11 -13 -20 -16 -20 -2 0 0 9 6 20 6 11
13 20 16 20 2 0 0 -9 -6 -20z m130 -5 c-7 -8 -17 -12 -22 -9 -6 4 -5 10 3 15
22 14 33 10 19 -6z m1514 -116 c22 -7 46 -12 53 -12 22 -1 -11 -37 -44 -48
-25 -8 -37 -7 -53 4 -11 7 -17 16 -14 19 5 5 -44 23 -57 20 -7 -1 -4 37 6 68
7 21 7 21 37 -9 17 -17 49 -36 72 -42z m-2001 -35 c23 -8 21 -15 -8 -37 -25
-18 -25 -18 -34 5 -10 27 -3 51 13 43 6 -3 19 -8 29 -11z m51 -73 c14 -22 30
-42 36 -46 8 -5 6 -13 -7 -27 -17 -19 -17 -19 11 -12 22 5 27 4 21 -5 -5 -8 6
-24 29 -43 32 -26 35 -32 25 -51 -7 -12 -13 -23 -14 -25 -7 -9 -55 20 -55 33
0 9 -6 18 -14 21 -8 3 -13 11 -10 18 2 6 -10 22 -27 35 -18 13 -29 19 -25 12
4 -6 4 -11 1 -11 -3 0 -13 16 -21 35 -16 40 -19 68 -4 45 5 -8 10 -10 10 -4 0
5 -5 15 -11 21 -15 15 -4 43 16 43 8 0 26 -18 39 -39z m306 -41 c0 -11 -4 -20
-9 -20 -11 0 -22 26 -14 34 12 12 23 5 23 -14z m-203 -195 c4 -4 3 -5 -4 -1
-7 3 -13 -1 -15 -11 -3 -15 -5 -15 -10 3 -6 22 12 28 29 9z m1685 -96 c0 -19
-3 -45 -6 -59 -5 -19 -4 -20 2 -6 6 14 11 16 16 7 8 -12 -3 -31 -43 -81 -23
-28 -25 -21 -11 47 10 46 18 103 19 133 2 30 22 -7 23 -41z m-1092 -454 c-7
-8 -16 -15 -21 -15 -13 0 -11 24 3 38 18 18 35 -3 18 -23z m2 -61 c113 -116
112 -131 -1 -19 -81 81 -101 105 -86 105 2 0 42 -39 87 -86z"/>
<path d="M1533 2244 c9 -11 17 -27 17 -34 0 -10 -4 -8 -13 4 -9 12 -22 16 -42
13 l-30 -4 33 -2 c61 -2 31 -37 -41 -47 -26 -4 -52 -14 -59 -22 -11 -13 -10
-14 7 -5 30 15 126 23 119 9 -3 -6 6 2 20 17 32 35 32 38 -1 68 -20 17 -23 18
-10 3z"/>
<path d="M1385 2215 c-25 -12 -26 -14 -5 -9 28 7 60 23 45 23 -5 0 -23 -6 -40
-14z"/>
<path d="M1410 2200 l-25 -8 27 -1 c15 -1 30 4 33 9 7 11 0 11 -35 0z"/>
<path d="M1477 2199 c7 -7 15 -10 18 -7 3 3 -2 9 -12 12 -14 6 -15 5 -6 -5z"/>
<path d="M1240 2190 c0 -5 5 -10 11 -10 5 0 7 5 4 10 -3 6 -8 10 -11 10 -2 0
-4 -4 -4 -10z"/>
<path d="M1328 2168 c2 -10 6 -18 7 -18 1 0 5 8 7 18 3 11 0 19 -7 19 -7 0
-10 -8 -7 -19z"/>
<path d="M1364 2179 c-3 -6 -1 -16 6 -22 10 -9 11 -9 6 0 -3 6 1 13 11 15 17
3 17 4 1 10 -10 4 -20 2 -24 -3z"/>
<path d="M1183 2135 c-3 -9 -3 -18 -1 -21 3 -3 8 4 11 16 6 23 -1 27 -10 5z"/>
<path d="M1450 2139 c-14 -6 -47 -8 -73 -5 -42 4 -47 3 -36 -10 9 -11 23 -14
46 -9 18 3 33 2 33 -3 0 -20 63 -7 78 16 13 20 13 22 -4 21 -11 0 -30 -5 -44
-10z m30 -13 c0 -3 -4 -8 -10 -11 -5 -3 -10 -1 -10 4 0 6 5 11 10 11 6 0 10
-2 10 -4z"/>
<path d="M1316 2084 c-3 -8 1 -14 9 -14 20 0 28 17 11 23 -8 3 -17 -1 -20 -9z"/>
<path d="M1378 2093 c7 -3 16 -2 19 1 4 3 -2 6 -13 5 -11 0 -14 -3 -6 -6z"/>
<path d="M1228 2081 c-1 -5 -21 -20 -42 -35 -21 -14 -35 -26 -30 -26 15 0 84
50 84 60 0 12 -7 13 -12 1z"/>
<path d="M1378 2063 c7 -3 16 -2 19 1 4 3 -2 6 -13 5 -11 0 -14 -3 -6 -6z"/>
<path d="M1100 1999 c0 -5 5 -7 10 -4 6 3 10 8 10 11 0 2 -4 4 -10 4 -5 0 -10
-5 -10 -11z"/>
<path d="M885 1940 c-4 -6 -16 -8 -28 -5 -18 5 -19 4 -6 -4 12 -8 25 -7 45 4
19 9 23 15 12 15 -9 0 -20 -5 -23 -10z"/>
<path d="M2428 1684 c12 -8 27 -12 34 -8 8 5 6 10 -8 15 -35 14 -50 10 -26 -7z"/>
<path d="M465 1549 c-4 -5 -4 -13 -1 -16 3 -4 6 0 7 8 0 8 4 6 9 -6 7 -16 9
-17 9 -3 1 21 -15 32 -24 17z"/>
<path d="M1780 2798 c-11 -13 -27 -30 -35 -39 -8 -9 -15 -27 -14 -40 0 -13 3
-18 6 -11 2 6 13 12 24 12 21 0 26 -29 9 -60 -9 -16 -8 -18 6 -13 14 5 15 3 5
-15 -7 -12 -9 -22 -6 -22 9 0 75 69 75 78 0 4 -12 20 -26 35 -21 23 -28 26
-40 16 -11 -9 -18 -9 -26 -1 -9 9 -7 12 11 12 18 0 21 4 16 21 l-7 22 31 -22
c29 -21 31 -21 31 -3 0 10 -9 27 -19 36 -18 17 -20 17 -41 -6z m50 -107 c0
-10 -7 -24 -15 -31 -12 -10 -16 -9 -22 6 -4 10 -2 19 5 22 7 2 12 10 12 18 0
9 5 12 10 9 6 -3 10 -14 10 -24z"/>
<path d="M2484 2684 c-26 -75 -50 -132 -52 -126 -2 6 4 27 13 48 8 20 13 39
10 42 -8 8 -28 -51 -28 -85 -1 -17 -4 -30 -8 -27 -8 5 -27 -43 -27 -71 -1 -11
-3 -33 -7 -50 -3 -16 9 5 26 47 18 43 36 75 41 72 18 -11 78 165 82 244 2 23
2 42 1 42 -1 0 -24 -61 -51 -136z m-73 -195 c-5 -13 -10 -19 -10 -12 -1 15 10
45 15 40 3 -2 0 -15 -5 -28z"/>
<path d="M1867 2789 c7 -7 15 -10 18 -7 3 3 -2 9 -12 12 -14 6 -15 5 -6 -5z"/>
<path d="M1940 2780 c-8 -5 -10 -10 -5 -11 35 -6 63 -3 74 8 14 15 10 16 -23
4 -15 -6 -26 -6 -28 -1 -2 6 -9 6 -18 0z"/>
<path d="M1120 2774 c0 -6 7 -19 15 -30 8 -10 14 -14 14 -9 0 6 -6 19 -14 29
-8 11 -15 15 -15 10z"/>
<path d="M2685 2770 c-3 -6 1 -7 9 -4 18 7 21 14 7 14 -6 0 -13 -4 -16 -10z"/>
<path d="M304 2605 c0 -93 2 -133 3 -88 2 45 2 122 0 170 -1 48 -3 12 -3 -82z"/>
<path d="M1077 2740 c19 -22 26 -21 17 4 -3 9 -12 16 -20 16 -11 0 -10 -4 3
-20z"/>
<path d="M2057 2730 c-9 -11 -13 -20 -7 -20 5 0 14 9 20 20 6 11 9 20 8 20 -2
0 -11 -9 -21 -20z"/>
<path d="M2088 2738 c-3 -7 0 -22 8 -33 8 -10 14 -26 14 -34 0 -14 -1 -14 -10
-1 -8 13 -10 13 -10 -2 0 -9 4 -19 9 -23 6 -3 8 -14 6 -25 -2 -11 6 -31 19
-45 16 -18 22 -33 19 -52 l-5 -28 17 23 c17 24 40 29 51 11 4 -8 -1 -9 -17 -4
-31 9 -14 -7 24 -23 15 -7 27 -8 27 -2 0 5 7 7 15 4 8 -4 15 -2 15 3 0 5 -31
24 -70 43 -67 32 -70 36 -71 69 -1 20 -1 42 0 48 3 22 -35 87 -41 71z"/>
<path d="M2155 2739 c-4 -6 -5 -12 -2 -15 2 -3 7 2 10 11 7 17 1 20 -8 4z"/>
<path d="M1886 2724 c-4 -9 -4 -19 -1 -22 3 -3 5 0 5 6 0 7 10 11 21 9 12 -1
24 5 26 13 4 13 3 13 -5 1 -8 -12 -14 -12 -25 -3 -12 10 -16 9 -21 -4z"/>
<path d="M1279 2677 c-2 -27 -1 -51 4 -54 16 -10 19 7 10 54 l-9 48 -5 -48z"/>
<path d="M1353 2705 c-16 -18 -16 -22 0 -22 7 0 14 9 14 19 2 21 2 21 -14 3z"/>
<path d="M1966 2712 c-2 -4 -1 -14 3 -21 6 -9 10 -7 14 8 5 20 -7 29 -17 13z"/>
<path d="M1119 2683 c12 -17 21 -36 21 -41 0 -6 4 -13 9 -16 17 -11 0 30 -26
60 l-25 29 21 -32z"/>
<path d="M1431 2693 c7 -10 15 -20 16 -22 2 -2 3 5 3 17 0 14 -6 22 -16 22
-14 0 -15 -3 -3 -17z"/>
<path d="M1170 2689 c0 -5 5 -7 10 -4 6 3 10 8 10 11 0 2 -4 4 -10 4 -5 0 -10
-5 -10 -11z"/>
<path d="M2019 2673 c-4 -25 -6 -53 -3 -53 2 0 10 14 19 30 14 27 14 30 0 30
-8 0 -16 -3 -16 -7z"/>
<path d="M834 2645 c-16 -40 33 -152 61 -141 8 3 15 1 15 -3 0 -5 7 -12 16
-15 17 -6 74 19 74 33 0 5 18 18 41 29 22 11 36 23 30 27 -6 3 -21 0 -33 -7
-13 -7 -27 -11 -31 -10 -5 1 -5 -3 -1 -9 5 -9 2 -10 -10 -6 -9 4 -15 3 -12 -2
3 -4 -3 -16 -14 -26 -16 -15 -22 -15 -47 -3 -15 8 -27 20 -25 26 1 7 -4 11
-10 10 -8 -2 -12 6 -10 20 2 14 -1 21 -9 20 -7 -2 -15 5 -17 16 -2 10 0 16 6
12 6 -3 9 5 8 19 -1 27 -23 34 -32 10z"/>
<path d="M908 2653 c6 -2 13 -21 13 -41 l2 -37 6 35 c8 42 5 50 -17 49 -11 0
-12 -3 -4 -6z"/>
<path d="M1819 2624 c-34 -36 -18 -34 31 5 22 18 25 18 37 3 11 -16 12 -16 13
-1 0 15 -19 29 -39 29 -4 0 -23 -16 -42 -36z"/>
<path d="M1488 2645 c-3 -3 0 -25 7 -48 7 -23 11 -60 9 -81 -3 -38 -3 -39 12
-18 8 12 13 30 10 40 -3 9 -8 32 -11 51 -7 40 -19 64 -27 56z"/>
<path d="M2551 2629 c-5 -13 -26 -60 -46 -104 -21 -44 -44 -100 -51 -125 l-14
-45 19 25 c11 13 43 75 72 138 38 83 49 116 41 124 -8 8 -14 5 -21 -13z"/>
<path d="M1390 2620 c13 -23 20 -26 20 -6 0 8 -7 16 -15 20 -13 4 -14 2 -5
-14z"/>
<path d="M1937 2613 c-5 -24 -4 -26 8 -10 7 10 19 15 29 11 11 -4 16 -1 16 10
0 10 -9 16 -24 16 -18 0 -25 -7 -29 -27z"/>
<path d="M2596 2608 c-8 -18 -17 -49 -20 -68 l-6 -35 19 40 c11 22 20 47 20
56 1 8 6 20 13 27 9 9 9 12 0 12 -6 0 -18 -15 -26 -32z"/>
<path d="M880 2619 c0 -3 8 -21 18 -41 15 -32 18 -34 32 -20 13 14 12 15 -3 9
-10 -4 -17 -2 -17 6 -1 11 -30 57 -30 46z"/>
<path d="M2000 2599 c0 -5 5 -7 10 -4 6 3 10 8 10 11 0 2 -4 4 -10 4 -5 0 -10
-5 -10 -11z"/>
<path d="M1895 2550 c-3 -5 -1 -10 4 -10 6 0 11 5 11 10 0 6 -2 10 -4 10 -3 0
-8 -4 -11 -10z"/>
<path d="M2074 2508 c3 -10 2 -18 -3 -18 -4 0 -8 -7 -8 -15 0 -8 4 -15 9 -15
15 0 20 28 8 47 -10 16 -11 16 -6 1z"/>
<path d="M2556 2483 c-6 -14 -5 -15 5 -6 7 7 10 15 7 18 -3 3 -9 -2 -12 -12z"/>
<path d="M1258 2483 c-10 -3 -18 -11 -18 -19 0 -8 -7 -17 -15 -20 -8 -4 -15
-11 -15 -16 0 -5 15 0 34 11 42 26 76 27 126 1 22 -11 48 -20 58 -20 23 0 67
36 54 44 -6 3 -12 -1 -16 -9 -7 -20 -66 -20 -92 0 -15 11 -16 15 -4 16 8 1 18
1 23 0 4 0 7 3 7 8 0 9 -109 12 -142 4z"/>
<path d="M1691 2474 c0 -11 3 -14 6 -6 3 7 2 16 -1 19 -3 4 -6 -2 -5 -13z"/>
<path d="M1509 2460 c-1 -3 -1 -9 0 -14 1 -5 -6 -17 -15 -27 -10 -11 -15 -21
-13 -24 3 -2 13 9 24 26 13 18 29 29 43 29 13 0 20 4 17 10 -6 10 -54 10 -56
0z"/>
<path d="M1973 2459 c-43 -12 -42 -16 5 -17 53 0 65 -4 79 -27 17 -28 16 -14
-2 26 -8 19 -14 28 -15 22 0 -7 -7 -13 -16 -13 -8 0 -12 5 -9 10 7 12 1 12
-42 -1z"/>
<path d="M1720 2424 c-25 -13 -40 -24 -33 -24 7 0 28 9 46 19 19 10 43 21 53
24 18 4 18 5 -1 5 -11 0 -40 -11 -65 -24z"/>
<path d="M1815 2430 c-16 -7 -17 -9 -3 -9 9 -1 20 4 23 9 7 11 7 11 -20 0z"/>
<path d="M304 2090 c0 -190 2 -267 3 -172 2 94 2 250 0 345 -1 94 -3 17 -3
-173z"/>
<path d="M1858 2423 c7 -3 16 -2 19 1 4 3 -2 6 -13 5 -11 0 -14 -3 -6 -6z"/>
<path d="M2100 2422 c0 -4 10 -13 21 -20 16 -10 18 -17 10 -25 -20 -20 -12
-31 9 -12 20 18 28 41 11 30 -6 -3 -15 4 -21 15 -10 19 -30 28 -30 12z"/>
<path d="M1350 2402 c0 -9 9 -23 21 -30 18 -11 20 -11 15 0 -3 7 -9 21 -12 31
-8 22 -24 22 -24 -1z"/>
<path d="M1193 2395 c-3 -9 -3 -18 -1 -21 3 -3 8 4 11 16 6 23 -1 27 -10 5z"/>
<path d="M2682 2390 c0 -14 2 -19 5 -12 2 6 2 18 0 25 -3 6 -5 1 -5 -13z"/>
<path d="M2070 2383 c0 -6 8 -17 18 -24 16 -13 16 -13 2 6 -8 11 -16 22 -17
24 -2 2 -3 0 -3 -6z"/>
<path d="M2170 2382 c0 -4 17 -16 38 -25 31 -15 34 -15 17 -1 -30 24 -55 36
-55 26z"/>
<path d="M2473 2370 c-2 -24 12 -27 21 -4 8 22 8 24 -7 24 -7 0 -13 -9 -14
-20z"/>
<path d="M1421 2366 c-10 -12 -8 -13 8 -9 12 3 18 9 15 14 -7 12 -10 11 -23
-5z"/>
<path d="M1580 2370 c-13 -8 -13 -10 2 -10 9 0 20 5 23 10 8 13 -5 13 -25 0z"/>
<path d="M1635 2370 c3 -5 8 -10 11 -10 2 0 4 5 4 10 0 6 -5 10 -11 10 -5 0
-7 -4 -4 -10z"/>
<path d="M1530 2332 c0 -12 3 -12 18 -1 9 7 19 14 21 16 2 1 -6 1 -18 0 -11
-1 -21 -8 -21 -15z"/>
<path d="M2250 2331 c0 -5 7 -11 15 -15 8 -3 15 -1 15 3 0 5 -7 11 -15 15 -8
3 -15 1 -15 -3z"/>
<path d="M1218 2323 c7 -3 16 -2 19 1 4 3 -2 6 -13 5 -11 0 -14 -3 -6 -6z"/>
<path d="M1256 2315 c-25 -19 -16 -19 20 0 16 8 22 15 14 15 -8 -1 -24 -7 -34
-15z"/>
<path d="M1335 2320 l-30 -8 27 -1 c15 0 30 4 33 9 3 6 5 9 3 9 -2 -1 -16 -5
-33 -9z"/>
<path d="M1400 2305 c-7 -9 -8 -15 -2 -15 5 0 12 7 16 15 3 8 4 15 2 15 -2 0
-9 -7 -16 -15z"/>
<path d="M2390 2272 c0 -10 107 -52 131 -52 8 0 -13 12 -46 26 -33 14 -66 28
-72 31 -7 3 -13 1 -13 -5z"/>
<path d="M2346 2193 c6 -71 22 -134 24 -93 1 15 98 80 119 80 6 0 11 4 11 9 0
5 6 11 13 14 6 2 1 2 -13 0 -14 -3 -28 -10 -32 -16 -4 -7 -8 -8 -8 -3 0 5 -10
0 -22 -11 -13 -11 -33 -26 -45 -32 -22 -11 -23 -10 -24 29 -1 22 -3 45 -4 50
-1 6 -3 19 -4 30 0 11 -6 20 -11 20 -7 0 -9 -26 -4 -77z"/>
<path d="M1850 2250 c-33 -6 -32 -6 20 -12 30 -4 66 -9 80 -13 24 -7 24 -7 5
7 -27 20 -63 26 -105 18z"/>
<path d="M2677 2230 c-3 -11 -1 -20 4 -20 5 0 9 9 9 20 0 11 -2 20 -4 20 -2 0
-6 -9 -9 -20z"/>
<path d="M1740 2230 c-18 -12 -2 -12 25 0 13 6 15 9 5 9 -8 0 -22 -4 -30 -9z"/>
<path d="M2300 2230 c-9 -6 -10 -10 -3 -10 6 0 15 5 18 10 8 12 4 12 -15 0z"/>
<path d="M2322 2195 c0 -16 2 -22 5 -12 2 9 2 23 0 30 -3 6 -5 -1 -5 -18z"/>
<path d="M2679 2088 c-1 -190 -1 -209 5 -215 3 -4 6 69 6 160 0 92 -2 167 -5
167 -3 0 -5 -51 -6 -112z"/>
<path d="M1785 2173 c-85 -7 -77 -23 11 -23 55 0 100 -6 139 -20 69 -24 91
-25 51 -4 -32 18 -136 55 -145 52 -3 -1 -28 -3 -56 -5z"/>
<path d="M2473 2155 c-13 -9 -23 -21 -23 -27 0 -7 5 -6 14 1 10 8 16 9 21 1 3
-5 2 -10 -3 -10 -6 0 -8 -10 -5 -21 5 -19 7 -19 15 -5 5 9 8 30 6 47 -3 29 -4
29 -25 14z"/>
<path d="M1625 2130 c-23 -10 -32 -19 -22 -19 20 -1 87 25 87 33 0 10 -24 5
-65 -14z"/>
<path d="M1685 2120 c-16 -7 -13 -9 17 -9 20 -1 40 4 43 9 7 12 -32 12 -60 0z"/>
<path d="M1841 2126 c12 -10 60 -16 54 -6 -3 5 -18 10 -32 10 -15 0 -24 -2
-22 -4z"/>
<path d="M2406 2115 c-11 -8 -16 -15 -10 -15 5 0 18 7 28 15 11 8 16 15 10 15
-5 0 -18 -7 -28 -15z"/>
<path d="M1948 2103 c7 -3 16 -2 19 1 4 3 -2 6 -13 5 -11 0 -14 -3 -6 -6z"/>
<path d="M1670 2093 c-30 -2 -60 -9 -67 -14 -6 -6 -21 -8 -32 -4 -11 3 -23 1
-27 -6 -4 -8 -3 -9 4 -5 7 4 12 2 12 -4 0 -7 8 -9 20 -5 12 4 28 1 38 -7 15
-12 16 -11 3 5 -12 15 -11 17 13 17 19 0 25 -4 20 -12 -4 -7 2 -5 13 5 13 12
36 17 74 17 42 -1 50 -3 36 -11 -9 -5 -21 -8 -26 -5 -5 3 -26 -1 -47 -8 l-39
-14 65 5 c36 3 70 9 75 12 6 4 21 5 35 3 14 -2 35 -4 47 -5 11 -1 19 -5 17 -8
-2 -4 3 -10 12 -13 8 -3 12 -2 9 4 -22 35 100 -30 164 -87 37 -33 47 -50 50
-86 1 -5 5 -5 11 -2 16 10 -24 77 -68 112 -22 18 -61 42 -86 55 -58 28 -60 41
-3 24 23 -7 48 -11 55 -10 7 1 8 0 2 -3 -15 -7 -2 -23 21 -23 10 0 19 -6 19
-14 0 -8 5 -18 12 -22 8 -5 9 -2 5 9 -7 20 -3 21 24 7 10 -6 19 -8 19 -4 0 11
-44 54 -56 54 -6 0 -26 7 -44 16 -20 11 -62 18 -109 19 -42 1 -107 4 -146 7
-38 3 -95 4 -125 1z"/>
<path d="M2180 2068 c0 -9 -6 -18 -12 -21 -7 -2 -10 -8 -6 -12 12 -13 37 20
27 36 -7 11 -9 11 -9 -3z"/>
<path d="M1485 2049 c-11 -17 1 -21 15 -4 8 9 8 15 2 15 -6 0 -14 -5 -17 -11z"/>
<path d="M1838 2043 c7 -3 16 -2 19 1 4 3 -2 6 -13 5 -11 0 -14 -3 -6 -6z"/>
<path d="M2387 2029 c7 -7 15 -10 18 -7 3 3 -2 9 -12 12 -14 6 -15 5 -6 -5z"/>
<path d="M1590 2021 c0 -4 11 -6 25 -3 14 2 25 6 25 8 0 2 -11 4 -25 4 -14 0
-25 -4 -25 -9z"/>
<path d="M2355 2020 c3 -5 8 -10 11 -10 2 0 4 5 4 10 0 6 -5 10 -11 10 -5 0
-7 -4 -4 -10z"/>
<path d="M2170 2011 c0 -5 6 -14 14 -20 12 -10 13 -8 9 8 -5 21 -23 30 -23 12z"/>
<path d="M1340 1982 c-19 -16 -44 -34 -55 -40 -17 -10 -17 -11 -3 -12 10 0 34
14 54 32 l37 32 -7 -34 -7 -35 16 34 c27 60 18 66 -35 23z"/>
<path d="M1930 2006 c0 -2 7 -7 16 -10 8 -3 12 -2 9 4 -6 10 -25 14 -25 6z"/>
<path d="M1745 1990 c3 -6 12 -10 19 -10 8 0 19 -7 26 -15 16 -19 30 -19 30 1
0 8 -5 12 -10 9 -6 -4 -16 -3 -23 3 -19 14 -49 23 -42 12z"/>
<path d="M1694 1965 c8 -8 23 -15 33 -15 17 1 17 2 -1 15 -27 21 -53 21 -32 0z"/>
<path d="M1876 1949 c-8 -12 -19 -18 -25 -15 -5 4 -13 1 -17 -5 -4 -7 -3 -9 3
-6 13 8 92 -59 103 -87 8 -19 9 -19 9 -2 1 11 -17 36 -38 56 -37 35 -38 39
-25 59 8 11 13 21 10 21 -3 0 -12 -9 -20 -21z"/>
<path d="M1765 1937 c10 -8 15 -19 11 -25 -4 -7 -3 -12 2 -12 15 0 22 26 9 39
-6 6 -18 11 -26 11 -11 0 -11 -3 4 -13z"/>
<path d="M1650 1912 c-38 -14 -90 -85 -89 -122 1 -20 3 -17 11 12 9 35 58 89
90 100 7 3 11 8 8 10 -3 3 -12 3 -20 0z"/>
<path d="M1723 1913 c9 -2 23 -2 30 0 6 3 -1 5 -18 5 -16 0 -22 -2 -12 -5z"/>
<path d="M1290 1894 c-14 -7 -19 -14 -12 -14 6 0 12 -8 13 -17 1 -12 4 -10 9
7 4 14 8 19 9 12 1 -18 21 -5 21 14 0 17 -7 17 -40 -2z"/>
<path d="M1835 1890 c-5 -7 4 -44 30 -125 8 -26 4 34 -5 64 -5 19 -8 36 -6 38
2 2 22 -16 45 -39 22 -24 41 -39 41 -35 0 15 -99 107 -105 97z"/>
<path d="M2210 1863 c0 -4 5 -15 10 -23 8 -13 10 -13 10 2 0 9 -4 20 -10 23
-5 3 -10 3 -10 -2z"/>
<path d="M1670 1853 c-26 -10 -60 -46 -60 -64 0 -27 22 -69 35 -69 7 0 31 30
54 66 26 41 45 63 53 58 7 -4 8 -3 4 4 -4 7 -14 12 -22 12 -8 0 -12 -4 -9 -10
3 -5 1 -10 -4 -10 -6 0 -11 -5 -11 -11 0 -6 -12 -27 -27 -47 -15 -20 -29 -39
-31 -42 -6 -9 -22 25 -22 49 0 26 25 50 52 51 9 0 20 5 23 10 7 11 -10 12 -35
3z"/>
<path d="M1321 1834 c0 -11 3 -14 6 -6 3 7 2 16 -1 19 -3 4 -6 -2 -5 -13z"/>
<path d="M2118 1823 c5 -21 7 -23 10 -9 2 10 0 22 -6 28 -6 6 -7 0 -4 -19z"/>
<path d="M1820 1830 c0 -5 5 -10 11 -10 5 0 7 5 4 10 -3 6 -8 10 -11 10 -2 0
-4 -4 -4 -10z"/>
<path d="M2276 1832 c-2 -4 -1 -14 5 -22 7 -12 9 -10 9 8 0 23 -5 28 -14 14z"/>
<path d="M1517 1792 c4 -21 2 -24 -6 -12 -9 13 -11 13 -11 -1 0 -17 35 -59 50
-59 13 0 13 17 1 25 -5 3 -12 19 -16 35 -8 38 -24 48 -18 12z"/>
<path d="M1788 1803 c11 -21 8 -51 -7 -66 -6 -6 -11 -15 -11 -19 0 -4 9 1 20
12 20 20 25 45 14 74 -3 9 -10 16 -15 16 -6 0 -6 -7 -1 -17z"/>
<path d="M2232 1764 c0 -40 3 -53 8 -39 12 27 12 67 1 84 -7 10 -9 -5 -9 -45z"/>
<path d="M2180 1788 c0 -19 31 -162 36 -167 10 -11 3 76 -12 125 -15 52 -24
68 -24 42z"/>
<path d="M1265 1770 c-3 -5 3 -10 14 -10 12 0 21 5 21 10 0 6 -6 10 -14 10 -8
0 -18 -4 -21 -10z"/>
<path d="M1722 1741 c-18 -22 -32 -42 -32 -45 0 -10 58 -7 64 3 4 5 -3 7 -14
4 -25 -7 -25 1 1 43 28 45 19 43 -19 -5z"/>
<path d="M2126 1767 c3 -10 9 -15 12 -12 3 3 0 11 -7 18 -10 9 -11 8 -5 -6z"/>
<path d="M2681 1754 c0 -11 3 -14 6 -6 3 7 2 16 -1 19 -3 4 -6 -2 -5 -13z"/>
<path d="M1570 1744 c0 -10 8 -33 19 -50 l18 -30 -26 -33 c-24 -29 -28 -31
-40 -17 -7 9 -11 25 -8 36 3 11 1 23 -4 26 -14 8 -11 -60 3 -74 20 -20 33 -14
60 27 l26 40 -24 47 c-14 27 -24 39 -24 28z"/>
<path d="M996 1741 c-3 -4 6 -6 19 -3 14 2 25 6 25 8 0 8 -39 4 -44 -5z"/>
<path d="M1832 1709 c-23 -43 -28 -59 -13 -43 17 17 51 84 43 84 -5 0 -18 -18
-30 -41z"/>
<path d="M303 1675 c0 -38 2 -53 4 -32 2 20 2 52 0 70 -2 17 -4 1 -4 -38z"/>
<path d="M920 1730 c0 -5 4 -10 9 -10 6 0 13 5 16 10 3 6 -1 10 -9 10 -9 0
-16 -4 -16 -10z"/>
<path d="M2142 1710 c0 -19 2 -29 5 -22 2 6 10 9 16 5 9 -5 9 -3 1 8 -6 8 -14
21 -17 29 -3 8 -5 -1 -5 -20z"/>
<path d="M860 1720 c-24 -6 -42 -40 -21 -40 6 0 11 7 11 15 0 8 7 15 16 15 8
0 12 -5 8 -11 -4 -8 0 -9 15 -4 23 7 28 -4 10 -22 -7 -7 -7 -13 -1 -17 5 -3
17 3 27 14 10 11 29 20 42 20 13 0 22 4 18 9 -3 6 -17 6 -35 1 -17 -5 -30 -5
-30 0 0 16 -34 27 -60 20z"/>
<path d="M1007 1703 c3 -8 11 -10 21 -4 10 4 24 11 32 14 8 2 -1 4 -21 3 -24
-1 -35 -5 -32 -13z"/>
<path d="M1488 1690 c-18 -17 -27 -28 -19 -24 11 5 13 3 8 -10 -4 -10 2 -38
13 -63 11 -25 20 -53 20 -61 0 -11 3 -13 11 -5 7 7 4 20 -10 44 -30 48 -24
107 13 131 6 4 8 10 4 13 -3 4 -21 -8 -40 -25z"/>
<path d="M1145 1670 c-18 -12 -39 -17 -55 -14 -19 3 -20 2 -7 -4 17 -7 13 -13
-27 -46 -51 -41 -56 -58 -26 -79 11 -8 17 -17 13 -20 -3 -4 5 -7 20 -7 32 0
67 35 67 67 0 13 5 23 10 23 6 0 10 -7 10 -15 0 -22 -29 -75 -40 -75 -6 0 -10
-6 -10 -14 0 -14 -21 -26 -46 -26 -8 0 -14 7 -14 16 0 8 -4 13 -10 9 -6 -4 -6
-15 0 -30 7 -17 6 -25 -2 -25 -18 0 -5 -198 16 -238 24 -46 29 -36 9 18 -19
56 -21 203 -3 225 7 9 20 13 29 11 22 -7 86 79 87 116 1 29 38 78 59 78 6 0
20 7 31 15 16 12 17 14 2 15 -9 0 -47 -20 -84 -45 -37 -25 -74 -43 -81 -41
-22 9 -14 36 13 47 28 10 91 59 77 59 -4 0 -21 -9 -38 -20z m-44 -110 c6 0 5
-8 -1 -20 -12 -22 -45 -27 -56 -9 -3 6 -1 21 6 34 11 21 15 22 27 9 8 -8 19
-14 24 -14z"/>
<path d="M963 1670 c-29 -12 -50 -50 -33 -60 7 -4 10 -13 6 -18 -5 -8 2 -8 21
-1 34 11 56 43 48 70 -7 21 -10 22 -42 9z m23 -32 c9 -15 -27 -41 -39 -29 -13
13 -1 41 17 41 8 0 18 -5 22 -12z"/>
<path d="M1424 1658 l-19 -23 23 19 c21 18 27 26 19 26 -2 0 -12 -10 -23 -22z"/>
<path d="M801 1654 c0 -11 3 -14 6 -6 3 7 2 16 -1 19 -3 4 -6 -2 -5 -13z"/>
<path d="M2151 1654 c0 -11 3 -14 6 -6 3 7 2 16 -1 19 -3 4 -6 -2 -5 -13z"/>
<path d="M1628 1610 c-35 -47 -36 -50 -15 -50 12 1 33 7 46 14 14 8 32 12 40
9 14 -4 14 -4 1 6 -13 10 -11 14 10 31 20 15 23 21 13 31 -11 11 -13 10 -13
-2 0 -18 -31 -49 -48 -49 -20 0 -13 32 8 37 11 3 17 9 14 14 -10 16 -19 10
-56 -41z m26 -18 c3 -5 -1 -9 -9 -9 -8 0 -15 4 -15 9 0 4 4 8 9 8 6 0 12 -4
15 -8z"/>
<path d="M820 1639 c0 -5 5 -7 10 -4 6 3 10 8 10 11 0 2 -4 4 -10 4 -5 0 -10
-5 -10 -11z"/>
<path d="M1765 1608 l-18 -33 22 20 c13 11 33 19 45 18 15 -1 16 0 4 3 -10 3
-18 10 -18 15 0 19 -16 8 -35 -23z"/>
<path d="M2160 1525 c0 -60 2 -106 5 -103 7 7 8 199 1 206 -3 3 -6 -43 -6
-103z"/>
<path d="M821 1578 c0 -33 2 -38 9 -23 12 28 12 65 0 65 -5 0 -10 -19 -9 -42z"/>
<path d="M892 1600 c0 -14 2 -19 5 -12 2 6 2 18 0 25 -3 6 -5 1 -5 -13z"/>
<path d="M1377 1598 c-25 -27 -12 -37 14 -11 12 11 17 23 13 25 -5 3 -17 -4
-27 -14z"/>
<path d="M2591 1616 c8 -8 88 -10 95 -3 4 4 -17 7 -46 7 -29 0 -51 -2 -49 -4z"/>
<path d="M871 1584 c0 -11 3 -14 6 -6 3 7 2 16 -1 19 -3 4 -6 -2 -5 -13z"/>
<path d="M1327 1549 c-4 -29 -4 -55 -2 -58 3 -2 5 6 5 19 0 23 0 23 15 4 14
-19 14 -19 15 2 0 12 -6 36 -13 54 l-14 32 -6 -53z"/>
<path d="M1840 1592 c0 -12 40 -33 51 -27 14 9 1 25 -16 18 -8 -3 -15 0 -15 6
0 6 -4 11 -10 11 -5 0 -10 -3 -10 -8z"/>
<path d="M1708 1543 c-21 -14 -38 -31 -38 -37 0 -6 4 -5 9 2 4 8 10 12 12 10
3 -1 18 9 34 25 37 33 31 34 -17 0z"/>
<path d="M2322 1550 c0 -14 2 -19 5 -12 2 6 2 18 0 25 -3 6 -5 1 -5 -13z"/>
<path d="M875 1550 c-4 -6 -9 -8 -13 -6 -4 2 -8 -10 -9 -27 -1 -30 -1 -31 8
-8 5 14 15 31 21 38 6 7 8 13 5 13 -3 0 -9 -5 -12 -10z"/>
<path d="M2360 1529 c0 -5 5 -7 10 -4 6 3 10 8 10 11 0 2 -4 4 -10 4 -5 0 -10
-5 -10 -11z"/>
<path d="M1555 1506 c-6 -8 -21 -29 -33 -47 l-24 -34 32 34 c26 27 42 35 78
38 26 2 49 7 52 10 3 3 -16 3 -42 1 -26 -3 -45 -2 -42 3 9 15 -10 10 -21 -5z"/>
<path d="M1495 1500 c-3 -5 -1 -10 4 -10 6 0 11 5 11 10 0 6 -2 10 -4 10 -3 0
-8 -4 -11 -10z"/>
<path d="M1827 1487 c-4 -10 2 -13 20 -9 18 3 21 7 11 13 -18 12 -25 11 -31
-4z"/>
<path d="M1775 1479 c-11 -17 1 -21 15 -4 8 9 8 15 2 15 -6 0 -14 -5 -17 -11z"/>
<path d="M882 1460 c0 -14 2 -19 5 -12 2 6 2 18 0 25 -3 6 -5 1 -5 -13z"/>
<path d="M1969 1470 c-1 -8 -1 -19 0 -23 1 -4 -3 -17 -9 -27 -6 -11 -7 -20 -2
-20 16 0 33 50 22 68 -8 14 -10 14 -11 2z"/>
<path d="M1366 1444 c-4 -9 -4 -19 -1 -22 2 -3 7 3 11 12 4 9 4 19 1 22 -2 3
-7 -3 -11 -12z"/>
<path d="M1471 1442 c-14 -26 -14 -32 1 -32 6 0 8 3 5 7 -4 3 -2 12 5 20 6 7
8 16 5 19 -3 3 -10 -3 -16 -14z"/>
<path d="M955 1387 c-10 -51 -9 -55 22 -96 33 -43 47 -45 17 -3 -14 20 -14 22
0 22 9 0 16 5 16 11 0 5 -5 7 -10 4 -16 -10 -41 15 -36 34 13 46 17 81 9 81
-5 0 -13 -24 -18 -53z"/>
<path d="M1060 1429 c0 -5 5 -7 10 -4 6 3 10 8 10 11 0 2 -4 4 -10 4 -5 0 -10
-5 -10 -11z"/>
<path d="M1656 1421 c-19 -21 -12 -28 13 -12 7 5 12 14 9 21 -2 7 -10 4 -22
-9z"/>
<path d="M881 1394 c0 -11 3 -14 6 -6 3 7 2 16 -1 19 -3 4 -6 -2 -5 -13z"/>
<path d="M1500 1395 c-11 -13 -10 -14 4 -9 9 3 16 10 16 15 0 13 -6 11 -20 -6z"/>
<path d="M2180 1395 c0 -8 2 -15 4 -15 2 0 6 7 10 15 3 8 1 15 -4 15 -6 0 -10
-7 -10 -15z"/>
<path d="M1928 1376 c-10 -7 -15 -16 -12 -19 4 -3 -18 -9 -47 -13 -43 -6 -49
-9 -31 -15 36 -14 77 0 96 32 19 32 18 34 -6 15z"/>
<path d="M1708 1373 c7 -3 16 -2 19 1 4 3 -2 6 -13 5 -11 0 -14 -3 -6 -6z"/>
<path d="M1300 1359 c0 -5 5 -7 10 -4 6 3 10 8 10 11 0 2 -4 4 -10 4 -5 0 -10
-5 -10 -11z"/>
<path d="M1642 1353 c-6 -3 -10 -9 -6 -14 3 -5 -5 -8 -18 -6 -17 1 -24 -4 -26
-20 -2 -13 -8 -23 -14 -23 -6 0 -9 -3 -5 -6 3 -3 23 7 43 22 21 16 39 28 41
27 4 -4 5 6 1 16 -2 4 -9 6 -16 4z"/>
<path d="M1780 1350 c0 -6 7 -10 15 -10 8 0 15 2 15 4 0 2 -7 6 -15 10 -8 3
-15 1 -15 -4z"/>
<path d="M2135 1270 c-4 -52 -5 -111 -3 -130 2 -19 7 17 12 82 5 64 6 122 4
130 -3 7 -9 -30 -13 -82z"/>
<path d="M670 1347 c0 -18 34 -73 64 -102 25 -24 28 -25 13 -5 -9 14 -31 45
-47 70 -16 25 -30 41 -30 37z"/>
<path d="M1435 1340 c-3 -6 1 -7 9 -4 18 7 21 14 7 14 -6 0 -13 -4 -16 -10z"/>
<path d="M1700 1340 c0 -5 4 -10 9 -10 6 0 13 5 16 10 3 6 -1 10 -9 10 -9 0
-16 -4 -16 -10z"/>
<path d="M1096 1245 c6 -117 8 -128 22 -133 15 -5 15 -1 1 35 -6 15 -14 62
-19 103 l-9 75 5 -80z"/>
<path d="M1839 1283 c-13 -15 -12 -15 9 -4 23 12 28 21 13 21 -5 0 -15 -7 -22
-17z"/>
<path d="M1420 1280 c-9 -6 -10 -10 -3 -10 6 0 15 5 18 10 8 12 4 12 -15 0z"/>
<path d="M1250 1257 c25 -12 52 -21 59 -18 13 4 13 5 0 9 -7 3 -21 10 -29 16
-8 7 -28 13 -45 14 -28 2 -27 1 15 -21z"/>
<path d="M1160 1245 c0 -8 4 -15 10 -15 5 0 7 7 4 15 -4 8 -8 15 -10 15 -2 0
-4 -7 -4 -15z"/>
<path d="M1210 1236 c0 -2 7 -7 16 -10 8 -3 12 -2 9 4 -6 10 -25 14 -25 6z"/>
<path d="M1630 1230 c-8 -5 -10 -10 -5 -10 6 0 17 5 25 10 8 5 11 10 5 10 -5
0 -17 -5 -25 -10z"/>
<path d="M870 1211 c0 -6 4 -13 10 -16 6 -3 7 1 4 9 -7 18 -14 21 -14 7z"/>
<path d="M1726 1205 c-11 -8 -15 -15 -9 -15 6 0 16 7 23 15 16 19 11 19 -14 0z"/>
<path d="M1673 1194 c4 -4 1 -14 -6 -22 -10 -13 -9 -14 11 -3 27 14 27 17 5
25 -10 4 -14 4 -10 0z"/>
<path d="M1620 1176 c0 -2 8 -10 18 -17 15 -13 16 -12 3 4 -13 16 -21 21 -21
13z"/>
<path d="M1182 1161 c-11 -6 -11 -10 0 -18 19 -16 56 -25 61 -16 3 4 -6 9 -20
9 -31 2 -41 13 -23 24 8 6 11 10 5 10 -5 0 -16 -4 -23 -9z"/>
<path d="M1375 1160 c-3 -5 -1 -10 4 -10 6 0 11 5 11 10 0 6 -2 10 -4 10 -3 0
-8 -4 -11 -10z"/>
<path d="M1140 1155 c0 -26 22 -84 36 -96 13 -10 17 -10 24 1 5 8 2 19 -11 29
-10 9 -25 30 -34 46 -8 17 -15 26 -15 20z m45 -75 c3 -5 1 -10 -4 -10 -6 0
-11 5 -11 10 0 6 2 10 4 10 3 0 8 -4 11 -10z"/>
<path d="M1599 1152 c-4 -11 -34 -22 -66 -24 -7 -1 -10 -4 -8 -8 5 -8 -39 -30
-61 -30 -8 0 -13 -4 -10 -9 7 -11 -63 -66 -72 -56 -3 3 0 10 8 15 8 6 11 10 5
10 -21 -1 -47 -29 -42 -47 4 -16 5 -16 6 0 0 9 6 17 12 17 5 0 7 -5 3 -12 -9
-14 6 -6 67 39 42 29 153 87 171 88 3 0 10 4 15 9 4 5 3 6 -4 3 -6 -4 -13 -1
-15 5 -4 11 -6 10 -9 0z"/>
<path d="M840 1086 c0 -2 8 -10 18 -17 15 -13 16 -12 3 4 -13 16 -21 21 -21
13z"/>
<path d="M1279 1037 c28 -27 55 -47 58 -43 4 3 -13 24 -36 46 -23 22 -34 37
-24 33 10 -3 15 -3 11 1 -3 4 -19 9 -34 11 -26 2 -24 0 25 -48z"/>
<path d="M1350 1079 c0 -5 5 -7 10 -4 6 3 10 8 10 11 0 2 -4 4 -10 4 -5 0 -10
-5 -10 -11z"/>
<path d="M2151 1064 c0 -11 3 -14 6 -6 3 7 2 16 -1 19 -3 4 -6 -2 -5 -13z"/>
<path d="M1785 1060 c4 -6 19 -17 35 -25 25 -13 29 -13 24 -1 -3 8 -19 19 -35
25 -18 6 -27 6 -24 1z"/>
<path d="M1215 1037 c7 -16 37 -19 32 -3 -2 6 -11 12 -20 14 -11 2 -15 -1 -12
-11z"/>
<path d="M2133 1026 c3 -8 2 -16 -2 -18 -5 -2 -11 -28 -15 -58 -4 -35 -3 -48
3 -35 5 11 7 23 4 28 -2 4 0 7 6 7 5 0 11 -5 13 -11 2 -6 4 14 5 45 1 33 -3
56 -9 56 -6 0 -8 -6 -5 -14z"/>
<path d="M1700 988 c0 -13 4 -29 8 -36 6 -8 9 0 9 23 0 19 -4 35 -9 35 -4 0
-8 -10 -8 -22z"/>
<path d="M1550 982 c0 -4 15 -16 33 -26 17 -9 25 -15 17 -12 -9 2 -29 -2 -44
-8 -26 -10 -23 -12 37 -11 36 0 63 3 59 6 -22 18 -102 58 -102 51z"/>
<path d="M1161 934 c0 -11 3 -14 6 -6 3 7 2 16 -1 19 -3 4 -6 -2 -5 -13z"/>
<path d="M1785 931 c-3 -5 -1 -12 5 -16 5 -3 10 1 10 9 0 18 -6 21 -15 7z"/>
<path d="M1866 902 c-11 -32 -47 -73 -58 -66 -7 4 -8 2 -4 -4 3 -6 0 -14 -8
-19 -14 -8 -27 -93 -14 -93 5 0 8 15 8 33 0 36 24 77 45 77 12 0 12 -6 0 -41
-20 -55 -19 -59 8 -58 12 0 16 3 10 6 -9 3 -10 10 -4 21 11 21 34 153 27 159
-2 2 -7 -4 -10 -15z"/>
<path d="M1993 892 c-25 -29 -28 -30 -45 -15 -22 20 -24 10 -2 -12 15 -14 12
-20 -31 -66 -26 -28 -44 -53 -40 -57 6 -7 28 16 103 108 23 29 42 49 42 45 0
-14 -191 -255 -216 -272 -14 -10 -41 -33 -60 -51 -19 -19 -41 -31 -49 -28 -7
2 -16 -2 -19 -10 -3 -8 -11 -14 -17 -14 -9 0 -10 25 -6 93 18 260 17 247 7
192 -11 -53 -39 -308 -35 -313 7 -8 117 53 166 92 50 40 207 234 239 295 21
40 -4 49 -37 13z"/>
<path d="M886 897 c3 -10 9 -15 12 -12 3 3 0 11 -7 18 -10 9 -11 8 -5 -6z"/>
<path d="M994 886 c5 -26 -15 -51 -29 -38 -5 4 -5 1 -1 -6 4 -7 11 -10 16 -7
4 3 11 -2 14 -11 9 -23 8 -24 -11 -17 -14 5 -13 1 4 -16 32 -31 46 -26 28 10
-10 18 -14 43 -11 64 3 19 1 37 -4 40 -7 4 -9 -3 -6 -19z"/>
<path d="M1696 877 c3 -10 9 -15 12 -12 3 3 0 11 -7 18 -10 9 -11 8 -5 -6z"/>
<path d="M1785 879 c-11 -17 -2 -18 19 -3 17 12 17 14 4 14 -9 0 -20 -5 -23
-11z"/>
<path d="M1734 855 c-4 -8 -14 -15 -25 -15 -16 0 -18 -12 -21 -136 -2 -75 -1
-137 3 -139 9 -6 118 80 155 123 60 70 14 47 -56 -28 -36 -39 -70 -70 -75 -70
-14 0 -15 133 -1 143 7 4 8 10 1 15 -5 4 -11 24 -13 45 -3 31 0 37 16 37 10 0
27 9 37 20 17 18 17 20 1 20 -9 0 -19 -7 -22 -15z"/>
<path d="M1611 790 c-12 -38 -27 -70 -32 -70 -6 0 -8 -4 -5 -8 10 -16 -46
-167 -67 -183 -5 -3 -8 -10 -7 -15 1 -5 -3 -10 -8 -12 -12 -4 -32 110 -34 191
-1 32 -5 60 -10 63 -4 3 -8 -4 -8 -15 0 -28 -18 -27 -23 2 -4 20 -4 20 -5 -3
0 -30 15 -84 17 -57 1 24 21 22 21 -3 0 -11 -7 -20 -15 -20 -12 0 -13 -4 -5
-19 5 -11 10 -31 10 -45 0 -13 9 -45 20 -71 25 -59 25 -65 -2 -37 -13 12 -40
38 -61 57 -37 35 -41 55 -10 55 12 0 13 6 7 28 -4 15 -8 39 -8 54 -1 14 -5 26
-11 25 -15 -3 -23 -60 -11 -76 7 -9 6 -16 -5 -25 -9 -6 -21 -21 -27 -33 -11
-19 -5 -28 56 -91 80 -83 119 -111 127 -91 49 130 99 274 106 309 9 41 20 160
15 160 -1 0 -12 -31 -25 -70z m-35 -181 c-48 -147 -66 -189 -82 -189 -18 0
-97 72 -127 114 -19 28 -17 28 24 -9 25 -22 59 -52 76 -67 l31 -27 12 32 c7
18 20 50 30 72 9 22 28 76 41 119 12 44 24 75 26 69 2 -5 -12 -56 -31 -114z"/>
<path d="M1520 847 c0 -2 14 -16 32 -33 l31 -29 -23 33 c-20 27 -40 42 -40 29z"/>
<path d="M1487 784 c-13 -13 5 -24 36 -23 26 0 28 2 12 8 -11 5 -26 6 -34 3
-9 -3 -12 -1 -7 6 8 13 3 16 -7 6z"/>
<path d="M1242 751 c-11 -7 -10 -10 3 -15 23 -9 25 -8 25 9 0 17 -9 19 -28 6z"/>
<path d="M1290 579 c0 -5 5 -7 10 -4 6 3 10 8 10 11 0 2 -4 4 -10 4 -5 0 -10
-5 -10 -11z"/>
<path d="M747 323 c414 -2 1092 -2 1505 0 414 1 76 2 -752 2 -828 0 -1166 -1
-753 -2z"/>
</g>
</svg>
