<?xml version="1.0" standalone="no"?>
<!DOCTYPE svg PUBLIC "-//W3C//DTD SVG 20010904//EN"
 "http://www.w3.org/TR/2001/REC-SVG-20010904/DTD/svg10.dtd">
<svg version="1.0" xmlns="http://www.w3.org/2000/svg"
 width="300.000000pt" height="360.000000pt" viewBox="0 0 300.000000 360.000000"
 preserveAspectRatio="xMidYMid meet">
<metadata>
Created by potrace 1.10, written by Peter Selinger 2001-2011
</metadata>
<g transform="translate(0.000000,360.000000) scale(0.100000,-0.100000)"
fill="#000000" stroke="none">
<path d="M1400 3585 c0 -8 2 -15 4 -15 2 0 6 7 10 15 3 8 1 15 -4 15 -6 0 -10
-7 -10 -15z"/>
<path d="M1445 3590 c-3 -5 -1 -10 4 -10 6 0 11 5 11 10 0 6 -2 10 -4 10 -3 0
-8 -4 -11 -10z"/>
<path d="M1491 3589 c-1 -9 -8 -19 -16 -23 -24 -9 -15 -54 13 -61 22 -5 51 15
52 37 0 17 -13 38 -25 38 -7 0 -16 6 -18 13 -4 7 -6 6 -6 -4z m28 -38 c12 -21
5 -31 -21 -31 -11 0 -18 7 -18 18 0 35 23 43 39 13z"/>
<path d="M1681 3583 c-7 -8 -11 -16 -8 -19 2 -2 10 2 17 11 17 20 9 27 -9 8z"/>
<path d="M2752 3580 c0 -14 2 -19 5 -12 2 6 2 18 0 25 -3 6 -5 1 -5 -13z"/>
<path d="M1545 3580 c-3 -5 -2 -10 4 -10 5 0 13 5 16 10 3 6 2 10 -4 10 -5 0
-13 -4 -16 -10z"/>
<path d="M1841 3578 c0 -9 -4 -25 -7 -35 -5 -17 -5 -17 6 0 6 10 9 25 7 35 -4
15 -5 15 -6 0z"/>
<path d="M1110 3565 c0 -8 4 -15 10 -15 5 0 7 7 4 15 -4 8 -8 15 -10 15 -2 0
-4 -7 -4 -15z"/>
<path d="M1365 3570 c3 -5 8 -10 11 -10 2 0 4 5 4 10 0 6 -5 10 -11 10 -5 0
-7 -4 -4 -10z"/>
<path d="M242 3550 c0 -14 2 -19 5 -12 2 6 2 18 0 25 -3 6 -5 1 -5 -13z"/>
<path d="M940 3561 c0 -6 4 -13 10 -16 6 -3 7 1 4 9 -7 18 -14 21 -14 7z"/>
<path d="M351 3544 c0 -11 3 -14 6 -6 3 7 2 16 -1 19 -3 4 -6 -2 -5 -13z"/>
<path d="M1436 3533 c-4 -18 -12 -36 -18 -39 -7 -5 -8 -2 -3 7 5 8 4 11 -1 6
-5 -5 -14 -23 -20 -40 -6 -18 -16 -32 -23 -32 -18 0 -31 -27 -25 -49 5 -15 3
-18 -10 -13 -17 7 -59 -30 -50 -45 3 -4 1 -8 -4 -8 -6 0 -12 -7 -16 -15 -3 -9
0 -15 10 -15 8 0 13 4 9 9 -5 9 15 8 70 -3 15 -3 35 14 80 70 33 40 62 74 65
73 3 0 32 -34 65 -76 33 -42 65 -81 70 -87 41 -45 142 -174 148 -188 3 -10 11
-18 17 -18 14 0 13 12 -5 37 -8 12 -12 28 -9 37 7 18 21 21 26 6 2 -7 11 -4
23 5 20 16 20 16 -2 10 -26 -7 -30 3 -8 19 14 10 14 13 0 34 -19 25 -37 28
-58 7 -8 -8 -18 -11 -22 -7 -4 4 2 -9 14 -28 23 -39 26 -50 11 -50 -5 0 -10 7
-10 15 0 8 -5 15 -11 15 -5 0 -7 5 -3 12 4 7 3 8 -4 4 -11 -6 -16 5 -13 26 0
4 -6 5 -14 2 -8 -4 -15 -2 -15 3 0 4 -11 20 -24 35 -14 14 -22 29 -18 34 4 4
3 5 -3 2 -15 -9 -48 39 -33 48 7 4 8 3 4 -4 -5 -8 -2 -10 8 -6 9 3 16 2 16 -3
0 -6 11 -15 25 -21 14 -6 25 -19 25 -27 0 -9 -4 -13 -10 -10 -6 3 -7 -1 -4 -9
3 -9 9 -16 13 -17 3 0 15 -2 26 -5 13 -2 29 6 44 24 18 21 22 23 17 7 -5 -14
-4 -17 4 -9 6 6 8 19 4 28 -5 14 -9 15 -15 4 -7 -10 -11 -7 -15 10 -8 26 -12
27 -44 5 -23 -16 -23 -16 -16 3 13 33 17 66 7 60 -5 -4 -12 -2 -15 3 -8 12
-43 2 -50 -15 -7 -18 -47 -9 -66 15 -8 11 -26 33 -39 50 -27 36 -46 39 -76 11
l-22 -21 -24 22 -24 21 26 -15 c25 -15 28 -15 44 3 10 11 24 20 32 20 7 0 13
8 13 18 0 14 -2 15 -10 2 -8 -13 -12 -11 -27 10 -10 14 -21 36 -24 50 -5 24
-5 24 -13 -7z m30 -72 c-9 -14 -33 -14 -41 -1 -4 6 -1 18 6 26 11 13 14 13 27
0 8 -8 11 -19 8 -25z m-56 -57 c0 -19 -28 -30 -42 -16 -8 8 -8 15 1 26 14 17
41 10 41 -10z m30 -8 c0 -3 -4 -8 -10 -11 -5 -3 -10 -1 -10 4 0 6 5 11 10 11
6 0 10 -2 10 -4z m-40 -35 c0 -3 -5 -13 -10 -21 -8 -13 -10 -12 -10 3 0 11 -4
15 -12 11 -6 -4 -8 -3 -5 3 7 10 37 14 37 4z m-53 -12 c14 -14 6 -39 -12 -39
-18 0 -28 17 -21 35 6 18 18 19 33 4z m353 -9 c0 -13 -7 -20 -19 -20 -22 0
-35 15 -26 30 12 19 45 11 45 -10z m53 -82 c-12 -14 -19 -15 -30 -7 -30 25 -4
56 29 35 16 -9 16 -12 1 -28z m63 -67 c-10 -16 -36 -13 -43 5 -8 22 18 37 36
20 7 -8 10 -19 7 -25z"/>
<path d="M2080 3539 c0 -5 5 -7 10 -4 6 3 10 8 10 11 0 2 -4 4 -10 4 -5 0 -10
-5 -10 -11z"/>
<path d="M2135 3540 c-3 -5 -1 -10 4 -10 6 0 11 5 11 10 0 6 -2 10 -4 10 -3 0
-8 -4 -11 -10z"/>
<path d="M300 3529 c0 -5 5 -7 10 -4 6 3 10 8 10 11 0 2 -4 4 -10 4 -5 0 -10
-5 -10 -11z"/>
<path d="M1686 3527 c3 -10 9 -15 12 -12 3 3 0 11 -7 18 -10 9 -11 8 -5 -6z"/>
<path d="M2188 3517 c-3 -19 -2 -25 4 -19 6 6 8 18 6 28 -3 14 -5 12 -10 -9z"/>
<path d="M2871 3524 c0 -11 3 -14 6 -6 3 7 2 16 -1 19 -3 4 -6 -2 -5 -13z"/>
<path d="M171 3504 c0 -11 3 -14 6 -6 3 7 2 16 -1 19 -3 4 -6 -2 -5 -13z"/>
<path d="M241 3504 c0 -11 3 -14 6 -6 3 7 2 16 -1 19 -3 4 -6 -2 -5 -13z"/>
<path d="M1278 3513 c7 -3 16 -2 19 1 4 3 -2 6 -13 5 -11 0 -14 -3 -6 -6z"/>
<path d="M1531 3493 c-11 -23 -10 -29 5 -40 25 -19 47 -16 62 7 10 17 9 23 -8
40 -27 27 -44 25 -59 -7z m57 -14 c4 -19 -19 -31 -38 -19 -18 11 -4 42 17 38
10 -2 19 -10 21 -19z"/>
<path d="M1825 3509 c-4 -6 -5 -12 -2 -15 2 -3 7 2 10 11 7 17 1 20 -8 4z"/>
<path d="M1915 3510 c4 -6 11 -8 16 -5 14 9 11 15 -7 15 -8 0 -12 -5 -9 -10z"/>
<path d="M2130 3515 c0 -5 5 -17 10 -25 5 -8 10 -10 10 -5 0 6 -5 17 -10 25
-5 8 -10 11 -10 5z"/>
<path d="M2282 3490 c0 -14 2 -19 5 -12 2 6 2 18 0 25 -3 6 -5 1 -5 -13z"/>
<path d="M1221 3484 c0 -11 3 -14 6 -6 3 7 2 16 -1 19 -3 4 -6 -2 -5 -13z"/>
<path d="M1690 3490 c-9 -6 -10 -10 -3 -10 6 0 15 5 18 10 8 12 4 12 -15 0z"/>
<path d="M1310 3475 c-7 -9 -8 -15 -2 -15 5 0 12 7 16 15 3 8 4 15 2 15 -2 0
-9 -7 -16 -15z"/>
<path d="M1370 3474 c0 -8 5 -12 10 -9 6 4 8 11 5 16 -9 14 -15 11 -15 -7z"/>
<path d="M2941 3474 c0 -11 3 -14 6 -6 3 7 2 16 -1 19 -3 4 -6 -2 -5 -13z"/>
<path d="M2181 3465 c0 -11 4 -29 9 -40 9 -20 9 -20 9 0 0 11 -4 29 -9 40 -9
20 -9 20 -9 0z"/>
<path d="M2870 3470 c0 -5 5 -10 11 -10 5 0 7 5 4 10 -3 6 -8 10 -11 10 -2 0
-4 -4 -4 -10z"/>
<path d="M1640 3466 c0 -2 8 -10 18 -17 15 -13 16 -12 3 4 -13 16 -21 21 -21
13z"/>
<path d="M1703 3451 c0 -11 5 -18 9 -15 4 3 5 11 1 19 -7 21 -12 19 -10 -4z"/>
<path d="M1740 3460 c0 -5 5 -10 11 -10 5 0 7 5 4 10 -3 6 -8 10 -11 10 -2 0
-4 -4 -4 -10z"/>
<path d="M1602 3441 c-41 -31 -13 -82 37 -66 22 7 22 45 -1 68 -13 13 -17 13
-36 -2z m44 -22 c3 -6 0 -17 -7 -25 -18 -17 -44 -2 -36 20 7 18 33 21 43 5z"/>
<path d="M541 3434 c0 -11 3 -14 6 -6 3 7 2 16 -1 19 -3 4 -6 -2 -5 -13z"/>
<path d="M2841 3434 c0 -11 3 -14 6 -6 3 7 2 16 -1 19 -3 4 -6 -2 -5 -13z"/>
<path d="M362 3420 c0 -14 2 -19 5 -12 2 6 2 18 0 25 -3 6 -5 1 -5 -13z"/>
<path d="M1785 3419 c-4 -6 -5 -12 -2 -15 2 -3 7 2 10 11 7 17 1 20 -8 4z"/>
<path d="M2315 3420 c-3 -5 -1 -10 4 -10 6 0 11 5 11 10 0 6 -2 10 -4 10 -3 0
-8 -4 -11 -10z"/>
<path d="M2941 3414 c0 -11 3 -14 6 -6 3 7 2 16 -1 19 -3 4 -6 -2 -5 -13z"/>
<path d="M2272 3400 c0 -14 2 -19 5 -12 2 6 2 18 0 25 -3 6 -5 1 -5 -13z"/>
<path d="M2412 3400 c0 -14 2 -19 5 -12 2 6 2 18 0 25 -3 6 -5 1 -5 -13z"/>
<path d="M1256 3397 c3 -10 9 -15 12 -12 3 3 0 11 -7 18 -10 9 -11 8 -5 -6z"/>
<path d="M1900 3401 c0 -6 4 -13 10 -16 6 -3 7 1 4 9 -7 18 -14 21 -14 7z"/>
<path d="M2770 3400 c0 -6 7 -10 15 -10 8 0 15 2 15 4 0 2 -7 6 -15 10 -8 3
-15 1 -15 -4z"/>
<path d="M1979 3390 c-3 -20 -4 -25 -13 -40 -7 -12 -6 -13 4 -3 13 12 25 53
15 53 -3 0 -6 -4 -6 -10z"/>
<path d="M2576 3392 c-3 -5 1 -9 9 -9 8 0 12 4 9 9 -3 4 -7 8 -9 8 -2 0 -6 -4
-9 -8z"/>
<path d="M1103 3375 c0 -8 4 -12 9 -9 5 3 6 10 3 15 -9 13 -12 11 -12 -6z"/>
<path d="M2696 3377 c3 -10 9 -15 12 -12 3 3 0 11 -7 18 -10 9 -11 8 -5 -6z"/>
<path d="M1462 3328 c-39 -51 -34 -62 9 -19 l32 32 19 -21 c10 -11 17 -24 14
-28 -2 -4 -1 -14 5 -22 7 -13 9 -13 9 -1 0 11 5 10 20 -4 11 -10 17 -22 13
-28 -3 -6 -1 -7 5 -3 7 4 12 3 12 -2 0 -4 8 -17 18 -28 73 -81 158 -184 175
-211 10 -18 22 -33 26 -33 4 0 14 -12 22 -27 15 -30 57 -68 74 -68 5 0 17 -5
25 -10 13 -8 13 -7 1 8 -8 10 -19 16 -25 14 -15 -5 -67 63 -59 76 3 5 1 7 -5
3 -9 -5 -72 62 -72 79 0 3 -14 18 -31 32 -17 15 -28 32 -25 40 3 8 2 12 -3 9
-13 -8 -67 63 -63 83 2 12 1 13 -6 3 -7 -10 -13 -6 -27 15 -10 15 -31 42 -47
58 -16 17 -38 45 -51 62 -12 18 -24 33 -27 33 -3 0 -20 -19 -38 -42z"/>
<path d="M2568 3345 c-3 -14 -1 -25 3 -25 5 0 9 11 9 25 0 14 -2 25 -4 25 -2
0 -6 -11 -8 -25z"/>
<path d="M2981 3334 c0 -11 3 -14 6 -6 3 7 2 16 -1 19 -3 4 -6 -2 -5 -13z"/>
<path d="M306 3327 c3 -10 9 -15 12 -12 3 3 0 11 -7 18 -10 9 -11 8 -5 -6z"/>
<path d="M1030 3329 c0 -5 5 -7 10 -4 6 3 10 8 10 11 0 2 -4 4 -10 4 -5 0 -10
-5 -10 -11z"/>
<path d="M1143 3319 c-2 -23 3 -25 10 -4 4 8 3 16 -1 19 -4 3 -9 -4 -9 -15z"/>
<path d="M1566 3315 c4 -8 8 -15 10 -15 2 0 4 7 4 15 0 8 -4 15 -10 15 -5 0
-7 -7 -4 -15z"/>
<path d="M1883 3315 c0 -8 4 -12 9 -9 5 3 6 10 3 15 -9 13 -12 11 -12 -6z"/>
<path d="M2587 3313 c-4 -3 -7 -11 -7 -17 0 -6 5 -5 12 2 6 6 9 14 7 17 -3 3
-9 2 -12 -2z"/>
<path d="M1925 3299 c-4 -6 -5 -12 -2 -15 2 -3 7 2 10 11 7 17 1 20 -8 4z"/>
<path d="M2380 3282 c0 -17 4 -33 9 -36 4 -3 7 9 5 26 -5 42 -14 49 -14 10z"/>
<path d="M2481 3294 c0 -11 3 -14 6 -6 3 7 2 16 -1 19 -3 4 -6 -2 -5 -13z"/>
<path d="M2985 3299 c-4 -6 -5 -12 -2 -15 2 -3 7 2 10 11 7 17 1 20 -8 4z"/>
<path d="M1839 3283 c-13 -16 -12 -17 4 -4 9 7 17 15 17 17 0 8 -8 3 -21 -13z"/>
<path d="M2237 3289 c7 -7 15 -10 18 -7 3 3 -2 9 -12 12 -14 6 -15 5 -6 -5z"/>
<path d="M1078 3278 c14 -18 1 -34 -19 -23 -5 4 -27 -5 -48 -18 -45 -30 -112
-59 -119 -52 -3 2 3 7 12 11 17 6 13 24 -6 24 -6 0 -8 -3 -5 -7 10 -9 -31 -35
-43 -28 -6 4 -10 3 -9 -2 4 -21 -2 -24 -18 -12 -16 12 -17 12 -6 -2 10 -12 10
-18 1 -27 -7 -7 -8 -12 -2 -12 6 0 21 11 34 25 13 14 28 25 34 25 5 0 -3 -13
-19 -30 -16 -16 -35 -30 -42 -30 -8 0 -11 -4 -8 -10 3 -5 0 -7 -9 -4 -8 3 -12
13 -9 22 4 14 3 14 -5 3 -6 -8 -8 -19 -6 -26 3 -6 -11 -43 -29 -81 -40 -79
-50 -130 -35 -176 5 -18 13 -71 17 -118 l8 -85 2 110 c1 116 7 155 23 155 5 0
6 -5 2 -11 -4 -7 1 -7 16 1 18 9 25 8 41 -6 18 -16 19 -16 19 4 0 11 3 28 6
37 6 13 9 14 16 3 7 -9 8 -7 5 10 -3 12 -1 20 4 16 5 -3 9 11 9 30 0 33 20 66
41 66 6 0 7 5 4 10 -7 12 -55 -34 -55 -52 0 -20 -35 -87 -47 -92 -8 -3 -13 2
-13 12 0 15 -2 15 -10 2 -9 -13 -14 -11 -35 13 -20 23 -23 32 -15 48 6 10 16
19 23 19 9 0 9 2 0 8 -18 11 79 112 108 112 21 0 22 -1 4 -20 -10 -11 -27 -20
-37 -20 -11 0 -17 -4 -13 -10 3 -5 -6 -15 -21 -23 -23 -12 -27 -21 -30 -68
l-3 -54 9 45 c6 30 20 54 40 73 31 27 57 37 44 15 -4 -7 -3 -8 4 -4 7 4 12 15
12 24 0 9 14 32 31 50 27 29 29 48 1 20 -6 -6 -20 -13 -29 -14 -14 -2 -13 2 6
17 13 11 31 18 40 17 23 -5 17 -59 -10 -80 -27 -23 -16 -23 16 -2 16 10 36 14
53 11 15 -3 34 -2 42 4 11 6 5 9 -20 9 -26 0 -31 3 -20 10 9 6 10 10 3 10 -6
0 -15 -4 -18 -10 -13 -21 -25 -9 -19 18 7 28 43 69 56 65 5 -2 8 2 8 7 0 6 4
10 10 10 5 0 7 -8 3 -17 -5 -14 -1 -13 19 5 13 12 33 22 44 22 11 0 25 5 32
12 8 8 12 9 12 1 0 -12 6 -11 52 1 15 5 34 3 45 -3 16 -9 16 -11 -7 -12 -14
-1 -29 0 -35 1 -5 1 -6 -2 -2 -6 5 -5 26 -9 47 -9 24 0 35 4 30 9 -6 6 1 15
17 23 28 14 46 18 24 4 -10 -6 -5 -12 18 -24 17 -9 29 -11 26 -6 -4 5 1 9 9 9
8 0 17 -4 20 -9 3 -5 16 -7 28 -3 13 3 19 1 15 -5 -3 -5 9 -17 28 -26 19 -9
35 -21 35 -26 0 -5 20 -18 45 -30 25 -12 45 -26 45 -32 0 -5 4 -7 10 -4 15 9
50 -14 50 -33 0 -10 13 -28 29 -40 17 -12 29 -30 29 -39 -1 -24 37 -105 45
-96 4 3 7 -1 7 -10 0 -9 9 -26 21 -38 17 -17 18 -23 7 -37 -7 -9 -8 -13 -2 -9
10 6 24 -11 28 -33 1 -3 4 -10 8 -16 4 -6 10 -31 14 -55 4 -24 11 -49 16 -56
5 -7 7 -16 4 -22 -3 -5 0 -11 6 -14 10 -3 9 -8 -2 -22 -9 -11 -10 -16 -2 -11
6 4 12 3 12 -3 0 -5 -4 -13 -10 -16 -5 -3 -10 -12 -9 -18 0 -9 2 -9 6 1 2 6 9
12 15 12 6 0 8 -6 5 -14 -3 -7 0 -19 6 -25 6 -6 7 -11 2 -11 -6 0 -4 -4 4 -9
12 -8 16 -29 24 -117 1 -14 7 -20 16 -16 11 4 13 -2 8 -27 -4 -20 -3 -30 3
-26 6 3 10 -5 10 -18 0 -13 3 -27 6 -30 4 -4 8 -25 10 -48 3 -24 11 -56 19
-73 18 -35 32 -140 16 -116 -5 8 -7 18 -4 24 3 5 1 6 -6 2 -7 -4 -15 2 -20 16
-6 13 -10 17 -10 11 -1 -15 -31 -18 -31 -3 0 6 -15 10 -34 10 -19 0 -36 5 -38
12 -3 7 -18 -9 -36 -34 -17 -25 -43 -53 -57 -62 -14 -9 -23 -21 -20 -26 3 -5
0 -12 -6 -16 -7 -4 -9 -3 -6 3 3 5 -4 9 -16 8 -12 -1 -22 -7 -22 -12 0 -12
-40 -46 -65 -56 -10 -4 -11 -6 -2 -6 7 -1 28 10 46 24 18 14 36 25 41 25 9 0
-67 -82 -137 -147 -49 -46 -51 -47 -44 -20 4 16 24 44 46 64 21 20 37 40 34
45 -3 5 -10 6 -15 2 -5 -3 -7 -10 -4 -15 4 -5 -1 -9 -9 -9 -8 0 -20 -9 -26
-20 -6 -11 -15 -18 -21 -15 -5 4 -9 3 -8 -2 1 -4 1 -17 0 -28 -1 -17 -3 -18
-12 -5 -9 13 -10 13 -7 0 3 -22 -12 -61 -22 -55 -13 8 -21 -25 -10 -46 10 -17
6 -23 -12 -20 -4 0 -5 -5 -2 -12 3 -8 -5 -19 -18 -25 l-23 -11 23 -7 c12 -3
22 -8 22 -10 0 -2 -15 -18 -32 -35 -18 -17 -28 -28 -21 -25 7 4 17 -2 23 -13
8 -17 6 -22 -11 -31 -16 -9 -18 -14 -8 -26 10 -12 7 -19 -11 -39 -21 -22 -21
-25 -6 -25 13 0 17 -5 13 -20 -3 -11 -1 -18 4 -14 12 7 11 -57 -1 -76 -6 -10
-8 -3 -3 23 4 25 2 37 -6 37 -7 0 -10 -4 -6 -10 3 -5 3 -21 -1 -35 -5 -21 -9
-24 -16 -13 -8 10 -9 10 -5 -2 2 -8 -2 -21 -10 -28 -7 -7 -13 -19 -13 -25 0
-7 12 2 26 18 25 29 25 29 20 5 -3 -14 -9 -49 -13 -79 l-6 -54 -18 22 -19 23
1 -39 c2 -44 -5 -91 -15 -100 -3 -3 -6 3 -6 15 0 12 -6 22 -13 22 -7 0 -20 12
-29 28 -10 15 -18 21 -18 15 0 -7 -4 -13 -10 -13 -5 0 -7 14 -3 33 7 39 23 60
23 31 0 -12 8 -28 18 -37 17 -15 18 -15 19 4 1 10 -2 17 -8 14 -14 -9 -32 46
-19 59 8 8 12 4 16 -12 7 -24 19 -28 30 -10 4 7 3 8 -4 4 -15 -9 -15 -1 0 27
10 20 10 21 -6 8 -20 -16 -23 -14 -28 19 -2 20 1 24 16 22 18 -3 18 -3 2 14
-12 11 -16 27 -14 46 3 20 1 25 -6 18 -5 -5 -9 -26 -8 -45 2 -29 -2 -37 -28
-50 -34 -18 -40 -5 -10 25 21 21 27 35 10 25 -13 -8 -13 11 0 35 7 13 7 21 0
25 -5 3 -10 12 -10 18 0 8 3 8 9 -1 6 -10 10 -2 15 25 8 44 26 93 35 94 3 0
14 2 24 4 9 2 24 -6 32 -17 l14 -21 -2 21 c0 11 -6 20 -12 19 -5 -1 -11 15
-13 36 -2 20 1 37 6 37 6 0 12 20 13 44 2 24 1 42 -3 39 -5 -2 -8 -12 -8 -22
0 -15 -38 -51 -53 -51 -13 0 9 68 27 82 11 10 15 18 9 18 -20 0 -15 35 7 55
26 23 37 13 22 -21 -7 -14 -8 -23 -3 -20 5 4 12 -2 14 -11 3 -10 5 -3 6 15 1
40 17 72 35 72 9 0 12 -10 10 -27 -2 -18 -1 -20 3 -8 3 11 10 23 17 27 8 6 7
8 -1 8 -18 0 -16 57 2 63 17 7 29 -8 19 -25 -5 -10 -4 -10 5 -2 9 9 10 17 3
31 -7 12 -7 25 -1 36 14 24 26 21 37 -10 9 -24 11 -25 11 -7 1 27 -18 44 -44
40 -11 -2 -23 2 -27 8 -11 16 -10 28 2 21 6 -3 10 3 10 14 0 11 5 23 11 27 6
3 9 15 6 25 -3 11 -1 19 5 19 5 0 6 5 3 10 -3 6 -1 10 6 10 6 0 9 8 6 20 -3
10 1 27 9 37 22 30 16 34 -11 7 -14 -14 -30 -22 -37 -18 -6 4 -8 3 -5 -3 7
-11 -80 -69 -119 -79 -14 -4 -32 -17 -41 -30 -11 -18 -25 -24 -50 -24 -19 0
-32 3 -30 8 6 8 -50 8 -59 -1 -8 -7 27 -16 84 -21 24 -2 46 -6 49 -9 12 -13
19 -114 8 -124 -7 -6 -22 -23 -33 -38 -13 -17 -32 -28 -47 -27 -13 0 -22 -4
-19 -9 6 -10 -11 -11 -43 -3 -11 3 -23 14 -26 24 -2 10 -15 23 -28 29 l-24 12
23 -17 c30 -23 28 -38 -3 -18 -14 9 -25 20 -25 25 0 5 -13 22 -30 37 l-29 27
18 70 c22 88 38 117 59 113 30 -6 44 -52 36 -119 -4 -39 -10 -56 -15 -47 -5 7
-9 9 -9 3 0 -5 9 -25 20 -43 11 -18 20 -45 20 -60 0 -19 3 -23 9 -13 5 7 14
10 20 7 7 -5 11 10 12 46 0 42 2 48 9 31 5 -13 12 -23 14 -23 8 0 -14 53 -29
70 -25 28 -36 69 -24 92 6 11 7 18 1 15 -7 -5 -32 32 -32 48 0 11 74 53 83 48
6 -3 7 -2 4 4 -4 6 31 36 76 67 134 92 131 87 153 204 13 68 31 102 54 102 3
0 11 -15 18 -33 6 -18 19 -42 27 -52 14 -17 14 -15 0 13 -9 19 -14 36 -11 39
3 3 -1 12 -9 20 -13 12 -10 18 20 46 19 17 35 38 35 45 0 8 5 10 13 6 6 -4 9
-4 6 0 -3 3 0 32 7 64 8 31 14 81 14 110 0 36 4 51 11 46 6 -3 4 5 -6 19 -14
22 -21 25 -53 20 -53 -8 -55 -17 -3 -10 l44 5 -6 -93 c-4 -51 -12 -105 -18
-121 -17 -38 -99 -124 -119 -124 -13 0 -21 -24 -38 -102 -25 -118 -14 -106
-189 -224 -67 -45 -117 -73 -124 -68 -7 4 -9 3 -6 -4 7 -10 -64 -28 -93 -23
-35 6 -60 45 -150 231 -51 105 -80 189 -80 233 0 30 -7 53 -20 68 -10 13 -19
19 -20 13 0 -6 7 -17 15 -24 10 -8 15 -30 15 -64 0 -58 61 -210 142 -353 43
-77 45 -83 27 -88 -11 -4 -24 -18 -29 -31 -5 -13 -14 -24 -20 -24 -18 0 -57
-74 -64 -124 -4 -27 -14 -59 -22 -71 -8 -13 -11 -30 -8 -40 5 -12 4 -16 -4
-11 -12 7 -54 -33 -46 -45 2 -4 -1 -11 -7 -15 -8 -4 -9 -3 -5 4 12 19 -7 13
-35 -11 -58 -49 -113 -179 -120 -287 -2 -19 -7 -40 -12 -47 -13 -18 -1 -30 28
-30 34 0 41 -9 24 -30 -11 -16 -11 -16 1 -5 24 21 20 58 -5 57 -12 -1 -28 -5
-36 -10 -12 -8 -12 -7 0 9 8 10 14 33 13 51 -3 39 12 54 27 28 6 -10 11 -13
11 -8 0 6 -7 20 -15 32 -12 18 -14 29 -6 55 l11 33 -3 -32 c-2 -18 0 -30 5
-27 8 5 13 -31 10 -68 -1 -9 5 -22 13 -28 18 -15 20 -71 3 -88 -9 -9 -9 -12 1
-12 9 0 12 -9 8 -29 -5 -23 0 -34 24 -57 l29 -28 0 32 c0 18 -5 32 -11 32 -5
0 -7 -4 -4 -10 3 -5 2 -10 -3 -10 -16 0 -24 63 -10 71 10 7 10 11 0 21 -6 6
-12 26 -12 42 0 28 1 29 17 13 11 -11 17 -33 17 -63 1 -41 2 -43 11 -22 12 29
39 58 54 58 13 0 24 37 16 50 -4 6 0 22 9 35 9 13 16 28 16 32 0 4 -5 0 -11
-10 -6 -9 -14 -15 -20 -12 -5 3 -6 -1 -3 -10 4 -9 3 -15 -2 -14 -21 3 -52 -14
-62 -34 -9 -22 -10 -22 -23 6 -10 22 -10 30 0 40 9 9 14 9 21 -3 6 -9 10 -10
10 -3 0 6 -4 15 -10 18 -5 3 -10 21 -10 38 1 30 2 31 15 14 7 -11 11 -26 8
-35 -4 -10 1 -8 15 6 26 26 29 40 5 21 -15 -12 -16 -12 -10 4 4 11 3 16 -3 12
-7 -4 -10 6 -8 28 1 22 6 33 14 30 7 -2 15 1 20 8 4 8 3 10 -4 5 -14 -9 -16
32 -3 53 12 18 23 -2 14 -26 -5 -15 -4 -16 8 -7 8 7 29 15 47 19 24 5 32 12
32 28 1 20 2 21 14 5 16 -22 22 -22 30 -2 3 8 2 12 -3 9 -5 -3 -16 4 -24 16
-18 25 -8 74 19 94 10 7 15 19 11 27 -3 9 2 24 11 35 9 10 18 25 20 32 1 7 17
31 34 52 26 32 29 42 18 52 -10 10 -12 9 -7 -5 6 -18 -20 -46 -61 -65 -19 -8
-22 -12 -9 -12 24 -1 21 -16 -9 -46 -34 -34 -54 -19 -28 19 11 19 13 26 4 24
-15 -4 -33 49 -19 58 6 3 18 0 27 -8 15 -12 16 -11 3 4 -8 12 -11 27 -6 45 7
27 8 27 17 7 9 -20 12 -19 53 22 49 48 80 51 82 6 0 -15 -1 -19 -4 -9 -9 33
-18 17 -16 -30 1 -35 -4 -54 -17 -68 -25 -26 -23 -64 2 -57 25 6 23 -5 -9 -46
-15 -20 -20 -32 -12 -27 11 7 12 6 3 -6 -6 -8 -14 -26 -18 -41 -3 -16 -11 -28
-17 -28 -6 0 -7 -5 -4 -10 4 -6 10 -8 14 -5 11 6 1 -47 -12 -62 -6 -9 -6 -13
2 -13 15 0 -5 -50 -27 -66 -15 -12 -14 -12 7 -7 21 5 23 3 16 -18 -4 -13 -12
-30 -17 -36 -7 -9 -7 -13 1 -13 8 0 7 -8 -2 -27 -8 -16 -13 -39 -12 -53 1 -14
-4 -35 -11 -47 -12 -19 -12 -22 0 -17 12 4 13 -1 6 -31 -4 -19 -14 -42 -20
-50 -9 -11 -9 -15 -1 -15 17 0 13 -20 -7 -38 -10 -10 -12 -13 -5 -9 10 7 12
-4 11 -48 -1 -31 -5 -58 -8 -60 -4 -3 -6 -15 -5 -27 1 -13 0 -15 -2 -5 -2 9
-8 15 -12 13 -12 -8 -29 8 -33 29 -2 13 2 19 10 17 10 -2 13 9 11 40 -1 24 3
54 10 68 l12 25 -20 -25 c-11 -14 -21 -19 -22 -12 -4 35 -2 47 9 44 7 -1 12 5
12 13 0 8 6 15 13 15 7 0 8 3 2 8 -15 11 -17 39 -5 62 7 13 7 20 0 20 -5 0
-10 -8 -10 -17 -1 -12 -6 -7 -15 12 l-13 30 1 -30 c1 -16 7 -36 13 -42 7 -7
10 -22 7 -34 -5 -19 -7 -19 -15 -5 -5 9 -6 21 -3 26 3 6 1 10 -4 10 -7 0 -12
-26 -13 -62 -1 -35 -2 -83 -2 -108 -2 -55 10 -81 67 -150 30 -36 43 -60 40
-74 -4 -16 -2 -18 5 -7 12 16 25 7 56 -42 14 -21 15 -27 5 -27 -9 -1 -4 -10
11 -23 14 -12 32 -34 40 -49 7 -16 17 -28 22 -28 5 0 6 -4 3 -10 -3 -5 2 -10
11 -10 10 0 15 -2 12 -5 -3 -3 6 -19 21 -35 44 -48 71 -83 71 -91 0 -5 8 -5
18 -2 15 6 16 5 2 -13 -14 -17 -14 -18 2 -6 15 12 9 24 -72 123 l-90 109 0 74
0 75 -37 10 c-21 6 -49 12 -63 15 -15 2 -23 9 -21 17 2 8 5 28 6 44 1 17 6 44
9 60 5 20 4 25 -2 17 -7 -11 -10 -10 -16 3 -9 23 -8 25 9 25 8 0 15 7 15 14 0
13 5 13 36 0 20 -9 40 -12 45 -7 5 5 10 79 12 165 3 110 7 161 17 173 11 13
10 15 -4 9 -9 -3 -16 -1 -16 5 0 12 -50 16 -51 4 0 -5 -2 -19 -5 -33 -14 -88
-16 -92 -26 -82 -11 11 -3 54 23 121 6 15 6 28 -1 36 -7 8 -5 17 8 28 17 16
18 14 14 -21 -2 -26 0 -33 6 -23 6 8 8 21 5 30 -3 9 9 -1 27 -23 31 -36 33
-42 31 -105 -4 -91 -9 -165 -18 -236 l-8 -60 -45 1 -45 2 30 -14 c17 -7 40
-13 51 -14 26 0 31 32 44 250 l8 145 -35 37 c-31 32 -35 41 -29 70 3 18 7 39
8 46 1 8 8 10 17 6 9 -4 36 -12 61 -19 39 -11 42 -13 20 -17 -20 -4 -18 -6 10
-6 19 -1 61 4 93 12 61 14 73 9 61 -27 -9 -24 -14 -54 -17 -102 -1 -16 -6 -33
-11 -37 -5 -3 -11 -21 -14 -40 -6 -56 -9 -72 -16 -89 -4 -8 -8 -35 -10 -60 -2
-24 -8 -57 -15 -72 -12 -32 -18 -114 -8 -124 4 -3 7 20 8 53 1 50 2 54 9 30 5
-16 7 -33 4 -37 -2 -4 0 -10 5 -14 6 -3 4 -19 -5 -40 -20 -48 -18 -114 6 -160
11 -22 20 -47 20 -57 0 -10 3 -18 8 -18 11 0 2 -93 -10 -105 -7 -7 -9 7 -6 45
3 30 1 66 -3 80 -8 22 -8 21 -5 -8 1 -18 -1 -35 -6 -38 -11 -7 -10 -44 3 -162
8 -71 15 -99 25 -99 9 0 10 4 5 11 -5 6 -12 42 -16 79 -7 60 -5 70 11 82 16
11 19 27 19 97 0 46 -3 112 -8 148 -4 39 -4 59 2 50 5 -8 12 -41 15 -72 4 -32
12 -60 17 -63 9 -6 8 3 -12 110 -6 33 -12 67 -13 75 -1 9 -5 21 -9 27 -8 13 0
20 23 19 23 -1 49 -120 37 -168 -12 -48 5 -220 27 -272 l16 -39 25 37 c14 20
34 47 46 59 33 35 41 54 24 60 -9 4 -12 1 -8 -10 3 -8 2 -18 -4 -22 -5 -3 -26
-28 -46 -54 -40 -53 -37 -55 -51 29 -3 18 -8 45 -11 60 -5 22 -4 25 4 14 8
-11 11 4 12 60 1 74 1 74 14 40 17 -43 20 -83 5 -60 -5 8 -10 10 -10 4 0 -5 6
-16 12 -22 9 -9 9 -15 3 -20 -6 -4 -11 -27 -11 -52 -1 -43 -1 -44 9 -15 5 17
14 33 20 36 6 4 6 34 1 80 -4 41 -7 112 -6 159 1 57 -2 80 -8 70 -8 -13 -10
-13 -10 1 0 14 15 18 80 24 52 5 88 13 102 25 13 9 38 25 56 34 l32 17 0 -58
c0 -52 -1 -55 -15 -37 -13 17 -14 16 -3 -15 7 -23 8 -69 3 -145 -4 -61 -8
-123 -9 -138 0 -16 -3 -28 -6 -28 -3 0 -34 22 -70 50 -47 36 -74 49 -98 50
-20 0 -31 -4 -27 -10 3 -5 19 -10 36 -10 16 0 29 -4 29 -9 0 -5 9 -12 20 -16
11 -3 19 -9 17 -13 -1 -4 0 -7 3 -8 3 -1 24 -11 48 -23 23 -12 46 -19 51 -17
5 3 12 53 16 112 4 58 10 103 13 100 9 -10 41 -188 35 -202 -3 -8 -11 -14 -18
-14 -35 0 -16 -83 35 -154 33 -46 32 -63 -5 -103 -11 -12 -32 -37 -46 -55 -15
-18 -48 -59 -73 -91 -38 -47 -45 -61 -36 -75 11 -16 11 -16 6 1 -7 22 22 57
43 50 13 -4 13 -3 2 5 -11 8 -6 18 26 53 21 24 78 92 126 150 74 92 84 109 72
119 -13 11 -14 10 -9 -4 3 -9 1 -16 -4 -16 -6 0 -14 -9 -17 -20 -4 -11 -11
-17 -17 -14 -6 4 -8 2 -5 -3 4 -6 0 -13 -8 -17 -18 -6 -62 49 -80 100 -11 33
-10 38 12 60 18 18 22 30 17 47 -15 48 -15 51 2 22 10 -16 17 -34 16 -38 -1
-5 1 -6 6 -3 5 3 21 -17 37 -44 18 -30 32 -45 36 -38 4 6 -10 34 -31 62 -47
64 -49 68 -94 199 -31 89 -36 113 -28 140 12 39 9 84 -6 99 -12 12 -69 -10
-98 -39 -9 -9 -37 -18 -63 -20 -25 -2 -55 -4 -66 -6 -13 -1 -19 3 -16 13 4 15
19 90 26 125 5 27 25 103 36 141 5 17 9 38 9 48 0 10 9 29 19 43 11 13 18 30
15 38 -3 7 2 27 10 44 9 16 16 43 16 59 0 16 9 37 20 47 11 10 20 26 20 35 0
9 16 31 35 50 33 32 35 33 53 17 11 -10 48 -24 83 -31 35 -7 91 -23 124 -35
32 -11 61 -21 63 -21 2 0 0 -5 -4 -12 -4 -6 -3 -8 4 -4 20 12 22 -11 1 -30
-26 -23 -59 -100 -58 -133 1 -20 2 -21 6 -6 9 42 36 101 60 133 29 39 205 182
223 182 10 0 10 3 0 15 -7 8 -17 15 -23 15 -6 0 -43 34 -83 75 -39 41 -74 72
-76 69 -6 -5 122 -137 149 -153 17 -10 17 -12 1 -21 -9 -6 -23 -16 -30 -23
-35 -34 -105 -85 -124 -91 -12 -4 -34 -1 -50 5 -16 7 -31 13 -34 14 -3 1 -16
6 -30 12 -30 12 -86 25 -117 27 -42 3 -44 19 -7 59 19 20 40 37 46 37 6 0 8 3
5 6 -9 9 75 74 87 67 5 -3 6 -1 2 5 -5 9 58 57 76 57 4 0 13 6 20 13 22 22 -9
14 -54 -14 -53 -33 -98 -73 -176 -153 -60 -62 -63 -63 -82 -46 -19 17 -21 16
-71 -34 -29 -28 -49 -51 -45 -51 3 0 0 -13 -9 -29 -8 -17 -17 -46 -20 -67 -5
-44 -24 -71 -36 -52 -5 7 -1 20 8 30 8 9 13 24 9 33 -3 9 1 27 10 40 9 13 13
33 10 43 -5 15 6 29 46 60 29 22 65 52 80 66 15 15 30 26 33 26 3 0 9 0 13 0
5 0 19 10 32 22 13 12 29 23 34 24 14 2 86 44 86 50 0 3 -15 -3 -32 -13 -18
-10 -38 -18 -44 -18 -5 0 -29 -15 -52 -34 -74 -58 -45 -16 46 65 119 109 139
123 162 117 11 -3 20 -7 20 -10 0 -11 -28 -31 -35 -25 -5 4 -5 1 -1 -6 6 -10
14 -8 38 5 24 14 32 15 36 5 11 -33 209 -212 233 -212 11 0 27 -6 34 -14 12
-12 9 -15 -21 -20 -40 -8 -140 -64 -188 -107 -18 -16 -36 -26 -38 -23 -10 9
-68 -70 -84 -116 -9 -25 -25 -63 -34 -85 -49 -111 -52 -129 -52 -236 2 -190
19 -351 46 -425 29 -78 27 -95 -3 -35 -52 101 -63 147 -59 251 1 54 0 93 -4
87 -4 -7 -8 -22 -8 -35 0 -13 -5 -32 -10 -43 -8 -13 -7 -19 0 -19 7 0 8 -6 1
-18 -5 -10 -6 -24 -1 -32 5 -8 6 -44 3 -80 -5 -63 11 -150 25 -135 3 3 11 -4
18 -16 7 -14 14 -18 18 -10 4 6 2 11 -4 11 -6 0 -9 4 -6 8 3 5 -4 25 -14 45
-11 20 -20 42 -20 48 0 19 35 -26 55 -71 10 -22 21 -40 26 -40 16 0 114 133
111 151 -2 10 2 28 8 39 10 18 14 19 27 8 15 -12 15 -11 4 10 -10 19 -9 28 10
59 l22 35 18 -23 c12 -16 14 -27 8 -35 -7 -8 -6 -14 1 -19 6 -4 9 -1 8 7 -2 7
2 12 9 11 6 -2 15 7 19 19 9 28 31 51 43 43 5 -3 12 -1 15 4 3 5 -5 11 -19 13
-13 3 -22 1 -19 -3 3 -5 1 -9 -4 -9 -5 0 -14 -12 -21 -26 l-12 -26 -20 26 -20
25 27 41 c15 22 28 40 30 40 1 0 17 -13 35 -30 18 -16 35 -28 37 -25 3 2 -10
16 -27 30 -17 15 -31 30 -31 33 1 4 12 20 25 37 l24 29 26 -24 c24 -22 35 -47
16 -35 -5 3 -12 1 -15 -4 -15 -24 16 -18 42 9 30 29 31 39 3 21 -10 -6 -22 -1
-40 16 l-26 24 34 29 c19 16 40 26 49 23 13 -6 13 -7 0 -17 -8 -6 -18 -21 -22
-33 -6 -18 -4 -22 8 -17 9 3 16 10 16 14 0 14 72 95 82 92 5 -1 7 1 4 6 -7 11
99 136 116 138 33 3 38 5 38 15 0 8 -5 7 -15 -1 -9 -7 -18 -10 -22 -7 -3 4 15
31 42 62 44 52 46 57 32 78 -30 46 -137 143 -193 176 -33 19 -77 46 -99 61
-22 15 -52 31 -66 36 -15 5 -57 37 -93 72 -61 57 -67 66 -68 105 -1 23 -6 47
-11 54 -5 7 -6 17 -2 23 4 6 -1 22 -10 36 -9 13 -13 29 -10 34 3 5 0 20 -6 32
-7 13 -13 34 -15 48 -2 21 -9 53 -29 120 -2 8 -9 35 -15 60 -6 24 -17 58 -24
75 -25 55 -29 70 -27 93 2 13 -4 34 -13 46 -8 13 -12 33 -9 44 3 11 -1 33 -9
49 -8 15 -22 43 -31 61 -9 19 -17 39 -17 46 0 8 -9 25 -20 39 -11 14 -20 32
-20 40 0 8 -6 20 -14 26 -8 6 -16 24 -19 39 -14 69 -21 82 -48 82 -13 0 -19 7
-19 23 0 31 -33 61 -60 54 -11 -3 -20 -1 -20 4 0 5 -15 15 -32 23 -18 7 -44
25 -57 40 -14 14 -29 26 -33 26 -5 0 -16 7 -24 15 -9 8 -29 15 -45 15 -16 0
-38 6 -49 12 -14 9 -27 10 -47 2 -19 -7 -38 -7 -56 -1 -18 6 -53 5 -95 -1 -48
-7 -71 -6 -82 2 -13 9 -13 9 -2 -6z m-324 -346 c-5 -13 -4 -14 4 -3 9 13 32 8
32 -8 0 -9 -46 -8 -55 1 -11 10 3 40 14 33 6 -3 8 -13 5 -23z m744 -876 c-10
-7 -18 -21 -18 -30 0 -9 -11 -34 -25 -56 -25 -40 -42 -53 -31 -25 11 30 -5 45
-48 45 -30 0 -37 -3 -26 -10 8 -5 27 -10 42 -10 25 0 27 -2 18 -26 -6 -14 -24
-47 -42 -72 -26 -38 -27 -43 -8 -27 23 20 23 20 12 0 -16 -30 -69 -85 -82 -85
-6 0 2 13 18 29 27 27 29 34 24 83 -10 117 -13 109 48 139 30 15 69 39 85 53
20 16 33 21 40 15 7 -7 4 -15 -7 -23z m371 12 c-2 -2 -17 -14 -33 -28 l-28
-25 23 37 c15 21 28 32 33 27 5 -5 8 -10 5 -11z m-890 -44 c-12 -13 -25 -21
-30 -19 -4 3 -10 -1 -12 -7 -4 -10 -6 -10 -6 -1 -1 16 35 50 54 50 12 0 10 -6
-6 -23z m479 -106 c-2 -6 -10 -14 -16 -16 -7 -2 -10 2 -6 12 7 18 28 22 22 4z
m-270 -72 c-6 -12 -11 -22 -10 -23 1 -2 2 -8 2 -15 0 -6 -7 -3 -15 8 -8 10
-14 39 -14 64 l0 45 24 -29 c19 -24 22 -33 13 -50z m227 45 c-3 -6 -11 -11
-17 -11 -6 0 -6 6 2 15 14 17 26 13 15 -4z m66 1 c-12 -22 -27 -34 -62 -49
-21 -9 -26 -8 -26 3 0 13 9 17 23 12 3 -2 10 5 16 15 8 15 34 32 56 36 1 1 -2
-7 -7 -17z m-467 -27 c-4 -8 -8 -15 -10 -15 -2 0 -4 7 -4 15 0 8 4 15 10 15 5
0 7 -7 4 -15z m-134 -14 c0 -6 -4 -13 -10 -16 -5 -3 -10 1 -10 9 0 9 5 16 10
16 6 0 10 -4 10 -9z m560 -25 c0 -18 -38 -46 -61 -46 -10 0 -19 -6 -22 -12 -2
-7 -8 -10 -12 -6 -4 4 -1 14 8 22 8 8 17 13 19 11 3 -3 15 6 28 20 27 28 40
32 40 11z m-580 -41 c-7 -8 -16 -15 -21 -15 -14 0 -11 38 4 43 20 7 31 -11 17
-28z m38 -22 c-13 -16 -65 -42 -71 -36 -3 2 11 20 31 38 24 22 39 29 44 22 4
-6 2 -17 -4 -24z m138 -19 c-1 -42 3 -59 17 -68 9 -7 17 -16 17 -20 0 -9 -43
14 -52 28 -4 6 -8 -2 -8 -19 -1 -38 -24 -84 -32 -63 -3 7 0 22 8 33 7 10 11
28 8 39 -3 12 2 38 11 59 8 20 12 37 9 37 -4 0 -1 7 6 15 7 8 13 15 14 15 1 0
2 -25 2 -56z m47 36 c20 -28 85 -60 122 -60 16 0 49 9 72 20 27 12 45 15 49 9
3 -6 3 -13 0 -16 -3 -3 -1 -13 3 -22 7 -11 2 -25 -16 -46 -14 -17 -22 -23 -17
-15 4 8 11 34 15 59 6 42 6 43 -10 23 -9 -12 -31 -27 -48 -33 -18 -6 -33 -15
-33 -20 0 -5 16 -2 37 6 20 8 38 13 40 11 8 -7 -17 -46 -30 -47 -7 0 -23 -2
-37 -5 -17 -3 -21 -1 -11 5 8 5 9 11 3 15 -5 3 -15 -1 -22 -9 -19 -23 -46 -18
-60 13 l-12 27 -10 -24 -9 -25 -20 21 c-25 24 -48 89 -42 114 7 25 18 24 36
-1z m1210 -5 c8 -8 17 -12 19 -9 3 2 33 -14 68 -37 73 -47 182 -157 178 -179
-2 -8 -6 -13 -8 -10 -8 7 -39 -23 -33 -32 2 -5 -1 -8 -6 -8 -6 0 -11 -6 -11
-14 0 -8 -3 -16 -7 -18 -5 -1 -25 -25 -47 -53 -21 -27 -55 -65 -75 -83 -20
-19 -29 -30 -21 -26 13 7 13 5 1 -9 -18 -23 -30 -21 -41 6 -6 15 -9 17 -9 6
-1 -9 -8 -22 -17 -29 -13 -11 -20 -9 -45 17 l-30 30 40 36 c23 20 37 37 31 37
-5 0 -23 -13 -38 -30 -33 -34 -47 -37 -56 -14 -7 18 -2 29 27 61 20 22 21 22
41 5 21 -17 21 -17 3 4 -9 11 -15 24 -12 27 3 4 2 5 -2 2 -3 -3 -17 5 -30 17
-22 20 -22 22 -6 40 16 18 16 18 0 12 -10 -3 -17 -1 -17 5 0 6 5 11 12 11 7 0
5 5 -4 13 -9 6 -19 23 -21 37 -3 14 -3 8 -2 -12 3 -33 0 -37 -26 -43 -16 -4
-32 -6 -35 -5 -4 1 -10 -3 -13 -8 -3 -5 -21 -17 -38 -26 -33 -16 -33 -16 -33
8 0 13 -2 31 -6 39 -3 9 6 19 27 27 18 8 27 16 21 18 -6 2 -21 -2 -32 -8 -37
-20 -20 21 18 43 l32 19 0 -51 c0 -28 4 -51 9 -51 4 0 6 11 3 25 -3 17 0 25 9
25 12 0 12 2 1 9 -17 10 -11 57 6 53 8 -1 11 2 8 7 -4 6 -19 4 -40 -4 -18 -8
-36 -11 -40 -8 -3 4 -6 1 -6 -6 0 -7 -3 -11 -7 -9 -9 5 -58 -44 -58 -58 0 -5
-11 -28 -23 -52 -18 -34 -21 -47 -12 -57 7 -8 10 -20 7 -27 -4 -9 -6 -7 -6 4
-1 9 -6 18 -11 20 -16 5 7 101 31 127 11 11 17 21 13 21 -3 0 -1 7 6 15 7 8
16 12 21 9 5 -3 8 0 7 6 -3 12 88 84 147 117 58 32 117 40 138 18z m-1489 -42
c-4 -16 -15 -37 -25 -49 -24 -26 -24 -33 1 -31 12 1 20 8 20 19 0 12 5 16 18
11 9 -3 14 -2 9 2 -7 9 20 45 34 45 20 0 0 -46 -26 -60 -16 -9 -30 -22 -32
-30 -3 -12 -1 -11 9 1 7 9 24 20 37 24 20 6 23 4 18 -10 -4 -9 -7 -20 -7 -24
0 -4 -6 -8 -12 -8 -7 0 -20 -4 -30 -8 -11 -4 -18 0 -23 14 -4 12 -12 18 -21
14 -8 -3 -21 0 -29 7 -12 10 -13 16 -3 29 7 9 -2 3 -20 -13 -18 -17 -32 -35
-32 -40 0 -6 8 -1 18 12 17 22 18 23 35 4 16 -17 15 -20 -4 -56 -11 -21 -18
-44 -15 -51 2 -7 -2 -22 -11 -34 -8 -12 -12 -28 -9 -36 3 -8 1 -17 -4 -20 -6
-4 -10 -18 -10 -33 0 -37 -18 -16 -24 28 -2 19 -8 46 -12 60 -7 22 -6 24 9 11
9 -7 14 -17 11 -22 -3 -5 2 -6 10 -3 9 3 16 10 16 14 0 5 3 17 6 27 5 17 5 17
-9 1 -13 -17 -15 -17 -31 1 -13 14 -16 26 -10 43 4 13 9 25 9 28 13 49 64 103
88 94 11 -4 20 5 31 30 18 43 29 47 20 9z m336 -83 c0 -5 -4 -10 -10 -10 -5 0
-10 5 -10 10 0 6 5 10 10 10 6 0 10 -4 10 -10z m222 -52 c-5 -7 -12 -22 -14
-33 -1 -11 -9 -26 -16 -34 -11 -12 -16 -11 -30 4 -9 10 -11 15 -4 11 8 -5 12
0 12 13 0 10 12 28 27 39 30 21 43 21 25 0z m647 -30 c0 -13 2 -39 6 -59 6
-30 4 -37 -11 -43 -11 -3 -24 -8 -30 -11 -6 -3 -14 1 -18 10 -7 20 20 75 37
76 9 0 9 2 0 6 -10 3 -10 9 0 24 15 24 17 24 16 -3z m-539 -19 c0 -11 5 -17
10 -14 14 9 12 -11 -4 -43 -7 -15 -17 -45 -21 -67 -7 -36 -8 -38 -16 -17 -6
16 -4 30 6 45 16 25 21 73 10 100 -4 10 -3 17 4 17 6 0 11 -9 11 -21z m711
-32 c0 -5 -22 -33 -50 -63 -28 -30 -51 -52 -51 -49 0 4 -21 -5 -47 -19 -25
-15 -47 -25 -49 -24 -1 2 -5 20 -9 40 -6 33 -4 38 23 52 29 15 29 15 41 -17
l11 -32 -5 32 c-3 25 1 36 18 48 29 20 36 19 48 -7 9 -22 9 -21 6 4 -3 22 1
29 22 37 29 10 43 10 42 -2z m-888 -22 c-3 -9 -8 -14 -10 -11 -3 3 -2 9 2 15
9 16 15 13 8 -4z m-269 -35 c-9 -203 -15 -304 -17 -306 -2 -2 -16 0 -33 5 -27
7 -29 11 -26 49 1 26 -2 42 -9 42 -6 0 -8 -7 -4 -17 5 -14 3 -15 -6 -6 -9 9
-7 18 10 39 11 15 21 36 20 48 -1 18 -2 18 -8 -4 l-7 -25 -6 29 c-4 22 0 33
18 49 13 11 24 30 24 43 0 49 13 85 29 82 10 -2 16 -13 15 -28z m1173 -46
l-32 -34 -17 22 c-24 31 -22 43 10 66 l27 21 22 -21 22 -21 -32 -33z m-276 31
c5 4 9 1 9 -5 0 -7 -7 -10 -14 -7 -11 5 -16 -6 -21 -41 -4 -26 -13 -76 -20
-112 -13 -58 -14 -60 -9 -15 3 28 7 66 10 85 4 32 4 33 -7 10 -6 -14 -12 -76
-14 -138 -1 -62 -6 -116 -10 -120 -4 -4 -5 52 -3 123 3 120 6 135 33 192 21
42 31 55 33 42 2 -11 8 -17 13 -14z m45 -57 c9 -30 7 -35 -24 -62 -18 -16 -36
-26 -39 -22 -3 3 -2 6 3 6 5 0 10 13 11 28 2 36 20 82 31 82 5 0 13 -15 18
-32z m174 10 c18 -23 18 -23 -13 -55 -32 -34 -47 -30 -47 10 0 17 27 67 37 67
3 0 13 -10 23 -22z m-1341 -24 c2 -10 0 -16 -4 -12 -4 3 -19 -8 -35 -25 l-28
-32 2 34 c4 52 56 81 65 35z m1273 4 c-7 -7 -12 -8 -12 -2 0 6 3 14 7 17 3 4
9 5 12 2 2 -3 -1 -11 -7 -17z m-18 -13 c9 -24 -28 -75 -73 -100 l-40 -23 -7
31 c-5 25 -2 34 17 48 24 18 24 18 33 -6 6 -14 13 -25 18 -25 4 0 3 12 -3 27
-9 23 -7 30 13 45 28 22 34 22 42 3z m129 -22 c14 -17 13 -21 -14 -51 -25 -27
-33 -31 -45 -22 -20 17 -17 40 8 67 26 28 30 28 51 6z m-120 -64 c-37 -38 -47
-27 -22 24 20 38 22 40 35 23 11 -16 10 -22 -13 -47z m195 -19 c-2 -5 -30 -36
-62 -70 l-59 -62 -22 28 -22 28 20 28 21 28 30 -27 29 -28 -22 33 c-23 32 -23
34 -5 55 11 12 23 25 28 29 11 8 68 -30 64 -42z m-338 -45 c-21 -26 -31 -17
-24 23 10 54 17 61 28 25 6 -23 5 -37 -4 -48z m195 55 c18 -20 18 -21 -8 -48
l-27 -26 -20 20 -21 20 21 27 c26 32 31 33 55 7z m196 -14 c-27 -12 -38 -1
-21 19 10 12 16 13 27 3 13 -11 12 -14 -6 -22z m-1011 -4 c0 -19 -45 -72 -60
-72 -16 0 -11 26 10 51 14 17 20 20 20 9 1 -9 5 -6 10 8 11 26 20 29 20 4z
m717 -2 c9 -11 8 -20 -3 -35 -15 -19 -15 -18 -10 10 l6 30 -14 -30 c-9 -16
-15 -36 -16 -42 0 -23 -20 -13 -26 14 -6 21 -2 31 21 50 15 13 28 23 29 21 1
-2 7 -10 13 -18z m-61 -80 c11 -13 11 -22 -2 -58 -10 -31 -11 -48 -4 -62 6
-11 9 -30 7 -42 -2 -13 -2 -17 0 -10 6 17 11 15 39 -15 27 -29 23 -12 -4 20
-14 16 -14 21 1 52 20 42 30 44 46 9 6 -15 14 -24 18 -21 3 4 -2 18 -11 32
-12 18 -14 30 -7 43 10 20 50 57 54 51 1 -2 10 -14 21 -26 18 -21 17 -22 -12
-60 -17 -21 -49 -71 -71 -112 l-40 -75 -17 37 c-9 20 -20 34 -24 32 -4 -3 -10
34 -14 81 -6 76 -5 88 11 101 10 8 2 5 -18 -6 -20 -11 -39 -18 -42 -14 -11 11
6 57 27 74 20 16 21 16 25 1 1 -9 9 -24 17 -32z m107 33 c14 -17 13 -21 -13
-53 -28 -34 -29 -35 -44 -15 -20 26 -20 28 5 59 24 31 31 32 52 9z m-1135 -35
c1 -28 -1 -30 -9 -15 -6 10 -8 25 -5 33 9 22 13 17 14 -18z m332 0 c0 -19 -18
-43 -25 -36 -4 3 -2 16 5 27 12 24 20 27 20 9z m-415 -8 c3 -5 1 -10 -4 -10
-6 0 -11 5 -11 10 0 6 2 10 4 10 3 0 8 -4 11 -10z m1159 -67 c-8 -8 -19 -24
-25 -35 -8 -16 -13 -18 -19 -8 -5 7 -6 18 -4 24 24 71 23 70 44 51 17 -15 17
-19 4 -32z m-99 25 c4 4 4 -4 -1 -18 -12 -32 -9 -199 3 -211 5 -5 6 16 3 52
-3 33 -3 62 0 64 4 2 5 19 2 37 -2 18 -1 30 3 26 4 -4 9 -34 11 -65 1 -39 6
-57 14 -55 9 2 11 -11 7 -45 -6 -43 -5 -44 4 -15 11 38 25 35 31 -7 3 -23 -3
-38 -27 -65 -18 -20 -35 -33 -40 -28 -4 4 -5 -1 -2 -10 4 -10 2 -18 -3 -18
-21 0 -38 107 -36 227 0 68 -2 123 -6 123 -5 0 -8 5 -8 10 0 7 6 7 19 1 10 -6
22 -7 26 -3z m-532 -118 c-5 -39 -8 -48 -14 -34 -6 17 10 98 18 90 1 -1 0 -26
-4 -56z m-153 -30 l-11 -25 6 25 c2 14 5 36 6 50 l2 25 4 -25 c2 -14 -1 -37
-7 -50z m-199 -96 c3 -32 4 -61 3 -63 -8 -10 -25 57 -20 80 4 22 0 26 -40 38
-24 7 -42 17 -39 21 3 4 24 2 47 -5 l43 -12 6 -59z m218 21 c0 -5 -4 -3 -9 5
-5 8 -9 22 -9 30 0 16 17 -16 18 -35z m96 -19 c0 -30 -3 -52 -7 -49 -14 8 -8
103 6 103 1 0 1 -24 1 -54z m-345 18 c0 -14 -3 -14 -15 -4 -8 7 -15 14 -15 16
0 2 7 4 15 4 8 0 15 -7 15 -16z m695 -154 c-3 -5 -12 -10 -18 -10 -7 0 -6 4 3
10 19 12 23 12 15 0z"/>
<path d="M1360 1921 c-6 -12 -7 -21 -1 -21 10 0 24 30 17 37 -2 3 -9 -5 -16
-16z"/>
<path d="M1063 1747 c10 -15 16 -31 13 -36 -3 -4 9 -8 25 -8 17 0 34 -5 38
-12 4 -6 15 -9 24 -5 10 3 24 1 32 -6 12 -10 15 -10 15 2 0 11 -16 17 -51 22
-40 6 -59 14 -83 39 -28 30 -29 30 -13 4z"/>
<path d="M2233 1763 c9 -2 23 -2 30 0 6 3 -1 5 -18 5 -16 0 -22 -2 -12 -5z"/>
<path d="M2436 1637 c3 -10 9 -15 12 -12 3 3 0 11 -7 18 -10 9 -11 8 -5 -6z"/>
<path d="M2138 1603 c7 -3 16 -2 19 1 4 3 -2 6 -13 5 -11 0 -14 -3 -6 -6z"/>
<path d="M2488 1587 c12 -13 22 -29 22 -36 0 -7 5 -9 10 -6 12 7 -17 51 -40
60 -8 3 -5 -4 8 -18z"/>
<path d="M2280 1357 c0 -10 8 -17 18 -17 9 0 13 4 7 8 -5 4 -13 11 -17 16 -5
5 -8 2 -8 -7z"/>
<path d="M676 1611 c-3 -4 7 -14 22 -20 27 -13 27 -13 8 8 -22 24 -23 24 -30
12z"/>
<path d="M2165 1449 c-4 -6 -5 -12 -2 -15 2 -3 7 2 10 11 7 17 1 20 -8 4z"/>
<path d="M2011 1034 c0 -11 3 -14 6 -6 3 7 2 16 -1 19 -3 4 -6 -2 -5 -13z"/>
<path d="M1958 865 c-3 -14 -1 -25 3 -25 5 0 9 11 9 25 0 14 -2 25 -4 25 -2 0
-6 -11 -8 -25z"/>
<path d="M1921 834 c0 -11 3 -14 6 -6 3 7 2 16 -1 19 -3 4 -6 -2 -5 -13z"/>
<path d="M2787 3271 c-4 -17 -3 -21 5 -13 5 5 8 16 6 23 -3 8 -7 3 -11 -10z"/>
<path d="M2842 3270 c0 -14 2 -19 5 -12 2 6 2 18 0 25 -3 6 -5 1 -5 -13z"/>
<path d="M966 3244 c-11 -8 -16 -14 -10 -15 5 0 0 -4 -11 -9 -15 -6 -16 -9 -4
-9 16 -1 56 35 48 43 -2 3 -13 -2 -23 -10z"/>
<path d="M2151 3244 c0 -11 3 -14 6 -6 3 7 2 16 -1 19 -3 4 -6 -2 -5 -13z"/>
<path d="M1865 3240 c-3 -5 -1 -10 4 -10 6 0 11 5 11 10 0 6 -2 10 -4 10 -3 0
-8 -4 -11 -10z"/>
<path d="M2810 3240 c-9 -6 -10 -10 -3 -10 6 0 15 5 18 10 8 12 4 12 -15 0z"/>
<path d="M1149 3231 c-8 -2 -18 -10 -22 -17 -4 -8 -16 -14 -25 -14 -9 -1 -2
-7 17 -15 18 -8 38 -15 45 -15 6 1 -2 6 -18 13 l-29 13 25 16 c14 9 29 13 34
8 5 -4 20 -11 34 -14 l25 -7 -23 14 c-12 7 -20 15 -18 18 6 6 -27 6 -45 0z"/>
<path d="M759 3213 c-13 -16 -12 -17 4 -4 9 7 17 15 17 17 0 8 -8 3 -21 -13z"/>
<path d="M1287 3205 c-15 -14 -24 -25 -19 -25 5 0 19 11 32 25 30 32 23 32
-13 0z"/>
<path d="M2430 3221 c0 -10 19 -25 25 -20 1 2 -3 10 -11 17 -8 7 -14 8 -14 3z"/>
<path d="M2637 3216 c-4 -10 -1 -13 9 -9 7 3 14 9 14 14 0 14 -17 10 -23 -5z"/>
<path d="M284 3198 c0 -10 1 -18 3 -18 1 0 7 8 12 18 7 13 6 19 -2 19 -7 0
-13 -9 -13 -19z"/>
<path d="M1887 3209 c7 -7 15 -10 18 -7 3 3 -2 9 -12 12 -14 6 -15 5 -6 -5z"/>
<path d="M2720 3211 c0 -6 4 -13 10 -16 6 -3 7 1 4 9 -7 18 -14 21 -14 7z"/>
<path d="M1248 3203 c7 -3 16 -2 19 1 4 3 -2 6 -13 5 -11 0 -14 -3 -6 -6z"/>
<path d="M2147 3199 c7 -7 15 -10 18 -7 3 3 -2 9 -12 12 -14 6 -15 5 -6 -5z"/>
<path d="M2508 3203 c6 -2 18 -2 25 0 6 3 1 5 -13 5 -14 0 -19 -2 -12 -5z"/>
<path d="M180 3191 c0 -6 4 -13 10 -16 6 -3 7 1 4 9 -7 18 -14 21 -14 7z"/>
<path d="M2305 3190 c3 -5 8 -10 11 -10 2 0 4 5 4 10 0 6 -5 10 -11 10 -5 0
-7 -4 -4 -10z"/>
<path d="M1014 3178 c-9 -15 17 -18 37 -5 20 15 20 15 -6 13 -15 0 -29 -4 -31
-8z"/>
<path d="M2008 3183 c7 -3 16 -2 19 1 4 3 -2 6 -13 5 -11 0 -14 -3 -6 -6z"/>
<path d="M2501 3174 c0 -11 3 -14 6 -6 3 7 2 16 -1 19 -3 4 -6 -2 -5 -13z"/>
<path d="M380 3169 c0 -5 5 -7 10 -4 6 3 10 8 10 11 0 2 -4 4 -10 4 -5 0 -10
-5 -10 -11z"/>
<path d="M1685 3170 c3 -5 8 -10 11 -10 2 0 4 5 4 10 0 6 -5 10 -11 10 -5 0
-7 -4 -4 -10z"/>
<path d="M286 3155 c4 -8 8 -15 10 -15 2 0 4 7 4 15 0 8 -4 15 -10 15 -5 0 -7
-7 -4 -15z"/>
<path d="M1860 3161 c0 -6 4 -13 10 -16 6 -3 7 1 4 9 -7 18 -14 21 -14 7z"/>
<path d="M2337 3149 c-5 -20 -5 -20 14 -3 23 20 23 24 5 24 -7 0 -16 -9 -19
-21z"/>
<path d="M1093 3143 c-3 -10 -8 -22 -11 -27 -3 -5 0 -6 5 -3 11 7 25 47 17 47
-3 0 -7 -8 -11 -17z"/>
<path d="M1165 3149 c-4 -6 -12 -8 -19 -6 -7 3 -13 -4 -13 -14 -2 -17 0 -18
13 -4 9 8 20 12 26 9 6 -4 8 -2 4 4 -3 5 0 13 6 15 9 4 10 6 1 6 -6 1 -15 -4
-18 -10z"/>
<path d="M2836 3152 c-3 -5 1 -9 9 -9 8 0 15 4 15 9 0 4 -4 8 -9 8 -6 0 -12
-4 -15 -8z"/>
<path d="M551 3134 c0 -11 3 -14 6 -6 3 7 2 16 -1 19 -3 4 -6 -2 -5 -13z"/>
<path d="M2500 3143 c0 -4 5 -15 10 -23 8 -13 10 -13 10 2 0 9 -4 20 -10 23
-5 3 -10 3 -10 -2z"/>
<path d="M2532 3120 c0 -14 2 -19 5 -12 2 6 2 18 0 25 -3 6 -5 1 -5 -13z"/>
<path d="M2414 3100 c0 -13 4 -16 10 -10 7 7 7 13 0 20 -6 6 -10 3 -10 -10z"/>
<path d="M2551 3104 c0 -11 3 -14 6 -6 3 7 2 16 -1 19 -3 4 -6 -2 -5 -13z"/>
<path d="M120 3095 c-7 -9 -8 -15 -2 -15 5 0 12 7 16 15 3 8 4 15 2 15 -2 0
-9 -7 -16 -15z"/>
<path d="M341 3094 c0 -11 3 -14 6 -6 3 7 2 16 -1 19 -3 4 -6 -2 -5 -13z"/>
<path d="M986 3085 c-9 -13 -16 -32 -16 -41 0 -9 -18 -33 -40 -54 -22 -21 -40
-44 -40 -51 1 -9 4 -8 11 4 6 9 14 15 18 13 13 -9 54 42 57 71 2 15 12 39 24
55 11 15 16 28 11 28 -5 0 -16 -11 -25 -25z"/>
<path d="M1935 3097 c-5 -7 -10 -21 -10 -32 0 -11 -8 -21 -18 -23 -21 -4 -35
27 -16 38 7 5 11 12 7 15 -13 13 -37 -26 -32 -53 l5 -27 -20 22 c-12 12 -21
28 -21 35 0 9 -3 9 -12 -1 -11 -10 -10 -15 2 -24 28 -22 60 -69 53 -80 -3 -5
-1 -7 5 -4 5 4 22 -8 36 -25 14 -18 32 -40 39 -48 40 -46 90 -113 75 -102 -14
11 -18 10 -26 -4 -8 -14 -13 -12 -38 19 -15 20 -31 34 -36 31 -4 -3 0 -13 10
-23 42 -44 80 -89 78 -93 -2 -1 11 -14 28 -28 l31 -25 -32 41 c-33 41 -43 74
-23 74 6 0 10 -6 10 -12 0 -10 3 -9 9 1 7 11 12 9 22 -10 7 -13 12 -27 11 -31
-1 -5 1 -7 6 -6 4 0 18 -4 32 -11 23 -10 21 -11 -14 -5 -36 5 -38 4 -26 -10 8
-10 20 -14 33 -10 15 5 18 3 12 -7 -5 -8 -5 -11 0 -7 12 11 35 -11 28 -28 -3
-8 -1 -14 3 -12 5 2 20 -7 33 -19 24 -22 24 -23 6 -43 -18 -20 -18 -20 -41 12
-13 17 -21 36 -17 41 3 6 1 7 -5 3 -7 -4 -12 -2 -12 4 0 6 -7 18 -15 26 -26
26 -16 -4 15 -47 30 -42 32 -63 5 -52 -8 3 -15 0 -15 -7 0 -6 -5 -8 -10 -5 -6
4 -9 1 -8 -7 2 -8 -4 -12 -17 -10 -19 4 -19 3 2 -17 28 -26 33 -26 26 -1 -4
14 1 22 18 29 29 10 49 4 49 -16 0 -8 5 -11 10 -8 12 7 55 -25 55 -41 0 -5 16
-24 35 -41 35 -30 60 -33 60 -8 0 7 5 15 10 17 6 2 1 13 -10 26 -12 12 -18 27
-14 34 4 7 3 8 -4 4 -12 -7 -59 50 -54 65 1 5 -9 14 -23 19 -14 5 -25 13 -25
18 0 4 -10 19 -22 32 -13 14 -23 27 -23 30 -1 3 -6 15 -13 26 -6 12 -8 25 -4
29 4 5 2 6 -3 2 -6 -3 -17 -2 -25 3 -12 7 -11 10 5 17 23 9 33 35 10 27 -10
-4 -15 0 -15 16 0 33 45 24 46 -10 3 -62 4 -66 14 -50 5 9 5 17 -1 21 -6 4 -6
15 0 32 9 22 7 27 -12 33 -12 5 -25 7 -29 6 -9 -2 -11 12 -8 41 1 9 -2 17 -7
16 -4 -1 -16 1 -26 6 -25 11 -53 -17 -42 -42 4 -10 9 -27 10 -37 2 -17 -1 -16
-17 5 -10 13 -29 35 -41 49 -12 14 -33 40 -47 58 -14 18 -35 45 -48 59 -27 29
-24 48 6 49 18 1 22 -4 22 -27 0 -32 32 -48 55 -29 16 13 21 65 6 55 -5 -3
-12 -1 -15 4 -3 5 -16 7 -27 4 -18 -5 -20 -3 -15 16 3 11 9 30 12 41 6 23 3
25 -11 7z m53 -100 c4 -20 -25 -34 -40 -19 -15 15 -1 44 19 40 10 -2 19 -11
21 -21z m113 -144 c5 -14 7 -34 3 -42 -4 -9 -8 -18 -8 -21 -1 -3 -5 -11 -9
-17 -6 -9 -3 -11 9 -6 11 4 15 2 13 -6 -6 -18 -22 -15 -37 7 -10 16 -9 23 8
44 19 25 19 26 1 21 -21 -5 -35 11 -27 32 9 24 36 17 47 -12z m163 -340 c47
-57 53 -69 44 -86 -10 -20 -12 -20 -39 11 -18 20 -26 38 -22 49 4 9 2 14 -3
10 -6 -3 -16 -2 -24 3 -12 7 -12 12 -2 22 19 19 14 33 -7 14 -15 -14 -20 -14
-29 -3 -14 16 -6 28 14 20 10 -4 12 0 8 11 -11 30 4 17 60 -51z"/>
<path d="M2256 2482 c-2 -4 2 -16 10 -27 13 -18 14 -18 14 8 0 25 -13 36 -24
19z"/>
<path d="M756 3084 c-4 -9 -4 -19 -1 -22 2 -3 7 3 11 12 4 9 4 19 1 22 -2 3
-7 -3 -11 -12z"/>
<path d="M1055 3069 c-9 -17 -15 -33 -13 -35 3 -2 12 12 21 31 21 43 13 47 -8
4z"/>
<path d="M2505 3080 c-3 -5 -1 -10 4 -10 6 0 11 5 11 10 0 6 -2 10 -4 10 -3 0
-8 -4 -11 -10z"/>
<path d="M2846 3082 c-2 -4 -1 -14 4 -22 7 -11 9 -9 7 8 -1 24 -3 26 -11 14z"/>
<path d="M1080 3050 l-25 -21 28 12 c15 7 27 16 27 21 0 11 -1 10 -30 -12z"/>
<path d="M540 3050 c0 -5 5 -10 11 -10 5 0 7 5 4 10 -3 6 -8 10 -11 10 -2 0
-4 -4 -4 -10z"/>
<path d="M2025 3049 c-4 -6 -5 -12 -2 -15 2 -3 7 2 10 11 7 17 1 20 -8 4z"/>
<path d="M2267 3053 c-4 -3 -7 -11 -7 -17 0 -6 4 -4 10 4 7 12 12 12 29 -4 12
-11 21 -14 21 -8 0 6 -9 16 -19 22 -23 12 -26 12 -34 3z"/>
<path d="M2442 3030 c0 -14 2 -19 5 -12 2 6 2 18 0 25 -3 6 -5 1 -5 -13z"/>
<path d="M2750 3041 c0 -6 4 -13 10 -16 6 -3 7 1 4 9 -7 18 -14 21 -14 7z"/>
<path d="M2196 3023 c-6 -14 -5 -15 5 -6 7 7 10 15 7 18 -3 3 -9 -2 -12 -12z"/>
<path d="M2880 3036 c0 -2 7 -7 16 -10 8 -3 12 -2 9 4 -6 10 -25 14 -25 6z"/>
<path d="M851 3012 c-17 -31 -13 -40 5 -14 9 13 14 26 11 29 -3 2 -10 -4 -16
-15z"/>
<path d="M2332 3010 c0 -14 2 -19 5 -12 2 6 2 18 0 25 -3 6 -5 1 -5 -13z"/>
<path d="M992 2999 c-18 -12 -31 -24 -28 -26 2 -3 17 4 32 14 16 10 30 17 33
15 3 -2 7 1 9 7 5 16 -9 13 -46 -10z"/>
<path d="M2366 2995 c8 -37 14 -45 14 -19 0 10 -5 26 -10 34 -8 11 -9 7 -4
-15z"/>
<path d="M721 2998 c-1 -10 -10 -22 -21 -28 -17 -9 -19 -18 -15 -71 3 -33 9
-69 15 -80 6 -10 8 -24 5 -29 -3 -6 -1 -10 5 -10 6 0 10 -15 8 -35 -1 -19 1
-37 5 -41 12 -13 7 56 -8 118 -9 33 -15 67 -14 76 1 9 -1 25 -6 35 -5 12 0 23
15 35 13 10 20 25 17 33 -4 11 -6 10 -6 -3z"/>
<path d="M1129 3005 c-3 -2 -23 -7 -44 -10 -22 -3 -48 -7 -58 -9 -9 -1 -23 -8
-30 -16 -10 -10 -9 -11 3 -5 24 14 61 15 54 2 -4 -7 -4 -9 1 -5 21 19 35 -17
35 -90 0 -80 10 -96 12 -18 0 25 5 46 10 46 5 0 4 9 -2 20 -9 17 -6 23 22 40
18 11 28 20 23 20 -6 0 -20 -7 -32 -15 -20 -14 -24 -14 -41 3 -18 18 -18 19
10 20 50 3 58 5 58 14 0 9 -14 11 -21 3z"/>
<path d="M2841 2994 c0 -11 3 -14 6 -6 3 7 2 16 -1 19 -3 4 -6 -2 -5 -13z"/>
<path d="M2663 2981 c0 -11 5 -18 9 -15 4 3 5 11 1 19 -7 21 -12 19 -10 -4z"/>
<path d="M820 2981 c0 -6 4 -13 10 -16 6 -3 7 1 4 9 -7 18 -14 21 -14 7z"/>
<path d="M2450 2976 c0 -8 -6 -17 -12 -19 -8 -3 -6 -6 5 -6 11 -1 17 6 17 19
0 11 -2 20 -5 20 -3 0 -5 -6 -5 -14z"/>
<path d="M1170 2973 c0 -6 -10 -15 -22 -22 -18 -9 -18 -10 -3 -5 39 12 50 9
49 -13 0 -19 2 -20 19 -11 19 10 19 11 2 20 -13 8 -14 12 -5 18 9 5 9 9 1 14
-6 4 -11 2 -11 -5 0 -8 -4 -8 -15 1 -8 7 -15 8 -15 3z"/>
<path d="M2883 2963 c0 -9 4 -10 14 -2 7 6 13 12 13 14 0 1 -6 2 -13 2 -8 0
-14 -6 -14 -14z"/>
<path d="M1984 2946 c-12 -14 -13 -21 -6 -24 7 -2 10 -8 6 -13 -3 -5 0 -9 6
-9 6 0 8 -5 4 -12 -4 -7 -3 -8 4 -4 7 4 9 19 5 36 -4 24 -2 30 11 30 22 0 31
-26 17 -44 -8 -10 -9 -16 -2 -21 13 -8 25 37 16 64 -8 25 -38 23 -61 -3z"/>
<path d="M2521 2950 c14 -31 19 -36 19 -24 0 6 -7 19 -16 30 -14 18 -14 18 -3
-6z"/>
<path d="M2970 2950 c0 -11 2 -20 4 -20 2 0 6 9 9 20 3 11 1 20 -4 20 -5 0 -9
-9 -9 -20z"/>
<path d="M459 2943 c-13 -16 -12 -17 4 -4 9 7 17 15 17 17 0 8 -8 3 -21 -13z"/>
<path d="M2942 2936 c6 -14 15 -26 20 -26 10 0 -7 36 -22 45 -6 4 -5 -5 2 -19z"/>
<path d="M269 2938 c7 -9 9 -23 5 -30 -6 -10 -4 -11 7 0 11 10 10 15 -6 30
-17 15 -18 15 -6 0z"/>
<path d="M2776 2935 c4 -8 8 -15 10 -15 2 0 4 7 4 15 0 8 -4 15 -10 15 -5 0
-7 -7 -4 -15z"/>
<path d="M1235 2920 c-10 -11 -13 -20 -7 -20 6 0 16 9 22 20 6 11 9 20 7 20
-2 0 -12 -9 -22 -20z"/>
<path d="M2503 2925 c0 -8 4 -12 9 -9 5 3 6 10 3 15 -9 13 -12 11 -12 -6z"/>
<path d="M326 2913 c-6 -14 -5 -15 5 -6 7 7 10 15 7 18 -3 3 -9 -2 -12 -12z"/>
<path d="M2456 2917 c3 -10 9 -15 12 -12 3 3 0 11 -7 18 -10 9 -11 8 -5 -6z"/>
<path d="M2910 2919 c0 -5 5 -7 10 -4 6 3 10 8 10 11 0 2 -4 4 -10 4 -5 0 -10
-5 -10 -11z"/>
<path d="M2565 2910 c3 -5 8 -10 11 -10 2 0 4 5 4 10 0 6 -5 10 -11 10 -5 0
-7 -4 -4 -10z"/>
<path d="M2361 2897 c-8 -10 -7 -14 2 -14 8 0 14 6 14 14 0 7 -1 13 -2 13 -2
0 -8 -6 -14 -13z"/>
<path d="M141 2893 c0 -6 -4 -20 -7 -30 -5 -14 -4 -15 5 -7 7 7 11 20 8 30 -3
11 -5 14 -6 7z"/>
<path d="M1239 2872 c-11 -14 -11 -15 1 -4 25 22 32 13 12 -15 -34 -51 -35
-56 -4 -33 17 13 29 27 26 32 -3 5 -1 14 5 21 7 10 5 13 -9 14 -10 1 -24 -6
-31 -15z"/>
<path d="M2241 2874 c0 -11 3 -14 6 -6 3 7 2 16 -1 19 -3 4 -6 -2 -5 -13z"/>
<path d="M2808 2876 c-10 -7 -15 -16 -11 -19 11 -12 21 -7 26 13 3 11 4 20 4
20 -1 0 -10 -7 -19 -14z"/>
<path d="M170 2865 c0 -8 4 -15 10 -15 5 0 7 7 4 15 -4 8 -8 15 -10 15 -2 0
-4 -7 -4 -15z"/>
<path d="M2630 2876 c0 -2 8 -10 18 -17 15 -13 16 -12 3 4 -13 16 -21 21 -21
13z"/>
<path d="M2670 2865 c0 -8 4 -15 10 -15 5 0 7 7 4 15 -4 8 -8 15 -10 15 -2 0
-4 -7 -4 -15z"/>
<path d="M2441 2854 c0 -11 3 -14 6 -6 3 7 2 16 -1 19 -3 4 -6 -2 -5 -13z"/>
<path d="M2711 2854 c0 -11 3 -14 6 -6 3 7 2 16 -1 19 -3 4 -6 -2 -5 -13z"/>
<path d="M2750 2860 c0 -5 5 -10 11 -10 5 0 7 5 4 10 -3 6 -8 10 -11 10 -2 0
-4 -4 -4 -10z"/>
<path d="M2918 2863 c7 -3 16 -2 19 1 4 3 -2 6 -13 5 -11 0 -14 -3 -6 -6z"/>
<path d="M1296 2848 c3 -5 -5 -17 -18 -28 l-23 -20 32 17 c34 19 44 40 18 40
-8 0 -12 -4 -9 -9z"/>
<path d="M1776 2843 c-6 -14 -5 -15 5 -6 7 7 10 15 7 18 -3 3 -9 -2 -12 -12z"/>
<path d="M2472 2842 c7 -9 13 -18 14 -20 1 -2 4 4 7 12 3 8 -2 16 -14 19 -17
5 -18 3 -7 -11z"/>
<path d="M2535 2850 c-3 -5 -1 -10 4 -10 6 0 11 5 11 10 0 6 -2 10 -4 10 -3 0
-8 -4 -11 -10z"/>
<path d="M920 2799 c-6 -23 -9 -43 -6 -46 3 -3 8 8 11 23 4 16 9 37 12 47 2 9
2 17 -1 17 -3 0 -10 -18 -16 -41z"/>
<path d="M2236 2831 c-3 -5 1 -14 8 -20 12 -10 13 -8 9 8 -6 23 -9 25 -17 12z"/>
<path d="M2281 2824 c0 -11 3 -14 6 -6 3 7 2 16 -1 19 -3 4 -6 -2 -5 -13z"/>
<path d="M2594 2829 c-3 -5 -2 -9 3 -8 4 1 16 -1 26 -6 28 -12 29 -1 1 12 -14
7 -26 7 -30 2z"/>
<path d="M2981 2824 c0 -11 3 -14 6 -6 3 7 2 16 -1 19 -3 4 -6 -2 -5 -13z"/>
<path d="M291 2814 c0 -11 3 -14 6 -6 3 7 2 16 -1 19 -3 4 -6 -2 -5 -13z"/>
<path d="M1312 2810 c-12 -12 -22 -24 -22 -27 0 -3 9 2 20 12 16 14 20 15 20
4 0 -8 -6 -21 -12 -28 -7 -8 2 -3 20 9 34 25 41 36 17 27 -8 -4 -17 -2 -20 3
-3 4 1 11 7 13 7 3 8 6 2 6 -5 1 -20 -8 -32 -19z"/>
<path d="M2361 2814 c0 -11 3 -14 6 -6 3 7 2 16 -1 19 -3 4 -6 -2 -5 -13z"/>
<path d="M2670 2823 c0 -4 5 -15 10 -23 8 -13 10 -13 10 2 0 9 -4 20 -10 23
-5 3 -10 3 -10 -2z"/>
<path d="M2530 2810 c0 -5 5 -10 11 -10 5 0 7 5 4 10 -3 6 -8 10 -11 10 -2 0
-4 -4 -4 -10z"/>
<path d="M93 2795 c0 -8 4 -12 9 -9 5 3 6 10 3 15 -9 13 -12 11 -12 -6z"/>
<path d="M1476 2775 c-21 -20 -36 -38 -33 -42 7 -6 85 57 86 70 2 15 -15 6
-53 -28z"/>
<path d="M1380 2790 c-18 -12 -2 -12 25 0 13 6 15 9 5 9 -8 0 -22 -4 -30 -9z"/>
<path d="M165 2779 c-4 -6 -5 -12 -2 -15 2 -3 7 2 10 11 7 17 1 20 -8 4z"/>
<path d="M230 2780 c0 -5 5 -10 11 -10 5 0 7 5 4 10 -3 6 -8 10 -11 10 -2 0
-4 -4 -4 -10z"/>
<path d="M1582 2783 c9 -2 19 -12 21 -21 3 -12 5 -10 6 6 1 17 -4 22 -21 21
-16 -1 -18 -3 -6 -6z"/>
<path d="M2840 2782 c0 -5 7 -9 15 -9 8 0 12 4 9 9 -3 4 -9 8 -15 8 -5 0 -9
-4 -9 -8z"/>
<path d="M1382 2770 c-12 -5 -25 -16 -28 -25 -3 -8 -11 -12 -16 -9 -6 4 -9 1
-6 -6 6 -19 45 -32 45 -15 0 8 -4 12 -9 9 -4 -3 -8 2 -8 10 0 20 9 20 29 2 9
-7 27 -16 41 -20 l25 -6 -25 13 c-52 25 -54 29 -29 43 27 15 15 17 -19 4z"/>
<path d="M1538 2773 c7 -3 16 -2 19 1 4 3 -2 6 -13 5 -11 0 -14 -3 -6 -6z"/>
<path d="M2197 2760 c-3 -11 -1 -20 5 -20 6 0 8 -6 5 -13 -3 -8 1 -14 9 -14
17 0 18 13 3 23 -6 3 -9 15 -6 25 3 11 2 19 -3 19 -4 0 -10 -9 -13 -20z"/>
<path d="M1115 2756 c-16 -6 -51 -24 -76 -39 -25 -15 -51 -27 -58 -27 -23 0
-50 -20 -45 -34 7 -18 86 10 165 59 31 19 66 35 78 35 12 0 21 5 21 10 0 13
-47 11 -85 -4z"/>
<path d="M1497 2738 c-10 -17 -16 -33 -13 -35 2 -3 12 9 21 27 21 41 15 48 -8
8z"/>
<path d="M2630 2760 c0 -5 5 -10 11 -10 5 0 7 5 4 10 -3 6 -8 10 -11 10 -2 0
-4 -4 -4 -10z"/>
<path d="M2417 2739 c4 -13 8 -18 11 -10 2 7 -1 18 -6 23 -8 8 -9 4 -5 -13z"/>
<path d="M2976 2745 c-3 -9 0 -15 9 -15 9 0 12 6 9 15 -4 8 -7 15 -9 15 -2 0
-5 -7 -9 -15z"/>
<path d="M651 2734 c0 -11 3 -14 6 -6 3 7 2 16 -1 19 -3 4 -6 -2 -5 -13z"/>
<path d="M2675 2740 c3 -5 8 -10 11 -10 2 0 4 5 4 10 0 6 -5 10 -11 10 -5 0
-7 -4 -4 -10z"/>
<path d="M908 2708 c-1 -18 -2 -42 -3 -53 -1 -11 3 -31 8 -45 5 -14 9 -63 9
-110 0 -66 2 -78 9 -55 11 36 5 177 -9 201 -5 10 -7 35 -5 56 3 21 3 38 -1 38
-3 0 -7 -15 -8 -32z"/>
<path d="M2788 2723 c7 -3 16 -2 19 1 4 3 -2 6 -13 5 -11 0 -14 -3 -6 -6z"/>
<path d="M70 2711 c0 -5 5 -13 10 -16 6 -3 10 -2 10 4 0 5 -4 13 -10 16 -5 3
-10 2 -10 -4z"/>
<path d="M1118 2703 c7 -3 16 -2 19 1 4 3 -2 6 -13 5 -11 0 -14 -3 -6 -6z"/>
<path d="M1800 2706 c0 -2 8 -10 18 -17 15 -13 16 -12 3 4 -13 16 -21 21 -21
13z"/>
<path d="M2150 2707 c0 -3 11 -12 24 -20 21 -14 25 -15 30 -1 3 8 1 12 -4 9
-5 -3 -19 -1 -30 5 -11 6 -20 9 -20 7z"/>
<path d="M2841 2694 c0 -11 3 -14 6 -6 3 7 2 16 -1 19 -3 4 -6 -2 -5 -13z"/>
<path d="M1343 2681 c0 -11 5 -18 9 -15 4 3 5 11 1 19 -7 21 -12 19 -10 -4z"/>
<path d="M1411 2683 c7 -12 15 -20 18 -17 3 2 -3 12 -13 22 -17 16 -18 16 -5
-5z"/>
<path d="M2925 2690 c-3 -6 1 -7 9 -4 18 7 21 14 7 14 -6 0 -13 -4 -16 -10z"/>
<path d="M126 2675 c-3 -8 -1 -15 4 -15 6 0 10 7 10 15 0 8 -2 15 -4 15 -2 0
-6 -7 -10 -15z"/>
<path d="M719 2685 c-2 -6 -6 -41 -8 -60 0 -8 -7 -15 -14 -15 -8 0 -21 -8 -30
-18 -16 -17 -15 -20 6 -40 13 -12 27 -19 30 -15 4 3 7 2 7 -4 0 -20 -13 -22
-29 -4 -24 27 -43 29 -64 8 -16 -16 -17 -24 -9 -42 10 -21 9 -23 -10 -20 -21
5 -50 -7 -49 -18 1 -4 1 -16 1 -27 0 -18 -3 -19 -22 -9 -18 10 -20 9 -15 -5 5
-12 0 -16 -16 -17 -12 0 -17 -3 -10 -5 9 -4 9 -11 1 -29 -6 -14 -14 -22 -19
-20 -4 3 -10 1 -14 -5 -4 -6 -11 -7 -17 -4 -7 4 -8 2 -4 -5 4 -6 2 -18 -4 -26
-9 -11 -9 -15 -1 -15 6 0 11 -8 10 -17 0 -11 -3 -13 -6 -6 -8 22 -53 -16 -53
-44 0 -18 -4 -24 -15 -19 -8 3 -15 1 -15 -4 0 -9 -39 -26 -53 -22 -4 1 -7 -3
-7 -9 0 -6 7 -8 16 -5 10 4 14 1 12 -6 -2 -6 8 -23 22 -37 14 -14 16 -18 5 -8
-12 9 -27 17 -33 17 -7 0 -12 5 -12 10 0 6 -5 10 -10 10 -6 0 -9 -3 -8 -7 0
-5 -2 -16 -7 -26 -6 -14 -10 -15 -24 -5 -12 9 -11 7 2 -9 18 -21 18 -21 -12
-39 -17 -10 -32 -22 -32 -26 -1 -4 -3 -12 -4 -18 -1 -5 -3 -15 -4 -21 0 -6 -7
-9 -13 -7 -7 3 -21 -6 -31 -19 -18 -22 -18 -24 -1 -40 10 -10 21 -18 25 -18 4
0 10 -3 14 -7 4 -3 0 -5 -9 -4 -9 1 -22 8 -28 14 -21 21 -37 13 -63 -28 -14
-22 -29 -40 -34 -40 -4 0 -13 -10 -18 -23 -13 -28 12 -66 40 -62 14 3 16 0 7
-10 -18 -22 12 -76 39 -67 10 3 12 0 8 -12 -8 -20 25 -56 52 -56 14 0 17 -6
13 -25 -2 -14 0 -25 6 -25 6 0 14 -9 17 -20 6 -17 8 -18 21 -6 19 19 18 23 -6
29 -21 5 -27 31 -10 42 15 9 40 -14 33 -31 -3 -8 0 -14 6 -14 10 0 15 14 12
33 -1 5 3 6 9 2 16 -10 12 -26 -15 -47 -25 -20 -28 -34 -10 -53 18 -20 43 -24
62 -10 22 17 43 19 43 4 0 -5 -4 -8 -9 -4 -6 3 -25 -4 -43 -15 -18 -11 -27
-20 -19 -20 7 0 11 -6 8 -14 -4 -10 -1 -13 8 -9 8 3 18 -2 21 -11 7 -19 42
-12 60 12 7 10 13 11 18 4 3 -5 -10 -20 -30 -32 -34 -22 -35 -23 -14 -37 11
-8 18 -18 15 -22 -2 -5 9 -7 26 -5 21 3 29 0 26 -9 -2 -6 -12 -11 -21 -11 -13
2 -10 -4 9 -22 14 -13 33 -24 41 -24 20 0 18 -38 -3 -43 -11 -3 -6 -5 12 -7
l30 -2 -30 -14 -30 -15 34 6 c18 3 39 5 47 5 7 0 19 6 27 14 8 9 24 12 36 9
29 -7 26 -18 -5 -21 -15 -1 -32 -6 -39 -12 -6 -5 -16 -6 -21 -2 -5 4 1 -5 14
-19 12 -14 22 -30 22 -37 0 -6 4 -14 10 -17 6 -3 7 1 4 10 -4 11 -2 14 9 9 9
-3 21 4 31 18 9 12 16 17 16 10 0 -7 4 -10 10 -7 5 3 10 2 10 -2 0 -9 -41 -38
-50 -36 -3 1 -6 -7 -6 -17 0 -11 2 -17 5 -15 2 3 10 0 18 -7 11 -9 11 -14 -4
-32 -16 -19 -15 -18 8 2 14 12 29 19 32 15 4 -3 7 -1 7 5 0 7 -9 12 -20 12
-13 0 -20 7 -20 20 0 13 7 20 20 20 13 0 21 -7 22 -20 0 -11 1 -26 2 -32 1 -7
-6 -12 -14 -10 -12 3 -12 1 -3 -9 10 -10 9 -15 -5 -26 -16 -12 -16 -13 2 -6
14 5 18 3 14 -8 -4 -10 2 -14 21 -13 40 1 63 14 57 33 -4 11 -1 10 9 -4 15
-19 14 -20 -7 -27 -13 -3 -19 -6 -14 -7 5 -1 3 -7 -3 -15 -10 -12 -8 -19 8
-35 12 -12 25 -21 29 -21 14 0 43 36 35 43 -3 4 -1 7 5 7 20 0 18 -23 -5 -46
-30 -30 -31 -64 0 -65 12 -1 31 0 42 1 19 2 19 1 2 -18 -13 -14 -15 -22 -7
-27 9 -6 9 -10 -1 -17 -11 -8 -11 -9 1 -5 8 2 24 0 34 -6 16 -8 24 -5 40 16
l21 26 11 -23 c9 -20 8 -22 -12 -18 -34 6 -50 -31 -27 -63 17 -23 41 -36 28
-15 -3 6 1 10 9 10 18 0 21 -15 6 -25 -5 -3 -7 -12 -3 -21 3 -8 8 -12 11 -10
7 7 32 -13 32 -26 0 -5 -5 -6 -12 -2 -7 4 -8 3 -4 -4 4 -6 14 -8 23 -5 10 4
14 2 10 -4 -4 -6 -1 -18 7 -26 8 -8 12 -18 9 -21 -4 -4 4 -5 18 -4 20 3 24 -1
23 -24 0 -33 39 -48 65 -23 10 8 21 12 25 8 4 -4 4 1 0 11 -5 14 -4 17 4 12
15 -9 16 -36 1 -36 -14 0 -35 -22 -33 -35 2 -19 23 -60 23 -46 1 11 4 11 16 1
8 -7 15 -18 14 -24 -3 -25 2 -36 17 -36 8 0 13 -4 9 -9 -3 -5 0 -13 6 -17 8
-5 9 -3 4 6 -5 8 -3 11 6 8 8 -3 14 -11 15 -19 2 -32 5 -37 26 -43 17 -4 29 1
44 20 l22 27 13 -24 c12 -23 11 -23 -6 -9 -10 8 -16 10 -12 3 4 -6 -1 -18 -10
-25 -21 -15 -29 -48 -12 -48 6 0 9 -7 5 -15 -4 -13 -2 -14 14 -5 11 6 20 8 20
4 0 -3 8 0 17 7 15 13 15 12 0 -12 -16 -24 -16 -26 3 -47 26 -27 35 -27 61 -1
l21 21 19 -21 c11 -12 15 -21 10 -21 -5 0 -13 5 -16 10 -9 14 -41 -5 -47 -28
-4 -13 5 -29 24 -47 16 -15 28 -21 26 -14 -2 8 3 13 10 11 8 -1 11 2 7 8 -3 5
-2 10 3 10 6 0 8 9 5 20 -6 22 7 26 25 8 9 -9 12 -9 12 0 0 7 5 12 11 12 5 0
7 -5 4 -11 -4 -5 1 -19 11 -30 21 -23 9 -26 -14 -3 -15 15 -18 14 -39 -12 -20
-25 -21 -31 -9 -49 20 -30 49 -25 68 13 22 45 25 47 43 32 13 -11 14 -10 9 4
-3 9 0 24 7 33 8 9 12 19 11 22 -12 21 -26 29 -44 26 -15 -3 -17 -1 -9 9 6 7
7 17 3 22 -4 5 4 -1 18 -12 25 -21 70 -38 68 -25 -1 3 2 14 7 24 4 10 2 23 -4
31 -8 10 -9 16 -1 21 5 3 10 2 10 -4 0 -5 9 -9 19 -8 11 0 17 5 14 11 -4 5 1
7 9 3 12 -4 15 0 13 18 -3 32 -25 57 -42 51 -10 -4 -11 -1 -3 14 5 10 15 22
22 26 6 4 8 3 5 -3 -9 -15 22 -54 41 -51 9 2 23 16 30 32 15 35 15 36 -2 36
-8 0 -16 5 -18 12 -3 7 -9 8 -18 3 -10 -6 -8 -10 9 -17 28 -10 24 -43 -4 -43
-25 0 -29 44 -6 71 9 11 15 17 14 15 -4 -7 40 -41 53 -41 7 0 18 10 25 21 13
26 -5 70 -26 63 -7 -3 -16 0 -21 7 -4 8 -3 10 4 5 7 -4 12 -1 12 8 0 22 17 20
24 -2 3 -9 16 -23 28 -31 13 -7 20 -10 16 -6 -5 5 1 14 12 22 10 7 17 20 14
28 -4 9 6 19 29 28 19 8 38 21 42 28 5 7 4 10 -1 6 -6 -3 -16 8 -23 24 -8 19
-18 28 -27 25 -8 -3 -14 -1 -14 3 0 19 30 19 40 1 20 -37 78 -11 66 28 -10 30
-42 47 -50 26 -3 -8 -2 -13 3 -10 13 8 45 -20 37 -32 -13 -22 -43 -13 -49 13
-3 18 4 36 25 63 28 34 29 35 23 10 -9 -35 12 -58 41 -47 31 11 38 39 16 63
-11 12 -18 28 -15 36 2 8 -3 4 -11 -10 -17 -28 -22 -19 -6 11 12 22 30 25 30
5 0 -8 7 -22 16 -31 15 -15 18 -15 36 1 11 11 18 28 16 43 -2 18 2 25 17 26
32 2 67 36 53 52 -8 10 -7 13 5 13 9 0 23 7 32 16 14 15 14 19 1 40 -10 14
-12 25 -6 29 6 3 10 2 10 -3 0 -19 28 -21 48 -4 14 12 17 23 11 39 -6 17 -4
21 9 19 26 -4 52 16 52 42 0 13 -8 25 -17 28 -10 3 -24 8 -32 10 -12 4 -12 7
1 20 8 8 21 16 29 17 8 2 20 6 27 10 15 10 32 0 32 -19 0 -23 -29 -29 -45 -8
-8 11 -15 14 -15 7 0 -6 10 -19 22 -27 20 -14 23 -14 31 0 7 12 11 13 17 4 4
-6 7 2 6 19 -1 18 -6 31 -13 31 -7 0 -13 4 -13 10 0 5 -7 7 -17 3 -14 -6 -14
-3 3 25 22 38 33 41 26 7 -3 -19 1 -27 19 -34 28 -10 38 -6 48 22 9 23 -16 56
-36 49 -19 -6 -16 15 3 22 22 8 24 8 24 -8 0 -20 28 -28 52 -15 14 8 19 18 15
35 -4 23 3 28 41 27 6 -1 12 8 12 18 0 11 5 19 10 19 6 0 10 8 9 18 0 10 -3
12 -6 4 -2 -6 -9 -10 -14 -6 -15 9 0 24 26 24 31 0 45 38 20 56 -25 18 -58 -3
-52 -34 2 -12 0 -25 -4 -28 -5 -3 -9 3 -9 13 -1 14 -6 12 -25 -12 -27 -32 -32
-55 -13 -55 6 0 8 -3 4 -7 -7 -7 -66 -14 -66 -8 0 1 10 13 23 27 41 47 101
119 108 130 6 9 12 8 23 -1 9 -8 16 -10 16 -6 0 4 6 3 13 -3 7 -6 22 -10 34
-9 16 1 20 7 19 30 -3 34 16 45 42 26 14 -11 15 -11 5 0 -9 11 -9 17 2 27 7 8
11 23 8 34 -4 15 0 20 15 20 11 0 25 7 32 15 12 15 5 55 -11 55 -20 0 -7 50
19 77 29 29 57 73 47 73 -4 0 -18 -13 -32 -30 -13 -16 -31 -30 -39 -30 -9 0
-12 -5 -9 -10 4 -6 2 -17 -4 -24 -6 -7 -9 -20 -6 -28 3 -8 -2 -21 -12 -28 -15
-12 -16 -12 -5 0 19 22 14 35 -7 16 -10 -10 -21 -14 -23 -9 -3 4 -3 3 -2 -4 3
-12 -48 -82 -69 -95 -7 -4 -8 -8 -3 -8 6 0 1 -6 -9 -14 -11 -8 -23 -12 -27
-10 -4 3 -6 -1 -3 -8 3 -7 -12 -31 -33 -53 -20 -22 -53 -61 -72 -87 -19 -25
-63 -80 -98 -122 -37 -44 -60 -81 -56 -88 4 -7 3 -8 -4 -4 -7 4 -37 -24 -73
-68 -34 -42 -66 -73 -72 -69 -6 3 -7 1 -3 -5 9 -15 -173 -234 -187 -225 -6 3
-7 1 -3 -6 4 -6 -13 -35 -41 -69 -27 -31 -60 -71 -73 -89 -14 -17 -103 -126
-199 -242 l-174 -210 -20 27 c-12 15 -76 92 -142 172 -66 79 -140 170 -165
201 -49 62 -421 515 -508 619 -68 82 -50 60 -300 364 -190 230 -212 260 -199
275 41 48 445 540 519 632 l88 109 -18 30 c-11 16 -21 28 -23 26 -2 -3 -3 13
-1 35 2 21 1 39 -2 39 -3 0 -7 -2 -7 -5z m0 -94 c17 -11 7 -41 -13 -41 -19 0
-29 17 -22 35 6 17 15 18 35 6z m-52 -77 c9 -23 -13 -40 -32 -24 -12 10 -13
16 -4 26 15 18 28 18 36 -2z m-17 -60 c0 -8 -5 -12 -10 -9 -6 4 -8 11 -5 16 9
14 15 11 15 -7z m-43 -10 c8 -21 -13 -42 -28 -27 -13 13 -5 43 11 43 6 0 13
-7 17 -16z m-33 -50 c3 -8 2 -12 -4 -9 -6 3 -10 10 -10 16 0 14 7 11 14 -7z
m-16 -25 c4 -19 -19 -31 -38 -19 -18 11 -4 42 17 38 10 -2 19 -10 21 -19z
m-22 -49 c15 0 16 -2 4 -9 -17 -12 -27 -7 -40 22 -10 20 -10 20 3 5 8 -10 23
-18 33 -18z m-39 -16 c3 -8 1 -20 -6 -27 -14 -14 -47 15 -37 32 10 16 36 13
43 -5z m-54 -68 c8 -19 -15 -37 -32 -26 -17 10 -7 40 13 40 7 0 16 -6 19 -14z
m-28 -64 c-3 -3 -11 0 -18 7 -9 10 -8 11 6 5 10 -3 15 -9 12 -12z m-27 -9 c5
-17 -26 -29 -40 -15 -6 6 -7 15 -3 22 9 14 37 9 43 -7z m-58 -68 c0 -9 -7 -18
-16 -22 -18 -7 -39 11 -30 26 11 17 46 13 46 -4z m-6 -36 c26 22 18 6 -11 -20
-14 -13 -23 -18 -19 -11 4 6 3 12 -2 12 -6 0 -12 7 -16 15 -4 12 -2 13 14 3
14 -9 22 -9 34 1z m-54 -39 c0 -13 -7 -20 -20 -20 -13 0 -20 7 -20 20 0 13 7
20 20 20 13 0 20 -7 20 -20z m-15 -43 c4 5 5 3 1 -4 -8 -15 -32 -7 -41 15 -5
14 -4 14 13 -1 10 -9 22 -14 27 -10z m-39 -36 c-10 -16 -36 -13 -43 5 -8 22
18 37 36 20 7 -8 10 -19 7 -25z m-58 -54 c4 -21 -25 -34 -40 -19 -8 8 -8 16 2
27 16 19 34 15 38 -8z m-48 -31 c0 -3 -4 -8 -10 -11 -5 -3 -10 -1 -10 4 0 6 5
11 10 11 6 0 10 -2 10 -4z m30 -26 c0 -5 -4 -10 -9 -10 -6 0 -13 5 -16 10 -3
6 1 10 9 10 9 0 16 -4 16 -10z m-42 -22 c-2 -13 -10 -23 -18 -23 -8 0 -16 10
-18 23 -3 17 2 22 18 22 16 0 21 -5 18 -22z m37 -18 c3 -5 1 -10 -4 -10 -6 0
-11 5 -11 10 0 6 2 10 4 10 3 0 8 -4 11 -10z m8 -37 c3 -5 7 -21 9 -38 3 -16
3 -24 1 -17 -3 6 -13 12 -23 12 -22 0 -33 23 -17 39 13 13 24 14 30 4z m48
-40 c13 -16 12 -17 -3 -4 -10 7 -18 15 -18 17 0 8 8 3 21 -13z m19 -49 c0 -19
-28 -30 -42 -16 -8 8 -8 15 1 26 14 17 41 10 41 -10z m30 -18 c0 -3 -4 -8 -10
-11 -5 -3 -10 -1 -10 4 0 6 5 11 10 11 6 0 10 -2 10 -4z m2535 -36 c4 -6 1
-18 -6 -26 -11 -13 -14 -13 -27 0 -8 8 -11 19 -8 25 9 14 33 14 41 1z m-66
-17 c-12 -15 -12 -16 4 -10 11 4 17 2 17 -7 0 -8 -11 -13 -25 -13 -29 0 -33
21 -7 36 24 15 26 13 11 -6z m9 -56 c11 -9 11 -13 -4 -24 -21 -15 -34 -8 -34
20 0 15 -3 18 -11 10 -8 -8 -8 -17 1 -33 11 -21 10 -22 -14 -18 -15 3 -29 1
-32 -3 -3 -5 4 -9 15 -9 26 0 36 -17 21 -35 -15 -18 -40 -8 -40 17 0 10 -4 17
-10 13 -5 -3 -6 -13 -3 -23 5 -13 3 -14 -7 -5 -10 9 -8 18 9 42 13 17 27 31
33 31 6 0 8 3 5 7 -4 3 -2 12 4 20 12 14 43 9 67 -10z m-2401 -3 c9 -23 -13
-40 -32 -24 -12 10 -13 16 -4 26 15 18 28 18 36 -2z m60 -70 c3 -8 1 -20 -6
-27 -14 -14 -47 15 -37 32 10 16 36 13 43 -5z m59 -65 c10 -17 -23 -46 -37
-32 -7 7 -9 19 -6 27 7 18 33 21 43 5z m2172 -6 c5 -17 -26 -29 -40 -15 -6 6
-7 15 -3 22 9 14 37 9 43 -7z m-2134 -12 c6 -10 -22 -37 -29 -29 -8 7 5 38 15
38 5 0 11 -4 14 -9z m2076 -62 c0 -12 -7 -19 -18 -19 -26 0 -33 10 -21 31 12
22 39 14 39 -12z m-2062 -1 c-2 -13 -10 -23 -18 -23 -8 0 -16 10 -18 23 -3 17
2 22 18 22 16 0 21 -5 18 -22z m42 -25 c0 -9 -3 -13 -7 -10 -3 4 -13 1 -22 -5
-12 -10 -12 -7 2 8 9 11 14 24 10 29 -5 4 -2 5 5 1 6 -4 12 -14 12 -23z m24
-9 c3 -8 2 -12 -4 -9 -6 3 -10 10 -10 16 0 14 7 11 14 -7z m1942 -43 c-4 -6
-16 -11 -27 -11 -21 0 -27 35 -6 43 16 6 41 -18 33 -32z m-1949 13 c8 -22 -18
-37 -36 -20 -7 8 -10 19 -7 25 10 16 36 13 43 -5z m1888 -75 c0 -8 -9 -14 -20
-14 -15 0 -20 7 -21 28 -1 26 0 27 20 14 12 -8 21 -21 21 -28z m-1830 11 c4
-6 1 -18 -6 -26 -11 -13 -14 -13 -27 0 -8 8 -11 19 -8 25 9 14 33 14 41 1z
m103 -93 c2 -10 -3 -17 -12 -17 -10 0 -16 9 -16 21 0 24 23 21 28 -4z m1611
-41 c9 -10 8 -16 -4 -26 -19 -16 -41 1 -32 24 8 20 21 20 36 2z m-1601 -13 c5
-17 -26 -29 -40 -15 -6 6 -7 15 -3 22 9 14 37 9 43 -7z m1546 -25 c-3 -4 -11
-5 -20 -1 -11 4 -12 8 -3 20 10 11 14 11 20 1 4 -6 6 -15 3 -20z m-1488 -57
c-9 -14 -33 -14 -41 -1 -4 6 -1 18 6 26 11 13 14 13 27 0 8 -8 11 -19 8 -25z
m1492 18 c4 -19 -27 -34 -41 -20 -14 14 0 43 20 39 10 -2 19 -10 21 -19z m-71
-26 c-9 -9 -20 -13 -24 -9 -4 4 1 14 11 22 25 18 35 8 13 -13z m-13 -23 c29
-11 35 -37 10 -47 -17 -6 -34 12 -30 31 2 6 1 8 -1 3 -3 -4 -10 -4 -16 0 -7 4
-4 -4 5 -19 20 -30 12 -45 -12 -23 -16 14 -18 14 -23 0 -4 -10 0 -15 13 -16
33 -2 38 -4 47 -12 4 -5 3 -7 -4 -5 -6 2 -18 -6 -26 -16 -16 -22 -37 -14 -37
15 0 13 -4 18 -12 13 -6 -4 3 14 21 39 18 26 34 47 36 47 2 0 15 -4 29 -10z
m-1357 -11 c16 -16 5 -39 -18 -39 -12 0 -19 7 -19 18 0 31 17 41 37 21z m39
-17 c-3 -3 2 -11 12 -18 16 -12 16 -12 -3 -9 -11 2 -23 4 -27 4 -3 1 -4 10 -1
21 3 11 10 17 15 14 5 -3 7 -8 4 -12z m22 -65 c4 -22 -27 -35 -38 -16 -10 15
7 42 24 36 6 -2 12 -11 14 -20z m1217 -28 c-3 -4 -12 -6 -20 -2 -9 3 -23 -1
-33 -8 -9 -7 -6 -1 7 14 19 20 27 24 38 16 7 -6 10 -15 8 -20z m-1158 -39 c4
-15 11 -19 24 -15 13 5 19 1 19 -10 0 -13 -5 -15 -17 -10 -10 4 -28 7 -40 7
-25 -2 -37 12 -29 33 8 22 37 18 43 -5z m1148 10 c4 -6 1 -18 -6 -26 -11 -13
-14 -13 -27 0 -8 8 -11 19 -8 25 9 14 33 14 41 1z m-1096 -74 c9 -10 8 -16 -4
-26 -19 -16 -41 1 -32 24 8 20 21 20 36 2z m1036 4 c4 -6 1 -18 -6 -26 -11
-13 -14 -13 -27 0 -8 8 -11 19 -8 25 9 14 33 14 41 1z m-986 -29 c9 -6 10 -11
2 -15 -6 -4 -11 -2 -11 5 0 8 -4 8 -15 -1 -22 -18 -18 -30 8 -27 17 1 22 -3
21 -20 0 -16 5 -23 18 -23 10 0 18 5 18 11 0 5 -4 8 -8 5 -5 -3 -9 1 -9 9 0
11 4 12 14 4 18 -16 16 -26 -7 -39 -16 -8 -25 -4 -55 26 -35 34 -36 37 -19 55
19 21 23 22 43 10z m880 -119 c8 -14 5 -18 -14 -20 -29 -2 -41 14 -25 33 14
16 25 12 39 -13z m-814 -6 c0 -22 -14 -29 -34 -17 -19 12 -6 43 16 39 10 -2
18 -12 18 -22z m759 -21 c14 -37 -30 -86 -49 -55 -10 16 14 40 33 33 15 -6 15
-5 3 10 -11 14 -17 15 -30 5 -14 -12 -14 -11 -2 5 17 21 37 22 45 2z m-698
-36 c3 -6 0 -17 -7 -25 -18 -17 -44 -2 -36 20 7 18 33 21 43 5z m34 -22 c0 -7
-9 -18 -20 -25 -23 -14 -27 0 -5 18 8 7 12 17 8 23 -3 6 -1 7 5 3 7 -4 12 -13
12 -19z m598 -55 c2 -14 -2 -22 -12 -22 -19 0 -29 17 -22 36 8 22 30 12 34
-14z m-578 -2 c0 -13 -7 -20 -20 -20 -13 0 -20 7 -20 20 0 13 7 20 20 20 13 0
20 -7 20 -20z m22 -32 c-13 -13 -22 -17 -22 -10 0 7 6 15 14 18 9 3 12 13 9
22 -5 14 -3 15 8 4 11 -10 10 -16 -9 -34z m36 -35 c5 -17 -26 -29 -40 -15 -6
6 -7 15 -3 22 9 14 37 9 43 -7z m58 -82 c-10 -16 -36 -13 -43 5 -8 22 18 37
36 20 7 -8 10 -19 7 -25z m352 16 c4 -20 -25 -34 -40 -19 -15 15 -1 44 19 40
10 -2 19 -11 21 -21z m-62 -2 c-3 -8 -1 -15 5 -15 6 0 7 -5 3 -12 -6 -9 -9 -9
-12 0 -2 7 -8 9 -14 6 -5 -3 -4 3 4 15 15 24 23 28 14 6z m-246 -20 c0 -12
-19 -12 -23 0 -4 9 -1 12 9 8 7 -3 14 -7 14 -8z m248 -49 c2 -9 -4 -19 -13
-22 -20 -8 -26 -2 -29 29 -3 22 0 24 18 18 12 -5 22 -16 24 -25z m-240 -4 c3
-17 -2 -22 -17 -22 -14 0 -21 6 -21 18 0 38 33 41 38 4z m60 -65 c4 -21 -25
-34 -40 -19 -8 8 -8 16 2 27 16 19 34 15 38 -8z m128 12 c10 -17 -23 -46 -37
-32 -7 7 -9 19 -6 27 7 18 33 21 43 5z m-61 -69 c7 -11 -12 -40 -25 -40 -11 0
-21 30 -14 41 7 12 31 11 39 -1z"/>
<path d="M1080 2678 c-46 -13 -60 -26 -60 -54 0 -21 4 -24 38 -23 34 0 133 37
104 38 -9 1 -8 7 4 26 16 25 16 25 -17 24 -19 0 -50 -5 -69 -11z m65 -18 c-10
-12 -24 -19 -31 -16 -7 3 -14 1 -16 -3 -2 -4 -17 -11 -35 -14 -26 -5 -31 -3
-27 8 6 14 71 38 84 30 3 -2 12 0 20 6 23 14 25 11 5 -11z"/>
<path d="M1545 2681 c-3 -5 -2 -12 3 -15 5 -3 9 1 9 9 0 17 -3 19 -12 6z"/>
<path d="M2216 2669 c-17 -24 -12 -45 15 -59 12 -7 20 -6 25 2 4 7 4 10 -1 6
-11 -10 -34 23 -28 39 7 18 21 16 26 -4 4 -17 4 -17 12 1 5 12 3 21 -6 27 -21
13 -26 11 -43 -12z"/>
<path d="M1481 2666 c-8 -9 -8 -25 -1 -52 l10 -39 -5 43 c-5 40 0 48 28 43 5
-1 6 3 2 9 -9 14 -20 13 -34 -4z"/>
<path d="M2318 2673 c7 -3 16 -2 19 1 4 3 -2 6 -13 5 -11 0 -14 -3 -6 -6z"/>
<path d="M187 2649 c7 -7 15 -10 18 -7 3 3 -2 9 -12 12 -14 6 -15 5 -6 -5z"/>
<path d="M1406 2647 c3 -10 9 -15 12 -12 3 3 0 11 -7 18 -10 9 -11 8 -5 -6z"/>
<path d="M2329 2643 c-13 -16 -12 -17 4 -4 9 7 17 15 17 17 0 8 -8 3 -21 -13z"/>
<path d="M2420 2650 c0 -4 9 -10 20 -13 11 -3 20 -2 20 3 0 4 -9 10 -20 13
-11 3 -20 2 -20 -3z"/>
<path d="M680 2639 c0 -5 5 -7 10 -4 6 3 10 8 10 11 0 2 -4 4 -10 4 -5 0 -10
-5 -10 -11z"/>
<path d="M1350 2646 c0 -2 7 -7 16 -10 8 -3 12 -2 9 4 -6 10 -25 14 -25 6z"/>
<path d="M2818 2638 c-9 -5 -6 -7 9 -5 12 2 25 6 28 8 8 9 -23 6 -37 -3z"/>
<path d="M2880 2639 c0 -5 5 -7 10 -4 6 3 10 8 10 11 0 2 -4 4 -10 4 -5 0 -10
-5 -10 -11z"/>
<path d="M750 2618 c0 -13 4 -18 8 -13 4 6 25 11 47 12 34 2 37 1 20 -9 -11
-6 -21 -12 -23 -13 -1 -1 0 -10 4 -19 9 -25 55 -41 66 -24 6 8 7 -17 4 -65
l-6 -77 58 -28 c44 -21 57 -32 58 -50 2 -27 10 -37 19 -23 3 6 2 11 -3 11 -5
0 -7 11 -4 25 3 19 0 25 -12 25 -10 0 -14 5 -11 10 4 6 -7 10 -25 10 -17 0
-29 4 -26 9 3 5 -2 8 -12 7 -15 -1 -17 11 -20 89 -3 81 -5 92 -29 117 -21 22
-36 28 -70 28 -38 0 -43 -3 -43 -22z m123 -27 c4 -1 7 -6 7 -12 0 -6 -7 -8
-16 -5 -8 3 -12 2 -9 -4 3 -6 -1 -10 -9 -10 -17 0 -30 16 -22 29 4 5 14 8 24
6 9 -2 20 -4 25 -4z"/>
<path d="M1505 2630 c-3 -5 -2 -10 4 -10 5 0 13 5 16 10 3 6 2 10 -4 10 -5 0
-13 -4 -16 -10z"/>
<path d="M1573 2630 c5 -18 -20 -70 -34 -70 -6 0 -8 4 -4 9 3 6 -5 15 -17 21
-20 10 -21 9 -6 -3 17 -14 12 -31 -9 -33 -39 -3 -44 -5 -38 -14 3 -5 11 -7 18
-5 7 2 24 6 39 9 37 8 73 60 58 83 -7 12 -10 13 -7 3z"/>
<path d="M2273 2611 c0 -26 2 -27 15 -14 13 13 17 13 31 -1 12 -12 13 -18 3
-28 -8 -8 -12 -8 -12 -1 0 6 -9 9 -20 6 -11 -3 -20 -9 -20 -14 0 -4 9 -6 20
-4 11 2 20 -1 20 -6 0 -6 5 -7 10 -4 6 4 10 -6 10 -23 0 -16 8 -36 18 -45 20
-18 37 -23 27 -8 -3 5 -1 12 4 15 18 12 21 -12 4 -29 -16 -17 -16 -19 6 -36
13 -10 28 -16 34 -12 6 4 1 10 -11 14 -27 10 -27 17 -4 42 12 15 14 21 5 24
-7 3 -13 13 -13 24 0 10 -5 19 -10 19 -7 0 -7 6 -1 19 13 23 3 35 -16 20 -7
-6 -13 -8 -13 -4 0 4 -7 1 -16 -6 -15 -12 -16 -11 -10 9 8 26 -19 66 -36 55
-6 -3 -13 0 -17 6 -4 7 -8 -1 -8 -18z m110 -52 c-7 -7 -9 -25 -6 -40 5 -25 2
-29 -16 -29 -19 0 -22 5 -18 33 2 17 8 32 14 32 6 0 15 3 19 8 4 4 10 7 13 7
3 0 0 -5 -6 -11z"/>
<path d="M998 2624 c-4 -5 -3 -28 2 -49 5 -21 6 -43 3 -48 -6 -10 27 -48 37
-42 4 3 21 -2 36 -10 16 -8 36 -15 44 -14 8 0 -8 11 -36 23 -61 28 -65 33 -73
100 -3 28 -9 46 -13 40z m33 -121 c13 -16 12 -17 -3 -4 -10 7 -18 15 -18 17 0
8 8 3 21 -13z"/>
<path d="M1543 2615 c-3 -9 -3 -18 -1 -21 3 -3 8 4 11 16 6 23 -1 27 -10 5z"/>
<path d="M345 2609 c-4 -6 -5 -12 -2 -15 2 -3 7 2 10 11 7 17 1 20 -8 4z"/>
<path d="M1186 2605 c4 -8 11 -15 16 -15 6 0 5 6 -2 15 -7 8 -14 15 -16 15 -2
0 -1 -7 2 -15z"/>
<path d="M2350 2606 c0 -8 4 -17 9 -20 5 -4 7 3 4 14 -6 23 -13 26 -13 6z"/>
<path d="M290 2601 c0 -6 4 -13 10 -16 6 -3 7 1 4 9 -7 18 -14 21 -14 7z"/>
<path d="M2780 2600 c-13 -8 -12 -10 3 -10 9 0 17 5 17 10 0 12 -1 12 -20 0z"/>
<path d="M2450 2590 c-9 -6 -10 -10 -3 -10 6 0 15 5 18 10 8 12 4 12 -15 0z"/>
<path d="M2760 2569 c0 -5 5 -7 10 -4 6 3 10 8 10 11 0 2 -4 4 -10 4 -5 0 -10
-5 -10 -11z"/>
<path d="M1946 2561 c15 -15 82 -40 88 -33 4 3 -15 14 -41 24 -55 20 -61 22
-47 9z"/>
<path d="M2418 2553 c7 -3 16 -2 19 1 4 3 -2 6 -13 5 -11 0 -14 -3 -6 -6z"/>
<path d="M2416 2525 c-9 -26 -7 -32 5 -12 6 10 9 21 6 23 -2 3 -7 -2 -11 -11z"/>
<path d="M70 2526 c0 -2 7 -9 15 -16 9 -7 15 -8 15 -2 0 5 -7 12 -15 16 -8 3
-15 4 -15 2z"/>
<path d="M2510 2516 c0 -2 8 -10 18 -17 15 -13 16 -12 3 4 -13 16 -21 21 -21
13z"/>
<path d="M761 2500 c4 -30 -12 -51 -35 -45 -16 5 -18 4 -6 -4 12 -8 7 -18 -26
-58 -22 -26 -44 -54 -48 -61 -10 -16 20 -52 43 -52 11 0 9 4 -7 16 -30 21 -28
32 16 80 75 84 86 102 71 125 -8 12 -10 12 -8 -1z"/>
<path d="M2911 2494 c0 -11 3 -14 6 -6 3 7 2 16 -1 19 -3 4 -6 -2 -5 -13z"/>
<path d="M236 2492 c-3 -5 1 -9 9 -9 8 0 12 4 9 9 -3 4 -7 8 -9 8 -2 0 -6 -4
-9 -8z"/>
<path d="M2755 2490 c-3 -6 1 -7 9 -4 18 7 21 14 7 14 -6 0 -13 -4 -16 -10z"/>
<path d="M2428 2478 c-4 -10 -3 -18 2 -18 6 0 10 -9 10 -20 0 -11 4 -20 9 -20
6 0 9 9 8 20 -1 11 -4 20 -8 20 -4 0 -9 8 -11 18 -3 16 -4 16 -10 0z"/>
<path d="M350 2468 c0 -9 -6 -19 -12 -21 -10 -4 -10 -6 0 -6 14 -1 28 26 18
36 -3 4 -6 -1 -6 -9z"/>
<path d="M987 2439 c-31 -23 -34 -36 -11 -36 16 0 51 44 42 52 -3 3 -17 -4
-31 -16z m6 -14 c-3 -9 -8 -14 -10 -11 -3 3 -2 9 2 15 9 16 15 13 8 -4z"/>
<path d="M2640 2449 c0 -5 5 -7 10 -4 6 3 10 8 10 11 0 2 -4 4 -10 4 -5 0 -10
-5 -10 -11z"/>
<path d="M386 2433 c-6 -14 -5 -15 5 -6 7 7 10 15 7 18 -3 3 -9 -2 -12 -12z"/>
<path d="M2220 2430 c0 -6 7 -10 15 -10 8 0 15 2 15 4 0 2 -7 6 -15 10 -8 3
-15 1 -15 -4z"/>
<path d="M2352 2405 c6 -14 14 -25 18 -25 4 0 26 -25 50 -54 34 -45 40 -58 31
-73 -10 -17 -11 -15 -15 19 -1 15 -36 24 -36 9 0 -6 6 -8 14 -5 9 3 13 -1 13
-12 -1 -11 10 -24 27 -32 18 -9 24 -17 17 -22 -8 -5 -4 -16 16 -38 28 -33 43
-40 43 -22 0 6 -7 10 -15 10 -14 0 -20 12 -16 33 1 5 -4 5 -10 1 -7 -4 -10 -2
-7 6 9 28 26 18 76 -44 37 -47 57 -64 68 -59 14 5 12 9 -9 20 -14 7 -28 22
-32 33 -3 11 -11 20 -16 20 -6 0 -7 5 -4 10 3 6 1 10 -6 10 -15 0 -70 60 -64
70 2 4 -9 20 -26 36 -17 16 -36 35 -42 42 -7 7 -22 24 -34 36 -12 13 -20 26
-18 28 2 2 -5 9 -15 16 -18 11 -19 10 -8 -13z m129 -167 c11 -21 11 -22 -4 -9
-10 7 -17 17 -17 22 0 15 9 10 21 -13z"/>
<path d="M270 2404 c0 -8 6 -11 15 -8 8 4 15 9 15 13 0 4 -7 8 -15 8 -8 0 -15
-6 -15 -13z"/>
<path d="M2658 2413 c7 -3 16 -2 19 1 4 3 -2 6 -13 5 -11 0 -14 -3 -6 -6z"/>
<path d="M2264 2394 c9 -8 16 -20 16 -25 0 -6 5 -7 10 -4 6 3 10 11 10 16 0 6
-4 8 -9 5 -5 -3 -11 1 -15 9 -3 8 -10 15 -16 15 -6 0 -4 -7 4 -16z"/>
<path d="M2455 2400 c-4 -6 -10 -8 -15 -5 -12 8 1 -39 14 -47 6 -4 19 -8 28
-8 23 0 36 49 17 61 -19 12 -36 11 -44 -1z m34 -9 c17 -11 7 -41 -13 -41 -19
0 -29 17 -22 35 6 17 15 18 35 6z"/>
<path d="M2608 2398 c5 -5 16 -8 23 -6 8 3 3 7 -10 11 -17 4 -21 3 -13 -5z"/>
<path d="M2310 2396 c0 -3 11 -17 24 -31 16 -18 24 -21 22 -10 -2 14 -46 53
-46 41z"/>
<path d="M2928 2389 c-10 -5 -18 -18 -17 -27 0 -14 2 -14 6 -2 4 8 13 20 22
27 19 15 13 16 -11 2z"/>
<path d="M237 2370 c-3 -11 -1 -20 4 -20 5 0 9 9 9 20 0 11 -2 20 -4 20 -2 0
-6 -9 -9 -20z"/>
<path d="M321 2374 c0 -11 3 -14 6 -6 3 7 2 16 -1 19 -3 4 -6 -2 -5 -13z"/>
<path d="M2804 2359 c0 -10 4 -19 8 -19 4 0 8 6 8 14 0 8 -4 17 -8 20 -4 2 -8
-4 -8 -15z"/>
<path d="M920 2356 c0 -2 7 -7 16 -10 8 -3 12 -2 9 4 -6 10 -25 14 -25 6z"/>
<path d="M2965 2350 c-3 -5 -1 -10 4 -10 6 0 11 5 11 10 0 6 -2 10 -4 10 -3 0
-8 -4 -11 -10z"/>
<path d="M273 2335 c0 -8 4 -12 9 -9 5 3 6 10 3 15 -9 13 -12 11 -12 -6z"/>
<path d="M1090 2340 c0 -5 -10 -11 -22 -11 -17 -1 -19 -2 -5 -6 9 -2 17 -8 17
-13 0 -11 -64 -40 -87 -39 -10 1 -4 5 15 11 17 6 32 15 32 20 0 5 -9 4 -19 -2
-11 -5 -31 -10 -46 -10 -15 0 -24 -4 -20 -10 3 -5 1 -10 -4 -10 -20 0 -11 20
12 30 l22 9 -22 0 c-23 1 -40 -30 -27 -51 5 -9 2 -8 -10 1 -9 8 -14 21 -11 30
5 12 3 13 -5 5 -18 -18 6 -58 28 -49 9 4 37 11 61 16 24 5 49 13 56 19 7 5 23
9 36 9 13 -1 38 4 54 11 29 13 29 14 7 18 -13 2 -26 10 -29 18 -6 16 -33 19
-33 4z m29 -22 c12 -15 11 -18 -3 -18 -10 0 -16 8 -16 22 0 12 1 19 3 17 1 -2
9 -12 16 -21z"/>
<path d="M2511 2327 c-11 -16 -15 -17 -22 -6 -7 11 -9 11 -9 -2 0 -9 7 -19 15
-23 9 -3 15 0 15 9 0 22 20 29 37 12 19 -18 9 -37 -19 -37 -18 0 -19 -2 -7
-17 12 -14 12 -16 -1 -9 -8 4 -6 -1 6 -11 11 -10 21 -22 22 -27 1 -9 20 -16
50 -18 8 -1 11 -9 9 -19 -7 -25 9 -43 38 -44 24 -2 27 -6 30 -43 3 -32 0 -42
-11 -42 -9 0 -13 4 -10 9 7 10 -22 37 -30 28 -3 -3 45 -67 107 -141 104 -126
133 -176 109 -191 -5 -3 -7 -19 -3 -36 5 -28 4 -29 -18 -20 -21 7 -26 5 -36
-15 -16 -34 5 -59 40 -50 15 3 27 13 27 21 0 8 6 15 13 16 6 0 3 4 -8 9 -21 8
-21 9 30 25 8 2 15 9 15 15 0 6 -8 5 -20 -2 -17 -11 -22 -10 -30 2 -14 23 14
48 34 30 10 -8 16 -9 16 -2 0 6 -9 16 -21 22 -18 10 -20 18 -14 56 3 27 2 44
-5 44 -17 0 -11 37 8 46 9 4 20 7 24 6 4 -1 5 5 1 14 -5 13 -7 13 -14 2 -5 -7
-9 -9 -9 -5 0 13 -30 -20 -30 -33 0 -6 -5 -8 -12 -4 -13 8 9 -25 24 -36 4 -3
2 -12 -3 -20 -9 -13 -11 -13 -16 -1 -3 7 -14 22 -24 32 -11 11 -16 19 -13 19
3 0 -8 14 -25 31 -17 17 -29 34 -26 39 3 4 -2 11 -11 14 -23 9 -11 18 26 21
29 3 37 -4 23 -19 -5 -4 -8 -13 -8 -19 -1 -27 50 -55 58 -33 4 9 0 12 -12 9
-11 -3 -21 2 -25 12 -13 35 24 49 44 18 10 -16 11 -16 4 2 -4 11 -7 28 -8 38
0 15 -2 16 -11 4 -5 -7 -16 -12 -23 -9 -10 3 -10 7 0 20 10 12 10 14 1 8 -8
-4 -13 -2 -13 5 0 6 -12 23 -26 36 -15 14 -23 30 -20 39 3 9 2 12 -5 9 -6 -4
-13 3 -16 15 -4 14 -8 18 -13 10 -6 -9 -13 -9 -26 -1 -11 6 -13 11 -6 11 18 0
15 17 -7 39 -14 14 -23 16 -36 8 -16 -8 -17 -6 -13 17 5 25 4 26 -13 10 -10
-9 -26 -14 -34 -10 -22 8 -15 40 10 45 18 3 18 2 5 -15 -14 -17 -14 -18 2 -5
19 15 15 31 -8 31 -16 0 -17 5 -5 28 7 13 2 21 -23 33 -31 16 -33 16 -45 -4z
m59 -61 c0 -2 -7 -9 -15 -16 -12 -10 -15 -10 -15 4 0 9 7 16 15 16 8 0 15 -2
15 -4z m89 -85 c17 -11 7 -41 -13 -41 -19 0 -29 17 -22 35 6 17 15 18 35 6z
m67 -72 c10 -17 -23 -46 -37 -32 -7 7 -9 19 -6 27 7 18 33 21 43 5z m4 -59
c-20 -17 -29 -47 -10 -35 6 3 10 1 10 -4 0 -24 -38 -11 -42 14 -4 20 0 28 21
38 34 18 47 10 21 -13z m47 -16 c3 -8 1 -20 -6 -27 -14 -14 -47 15 -37 32 10
16 36 13 43 -5z m59 -355 c10 -17 -23 -46 -37 -32 -7 7 -9 19 -6 27 7 18 33
21 43 5z"/>
<path d="M1560 2329 c0 -5 5 -7 10 -4 6 3 10 8 10 11 0 2 -4 4 -10 4 -5 0 -10
-5 -10 -11z"/>
<path d="M2366 2331 c-4 -6 0 -14 8 -17 9 -3 13 -11 9 -18 -4 -6 1 -4 11 4 14
11 15 15 5 19 -8 2 -17 8 -20 14 -4 5 -9 5 -13 -2z"/>
<path d="M51 2314 c0 -11 3 -14 6 -6 3 7 2 16 -1 19 -3 4 -6 -2 -5 -13z"/>
<path d="M306 2297 c3 -10 9 -15 12 -12 3 3 0 11 -7 18 -10 9 -11 8 -5 -6z"/>
<path d="M604 2285 c-9 -14 -20 -22 -25 -19 -5 3 -8 2 -7 -3 3 -10 -107 -160
-132 -180 -8 -7 -11 -13 -6 -13 5 0 18 8 28 17 14 13 21 14 30 5 7 -7 17 -12
22 -12 6 0 3 5 -6 11 -10 5 -18 15 -18 20 0 20 41 69 52 63 7 -4 8 -2 4 4 -4
7 -3 12 2 12 5 0 14 11 20 25 8 17 20 25 39 26 17 1 21 3 11 6 -10 2 -18 9
-18 15 0 5 6 8 13 5 8 -3 14 4 15 19 2 31 -3 30 -24 -1z"/>
<path d="M2590 2289 c0 -5 5 -7 10 -4 6 3 10 8 10 11 0 2 -4 4 -10 4 -5 0 -10
-5 -10 -11z"/>
<path d="M2646 2287 c3 -10 9 -15 12 -12 3 3 0 11 -7 18 -10 9 -11 8 -5 -6z"/>
<path d="M2793 2285 c0 -8 4 -12 9 -9 5 3 6 10 3 15 -9 13 -12 11 -12 -6z"/>
<path d="M50 2275 c0 -8 2 -15 4 -15 2 0 6 7 10 15 3 8 1 15 -4 15 -6 0 -10
-7 -10 -15z"/>
<path d="M1544 2275 c-4 -8 -3 -26 0 -39 3 -14 2 -28 -4 -31 -5 -3 -10 -18 -9
-33 1 -26 1 -25 10 6 5 18 13 31 17 28 4 -2 8 4 8 14 0 10 -4 16 -8 14 -13 -8
-9 31 4 44 9 9 9 12 0 12 -7 0 -15 -7 -18 -15z"/>
<path d="M2870 2279 c0 -5 5 -7 10 -4 6 3 10 8 10 11 0 2 -4 4 -10 4 -5 0 -10
-5 -10 -11z"/>
<path d="M711 2275 c0 -14 28 -50 34 -43 3 3 -3 16 -14 29 -11 13 -20 20 -20
14z"/>
<path d="M1751 2254 c0 -11 3 -14 6 -6 3 7 2 16 -1 19 -3 4 -6 -2 -5 -13z"/>
<path d="M2641 2234 c0 -11 3 -14 6 -6 3 7 2 16 -1 19 -3 4 -6 -2 -5 -13z"/>
<path d="M2905 2240 c3 -5 8 -10 11 -10 2 0 4 5 4 10 0 6 -5 10 -11 10 -5 0
-7 -4 -4 -10z"/>
<path d="M336 2228 c3 -4 11 -5 19 -1 21 7 19 12 -4 10 -11 0 -18 -5 -15 -9z"/>
<path d="M1035 2223 c-44 -9 -51 -14 -34 -23 18 -10 104 -22 95 -13 -3 4 -16
7 -29 9 -40 4 -42 6 -17 13 28 8 16 19 -15 14z"/>
<path d="M2810 2224 c0 -1 6 -7 14 -13 10 -9 15 -8 19 2 3 8 -3 13 -14 13 -11
0 -19 -1 -19 -2z"/>
<path d="M120 2211 c0 -6 4 -13 10 -16 6 -3 7 1 4 9 -7 18 -14 21 -14 7z"/>
<path d="M266 2205 c4 -8 8 -15 10 -15 2 0 4 7 4 15 0 8 -4 15 -10 15 -5 0 -7
-7 -4 -15z"/>
<path d="M720 2210 c0 -5 5 -10 10 -10 6 0 10 5 10 10 0 6 -4 10 -10 10 -5 0
-10 -4 -10 -10z"/>
<path d="M785 2210 c3 -5 11 -10 16 -10 6 0 7 5 4 10 -3 6 -11 10 -16 10 -6 0
-7 -4 -4 -10z"/>
<path d="M750 2191 c0 -8 52 -22 58 -16 2 1 -11 7 -27 13 -17 6 -31 7 -31 3z"/>
<path d="M832 2184 c9 -9 21 -15 27 -13 6 2 -2 10 -17 17 -25 11 -25 11 -10
-4z"/>
<path d="M1772 2188 c2 -7 -3 -12 -10 -10 -16 3 -1 -28 22 -48 9 -7 16 -21 16
-31 0 -19 -63 -89 -80 -89 -6 0 -10 -4 -10 -10 0 -19 24 -5 62 35 21 21 38 47
38 57 0 10 7 18 18 18 14 1 12 3 -6 13 -12 7 -19 16 -16 20 4 4 -1 7 -10 7
-13 0 -17 6 -13 20 3 11 1 23 -4 26 -5 3 -8 0 -7 -8z"/>
<path d="M2880 2191 c0 -6 4 -13 10 -16 6 -3 7 1 4 9 -7 18 -14 21 -14 7z"/>
<path d="M700 2170 c-9 -6 -10 -10 -3 -10 6 0 15 5 18 10 8 12 4 12 -15 0z"/>
<path d="M1121 2164 c0 -11 3 -14 6 -6 3 7 2 16 -1 19 -3 4 -6 -2 -5 -13z"/>
<path d="M1861 2173 c-1 -17 16 -25 25 -12 4 7 3 9 -4 5 -5 -3 -13 0 -15 6 -4
9 -6 10 -6 1z"/>
<path d="M2740 2171 c0 -5 7 -12 16 -15 14 -5 15 -4 4 9 -14 17 -20 19 -20 6z"/>
<path d="M70 2155 c0 -5 5 -17 10 -25 5 -8 10 -10 10 -5 0 6 -5 17 -10 25 -5
8 -10 11 -10 5z"/>
<path d="M610 2149 c0 -5 5 -7 10 -4 6 3 10 8 10 11 0 2 -4 4 -10 4 -5 0 -10
-5 -10 -11z"/>
<path d="M875 2149 c-4 -6 -5 -12 -2 -15 2 -3 7 2 10 11 7 17 1 20 -8 4z"/>
<path d="M1740 2146 c0 -8 -7 -22 -16 -30 -8 -9 -11 -16 -5 -16 6 0 11 -9 11
-21 0 -13 -4 -18 -12 -13 -7 5 -8 3 -3 -6 5 -8 1 -18 -10 -27 -15 -10 -16 -13
-3 -13 29 0 46 33 46 88 0 28 -2 52 -4 52 -2 0 -4 -6 -4 -14z"/>
<path d="M1125 2120 c-4 -12 -5 -24 -2 -27 3 -2 8 5 12 17 4 12 5 24 2 27 -3
2 -8 -5 -12 -17z"/>
<path d="M2865 2130 c-3 -6 1 -7 9 -4 18 7 21 14 7 14 -6 0 -13 -4 -16 -10z"/>
<path d="M177 2119 c7 -7 15 -10 18 -7 3 3 -2 9 -12 12 -14 6 -15 5 -6 -5z"/>
<path d="M670 2116 c0 -8 5 -18 10 -21 6 -3 10 3 10 14 0 12 -4 21 -10 21 -5
0 -10 -6 -10 -14z"/>
<path d="M2951 2114 c0 -11 3 -14 6 -6 3 7 2 16 -1 19 -3 4 -6 -2 -5 -13z"/>
<path d="M51 2104 c0 -11 3 -14 6 -6 3 7 2 16 -1 19 -3 4 -6 -2 -5 -13z"/>
<path d="M2550 2094 c8 -10 15 -20 16 -22 1 -2 5 1 8 7 4 5 -4 15 -16 22 -22
12 -22 11 -8 -7z"/>
<path d="M2770 2090 c0 -5 5 -10 11 -10 5 0 7 5 4 10 -3 6 -8 10 -11 10 -2 0
-4 -4 -4 -10z"/>
<path d="M2586 2075 c-3 -8 2 -21 10 -30 21 -21 31 -19 12 3 -9 9 -13 23 -11
30 7 17 -4 15 -11 -3z"/>
<path d="M566 2063 c-6 -14 -5 -15 5 -6 7 7 10 15 7 18 -3 3 -9 -2 -12 -12z"/>
<path d="M689 2065 c17 -33 31 -51 31 -40 0 6 -10 21 -21 35 -13 17 -17 18
-10 5z"/>
<path d="M345 1968 c-43 -51 -87 -104 -99 -118 -40 -46 -40 -48 21 -119 32
-38 91 -110 132 -160 40 -50 77 -91 82 -91 5 0 1 8 -8 18 -30 31 -97 113 -107
129 -4 8 -17 24 -28 35 -13 13 -17 26 -13 41 5 18 4 19 -4 7 -10 -13 -14 -11
-30 10 -11 13 -18 27 -15 31 2 4 -6 9 -17 12 -14 4 -20 11 -16 21 3 8 2 18 -3
21 -6 4 -3 16 7 30 10 12 21 21 26 18 4 -2 7 0 7 6 0 5 6 16 13 23 6 7 24 29
39 48 14 19 42 53 62 75 32 36 43 55 32 55 -3 0 -39 -42 -81 -92z"/>
<path d="M510 2051 c0 -6 4 -13 10 -16 6 -3 7 1 4 9 -7 18 -14 21 -14 7z"/>
<path d="M837 2013 c-10 -9 -9 -23 1 -23 5 0 9 7 9 15 0 17 -1 18 -10 8z"/>
<path d="M1086 1966 c-9 -30 -14 -69 -12 -87 3 -34 42 -87 54 -75 3 4 2 10 -3
14 -29 20 -36 73 -20 160 11 59 -1 52 -19 -12z"/>
<path d="M2625 2000 c21 -24 35 -26 35 -5 0 9 -6 12 -15 9 -8 -4 -15 -1 -15 5
0 6 -5 11 -12 11 -6 0 -3 -9 7 -20z"/>
<path d="M511 1994 c0 -11 3 -14 6 -6 3 7 2 16 -1 19 -3 4 -6 -2 -5 -13z"/>
<path d="M1121 1994 c0 -11 3 -14 6 -6 3 7 2 16 -1 19 -3 4 -6 -2 -5 -13z"/>
<path d="M407 1979 c7 -7 15 -10 18 -7 3 3 -2 9 -12 12 -14 6 -15 5 -6 -5z"/>
<path d="M2665 1969 c-4 -6 -5 -12 -2 -15 2 -3 7 2 10 11 7 17 1 20 -8 4z"/>
<path d="M1120 1955 c0 -8 4 -15 10 -15 5 0 7 7 4 15 -4 8 -8 15 -10 15 -2 0
-4 -7 -4 -15z"/>
<path d="M475 1950 c-3 -5 -1 -10 4 -10 6 0 11 5 11 10 0 6 -2 10 -4 10 -3 0
-8 -4 -11 -10z"/>
<path d="M2686 1947 c3 -10 9 -15 12 -12 3 3 0 11 -7 18 -10 9 -11 8 -5 -6z"/>
<path d="M940 1941 c0 -5 9 -7 20 -4 11 3 20 7 20 9 0 2 -9 4 -20 4 -11 0 -20
-4 -20 -9z"/>
<path d="M1649 1933 c-13 -16 -12 -17 4 -4 9 7 17 15 17 17 0 8 -8 3 -21 -13z"/>
<path d="M9 1923 c-13 -16 -12 -17 4 -4 9 7 17 15 17 17 0 8 -8 3 -21 -13z"/>
<path d="M2706 1925 c-3 -9 0 -15 9 -15 9 0 12 6 9 15 -4 8 -7 15 -9 15 -2 0
-5 -7 -9 -15z"/>
<path d="M1111 1914 c0 -11 3 -14 6 -6 3 7 2 16 -1 19 -3 4 -6 -2 -5 -13z"/>
<path d="M2921 1914 c0 -11 3 -14 6 -6 3 7 2 16 -1 19 -3 4 -6 -2 -5 -13z"/>
<path d="M40 1910 c-9 -6 -10 -10 -3 -10 6 0 15 5 18 10 8 12 4 12 -15 0z"/>
<path d="M2737 1896 c-4 -11 -3 -24 3 -30 14 -14 18 -5 10 24 -5 23 -7 23 -13
6z"/>
<path d="M2885 1871 c-3 -6 4 -9 15 -8 11 1 20 5 20 9 0 11 -28 10 -35 -1z"/>
<path d="M2966 1846 c3 -9 1 -16 -5 -16 -6 0 -11 4 -11 8 0 4 -9 8 -19 8 -11
0 -18 -3 -15 -7 2 -4 -4 -10 -14 -13 -10 -3 -18 -15 -19 -26 -1 -11 2 -18 7
-15 5 3 15 -1 23 -10 13 -12 17 -12 34 3 23 20 37 68 23 77 -6 3 -7 -1 -4 -9z
m-16 -35 c0 -24 -13 -33 -34 -25 -19 7 -21 30 -3 37 25 11 37 6 37 -12z"/>
<path d="M2760 1835 c7 -8 19 -15 26 -15 8 0 11 6 8 15 -4 8 -15 15 -26 15
-17 0 -18 -3 -8 -15z"/>
<path d="M963 1823 c-15 -5 -17 -23 -4 -23 5 0 11 7 15 15 3 8 4 15 3 14 -1 0
-8 -3 -14 -6z"/>
<path d="M2810 1812 c0 -7 -6 -11 -12 -9 -7 1 -12 -6 -12 -15 1 -10 -2 -16 -6
-13 -4 3 -13 -2 -20 -11 -11 -12 -11 -17 0 -27 10 -10 11 -9 5 2 -6 11 -4 13
8 8 9 -3 16 -3 15 1 -2 4 6 20 16 35 10 15 16 30 12 34 -3 3 -6 1 -6 -5z"/>
<path d="M2144 1794 c-19 -15 -19 -15 1 -6 11 5 27 12 35 15 13 5 13 6 -1 6
-8 1 -24 -6 -35 -15z"/>
<path d="M943 1760 c-13 -5 -23 -15 -22 -22 0 -10 2 -10 6 0 2 6 11 12 18 12
8 0 17 5 20 10 7 12 7 12 -22 0z"/>
<path d="M1639 1733 c-8 -10 -32 -33 -54 -50 -22 -18 -33 -33 -26 -33 14 0 90
63 104 87 12 19 -6 16 -24 -4z"/>
<path d="M2720 1721 c-5 -11 -17 -27 -26 -36 -9 -9 -14 -19 -11 -22 8 -7 37
22 37 37 0 6 4 9 8 6 4 -2 9 4 9 15 2 24 -3 24 -17 0z"/>
<path d="M910 1711 c0 -6 4 -13 10 -16 6 -3 7 1 4 9 -7 18 -14 21 -14 7z"/>
<path d="M1449 1703 c-13 -16 -12 -17 4 -4 16 13 21 21 13 21 -2 0 -10 -8 -17
-17z"/>
<path d="M2671 1634 c0 -11 3 -14 6 -6 3 7 2 16 -1 19 -3 4 -6 -2 -5 -13z"/>
<path d="M1200 1588 c-75 -24 -77 -25 -64 -38 16 -16 66 -1 104 31 19 16 32
29 30 28 -3 -1 -34 -10 -70 -21z"/>
<path d="M2611 1584 c-12 -14 -20 -31 -17 -37 3 -8 5 -8 5 1 1 7 6 10 11 7 6
-3 10 2 10 12 0 11 5 24 12 31 7 7 10 12 7 12 -3 0 -15 -12 -28 -26z"/>
<path d="M851 1590 c0 -8 4 -22 9 -30 12 -18 12 -2 0 25 -6 13 -9 15 -9 5z"/>
<path d="M881 1584 c0 -11 3 -14 6 -6 3 7 2 16 -1 19 -3 4 -6 -2 -5 -13z"/>
<path d="M907 1593 c-4 -3 -7 -11 -7 -17 0 -6 5 -5 12 2 6 6 9 14 7 17 -3 3
-9 2 -12 -2z"/>
<path d="M2825 1580 c3 -5 8 -10 11 -10 2 0 4 5 4 10 0 6 -5 10 -11 10 -5 0
-7 -4 -4 -10z"/>
<path d="M1389 1561 c6 -10 7 -22 3 -26 -4 -5 -1 -5 6 -1 9 5 9 12 2 27 -6 10
-13 19 -16 19 -2 0 0 -8 5 -19z"/>
<path d="M60 1555 c-8 -9 -8 -15 -2 -15 12 0 26 19 19 26 -2 2 -10 -2 -17 -11z"/>
<path d="M1536 1556 c3 -9 10 -14 14 -11 5 3 14 -1 22 -8 7 -7 33 -19 58 -26
25 -7 64 -22 88 -34 36 -16 42 -24 37 -41 -6 -22 -8 -31 -20 -116 -8 -56 -13
-146 -16 -263 -1 -51 -5 -67 -14 -63 -11 4 -11 0 0 -20 7 -13 11 -35 9 -49 -1
-14 2 -25 8 -25 6 0 8 -6 5 -14 -10 -25 96 -217 111 -201 2 2 -11 26 -31 52
-22 30 -43 78 -57 128 -21 77 -22 87 -11 265 6 102 17 219 25 260 7 41 12 77
11 78 -2 2 -52 24 -112 49 -59 24 -114 47 -121 50 -8 3 -10 0 -6 -11z"/>
<path d="M780 1540 c-14 -10 -23 -21 -20 -23 3 -3 16 3 29 14 31 25 23 33 -9
9z"/>
<path d="M840 1521 c0 -7 -4 -9 -10 -6 -6 3 -7 -1 -4 -9 4 -11 0 -16 -14 -16
-14 0 -20 -6 -19 -19 0 -11 5 -17 9 -15 5 3 5 10 2 16 -5 7 -2 9 8 5 16 -6 47
37 35 50 -4 3 -7 1 -7 -6z"/>
<path d="M1172 1458 c-28 -29 -53 -57 -54 -63 -2 -5 -7 -8 -13 -7 -5 2 -7 0
-2 -4 4 -4 -1 -17 -10 -28 -12 -14 -9 -13 10 4 16 14 30 24 33 23 2 -2 4 0 3
3 -1 3 12 19 27 35 15 16 24 29 18 29 -5 0 4 11 19 25 24 23 33 35 24 35 -1 0
-26 -24 -55 -52z"/>
<path d="M1334 1474 c4 -14 3 -23 -2 -20 -4 2 -14 0 -22 -5 -11 -7 -8 -8 11
-5 31 5 53 -29 37 -57 -14 -27 -2 -20 17 9 9 15 13 24 7 21 -11 -7 -32 35 -32
63 0 11 -5 20 -11 20 -7 0 -9 -10 -5 -26z"/>
<path d="M845 1467 c-4 -14 -5 -32 -2 -39 2 -7 1 -20 -4 -28 -5 -11 -2 -16 11
-16 15 0 16 4 9 24 -5 13 -9 33 -9 44 0 20 1 20 26 3 17 -11 29 -14 36 -7 7 7
4 10 -8 9 -14 -2 -18 4 -16 18 2 17 1 17 -8 5 -9 -13 -11 -13 -19 -1 -8 12
-11 9 -16 -12z"/>
<path d="M490 1460 c0 -5 5 -10 11 -10 5 0 7 5 4 10 -3 6 -8 10 -11 10 -2 0
-4 -4 -4 -10z"/>
<path d="M1375 1459 c-4 -6 -5 -12 -2 -15 2 -3 7 2 10 11 7 17 1 20 -8 4z"/>
<path d="M505 1419 c-20 -8 -19 -9 1 -6 11 1 29 -5 40 -13 19 -14 19 -14 0 8
-11 12 -20 22 -20 21 -1 0 -10 -5 -21 -10z"/>
<path d="M1312 1405 c-9 -20 -9 -23 3 -18 8 3 15 14 15 24 0 25 -5 24 -18 -6z"/>
<path d="M629 1410 c-5 -28 -4 -50 2 -50 13 0 20 33 9 44 -5 5 -10 8 -11 6z"/>
<path d="M880 1375 c-7 -8 -8 -15 -2 -15 5 0 15 7 22 15 7 8 8 15 2 15 -5 0
-15 -7 -22 -15z"/>
<path d="M1373 1355 c-11 -8 -22 -12 -25 -10 -2 2 -4 -5 -5 -16 -2 -17 0 -17
13 -4 8 8 23 19 32 24 9 5 14 12 11 15 -3 3 -14 -1 -26 -9z"/>
<path d="M1100 1335 c-13 -14 -21 -27 -18 -30 2 -3 14 9 27 25 26 37 23 39 -9
5z"/>
<path d="M550 1339 c0 -5 5 -7 10 -4 6 3 10 8 10 11 0 2 -4 4 -10 4 -5 0 -10
-5 -10 -11z"/>
<path d="M2590 1346 c0 -2 7 -7 16 -10 8 -3 12 -2 9 4 -6 10 -25 14 -25 6z"/>
<path d="M610 1311 c0 -8 -7 -11 -17 -6 -15 5 -16 4 -5 -6 9 -10 15 -10 24 -1
6 6 9 15 5 19 -4 3 -7 1 -7 -6z"/>
<path d="M776 1289 c-8 -16 -13 -36 -10 -44 3 -8 -4 -28 -16 -45 l-22 -31 23
-25 c30 -32 38 -30 39 9 0 17 1 46 2 62 1 17 -1 37 -3 45 -2 8 1 14 7 13 7 -1
9 8 6 22 -6 32 -7 31 -26 -6z"/>
<path d="M1611 1264 c0 -11 3 -14 6 -6 3 7 2 16 -1 19 -3 4 -6 -2 -5 -13z"/>
<path d="M636 1247 c3 -10 9 -15 12 -12 3 3 0 11 -7 18 -10 9 -11 8 -5 -6z"/>
<path d="M1377 1232 c-10 -10 -17 -23 -17 -28 0 -5 5 -2 10 6 8 12 10 8 11
-15 1 -27 2 -26 9 10 9 48 8 51 -13 27z"/>
<path d="M2333 1220 c-3 -11 -9 -20 -14 -20 -5 0 -9 -5 -9 -12 0 -6 7 -4 18 5
10 10 19 24 19 32 0 21 -8 19 -14 -5z"/>
<path d="M375 1180 c-3 -6 1 -7 9 -4 18 7 21 14 7 14 -6 0 -13 -4 -16 -10z"/>
<path d="M202 1112 c-33 -29 -40 -40 -32 -52 9 -13 10 -12 8 4 -2 10 6 23 16
30 30 17 60 45 55 51 -3 2 -24 -12 -47 -33z"/>
<path d="M2183 1135 c-3 -9 -3 -18 -1 -21 3 -3 8 4 11 16 6 23 -1 27 -10 5z"/>
<path d="M135 1130 c-3 -5 -2 -10 4 -10 5 0 13 5 16 10 3 6 2 10 -4 10 -5 0
-13 -4 -16 -10z"/>
<path d="M1320 1109 c0 -5 5 -7 10 -4 6 3 10 8 10 11 0 2 -4 4 -10 4 -5 0 -10
-5 -10 -11z"/>
<path d="M1535 1098 c-17 -9 -53 -20 -80 -23 -74 -9 -69 -18 7 -13 50 3 76 10
99 27 l30 23 -5 -44 c-3 -23 -8 -87 -12 -140 l-6 -97 -33 34 c-28 30 -39 35
-79 35 -56 0 -62 -19 -6 -21 57 -2 55 -1 85 -31 15 -16 31 -28 36 -28 11 0 17
44 24 182 6 130 4 134 -60 96z"/>
<path d="M756 1095 c3 -8 11 -13 17 -12 7 1 11 -3 10 -10 -1 -6 5 -14 13 -17
10 -4 14 -2 10 6 -3 7 -9 21 -12 31 -4 9 -15 17 -25 17 -12 0 -16 -5 -13 -15z"/>
<path d="M2205 1090 c3 -5 11 -10 16 -10 6 0 7 5 4 10 -3 6 -11 10 -16 10 -6
0 -7 -4 -4 -10z"/>
<path d="M2115 1050 c-3 -6 1 -7 9 -4 18 7 21 14 7 14 -6 0 -13 -4 -16 -10z"/>
<path d="M2923 1045 c0 -8 4 -12 9 -9 5 3 6 10 3 15 -9 13 -12 11 -12 -6z"/>
<path d="M2421 1034 c0 -11 3 -14 6 -6 3 7 2 16 -1 19 -3 4 -6 -2 -5 -13z"/>
<path d="M105 987 l-20 -20 25 13 c32 16 33 17 23 23 -4 2 -17 -5 -28 -16z"/>
<path d="M855 970 c3 -5 8 -10 11 -10 2 0 4 5 4 10 0 6 -5 10 -11 10 -5 0 -7
-4 -4 -10z"/>
<path d="M588 953 c7 -3 16 -2 19 1 4 3 -2 6 -13 5 -11 0 -14 -3 -6 -6z"/>
<path d="M1178 821 c-2 -50 2 -117 8 -149 11 -53 11 -49 10 73 0 72 1 136 4
144 3 7 0 15 -7 18 -8 3 -12 -22 -15 -86z"/>
<path d="M2041 876 l-25 -31 30 25 c16 14 30 26 32 26 2 1 0 4 -5 7 -4 2 -19
-10 -32 -27z"/>
<path d="M1288 820 c2 -22 6 -40 8 -40 2 0 4 18 4 40 0 22 -3 40 -8 40 -4 0
-6 -18 -4 -40z"/>
<path d="M1475 800 c4 -6 11 -8 16 -5 14 9 11 15 -7 15 -8 0 -12 -5 -9 -10z"/>
<path d="M1530 775 c1 -11 60 -79 65 -73 2 1 -12 21 -31 43 -18 22 -34 36 -34
30z"/>
<path d="M1416 669 c-62 -80 -76 -103 -66 -112 10 -9 11 -9 6 0 -3 6 -2 14 3
18 6 3 8 -4 6 -15 -3 -15 17 -48 62 -106 36 -46 69 -84 73 -84 6 0 151 176
158 191 2 6 -157 211 -162 208 0 0 -36 -46 -80 -100z m104 56 c11 -13 11 -20
0 -40 -7 -14 -16 -25 -20 -25 -4 0 -13 11 -20 25 -11 20 -11 27 0 40 7 8 16
15 20 15 4 0 13 -7 20 -15z m40 -59 c0 -21 34 -63 49 -59 3 1 5 -4 3 -11 -1
-8 7 -16 19 -19 12 -3 18 -10 14 -16 -3 -6 -10 -9 -15 -6 -4 3 -13 -2 -20 -10
-10 -12 -10 -15 1 -16 8 0 4 -4 -9 -9 -13 -6 -29 -26 -38 -45 -13 -31 -16 -34
-34 -23 -15 10 -22 10 -32 0 -6 -6 -8 -15 -4 -19 4 -4 11 -1 16 7 7 12 10 11
16 -4 4 -11 1 -24 -9 -33 -13 -13 -19 -14 -31 -3 -19 15 -21 47 -4 52 8 3 11
20 9 46 -3 52 16 56 21 5 2 -22 6 -2 8 45 3 45 2 82 -2 82 -5 0 -8 -18 -8 -40
0 -22 -4 -40 -10 -40 -5 0 -10 18 -10 40 0 22 -3 40 -7 40 -5 0 -7 -34 -5 -75
3 -55 0 -80 -12 -96 -11 -17 -16 -19 -20 -8 -13 44 -17 50 -25 45 -19 -12 -42
32 -39 75 2 24 6 42 9 39 13 -9 49 33 49 57 0 30 7 29 36 -4 23 -27 24 -27 39
-8 13 17 16 18 25 5 8 -11 9 -8 4 14 -5 21 -4 27 5 22 6 -4 11 -17 11 -30z"/>
<path d="M1490 706 c0 -9 5 -16 10 -16 6 0 10 4 10 9 0 6 -4 13 -10 16 -5 3
-10 -1 -10 -9z"/>
<path d="M1440 621 c-5 -11 -17 -26 -25 -35 -14 -14 -13 -19 15 -57 l30 -42 0
76 c0 43 -2 77 -5 77 -2 0 -9 -9 -15 -19z m6 -46 c-3 -32 -14 -42 -22 -21 -3
9 -1 23 6 31 17 20 19 19 16 -10z"/>
<path d="M1540 565 c0 -50 4 -74 10 -70 6 4 8 16 5 28 -2 12 -2 16 1 9 5 -10
9 -10 20 -1 21 17 17 32 -6 26 -14 -3 -20 0 -20 10 0 10 6 14 20 10 26 -7 25
-1 -5 35 l-25 30 0 -77z"/>
<path d="M1400 521 c0 -5 5 -13 10 -16 6 -3 10 -2 10 4 0 5 -4 13 -10 16 -5 3
-10 2 -10 -4z"/>
<path d="M1929 733 c-13 -16 -12 -17 4 -4 16 13 21 21 13 21 -2 0 -10 -8 -17
-17z"/>
<path d="M1843 684 c-28 -31 -13 -41 16 -10 13 13 19 26 14 29 -5 3 -18 -5
-30 -19z"/>
<path d="M1630 650 c17 -22 34 -40 36 -40 8 0 -51 79 -59 80 -5 0 6 -18 23
-40z"/>
<path d="M842 640 c0 -14 2 -19 5 -12 2 6 2 18 0 25 -3 6 -5 1 -5 -13z"/>
<path d="M1314 596 c-9 -15 -14 -29 -10 -33 3 -3 6 -1 6 5 0 6 7 18 16 27 9 9
14 18 11 21 -3 3 -13 -6 -23 -20z"/>
<path d="M1315 537 c10 -8 15 -18 12 -24 -3 -5 0 -10 8 -10 8 0 15 3 15 7 0 9
-35 40 -45 40 -5 0 -1 -6 10 -13z"/>
<path d="M1632 486 c-29 -35 -64 -77 -78 -93 -14 -15 -30 -37 -35 -48 -12 -23
12 1 76 79 22 27 45 54 51 60 14 14 47 66 43 66 -2 0 -28 -29 -57 -64z"/>
<path d="M1260 527 c0 -2 6 -10 14 -16 11 -9 16 -9 22 1 4 7 4 10 -1 6 -4 -4
-14 -3 -22 3 -7 6 -13 9 -13 6z"/>
<path d="M1280 484 c-24 -14 -24 -15 -3 -12 16 2 33 -9 58 -37 36 -41 42 -55
25 -55 -5 0 -10 -5 -10 -11 0 -8 4 -8 14 0 10 9 20 4 42 -23 64 -76 78 -95 80
-111 4 -29 11 -27 23 5 9 27 8 31 -4 27 -8 -4 -25 9 -42 30 -15 20 -45 56 -66
80 -20 25 -34 49 -31 55 4 6 3 8 -3 5 -11 -7 -65 48 -56 57 9 9 1 6 -27 -10z"/>
<path d="M1360 482 c0 -5 10 -17 21 -28 22 -19 22 -19 10 3 -12 24 -31 39 -31
25z"/>
<path d="M1396 413 c-6 -14 -5 -15 5 -6 10 10 18 4 40 -25 30 -40 37 -58 17
-46 -10 6 -10 4 0 -7 8 -8 15 -10 22 -3 6 6 -3 25 -26 54 -42 53 -49 57 -58
33z"/>
<path d="M645 400 c-16 -7 -17 -9 -3 -9 9 -1 20 4 23 9 7 11 7 11 -20 0z"/>
<path d="M795 250 c-3 -5 -1 -10 4 -10 6 0 11 5 11 10 0 6 -2 10 -4 10 -3 0
-8 -4 -11 -10z"/>
<path d="M876 197 c3 -10 9 -15 12 -12 3 3 0 11 -7 18 -10 9 -11 8 -5 -6z"/>
<path d="M95 109 c-11 -16 -1 -19 13 -3 7 8 8 14 3 14 -5 0 -13 -5 -16 -11z"/>
</g>
</svg>
